0
SECTION
2
HEADER
9
$ACADVER
1
AC1006
9
$INSBASE
10
0.0
20
0.0
30
0.0
9
$EXTMIN
10
0.0
20
0.0
9
$EXTMAX
10
0.0
20
0.0
0
ENDSEC
0
SECTION
2
TABLES
0
TABLE
2
LTYPE
70
1
0
LTYPE
2
CONTINUOUS
70
64
3
Solid line
72
65
73
0
40
0.0
0
ENDTAB
0
TABLE
2
LAYER
70
3
0
LAYER
2
PYDXF
70
64
62
7
6
continuous
0
LAYER
2
GAP
70
64
62
1
6
continuous
0
LAYER
2
PIN
70
64
62
3
6
continuous
0
ENDTAB
0
TABLE
2
STYLE
70
1
0
STYLE
2
STANDARD
70
0
40
0
41
40
50
50
71
0
42
1
3
ARIAL.TTF
4

0
ENDTAB
0
TABLE
2
VIEW
70
0
0
ENDTAB
0
ENDSEC
0
SECTION
2
BLOCKS
0
BLOCK
8
GAP
2
AGAP
70
0
10
0
20
0
30
0
3
AGAP
0
POLYLINE
8
0
66
1
10
0.0
20
0.0
30
0.0
0
VERTEX
8
0
10
260.0
20
6340.0
0
VERTEX
8
0
10
260.0
20
6260.0
0
VERTEX
8
0
10
340.0
20
6260.0
0
VERTEX
8
0
10
340.0
20
6340.0
0
VERTEX
8
0
10
260.0
20
6340.0
0
SEQEND
0
POLYLINE
8
0
66
1
10
0.0
20
0.0
30
0.0
0
VERTEX
8
0
10
6260.0
20
6340.0
0
VERTEX
8
0
10
6260.0
20
6260.0
0
VERTEX
8
0
10
6340.0
20
6260.0
0
VERTEX
8
0
10
6340.0
20
6340.0
0
VERTEX
8
0
10
6260.0
20
6340.0
0
SEQEND
0
POLYLINE
8
0
66
1
10
0.0
20
0.0
30
0.0
0
VERTEX
8
0
10
260.0
20
340.0
0
VERTEX
8
0
10
260.0
20
260.0
0
VERTEX
8
0
10
340.0
20
260.0
0
VERTEX
8
0
10
340.0
20
340.0
0
VERTEX
8
0
10
260.0
20
340.0
0
SEQEND
0
POLYLINE
8
0
66
1
10
0.0
20
0.0
30
0.0
0
VERTEX
8
0
10
6260.0
20
340.0
0
VERTEX
8
0
10
6260.0
20
260.0
0
VERTEX
8
0
10
6340.0
20
260.0
0
VERTEX
8
0
10
6340.0
20
340.0
0
VERTEX
8
0
10
6260.0
20
340.0
0
SEQEND
0
POLYLINE
8
0
66
1
10
0.0
20
0.0
30
0.0
0
VERTEX
8
0
10
1100.9999999999995
20
4396.5
0
VERTEX
8
0
10
1100.9999999999995
20
4376.7
0
VERTEX
8
0
10
1101.2000000000003
20
4376.7
0
VERTEX
8
0
10
1101.2000000000003
20
4396.5
0
VERTEX
8
0
10
1100.9999999999995
20
4396.5
0
SEQEND
0
POLYLINE
8
0
66
1
10
0.0
20
0.0
30
0.0
0
VERTEX
8
0
10
1100.9999999999995
20
4375.7
0
VERTEX
8
0
10
1100.9999999999995
20
4362.5
0
VERTEX
8
0
10
1101.2000000000003
20
4362.5
0
VERTEX
8
0
10
1101.2000000000003
20
4375.7
0
VERTEX
8
0
10
1100.9999999999995
20
4375.7
0
SEQEND
0
POLYLINE
8
0
66
1
10
0.0
20
0.0
30
0.0
0
VERTEX
8
0
10
1137.7999999999997
20
4396.5
0
VERTEX
8
0
10
1137.7999999999997
20
4376.7
0
VERTEX
8
0
10
1138.0000000000005
20
4376.7
0
VERTEX
8
0
10
1138.0000000000005
20
4396.5
0
VERTEX
8
0
10
1137.7999999999997
20
4396.5
0
SEQEND
0
POLYLINE
8
0
66
1
10
0.0
20
0.0
30
0.0
0
VERTEX
8
0
10
1137.7999999999997
20
4375.7
0
VERTEX
8
0
10
1137.7999999999997
20
4362.5
0
VERTEX
8
0
10
1138.0000000000005
20
4362.5
0
VERTEX
8
0
10
1138.0000000000005
20
4375.7
0
VERTEX
8
0
10
1137.7999999999997
20
4375.7
0
SEQEND
0
POLYLINE
8
0
66
1
10
0.0
20
0.0
30
0.0
0
VERTEX
8
0
10
1099.7999999999995
20
4397.5
0
VERTEX
8
0
10
1099.7999999999995
20
4385.5
0
VERTEX
8
0
10
1100.0000000000002
20
4385.5
0
VERTEX
8
0
10
1100.0000000000002
20
4397.5
0
VERTEX
8
0
10
1099.7999999999995
20
4397.5
0
SEQEND
0
POLYLINE
8
0
66
1
10
0.0
20
0.0
30
0.0
0
VERTEX
8
0
10
1099.7999999999995
20
4383.5
0
VERTEX
8
0
10
1099.7999999999995
20
4361.5
0
VERTEX
8
0
10
1100.0000000000002
20
4361.5
0
VERTEX
8
0
10
1100.0000000000002
20
4383.5
0
VERTEX
8
0
10
1099.7999999999995
20
4383.5
0
SEQEND
0
POLYLINE
8
0
66
1
10
0.0
20
0.0
30
0.0
0
VERTEX
8
0
10
1138.9999999999998
20
4397.5
0
VERTEX
8
0
10
1138.9999999999998
20
4385.5
0
VERTEX
8
0
10
1139.2000000000005
20
4385.5
0
VERTEX
8
0
10
1139.2000000000005
20
4397.5
0
VERTEX
8
0
10
1138.9999999999998
20
4397.5
0
SEQEND
0
POLYLINE
8
0
66
1
10
0.0
20
0.0
30
0.0
0
VERTEX
8
0
10
1138.9999999999998
20
4383.5
0
VERTEX
8
0
10
1138.9999999999998
20
4361.5
0
VERTEX
8
0
10
1139.2000000000005
20
4361.5
0
VERTEX
8
0
10
1139.2000000000005
20
4383.5
0
VERTEX
8
0
10
1138.9999999999998
20
4383.5
0
SEQEND
0
POLYLINE
8
0
66
1
10
0.0
20
0.0
30
0.0
0
VERTEX
8
0
10
1119.38
20
4397.0455
0
VERTEX
8
0
10
1119.38
20
4396.9545
0
VERTEX
8
0
10
1119.62
20
4396.9545
0
VERTEX
8
0
10
1119.62
20
4397.0455
0
VERTEX
8
0
10
1119.38
20
4397.0455
0
SEQEND
0
POLYLINE
8
0
66
1
10
0.0
20
0.0
30
0.0
0
VERTEX
8
0
10
1119.0
20
4397.2455
0
VERTEX
8
0
10
1119.0
20
4397.0455
0
VERTEX
8
0
10
1120.0
20
4397.0455
0
VERTEX
8
0
10
1120.0
20
4397.2455
0
VERTEX
8
0
10
1119.0
20
4397.2455
0
SEQEND
0
POLYLINE
8
0
66
1
10
0.0
20
0.0
30
0.0
0
VERTEX
8
0
10
1119.0
20
4396.9545
0
VERTEX
8
0
10
1119.0
20
4396.7545
0
VERTEX
8
0
10
1120.0
20
4396.7545
0
VERTEX
8
0
10
1120.0
20
4396.9545
0
VERTEX
8
0
10
1119.0
20
4396.9545
0
SEQEND
0
POLYLINE
8
0
66
1
10
0.0
20
0.0
30
0.0
0
VERTEX
8
0
10
1120.0
20
4397.7
0
VERTEX
8
0
10
1120.0
20
4397.5
0
VERTEX
8
0
10
1123.0
20
4397.5
0
VERTEX
8
0
10
1123.0
20
4397.7
0
VERTEX
8
0
10
1120.0
20
4397.7
0
SEQEND
0
POLYLINE
8
0
66
1
10
0.0
20
0.0
30
0.0
0
VERTEX
8
0
10
1119.0
20
4397.7
0
VERTEX
8
0
10
1119.0
20
4397.5
0
VERTEX
8
0
10
1116.0
20
4397.5
0
VERTEX
8
0
10
1116.0
20
4397.7
0
VERTEX
8
0
10
1119.0
20
4397.7
0
SEQEND
0
POLYLINE
8
0
66
1
10
0.0
20
0.0
30
0.0
0
VERTEX
8
0
10
1120.0
20
4397.5
0
VERTEX
8
0
10
1120.0
20
4397.0455
0
VERTEX
8
0
10
1120.0
20
4397.0455
0
VERTEX
8
0
10
1123.0
20
4397.5
0
VERTEX
8
0
10
1120.0
20
4397.5
0
SEQEND
0
POLYLINE
8
0
66
1
10
0.0
20
0.0
30
0.0
0
VERTEX
8
0
10
1119.0
20
4397.5
0
VERTEX
8
0
10
1119.0
20
4397.0455
0
VERTEX
8
0
10
1119.0
20
4397.0455
0
VERTEX
8
0
10
1116.0
20
4397.5
0
VERTEX
8
0
10
1119.0
20
4397.5
0
SEQEND
0
POLYLINE
8
0
66
1
10
0.0
20
0.0
30
0.0
0
VERTEX
8
0
10
1120.0
20
4397.7
0
VERTEX
8
0
10
1120.0
20
4397.2455
0
VERTEX
8
0
10
1120.0
20
4397.2455
0
VERTEX
8
0
10
1123.0
20
4397.7
0
VERTEX
8
0
10
1120.0
20
4397.7
0
SEQEND
0
POLYLINE
8
0
66
1
10
0.0
20
0.0
30
0.0
0
VERTEX
8
0
10
1119.0
20
4397.7
0
VERTEX
8
0
10
1119.0
20
4397.2455
0
VERTEX
8
0
10
1119.0
20
4397.2455
0
VERTEX
8
0
10
1116.0
20
4397.7
0
VERTEX
8
0
10
1119.0
20
4397.7
0
SEQEND
0
POLYLINE
8
0
66
1
10
0.0
20
0.0
30
0.0
0
VERTEX
8
0
10
1120.0
20
4396.5
0
VERTEX
8
0
10
1120.0
20
4396.3
0
VERTEX
8
0
10
1123.0
20
4396.3
0
VERTEX
8
0
10
1123.0
20
4396.5
0
VERTEX
8
0
10
1120.0
20
4396.5
0
SEQEND
0
POLYLINE
8
0
66
1
10
0.0
20
0.0
30
0.0
0
VERTEX
8
0
10
1119.0
20
4396.5
0
VERTEX
8
0
10
1119.0
20
4396.3
0
VERTEX
8
0
10
1116.0
20
4396.3
0
VERTEX
8
0
10
1116.0
20
4396.5
0
VERTEX
8
0
10
1119.0
20
4396.5
0
SEQEND
0
POLYLINE
8
0
66
1
10
0.0
20
0.0
30
0.0
0
VERTEX
8
0
10
1120.0
20
4396.9545
0
VERTEX
8
0
10
1120.0
20
4396.5
0
VERTEX
8
0
10
1123.0
20
4396.5
0
VERTEX
8
0
10
1120.0
20
4396.9545
0
VERTEX
8
0
10
1120.0
20
4396.9545
0
SEQEND
0
POLYLINE
8
0
66
1
10
0.0
20
0.0
30
0.0
0
VERTEX
8
0
10
1119.0
20
4396.9545
0
VERTEX
8
0
10
1119.0
20
4396.5
0
VERTEX
8
0
10
1116.0
20
4396.5
0
VERTEX
8
0
10
1119.0
20
4396.9545
0
VERTEX
8
0
10
1119.0
20
4396.9545
0
SEQEND
0
POLYLINE
8
0
66
1
10
0.0
20
0.0
30
0.0
0
VERTEX
8
0
10
1120.0
20
4396.7545
0
VERTEX
8
0
10
1120.0
20
4396.3
0
VERTEX
8
0
10
1123.0
20
4396.3
0
VERTEX
8
0
10
1120.0
20
4396.7545
0
VERTEX
8
0
10
1120.0
20
4396.7545
0
SEQEND
0
POLYLINE
8
0
66
1
10
0.0
20
0.0
30
0.0
0
VERTEX
8
0
10
1119.0
20
4396.7545
0
VERTEX
8
0
10
1119.0
20
4396.3
0
VERTEX
8
0
10
1116.0
20
4396.3
0
VERTEX
8
0
10
1119.0
20
4396.7545
0
VERTEX
8
0
10
1119.0
20
4396.7545
0
SEQEND
0
POLYLINE
8
0
66
1
10
0.0
20
0.0
30
0.0
0
VERTEX
8
0
10
1116.0
20
4397.0
0
VERTEX
8
0
10
1119.0
20
4397.0
0
VERTEX
8
0
10
1119.0
20
4397.0455
0
VERTEX
8
0
10
1116.0
20
4397.5
0
VERTEX
8
0
10
1116.0
20
4397.0
0
SEQEND
0
POLYLINE
8
0
66
1
10
0.0
20
0.0
30
0.0
0
VERTEX
8
0
10
1116.0
20
4397.0
0
VERTEX
8
0
10
1119.0
20
4397.0
0
VERTEX
8
0
10
1119.0
20
4396.9545
0
VERTEX
8
0
10
1116.0
20
4396.5
0
VERTEX
8
0
10
1116.0
20
4397.0
0
SEQEND
0
POLYLINE
8
0
66
1
10
0.0
20
0.0
30
0.0
0
VERTEX
8
0
10
1119.0
20
4396.9545
0
VERTEX
8
0
10
1119.38
20
4396.9545
0
VERTEX
8
0
10
1119.38
20
4397.0455
0
VERTEX
8
0
10
1119.0
20
4397.0455
0
VERTEX
8
0
10
1119.0
20
4396.9545
0
SEQEND
0
POLYLINE
8
0
66
1
10
0.0
20
0.0
30
0.0
0
VERTEX
8
0
10
1116.0
20
4397.0
0
VERTEX
8
0
10
1119.0
20
4397.0
0
VERTEX
8
0
10
1119.0
20
4397.2455
0
VERTEX
8
0
10
1116.0
20
4397.7
0
VERTEX
8
0
10
1116.0
20
4397.0
0
SEQEND
0
POLYLINE
8
0
66
1
10
0.0
20
0.0
30
0.0
0
VERTEX
8
0
10
1116.0
20
4397.0
0
VERTEX
8
0
10
1119.0
20
4397.0
0
VERTEX
8
0
10
1119.0
20
4396.7545
0
VERTEX
8
0
10
1116.0
20
4396.3
0
VERTEX
8
0
10
1116.0
20
4397.0
0
SEQEND
0
POLYLINE
8
0
66
1
10
0.0
20
0.0
30
0.0
0
VERTEX
8
0
10
1119.0
20
4396.7545
0
VERTEX
8
0
10
1119.38
20
4396.7545
0
VERTEX
8
0
10
1119.38
20
4397.2455
0
VERTEX
8
0
10
1119.0
20
4397.2455
0
VERTEX
8
0
10
1119.0
20
4396.7545
0
SEQEND
0
POLYLINE
8
0
66
1
10
0.0
20
0.0
30
0.0
0
VERTEX
8
0
10
1119.38
20
4397.2455
0
VERTEX
8
0
10
1119.6200000000001
20
4397.2455
0
VERTEX
8
0
10
1119.6200000000001
20
4397.5
0
VERTEX
8
0
10
1119.38
20
4397.5
0
VERTEX
8
0
10
1119.38
20
4397.2455
0
SEQEND
0
POLYLINE
8
0
66
1
10
0.0
20
0.0
30
0.0
0
VERTEX
8
0
10
1119.38
20
4396.7545
0
VERTEX
8
0
10
1119.6200000000001
20
4396.7545
0
VERTEX
8
0
10
1119.6200000000001
20
4396.5
0
VERTEX
8
0
10
1119.38
20
4396.5
0
VERTEX
8
0
10
1119.38
20
4396.7545
0
SEQEND
0
POLYLINE
8
0
66
1
10
0.0
20
0.0
30
0.0
0
VERTEX
8
0
10
1120.0
20
4376.9
0
VERTEX
8
0
10
1120.0
20
4376.7
0
VERTEX
8
0
10
1123.0
20
4376.7
0
VERTEX
8
0
10
1123.0
20
4376.9
0
VERTEX
8
0
10
1120.0
20
4376.9
0
SEQEND
0
POLYLINE
8
0
66
1
10
0.0
20
0.0
30
0.0
0
VERTEX
8
0
10
1119.0
20
4376.9
0
VERTEX
8
0
10
1119.0
20
4376.7
0
VERTEX
8
0
10
1116.0
20
4376.7
0
VERTEX
8
0
10
1116.0
20
4376.9
0
VERTEX
8
0
10
1119.0
20
4376.9
0
SEQEND
0
POLYLINE
8
0
66
1
10
0.0
20
0.0
30
0.0
0
VERTEX
8
0
10
1120.0
20
4376.7
0
VERTEX
8
0
10
1120.0
20
4376.2429999999995
0
VERTEX
8
0
10
1120.0
20
4376.2429999999995
0
VERTEX
8
0
10
1123.0
20
4376.7
0
VERTEX
8
0
10
1120.0
20
4376.7
0
SEQEND
0
POLYLINE
8
0
66
1
10
0.0
20
0.0
30
0.0
0
VERTEX
8
0
10
1119.0
20
4376.7
0
VERTEX
8
0
10
1119.0
20
4376.2429999999995
0
VERTEX
8
0
10
1119.0
20
4376.2429999999995
0
VERTEX
8
0
10
1116.0
20
4376.7
0
VERTEX
8
0
10
1119.0
20
4376.7
0
SEQEND
0
POLYLINE
8
0
66
1
10
0.0
20
0.0
30
0.0
0
VERTEX
8
0
10
1120.0
20
4376.9
0
VERTEX
8
0
10
1120.0
20
4376.442999999999
0
VERTEX
8
0
10
1120.0
20
4376.442999999999
0
VERTEX
8
0
10
1123.0
20
4376.9
0
VERTEX
8
0
10
1120.0
20
4376.9
0
SEQEND
0
POLYLINE
8
0
66
1
10
0.0
20
0.0
30
0.0
0
VERTEX
8
0
10
1119.0
20
4376.9
0
VERTEX
8
0
10
1119.0
20
4376.442999999999
0
VERTEX
8
0
10
1119.0
20
4376.442999999999
0
VERTEX
8
0
10
1116.0
20
4376.9
0
VERTEX
8
0
10
1119.0
20
4376.9
0
SEQEND
0
POLYLINE
8
0
66
1
10
0.0
20
0.0
30
0.0
0
VERTEX
8
0
10
1120.0
20
4375.699999999999
0
VERTEX
8
0
10
1120.0
20
4375.499999999999
0
VERTEX
8
0
10
1123.0
20
4375.499999999999
0
VERTEX
8
0
10
1123.0
20
4375.699999999999
0
VERTEX
8
0
10
1120.0
20
4375.699999999999
0
SEQEND
0
POLYLINE
8
0
66
1
10
0.0
20
0.0
30
0.0
0
VERTEX
8
0
10
1119.0
20
4375.699999999999
0
VERTEX
8
0
10
1119.0
20
4375.499999999999
0
VERTEX
8
0
10
1116.0
20
4375.499999999999
0
VERTEX
8
0
10
1116.0
20
4375.699999999999
0
VERTEX
8
0
10
1119.0
20
4375.699999999999
0
SEQEND
0
POLYLINE
8
0
66
1
10
0.0
20
0.0
30
0.0
0
VERTEX
8
0
10
1120.0
20
4376.156999999999
0
VERTEX
8
0
10
1120.0
20
4375.699999999999
0
VERTEX
8
0
10
1123.0
20
4375.699999999999
0
VERTEX
8
0
10
1120.0
20
4376.156999999999
0
VERTEX
8
0
10
1120.0
20
4376.156999999999
0
SEQEND
0
POLYLINE
8
0
66
1
10
0.0
20
0.0
30
0.0
0
VERTEX
8
0
10
1119.0
20
4376.156999999999
0
VERTEX
8
0
10
1119.0
20
4375.699999999999
0
VERTEX
8
0
10
1116.0
20
4375.699999999999
0
VERTEX
8
0
10
1119.0
20
4376.156999999999
0
VERTEX
8
0
10
1119.0
20
4376.156999999999
0
SEQEND
0
POLYLINE
8
0
66
1
10
0.0
20
0.0
30
0.0
0
VERTEX
8
0
10
1120.0
20
4375.956999999999
0
VERTEX
8
0
10
1120.0
20
4375.499999999999
0
VERTEX
8
0
10
1123.0
20
4375.499999999999
0
VERTEX
8
0
10
1120.0
20
4375.956999999999
0
VERTEX
8
0
10
1120.0
20
4375.956999999999
0
SEQEND
0
POLYLINE
8
0
66
1
10
0.0
20
0.0
30
0.0
0
VERTEX
8
0
10
1119.0
20
4375.956999999999
0
VERTEX
8
0
10
1119.0
20
4375.499999999999
0
VERTEX
8
0
10
1116.0
20
4375.499999999999
0
VERTEX
8
0
10
1119.0
20
4375.956999999999
0
VERTEX
8
0
10
1119.0
20
4375.956999999999
0
SEQEND
0
POLYLINE
8
0
66
1
10
0.0
20
0.0
30
0.0
0
VERTEX
8
0
10
1116.0
20
4376.2
0
VERTEX
8
0
10
1119.0
20
4376.2
0
VERTEX
8
0
10
1119.0
20
4376.2429999999995
0
VERTEX
8
0
10
1116.0
20
4376.7
0
VERTEX
8
0
10
1116.0
20
4376.2
0
SEQEND
0
POLYLINE
8
0
66
1
10
0.0
20
0.0
30
0.0
0
VERTEX
8
0
10
1116.0
20
4376.2
0
VERTEX
8
0
10
1119.0
20
4376.2
0
VERTEX
8
0
10
1119.0
20
4376.157
0
VERTEX
8
0
10
1116.0
20
4375.7
0
VERTEX
8
0
10
1116.0
20
4376.2
0
SEQEND
0
POLYLINE
8
0
66
1
10
0.0
20
0.0
30
0.0
0
VERTEX
8
0
10
1116.0
20
4376.2
0
VERTEX
8
0
10
1119.0
20
4376.2
0
VERTEX
8
0
10
1119.0
20
4376.443
0
VERTEX
8
0
10
1116.0
20
4376.9
0
VERTEX
8
0
10
1116.0
20
4376.2
0
SEQEND
0
POLYLINE
8
0
66
1
10
0.0
20
0.0
30
0.0
0
VERTEX
8
0
10
1116.0
20
4376.2
0
VERTEX
8
0
10
1119.0
20
4376.2
0
VERTEX
8
0
10
1119.0
20
4375.956999999999
0
VERTEX
8
0
10
1116.0
20
4375.5
0
VERTEX
8
0
10
1116.0
20
4376.2
0
SEQEND
0
POLYLINE
8
0
66
1
10
0.0
20
0.0
30
0.0
0
VERTEX
8
0
10
1108.6666666666667
20
4362.7
0
VERTEX
8
0
10
1108.6666666666667
20
4362.5
0
VERTEX
8
0
10
1111.6666666666667
20
4362.5
0
VERTEX
8
0
10
1111.6666666666667
20
4362.7
0
VERTEX
8
0
10
1108.6666666666667
20
4362.7
0
SEQEND
0
POLYLINE
8
0
66
1
10
0.0
20
0.0
30
0.0
0
VERTEX
8
0
10
1107.6666666666667
20
4362.7
0
VERTEX
8
0
10
1107.6666666666667
20
4362.5
0
VERTEX
8
0
10
1104.6666666666667
20
4362.5
0
VERTEX
8
0
10
1104.6666666666667
20
4362.7
0
VERTEX
8
0
10
1107.6666666666667
20
4362.7
0
SEQEND
0
POLYLINE
8
0
66
1
10
0.0
20
0.0
30
0.0
0
VERTEX
8
0
10
1108.6666666666667
20
4362.5
0
VERTEX
8
0
10
1108.6666666666667
20
4362.068
0
VERTEX
8
0
10
1108.6666666666667
20
4362.068
0
VERTEX
8
0
10
1111.6666666666667
20
4362.5
0
VERTEX
8
0
10
1108.6666666666667
20
4362.5
0
SEQEND
0
POLYLINE
8
0
66
1
10
0.0
20
0.0
30
0.0
0
VERTEX
8
0
10
1107.6666666666667
20
4362.5
0
VERTEX
8
0
10
1107.6666666666667
20
4362.068
0
VERTEX
8
0
10
1107.6666666666667
20
4362.068
0
VERTEX
8
0
10
1104.6666666666667
20
4362.5
0
VERTEX
8
0
10
1107.6666666666667
20
4362.5
0
SEQEND
0
POLYLINE
8
0
66
1
10
0.0
20
0.0
30
0.0
0
VERTEX
8
0
10
1108.6666666666667
20
4362.7
0
VERTEX
8
0
10
1108.6666666666667
20
4362.268
0
VERTEX
8
0
10
1108.6666666666667
20
4362.268
0
VERTEX
8
0
10
1111.6666666666667
20
4362.7
0
VERTEX
8
0
10
1108.6666666666667
20
4362.7
0
SEQEND
0
POLYLINE
8
0
66
1
10
0.0
20
0.0
30
0.0
0
VERTEX
8
0
10
1107.6666666666667
20
4362.7
0
VERTEX
8
0
10
1107.6666666666667
20
4362.268
0
VERTEX
8
0
10
1107.6666666666667
20
4362.268
0
VERTEX
8
0
10
1104.6666666666667
20
4362.7
0
VERTEX
8
0
10
1107.6666666666667
20
4362.7
0
SEQEND
0
POLYLINE
8
0
66
1
10
0.0
20
0.0
30
0.0
0
VERTEX
8
0
10
1108.6666666666667
20
4361.5
0
VERTEX
8
0
10
1108.6666666666667
20
4361.3
0
VERTEX
8
0
10
1111.6666666666667
20
4361.3
0
VERTEX
8
0
10
1111.6666666666667
20
4361.5
0
VERTEX
8
0
10
1108.6666666666667
20
4361.5
0
SEQEND
0
POLYLINE
8
0
66
1
10
0.0
20
0.0
30
0.0
0
VERTEX
8
0
10
1107.6666666666667
20
4361.5
0
VERTEX
8
0
10
1107.6666666666667
20
4361.3
0
VERTEX
8
0
10
1104.6666666666667
20
4361.3
0
VERTEX
8
0
10
1104.6666666666667
20
4361.5
0
VERTEX
8
0
10
1107.6666666666667
20
4361.5
0
SEQEND
0
POLYLINE
8
0
66
1
10
0.0
20
0.0
30
0.0
0
VERTEX
8
0
10
1108.6666666666667
20
4361.932
0
VERTEX
8
0
10
1108.6666666666667
20
4361.5
0
VERTEX
8
0
10
1111.6666666666667
20
4361.5
0
VERTEX
8
0
10
1108.6666666666667
20
4361.932
0
VERTEX
8
0
10
1108.6666666666667
20
4361.932
0
SEQEND
0
POLYLINE
8
0
66
1
10
0.0
20
0.0
30
0.0
0
VERTEX
8
0
10
1107.6666666666667
20
4361.932
0
VERTEX
8
0
10
1107.6666666666667
20
4361.5
0
VERTEX
8
0
10
1104.6666666666667
20
4361.5
0
VERTEX
8
0
10
1107.6666666666667
20
4361.932
0
VERTEX
8
0
10
1107.6666666666667
20
4361.932
0
SEQEND
0
POLYLINE
8
0
66
1
10
0.0
20
0.0
30
0.0
0
VERTEX
8
0
10
1108.6666666666667
20
4361.732
0
VERTEX
8
0
10
1108.6666666666667
20
4361.3
0
VERTEX
8
0
10
1111.6666666666667
20
4361.3
0
VERTEX
8
0
10
1108.6666666666667
20
4361.732
0
VERTEX
8
0
10
1108.6666666666667
20
4361.732
0
SEQEND
0
POLYLINE
8
0
66
1
10
0.0
20
0.0
30
0.0
0
VERTEX
8
0
10
1107.6666666666667
20
4361.732
0
VERTEX
8
0
10
1107.6666666666667
20
4361.3
0
VERTEX
8
0
10
1104.6666666666667
20
4361.3
0
VERTEX
8
0
10
1107.6666666666667
20
4361.732
0
VERTEX
8
0
10
1107.6666666666667
20
4361.732
0
SEQEND
0
POLYLINE
8
0
66
1
10
0.0
20
0.0
30
0.0
0
VERTEX
8
0
10
1104.6666666666667
20
4362.0
0
VERTEX
8
0
10
1107.6666666666667
20
4362.0
0
VERTEX
8
0
10
1107.6666666666667
20
4362.068
0
VERTEX
8
0
10
1104.6666666666667
20
4362.5
0
VERTEX
8
0
10
1104.6666666666667
20
4362.0
0
SEQEND
0
POLYLINE
8
0
66
1
10
0.0
20
0.0
30
0.0
0
VERTEX
8
0
10
1104.6666666666667
20
4362.0
0
VERTEX
8
0
10
1107.6666666666667
20
4362.0
0
VERTEX
8
0
10
1107.6666666666667
20
4361.932
0
VERTEX
8
0
10
1104.6666666666667
20
4361.5
0
VERTEX
8
0
10
1104.6666666666667
20
4362.0
0
SEQEND
0
POLYLINE
8
0
66
1
10
0.0
20
0.0
30
0.0
0
VERTEX
8
0
10
1104.6666666666667
20
4362.0
0
VERTEX
8
0
10
1107.6666666666667
20
4362.0
0
VERTEX
8
0
10
1107.6666666666667
20
4362.268
0
VERTEX
8
0
10
1104.6666666666667
20
4362.7
0
VERTEX
8
0
10
1104.6666666666667
20
4362.0
0
SEQEND
0
POLYLINE
8
0
66
1
10
0.0
20
0.0
30
0.0
0
VERTEX
8
0
10
1104.6666666666667
20
4362.0
0
VERTEX
8
0
10
1107.6666666666667
20
4362.0
0
VERTEX
8
0
10
1107.6666666666667
20
4361.732
0
VERTEX
8
0
10
1104.6666666666667
20
4361.3
0
VERTEX
8
0
10
1104.6666666666667
20
4362.0
0
SEQEND
0
POLYLINE
8
0
66
1
10
0.0
20
0.0
30
0.0
0
VERTEX
8
0
10
1131.3333333333335
20
4362.7
0
VERTEX
8
0
10
1131.3333333333335
20
4362.5
0
VERTEX
8
0
10
1134.3333333333335
20
4362.5
0
VERTEX
8
0
10
1134.3333333333335
20
4362.7
0
VERTEX
8
0
10
1131.3333333333335
20
4362.7
0
SEQEND
0
POLYLINE
8
0
66
1
10
0.0
20
0.0
30
0.0
0
VERTEX
8
0
10
1130.3333333333335
20
4362.7
0
VERTEX
8
0
10
1130.3333333333335
20
4362.5
0
VERTEX
8
0
10
1127.3333333333335
20
4362.5
0
VERTEX
8
0
10
1127.3333333333335
20
4362.7
0
VERTEX
8
0
10
1130.3333333333335
20
4362.7
0
SEQEND
0
POLYLINE
8
0
66
1
10
0.0
20
0.0
30
0.0
0
VERTEX
8
0
10
1131.3333333333335
20
4362.5
0
VERTEX
8
0
10
1131.3333333333335
20
4362.068
0
VERTEX
8
0
10
1131.3333333333335
20
4362.068
0
VERTEX
8
0
10
1134.3333333333335
20
4362.5
0
VERTEX
8
0
10
1131.3333333333335
20
4362.5
0
SEQEND
0
POLYLINE
8
0
66
1
10
0.0
20
0.0
30
0.0
0
VERTEX
8
0
10
1130.3333333333335
20
4362.5
0
VERTEX
8
0
10
1130.3333333333335
20
4362.068
0
VERTEX
8
0
10
1130.3333333333335
20
4362.068
0
VERTEX
8
0
10
1127.3333333333335
20
4362.5
0
VERTEX
8
0
10
1130.3333333333335
20
4362.5
0
SEQEND
0
POLYLINE
8
0
66
1
10
0.0
20
0.0
30
0.0
0
VERTEX
8
0
10
1131.3333333333335
20
4362.7
0
VERTEX
8
0
10
1131.3333333333335
20
4362.268
0
VERTEX
8
0
10
1131.3333333333335
20
4362.268
0
VERTEX
8
0
10
1134.3333333333335
20
4362.7
0
VERTEX
8
0
10
1131.3333333333335
20
4362.7
0
SEQEND
0
POLYLINE
8
0
66
1
10
0.0
20
0.0
30
0.0
0
VERTEX
8
0
10
1130.3333333333335
20
4362.7
0
VERTEX
8
0
10
1130.3333333333335
20
4362.268
0
VERTEX
8
0
10
1130.3333333333335
20
4362.268
0
VERTEX
8
0
10
1127.3333333333335
20
4362.7
0
VERTEX
8
0
10
1130.3333333333335
20
4362.7
0
SEQEND
0
POLYLINE
8
0
66
1
10
0.0
20
0.0
30
0.0
0
VERTEX
8
0
10
1131.3333333333335
20
4361.5
0
VERTEX
8
0
10
1131.3333333333335
20
4361.3
0
VERTEX
8
0
10
1134.3333333333335
20
4361.3
0
VERTEX
8
0
10
1134.3333333333335
20
4361.5
0
VERTEX
8
0
10
1131.3333333333335
20
4361.5
0
SEQEND
0
POLYLINE
8
0
66
1
10
0.0
20
0.0
30
0.0
0
VERTEX
8
0
10
1130.3333333333335
20
4361.5
0
VERTEX
8
0
10
1130.3333333333335
20
4361.3
0
VERTEX
8
0
10
1127.3333333333335
20
4361.3
0
VERTEX
8
0
10
1127.3333333333335
20
4361.5
0
VERTEX
8
0
10
1130.3333333333335
20
4361.5
0
SEQEND
0
POLYLINE
8
0
66
1
10
0.0
20
0.0
30
0.0
0
VERTEX
8
0
10
1131.3333333333335
20
4361.932
0
VERTEX
8
0
10
1131.3333333333335
20
4361.5
0
VERTEX
8
0
10
1134.3333333333335
20
4361.5
0
VERTEX
8
0
10
1131.3333333333335
20
4361.932
0
VERTEX
8
0
10
1131.3333333333335
20
4361.932
0
SEQEND
0
POLYLINE
8
0
66
1
10
0.0
20
0.0
30
0.0
0
VERTEX
8
0
10
1130.3333333333335
20
4361.932
0
VERTEX
8
0
10
1130.3333333333335
20
4361.5
0
VERTEX
8
0
10
1127.3333333333335
20
4361.5
0
VERTEX
8
0
10
1130.3333333333335
20
4361.932
0
VERTEX
8
0
10
1130.3333333333335
20
4361.932
0
SEQEND
0
POLYLINE
8
0
66
1
10
0.0
20
0.0
30
0.0
0
VERTEX
8
0
10
1131.3333333333335
20
4361.732
0
VERTEX
8
0
10
1131.3333333333335
20
4361.3
0
VERTEX
8
0
10
1134.3333333333335
20
4361.3
0
VERTEX
8
0
10
1131.3333333333335
20
4361.732
0
VERTEX
8
0
10
1131.3333333333335
20
4361.732
0
SEQEND
0
POLYLINE
8
0
66
1
10
0.0
20
0.0
30
0.0
0
VERTEX
8
0
10
1130.3333333333335
20
4361.732
0
VERTEX
8
0
10
1130.3333333333335
20
4361.3
0
VERTEX
8
0
10
1127.3333333333335
20
4361.3
0
VERTEX
8
0
10
1130.3333333333335
20
4361.732
0
VERTEX
8
0
10
1130.3333333333335
20
4361.732
0
SEQEND
0
POLYLINE
8
0
66
1
10
0.0
20
0.0
30
0.0
0
VERTEX
8
0
10
1127.3333333333335
20
4362.0
0
VERTEX
8
0
10
1130.3333333333335
20
4362.0
0
VERTEX
8
0
10
1130.3333333333335
20
4362.068
0
VERTEX
8
0
10
1127.3333333333335
20
4362.5
0
VERTEX
8
0
10
1127.3333333333335
20
4362.0
0
SEQEND
0
POLYLINE
8
0
66
1
10
0.0
20
0.0
30
0.0
0
VERTEX
8
0
10
1127.3333333333335
20
4362.0
0
VERTEX
8
0
10
1130.3333333333335
20
4362.0
0
VERTEX
8
0
10
1130.3333333333335
20
4361.932
0
VERTEX
8
0
10
1127.3333333333335
20
4361.5
0
VERTEX
8
0
10
1127.3333333333335
20
4362.0
0
SEQEND
0
POLYLINE
8
0
66
1
10
0.0
20
0.0
30
0.0
0
VERTEX
8
0
10
1127.3333333333335
20
4362.0
0
VERTEX
8
0
10
1130.3333333333335
20
4362.0
0
VERTEX
8
0
10
1130.3333333333335
20
4362.268
0
VERTEX
8
0
10
1127.3333333333335
20
4362.7
0
VERTEX
8
0
10
1127.3333333333335
20
4362.0
0
SEQEND
0
POLYLINE
8
0
66
1
10
0.0
20
0.0
30
0.0
0
VERTEX
8
0
10
1127.3333333333335
20
4362.0
0
VERTEX
8
0
10
1130.3333333333335
20
4362.0
0
VERTEX
8
0
10
1130.3333333333335
20
4361.732
0
VERTEX
8
0
10
1127.3333333333335
20
4361.3
0
VERTEX
8
0
10
1127.3333333333335
20
4362.0
0
SEQEND
0
POLYLINE
8
0
66
1
10
0.0
20
0.0
30
0.0
0
VERTEX
8
0
10
1101.0
20
2796.5
0
VERTEX
8
0
10
1101.0
20
2776.7
0
VERTEX
8
0
10
1101.1999999999998
20
2776.7
0
VERTEX
8
0
10
1101.1999999999998
20
2796.5
0
VERTEX
8
0
10
1101.0
20
2796.5
0
SEQEND
0
POLYLINE
8
0
66
1
10
0.0
20
0.0
30
0.0
0
VERTEX
8
0
10
1101.0
20
2775.7
0
VERTEX
8
0
10
1101.0
20
2762.5
0
VERTEX
8
0
10
1101.1999999999998
20
2762.5
0
VERTEX
8
0
10
1101.1999999999998
20
2775.7
0
VERTEX
8
0
10
1101.0
20
2775.7
0
SEQEND
0
POLYLINE
8
0
66
1
10
0.0
20
0.0
30
0.0
0
VERTEX
8
0
10
1137.8000000000002
20
2796.5
0
VERTEX
8
0
10
1137.8000000000002
20
2776.7
0
VERTEX
8
0
10
1138.0
20
2776.7
0
VERTEX
8
0
10
1138.0
20
2796.5
0
VERTEX
8
0
10
1137.8000000000002
20
2796.5
0
SEQEND
0
POLYLINE
8
0
66
1
10
0.0
20
0.0
30
0.0
0
VERTEX
8
0
10
1137.8000000000002
20
2775.7
0
VERTEX
8
0
10
1137.8000000000002
20
2762.5
0
VERTEX
8
0
10
1138.0
20
2762.5
0
VERTEX
8
0
10
1138.0
20
2775.7
0
VERTEX
8
0
10
1137.8000000000002
20
2775.7
0
SEQEND
0
POLYLINE
8
0
66
1
10
0.0
20
0.0
30
0.0
0
VERTEX
8
0
10
1099.8
20
2797.5
0
VERTEX
8
0
10
1099.8
20
2785.5
0
VERTEX
8
0
10
1099.9999999999998
20
2785.5
0
VERTEX
8
0
10
1099.9999999999998
20
2797.5
0
VERTEX
8
0
10
1099.8
20
2797.5
0
SEQEND
0
POLYLINE
8
0
66
1
10
0.0
20
0.0
30
0.0
0
VERTEX
8
0
10
1099.8
20
2783.5
0
VERTEX
8
0
10
1099.8
20
2761.5
0
VERTEX
8
0
10
1099.9999999999998
20
2761.5
0
VERTEX
8
0
10
1099.9999999999998
20
2783.5
0
VERTEX
8
0
10
1099.8
20
2783.5
0
SEQEND
0
POLYLINE
8
0
66
1
10
0.0
20
0.0
30
0.0
0
VERTEX
8
0
10
1139.0000000000002
20
2797.5
0
VERTEX
8
0
10
1139.0000000000002
20
2785.5
0
VERTEX
8
0
10
1139.2
20
2785.5
0
VERTEX
8
0
10
1139.2
20
2797.5
0
VERTEX
8
0
10
1139.0000000000002
20
2797.5
0
SEQEND
0
POLYLINE
8
0
66
1
10
0.0
20
0.0
30
0.0
0
VERTEX
8
0
10
1139.0000000000002
20
2783.5
0
VERTEX
8
0
10
1139.0000000000002
20
2761.5
0
VERTEX
8
0
10
1139.2
20
2761.5
0
VERTEX
8
0
10
1139.2
20
2783.5
0
VERTEX
8
0
10
1139.0000000000002
20
2783.5
0
SEQEND
0
POLYLINE
8
0
66
1
10
0.0
20
0.0
30
0.0
0
VERTEX
8
0
10
1120.0
20
2797.7
0
VERTEX
8
0
10
1120.0
20
2797.5
0
VERTEX
8
0
10
1123.0
20
2797.5
0
VERTEX
8
0
10
1123.0
20
2797.7
0
VERTEX
8
0
10
1120.0
20
2797.7
0
SEQEND
0
POLYLINE
8
0
66
1
10
0.0
20
0.0
30
0.0
0
VERTEX
8
0
10
1119.0
20
2797.7
0
VERTEX
8
0
10
1119.0
20
2797.5
0
VERTEX
8
0
10
1116.0
20
2797.5
0
VERTEX
8
0
10
1116.0
20
2797.7
0
VERTEX
8
0
10
1119.0
20
2797.7
0
SEQEND
0
POLYLINE
8
0
66
1
10
0.0
20
0.0
30
0.0
0
VERTEX
8
0
10
1120.0
20
2797.5
0
VERTEX
8
0
10
1120.0
20
2797.0455
0
VERTEX
8
0
10
1120.0
20
2797.0455
0
VERTEX
8
0
10
1123.0
20
2797.5
0
VERTEX
8
0
10
1120.0
20
2797.5
0
SEQEND
0
POLYLINE
8
0
66
1
10
0.0
20
0.0
30
0.0
0
VERTEX
8
0
10
1119.0
20
2797.5
0
VERTEX
8
0
10
1119.0
20
2797.0455
0
VERTEX
8
0
10
1119.0
20
2797.0455
0
VERTEX
8
0
10
1116.0
20
2797.5
0
VERTEX
8
0
10
1119.0
20
2797.5
0
SEQEND
0
POLYLINE
8
0
66
1
10
0.0
20
0.0
30
0.0
0
VERTEX
8
0
10
1120.0
20
2797.7
0
VERTEX
8
0
10
1120.0
20
2797.2455
0
VERTEX
8
0
10
1120.0
20
2797.2455
0
VERTEX
8
0
10
1123.0
20
2797.7
0
VERTEX
8
0
10
1120.0
20
2797.7
0
SEQEND
0
POLYLINE
8
0
66
1
10
0.0
20
0.0
30
0.0
0
VERTEX
8
0
10
1119.0
20
2797.7
0
VERTEX
8
0
10
1119.0
20
2797.2455
0
VERTEX
8
0
10
1119.0
20
2797.2455
0
VERTEX
8
0
10
1116.0
20
2797.7
0
VERTEX
8
0
10
1119.0
20
2797.7
0
SEQEND
0
POLYLINE
8
0
66
1
10
0.0
20
0.0
30
0.0
0
VERTEX
8
0
10
1120.0
20
2796.5000000000005
0
VERTEX
8
0
10
1120.0
20
2796.3
0
VERTEX
8
0
10
1123.0
20
2796.3
0
VERTEX
8
0
10
1123.0
20
2796.5000000000005
0
VERTEX
8
0
10
1120.0
20
2796.5000000000005
0
SEQEND
0
POLYLINE
8
0
66
1
10
0.0
20
0.0
30
0.0
0
VERTEX
8
0
10
1119.0
20
2796.5000000000005
0
VERTEX
8
0
10
1119.0
20
2796.3
0
VERTEX
8
0
10
1116.0
20
2796.3
0
VERTEX
8
0
10
1116.0
20
2796.5000000000005
0
VERTEX
8
0
10
1119.0
20
2796.5000000000005
0
SEQEND
0
POLYLINE
8
0
66
1
10
0.0
20
0.0
30
0.0
0
VERTEX
8
0
10
1120.0
20
2796.9545000000003
0
VERTEX
8
0
10
1120.0
20
2796.5
0
VERTEX
8
0
10
1123.0
20
2796.5
0
VERTEX
8
0
10
1120.0
20
2796.9545000000003
0
VERTEX
8
0
10
1120.0
20
2796.9545000000003
0
SEQEND
0
POLYLINE
8
0
66
1
10
0.0
20
0.0
30
0.0
0
VERTEX
8
0
10
1119.0
20
2796.9545000000003
0
VERTEX
8
0
10
1119.0
20
2796.5
0
VERTEX
8
0
10
1116.0
20
2796.5
0
VERTEX
8
0
10
1119.0
20
2796.9545000000003
0
VERTEX
8
0
10
1119.0
20
2796.9545000000003
0
SEQEND
0
POLYLINE
8
0
66
1
10
0.0
20
0.0
30
0.0
0
VERTEX
8
0
10
1120.0
20
2796.7545000000005
0
VERTEX
8
0
10
1120.0
20
2796.3
0
VERTEX
8
0
10
1123.0
20
2796.3
0
VERTEX
8
0
10
1120.0
20
2796.7545000000005
0
VERTEX
8
0
10
1120.0
20
2796.7545000000005
0
SEQEND
0
POLYLINE
8
0
66
1
10
0.0
20
0.0
30
0.0
0
VERTEX
8
0
10
1119.0
20
2796.7545000000005
0
VERTEX
8
0
10
1119.0
20
2796.3
0
VERTEX
8
0
10
1116.0
20
2796.3
0
VERTEX
8
0
10
1119.0
20
2796.7545000000005
0
VERTEX
8
0
10
1119.0
20
2796.7545000000005
0
SEQEND
0
POLYLINE
8
0
66
1
10
0.0
20
0.0
30
0.0
0
VERTEX
8
0
10
1116.0
20
2797.0
0
VERTEX
8
0
10
1119.0
20
2797.0
0
VERTEX
8
0
10
1119.0
20
2797.0455
0
VERTEX
8
0
10
1116.0
20
2797.5
0
VERTEX
8
0
10
1116.0
20
2797.0
0
SEQEND
0
POLYLINE
8
0
66
1
10
0.0
20
0.0
30
0.0
0
VERTEX
8
0
10
1116.0
20
2797.0
0
VERTEX
8
0
10
1119.0
20
2797.0
0
VERTEX
8
0
10
1119.0
20
2796.9545
0
VERTEX
8
0
10
1116.0
20
2796.5
0
VERTEX
8
0
10
1116.0
20
2797.0
0
SEQEND
0
POLYLINE
8
0
66
1
10
0.0
20
0.0
30
0.0
0
VERTEX
8
0
10
1116.0
20
2797.0
0
VERTEX
8
0
10
1119.0
20
2797.0
0
VERTEX
8
0
10
1119.0
20
2797.2455
0
VERTEX
8
0
10
1116.0
20
2797.7
0
VERTEX
8
0
10
1116.0
20
2797.0
0
SEQEND
0
POLYLINE
8
0
66
1
10
0.0
20
0.0
30
0.0
0
VERTEX
8
0
10
1116.0
20
2797.0
0
VERTEX
8
0
10
1119.0
20
2797.0
0
VERTEX
8
0
10
1119.0
20
2796.7545
0
VERTEX
8
0
10
1116.0
20
2796.3
0
VERTEX
8
0
10
1116.0
20
2797.0
0
SEQEND
0
POLYLINE
8
0
66
1
10
0.0
20
0.0
30
0.0
0
VERTEX
8
0
10
1119.38
20
2776.243
0
VERTEX
8
0
10
1119.38
20
2776.157
0
VERTEX
8
0
10
1119.62
20
2776.157
0
VERTEX
8
0
10
1119.62
20
2776.243
0
VERTEX
8
0
10
1119.38
20
2776.243
0
SEQEND
0
POLYLINE
8
0
66
1
10
0.0
20
0.0
30
0.0
0
VERTEX
8
0
10
1119.0
20
2776.4429999999998
0
VERTEX
8
0
10
1119.0
20
2776.2429999999995
0
VERTEX
8
0
10
1120.0
20
2776.2429999999995
0
VERTEX
8
0
10
1120.0
20
2776.4429999999998
0
VERTEX
8
0
10
1119.0
20
2776.4429999999998
0
SEQEND
0
POLYLINE
8
0
66
1
10
0.0
20
0.0
30
0.0
0
VERTEX
8
0
10
1119.0
20
2776.157
0
VERTEX
8
0
10
1119.0
20
2775.9570000000003
0
VERTEX
8
0
10
1120.0
20
2775.9570000000003
0
VERTEX
8
0
10
1120.0
20
2776.157
0
VERTEX
8
0
10
1119.0
20
2776.157
0
SEQEND
0
POLYLINE
8
0
66
1
10
0.0
20
0.0
30
0.0
0
VERTEX
8
0
10
1120.0
20
2776.8999999999996
0
VERTEX
8
0
10
1120.0
20
2776.7
0
VERTEX
8
0
10
1123.0
20
2776.7
0
VERTEX
8
0
10
1123.0
20
2776.8999999999996
0
VERTEX
8
0
10
1120.0
20
2776.8999999999996
0
SEQEND
0
POLYLINE
8
0
66
1
10
0.0
20
0.0
30
0.0
0
VERTEX
8
0
10
1119.0
20
2776.8999999999996
0
VERTEX
8
0
10
1119.0
20
2776.7
0
VERTEX
8
0
10
1116.0
20
2776.7
0
VERTEX
8
0
10
1116.0
20
2776.8999999999996
0
VERTEX
8
0
10
1119.0
20
2776.8999999999996
0
SEQEND
0
POLYLINE
8
0
66
1
10
0.0
20
0.0
30
0.0
0
VERTEX
8
0
10
1120.0
20
2776.7
0
VERTEX
8
0
10
1120.0
20
2776.2429999999995
0
VERTEX
8
0
10
1120.0
20
2776.2429999999995
0
VERTEX
8
0
10
1123.0
20
2776.7
0
VERTEX
8
0
10
1120.0
20
2776.7
0
SEQEND
0
POLYLINE
8
0
66
1
10
0.0
20
0.0
30
0.0
0
VERTEX
8
0
10
1119.0
20
2776.7
0
VERTEX
8
0
10
1119.0
20
2776.2429999999995
0
VERTEX
8
0
10
1119.0
20
2776.2429999999995
0
VERTEX
8
0
10
1116.0
20
2776.7
0
VERTEX
8
0
10
1119.0
20
2776.7
0
SEQEND
0
POLYLINE
8
0
66
1
10
0.0
20
0.0
30
0.0
0
VERTEX
8
0
10
1120.0
20
2776.8999999999996
0
VERTEX
8
0
10
1120.0
20
2776.4429999999993
0
VERTEX
8
0
10
1120.0
20
2776.4429999999993
0
VERTEX
8
0
10
1123.0
20
2776.8999999999996
0
VERTEX
8
0
10
1120.0
20
2776.8999999999996
0
SEQEND
0
POLYLINE
8
0
66
1
10
0.0
20
0.0
30
0.0
0
VERTEX
8
0
10
1119.0
20
2776.8999999999996
0
VERTEX
8
0
10
1119.0
20
2776.4429999999993
0
VERTEX
8
0
10
1119.0
20
2776.4429999999993
0
VERTEX
8
0
10
1116.0
20
2776.8999999999996
0
VERTEX
8
0
10
1119.0
20
2776.8999999999996
0
SEQEND
0
POLYLINE
8
0
66
1
10
0.0
20
0.0
30
0.0
0
VERTEX
8
0
10
1120.0
20
2775.7000000000003
0
VERTEX
8
0
10
1120.0
20
2775.5
0
VERTEX
8
0
10
1123.0
20
2775.5
0
VERTEX
8
0
10
1123.0
20
2775.7000000000003
0
VERTEX
8
0
10
1120.0
20
2775.7000000000003
0
SEQEND
0
POLYLINE
8
0
66
1
10
0.0
20
0.0
30
0.0
0
VERTEX
8
0
10
1119.0
20
2775.7000000000003
0
VERTEX
8
0
10
1119.0
20
2775.5
0
VERTEX
8
0
10
1116.0
20
2775.5
0
VERTEX
8
0
10
1116.0
20
2775.7000000000003
0
VERTEX
8
0
10
1119.0
20
2775.7000000000003
0
SEQEND
0
POLYLINE
8
0
66
1
10
0.0
20
0.0
30
0.0
0
VERTEX
8
0
10
1120.0
20
2776.157
0
VERTEX
8
0
10
1120.0
20
2775.7
0
VERTEX
8
0
10
1123.0
20
2775.7
0
VERTEX
8
0
10
1120.0
20
2776.157
0
VERTEX
8
0
10
1120.0
20
2776.157
0
SEQEND
0
POLYLINE
8
0
66
1
10
0.0
20
0.0
30
0.0
0
VERTEX
8
0
10
1119.0
20
2776.157
0
VERTEX
8
0
10
1119.0
20
2775.7
0
VERTEX
8
0
10
1116.0
20
2775.7
0
VERTEX
8
0
10
1119.0
20
2776.157
0
VERTEX
8
0
10
1119.0
20
2776.157
0
SEQEND
0
POLYLINE
8
0
66
1
10
0.0
20
0.0
30
0.0
0
VERTEX
8
0
10
1120.0
20
2775.9570000000003
0
VERTEX
8
0
10
1120.0
20
2775.5
0
VERTEX
8
0
10
1123.0
20
2775.5
0
VERTEX
8
0
10
1120.0
20
2775.9570000000003
0
VERTEX
8
0
10
1120.0
20
2775.9570000000003
0
SEQEND
0
POLYLINE
8
0
66
1
10
0.0
20
0.0
30
0.0
0
VERTEX
8
0
10
1119.0
20
2775.9570000000003
0
VERTEX
8
0
10
1119.0
20
2775.5
0
VERTEX
8
0
10
1116.0
20
2775.5
0
VERTEX
8
0
10
1119.0
20
2775.9570000000003
0
VERTEX
8
0
10
1119.0
20
2775.9570000000003
0
SEQEND
0
POLYLINE
8
0
66
1
10
0.0
20
0.0
30
0.0
0
VERTEX
8
0
10
1116.0
20
2776.2
0
VERTEX
8
0
10
1119.0
20
2776.2
0
VERTEX
8
0
10
1119.0
20
2776.243
0
VERTEX
8
0
10
1116.0
20
2776.7
0
VERTEX
8
0
10
1116.0
20
2776.2
0
SEQEND
0
POLYLINE
8
0
66
1
10
0.0
20
0.0
30
0.0
0
VERTEX
8
0
10
1116.0
20
2776.2
0
VERTEX
8
0
10
1119.0
20
2776.2
0
VERTEX
8
0
10
1119.0
20
2776.1569999999997
0
VERTEX
8
0
10
1116.0
20
2775.7
0
VERTEX
8
0
10
1116.0
20
2776.2
0
SEQEND
0
POLYLINE
8
0
66
1
10
0.0
20
0.0
30
0.0
0
VERTEX
8
0
10
1119.0
20
2776.1569999999997
0
VERTEX
8
0
10
1119.38
20
2776.1569999999997
0
VERTEX
8
0
10
1119.38
20
2776.243
0
VERTEX
8
0
10
1119.0
20
2776.243
0
VERTEX
8
0
10
1119.0
20
2776.1569999999997
0
SEQEND
0
POLYLINE
8
0
66
1
10
0.0
20
0.0
30
0.0
0
VERTEX
8
0
10
1116.0
20
2776.2
0
VERTEX
8
0
10
1119.0
20
2776.2
0
VERTEX
8
0
10
1119.0
20
2776.4429999999998
0
VERTEX
8
0
10
1116.0
20
2776.8999999999996
0
VERTEX
8
0
10
1116.0
20
2776.2
0
SEQEND
0
POLYLINE
8
0
66
1
10
0.0
20
0.0
30
0.0
0
VERTEX
8
0
10
1116.0
20
2776.2
0
VERTEX
8
0
10
1119.0
20
2776.2
0
VERTEX
8
0
10
1119.0
20
2775.957
0
VERTEX
8
0
10
1116.0
20
2775.5
0
VERTEX
8
0
10
1116.0
20
2776.2
0
SEQEND
0
POLYLINE
8
0
66
1
10
0.0
20
0.0
30
0.0
0
VERTEX
8
0
10
1119.0
20
2775.957
0
VERTEX
8
0
10
1119.38
20
2775.957
0
VERTEX
8
0
10
1119.38
20
2776.4429999999998
0
VERTEX
8
0
10
1119.0
20
2776.4429999999998
0
VERTEX
8
0
10
1119.0
20
2775.957
0
SEQEND
0
POLYLINE
8
0
66
1
10
0.0
20
0.0
30
0.0
0
VERTEX
8
0
10
1119.38
20
2776.4429999999998
0
VERTEX
8
0
10
1119.6200000000001
20
2776.4429999999998
0
VERTEX
8
0
10
1119.6200000000001
20
2776.7
0
VERTEX
8
0
10
1119.38
20
2776.7
0
VERTEX
8
0
10
1119.38
20
2776.4429999999998
0
SEQEND
0
POLYLINE
8
0
66
1
10
0.0
20
0.0
30
0.0
0
VERTEX
8
0
10
1119.38
20
2775.957
0
VERTEX
8
0
10
1119.6200000000001
20
2775.957
0
VERTEX
8
0
10
1119.6200000000001
20
2775.7
0
VERTEX
8
0
10
1119.38
20
2775.7
0
VERTEX
8
0
10
1119.38
20
2775.957
0
SEQEND
0
POLYLINE
8
0
66
1
10
0.0
20
0.0
30
0.0
0
VERTEX
8
0
10
1108.6666666666667
20
2762.7
0
VERTEX
8
0
10
1108.6666666666667
20
2762.5
0
VERTEX
8
0
10
1111.6666666666667
20
2762.5
0
VERTEX
8
0
10
1111.6666666666667
20
2762.7
0
VERTEX
8
0
10
1108.6666666666667
20
2762.7
0
SEQEND
0
POLYLINE
8
0
66
1
10
0.0
20
0.0
30
0.0
0
VERTEX
8
0
10
1107.6666666666667
20
2762.7
0
VERTEX
8
0
10
1107.6666666666667
20
2762.5
0
VERTEX
8
0
10
1104.6666666666667
20
2762.5
0
VERTEX
8
0
10
1104.6666666666667
20
2762.7
0
VERTEX
8
0
10
1107.6666666666667
20
2762.7
0
SEQEND
0
POLYLINE
8
0
66
1
10
0.0
20
0.0
30
0.0
0
VERTEX
8
0
10
1108.6666666666667
20
2762.5
0
VERTEX
8
0
10
1108.6666666666667
20
2762.068
0
VERTEX
8
0
10
1108.6666666666667
20
2762.068
0
VERTEX
8
0
10
1111.6666666666667
20
2762.5
0
VERTEX
8
0
10
1108.6666666666667
20
2762.5
0
SEQEND
0
POLYLINE
8
0
66
1
10
0.0
20
0.0
30
0.0
0
VERTEX
8
0
10
1107.6666666666667
20
2762.5
0
VERTEX
8
0
10
1107.6666666666667
20
2762.068
0
VERTEX
8
0
10
1107.6666666666667
20
2762.068
0
VERTEX
8
0
10
1104.6666666666667
20
2762.5
0
VERTEX
8
0
10
1107.6666666666667
20
2762.5
0
SEQEND
0
POLYLINE
8
0
66
1
10
0.0
20
0.0
30
0.0
0
VERTEX
8
0
10
1108.6666666666667
20
2762.7
0
VERTEX
8
0
10
1108.6666666666667
20
2762.268
0
VERTEX
8
0
10
1108.6666666666667
20
2762.268
0
VERTEX
8
0
10
1111.6666666666667
20
2762.7
0
VERTEX
8
0
10
1108.6666666666667
20
2762.7
0
SEQEND
0
POLYLINE
8
0
66
1
10
0.0
20
0.0
30
0.0
0
VERTEX
8
0
10
1107.6666666666667
20
2762.7
0
VERTEX
8
0
10
1107.6666666666667
20
2762.268
0
VERTEX
8
0
10
1107.6666666666667
20
2762.268
0
VERTEX
8
0
10
1104.6666666666667
20
2762.7
0
VERTEX
8
0
10
1107.6666666666667
20
2762.7
0
SEQEND
0
POLYLINE
8
0
66
1
10
0.0
20
0.0
30
0.0
0
VERTEX
8
0
10
1108.6666666666667
20
2761.5000000000005
0
VERTEX
8
0
10
1108.6666666666667
20
2761.3
0
VERTEX
8
0
10
1111.6666666666667
20
2761.3
0
VERTEX
8
0
10
1111.6666666666667
20
2761.5000000000005
0
VERTEX
8
0
10
1108.6666666666667
20
2761.5000000000005
0
SEQEND
0
POLYLINE
8
0
66
1
10
0.0
20
0.0
30
0.0
0
VERTEX
8
0
10
1107.6666666666667
20
2761.5000000000005
0
VERTEX
8
0
10
1107.6666666666667
20
2761.3
0
VERTEX
8
0
10
1104.6666666666667
20
2761.3
0
VERTEX
8
0
10
1104.6666666666667
20
2761.5000000000005
0
VERTEX
8
0
10
1107.6666666666667
20
2761.5000000000005
0
SEQEND
0
POLYLINE
8
0
66
1
10
0.0
20
0.0
30
0.0
0
VERTEX
8
0
10
1108.6666666666667
20
2761.9320000000002
0
VERTEX
8
0
10
1108.6666666666667
20
2761.5
0
VERTEX
8
0
10
1111.6666666666667
20
2761.5
0
VERTEX
8
0
10
1108.6666666666667
20
2761.9320000000002
0
VERTEX
8
0
10
1108.6666666666667
20
2761.9320000000002
0
SEQEND
0
POLYLINE
8
0
66
1
10
0.0
20
0.0
30
0.0
0
VERTEX
8
0
10
1107.6666666666667
20
2761.9320000000002
0
VERTEX
8
0
10
1107.6666666666667
20
2761.5
0
VERTEX
8
0
10
1104.6666666666667
20
2761.5
0
VERTEX
8
0
10
1107.6666666666667
20
2761.9320000000002
0
VERTEX
8
0
10
1107.6666666666667
20
2761.9320000000002
0
SEQEND
0
POLYLINE
8
0
66
1
10
0.0
20
0.0
30
0.0
0
VERTEX
8
0
10
1108.6666666666667
20
2761.7320000000004
0
VERTEX
8
0
10
1108.6666666666667
20
2761.3
0
VERTEX
8
0
10
1111.6666666666667
20
2761.3
0
VERTEX
8
0
10
1108.6666666666667
20
2761.7320000000004
0
VERTEX
8
0
10
1108.6666666666667
20
2761.7320000000004
0
SEQEND
0
POLYLINE
8
0
66
1
10
0.0
20
0.0
30
0.0
0
VERTEX
8
0
10
1107.6666666666667
20
2761.7320000000004
0
VERTEX
8
0
10
1107.6666666666667
20
2761.3
0
VERTEX
8
0
10
1104.6666666666667
20
2761.3
0
VERTEX
8
0
10
1107.6666666666667
20
2761.7320000000004
0
VERTEX
8
0
10
1107.6666666666667
20
2761.7320000000004
0
SEQEND
0
POLYLINE
8
0
66
1
10
0.0
20
0.0
30
0.0
0
VERTEX
8
0
10
1104.6666666666667
20
2762.0
0
VERTEX
8
0
10
1107.6666666666667
20
2762.0
0
VERTEX
8
0
10
1107.6666666666667
20
2762.068
0
VERTEX
8
0
10
1104.6666666666667
20
2762.5
0
VERTEX
8
0
10
1104.6666666666667
20
2762.0
0
SEQEND
0
POLYLINE
8
0
66
1
10
0.0
20
0.0
30
0.0
0
VERTEX
8
0
10
1104.6666666666667
20
2762.0
0
VERTEX
8
0
10
1107.6666666666667
20
2762.0
0
VERTEX
8
0
10
1107.6666666666667
20
2761.932
0
VERTEX
8
0
10
1104.6666666666667
20
2761.5
0
VERTEX
8
0
10
1104.6666666666667
20
2762.0
0
SEQEND
0
POLYLINE
8
0
66
1
10
0.0
20
0.0
30
0.0
0
VERTEX
8
0
10
1104.6666666666667
20
2762.0
0
VERTEX
8
0
10
1107.6666666666667
20
2762.0
0
VERTEX
8
0
10
1107.6666666666667
20
2762.268
0
VERTEX
8
0
10
1104.6666666666667
20
2762.7
0
VERTEX
8
0
10
1104.6666666666667
20
2762.0
0
SEQEND
0
POLYLINE
8
0
66
1
10
0.0
20
0.0
30
0.0
0
VERTEX
8
0
10
1104.6666666666667
20
2762.0
0
VERTEX
8
0
10
1107.6666666666667
20
2762.0
0
VERTEX
8
0
10
1107.6666666666667
20
2761.732
0
VERTEX
8
0
10
1104.6666666666667
20
2761.3
0
VERTEX
8
0
10
1104.6666666666667
20
2762.0
0
SEQEND
0
POLYLINE
8
0
66
1
10
0.0
20
0.0
30
0.0
0
VERTEX
8
0
10
1131.3333333333335
20
2762.7
0
VERTEX
8
0
10
1131.3333333333335
20
2762.5
0
VERTEX
8
0
10
1134.3333333333335
20
2762.5
0
VERTEX
8
0
10
1134.3333333333335
20
2762.7
0
VERTEX
8
0
10
1131.3333333333335
20
2762.7
0
SEQEND
0
POLYLINE
8
0
66
1
10
0.0
20
0.0
30
0.0
0
VERTEX
8
0
10
1130.3333333333335
20
2762.7
0
VERTEX
8
0
10
1130.3333333333335
20
2762.5
0
VERTEX
8
0
10
1127.3333333333335
20
2762.5
0
VERTEX
8
0
10
1127.3333333333335
20
2762.7
0
VERTEX
8
0
10
1130.3333333333335
20
2762.7
0
SEQEND
0
POLYLINE
8
0
66
1
10
0.0
20
0.0
30
0.0
0
VERTEX
8
0
10
1131.3333333333335
20
2762.5
0
VERTEX
8
0
10
1131.3333333333335
20
2762.068
0
VERTEX
8
0
10
1131.3333333333335
20
2762.068
0
VERTEX
8
0
10
1134.3333333333335
20
2762.5
0
VERTEX
8
0
10
1131.3333333333335
20
2762.5
0
SEQEND
0
POLYLINE
8
0
66
1
10
0.0
20
0.0
30
0.0
0
VERTEX
8
0
10
1130.3333333333335
20
2762.5
0
VERTEX
8
0
10
1130.3333333333335
20
2762.068
0
VERTEX
8
0
10
1130.3333333333335
20
2762.068
0
VERTEX
8
0
10
1127.3333333333335
20
2762.5
0
VERTEX
8
0
10
1130.3333333333335
20
2762.5
0
SEQEND
0
POLYLINE
8
0
66
1
10
0.0
20
0.0
30
0.0
0
VERTEX
8
0
10
1131.3333333333335
20
2762.7
0
VERTEX
8
0
10
1131.3333333333335
20
2762.268
0
VERTEX
8
0
10
1131.3333333333335
20
2762.268
0
VERTEX
8
0
10
1134.3333333333335
20
2762.7
0
VERTEX
8
0
10
1131.3333333333335
20
2762.7
0
SEQEND
0
POLYLINE
8
0
66
1
10
0.0
20
0.0
30
0.0
0
VERTEX
8
0
10
1130.3333333333335
20
2762.7
0
VERTEX
8
0
10
1130.3333333333335
20
2762.268
0
VERTEX
8
0
10
1130.3333333333335
20
2762.268
0
VERTEX
8
0
10
1127.3333333333335
20
2762.7
0
VERTEX
8
0
10
1130.3333333333335
20
2762.7
0
SEQEND
0
POLYLINE
8
0
66
1
10
0.0
20
0.0
30
0.0
0
VERTEX
8
0
10
1131.3333333333335
20
2761.5000000000005
0
VERTEX
8
0
10
1131.3333333333335
20
2761.3
0
VERTEX
8
0
10
1134.3333333333335
20
2761.3
0
VERTEX
8
0
10
1134.3333333333335
20
2761.5000000000005
0
VERTEX
8
0
10
1131.3333333333335
20
2761.5000000000005
0
SEQEND
0
POLYLINE
8
0
66
1
10
0.0
20
0.0
30
0.0
0
VERTEX
8
0
10
1130.3333333333335
20
2761.5000000000005
0
VERTEX
8
0
10
1130.3333333333335
20
2761.3
0
VERTEX
8
0
10
1127.3333333333335
20
2761.3
0
VERTEX
8
0
10
1127.3333333333335
20
2761.5000000000005
0
VERTEX
8
0
10
1130.3333333333335
20
2761.5000000000005
0
SEQEND
0
POLYLINE
8
0
66
1
10
0.0
20
0.0
30
0.0
0
VERTEX
8
0
10
1131.3333333333335
20
2761.9320000000002
0
VERTEX
8
0
10
1131.3333333333335
20
2761.5
0
VERTEX
8
0
10
1134.3333333333335
20
2761.5
0
VERTEX
8
0
10
1131.3333333333335
20
2761.9320000000002
0
VERTEX
8
0
10
1131.3333333333335
20
2761.9320000000002
0
SEQEND
0
POLYLINE
8
0
66
1
10
0.0
20
0.0
30
0.0
0
VERTEX
8
0
10
1130.3333333333335
20
2761.9320000000002
0
VERTEX
8
0
10
1130.3333333333335
20
2761.5
0
VERTEX
8
0
10
1127.3333333333335
20
2761.5
0
VERTEX
8
0
10
1130.3333333333335
20
2761.9320000000002
0
VERTEX
8
0
10
1130.3333333333335
20
2761.9320000000002
0
SEQEND
0
POLYLINE
8
0
66
1
10
0.0
20
0.0
30
0.0
0
VERTEX
8
0
10
1131.3333333333335
20
2761.7320000000004
0
VERTEX
8
0
10
1131.3333333333335
20
2761.3
0
VERTEX
8
0
10
1134.3333333333335
20
2761.3
0
VERTEX
8
0
10
1131.3333333333335
20
2761.7320000000004
0
VERTEX
8
0
10
1131.3333333333335
20
2761.7320000000004
0
SEQEND
0
POLYLINE
8
0
66
1
10
0.0
20
0.0
30
0.0
0
VERTEX
8
0
10
1130.3333333333335
20
2761.7320000000004
0
VERTEX
8
0
10
1130.3333333333335
20
2761.3
0
VERTEX
8
0
10
1127.3333333333335
20
2761.3
0
VERTEX
8
0
10
1130.3333333333335
20
2761.7320000000004
0
VERTEX
8
0
10
1130.3333333333335
20
2761.7320000000004
0
SEQEND
0
POLYLINE
8
0
66
1
10
0.0
20
0.0
30
0.0
0
VERTEX
8
0
10
1127.3333333333335
20
2762.0
0
VERTEX
8
0
10
1130.3333333333335
20
2762.0
0
VERTEX
8
0
10
1130.3333333333335
20
2762.068
0
VERTEX
8
0
10
1127.3333333333335
20
2762.5
0
VERTEX
8
0
10
1127.3333333333335
20
2762.0
0
SEQEND
0
POLYLINE
8
0
66
1
10
0.0
20
0.0
30
0.0
0
VERTEX
8
0
10
1127.3333333333335
20
2762.0
0
VERTEX
8
0
10
1130.3333333333335
20
2762.0
0
VERTEX
8
0
10
1130.3333333333335
20
2761.932
0
VERTEX
8
0
10
1127.3333333333335
20
2761.5
0
VERTEX
8
0
10
1127.3333333333335
20
2762.0
0
SEQEND
0
POLYLINE
8
0
66
1
10
0.0
20
0.0
30
0.0
0
VERTEX
8
0
10
1127.3333333333335
20
2762.0
0
VERTEX
8
0
10
1130.3333333333335
20
2762.0
0
VERTEX
8
0
10
1130.3333333333335
20
2762.268
0
VERTEX
8
0
10
1127.3333333333335
20
2762.7
0
VERTEX
8
0
10
1127.3333333333335
20
2762.0
0
SEQEND
0
POLYLINE
8
0
66
1
10
0.0
20
0.0
30
0.0
0
VERTEX
8
0
10
1127.3333333333335
20
2762.0
0
VERTEX
8
0
10
1130.3333333333335
20
2762.0
0
VERTEX
8
0
10
1130.3333333333335
20
2761.732
0
VERTEX
8
0
10
1127.3333333333335
20
2761.3
0
VERTEX
8
0
10
1127.3333333333335
20
2762.0
0
SEQEND
0
POLYLINE
8
0
66
1
10
0.0
20
0.0
30
0.0
0
VERTEX
8
0
10
5501.0
20
4396.5
0
VERTEX
8
0
10
5501.0
20
4376.7
0
VERTEX
8
0
10
5501.200000000001
20
4376.7
0
VERTEX
8
0
10
5501.200000000001
20
4396.5
0
VERTEX
8
0
10
5501.0
20
4396.5
0
SEQEND
0
POLYLINE
8
0
66
1
10
0.0
20
0.0
30
0.0
0
VERTEX
8
0
10
5501.0
20
4375.7
0
VERTEX
8
0
10
5501.0
20
4362.5
0
VERTEX
8
0
10
5501.200000000001
20
4362.5
0
VERTEX
8
0
10
5501.200000000001
20
4375.7
0
VERTEX
8
0
10
5501.0
20
4375.7
0
SEQEND
0
POLYLINE
8
0
66
1
10
0.0
20
0.0
30
0.0
0
VERTEX
8
0
10
5537.799999999999
20
4396.5
0
VERTEX
8
0
10
5537.799999999999
20
4376.7
0
VERTEX
8
0
10
5538.0
20
4376.7
0
VERTEX
8
0
10
5538.0
20
4396.5
0
VERTEX
8
0
10
5537.799999999999
20
4396.5
0
SEQEND
0
POLYLINE
8
0
66
1
10
0.0
20
0.0
30
0.0
0
VERTEX
8
0
10
5537.799999999999
20
4375.7
0
VERTEX
8
0
10
5537.799999999999
20
4362.5
0
VERTEX
8
0
10
5538.0
20
4362.5
0
VERTEX
8
0
10
5538.0
20
4375.7
0
VERTEX
8
0
10
5537.799999999999
20
4375.7
0
SEQEND
0
POLYLINE
8
0
66
1
10
0.0
20
0.0
30
0.0
0
VERTEX
8
0
10
5499.8
20
4397.5
0
VERTEX
8
0
10
5499.8
20
4385.5
0
VERTEX
8
0
10
5500.000000000001
20
4385.5
0
VERTEX
8
0
10
5500.000000000001
20
4397.5
0
VERTEX
8
0
10
5499.8
20
4397.5
0
SEQEND
0
POLYLINE
8
0
66
1
10
0.0
20
0.0
30
0.0
0
VERTEX
8
0
10
5499.8
20
4383.5
0
VERTEX
8
0
10
5499.8
20
4361.5
0
VERTEX
8
0
10
5500.000000000001
20
4361.5
0
VERTEX
8
0
10
5500.000000000001
20
4383.5
0
VERTEX
8
0
10
5499.8
20
4383.5
0
SEQEND
0
POLYLINE
8
0
66
1
10
0.0
20
0.0
30
0.0
0
VERTEX
8
0
10
5538.999999999999
20
4397.5
0
VERTEX
8
0
10
5538.999999999999
20
4385.5
0
VERTEX
8
0
10
5539.2
20
4385.5
0
VERTEX
8
0
10
5539.2
20
4397.5
0
VERTEX
8
0
10
5538.999999999999
20
4397.5
0
SEQEND
0
POLYLINE
8
0
66
1
10
0.0
20
0.0
30
0.0
0
VERTEX
8
0
10
5538.999999999999
20
4383.5
0
VERTEX
8
0
10
5538.999999999999
20
4361.5
0
VERTEX
8
0
10
5539.2
20
4361.5
0
VERTEX
8
0
10
5539.2
20
4383.5
0
VERTEX
8
0
10
5538.999999999999
20
4383.5
0
SEQEND
0
POLYLINE
8
0
66
1
10
0.0
20
0.0
30
0.0
0
VERTEX
8
0
10
5520.0
20
4397.7
0
VERTEX
8
0
10
5520.0
20
4397.5
0
VERTEX
8
0
10
5523.0
20
4397.5
0
VERTEX
8
0
10
5523.0
20
4397.7
0
VERTEX
8
0
10
5520.0
20
4397.7
0
SEQEND
0
POLYLINE
8
0
66
1
10
0.0
20
0.0
30
0.0
0
VERTEX
8
0
10
5519.0
20
4397.7
0
VERTEX
8
0
10
5519.0
20
4397.5
0
VERTEX
8
0
10
5516.0
20
4397.5
0
VERTEX
8
0
10
5516.0
20
4397.7
0
VERTEX
8
0
10
5519.0
20
4397.7
0
SEQEND
0
POLYLINE
8
0
66
1
10
0.0
20
0.0
30
0.0
0
VERTEX
8
0
10
5520.0
20
4397.5
0
VERTEX
8
0
10
5520.0
20
4397.0455
0
VERTEX
8
0
10
5520.0
20
4397.0455
0
VERTEX
8
0
10
5523.0
20
4397.5
0
VERTEX
8
0
10
5520.0
20
4397.5
0
SEQEND
0
POLYLINE
8
0
66
1
10
0.0
20
0.0
30
0.0
0
VERTEX
8
0
10
5519.0
20
4397.5
0
VERTEX
8
0
10
5519.0
20
4397.0455
0
VERTEX
8
0
10
5519.0
20
4397.0455
0
VERTEX
8
0
10
5516.0
20
4397.5
0
VERTEX
8
0
10
5519.0
20
4397.5
0
SEQEND
0
POLYLINE
8
0
66
1
10
0.0
20
0.0
30
0.0
0
VERTEX
8
0
10
5520.0
20
4397.7
0
VERTEX
8
0
10
5520.0
20
4397.2455
0
VERTEX
8
0
10
5520.0
20
4397.2455
0
VERTEX
8
0
10
5523.0
20
4397.7
0
VERTEX
8
0
10
5520.0
20
4397.7
0
SEQEND
0
POLYLINE
8
0
66
1
10
0.0
20
0.0
30
0.0
0
VERTEX
8
0
10
5519.0
20
4397.7
0
VERTEX
8
0
10
5519.0
20
4397.2455
0
VERTEX
8
0
10
5519.0
20
4397.2455
0
VERTEX
8
0
10
5516.0
20
4397.7
0
VERTEX
8
0
10
5519.0
20
4397.7
0
SEQEND
0
POLYLINE
8
0
66
1
10
0.0
20
0.0
30
0.0
0
VERTEX
8
0
10
5520.0
20
4396.5
0
VERTEX
8
0
10
5520.0
20
4396.3
0
VERTEX
8
0
10
5523.0
20
4396.3
0
VERTEX
8
0
10
5523.0
20
4396.5
0
VERTEX
8
0
10
5520.0
20
4396.5
0
SEQEND
0
POLYLINE
8
0
66
1
10
0.0
20
0.0
30
0.0
0
VERTEX
8
0
10
5519.0
20
4396.5
0
VERTEX
8
0
10
5519.0
20
4396.3
0
VERTEX
8
0
10
5516.0
20
4396.3
0
VERTEX
8
0
10
5516.0
20
4396.5
0
VERTEX
8
0
10
5519.0
20
4396.5
0
SEQEND
0
POLYLINE
8
0
66
1
10
0.0
20
0.0
30
0.0
0
VERTEX
8
0
10
5520.0
20
4396.9545
0
VERTEX
8
0
10
5520.0
20
4396.5
0
VERTEX
8
0
10
5523.0
20
4396.5
0
VERTEX
8
0
10
5520.0
20
4396.9545
0
VERTEX
8
0
10
5520.0
20
4396.9545
0
SEQEND
0
POLYLINE
8
0
66
1
10
0.0
20
0.0
30
0.0
0
VERTEX
8
0
10
5519.0
20
4396.9545
0
VERTEX
8
0
10
5519.0
20
4396.5
0
VERTEX
8
0
10
5516.0
20
4396.5
0
VERTEX
8
0
10
5519.0
20
4396.9545
0
VERTEX
8
0
10
5519.0
20
4396.9545
0
SEQEND
0
POLYLINE
8
0
66
1
10
0.0
20
0.0
30
0.0
0
VERTEX
8
0
10
5520.0
20
4396.7545
0
VERTEX
8
0
10
5520.0
20
4396.3
0
VERTEX
8
0
10
5523.0
20
4396.3
0
VERTEX
8
0
10
5520.0
20
4396.7545
0
VERTEX
8
0
10
5520.0
20
4396.7545
0
SEQEND
0
POLYLINE
8
0
66
1
10
0.0
20
0.0
30
0.0
0
VERTEX
8
0
10
5519.0
20
4396.7545
0
VERTEX
8
0
10
5519.0
20
4396.3
0
VERTEX
8
0
10
5516.0
20
4396.3
0
VERTEX
8
0
10
5519.0
20
4396.7545
0
VERTEX
8
0
10
5519.0
20
4396.7545
0
SEQEND
0
POLYLINE
8
0
66
1
10
0.0
20
0.0
30
0.0
0
VERTEX
8
0
10
5516.0
20
4397.0
0
VERTEX
8
0
10
5519.0
20
4397.0
0
VERTEX
8
0
10
5519.0
20
4397.0455
0
VERTEX
8
0
10
5516.0
20
4397.5
0
VERTEX
8
0
10
5516.0
20
4397.0
0
SEQEND
0
POLYLINE
8
0
66
1
10
0.0
20
0.0
30
0.0
0
VERTEX
8
0
10
5516.0
20
4397.0
0
VERTEX
8
0
10
5519.0
20
4397.0
0
VERTEX
8
0
10
5519.0
20
4396.9545
0
VERTEX
8
0
10
5516.0
20
4396.5
0
VERTEX
8
0
10
5516.0
20
4397.0
0
SEQEND
0
POLYLINE
8
0
66
1
10
0.0
20
0.0
30
0.0
0
VERTEX
8
0
10
5516.0
20
4397.0
0
VERTEX
8
0
10
5519.0
20
4397.0
0
VERTEX
8
0
10
5519.0
20
4397.2455
0
VERTEX
8
0
10
5516.0
20
4397.7
0
VERTEX
8
0
10
5516.0
20
4397.0
0
SEQEND
0
POLYLINE
8
0
66
1
10
0.0
20
0.0
30
0.0
0
VERTEX
8
0
10
5516.0
20
4397.0
0
VERTEX
8
0
10
5519.0
20
4397.0
0
VERTEX
8
0
10
5519.0
20
4396.7545
0
VERTEX
8
0
10
5516.0
20
4396.3
0
VERTEX
8
0
10
5516.0
20
4397.0
0
SEQEND
0
POLYLINE
8
0
66
1
10
0.0
20
0.0
30
0.0
0
VERTEX
8
0
10
5520.0
20
4376.9
0
VERTEX
8
0
10
5520.0
20
4376.7
0
VERTEX
8
0
10
5523.0
20
4376.7
0
VERTEX
8
0
10
5523.0
20
4376.9
0
VERTEX
8
0
10
5520.0
20
4376.9
0
SEQEND
0
POLYLINE
8
0
66
1
10
0.0
20
0.0
30
0.0
0
VERTEX
8
0
10
5519.0
20
4376.9
0
VERTEX
8
0
10
5519.0
20
4376.7
0
VERTEX
8
0
10
5516.0
20
4376.7
0
VERTEX
8
0
10
5516.0
20
4376.9
0
VERTEX
8
0
10
5519.0
20
4376.9
0
SEQEND
0
POLYLINE
8
0
66
1
10
0.0
20
0.0
30
0.0
0
VERTEX
8
0
10
5520.0
20
4376.7
0
VERTEX
8
0
10
5520.0
20
4376.2429999999995
0
VERTEX
8
0
10
5520.0
20
4376.2429999999995
0
VERTEX
8
0
10
5523.0
20
4376.7
0
VERTEX
8
0
10
5520.0
20
4376.7
0
SEQEND
0
POLYLINE
8
0
66
1
10
0.0
20
0.0
30
0.0
0
VERTEX
8
0
10
5519.0
20
4376.7
0
VERTEX
8
0
10
5519.0
20
4376.2429999999995
0
VERTEX
8
0
10
5519.0
20
4376.2429999999995
0
VERTEX
8
0
10
5516.0
20
4376.7
0
VERTEX
8
0
10
5519.0
20
4376.7
0
SEQEND
0
POLYLINE
8
0
66
1
10
0.0
20
0.0
30
0.0
0
VERTEX
8
0
10
5520.0
20
4376.9
0
VERTEX
8
0
10
5520.0
20
4376.442999999999
0
VERTEX
8
0
10
5520.0
20
4376.442999999999
0
VERTEX
8
0
10
5523.0
20
4376.9
0
VERTEX
8
0
10
5520.0
20
4376.9
0
SEQEND
0
POLYLINE
8
0
66
1
10
0.0
20
0.0
30
0.0
0
VERTEX
8
0
10
5519.0
20
4376.9
0
VERTEX
8
0
10
5519.0
20
4376.442999999999
0
VERTEX
8
0
10
5519.0
20
4376.442999999999
0
VERTEX
8
0
10
5516.0
20
4376.9
0
VERTEX
8
0
10
5519.0
20
4376.9
0
SEQEND
0
POLYLINE
8
0
66
1
10
0.0
20
0.0
30
0.0
0
VERTEX
8
0
10
5520.0
20
4375.699999999999
0
VERTEX
8
0
10
5520.0
20
4375.499999999999
0
VERTEX
8
0
10
5523.0
20
4375.499999999999
0
VERTEX
8
0
10
5523.0
20
4375.699999999999
0
VERTEX
8
0
10
5520.0
20
4375.699999999999
0
SEQEND
0
POLYLINE
8
0
66
1
10
0.0
20
0.0
30
0.0
0
VERTEX
8
0
10
5519.0
20
4375.699999999999
0
VERTEX
8
0
10
5519.0
20
4375.499999999999
0
VERTEX
8
0
10
5516.0
20
4375.499999999999
0
VERTEX
8
0
10
5516.0
20
4375.699999999999
0
VERTEX
8
0
10
5519.0
20
4375.699999999999
0
SEQEND
0
POLYLINE
8
0
66
1
10
0.0
20
0.0
30
0.0
0
VERTEX
8
0
10
5520.0
20
4376.156999999999
0
VERTEX
8
0
10
5520.0
20
4375.699999999999
0
VERTEX
8
0
10
5523.0
20
4375.699999999999
0
VERTEX
8
0
10
5520.0
20
4376.156999999999
0
VERTEX
8
0
10
5520.0
20
4376.156999999999
0
SEQEND
0
POLYLINE
8
0
66
1
10
0.0
20
0.0
30
0.0
0
VERTEX
8
0
10
5519.0
20
4376.156999999999
0
VERTEX
8
0
10
5519.0
20
4375.699999999999
0
VERTEX
8
0
10
5516.0
20
4375.699999999999
0
VERTEX
8
0
10
5519.0
20
4376.156999999999
0
VERTEX
8
0
10
5519.0
20
4376.156999999999
0
SEQEND
0
POLYLINE
8
0
66
1
10
0.0
20
0.0
30
0.0
0
VERTEX
8
0
10
5520.0
20
4375.956999999999
0
VERTEX
8
0
10
5520.0
20
4375.499999999999
0
VERTEX
8
0
10
5523.0
20
4375.499999999999
0
VERTEX
8
0
10
5520.0
20
4375.956999999999
0
VERTEX
8
0
10
5520.0
20
4375.956999999999
0
SEQEND
0
POLYLINE
8
0
66
1
10
0.0
20
0.0
30
0.0
0
VERTEX
8
0
10
5519.0
20
4375.956999999999
0
VERTEX
8
0
10
5519.0
20
4375.499999999999
0
VERTEX
8
0
10
5516.0
20
4375.499999999999
0
VERTEX
8
0
10
5519.0
20
4375.956999999999
0
VERTEX
8
0
10
5519.0
20
4375.956999999999
0
SEQEND
0
POLYLINE
8
0
66
1
10
0.0
20
0.0
30
0.0
0
VERTEX
8
0
10
5516.0
20
4376.2
0
VERTEX
8
0
10
5519.0
20
4376.2
0
VERTEX
8
0
10
5519.0
20
4376.2429999999995
0
VERTEX
8
0
10
5516.0
20
4376.7
0
VERTEX
8
0
10
5516.0
20
4376.2
0
SEQEND
0
POLYLINE
8
0
66
1
10
0.0
20
0.0
30
0.0
0
VERTEX
8
0
10
5516.0
20
4376.2
0
VERTEX
8
0
10
5519.0
20
4376.2
0
VERTEX
8
0
10
5519.0
20
4376.157
0
VERTEX
8
0
10
5516.0
20
4375.7
0
VERTEX
8
0
10
5516.0
20
4376.2
0
SEQEND
0
POLYLINE
8
0
66
1
10
0.0
20
0.0
30
0.0
0
VERTEX
8
0
10
5516.0
20
4376.2
0
VERTEX
8
0
10
5519.0
20
4376.2
0
VERTEX
8
0
10
5519.0
20
4376.443
0
VERTEX
8
0
10
5516.0
20
4376.9
0
VERTEX
8
0
10
5516.0
20
4376.2
0
SEQEND
0
POLYLINE
8
0
66
1
10
0.0
20
0.0
30
0.0
0
VERTEX
8
0
10
5516.0
20
4376.2
0
VERTEX
8
0
10
5519.0
20
4376.2
0
VERTEX
8
0
10
5519.0
20
4375.956999999999
0
VERTEX
8
0
10
5516.0
20
4375.5
0
VERTEX
8
0
10
5516.0
20
4376.2
0
SEQEND
0
POLYLINE
8
0
66
1
10
0.0
20
0.0
30
0.0
0
VERTEX
8
0
10
5508.666666666667
20
4362.7
0
VERTEX
8
0
10
5508.666666666667
20
4362.5
0
VERTEX
8
0
10
5511.666666666667
20
4362.5
0
VERTEX
8
0
10
5511.666666666667
20
4362.7
0
VERTEX
8
0
10
5508.666666666667
20
4362.7
0
SEQEND
0
POLYLINE
8
0
66
1
10
0.0
20
0.0
30
0.0
0
VERTEX
8
0
10
5507.666666666667
20
4362.7
0
VERTEX
8
0
10
5507.666666666667
20
4362.5
0
VERTEX
8
0
10
5504.666666666667
20
4362.5
0
VERTEX
8
0
10
5504.666666666667
20
4362.7
0
VERTEX
8
0
10
5507.666666666667
20
4362.7
0
SEQEND
0
POLYLINE
8
0
66
1
10
0.0
20
0.0
30
0.0
0
VERTEX
8
0
10
5508.666666666667
20
4362.5
0
VERTEX
8
0
10
5508.666666666667
20
4362.068
0
VERTEX
8
0
10
5508.666666666667
20
4362.068
0
VERTEX
8
0
10
5511.666666666667
20
4362.5
0
VERTEX
8
0
10
5508.666666666667
20
4362.5
0
SEQEND
0
POLYLINE
8
0
66
1
10
0.0
20
0.0
30
0.0
0
VERTEX
8
0
10
5507.666666666667
20
4362.5
0
VERTEX
8
0
10
5507.666666666667
20
4362.068
0
VERTEX
8
0
10
5507.666666666667
20
4362.068
0
VERTEX
8
0
10
5504.666666666667
20
4362.5
0
VERTEX
8
0
10
5507.666666666667
20
4362.5
0
SEQEND
0
POLYLINE
8
0
66
1
10
0.0
20
0.0
30
0.0
0
VERTEX
8
0
10
5508.666666666667
20
4362.7
0
VERTEX
8
0
10
5508.666666666667
20
4362.268
0
VERTEX
8
0
10
5508.666666666667
20
4362.268
0
VERTEX
8
0
10
5511.666666666667
20
4362.7
0
VERTEX
8
0
10
5508.666666666667
20
4362.7
0
SEQEND
0
POLYLINE
8
0
66
1
10
0.0
20
0.0
30
0.0
0
VERTEX
8
0
10
5507.666666666667
20
4362.7
0
VERTEX
8
0
10
5507.666666666667
20
4362.268
0
VERTEX
8
0
10
5507.666666666667
20
4362.268
0
VERTEX
8
0
10
5504.666666666667
20
4362.7
0
VERTEX
8
0
10
5507.666666666667
20
4362.7
0
SEQEND
0
POLYLINE
8
0
66
1
10
0.0
20
0.0
30
0.0
0
VERTEX
8
0
10
5508.666666666667
20
4361.5
0
VERTEX
8
0
10
5508.666666666667
20
4361.3
0
VERTEX
8
0
10
5511.666666666667
20
4361.3
0
VERTEX
8
0
10
5511.666666666667
20
4361.5
0
VERTEX
8
0
10
5508.666666666667
20
4361.5
0
SEQEND
0
POLYLINE
8
0
66
1
10
0.0
20
0.0
30
0.0
0
VERTEX
8
0
10
5507.666666666667
20
4361.5
0
VERTEX
8
0
10
5507.666666666667
20
4361.3
0
VERTEX
8
0
10
5504.666666666667
20
4361.3
0
VERTEX
8
0
10
5504.666666666667
20
4361.5
0
VERTEX
8
0
10
5507.666666666667
20
4361.5
0
SEQEND
0
POLYLINE
8
0
66
1
10
0.0
20
0.0
30
0.0
0
VERTEX
8
0
10
5508.666666666667
20
4361.932
0
VERTEX
8
0
10
5508.666666666667
20
4361.5
0
VERTEX
8
0
10
5511.666666666667
20
4361.5
0
VERTEX
8
0
10
5508.666666666667
20
4361.932
0
VERTEX
8
0
10
5508.666666666667
20
4361.932
0
SEQEND
0
POLYLINE
8
0
66
1
10
0.0
20
0.0
30
0.0
0
VERTEX
8
0
10
5507.666666666667
20
4361.932
0
VERTEX
8
0
10
5507.666666666667
20
4361.5
0
VERTEX
8
0
10
5504.666666666667
20
4361.5
0
VERTEX
8
0
10
5507.666666666667
20
4361.932
0
VERTEX
8
0
10
5507.666666666667
20
4361.932
0
SEQEND
0
POLYLINE
8
0
66
1
10
0.0
20
0.0
30
0.0
0
VERTEX
8
0
10
5508.666666666667
20
4361.732
0
VERTEX
8
0
10
5508.666666666667
20
4361.3
0
VERTEX
8
0
10
5511.666666666667
20
4361.3
0
VERTEX
8
0
10
5508.666666666667
20
4361.732
0
VERTEX
8
0
10
5508.666666666667
20
4361.732
0
SEQEND
0
POLYLINE
8
0
66
1
10
0.0
20
0.0
30
0.0
0
VERTEX
8
0
10
5507.666666666667
20
4361.732
0
VERTEX
8
0
10
5507.666666666667
20
4361.3
0
VERTEX
8
0
10
5504.666666666667
20
4361.3
0
VERTEX
8
0
10
5507.666666666667
20
4361.732
0
VERTEX
8
0
10
5507.666666666667
20
4361.732
0
SEQEND
0
POLYLINE
8
0
66
1
10
0.0
20
0.0
30
0.0
0
VERTEX
8
0
10
5504.666666666667
20
4362.0
0
VERTEX
8
0
10
5507.666666666667
20
4362.0
0
VERTEX
8
0
10
5507.666666666667
20
4362.068
0
VERTEX
8
0
10
5504.666666666667
20
4362.5
0
VERTEX
8
0
10
5504.666666666667
20
4362.0
0
SEQEND
0
POLYLINE
8
0
66
1
10
0.0
20
0.0
30
0.0
0
VERTEX
8
0
10
5504.666666666667
20
4362.0
0
VERTEX
8
0
10
5507.666666666667
20
4362.0
0
VERTEX
8
0
10
5507.666666666667
20
4361.932
0
VERTEX
8
0
10
5504.666666666667
20
4361.5
0
VERTEX
8
0
10
5504.666666666667
20
4362.0
0
SEQEND
0
POLYLINE
8
0
66
1
10
0.0
20
0.0
30
0.0
0
VERTEX
8
0
10
5504.666666666667
20
4362.0
0
VERTEX
8
0
10
5507.666666666667
20
4362.0
0
VERTEX
8
0
10
5507.666666666667
20
4362.268
0
VERTEX
8
0
10
5504.666666666667
20
4362.7
0
VERTEX
8
0
10
5504.666666666667
20
4362.0
0
SEQEND
0
POLYLINE
8
0
66
1
10
0.0
20
0.0
30
0.0
0
VERTEX
8
0
10
5504.666666666667
20
4362.0
0
VERTEX
8
0
10
5507.666666666667
20
4362.0
0
VERTEX
8
0
10
5507.666666666667
20
4361.732
0
VERTEX
8
0
10
5504.666666666667
20
4361.3
0
VERTEX
8
0
10
5504.666666666667
20
4362.0
0
SEQEND
0
POLYLINE
8
0
66
1
10
0.0
20
0.0
30
0.0
0
VERTEX
8
0
10
5530.743333333334
20
4362.068
0
VERTEX
8
0
10
5530.743333333334
20
4361.932
0
VERTEX
8
0
10
5530.923333333334
20
4361.932
0
VERTEX
8
0
10
5530.923333333334
20
4362.068
0
VERTEX
8
0
10
5530.743333333334
20
4362.068
0
SEQEND
0
POLYLINE
8
0
66
1
10
0.0
20
0.0
30
0.0
0
VERTEX
8
0
10
5530.333333333334
20
4362.268
0
VERTEX
8
0
10
5530.333333333334
20
4362.068
0
VERTEX
8
0
10
5531.333333333334
20
4362.068
0
VERTEX
8
0
10
5531.333333333334
20
4362.268
0
VERTEX
8
0
10
5530.333333333334
20
4362.268
0
SEQEND
0
POLYLINE
8
0
66
1
10
0.0
20
0.0
30
0.0
0
VERTEX
8
0
10
5530.333333333334
20
4361.932
0
VERTEX
8
0
10
5530.333333333334
20
4361.732
0
VERTEX
8
0
10
5531.333333333334
20
4361.732
0
VERTEX
8
0
10
5531.333333333334
20
4361.932
0
VERTEX
8
0
10
5530.333333333334
20
4361.932
0
SEQEND
0
POLYLINE
8
0
66
1
10
0.0
20
0.0
30
0.0
0
VERTEX
8
0
10
5531.333333333334
20
4362.7
0
VERTEX
8
0
10
5531.333333333334
20
4362.5
0
VERTEX
8
0
10
5534.333333333334
20
4362.5
0
VERTEX
8
0
10
5534.333333333334
20
4362.7
0
VERTEX
8
0
10
5531.333333333334
20
4362.7
0
SEQEND
0
POLYLINE
8
0
66
1
10
0.0
20
0.0
30
0.0
0
VERTEX
8
0
10
5530.333333333334
20
4362.7
0
VERTEX
8
0
10
5530.333333333334
20
4362.5
0
VERTEX
8
0
10
5527.333333333334
20
4362.5
0
VERTEX
8
0
10
5527.333333333334
20
4362.7
0
VERTEX
8
0
10
5530.333333333334
20
4362.7
0
SEQEND
0
POLYLINE
8
0
66
1
10
0.0
20
0.0
30
0.0
0
VERTEX
8
0
10
5531.333333333334
20
4362.5
0
VERTEX
8
0
10
5531.333333333334
20
4362.068
0
VERTEX
8
0
10
5531.333333333334
20
4362.068
0
VERTEX
8
0
10
5534.333333333334
20
4362.5
0
VERTEX
8
0
10
5531.333333333334
20
4362.5
0
SEQEND
0
POLYLINE
8
0
66
1
10
0.0
20
0.0
30
0.0
0
VERTEX
8
0
10
5530.333333333334
20
4362.5
0
VERTEX
8
0
10
5530.333333333334
20
4362.068
0
VERTEX
8
0
10
5530.333333333334
20
4362.068
0
VERTEX
8
0
10
5527.333333333334
20
4362.5
0
VERTEX
8
0
10
5530.333333333334
20
4362.5
0
SEQEND
0
POLYLINE
8
0
66
1
10
0.0
20
0.0
30
0.0
0
VERTEX
8
0
10
5531.333333333334
20
4362.7
0
VERTEX
8
0
10
5531.333333333334
20
4362.268
0
VERTEX
8
0
10
5531.333333333334
20
4362.268
0
VERTEX
8
0
10
5534.333333333334
20
4362.7
0
VERTEX
8
0
10
5531.333333333334
20
4362.7
0
SEQEND
0
POLYLINE
8
0
66
1
10
0.0
20
0.0
30
0.0
0
VERTEX
8
0
10
5530.333333333334
20
4362.7
0
VERTEX
8
0
10
5530.333333333334
20
4362.268
0
VERTEX
8
0
10
5530.333333333334
20
4362.268
0
VERTEX
8
0
10
5527.333333333334
20
4362.7
0
VERTEX
8
0
10
5530.333333333334
20
4362.7
0
SEQEND
0
POLYLINE
8
0
66
1
10
0.0
20
0.0
30
0.0
0
VERTEX
8
0
10
5531.333333333334
20
4361.5
0
VERTEX
8
0
10
5531.333333333334
20
4361.3
0
VERTEX
8
0
10
5534.333333333334
20
4361.3
0
VERTEX
8
0
10
5534.333333333334
20
4361.5
0
VERTEX
8
0
10
5531.333333333334
20
4361.5
0
SEQEND
0
POLYLINE
8
0
66
1
10
0.0
20
0.0
30
0.0
0
VERTEX
8
0
10
5530.333333333334
20
4361.5
0
VERTEX
8
0
10
5530.333333333334
20
4361.3
0
VERTEX
8
0
10
5527.333333333334
20
4361.3
0
VERTEX
8
0
10
5527.333333333334
20
4361.5
0
VERTEX
8
0
10
5530.333333333334
20
4361.5
0
SEQEND
0
POLYLINE
8
0
66
1
10
0.0
20
0.0
30
0.0
0
VERTEX
8
0
10
5531.333333333334
20
4361.932
0
VERTEX
8
0
10
5531.333333333334
20
4361.5
0
VERTEX
8
0
10
5534.333333333334
20
4361.5
0
VERTEX
8
0
10
5531.333333333334
20
4361.932
0
VERTEX
8
0
10
5531.333333333334
20
4361.932
0
SEQEND
0
POLYLINE
8
0
66
1
10
0.0
20
0.0
30
0.0
0
VERTEX
8
0
10
5530.333333333334
20
4361.932
0
VERTEX
8
0
10
5530.333333333334
20
4361.5
0
VERTEX
8
0
10
5527.333333333334
20
4361.5
0
VERTEX
8
0
10
5530.333333333334
20
4361.932
0
VERTEX
8
0
10
5530.333333333334
20
4361.932
0
SEQEND
0
POLYLINE
8
0
66
1
10
0.0
20
0.0
30
0.0
0
VERTEX
8
0
10
5531.333333333334
20
4361.732
0
VERTEX
8
0
10
5531.333333333334
20
4361.3
0
VERTEX
8
0
10
5534.333333333334
20
4361.3
0
VERTEX
8
0
10
5531.333333333334
20
4361.732
0
VERTEX
8
0
10
5531.333333333334
20
4361.732
0
SEQEND
0
POLYLINE
8
0
66
1
10
0.0
20
0.0
30
0.0
0
VERTEX
8
0
10
5530.333333333334
20
4361.732
0
VERTEX
8
0
10
5530.333333333334
20
4361.3
0
VERTEX
8
0
10
5527.333333333334
20
4361.3
0
VERTEX
8
0
10
5530.333333333334
20
4361.732
0
VERTEX
8
0
10
5530.333333333334
20
4361.732
0
SEQEND
0
POLYLINE
8
0
66
1
10
0.0
20
0.0
30
0.0
0
VERTEX
8
0
10
5527.333333333334
20
4362.0
0
VERTEX
8
0
10
5530.333333333334
20
4362.0
0
VERTEX
8
0
10
5530.333333333334
20
4362.068
0
VERTEX
8
0
10
5527.333333333334
20
4362.5
0
VERTEX
8
0
10
5527.333333333334
20
4362.0
0
SEQEND
0
POLYLINE
8
0
66
1
10
0.0
20
0.0
30
0.0
0
VERTEX
8
0
10
5527.333333333334
20
4362.0
0
VERTEX
8
0
10
5530.333333333334
20
4362.0
0
VERTEX
8
0
10
5530.333333333334
20
4361.932
0
VERTEX
8
0
10
5527.333333333334
20
4361.5
0
VERTEX
8
0
10
5527.333333333334
20
4362.0
0
SEQEND
0
POLYLINE
8
0
66
1
10
0.0
20
0.0
30
0.0
0
VERTEX
8
0
10
5530.333333333334
20
4361.932
0
VERTEX
8
0
10
5530.743333333334
20
4361.932
0
VERTEX
8
0
10
5530.743333333334
20
4362.068
0
VERTEX
8
0
10
5530.333333333334
20
4362.068
0
VERTEX
8
0
10
5530.333333333334
20
4361.932
0
SEQEND
0
POLYLINE
8
0
66
1
10
0.0
20
0.0
30
0.0
0
VERTEX
8
0
10
5527.333333333334
20
4362.0
0
VERTEX
8
0
10
5530.333333333334
20
4362.0
0
VERTEX
8
0
10
5530.333333333334
20
4362.268
0
VERTEX
8
0
10
5527.333333333334
20
4362.7
0
VERTEX
8
0
10
5527.333333333334
20
4362.0
0
SEQEND
0
POLYLINE
8
0
66
1
10
0.0
20
0.0
30
0.0
0
VERTEX
8
0
10
5527.333333333334
20
4362.0
0
VERTEX
8
0
10
5530.333333333334
20
4362.0
0
VERTEX
8
0
10
5530.333333333334
20
4361.732
0
VERTEX
8
0
10
5527.333333333334
20
4361.3
0
VERTEX
8
0
10
5527.333333333334
20
4362.0
0
SEQEND
0
POLYLINE
8
0
66
1
10
0.0
20
0.0
30
0.0
0
VERTEX
8
0
10
5530.333333333334
20
4361.732
0
VERTEX
8
0
10
5530.743333333334
20
4361.732
0
VERTEX
8
0
10
5530.743333333334
20
4362.268
0
VERTEX
8
0
10
5530.333333333334
20
4362.268
0
VERTEX
8
0
10
5530.333333333334
20
4361.732
0
SEQEND
0
POLYLINE
8
0
66
1
10
0.0
20
0.0
30
0.0
0
VERTEX
8
0
10
5530.743333333334
20
4362.268
0
VERTEX
8
0
10
5530.923333333334
20
4362.268
0
VERTEX
8
0
10
5530.923333333334
20
4362.5
0
VERTEX
8
0
10
5530.743333333334
20
4362.5
0
VERTEX
8
0
10
5530.743333333334
20
4362.268
0
SEQEND
0
POLYLINE
8
0
66
1
10
0.0
20
0.0
30
0.0
0
VERTEX
8
0
10
5530.743333333334
20
4361.732
0
VERTEX
8
0
10
5530.923333333334
20
4361.732
0
VERTEX
8
0
10
5530.923333333334
20
4361.5
0
VERTEX
8
0
10
5530.743333333334
20
4361.5
0
VERTEX
8
0
10
5530.743333333334
20
4361.732
0
SEQEND
0
POLYLINE
8
0
66
1
10
0.0
20
0.0
30
0.0
0
VERTEX
8
0
10
5501.0
20
2796.5
0
VERTEX
8
0
10
5501.0
20
2776.7
0
VERTEX
8
0
10
5501.200000000001
20
2776.7
0
VERTEX
8
0
10
5501.200000000001
20
2796.5
0
VERTEX
8
0
10
5501.0
20
2796.5
0
SEQEND
0
POLYLINE
8
0
66
1
10
0.0
20
0.0
30
0.0
0
VERTEX
8
0
10
5501.0
20
2775.7
0
VERTEX
8
0
10
5501.0
20
2762.5
0
VERTEX
8
0
10
5501.200000000001
20
2762.5
0
VERTEX
8
0
10
5501.200000000001
20
2775.7
0
VERTEX
8
0
10
5501.0
20
2775.7
0
SEQEND
0
POLYLINE
8
0
66
1
10
0.0
20
0.0
30
0.0
0
VERTEX
8
0
10
5537.799999999999
20
2796.5
0
VERTEX
8
0
10
5537.799999999999
20
2776.7
0
VERTEX
8
0
10
5538.0
20
2776.7
0
VERTEX
8
0
10
5538.0
20
2796.5
0
VERTEX
8
0
10
5537.799999999999
20
2796.5
0
SEQEND
0
POLYLINE
8
0
66
1
10
0.0
20
0.0
30
0.0
0
VERTEX
8
0
10
5537.799999999999
20
2775.7
0
VERTEX
8
0
10
5537.799999999999
20
2762.5
0
VERTEX
8
0
10
5538.0
20
2762.5
0
VERTEX
8
0
10
5538.0
20
2775.7
0
VERTEX
8
0
10
5537.799999999999
20
2775.7
0
SEQEND
0
POLYLINE
8
0
66
1
10
0.0
20
0.0
30
0.0
0
VERTEX
8
0
10
5499.800000000001
20
2797.5
0
VERTEX
8
0
10
5499.800000000001
20
2785.5
0
VERTEX
8
0
10
5500.0
20
2785.5
0
VERTEX
8
0
10
5500.0
20
2797.5
0
VERTEX
8
0
10
5499.800000000001
20
2797.5
0
SEQEND
0
POLYLINE
8
0
66
1
10
0.0
20
0.0
30
0.0
0
VERTEX
8
0
10
5499.800000000001
20
2783.5
0
VERTEX
8
0
10
5499.800000000001
20
2761.5
0
VERTEX
8
0
10
5500.0
20
2761.5
0
VERTEX
8
0
10
5500.0
20
2783.5
0
VERTEX
8
0
10
5499.800000000001
20
2783.5
0
SEQEND
0
POLYLINE
8
0
66
1
10
0.0
20
0.0
30
0.0
0
VERTEX
8
0
10
5539.0
20
2797.5
0
VERTEX
8
0
10
5539.0
20
2785.5
0
VERTEX
8
0
10
5539.199999999999
20
2785.5
0
VERTEX
8
0
10
5539.199999999999
20
2797.5
0
VERTEX
8
0
10
5539.0
20
2797.5
0
SEQEND
0
POLYLINE
8
0
66
1
10
0.0
20
0.0
30
0.0
0
VERTEX
8
0
10
5539.0
20
2783.5
0
VERTEX
8
0
10
5539.0
20
2761.5
0
VERTEX
8
0
10
5539.199999999999
20
2761.5
0
VERTEX
8
0
10
5539.199999999999
20
2783.5
0
VERTEX
8
0
10
5539.0
20
2783.5
0
SEQEND
0
POLYLINE
8
0
66
1
10
0.0
20
0.0
30
0.0
0
VERTEX
8
0
10
5520.0
20
2797.7
0
VERTEX
8
0
10
5520.0
20
2797.5
0
VERTEX
8
0
10
5523.0
20
2797.5
0
VERTEX
8
0
10
5523.0
20
2797.7
0
VERTEX
8
0
10
5520.0
20
2797.7
0
SEQEND
0
POLYLINE
8
0
66
1
10
0.0
20
0.0
30
0.0
0
VERTEX
8
0
10
5519.0
20
2797.7
0
VERTEX
8
0
10
5519.0
20
2797.5
0
VERTEX
8
0
10
5516.0
20
2797.5
0
VERTEX
8
0
10
5516.0
20
2797.7
0
VERTEX
8
0
10
5519.0
20
2797.7
0
SEQEND
0
POLYLINE
8
0
66
1
10
0.0
20
0.0
30
0.0
0
VERTEX
8
0
10
5520.0
20
2797.5
0
VERTEX
8
0
10
5520.0
20
2797.0455
0
VERTEX
8
0
10
5520.0
20
2797.0455
0
VERTEX
8
0
10
5523.0
20
2797.5
0
VERTEX
8
0
10
5520.0
20
2797.5
0
SEQEND
0
POLYLINE
8
0
66
1
10
0.0
20
0.0
30
0.0
0
VERTEX
8
0
10
5519.0
20
2797.5
0
VERTEX
8
0
10
5519.0
20
2797.0455
0
VERTEX
8
0
10
5519.0
20
2797.0455
0
VERTEX
8
0
10
5516.0
20
2797.5
0
VERTEX
8
0
10
5519.0
20
2797.5
0
SEQEND
0
POLYLINE
8
0
66
1
10
0.0
20
0.0
30
0.0
0
VERTEX
8
0
10
5520.0
20
2797.7
0
VERTEX
8
0
10
5520.0
20
2797.2455
0
VERTEX
8
0
10
5520.0
20
2797.2455
0
VERTEX
8
0
10
5523.0
20
2797.7
0
VERTEX
8
0
10
5520.0
20
2797.7
0
SEQEND
0
POLYLINE
8
0
66
1
10
0.0
20
0.0
30
0.0
0
VERTEX
8
0
10
5519.0
20
2797.7
0
VERTEX
8
0
10
5519.0
20
2797.2455
0
VERTEX
8
0
10
5519.0
20
2797.2455
0
VERTEX
8
0
10
5516.0
20
2797.7
0
VERTEX
8
0
10
5519.0
20
2797.7
0
SEQEND
0
POLYLINE
8
0
66
1
10
0.0
20
0.0
30
0.0
0
VERTEX
8
0
10
5520.0
20
2796.5000000000005
0
VERTEX
8
0
10
5520.0
20
2796.3000000000006
0
VERTEX
8
0
10
5523.0
20
2796.3000000000006
0
VERTEX
8
0
10
5523.0
20
2796.5000000000005
0
VERTEX
8
0
10
5520.0
20
2796.5000000000005
0
SEQEND
0
POLYLINE
8
0
66
1
10
0.0
20
0.0
30
0.0
0
VERTEX
8
0
10
5519.0
20
2796.5000000000005
0
VERTEX
8
0
10
5519.0
20
2796.3000000000006
0
VERTEX
8
0
10
5516.0
20
2796.3000000000006
0
VERTEX
8
0
10
5516.0
20
2796.5000000000005
0
VERTEX
8
0
10
5519.0
20
2796.5000000000005
0
SEQEND
0
POLYLINE
8
0
66
1
10
0.0
20
0.0
30
0.0
0
VERTEX
8
0
10
5520.0
20
2796.9545000000003
0
VERTEX
8
0
10
5520.0
20
2796.5000000000005
0
VERTEX
8
0
10
5523.0
20
2796.5000000000005
0
VERTEX
8
0
10
5520.0
20
2796.9545000000003
0
VERTEX
8
0
10
5520.0
20
2796.9545000000003
0
SEQEND
0
POLYLINE
8
0
66
1
10
0.0
20
0.0
30
0.0
0
VERTEX
8
0
10
5519.0
20
2796.9545000000003
0
VERTEX
8
0
10
5519.0
20
2796.5000000000005
0
VERTEX
8
0
10
5516.0
20
2796.5000000000005
0
VERTEX
8
0
10
5519.0
20
2796.9545000000003
0
VERTEX
8
0
10
5519.0
20
2796.9545000000003
0
SEQEND
0
POLYLINE
8
0
66
1
10
0.0
20
0.0
30
0.0
0
VERTEX
8
0
10
5520.0
20
2796.7545000000005
0
VERTEX
8
0
10
5520.0
20
2796.3000000000006
0
VERTEX
8
0
10
5523.0
20
2796.3000000000006
0
VERTEX
8
0
10
5520.0
20
2796.7545000000005
0
VERTEX
8
0
10
5520.0
20
2796.7545000000005
0
SEQEND
0
POLYLINE
8
0
66
1
10
0.0
20
0.0
30
0.0
0
VERTEX
8
0
10
5519.0
20
2796.7545000000005
0
VERTEX
8
0
10
5519.0
20
2796.3000000000006
0
VERTEX
8
0
10
5516.0
20
2796.3000000000006
0
VERTEX
8
0
10
5519.0
20
2796.7545000000005
0
VERTEX
8
0
10
5519.0
20
2796.7545000000005
0
SEQEND
0
POLYLINE
8
0
66
1
10
0.0
20
0.0
30
0.0
0
VERTEX
8
0
10
5516.0
20
2797.0
0
VERTEX
8
0
10
5519.0
20
2797.0
0
VERTEX
8
0
10
5519.0
20
2797.0455
0
VERTEX
8
0
10
5516.0
20
2797.5
0
VERTEX
8
0
10
5516.0
20
2797.0
0
SEQEND
0
POLYLINE
8
0
66
1
10
0.0
20
0.0
30
0.0
0
VERTEX
8
0
10
5516.0
20
2797.0
0
VERTEX
8
0
10
5519.0
20
2797.0
0
VERTEX
8
0
10
5519.0
20
2796.9545
0
VERTEX
8
0
10
5516.0
20
2796.5
0
VERTEX
8
0
10
5516.0
20
2797.0
0
SEQEND
0
POLYLINE
8
0
66
1
10
0.0
20
0.0
30
0.0
0
VERTEX
8
0
10
5516.0
20
2797.0
0
VERTEX
8
0
10
5519.0
20
2797.0
0
VERTEX
8
0
10
5519.0
20
2797.2455
0
VERTEX
8
0
10
5516.0
20
2797.7
0
VERTEX
8
0
10
5516.0
20
2797.0
0
SEQEND
0
POLYLINE
8
0
66
1
10
0.0
20
0.0
30
0.0
0
VERTEX
8
0
10
5516.0
20
2797.0
0
VERTEX
8
0
10
5519.0
20
2797.0
0
VERTEX
8
0
10
5519.0
20
2796.7545
0
VERTEX
8
0
10
5516.0
20
2796.3
0
VERTEX
8
0
10
5516.0
20
2797.0
0
SEQEND
0
POLYLINE
8
0
66
1
10
0.0
20
0.0
30
0.0
0
VERTEX
8
0
10
5520.0
20
2776.8999999999996
0
VERTEX
8
0
10
5520.0
20
2776.7
0
VERTEX
8
0
10
5523.0
20
2776.7
0
VERTEX
8
0
10
5523.0
20
2776.8999999999996
0
VERTEX
8
0
10
5520.0
20
2776.8999999999996
0
SEQEND
0
POLYLINE
8
0
66
1
10
0.0
20
0.0
30
0.0
0
VERTEX
8
0
10
5519.0
20
2776.8999999999996
0
VERTEX
8
0
10
5519.0
20
2776.7
0
VERTEX
8
0
10
5516.0
20
2776.7
0
VERTEX
8
0
10
5516.0
20
2776.8999999999996
0
VERTEX
8
0
10
5519.0
20
2776.8999999999996
0
SEQEND
0
POLYLINE
8
0
66
1
10
0.0
20
0.0
30
0.0
0
VERTEX
8
0
10
5520.0
20
2776.7
0
VERTEX
8
0
10
5520.0
20
2776.2429999999995
0
VERTEX
8
0
10
5520.0
20
2776.2429999999995
0
VERTEX
8
0
10
5523.0
20
2776.7
0
VERTEX
8
0
10
5520.0
20
2776.7
0
SEQEND
0
POLYLINE
8
0
66
1
10
0.0
20
0.0
30
0.0
0
VERTEX
8
0
10
5519.0
20
2776.7
0
VERTEX
8
0
10
5519.0
20
2776.2429999999995
0
VERTEX
8
0
10
5519.0
20
2776.2429999999995
0
VERTEX
8
0
10
5516.0
20
2776.7
0
VERTEX
8
0
10
5519.0
20
2776.7
0
SEQEND
0
POLYLINE
8
0
66
1
10
0.0
20
0.0
30
0.0
0
VERTEX
8
0
10
5520.0
20
2776.8999999999996
0
VERTEX
8
0
10
5520.0
20
2776.4429999999993
0
VERTEX
8
0
10
5520.0
20
2776.4429999999993
0
VERTEX
8
0
10
5523.0
20
2776.8999999999996
0
VERTEX
8
0
10
5520.0
20
2776.8999999999996
0
SEQEND
0
POLYLINE
8
0
66
1
10
0.0
20
0.0
30
0.0
0
VERTEX
8
0
10
5519.0
20
2776.8999999999996
0
VERTEX
8
0
10
5519.0
20
2776.4429999999993
0
VERTEX
8
0
10
5519.0
20
2776.4429999999993
0
VERTEX
8
0
10
5516.0
20
2776.8999999999996
0
VERTEX
8
0
10
5519.0
20
2776.8999999999996
0
SEQEND
0
POLYLINE
8
0
66
1
10
0.0
20
0.0
30
0.0
0
VERTEX
8
0
10
5520.0
20
2775.7000000000003
0
VERTEX
8
0
10
5520.0
20
2775.5000000000005
0
VERTEX
8
0
10
5523.0
20
2775.5000000000005
0
VERTEX
8
0
10
5523.0
20
2775.7000000000003
0
VERTEX
8
0
10
5520.0
20
2775.7000000000003
0
SEQEND
0
POLYLINE
8
0
66
1
10
0.0
20
0.0
30
0.0
0
VERTEX
8
0
10
5519.0
20
2775.7000000000003
0
VERTEX
8
0
10
5519.0
20
2775.5000000000005
0
VERTEX
8
0
10
5516.0
20
2775.5000000000005
0
VERTEX
8
0
10
5516.0
20
2775.7000000000003
0
VERTEX
8
0
10
5519.0
20
2775.7000000000003
0
SEQEND
0
POLYLINE
8
0
66
1
10
0.0
20
0.0
30
0.0
0
VERTEX
8
0
10
5520.0
20
2776.157
0
VERTEX
8
0
10
5520.0
20
2775.7
0
VERTEX
8
0
10
5523.0
20
2775.7
0
VERTEX
8
0
10
5520.0
20
2776.157
0
VERTEX
8
0
10
5520.0
20
2776.157
0
SEQEND
0
POLYLINE
8
0
66
1
10
0.0
20
0.0
30
0.0
0
VERTEX
8
0
10
5519.0
20
2776.157
0
VERTEX
8
0
10
5519.0
20
2775.7
0
VERTEX
8
0
10
5516.0
20
2775.7
0
VERTEX
8
0
10
5519.0
20
2776.157
0
VERTEX
8
0
10
5519.0
20
2776.157
0
SEQEND
0
POLYLINE
8
0
66
1
10
0.0
20
0.0
30
0.0
0
VERTEX
8
0
10
5520.0
20
2775.9570000000003
0
VERTEX
8
0
10
5520.0
20
2775.5
0
VERTEX
8
0
10
5523.0
20
2775.5
0
VERTEX
8
0
10
5520.0
20
2775.9570000000003
0
VERTEX
8
0
10
5520.0
20
2775.9570000000003
0
SEQEND
0
POLYLINE
8
0
66
1
10
0.0
20
0.0
30
0.0
0
VERTEX
8
0
10
5519.0
20
2775.9570000000003
0
VERTEX
8
0
10
5519.0
20
2775.5
0
VERTEX
8
0
10
5516.0
20
2775.5
0
VERTEX
8
0
10
5519.0
20
2775.9570000000003
0
VERTEX
8
0
10
5519.0
20
2775.9570000000003
0
SEQEND
0
POLYLINE
8
0
66
1
10
0.0
20
0.0
30
0.0
0
VERTEX
8
0
10
5516.0
20
2776.2
0
VERTEX
8
0
10
5519.0
20
2776.2
0
VERTEX
8
0
10
5519.0
20
2776.243
0
VERTEX
8
0
10
5516.0
20
2776.7
0
VERTEX
8
0
10
5516.0
20
2776.2
0
SEQEND
0
POLYLINE
8
0
66
1
10
0.0
20
0.0
30
0.0
0
VERTEX
8
0
10
5516.0
20
2776.2
0
VERTEX
8
0
10
5519.0
20
2776.2
0
VERTEX
8
0
10
5519.0
20
2776.1569999999997
0
VERTEX
8
0
10
5516.0
20
2775.7
0
VERTEX
8
0
10
5516.0
20
2776.2
0
SEQEND
0
POLYLINE
8
0
66
1
10
0.0
20
0.0
30
0.0
0
VERTEX
8
0
10
5516.0
20
2776.2
0
VERTEX
8
0
10
5519.0
20
2776.2
0
VERTEX
8
0
10
5519.0
20
2776.4429999999998
0
VERTEX
8
0
10
5516.0
20
2776.8999999999996
0
VERTEX
8
0
10
5516.0
20
2776.2
0
SEQEND
0
POLYLINE
8
0
66
1
10
0.0
20
0.0
30
0.0
0
VERTEX
8
0
10
5516.0
20
2776.2
0
VERTEX
8
0
10
5519.0
20
2776.2
0
VERTEX
8
0
10
5519.0
20
2775.957
0
VERTEX
8
0
10
5516.0
20
2775.5
0
VERTEX
8
0
10
5516.0
20
2776.2
0
SEQEND
0
POLYLINE
8
0
66
1
10
0.0
20
0.0
30
0.0
0
VERTEX
8
0
10
5508.056666666667
20
2762.068
0
VERTEX
8
0
10
5508.056666666667
20
2761.932
0
VERTEX
8
0
10
5508.276666666667
20
2761.932
0
VERTEX
8
0
10
5508.276666666667
20
2762.068
0
VERTEX
8
0
10
5508.056666666667
20
2762.068
0
SEQEND
0
POLYLINE
8
0
66
1
10
0.0
20
0.0
30
0.0
0
VERTEX
8
0
10
5507.666666666667
20
2762.268
0
VERTEX
8
0
10
5507.666666666667
20
2762.068
0
VERTEX
8
0
10
5508.666666666667
20
2762.068
0
VERTEX
8
0
10
5508.666666666667
20
2762.268
0
VERTEX
8
0
10
5507.666666666667
20
2762.268
0
SEQEND
0
POLYLINE
8
0
66
1
10
0.0
20
0.0
30
0.0
0
VERTEX
8
0
10
5507.666666666667
20
2761.9320000000002
0
VERTEX
8
0
10
5507.666666666667
20
2761.7320000000004
0
VERTEX
8
0
10
5508.666666666667
20
2761.7320000000004
0
VERTEX
8
0
10
5508.666666666667
20
2761.9320000000002
0
VERTEX
8
0
10
5507.666666666667
20
2761.9320000000002
0
SEQEND
0
POLYLINE
8
0
66
1
10
0.0
20
0.0
30
0.0
0
VERTEX
8
0
10
5508.666666666667
20
2762.7
0
VERTEX
8
0
10
5508.666666666667
20
2762.5
0
VERTEX
8
0
10
5511.666666666667
20
2762.5
0
VERTEX
8
0
10
5511.666666666667
20
2762.7
0
VERTEX
8
0
10
5508.666666666667
20
2762.7
0
SEQEND
0
POLYLINE
8
0
66
1
10
0.0
20
0.0
30
0.0
0
VERTEX
8
0
10
5507.666666666667
20
2762.7
0
VERTEX
8
0
10
5507.666666666667
20
2762.5
0
VERTEX
8
0
10
5504.666666666667
20
2762.5
0
VERTEX
8
0
10
5504.666666666667
20
2762.7
0
VERTEX
8
0
10
5507.666666666667
20
2762.7
0
SEQEND
0
POLYLINE
8
0
66
1
10
0.0
20
0.0
30
0.0
0
VERTEX
8
0
10
5508.666666666667
20
2762.5
0
VERTEX
8
0
10
5508.666666666667
20
2762.068
0
VERTEX
8
0
10
5508.666666666667
20
2762.068
0
VERTEX
8
0
10
5511.666666666667
20
2762.5
0
VERTEX
8
0
10
5508.666666666667
20
2762.5
0
SEQEND
0
POLYLINE
8
0
66
1
10
0.0
20
0.0
30
0.0
0
VERTEX
8
0
10
5507.666666666667
20
2762.5
0
VERTEX
8
0
10
5507.666666666667
20
2762.068
0
VERTEX
8
0
10
5507.666666666667
20
2762.068
0
VERTEX
8
0
10
5504.666666666667
20
2762.5
0
VERTEX
8
0
10
5507.666666666667
20
2762.5
0
SEQEND
0
POLYLINE
8
0
66
1
10
0.0
20
0.0
30
0.0
0
VERTEX
8
0
10
5508.666666666667
20
2762.7
0
VERTEX
8
0
10
5508.666666666667
20
2762.268
0
VERTEX
8
0
10
5508.666666666667
20
2762.268
0
VERTEX
8
0
10
5511.666666666667
20
2762.7
0
VERTEX
8
0
10
5508.666666666667
20
2762.7
0
SEQEND
0
POLYLINE
8
0
66
1
10
0.0
20
0.0
30
0.0
0
VERTEX
8
0
10
5507.666666666667
20
2762.7
0
VERTEX
8
0
10
5507.666666666667
20
2762.268
0
VERTEX
8
0
10
5507.666666666667
20
2762.268
0
VERTEX
8
0
10
5504.666666666667
20
2762.7
0
VERTEX
8
0
10
5507.666666666667
20
2762.7
0
SEQEND
0
POLYLINE
8
0
66
1
10
0.0
20
0.0
30
0.0
0
VERTEX
8
0
10
5508.666666666667
20
2761.5000000000005
0
VERTEX
8
0
10
5508.666666666667
20
2761.3000000000006
0
VERTEX
8
0
10
5511.666666666667
20
2761.3000000000006
0
VERTEX
8
0
10
5511.666666666667
20
2761.5000000000005
0
VERTEX
8
0
10
5508.666666666667
20
2761.5000000000005
0
SEQEND
0
POLYLINE
8
0
66
1
10
0.0
20
0.0
30
0.0
0
VERTEX
8
0
10
5507.666666666667
20
2761.5000000000005
0
VERTEX
8
0
10
5507.666666666667
20
2761.3000000000006
0
VERTEX
8
0
10
5504.666666666667
20
2761.3000000000006
0
VERTEX
8
0
10
5504.666666666667
20
2761.5000000000005
0
VERTEX
8
0
10
5507.666666666667
20
2761.5000000000005
0
SEQEND
0
POLYLINE
8
0
66
1
10
0.0
20
0.0
30
0.0
0
VERTEX
8
0
10
5508.666666666667
20
2761.9320000000002
0
VERTEX
8
0
10
5508.666666666667
20
2761.5000000000005
0
VERTEX
8
0
10
5511.666666666667
20
2761.5000000000005
0
VERTEX
8
0
10
5508.666666666667
20
2761.9320000000002
0
VERTEX
8
0
10
5508.666666666667
20
2761.9320000000002
0
SEQEND
0
POLYLINE
8
0
66
1
10
0.0
20
0.0
30
0.0
0
VERTEX
8
0
10
5507.666666666667
20
2761.9320000000002
0
VERTEX
8
0
10
5507.666666666667
20
2761.5000000000005
0
VERTEX
8
0
10
5504.666666666667
20
2761.5000000000005
0
VERTEX
8
0
10
5507.666666666667
20
2761.9320000000002
0
VERTEX
8
0
10
5507.666666666667
20
2761.9320000000002
0
SEQEND
0
POLYLINE
8
0
66
1
10
0.0
20
0.0
30
0.0
0
VERTEX
8
0
10
5508.666666666667
20
2761.7320000000004
0
VERTEX
8
0
10
5508.666666666667
20
2761.3000000000006
0
VERTEX
8
0
10
5511.666666666667
20
2761.3000000000006
0
VERTEX
8
0
10
5508.666666666667
20
2761.7320000000004
0
VERTEX
8
0
10
5508.666666666667
20
2761.7320000000004
0
SEQEND
0
POLYLINE
8
0
66
1
10
0.0
20
0.0
30
0.0
0
VERTEX
8
0
10
5507.666666666667
20
2761.7320000000004
0
VERTEX
8
0
10
5507.666666666667
20
2761.3000000000006
0
VERTEX
8
0
10
5504.666666666667
20
2761.3000000000006
0
VERTEX
8
0
10
5507.666666666667
20
2761.7320000000004
0
VERTEX
8
0
10
5507.666666666667
20
2761.7320000000004
0
SEQEND
0
POLYLINE
8
0
66
1
10
0.0
20
0.0
30
0.0
0
VERTEX
8
0
10
5504.666666666667
20
2762.0
0
VERTEX
8
0
10
5507.666666666667
20
2762.0
0
VERTEX
8
0
10
5507.666666666667
20
2762.068
0
VERTEX
8
0
10
5504.666666666667
20
2762.5
0
VERTEX
8
0
10
5504.666666666667
20
2762.0
0
SEQEND
0
POLYLINE
8
0
66
1
10
0.0
20
0.0
30
0.0
0
VERTEX
8
0
10
5504.666666666667
20
2762.0
0
VERTEX
8
0
10
5507.666666666667
20
2762.0
0
VERTEX
8
0
10
5507.666666666667
20
2761.932
0
VERTEX
8
0
10
5504.666666666667
20
2761.5
0
VERTEX
8
0
10
5504.666666666667
20
2762.0
0
SEQEND
0
POLYLINE
8
0
66
1
10
0.0
20
0.0
30
0.0
0
VERTEX
8
0
10
5507.666666666667
20
2761.932
0
VERTEX
8
0
10
5508.056666666667
20
2761.932
0
VERTEX
8
0
10
5508.056666666667
20
2762.068
0
VERTEX
8
0
10
5507.666666666667
20
2762.068
0
VERTEX
8
0
10
5507.666666666667
20
2761.932
0
SEQEND
0
POLYLINE
8
0
66
1
10
0.0
20
0.0
30
0.0
0
VERTEX
8
0
10
5504.666666666667
20
2762.0
0
VERTEX
8
0
10
5507.666666666667
20
2762.0
0
VERTEX
8
0
10
5507.666666666667
20
2762.268
0
VERTEX
8
0
10
5504.666666666667
20
2762.7
0
VERTEX
8
0
10
5504.666666666667
20
2762.0
0
SEQEND
0
POLYLINE
8
0
66
1
10
0.0
20
0.0
30
0.0
0
VERTEX
8
0
10
5504.666666666667
20
2762.0
0
VERTEX
8
0
10
5507.666666666667
20
2762.0
0
VERTEX
8
0
10
5507.666666666667
20
2761.732
0
VERTEX
8
0
10
5504.666666666667
20
2761.3
0
VERTEX
8
0
10
5504.666666666667
20
2762.0
0
SEQEND
0
POLYLINE
8
0
66
1
10
0.0
20
0.0
30
0.0
0
VERTEX
8
0
10
5507.666666666667
20
2761.732
0
VERTEX
8
0
10
5508.056666666667
20
2761.732
0
VERTEX
8
0
10
5508.056666666667
20
2762.268
0
VERTEX
8
0
10
5507.666666666667
20
2762.268
0
VERTEX
8
0
10
5507.666666666667
20
2761.732
0
SEQEND
0
POLYLINE
8
0
66
1
10
0.0
20
0.0
30
0.0
0
VERTEX
8
0
10
5508.056666666667
20
2762.268
0
VERTEX
8
0
10
5508.276666666668
20
2762.268
0
VERTEX
8
0
10
5508.276666666668
20
2762.5
0
VERTEX
8
0
10
5508.056666666667
20
2762.5
0
VERTEX
8
0
10
5508.056666666667
20
2762.268
0
SEQEND
0
POLYLINE
8
0
66
1
10
0.0
20
0.0
30
0.0
0
VERTEX
8
0
10
5508.056666666667
20
2761.732
0
VERTEX
8
0
10
5508.276666666668
20
2761.732
0
VERTEX
8
0
10
5508.276666666668
20
2761.5
0
VERTEX
8
0
10
5508.056666666667
20
2761.5
0
VERTEX
8
0
10
5508.056666666667
20
2761.732
0
SEQEND
0
POLYLINE
8
0
66
1
10
0.0
20
0.0
30
0.0
0
VERTEX
8
0
10
5531.333333333334
20
2762.7
0
VERTEX
8
0
10
5531.333333333334
20
2762.5
0
VERTEX
8
0
10
5534.333333333334
20
2762.5
0
VERTEX
8
0
10
5534.333333333334
20
2762.7
0
VERTEX
8
0
10
5531.333333333334
20
2762.7
0
SEQEND
0
POLYLINE
8
0
66
1
10
0.0
20
0.0
30
0.0
0
VERTEX
8
0
10
5530.333333333334
20
2762.7
0
VERTEX
8
0
10
5530.333333333334
20
2762.5
0
VERTEX
8
0
10
5527.333333333334
20
2762.5
0
VERTEX
8
0
10
5527.333333333334
20
2762.7
0
VERTEX
8
0
10
5530.333333333334
20
2762.7
0
SEQEND
0
POLYLINE
8
0
66
1
10
0.0
20
0.0
30
0.0
0
VERTEX
8
0
10
5531.333333333334
20
2762.5
0
VERTEX
8
0
10
5531.333333333334
20
2762.068
0
VERTEX
8
0
10
5531.333333333334
20
2762.068
0
VERTEX
8
0
10
5534.333333333334
20
2762.5
0
VERTEX
8
0
10
5531.333333333334
20
2762.5
0
SEQEND
0
POLYLINE
8
0
66
1
10
0.0
20
0.0
30
0.0
0
VERTEX
8
0
10
5530.333333333334
20
2762.5
0
VERTEX
8
0
10
5530.333333333334
20
2762.068
0
VERTEX
8
0
10
5530.333333333334
20
2762.068
0
VERTEX
8
0
10
5527.333333333334
20
2762.5
0
VERTEX
8
0
10
5530.333333333334
20
2762.5
0
SEQEND
0
POLYLINE
8
0
66
1
10
0.0
20
0.0
30
0.0
0
VERTEX
8
0
10
5531.333333333334
20
2762.7
0
VERTEX
8
0
10
5531.333333333334
20
2762.268
0
VERTEX
8
0
10
5531.333333333334
20
2762.268
0
VERTEX
8
0
10
5534.333333333334
20
2762.7
0
VERTEX
8
0
10
5531.333333333334
20
2762.7
0
SEQEND
0
POLYLINE
8
0
66
1
10
0.0
20
0.0
30
0.0
0
VERTEX
8
0
10
5530.333333333334
20
2762.7
0
VERTEX
8
0
10
5530.333333333334
20
2762.268
0
VERTEX
8
0
10
5530.333333333334
20
2762.268
0
VERTEX
8
0
10
5527.333333333334
20
2762.7
0
VERTEX
8
0
10
5530.333333333334
20
2762.7
0
SEQEND
0
POLYLINE
8
0
66
1
10
0.0
20
0.0
30
0.0
0
VERTEX
8
0
10
5531.333333333334
20
2761.5000000000005
0
VERTEX
8
0
10
5531.333333333334
20
2761.3000000000006
0
VERTEX
8
0
10
5534.333333333334
20
2761.3000000000006
0
VERTEX
8
0
10
5534.333333333334
20
2761.5000000000005
0
VERTEX
8
0
10
5531.333333333334
20
2761.5000000000005
0
SEQEND
0
POLYLINE
8
0
66
1
10
0.0
20
0.0
30
0.0
0
VERTEX
8
0
10
5530.333333333334
20
2761.5000000000005
0
VERTEX
8
0
10
5530.333333333334
20
2761.3000000000006
0
VERTEX
8
0
10
5527.333333333334
20
2761.3000000000006
0
VERTEX
8
0
10
5527.333333333334
20
2761.5000000000005
0
VERTEX
8
0
10
5530.333333333334
20
2761.5000000000005
0
SEQEND
0
POLYLINE
8
0
66
1
10
0.0
20
0.0
30
0.0
0
VERTEX
8
0
10
5531.333333333334
20
2761.9320000000002
0
VERTEX
8
0
10
5531.333333333334
20
2761.5000000000005
0
VERTEX
8
0
10
5534.333333333334
20
2761.5000000000005
0
VERTEX
8
0
10
5531.333333333334
20
2761.9320000000002
0
VERTEX
8
0
10
5531.333333333334
20
2761.9320000000002
0
SEQEND
0
POLYLINE
8
0
66
1
10
0.0
20
0.0
30
0.0
0
VERTEX
8
0
10
5530.333333333334
20
2761.9320000000002
0
VERTEX
8
0
10
5530.333333333334
20
2761.5000000000005
0
VERTEX
8
0
10
5527.333333333334
20
2761.5000000000005
0
VERTEX
8
0
10
5530.333333333334
20
2761.9320000000002
0
VERTEX
8
0
10
5530.333333333334
20
2761.9320000000002
0
SEQEND
0
POLYLINE
8
0
66
1
10
0.0
20
0.0
30
0.0
0
VERTEX
8
0
10
5531.333333333334
20
2761.7320000000004
0
VERTEX
8
0
10
5531.333333333334
20
2761.3000000000006
0
VERTEX
8
0
10
5534.333333333334
20
2761.3000000000006
0
VERTEX
8
0
10
5531.333333333334
20
2761.7320000000004
0
VERTEX
8
0
10
5531.333333333334
20
2761.7320000000004
0
SEQEND
0
POLYLINE
8
0
66
1
10
0.0
20
0.0
30
0.0
0
VERTEX
8
0
10
5530.333333333334
20
2761.7320000000004
0
VERTEX
8
0
10
5530.333333333334
20
2761.3000000000006
0
VERTEX
8
0
10
5527.333333333334
20
2761.3000000000006
0
VERTEX
8
0
10
5530.333333333334
20
2761.7320000000004
0
VERTEX
8
0
10
5530.333333333334
20
2761.7320000000004
0
SEQEND
0
POLYLINE
8
0
66
1
10
0.0
20
0.0
30
0.0
0
VERTEX
8
0
10
5527.333333333334
20
2762.0
0
VERTEX
8
0
10
5530.333333333334
20
2762.0
0
VERTEX
8
0
10
5530.333333333334
20
2762.068
0
VERTEX
8
0
10
5527.333333333334
20
2762.5
0
VERTEX
8
0
10
5527.333333333334
20
2762.0
0
SEQEND
0
POLYLINE
8
0
66
1
10
0.0
20
0.0
30
0.0
0
VERTEX
8
0
10
5527.333333333334
20
2762.0
0
VERTEX
8
0
10
5530.333333333334
20
2762.0
0
VERTEX
8
0
10
5530.333333333334
20
2761.932
0
VERTEX
8
0
10
5527.333333333334
20
2761.5
0
VERTEX
8
0
10
5527.333333333334
20
2762.0
0
SEQEND
0
POLYLINE
8
0
66
1
10
0.0
20
0.0
30
0.0
0
VERTEX
8
0
10
5527.333333333334
20
2762.0
0
VERTEX
8
0
10
5530.333333333334
20
2762.0
0
VERTEX
8
0
10
5530.333333333334
20
2762.268
0
VERTEX
8
0
10
5527.333333333334
20
2762.7
0
VERTEX
8
0
10
5527.333333333334
20
2762.0
0
SEQEND
0
POLYLINE
8
0
66
1
10
0.0
20
0.0
30
0.0
0
VERTEX
8
0
10
5527.333333333334
20
2762.0
0
VERTEX
8
0
10
5530.333333333334
20
2762.0
0
VERTEX
8
0
10
5530.333333333334
20
2761.732
0
VERTEX
8
0
10
5527.333333333334
20
2761.3
0
VERTEX
8
0
10
5527.333333333334
20
2762.0
0
SEQEND
0
POLYLINE
8
0
66
1
10
0.0
20
0.0
30
0.0
0
VERTEX
8
0
10
3301.0
20
3396.5
0
VERTEX
8
0
10
3301.0
20
3376.7
0
VERTEX
8
0
10
3301.2
20
3376.7
0
VERTEX
8
0
10
3301.2
20
3396.5
0
VERTEX
8
0
10
3301.0
20
3396.5
0
SEQEND
0
POLYLINE
8
0
66
1
10
0.0
20
0.0
30
0.0
0
VERTEX
8
0
10
3301.0
20
3375.7
0
VERTEX
8
0
10
3301.0
20
3362.5
0
VERTEX
8
0
10
3301.2
20
3362.5
0
VERTEX
8
0
10
3301.2
20
3375.7
0
VERTEX
8
0
10
3301.0
20
3375.7
0
SEQEND
0
POLYLINE
8
0
66
1
10
0.0
20
0.0
30
0.0
0
VERTEX
8
0
10
3337.8
20
3396.5
0
VERTEX
8
0
10
3337.8
20
3376.7
0
VERTEX
8
0
10
3338.0
20
3376.7
0
VERTEX
8
0
10
3338.0
20
3396.5
0
VERTEX
8
0
10
3337.8
20
3396.5
0
SEQEND
0
POLYLINE
8
0
66
1
10
0.0
20
0.0
30
0.0
0
VERTEX
8
0
10
3337.8
20
3375.7
0
VERTEX
8
0
10
3337.8
20
3362.5
0
VERTEX
8
0
10
3338.0
20
3362.5
0
VERTEX
8
0
10
3338.0
20
3375.7
0
VERTEX
8
0
10
3337.8
20
3375.7
0
SEQEND
0
POLYLINE
8
0
66
1
10
0.0
20
0.0
30
0.0
0
VERTEX
8
0
10
3299.8
20
3397.5
0
VERTEX
8
0
10
3299.8
20
3385.5
0
VERTEX
8
0
10
3300.0
20
3385.5
0
VERTEX
8
0
10
3300.0
20
3397.5
0
VERTEX
8
0
10
3299.8
20
3397.5
0
SEQEND
0
POLYLINE
8
0
66
1
10
0.0
20
0.0
30
0.0
0
VERTEX
8
0
10
3299.8
20
3383.5
0
VERTEX
8
0
10
3299.8
20
3361.5
0
VERTEX
8
0
10
3300.0
20
3361.5
0
VERTEX
8
0
10
3300.0
20
3383.5
0
VERTEX
8
0
10
3299.8
20
3383.5
0
SEQEND
0
POLYLINE
8
0
66
1
10
0.0
20
0.0
30
0.0
0
VERTEX
8
0
10
3339.0
20
3397.5
0
VERTEX
8
0
10
3339.0
20
3385.5
0
VERTEX
8
0
10
3339.2
20
3385.5
0
VERTEX
8
0
10
3339.2
20
3397.5
0
VERTEX
8
0
10
3339.0
20
3397.5
0
SEQEND
0
POLYLINE
8
0
66
1
10
0.0
20
0.0
30
0.0
0
VERTEX
8
0
10
3339.0
20
3383.5
0
VERTEX
8
0
10
3339.0
20
3361.5
0
VERTEX
8
0
10
3339.2
20
3361.5
0
VERTEX
8
0
10
3339.2
20
3383.5
0
VERTEX
8
0
10
3339.0
20
3383.5
0
SEQEND
0
POLYLINE
8
0
66
1
10
0.0
20
0.0
30
0.0
0
VERTEX
8
0
10
3319.38
20
3397.0455
0
VERTEX
8
0
10
3319.38
20
3396.9545000000003
0
VERTEX
8
0
10
3319.62
20
3396.9545000000003
0
VERTEX
8
0
10
3319.62
20
3397.0455
0
VERTEX
8
0
10
3319.38
20
3397.0455
0
SEQEND
0
POLYLINE
8
0
66
1
10
0.0
20
0.0
30
0.0
0
VERTEX
8
0
10
3319.0
20
3397.2455
0
VERTEX
8
0
10
3319.0
20
3397.0455
0
VERTEX
8
0
10
3320.0
20
3397.0455
0
VERTEX
8
0
10
3320.0
20
3397.2455
0
VERTEX
8
0
10
3319.0
20
3397.2455
0
SEQEND
0
POLYLINE
8
0
66
1
10
0.0
20
0.0
30
0.0
0
VERTEX
8
0
10
3319.0
20
3396.9545000000003
0
VERTEX
8
0
10
3319.0
20
3396.7545000000005
0
VERTEX
8
0
10
3320.0
20
3396.7545000000005
0
VERTEX
8
0
10
3320.0
20
3396.9545000000003
0
VERTEX
8
0
10
3319.0
20
3396.9545000000003
0
SEQEND
0
POLYLINE
8
0
66
1
10
0.0
20
0.0
30
0.0
0
VERTEX
8
0
10
3320.0
20
3397.7
0
VERTEX
8
0
10
3320.0
20
3397.5
0
VERTEX
8
0
10
3323.0
20
3397.5
0
VERTEX
8
0
10
3323.0
20
3397.7
0
VERTEX
8
0
10
3320.0
20
3397.7
0
SEQEND
0
POLYLINE
8
0
66
1
10
0.0
20
0.0
30
0.0
0
VERTEX
8
0
10
3319.0
20
3397.7
0
VERTEX
8
0
10
3319.0
20
3397.5
0
VERTEX
8
0
10
3316.0
20
3397.5
0
VERTEX
8
0
10
3316.0
20
3397.7
0
VERTEX
8
0
10
3319.0
20
3397.7
0
SEQEND
0
POLYLINE
8
0
66
1
10
0.0
20
0.0
30
0.0
0
VERTEX
8
0
10
3320.0
20
3397.5
0
VERTEX
8
0
10
3320.0
20
3397.0455
0
VERTEX
8
0
10
3320.0
20
3397.0455
0
VERTEX
8
0
10
3323.0
20
3397.5
0
VERTEX
8
0
10
3320.0
20
3397.5
0
SEQEND
0
POLYLINE
8
0
66
1
10
0.0
20
0.0
30
0.0
0
VERTEX
8
0
10
3319.0
20
3397.5
0
VERTEX
8
0
10
3319.0
20
3397.0455
0
VERTEX
8
0
10
3319.0
20
3397.0455
0
VERTEX
8
0
10
3316.0
20
3397.5
0
VERTEX
8
0
10
3319.0
20
3397.5
0
SEQEND
0
POLYLINE
8
0
66
1
10
0.0
20
0.0
30
0.0
0
VERTEX
8
0
10
3320.0
20
3397.7
0
VERTEX
8
0
10
3320.0
20
3397.2455
0
VERTEX
8
0
10
3320.0
20
3397.2455
0
VERTEX
8
0
10
3323.0
20
3397.7
0
VERTEX
8
0
10
3320.0
20
3397.7
0
SEQEND
0
POLYLINE
8
0
66
1
10
0.0
20
0.0
30
0.0
0
VERTEX
8
0
10
3319.0
20
3397.7
0
VERTEX
8
0
10
3319.0
20
3397.2455
0
VERTEX
8
0
10
3319.0
20
3397.2455
0
VERTEX
8
0
10
3316.0
20
3397.7
0
VERTEX
8
0
10
3319.0
20
3397.7
0
SEQEND
0
POLYLINE
8
0
66
1
10
0.0
20
0.0
30
0.0
0
VERTEX
8
0
10
3320.0
20
3396.5000000000005
0
VERTEX
8
0
10
3320.0
20
3396.3000000000006
0
VERTEX
8
0
10
3323.0
20
3396.3000000000006
0
VERTEX
8
0
10
3323.0
20
3396.5000000000005
0
VERTEX
8
0
10
3320.0
20
3396.5000000000005
0
SEQEND
0
POLYLINE
8
0
66
1
10
0.0
20
0.0
30
0.0
0
VERTEX
8
0
10
3319.0
20
3396.5000000000005
0
VERTEX
8
0
10
3319.0
20
3396.3000000000006
0
VERTEX
8
0
10
3316.0
20
3396.3000000000006
0
VERTEX
8
0
10
3316.0
20
3396.5000000000005
0
VERTEX
8
0
10
3319.0
20
3396.5000000000005
0
SEQEND
0
POLYLINE
8
0
66
1
10
0.0
20
0.0
30
0.0
0
VERTEX
8
0
10
3320.0
20
3396.9545000000003
0
VERTEX
8
0
10
3320.0
20
3396.5000000000005
0
VERTEX
8
0
10
3323.0
20
3396.5000000000005
0
VERTEX
8
0
10
3320.0
20
3396.9545000000003
0
VERTEX
8
0
10
3320.0
20
3396.9545000000003
0
SEQEND
0
POLYLINE
8
0
66
1
10
0.0
20
0.0
30
0.0
0
VERTEX
8
0
10
3319.0
20
3396.9545000000003
0
VERTEX
8
0
10
3319.0
20
3396.5000000000005
0
VERTEX
8
0
10
3316.0
20
3396.5000000000005
0
VERTEX
8
0
10
3319.0
20
3396.9545000000003
0
VERTEX
8
0
10
3319.0
20
3396.9545000000003
0
SEQEND
0
POLYLINE
8
0
66
1
10
0.0
20
0.0
30
0.0
0
VERTEX
8
0
10
3320.0
20
3396.7545000000005
0
VERTEX
8
0
10
3320.0
20
3396.3000000000006
0
VERTEX
8
0
10
3323.0
20
3396.3000000000006
0
VERTEX
8
0
10
3320.0
20
3396.7545000000005
0
VERTEX
8
0
10
3320.0
20
3396.7545000000005
0
SEQEND
0
POLYLINE
8
0
66
1
10
0.0
20
0.0
30
0.0
0
VERTEX
8
0
10
3319.0
20
3396.7545000000005
0
VERTEX
8
0
10
3319.0
20
3396.3000000000006
0
VERTEX
8
0
10
3316.0
20
3396.3000000000006
0
VERTEX
8
0
10
3319.0
20
3396.7545000000005
0
VERTEX
8
0
10
3319.0
20
3396.7545000000005
0
SEQEND
0
POLYLINE
8
0
66
1
10
0.0
20
0.0
30
0.0
0
VERTEX
8
0
10
3316.0
20
3397.0
0
VERTEX
8
0
10
3319.0
20
3397.0
0
VERTEX
8
0
10
3319.0
20
3397.0455
0
VERTEX
8
0
10
3316.0
20
3397.5
0
VERTEX
8
0
10
3316.0
20
3397.0
0
SEQEND
0
POLYLINE
8
0
66
1
10
0.0
20
0.0
30
0.0
0
VERTEX
8
0
10
3316.0
20
3397.0
0
VERTEX
8
0
10
3319.0
20
3397.0
0
VERTEX
8
0
10
3319.0
20
3396.9545
0
VERTEX
8
0
10
3316.0
20
3396.5
0
VERTEX
8
0
10
3316.0
20
3397.0
0
SEQEND
0
POLYLINE
8
0
66
1
10
0.0
20
0.0
30
0.0
0
VERTEX
8
0
10
3319.0
20
3396.9545
0
VERTEX
8
0
10
3319.38
20
3396.9545
0
VERTEX
8
0
10
3319.38
20
3397.0455
0
VERTEX
8
0
10
3319.0
20
3397.0455
0
VERTEX
8
0
10
3319.0
20
3396.9545
0
SEQEND
0
POLYLINE
8
0
66
1
10
0.0
20
0.0
30
0.0
0
VERTEX
8
0
10
3316.0
20
3397.0
0
VERTEX
8
0
10
3319.0
20
3397.0
0
VERTEX
8
0
10
3319.0
20
3397.2455
0
VERTEX
8
0
10
3316.0
20
3397.7
0
VERTEX
8
0
10
3316.0
20
3397.0
0
SEQEND
0
POLYLINE
8
0
66
1
10
0.0
20
0.0
30
0.0
0
VERTEX
8
0
10
3316.0
20
3397.0
0
VERTEX
8
0
10
3319.0
20
3397.0
0
VERTEX
8
0
10
3319.0
20
3396.7545
0
VERTEX
8
0
10
3316.0
20
3396.3
0
VERTEX
8
0
10
3316.0
20
3397.0
0
SEQEND
0
POLYLINE
8
0
66
1
10
0.0
20
0.0
30
0.0
0
VERTEX
8
0
10
3319.0
20
3396.7545
0
VERTEX
8
0
10
3319.38
20
3396.7545
0
VERTEX
8
0
10
3319.38
20
3397.2455
0
VERTEX
8
0
10
3319.0
20
3397.2455
0
VERTEX
8
0
10
3319.0
20
3396.7545
0
SEQEND
0
POLYLINE
8
0
66
1
10
0.0
20
0.0
30
0.0
0
VERTEX
8
0
10
3319.38
20
3397.2455
0
VERTEX
8
0
10
3319.62
20
3397.2455
0
VERTEX
8
0
10
3319.62
20
3397.5
0
VERTEX
8
0
10
3319.38
20
3397.5
0
VERTEX
8
0
10
3319.38
20
3397.2455
0
SEQEND
0
POLYLINE
8
0
66
1
10
0.0
20
0.0
30
0.0
0
VERTEX
8
0
10
3319.38
20
3396.7545
0
VERTEX
8
0
10
3319.62
20
3396.7545
0
VERTEX
8
0
10
3319.62
20
3396.5
0
VERTEX
8
0
10
3319.38
20
3396.5
0
VERTEX
8
0
10
3319.38
20
3396.7545
0
SEQEND
0
POLYLINE
8
0
66
1
10
0.0
20
0.0
30
0.0
0
VERTEX
8
0
10
3319.38
20
3376.243
0
VERTEX
8
0
10
3319.38
20
3376.157
0
VERTEX
8
0
10
3319.62
20
3376.157
0
VERTEX
8
0
10
3319.62
20
3376.243
0
VERTEX
8
0
10
3319.38
20
3376.243
0
SEQEND
0
POLYLINE
8
0
66
1
10
0.0
20
0.0
30
0.0
0
VERTEX
8
0
10
3319.0
20
3376.4429999999998
0
VERTEX
8
0
10
3319.0
20
3376.243
0
VERTEX
8
0
10
3320.0
20
3376.243
0
VERTEX
8
0
10
3320.0
20
3376.4429999999998
0
VERTEX
8
0
10
3319.0
20
3376.4429999999998
0
SEQEND
0
POLYLINE
8
0
66
1
10
0.0
20
0.0
30
0.0
0
VERTEX
8
0
10
3319.0
20
3376.157
0
VERTEX
8
0
10
3319.0
20
3375.9570000000003
0
VERTEX
8
0
10
3320.0
20
3375.9570000000003
0
VERTEX
8
0
10
3320.0
20
3376.157
0
VERTEX
8
0
10
3319.0
20
3376.157
0
SEQEND
0
POLYLINE
8
0
66
1
10
0.0
20
0.0
30
0.0
0
VERTEX
8
0
10
3320.0
20
3376.8999999999996
0
VERTEX
8
0
10
3320.0
20
3376.7
0
VERTEX
8
0
10
3323.0
20
3376.7
0
VERTEX
8
0
10
3323.0
20
3376.8999999999996
0
VERTEX
8
0
10
3320.0
20
3376.8999999999996
0
SEQEND
0
POLYLINE
8
0
66
1
10
0.0
20
0.0
30
0.0
0
VERTEX
8
0
10
3319.0
20
3376.8999999999996
0
VERTEX
8
0
10
3319.0
20
3376.7
0
VERTEX
8
0
10
3316.0
20
3376.7
0
VERTEX
8
0
10
3316.0
20
3376.8999999999996
0
VERTEX
8
0
10
3319.0
20
3376.8999999999996
0
SEQEND
0
POLYLINE
8
0
66
1
10
0.0
20
0.0
30
0.0
0
VERTEX
8
0
10
3320.0
20
3376.7
0
VERTEX
8
0
10
3320.0
20
3376.243
0
VERTEX
8
0
10
3320.0
20
3376.243
0
VERTEX
8
0
10
3323.0
20
3376.7
0
VERTEX
8
0
10
3320.0
20
3376.7
0
SEQEND
0
POLYLINE
8
0
66
1
10
0.0
20
0.0
30
0.0
0
VERTEX
8
0
10
3319.0
20
3376.7
0
VERTEX
8
0
10
3319.0
20
3376.243
0
VERTEX
8
0
10
3319.0
20
3376.243
0
VERTEX
8
0
10
3316.0
20
3376.7
0
VERTEX
8
0
10
3319.0
20
3376.7
0
SEQEND
0
POLYLINE
8
0
66
1
10
0.0
20
0.0
30
0.0
0
VERTEX
8
0
10
3320.0
20
3376.8999999999996
0
VERTEX
8
0
10
3320.0
20
3376.4429999999998
0
VERTEX
8
0
10
3320.0
20
3376.4429999999998
0
VERTEX
8
0
10
3323.0
20
3376.8999999999996
0
VERTEX
8
0
10
3320.0
20
3376.8999999999996
0
SEQEND
0
POLYLINE
8
0
66
1
10
0.0
20
0.0
30
0.0
0
VERTEX
8
0
10
3319.0
20
3376.8999999999996
0
VERTEX
8
0
10
3319.0
20
3376.4429999999998
0
VERTEX
8
0
10
3319.0
20
3376.4429999999998
0
VERTEX
8
0
10
3316.0
20
3376.8999999999996
0
VERTEX
8
0
10
3319.0
20
3376.8999999999996
0
SEQEND
0
POLYLINE
8
0
66
1
10
0.0
20
0.0
30
0.0
0
VERTEX
8
0
10
3320.0
20
3375.7000000000003
0
VERTEX
8
0
10
3320.0
20
3375.5000000000005
0
VERTEX
8
0
10
3323.0
20
3375.5000000000005
0
VERTEX
8
0
10
3323.0
20
3375.7000000000003
0
VERTEX
8
0
10
3320.0
20
3375.7000000000003
0
SEQEND
0
POLYLINE
8
0
66
1
10
0.0
20
0.0
30
0.0
0
VERTEX
8
0
10
3319.0
20
3375.7000000000003
0
VERTEX
8
0
10
3319.0
20
3375.5000000000005
0
VERTEX
8
0
10
3316.0
20
3375.5000000000005
0
VERTEX
8
0
10
3316.0
20
3375.7000000000003
0
VERTEX
8
0
10
3319.0
20
3375.7000000000003
0
SEQEND
0
POLYLINE
8
0
66
1
10
0.0
20
0.0
30
0.0
0
VERTEX
8
0
10
3320.0
20
3376.157
0
VERTEX
8
0
10
3320.0
20
3375.7000000000003
0
VERTEX
8
0
10
3323.0
20
3375.7000000000003
0
VERTEX
8
0
10
3320.0
20
3376.157
0
VERTEX
8
0
10
3320.0
20
3376.157
0
SEQEND
0
POLYLINE
8
0
66
1
10
0.0
20
0.0
30
0.0
0
VERTEX
8
0
10
3319.0
20
3376.157
0
VERTEX
8
0
10
3319.0
20
3375.7000000000003
0
VERTEX
8
0
10
3316.0
20
3375.7000000000003
0
VERTEX
8
0
10
3319.0
20
3376.157
0
VERTEX
8
0
10
3319.0
20
3376.157
0
SEQEND
0
POLYLINE
8
0
66
1
10
0.0
20
0.0
30
0.0
0
VERTEX
8
0
10
3320.0
20
3375.9570000000003
0
VERTEX
8
0
10
3320.0
20
3375.5000000000005
0
VERTEX
8
0
10
3323.0
20
3375.5000000000005
0
VERTEX
8
0
10
3320.0
20
3375.9570000000003
0
VERTEX
8
0
10
3320.0
20
3375.9570000000003
0
SEQEND
0
POLYLINE
8
0
66
1
10
0.0
20
0.0
30
0.0
0
VERTEX
8
0
10
3319.0
20
3375.9570000000003
0
VERTEX
8
0
10
3319.0
20
3375.5000000000005
0
VERTEX
8
0
10
3316.0
20
3375.5000000000005
0
VERTEX
8
0
10
3319.0
20
3375.9570000000003
0
VERTEX
8
0
10
3319.0
20
3375.9570000000003
0
SEQEND
0
POLYLINE
8
0
66
1
10
0.0
20
0.0
30
0.0
0
VERTEX
8
0
10
3316.0
20
3376.2
0
VERTEX
8
0
10
3319.0
20
3376.2
0
VERTEX
8
0
10
3319.0
20
3376.243
0
VERTEX
8
0
10
3316.0
20
3376.7
0
VERTEX
8
0
10
3316.0
20
3376.2
0
SEQEND
0
POLYLINE
8
0
66
1
10
0.0
20
0.0
30
0.0
0
VERTEX
8
0
10
3316.0
20
3376.2
0
VERTEX
8
0
10
3319.0
20
3376.2
0
VERTEX
8
0
10
3319.0
20
3376.1569999999997
0
VERTEX
8
0
10
3316.0
20
3375.7
0
VERTEX
8
0
10
3316.0
20
3376.2
0
SEQEND
0
POLYLINE
8
0
66
1
10
0.0
20
0.0
30
0.0
0
VERTEX
8
0
10
3319.0
20
3376.1569999999997
0
VERTEX
8
0
10
3319.38
20
3376.1569999999997
0
VERTEX
8
0
10
3319.38
20
3376.243
0
VERTEX
8
0
10
3319.0
20
3376.243
0
VERTEX
8
0
10
3319.0
20
3376.1569999999997
0
SEQEND
0
POLYLINE
8
0
66
1
10
0.0
20
0.0
30
0.0
0
VERTEX
8
0
10
3316.0
20
3376.2
0
VERTEX
8
0
10
3319.0
20
3376.2
0
VERTEX
8
0
10
3319.0
20
3376.4429999999998
0
VERTEX
8
0
10
3316.0
20
3376.8999999999996
0
VERTEX
8
0
10
3316.0
20
3376.2
0
SEQEND
0
POLYLINE
8
0
66
1
10
0.0
20
0.0
30
0.0
0
VERTEX
8
0
10
3316.0
20
3376.2
0
VERTEX
8
0
10
3319.0
20
3376.2
0
VERTEX
8
0
10
3319.0
20
3375.957
0
VERTEX
8
0
10
3316.0
20
3375.5
0
VERTEX
8
0
10
3316.0
20
3376.2
0
SEQEND
0
POLYLINE
8
0
66
1
10
0.0
20
0.0
30
0.0
0
VERTEX
8
0
10
3319.0
20
3375.957
0
VERTEX
8
0
10
3319.38
20
3375.957
0
VERTEX
8
0
10
3319.38
20
3376.4429999999998
0
VERTEX
8
0
10
3319.0
20
3376.4429999999998
0
VERTEX
8
0
10
3319.0
20
3375.957
0
SEQEND
0
POLYLINE
8
0
66
1
10
0.0
20
0.0
30
0.0
0
VERTEX
8
0
10
3319.38
20
3376.4429999999998
0
VERTEX
8
0
10
3319.62
20
3376.4429999999998
0
VERTEX
8
0
10
3319.62
20
3376.7
0
VERTEX
8
0
10
3319.38
20
3376.7
0
VERTEX
8
0
10
3319.38
20
3376.4429999999998
0
SEQEND
0
POLYLINE
8
0
66
1
10
0.0
20
0.0
30
0.0
0
VERTEX
8
0
10
3319.38
20
3375.957
0
VERTEX
8
0
10
3319.62
20
3375.957
0
VERTEX
8
0
10
3319.62
20
3375.7
0
VERTEX
8
0
10
3319.38
20
3375.7
0
VERTEX
8
0
10
3319.38
20
3375.957
0
SEQEND
0
POLYLINE
8
0
66
1
10
0.0
20
0.0
30
0.0
0
VERTEX
8
0
10
3308.0566666666664
20
3362.068
0
VERTEX
8
0
10
3308.0566666666664
20
3361.9320000000002
0
VERTEX
8
0
10
3308.2766666666666
20
3361.9320000000002
0
VERTEX
8
0
10
3308.2766666666666
20
3362.068
0
VERTEX
8
0
10
3308.0566666666664
20
3362.068
0
SEQEND
0
POLYLINE
8
0
66
1
10
0.0
20
0.0
30
0.0
0
VERTEX
8
0
10
3307.6666666666665
20
3362.268
0
VERTEX
8
0
10
3307.6666666666665
20
3362.068
0
VERTEX
8
0
10
3308.6666666666665
20
3362.068
0
VERTEX
8
0
10
3308.6666666666665
20
3362.268
0
VERTEX
8
0
10
3307.6666666666665
20
3362.268
0
SEQEND
0
POLYLINE
8
0
66
1
10
0.0
20
0.0
30
0.0
0
VERTEX
8
0
10
3307.6666666666665
20
3361.9320000000002
0
VERTEX
8
0
10
3307.6666666666665
20
3361.7320000000004
0
VERTEX
8
0
10
3308.6666666666665
20
3361.7320000000004
0
VERTEX
8
0
10
3308.6666666666665
20
3361.9320000000002
0
VERTEX
8
0
10
3307.6666666666665
20
3361.9320000000002
0
SEQEND
0
POLYLINE
8
0
66
1
10
0.0
20
0.0
30
0.0
0
VERTEX
8
0
10
3308.6666666666665
20
3362.7
0
VERTEX
8
0
10
3308.6666666666665
20
3362.5
0
VERTEX
8
0
10
3311.6666666666665
20
3362.5
0
VERTEX
8
0
10
3311.6666666666665
20
3362.7
0
VERTEX
8
0
10
3308.6666666666665
20
3362.7
0
SEQEND
0
POLYLINE
8
0
66
1
10
0.0
20
0.0
30
0.0
0
VERTEX
8
0
10
3307.6666666666665
20
3362.7
0
VERTEX
8
0
10
3307.6666666666665
20
3362.5
0
VERTEX
8
0
10
3304.6666666666665
20
3362.5
0
VERTEX
8
0
10
3304.6666666666665
20
3362.7
0
VERTEX
8
0
10
3307.6666666666665
20
3362.7
0
SEQEND
0
POLYLINE
8
0
66
1
10
0.0
20
0.0
30
0.0
0
VERTEX
8
0
10
3308.6666666666665
20
3362.5
0
VERTEX
8
0
10
3308.6666666666665
20
3362.068
0
VERTEX
8
0
10
3308.6666666666665
20
3362.068
0
VERTEX
8
0
10
3311.6666666666665
20
3362.5
0
VERTEX
8
0
10
3308.6666666666665
20
3362.5
0
SEQEND
0
POLYLINE
8
0
66
1
10
0.0
20
0.0
30
0.0
0
VERTEX
8
0
10
3307.6666666666665
20
3362.5
0
VERTEX
8
0
10
3307.6666666666665
20
3362.068
0
VERTEX
8
0
10
3307.6666666666665
20
3362.068
0
VERTEX
8
0
10
3304.6666666666665
20
3362.5
0
VERTEX
8
0
10
3307.6666666666665
20
3362.5
0
SEQEND
0
POLYLINE
8
0
66
1
10
0.0
20
0.0
30
0.0
0
VERTEX
8
0
10
3308.6666666666665
20
3362.7
0
VERTEX
8
0
10
3308.6666666666665
20
3362.268
0
VERTEX
8
0
10
3308.6666666666665
20
3362.268
0
VERTEX
8
0
10
3311.6666666666665
20
3362.7
0
VERTEX
8
0
10
3308.6666666666665
20
3362.7
0
SEQEND
0
POLYLINE
8
0
66
1
10
0.0
20
0.0
30
0.0
0
VERTEX
8
0
10
3307.6666666666665
20
3362.7
0
VERTEX
8
0
10
3307.6666666666665
20
3362.268
0
VERTEX
8
0
10
3307.6666666666665
20
3362.268
0
VERTEX
8
0
10
3304.6666666666665
20
3362.7
0
VERTEX
8
0
10
3307.6666666666665
20
3362.7
0
SEQEND
0
POLYLINE
8
0
66
1
10
0.0
20
0.0
30
0.0
0
VERTEX
8
0
10
3308.6666666666665
20
3361.5000000000005
0
VERTEX
8
0
10
3308.6666666666665
20
3361.3000000000006
0
VERTEX
8
0
10
3311.6666666666665
20
3361.3000000000006
0
VERTEX
8
0
10
3311.6666666666665
20
3361.5000000000005
0
VERTEX
8
0
10
3308.6666666666665
20
3361.5000000000005
0
SEQEND
0
POLYLINE
8
0
66
1
10
0.0
20
0.0
30
0.0
0
VERTEX
8
0
10
3307.6666666666665
20
3361.5000000000005
0
VERTEX
8
0
10
3307.6666666666665
20
3361.3000000000006
0
VERTEX
8
0
10
3304.6666666666665
20
3361.3000000000006
0
VERTEX
8
0
10
3304.6666666666665
20
3361.5000000000005
0
VERTEX
8
0
10
3307.6666666666665
20
3361.5000000000005
0
SEQEND
0
POLYLINE
8
0
66
1
10
0.0
20
0.0
30
0.0
0
VERTEX
8
0
10
3308.6666666666665
20
3361.9320000000002
0
VERTEX
8
0
10
3308.6666666666665
20
3361.5000000000005
0
VERTEX
8
0
10
3311.6666666666665
20
3361.5000000000005
0
VERTEX
8
0
10
3308.6666666666665
20
3361.9320000000002
0
VERTEX
8
0
10
3308.6666666666665
20
3361.9320000000002
0
SEQEND
0
POLYLINE
8
0
66
1
10
0.0
20
0.0
30
0.0
0
VERTEX
8
0
10
3307.6666666666665
20
3361.9320000000002
0
VERTEX
8
0
10
3307.6666666666665
20
3361.5000000000005
0
VERTEX
8
0
10
3304.6666666666665
20
3361.5000000000005
0
VERTEX
8
0
10
3307.6666666666665
20
3361.9320000000002
0
VERTEX
8
0
10
3307.6666666666665
20
3361.9320000000002
0
SEQEND
0
POLYLINE
8
0
66
1
10
0.0
20
0.0
30
0.0
0
VERTEX
8
0
10
3308.6666666666665
20
3361.7320000000004
0
VERTEX
8
0
10
3308.6666666666665
20
3361.3000000000006
0
VERTEX
8
0
10
3311.6666666666665
20
3361.3000000000006
0
VERTEX
8
0
10
3308.6666666666665
20
3361.7320000000004
0
VERTEX
8
0
10
3308.6666666666665
20
3361.7320000000004
0
SEQEND
0
POLYLINE
8
0
66
1
10
0.0
20
0.0
30
0.0
0
VERTEX
8
0
10
3307.6666666666665
20
3361.7320000000004
0
VERTEX
8
0
10
3307.6666666666665
20
3361.3000000000006
0
VERTEX
8
0
10
3304.6666666666665
20
3361.3000000000006
0
VERTEX
8
0
10
3307.6666666666665
20
3361.7320000000004
0
VERTEX
8
0
10
3307.6666666666665
20
3361.7320000000004
0
SEQEND
0
POLYLINE
8
0
66
1
10
0.0
20
0.0
30
0.0
0
VERTEX
8
0
10
3304.6666666666665
20
3362.0
0
VERTEX
8
0
10
3307.6666666666665
20
3362.0
0
VERTEX
8
0
10
3307.6666666666665
20
3362.068
0
VERTEX
8
0
10
3304.6666666666665
20
3362.5
0
VERTEX
8
0
10
3304.6666666666665
20
3362.0
0
SEQEND
0
POLYLINE
8
0
66
1
10
0.0
20
0.0
30
0.0
0
VERTEX
8
0
10
3304.6666666666665
20
3362.0
0
VERTEX
8
0
10
3307.6666666666665
20
3362.0
0
VERTEX
8
0
10
3307.6666666666665
20
3361.932
0
VERTEX
8
0
10
3304.6666666666665
20
3361.5
0
VERTEX
8
0
10
3304.6666666666665
20
3362.0
0
SEQEND
0
POLYLINE
8
0
66
1
10
0.0
20
0.0
30
0.0
0
VERTEX
8
0
10
3307.6666666666665
20
3361.932
0
VERTEX
8
0
10
3308.0566666666664
20
3361.932
0
VERTEX
8
0
10
3308.0566666666664
20
3362.068
0
VERTEX
8
0
10
3307.6666666666665
20
3362.068
0
VERTEX
8
0
10
3307.6666666666665
20
3361.932
0
SEQEND
0
POLYLINE
8
0
66
1
10
0.0
20
0.0
30
0.0
0
VERTEX
8
0
10
3304.6666666666665
20
3362.0
0
VERTEX
8
0
10
3307.6666666666665
20
3362.0
0
VERTEX
8
0
10
3307.6666666666665
20
3362.268
0
VERTEX
8
0
10
3304.6666666666665
20
3362.7
0
VERTEX
8
0
10
3304.6666666666665
20
3362.0
0
SEQEND
0
POLYLINE
8
0
66
1
10
0.0
20
0.0
30
0.0
0
VERTEX
8
0
10
3304.6666666666665
20
3362.0
0
VERTEX
8
0
10
3307.6666666666665
20
3362.0
0
VERTEX
8
0
10
3307.6666666666665
20
3361.732
0
VERTEX
8
0
10
3304.6666666666665
20
3361.3
0
VERTEX
8
0
10
3304.6666666666665
20
3362.0
0
SEQEND
0
POLYLINE
8
0
66
1
10
0.0
20
0.0
30
0.0
0
VERTEX
8
0
10
3307.6666666666665
20
3361.732
0
VERTEX
8
0
10
3308.0566666666664
20
3361.732
0
VERTEX
8
0
10
3308.0566666666664
20
3362.268
0
VERTEX
8
0
10
3307.6666666666665
20
3362.268
0
VERTEX
8
0
10
3307.6666666666665
20
3361.732
0
SEQEND
0
POLYLINE
8
0
66
1
10
0.0
20
0.0
30
0.0
0
VERTEX
8
0
10
3308.0566666666664
20
3362.268
0
VERTEX
8
0
10
3308.276666666666
20
3362.268
0
VERTEX
8
0
10
3308.276666666666
20
3362.5
0
VERTEX
8
0
10
3308.0566666666664
20
3362.5
0
VERTEX
8
0
10
3308.0566666666664
20
3362.268
0
SEQEND
0
POLYLINE
8
0
66
1
10
0.0
20
0.0
30
0.0
0
VERTEX
8
0
10
3308.0566666666664
20
3361.732
0
VERTEX
8
0
10
3308.276666666666
20
3361.732
0
VERTEX
8
0
10
3308.276666666666
20
3361.5
0
VERTEX
8
0
10
3308.0566666666664
20
3361.5
0
VERTEX
8
0
10
3308.0566666666664
20
3361.732
0
SEQEND
0
POLYLINE
8
0
66
1
10
0.0
20
0.0
30
0.0
0
VERTEX
8
0
10
3330.743333333333
20
3362.068
0
VERTEX
8
0
10
3330.743333333333
20
3361.9320000000002
0
VERTEX
8
0
10
3330.923333333333
20
3361.9320000000002
0
VERTEX
8
0
10
3330.923333333333
20
3362.068
0
VERTEX
8
0
10
3330.743333333333
20
3362.068
0
SEQEND
0
POLYLINE
8
0
66
1
10
0.0
20
0.0
30
0.0
0
VERTEX
8
0
10
3330.333333333333
20
3362.268
0
VERTEX
8
0
10
3330.333333333333
20
3362.068
0
VERTEX
8
0
10
3331.333333333333
20
3362.068
0
VERTEX
8
0
10
3331.333333333333
20
3362.268
0
VERTEX
8
0
10
3330.333333333333
20
3362.268
0
SEQEND
0
POLYLINE
8
0
66
1
10
0.0
20
0.0
30
0.0
0
VERTEX
8
0
10
3330.333333333333
20
3361.9320000000002
0
VERTEX
8
0
10
3330.333333333333
20
3361.7320000000004
0
VERTEX
8
0
10
3331.333333333333
20
3361.7320000000004
0
VERTEX
8
0
10
3331.333333333333
20
3361.9320000000002
0
VERTEX
8
0
10
3330.333333333333
20
3361.9320000000002
0
SEQEND
0
POLYLINE
8
0
66
1
10
0.0
20
0.0
30
0.0
0
VERTEX
8
0
10
3331.333333333333
20
3362.7
0
VERTEX
8
0
10
3331.333333333333
20
3362.5
0
VERTEX
8
0
10
3334.333333333333
20
3362.5
0
VERTEX
8
0
10
3334.333333333333
20
3362.7
0
VERTEX
8
0
10
3331.333333333333
20
3362.7
0
SEQEND
0
POLYLINE
8
0
66
1
10
0.0
20
0.0
30
0.0
0
VERTEX
8
0
10
3330.333333333333
20
3362.7
0
VERTEX
8
0
10
3330.333333333333
20
3362.5
0
VERTEX
8
0
10
3327.333333333333
20
3362.5
0
VERTEX
8
0
10
3327.333333333333
20
3362.7
0
VERTEX
8
0
10
3330.333333333333
20
3362.7
0
SEQEND
0
POLYLINE
8
0
66
1
10
0.0
20
0.0
30
0.0
0
VERTEX
8
0
10
3331.333333333333
20
3362.5
0
VERTEX
8
0
10
3331.333333333333
20
3362.068
0
VERTEX
8
0
10
3331.333333333333
20
3362.068
0
VERTEX
8
0
10
3334.333333333333
20
3362.5
0
VERTEX
8
0
10
3331.333333333333
20
3362.5
0
SEQEND
0
POLYLINE
8
0
66
1
10
0.0
20
0.0
30
0.0
0
VERTEX
8
0
10
3330.333333333333
20
3362.5
0
VERTEX
8
0
10
3330.333333333333
20
3362.068
0
VERTEX
8
0
10
3330.333333333333
20
3362.068
0
VERTEX
8
0
10
3327.333333333333
20
3362.5
0
VERTEX
8
0
10
3330.333333333333
20
3362.5
0
SEQEND
0
POLYLINE
8
0
66
1
10
0.0
20
0.0
30
0.0
0
VERTEX
8
0
10
3331.333333333333
20
3362.7
0
VERTEX
8
0
10
3331.333333333333
20
3362.268
0
VERTEX
8
0
10
3331.333333333333
20
3362.268
0
VERTEX
8
0
10
3334.333333333333
20
3362.7
0
VERTEX
8
0
10
3331.333333333333
20
3362.7
0
SEQEND
0
POLYLINE
8
0
66
1
10
0.0
20
0.0
30
0.0
0
VERTEX
8
0
10
3330.333333333333
20
3362.7
0
VERTEX
8
0
10
3330.333333333333
20
3362.268
0
VERTEX
8
0
10
3330.333333333333
20
3362.268
0
VERTEX
8
0
10
3327.333333333333
20
3362.7
0
VERTEX
8
0
10
3330.333333333333
20
3362.7
0
SEQEND
0
POLYLINE
8
0
66
1
10
0.0
20
0.0
30
0.0
0
VERTEX
8
0
10
3331.333333333333
20
3361.5000000000005
0
VERTEX
8
0
10
3331.333333333333
20
3361.3000000000006
0
VERTEX
8
0
10
3334.333333333333
20
3361.3000000000006
0
VERTEX
8
0
10
3334.333333333333
20
3361.5000000000005
0
VERTEX
8
0
10
3331.333333333333
20
3361.5000000000005
0
SEQEND
0
POLYLINE
8
0
66
1
10
0.0
20
0.0
30
0.0
0
VERTEX
8
0
10
3330.333333333333
20
3361.5000000000005
0
VERTEX
8
0
10
3330.333333333333
20
3361.3000000000006
0
VERTEX
8
0
10
3327.333333333333
20
3361.3000000000006
0
VERTEX
8
0
10
3327.333333333333
20
3361.5000000000005
0
VERTEX
8
0
10
3330.333333333333
20
3361.5000000000005
0
SEQEND
0
POLYLINE
8
0
66
1
10
0.0
20
0.0
30
0.0
0
VERTEX
8
0
10
3331.333333333333
20
3361.9320000000002
0
VERTEX
8
0
10
3331.333333333333
20
3361.5000000000005
0
VERTEX
8
0
10
3334.333333333333
20
3361.5000000000005
0
VERTEX
8
0
10
3331.333333333333
20
3361.9320000000002
0
VERTEX
8
0
10
3331.333333333333
20
3361.9320000000002
0
SEQEND
0
POLYLINE
8
0
66
1
10
0.0
20
0.0
30
0.0
0
VERTEX
8
0
10
3330.333333333333
20
3361.9320000000002
0
VERTEX
8
0
10
3330.333333333333
20
3361.5000000000005
0
VERTEX
8
0
10
3327.333333333333
20
3361.5000000000005
0
VERTEX
8
0
10
3330.333333333333
20
3361.9320000000002
0
VERTEX
8
0
10
3330.333333333333
20
3361.9320000000002
0
SEQEND
0
POLYLINE
8
0
66
1
10
0.0
20
0.0
30
0.0
0
VERTEX
8
0
10
3331.333333333333
20
3361.7320000000004
0
VERTEX
8
0
10
3331.333333333333
20
3361.3000000000006
0
VERTEX
8
0
10
3334.333333333333
20
3361.3000000000006
0
VERTEX
8
0
10
3331.333333333333
20
3361.7320000000004
0
VERTEX
8
0
10
3331.333333333333
20
3361.7320000000004
0
SEQEND
0
POLYLINE
8
0
66
1
10
0.0
20
0.0
30
0.0
0
VERTEX
8
0
10
3330.333333333333
20
3361.7320000000004
0
VERTEX
8
0
10
3330.333333333333
20
3361.3000000000006
0
VERTEX
8
0
10
3327.333333333333
20
3361.3000000000006
0
VERTEX
8
0
10
3330.333333333333
20
3361.7320000000004
0
VERTEX
8
0
10
3330.333333333333
20
3361.7320000000004
0
SEQEND
0
POLYLINE
8
0
66
1
10
0.0
20
0.0
30
0.0
0
VERTEX
8
0
10
3327.333333333333
20
3362.0
0
VERTEX
8
0
10
3330.333333333333
20
3362.0
0
VERTEX
8
0
10
3330.333333333333
20
3362.068
0
VERTEX
8
0
10
3327.333333333333
20
3362.5
0
VERTEX
8
0
10
3327.333333333333
20
3362.0
0
SEQEND
0
POLYLINE
8
0
66
1
10
0.0
20
0.0
30
0.0
0
VERTEX
8
0
10
3327.333333333333
20
3362.0
0
VERTEX
8
0
10
3330.333333333333
20
3362.0
0
VERTEX
8
0
10
3330.333333333333
20
3361.932
0
VERTEX
8
0
10
3327.333333333333
20
3361.5
0
VERTEX
8
0
10
3327.333333333333
20
3362.0
0
SEQEND
0
POLYLINE
8
0
66
1
10
0.0
20
0.0
30
0.0
0
VERTEX
8
0
10
3330.333333333333
20
3361.932
0
VERTEX
8
0
10
3330.743333333333
20
3361.932
0
VERTEX
8
0
10
3330.743333333333
20
3362.068
0
VERTEX
8
0
10
3330.333333333333
20
3362.068
0
VERTEX
8
0
10
3330.333333333333
20
3361.932
0
SEQEND
0
POLYLINE
8
0
66
1
10
0.0
20
0.0
30
0.0
0
VERTEX
8
0
10
3327.333333333333
20
3362.0
0
VERTEX
8
0
10
3330.333333333333
20
3362.0
0
VERTEX
8
0
10
3330.333333333333
20
3362.268
0
VERTEX
8
0
10
3327.333333333333
20
3362.7
0
VERTEX
8
0
10
3327.333333333333
20
3362.0
0
SEQEND
0
POLYLINE
8
0
66
1
10
0.0
20
0.0
30
0.0
0
VERTEX
8
0
10
3327.333333333333
20
3362.0
0
VERTEX
8
0
10
3330.333333333333
20
3362.0
0
VERTEX
8
0
10
3330.333333333333
20
3361.732
0
VERTEX
8
0
10
3327.333333333333
20
3361.3
0
VERTEX
8
0
10
3327.333333333333
20
3362.0
0
SEQEND
0
POLYLINE
8
0
66
1
10
0.0
20
0.0
30
0.0
0
VERTEX
8
0
10
3330.333333333333
20
3361.732
0
VERTEX
8
0
10
3330.743333333333
20
3361.732
0
VERTEX
8
0
10
3330.743333333333
20
3362.268
0
VERTEX
8
0
10
3330.333333333333
20
3362.268
0
VERTEX
8
0
10
3330.333333333333
20
3361.732
0
SEQEND
0
POLYLINE
8
0
66
1
10
0.0
20
0.0
30
0.0
0
VERTEX
8
0
10
3330.743333333333
20
3362.268
0
VERTEX
8
0
10
3330.9233333333327
20
3362.268
0
VERTEX
8
0
10
3330.9233333333327
20
3362.5
0
VERTEX
8
0
10
3330.743333333333
20
3362.5
0
VERTEX
8
0
10
3330.743333333333
20
3362.268
0
SEQEND
0
POLYLINE
8
0
66
1
10
0.0
20
0.0
30
0.0
0
VERTEX
8
0
10
3330.743333333333
20
3361.732
0
VERTEX
8
0
10
3330.9233333333327
20
3361.732
0
VERTEX
8
0
10
3330.9233333333327
20
3361.5
0
VERTEX
8
0
10
3330.743333333333
20
3361.5
0
VERTEX
8
0
10
3330.743333333333
20
3361.732
0
SEQEND
0
POLYLINE
8
GAP
66
1
10
0.0
20
0.0
30
0.0
0
VERTEX
8
GAP
10
200.0
20
100.0
0
VERTEX
8
GAP
10
200.0
20
170.0
0
VERTEX
8
GAP
10
252.5
20
170.0
0
VERTEX
8
GAP
10
252.5
20
100.0
0
VERTEX
8
GAP
10
235.0
20
100.0
0
VERTEX
8
GAP
10
235.0
20
161.25
0
VERTEX
8
GAP
10
217.5
20
161.25
0
VERTEX
8
GAP
10
217.5
20
100.0
0
VERTEX
8
GAP
10
200.0
20
100.0
0
SEQEND
0
POLYLINE
8
GAP
66
1
10
0.0
20
0.0
30
0.0
0
VERTEX
8
GAP
10
217.5
20
135.0
0
VERTEX
8
GAP
10
217.5
20
143.75
0
VERTEX
8
GAP
10
235.0
20
143.75
0
VERTEX
8
GAP
10
235.0
20
135.0
0
VERTEX
8
GAP
10
217.5
20
135.0
0
SEQEND
0
ENDBLK
0
BLOCK
8
PIN
2
APIN
70
0
10
0
20
0
30
0
3
APIN
0
POLYLINE
8
0
66
1
10
0.0
20
0.0
30
0.0
0
VERTEX
8
0
10
1100.0
20
4397.5
0
VERTEX
8
0
10
1100.0
20
4361.5
0
VERTEX
8
0
10
1139.0
20
4361.5
0
VERTEX
8
0
10
1139.0
20
4397.5
0
VERTEX
8
0
10
1100.0
20
4397.5
0
SEQEND
0
POLYLINE
8
0
66
1
10
0.0
20
0.0
30
0.0
0
VERTEX
8
0
10
1101.0
20
4396.5
0
VERTEX
8
0
10
1101.0
20
4376.7
0
VERTEX
8
0
10
1138.0
20
4376.7
0
VERTEX
8
0
10
1138.0
20
4396.5
0
VERTEX
8
0
10
1101.0
20
4396.5
0
SEQEND
0
POLYLINE
8
0
66
1
10
0.0
20
0.0
30
0.0
0
VERTEX
8
0
10
1101.0
20
4375.7
0
VERTEX
8
0
10
1101.0
20
4362.5
0
VERTEX
8
0
10
1138.0
20
4362.5
0
VERTEX
8
0
10
1138.0
20
4375.7
0
VERTEX
8
0
10
1101.0
20
4375.7
0
SEQEND
0
POLYLINE
8
0
66
1
10
0.0
20
0.0
30
0.0
0
VERTEX
8
0
10
1119.5
20
4397.5
0
VERTEX
8
0
10
1119.5
20
4397.0455
0
VERTEX
8
0
10
1120.0
20
4397.0455
0
VERTEX
8
0
10
1123.0
20
4397.5
0
VERTEX
8
0
10
1119.5
20
4397.5
0
SEQEND
0
POLYLINE
8
0
66
1
10
0.0
20
0.0
30
0.0
0
VERTEX
8
0
10
1119.5
20
4397.5
0
VERTEX
8
0
10
1119.5
20
4397.0455
0
VERTEX
8
0
10
1119.0
20
4397.0455
0
VERTEX
8
0
10
1116.0
20
4397.5
0
VERTEX
8
0
10
1119.5
20
4397.5
0
SEQEND
0
POLYLINE
8
0
66
1
10
0.0
20
0.0
30
0.0
0
VERTEX
8
0
10
1119.38
20
4397.0455
0
VERTEX
8
0
10
1119.38
20
4396.9545
0
VERTEX
8
0
10
1119.62
20
4396.9545
0
VERTEX
8
0
10
1119.62
20
4397.0455
0
VERTEX
8
0
10
1119.38
20
4397.0455
0
SEQEND
0
POLYLINE
8
0
66
1
10
0.0
20
0.0
30
0.0
0
VERTEX
8
0
10
1119.5
20
4396.9545
0
VERTEX
8
0
10
1119.5
20
4396.5
0
VERTEX
8
0
10
1123.0
20
4396.5
0
VERTEX
8
0
10
1120.0
20
4396.9545
0
VERTEX
8
0
10
1119.5
20
4396.9545
0
SEQEND
0
POLYLINE
8
0
66
1
10
0.0
20
0.0
30
0.0
0
VERTEX
8
0
10
1119.5
20
4396.9545
0
VERTEX
8
0
10
1119.5
20
4396.5
0
VERTEX
8
0
10
1116.0
20
4396.5
0
VERTEX
8
0
10
1119.0
20
4396.9545
0
VERTEX
8
0
10
1119.5
20
4396.9545
0
SEQEND
0
POLYLINE
8
0
66
1
10
0.0
20
0.0
30
0.0
0
VERTEX
8
0
10
1116.0
20
4397.0
0
VERTEX
8
0
10
1119.0
20
4397.0
0
VERTEX
8
0
10
1119.0
20
4397.0455
0
VERTEX
8
0
10
1116.0
20
4397.5
0
VERTEX
8
0
10
1116.0
20
4397.0
0
SEQEND
0
POLYLINE
8
0
66
1
10
0.0
20
0.0
30
0.0
0
VERTEX
8
0
10
1116.0
20
4397.0
0
VERTEX
8
0
10
1119.0
20
4397.0
0
VERTEX
8
0
10
1119.0
20
4396.9545
0
VERTEX
8
0
10
1116.0
20
4396.5
0
VERTEX
8
0
10
1116.0
20
4397.0
0
SEQEND
0
POLYLINE
8
0
66
1
10
0.0
20
0.0
30
0.0
0
VERTEX
8
0
10
1119.0
20
4396.9545
0
VERTEX
8
0
10
1119.38
20
4396.9545
0
VERTEX
8
0
10
1119.38
20
4397.0455
0
VERTEX
8
0
10
1119.0
20
4397.0455
0
VERTEX
8
0
10
1119.0
20
4396.9545
0
SEQEND
0
POLYLINE
8
0
66
1
10
0.0
20
0.0
30
0.0
0
VERTEX
8
0
10
1116.0
20
4396.5
0
VERTEX
8
0
10
1119.38
20
4396.5
0
VERTEX
8
0
10
1119.38
20
4397.5
0
VERTEX
8
0
10
1116.0
20
4397.5
0
VERTEX
8
0
10
1116.0
20
4396.5
0
SEQEND
0
POLYLINE
8
0
66
1
10
0.0
20
0.0
30
0.0
0
VERTEX
8
0
10
1119.5
20
4376.7
0
VERTEX
8
0
10
1119.5
20
4376.2429999999995
0
VERTEX
8
0
10
1120.0
20
4376.2429999999995
0
VERTEX
8
0
10
1123.0
20
4376.7
0
VERTEX
8
0
10
1119.5
20
4376.7
0
SEQEND
0
POLYLINE
8
0
66
1
10
0.0
20
0.0
30
0.0
0
VERTEX
8
0
10
1119.5
20
4376.7
0
VERTEX
8
0
10
1119.5
20
4376.2429999999995
0
VERTEX
8
0
10
1119.0
20
4376.2429999999995
0
VERTEX
8
0
10
1116.0
20
4376.7
0
VERTEX
8
0
10
1119.5
20
4376.7
0
SEQEND
0
POLYLINE
8
0
66
1
10
0.0
20
0.0
30
0.0
0
VERTEX
8
0
10
1119.0
20
4376.2429999999995
0
VERTEX
8
0
10
1119.0
20
4376.156999999999
0
VERTEX
8
0
10
1120.0
20
4376.156999999999
0
VERTEX
8
0
10
1120.0
20
4376.2429999999995
0
VERTEX
8
0
10
1119.0
20
4376.2429999999995
0
SEQEND
0
POLYLINE
8
0
66
1
10
0.0
20
0.0
30
0.0
0
VERTEX
8
0
10
1119.5
20
4376.156999999999
0
VERTEX
8
0
10
1119.5
20
4375.699999999999
0
VERTEX
8
0
10
1123.0
20
4375.699999999999
0
VERTEX
8
0
10
1120.0
20
4376.156999999999
0
VERTEX
8
0
10
1119.5
20
4376.156999999999
0
SEQEND
0
POLYLINE
8
0
66
1
10
0.0
20
0.0
30
0.0
0
VERTEX
8
0
10
1119.5
20
4376.156999999999
0
VERTEX
8
0
10
1119.5
20
4375.699999999999
0
VERTEX
8
0
10
1116.0
20
4375.699999999999
0
VERTEX
8
0
10
1119.0
20
4376.156999999999
0
VERTEX
8
0
10
1119.5
20
4376.156999999999
0
SEQEND
0
POLYLINE
8
0
66
1
10
0.0
20
0.0
30
0.0
0
VERTEX
8
0
10
1116.0
20
4376.2
0
VERTEX
8
0
10
1119.0
20
4376.2
0
VERTEX
8
0
10
1119.0
20
4376.2429999999995
0
VERTEX
8
0
10
1116.0
20
4376.7
0
VERTEX
8
0
10
1116.0
20
4376.2
0
SEQEND
0
POLYLINE
8
0
66
1
10
0.0
20
0.0
30
0.0
0
VERTEX
8
0
10
1116.0
20
4376.2
0
VERTEX
8
0
10
1119.0
20
4376.2
0
VERTEX
8
0
10
1119.0
20
4376.157
0
VERTEX
8
0
10
1116.0
20
4375.7
0
VERTEX
8
0
10
1116.0
20
4376.2
0
SEQEND
0
POLYLINE
8
0
66
1
10
0.0
20
0.0
30
0.0
0
VERTEX
8
0
10
1116.0
20
4375.7
0
VERTEX
8
0
10
1119.38
20
4375.7
0
VERTEX
8
0
10
1119.38
20
4376.7
0
VERTEX
8
0
10
1116.0
20
4376.7
0
VERTEX
8
0
10
1116.0
20
4375.7
0
SEQEND
0
POLYLINE
8
0
66
1
10
0.0
20
0.0
30
0.0
0
VERTEX
8
0
10
1108.1666666666667
20
4362.5
0
VERTEX
8
0
10
1108.1666666666667
20
4362.068
0
VERTEX
8
0
10
1108.6666666666667
20
4362.068
0
VERTEX
8
0
10
1111.6666666666667
20
4362.5
0
VERTEX
8
0
10
1108.1666666666667
20
4362.5
0
SEQEND
0
POLYLINE
8
0
66
1
10
0.0
20
0.0
30
0.0
0
VERTEX
8
0
10
1108.1666666666667
20
4362.5
0
VERTEX
8
0
10
1108.1666666666667
20
4362.068
0
VERTEX
8
0
10
1107.6666666666667
20
4362.068
0
VERTEX
8
0
10
1104.6666666666667
20
4362.5
0
VERTEX
8
0
10
1108.1666666666667
20
4362.5
0
SEQEND
0
POLYLINE
8
0
66
1
10
0.0
20
0.0
30
0.0
0
VERTEX
8
0
10
1107.6666666666667
20
4362.068
0
VERTEX
8
0
10
1107.6666666666667
20
4361.932000000001
0
VERTEX
8
0
10
1108.6666666666667
20
4361.932000000001
0
VERTEX
8
0
10
1108.6666666666667
20
4362.068
0
VERTEX
8
0
10
1107.6666666666667
20
4362.068
0
SEQEND
0
POLYLINE
8
0
66
1
10
0.0
20
0.0
30
0.0
0
VERTEX
8
0
10
1108.1666666666667
20
4361.932
0
VERTEX
8
0
10
1108.1666666666667
20
4361.5
0
VERTEX
8
0
10
1111.6666666666667
20
4361.5
0
VERTEX
8
0
10
1108.6666666666667
20
4361.932
0
VERTEX
8
0
10
1108.1666666666667
20
4361.932
0
SEQEND
0
POLYLINE
8
0
66
1
10
0.0
20
0.0
30
0.0
0
VERTEX
8
0
10
1108.1666666666667
20
4361.932
0
VERTEX
8
0
10
1108.1666666666667
20
4361.5
0
VERTEX
8
0
10
1104.6666666666667
20
4361.5
0
VERTEX
8
0
10
1107.6666666666667
20
4361.932
0
VERTEX
8
0
10
1108.1666666666667
20
4361.932
0
SEQEND
0
POLYLINE
8
0
66
1
10
0.0
20
0.0
30
0.0
0
VERTEX
8
0
10
1104.6666666666667
20
4362.0
0
VERTEX
8
0
10
1107.6666666666667
20
4362.0
0
VERTEX
8
0
10
1107.6666666666667
20
4362.068
0
VERTEX
8
0
10
1104.6666666666667
20
4362.5
0
VERTEX
8
0
10
1104.6666666666667
20
4362.0
0
SEQEND
0
POLYLINE
8
0
66
1
10
0.0
20
0.0
30
0.0
0
VERTEX
8
0
10
1104.6666666666667
20
4362.0
0
VERTEX
8
0
10
1107.6666666666667
20
4362.0
0
VERTEX
8
0
10
1107.6666666666667
20
4361.932
0
VERTEX
8
0
10
1104.6666666666667
20
4361.5
0
VERTEX
8
0
10
1104.6666666666667
20
4362.0
0
SEQEND
0
POLYLINE
8
0
66
1
10
0.0
20
0.0
30
0.0
0
VERTEX
8
0
10
1104.6666666666667
20
4361.5
0
VERTEX
8
0
10
1108.0566666666668
20
4361.5
0
VERTEX
8
0
10
1108.0566666666668
20
4362.5
0
VERTEX
8
0
10
1104.6666666666667
20
4362.5
0
VERTEX
8
0
10
1104.6666666666667
20
4361.5
0
SEQEND
0
POLYLINE
8
0
66
1
10
0.0
20
0.0
30
0.0
0
VERTEX
8
0
10
1130.8333333333335
20
4362.5
0
VERTEX
8
0
10
1130.8333333333335
20
4362.068
0
VERTEX
8
0
10
1131.3333333333335
20
4362.068
0
VERTEX
8
0
10
1134.3333333333335
20
4362.5
0
VERTEX
8
0
10
1130.8333333333335
20
4362.5
0
SEQEND
0
POLYLINE
8
0
66
1
10
0.0
20
0.0
30
0.0
0
VERTEX
8
0
10
1130.8333333333335
20
4362.5
0
VERTEX
8
0
10
1130.8333333333335
20
4362.068
0
VERTEX
8
0
10
1130.3333333333335
20
4362.068
0
VERTEX
8
0
10
1127.3333333333335
20
4362.5
0
VERTEX
8
0
10
1130.8333333333335
20
4362.5
0
SEQEND
0
POLYLINE
8
0
66
1
10
0.0
20
0.0
30
0.0
0
VERTEX
8
0
10
1130.3333333333335
20
4362.068
0
VERTEX
8
0
10
1130.3333333333335
20
4361.932000000001
0
VERTEX
8
0
10
1131.3333333333335
20
4361.932000000001
0
VERTEX
8
0
10
1131.3333333333335
20
4362.068
0
VERTEX
8
0
10
1130.3333333333335
20
4362.068
0
SEQEND
0
POLYLINE
8
0
66
1
10
0.0
20
0.0
30
0.0
0
VERTEX
8
0
10
1130.8333333333335
20
4361.932
0
VERTEX
8
0
10
1130.8333333333335
20
4361.5
0
VERTEX
8
0
10
1134.3333333333335
20
4361.5
0
VERTEX
8
0
10
1131.3333333333335
20
4361.932
0
VERTEX
8
0
10
1130.8333333333335
20
4361.932
0
SEQEND
0
POLYLINE
8
0
66
1
10
0.0
20
0.0
30
0.0
0
VERTEX
8
0
10
1130.8333333333335
20
4361.932
0
VERTEX
8
0
10
1130.8333333333335
20
4361.5
0
VERTEX
8
0
10
1127.3333333333335
20
4361.5
0
VERTEX
8
0
10
1130.3333333333335
20
4361.932
0
VERTEX
8
0
10
1130.8333333333335
20
4361.932
0
SEQEND
0
POLYLINE
8
0
66
1
10
0.0
20
0.0
30
0.0
0
VERTEX
8
0
10
1127.3333333333335
20
4362.0
0
VERTEX
8
0
10
1130.3333333333335
20
4362.0
0
VERTEX
8
0
10
1130.3333333333335
20
4362.068
0
VERTEX
8
0
10
1127.3333333333335
20
4362.5
0
VERTEX
8
0
10
1127.3333333333335
20
4362.0
0
SEQEND
0
POLYLINE
8
0
66
1
10
0.0
20
0.0
30
0.0
0
VERTEX
8
0
10
1127.3333333333335
20
4362.0
0
VERTEX
8
0
10
1130.3333333333335
20
4362.0
0
VERTEX
8
0
10
1130.3333333333335
20
4361.932
0
VERTEX
8
0
10
1127.3333333333335
20
4361.5
0
VERTEX
8
0
10
1127.3333333333335
20
4362.0
0
SEQEND
0
POLYLINE
8
0
66
1
10
0.0
20
0.0
30
0.0
0
VERTEX
8
0
10
1127.3333333333335
20
4361.5
0
VERTEX
8
0
10
1130.7433333333336
20
4361.5
0
VERTEX
8
0
10
1130.7433333333336
20
4362.5
0
VERTEX
8
0
10
1127.3333333333335
20
4362.5
0
VERTEX
8
0
10
1127.3333333333335
20
4361.5
0
SEQEND
0
POLYLINE
8
0
66
1
10
0.0
20
0.0
30
0.0
0
VERTEX
8
0
10
1143.0
20
4389.5
0
VERTEX
8
0
10
1143.0
20
4379.5
0
VERTEX
8
0
10
1150.0
20
4379.5
0
VERTEX
8
0
10
1150.0
20
4389.5
0
VERTEX
8
0
10
1143.0
20
4389.5
0
SEQEND
0
POLYLINE
8
0
66
1
10
0.0
20
0.0
30
0.0
0
VERTEX
8
0
10
1139.0
20
4385.5
0
VERTEX
8
0
10
1139.0
20
4383.5
0
VERTEX
8
0
10
1143.0
20
4383.5
0
VERTEX
8
0
10
1143.0
20
4385.5
0
VERTEX
8
0
10
1139.0
20
4385.5
0
SEQEND
0
POLYLINE
8
0
66
1
10
0.0
20
0.0
30
0.0
0
VERTEX
8
0
10
1089.0
20
4389.5
0
VERTEX
8
0
10
1089.0
20
4379.5
0
VERTEX
8
0
10
1096.0
20
4379.5
0
VERTEX
8
0
10
1096.0
20
4389.5
0
VERTEX
8
0
10
1089.0
20
4389.5
0
SEQEND
0
POLYLINE
8
0
66
1
10
0.0
20
0.0
30
0.0
0
VERTEX
8
0
10
1096.0
20
4385.5
0
VERTEX
8
0
10
1096.0
20
4383.5
0
VERTEX
8
0
10
1100.0
20
4383.5
0
VERTEX
8
0
10
1100.0
20
4385.5
0
VERTEX
8
0
10
1096.0
20
4385.5
0
SEQEND
0
POLYLINE
8
0
66
1
10
0.0
20
0.0
30
0.0
0
VERTEX
8
0
10
1118.5
20
4361.5
0
VERTEX
8
0
10
1118.5
20
4357.5
0
VERTEX
8
0
10
1120.5
20
4357.5
0
VERTEX
8
0
10
1120.5
20
4361.5
0
VERTEX
8
0
10
1118.5
20
4361.5
0
SEQEND
0
POLYLINE
8
0
66
1
10
0.0
20
0.0
30
0.0
0
VERTEX
8
0
10
1114.5
20
4357.5
0
VERTEX
8
0
10
1114.5
20
4350.5
0
VERTEX
8
0
10
1124.5
20
4350.5
0
VERTEX
8
0
10
1124.5
20
4357.5
0
VERTEX
8
0
10
1114.5
20
4357.5
0
SEQEND
0
POLYLINE
8
0
66
1
10
0.0
20
0.0
30
0.0
0
VERTEX
8
0
10
1100.0
20
2797.5
0
VERTEX
8
0
10
1100.0
20
2761.5
0
VERTEX
8
0
10
1139.0
20
2761.5
0
VERTEX
8
0
10
1139.0
20
2797.5
0
VERTEX
8
0
10
1100.0
20
2797.5
0
SEQEND
0
POLYLINE
8
0
66
1
10
0.0
20
0.0
30
0.0
0
VERTEX
8
0
10
1101.0
20
2796.5
0
VERTEX
8
0
10
1101.0
20
2776.7
0
VERTEX
8
0
10
1138.0
20
2776.7
0
VERTEX
8
0
10
1138.0
20
2796.5
0
VERTEX
8
0
10
1101.0
20
2796.5
0
SEQEND
0
POLYLINE
8
0
66
1
10
0.0
20
0.0
30
0.0
0
VERTEX
8
0
10
1101.0
20
2775.7
0
VERTEX
8
0
10
1101.0
20
2762.5
0
VERTEX
8
0
10
1138.0
20
2762.5
0
VERTEX
8
0
10
1138.0
20
2775.7
0
VERTEX
8
0
10
1101.0
20
2775.7
0
SEQEND
0
POLYLINE
8
0
66
1
10
0.0
20
0.0
30
0.0
0
VERTEX
8
0
10
1119.5
20
2797.5
0
VERTEX
8
0
10
1119.5
20
2797.0455
0
VERTEX
8
0
10
1120.0
20
2797.0455
0
VERTEX
8
0
10
1123.0
20
2797.5
0
VERTEX
8
0
10
1119.5
20
2797.5
0
SEQEND
0
POLYLINE
8
0
66
1
10
0.0
20
0.0
30
0.0
0
VERTEX
8
0
10
1119.5
20
2797.5
0
VERTEX
8
0
10
1119.5
20
2797.0455
0
VERTEX
8
0
10
1119.0
20
2797.0455
0
VERTEX
8
0
10
1116.0
20
2797.5
0
VERTEX
8
0
10
1119.5
20
2797.5
0
SEQEND
0
POLYLINE
8
0
66
1
10
0.0
20
0.0
30
0.0
0
VERTEX
8
0
10
1119.0
20
2797.0455
0
VERTEX
8
0
10
1119.0
20
2796.9545000000003
0
VERTEX
8
0
10
1120.0
20
2796.9545000000003
0
VERTEX
8
0
10
1120.0
20
2797.0455
0
VERTEX
8
0
10
1119.0
20
2797.0455
0
SEQEND
0
POLYLINE
8
0
66
1
10
0.0
20
0.0
30
0.0
0
VERTEX
8
0
10
1119.5
20
2796.9545000000003
0
VERTEX
8
0
10
1119.5
20
2796.5
0
VERTEX
8
0
10
1123.0
20
2796.5
0
VERTEX
8
0
10
1120.0
20
2796.9545000000003
0
VERTEX
8
0
10
1119.5
20
2796.9545000000003
0
SEQEND
0
POLYLINE
8
0
66
1
10
0.0
20
0.0
30
0.0
0
VERTEX
8
0
10
1119.5
20
2796.9545000000003
0
VERTEX
8
0
10
1119.5
20
2796.5
0
VERTEX
8
0
10
1116.0
20
2796.5
0
VERTEX
8
0
10
1119.0
20
2796.9545000000003
0
VERTEX
8
0
10
1119.5
20
2796.9545000000003
0
SEQEND
0
POLYLINE
8
0
66
1
10
0.0
20
0.0
30
0.0
0
VERTEX
8
0
10
1116.0
20
2797.0
0
VERTEX
8
0
10
1119.0
20
2797.0
0
VERTEX
8
0
10
1119.0
20
2797.0455
0
VERTEX
8
0
10
1116.0
20
2797.5
0
VERTEX
8
0
10
1116.0
20
2797.0
0
SEQEND
0
POLYLINE
8
0
66
1
10
0.0
20
0.0
30
0.0
0
VERTEX
8
0
10
1116.0
20
2797.0
0
VERTEX
8
0
10
1119.0
20
2797.0
0
VERTEX
8
0
10
1119.0
20
2796.9545
0
VERTEX
8
0
10
1116.0
20
2796.5
0
VERTEX
8
0
10
1116.0
20
2797.0
0
SEQEND
0
POLYLINE
8
0
66
1
10
0.0
20
0.0
30
0.0
0
VERTEX
8
0
10
1116.0
20
2796.5
0
VERTEX
8
0
10
1119.38
20
2796.5
0
VERTEX
8
0
10
1119.38
20
2797.5
0
VERTEX
8
0
10
1116.0
20
2797.5
0
VERTEX
8
0
10
1116.0
20
2796.5
0
SEQEND
0
POLYLINE
8
0
66
1
10
0.0
20
0.0
30
0.0
0
VERTEX
8
0
10
1119.5
20
2776.7
0
VERTEX
8
0
10
1119.5
20
2776.2429999999995
0
VERTEX
8
0
10
1120.0
20
2776.2429999999995
0
VERTEX
8
0
10
1123.0
20
2776.7
0
VERTEX
8
0
10
1119.5
20
2776.7
0
SEQEND
0
POLYLINE
8
0
66
1
10
0.0
20
0.0
30
0.0
0
VERTEX
8
0
10
1119.5
20
2776.7
0
VERTEX
8
0
10
1119.5
20
2776.2429999999995
0
VERTEX
8
0
10
1119.0
20
2776.2429999999995
0
VERTEX
8
0
10
1116.0
20
2776.7
0
VERTEX
8
0
10
1119.5
20
2776.7
0
SEQEND
0
POLYLINE
8
0
66
1
10
0.0
20
0.0
30
0.0
0
VERTEX
8
0
10
1119.38
20
2776.243
0
VERTEX
8
0
10
1119.38
20
2776.157
0
VERTEX
8
0
10
1119.62
20
2776.157
0
VERTEX
8
0
10
1119.62
20
2776.243
0
VERTEX
8
0
10
1119.38
20
2776.243
0
SEQEND
0
POLYLINE
8
0
66
1
10
0.0
20
0.0
30
0.0
0
VERTEX
8
0
10
1119.5
20
2776.157
0
VERTEX
8
0
10
1119.5
20
2775.7
0
VERTEX
8
0
10
1123.0
20
2775.7
0
VERTEX
8
0
10
1120.0
20
2776.157
0
VERTEX
8
0
10
1119.5
20
2776.157
0
SEQEND
0
POLYLINE
8
0
66
1
10
0.0
20
0.0
30
0.0
0
VERTEX
8
0
10
1119.5
20
2776.157
0
VERTEX
8
0
10
1119.5
20
2775.7
0
VERTEX
8
0
10
1116.0
20
2775.7
0
VERTEX
8
0
10
1119.0
20
2776.157
0
VERTEX
8
0
10
1119.5
20
2776.157
0
SEQEND
0
POLYLINE
8
0
66
1
10
0.0
20
0.0
30
0.0
0
VERTEX
8
0
10
1116.0
20
2776.2
0
VERTEX
8
0
10
1119.0
20
2776.2
0
VERTEX
8
0
10
1119.0
20
2776.243
0
VERTEX
8
0
10
1116.0
20
2776.7
0
VERTEX
8
0
10
1116.0
20
2776.2
0
SEQEND
0
POLYLINE
8
0
66
1
10
0.0
20
0.0
30
0.0
0
VERTEX
8
0
10
1116.0
20
2776.2
0
VERTEX
8
0
10
1119.0
20
2776.2
0
VERTEX
8
0
10
1119.0
20
2776.1569999999997
0
VERTEX
8
0
10
1116.0
20
2775.7
0
VERTEX
8
0
10
1116.0
20
2776.2
0
SEQEND
0
POLYLINE
8
0
66
1
10
0.0
20
0.0
30
0.0
0
VERTEX
8
0
10
1119.0
20
2776.1569999999997
0
VERTEX
8
0
10
1119.38
20
2776.1569999999997
0
VERTEX
8
0
10
1119.38
20
2776.243
0
VERTEX
8
0
10
1119.0
20
2776.243
0
VERTEX
8
0
10
1119.0
20
2776.1569999999997
0
SEQEND
0
POLYLINE
8
0
66
1
10
0.0
20
0.0
30
0.0
0
VERTEX
8
0
10
1116.0
20
2775.7
0
VERTEX
8
0
10
1119.38
20
2775.7
0
VERTEX
8
0
10
1119.38
20
2776.7
0
VERTEX
8
0
10
1116.0
20
2776.7
0
VERTEX
8
0
10
1116.0
20
2775.7
0
SEQEND
0
POLYLINE
8
0
66
1
10
0.0
20
0.0
30
0.0
0
VERTEX
8
0
10
1108.1666666666667
20
2762.5
0
VERTEX
8
0
10
1108.1666666666667
20
2762.068
0
VERTEX
8
0
10
1108.6666666666667
20
2762.068
0
VERTEX
8
0
10
1111.6666666666667
20
2762.5
0
VERTEX
8
0
10
1108.1666666666667
20
2762.5
0
SEQEND
0
POLYLINE
8
0
66
1
10
0.0
20
0.0
30
0.0
0
VERTEX
8
0
10
1108.1666666666667
20
2762.5
0
VERTEX
8
0
10
1108.1666666666667
20
2762.068
0
VERTEX
8
0
10
1107.6666666666667
20
2762.068
0
VERTEX
8
0
10
1104.6666666666667
20
2762.5
0
VERTEX
8
0
10
1108.1666666666667
20
2762.5
0
SEQEND
0
POLYLINE
8
0
66
1
10
0.0
20
0.0
30
0.0
0
VERTEX
8
0
10
1107.6666666666667
20
2762.068
0
VERTEX
8
0
10
1107.6666666666667
20
2761.9320000000002
0
VERTEX
8
0
10
1108.6666666666667
20
2761.9320000000002
0
VERTEX
8
0
10
1108.6666666666667
20
2762.068
0
VERTEX
8
0
10
1107.6666666666667
20
2762.068
0
SEQEND
0
POLYLINE
8
0
66
1
10
0.0
20
0.0
30
0.0
0
VERTEX
8
0
10
1108.1666666666667
20
2761.9320000000002
0
VERTEX
8
0
10
1108.1666666666667
20
2761.5
0
VERTEX
8
0
10
1111.6666666666667
20
2761.5
0
VERTEX
8
0
10
1108.6666666666667
20
2761.9320000000002
0
VERTEX
8
0
10
1108.1666666666667
20
2761.9320000000002
0
SEQEND
0
POLYLINE
8
0
66
1
10
0.0
20
0.0
30
0.0
0
VERTEX
8
0
10
1108.1666666666667
20
2761.9320000000002
0
VERTEX
8
0
10
1108.1666666666667
20
2761.5
0
VERTEX
8
0
10
1104.6666666666667
20
2761.5
0
VERTEX
8
0
10
1107.6666666666667
20
2761.9320000000002
0
VERTEX
8
0
10
1108.1666666666667
20
2761.9320000000002
0
SEQEND
0
POLYLINE
8
0
66
1
10
0.0
20
0.0
30
0.0
0
VERTEX
8
0
10
1104.6666666666667
20
2762.0
0
VERTEX
8
0
10
1107.6666666666667
20
2762.0
0
VERTEX
8
0
10
1107.6666666666667
20
2762.068
0
VERTEX
8
0
10
1104.6666666666667
20
2762.5
0
VERTEX
8
0
10
1104.6666666666667
20
2762.0
0
SEQEND
0
POLYLINE
8
0
66
1
10
0.0
20
0.0
30
0.0
0
VERTEX
8
0
10
1104.6666666666667
20
2762.0
0
VERTEX
8
0
10
1107.6666666666667
20
2762.0
0
VERTEX
8
0
10
1107.6666666666667
20
2761.932
0
VERTEX
8
0
10
1104.6666666666667
20
2761.5
0
VERTEX
8
0
10
1104.6666666666667
20
2762.0
0
SEQEND
0
POLYLINE
8
0
66
1
10
0.0
20
0.0
30
0.0
0
VERTEX
8
0
10
1104.6666666666667
20
2761.5
0
VERTEX
8
0
10
1108.0566666666668
20
2761.5
0
VERTEX
8
0
10
1108.0566666666668
20
2762.5
0
VERTEX
8
0
10
1104.6666666666667
20
2762.5
0
VERTEX
8
0
10
1104.6666666666667
20
2761.5
0
SEQEND
0
POLYLINE
8
0
66
1
10
0.0
20
0.0
30
0.0
0
VERTEX
8
0
10
1130.8333333333335
20
2762.5
0
VERTEX
8
0
10
1130.8333333333335
20
2762.068
0
VERTEX
8
0
10
1131.3333333333335
20
2762.068
0
VERTEX
8
0
10
1134.3333333333335
20
2762.5
0
VERTEX
8
0
10
1130.8333333333335
20
2762.5
0
SEQEND
0
POLYLINE
8
0
66
1
10
0.0
20
0.0
30
0.0
0
VERTEX
8
0
10
1130.8333333333335
20
2762.5
0
VERTEX
8
0
10
1130.8333333333335
20
2762.068
0
VERTEX
8
0
10
1130.3333333333335
20
2762.068
0
VERTEX
8
0
10
1127.3333333333335
20
2762.5
0
VERTEX
8
0
10
1130.8333333333335
20
2762.5
0
SEQEND
0
POLYLINE
8
0
66
1
10
0.0
20
0.0
30
0.0
0
VERTEX
8
0
10
1130.3333333333335
20
2762.068
0
VERTEX
8
0
10
1130.3333333333335
20
2761.9320000000002
0
VERTEX
8
0
10
1131.3333333333335
20
2761.9320000000002
0
VERTEX
8
0
10
1131.3333333333335
20
2762.068
0
VERTEX
8
0
10
1130.3333333333335
20
2762.068
0
SEQEND
0
POLYLINE
8
0
66
1
10
0.0
20
0.0
30
0.0
0
VERTEX
8
0
10
1130.8333333333335
20
2761.9320000000002
0
VERTEX
8
0
10
1130.8333333333335
20
2761.5
0
VERTEX
8
0
10
1134.3333333333335
20
2761.5
0
VERTEX
8
0
10
1131.3333333333335
20
2761.9320000000002
0
VERTEX
8
0
10
1130.8333333333335
20
2761.9320000000002
0
SEQEND
0
POLYLINE
8
0
66
1
10
0.0
20
0.0
30
0.0
0
VERTEX
8
0
10
1130.8333333333335
20
2761.9320000000002
0
VERTEX
8
0
10
1130.8333333333335
20
2761.5
0
VERTEX
8
0
10
1127.3333333333335
20
2761.5
0
VERTEX
8
0
10
1130.3333333333335
20
2761.9320000000002
0
VERTEX
8
0
10
1130.8333333333335
20
2761.9320000000002
0
SEQEND
0
POLYLINE
8
0
66
1
10
0.0
20
0.0
30
0.0
0
VERTEX
8
0
10
1127.3333333333335
20
2762.0
0
VERTEX
8
0
10
1130.3333333333335
20
2762.0
0
VERTEX
8
0
10
1130.3333333333335
20
2762.068
0
VERTEX
8
0
10
1127.3333333333335
20
2762.5
0
VERTEX
8
0
10
1127.3333333333335
20
2762.0
0
SEQEND
0
POLYLINE
8
0
66
1
10
0.0
20
0.0
30
0.0
0
VERTEX
8
0
10
1127.3333333333335
20
2762.0
0
VERTEX
8
0
10
1130.3333333333335
20
2762.0
0
VERTEX
8
0
10
1130.3333333333335
20
2761.932
0
VERTEX
8
0
10
1127.3333333333335
20
2761.5
0
VERTEX
8
0
10
1127.3333333333335
20
2762.0
0
SEQEND
0
POLYLINE
8
0
66
1
10
0.0
20
0.0
30
0.0
0
VERTEX
8
0
10
1127.3333333333335
20
2761.5
0
VERTEX
8
0
10
1130.7433333333336
20
2761.5
0
VERTEX
8
0
10
1130.7433333333336
20
2762.5
0
VERTEX
8
0
10
1127.3333333333335
20
2762.5
0
VERTEX
8
0
10
1127.3333333333335
20
2761.5
0
SEQEND
0
POLYLINE
8
0
66
1
10
0.0
20
0.0
30
0.0
0
VERTEX
8
0
10
1143.0
20
2789.5
0
VERTEX
8
0
10
1143.0
20
2779.5
0
VERTEX
8
0
10
1150.0
20
2779.5
0
VERTEX
8
0
10
1150.0
20
2789.5
0
VERTEX
8
0
10
1143.0
20
2789.5
0
SEQEND
0
POLYLINE
8
0
66
1
10
0.0
20
0.0
30
0.0
0
VERTEX
8
0
10
1139.0
20
2785.5
0
VERTEX
8
0
10
1139.0
20
2783.5
0
VERTEX
8
0
10
1143.0
20
2783.5
0
VERTEX
8
0
10
1143.0
20
2785.5
0
VERTEX
8
0
10
1139.0
20
2785.5
0
SEQEND
0
POLYLINE
8
0
66
1
10
0.0
20
0.0
30
0.0
0
VERTEX
8
0
10
1089.0
20
2789.5
0
VERTEX
8
0
10
1089.0
20
2779.5
0
VERTEX
8
0
10
1096.0
20
2779.5
0
VERTEX
8
0
10
1096.0
20
2789.5
0
VERTEX
8
0
10
1089.0
20
2789.5
0
SEQEND
0
POLYLINE
8
0
66
1
10
0.0
20
0.0
30
0.0
0
VERTEX
8
0
10
1096.0
20
2785.5
0
VERTEX
8
0
10
1096.0
20
2783.5
0
VERTEX
8
0
10
1100.0
20
2783.5
0
VERTEX
8
0
10
1100.0
20
2785.5
0
VERTEX
8
0
10
1096.0
20
2785.5
0
SEQEND
0
POLYLINE
8
0
66
1
10
0.0
20
0.0
30
0.0
0
VERTEX
8
0
10
1118.5
20
2761.5
0
VERTEX
8
0
10
1118.5
20
2757.5
0
VERTEX
8
0
10
1120.5
20
2757.5
0
VERTEX
8
0
10
1120.5
20
2761.5
0
VERTEX
8
0
10
1118.5
20
2761.5
0
SEQEND
0
POLYLINE
8
0
66
1
10
0.0
20
0.0
30
0.0
0
VERTEX
8
0
10
1114.5
20
2757.5
0
VERTEX
8
0
10
1114.5
20
2750.5
0
VERTEX
8
0
10
1124.5
20
2750.5
0
VERTEX
8
0
10
1124.5
20
2757.5
0
VERTEX
8
0
10
1114.5
20
2757.5
0
SEQEND
0
POLYLINE
8
0
66
1
10
0.0
20
0.0
30
0.0
0
VERTEX
8
0
10
5500.0
20
4397.5
0
VERTEX
8
0
10
5500.0
20
4361.5
0
VERTEX
8
0
10
5539.0
20
4361.5
0
VERTEX
8
0
10
5539.0
20
4397.5
0
VERTEX
8
0
10
5500.0
20
4397.5
0
SEQEND
0
POLYLINE
8
0
66
1
10
0.0
20
0.0
30
0.0
0
VERTEX
8
0
10
5501.0
20
4396.5
0
VERTEX
8
0
10
5501.0
20
4376.7
0
VERTEX
8
0
10
5538.0
20
4376.7
0
VERTEX
8
0
10
5538.0
20
4396.5
0
VERTEX
8
0
10
5501.0
20
4396.5
0
SEQEND
0
POLYLINE
8
0
66
1
10
0.0
20
0.0
30
0.0
0
VERTEX
8
0
10
5501.0
20
4375.7
0
VERTEX
8
0
10
5501.0
20
4362.5
0
VERTEX
8
0
10
5538.0
20
4362.5
0
VERTEX
8
0
10
5538.0
20
4375.7
0
VERTEX
8
0
10
5501.0
20
4375.7
0
SEQEND
0
POLYLINE
8
0
66
1
10
0.0
20
0.0
30
0.0
0
VERTEX
8
0
10
5519.5
20
4397.5
0
VERTEX
8
0
10
5519.5
20
4397.0455
0
VERTEX
8
0
10
5520.0
20
4397.0455
0
VERTEX
8
0
10
5523.0
20
4397.5
0
VERTEX
8
0
10
5519.5
20
4397.5
0
SEQEND
0
POLYLINE
8
0
66
1
10
0.0
20
0.0
30
0.0
0
VERTEX
8
0
10
5519.5
20
4397.5
0
VERTEX
8
0
10
5519.5
20
4397.0455
0
VERTEX
8
0
10
5519.0
20
4397.0455
0
VERTEX
8
0
10
5516.0
20
4397.5
0
VERTEX
8
0
10
5519.5
20
4397.5
0
SEQEND
0
POLYLINE
8
0
66
1
10
0.0
20
0.0
30
0.0
0
VERTEX
8
0
10
5519.0
20
4397.0455
0
VERTEX
8
0
10
5519.0
20
4396.9545
0
VERTEX
8
0
10
5520.0
20
4396.9545
0
VERTEX
8
0
10
5520.0
20
4397.0455
0
VERTEX
8
0
10
5519.0
20
4397.0455
0
SEQEND
0
POLYLINE
8
0
66
1
10
0.0
20
0.0
30
0.0
0
VERTEX
8
0
10
5519.5
20
4396.9545
0
VERTEX
8
0
10
5519.5
20
4396.5
0
VERTEX
8
0
10
5523.0
20
4396.5
0
VERTEX
8
0
10
5520.0
20
4396.9545
0
VERTEX
8
0
10
5519.5
20
4396.9545
0
SEQEND
0
POLYLINE
8
0
66
1
10
0.0
20
0.0
30
0.0
0
VERTEX
8
0
10
5519.5
20
4396.9545
0
VERTEX
8
0
10
5519.5
20
4396.5
0
VERTEX
8
0
10
5516.0
20
4396.5
0
VERTEX
8
0
10
5519.0
20
4396.9545
0
VERTEX
8
0
10
5519.5
20
4396.9545
0
SEQEND
0
POLYLINE
8
0
66
1
10
0.0
20
0.0
30
0.0
0
VERTEX
8
0
10
5516.0
20
4397.0
0
VERTEX
8
0
10
5519.0
20
4397.0
0
VERTEX
8
0
10
5519.0
20
4397.0455
0
VERTEX
8
0
10
5516.0
20
4397.5
0
VERTEX
8
0
10
5516.0
20
4397.0
0
SEQEND
0
POLYLINE
8
0
66
1
10
0.0
20
0.0
30
0.0
0
VERTEX
8
0
10
5516.0
20
4397.0
0
VERTEX
8
0
10
5519.0
20
4397.0
0
VERTEX
8
0
10
5519.0
20
4396.9545
0
VERTEX
8
0
10
5516.0
20
4396.5
0
VERTEX
8
0
10
5516.0
20
4397.0
0
SEQEND
0
POLYLINE
8
0
66
1
10
0.0
20
0.0
30
0.0
0
VERTEX
8
0
10
5516.0
20
4396.5
0
VERTEX
8
0
10
5519.38
20
4396.5
0
VERTEX
8
0
10
5519.38
20
4397.5
0
VERTEX
8
0
10
5516.0
20
4397.5
0
VERTEX
8
0
10
5516.0
20
4396.5
0
SEQEND
0
POLYLINE
8
0
66
1
10
0.0
20
0.0
30
0.0
0
VERTEX
8
0
10
5519.5
20
4376.7
0
VERTEX
8
0
10
5519.5
20
4376.2429999999995
0
VERTEX
8
0
10
5520.0
20
4376.2429999999995
0
VERTEX
8
0
10
5523.0
20
4376.7
0
VERTEX
8
0
10
5519.5
20
4376.7
0
SEQEND
0
POLYLINE
8
0
66
1
10
0.0
20
0.0
30
0.0
0
VERTEX
8
0
10
5519.5
20
4376.7
0
VERTEX
8
0
10
5519.5
20
4376.2429999999995
0
VERTEX
8
0
10
5519.0
20
4376.2429999999995
0
VERTEX
8
0
10
5516.0
20
4376.7
0
VERTEX
8
0
10
5519.5
20
4376.7
0
SEQEND
0
POLYLINE
8
0
66
1
10
0.0
20
0.0
30
0.0
0
VERTEX
8
0
10
5519.0
20
4376.2429999999995
0
VERTEX
8
0
10
5519.0
20
4376.156999999999
0
VERTEX
8
0
10
5520.0
20
4376.156999999999
0
VERTEX
8
0
10
5520.0
20
4376.2429999999995
0
VERTEX
8
0
10
5519.0
20
4376.2429999999995
0
SEQEND
0
POLYLINE
8
0
66
1
10
0.0
20
0.0
30
0.0
0
VERTEX
8
0
10
5519.5
20
4376.156999999999
0
VERTEX
8
0
10
5519.5
20
4375.699999999999
0
VERTEX
8
0
10
5523.0
20
4375.699999999999
0
VERTEX
8
0
10
5520.0
20
4376.156999999999
0
VERTEX
8
0
10
5519.5
20
4376.156999999999
0
SEQEND
0
POLYLINE
8
0
66
1
10
0.0
20
0.0
30
0.0
0
VERTEX
8
0
10
5519.5
20
4376.156999999999
0
VERTEX
8
0
10
5519.5
20
4375.699999999999
0
VERTEX
8
0
10
5516.0
20
4375.699999999999
0
VERTEX
8
0
10
5519.0
20
4376.156999999999
0
VERTEX
8
0
10
5519.5
20
4376.156999999999
0
SEQEND
0
POLYLINE
8
0
66
1
10
0.0
20
0.0
30
0.0
0
VERTEX
8
0
10
5516.0
20
4376.2
0
VERTEX
8
0
10
5519.0
20
4376.2
0
VERTEX
8
0
10
5519.0
20
4376.2429999999995
0
VERTEX
8
0
10
5516.0
20
4376.7
0
VERTEX
8
0
10
5516.0
20
4376.2
0
SEQEND
0
POLYLINE
8
0
66
1
10
0.0
20
0.0
30
0.0
0
VERTEX
8
0
10
5516.0
20
4376.2
0
VERTEX
8
0
10
5519.0
20
4376.2
0
VERTEX
8
0
10
5519.0
20
4376.157
0
VERTEX
8
0
10
5516.0
20
4375.7
0
VERTEX
8
0
10
5516.0
20
4376.2
0
SEQEND
0
POLYLINE
8
0
66
1
10
0.0
20
0.0
30
0.0
0
VERTEX
8
0
10
5516.0
20
4375.7
0
VERTEX
8
0
10
5519.38
20
4375.7
0
VERTEX
8
0
10
5519.38
20
4376.7
0
VERTEX
8
0
10
5516.0
20
4376.7
0
VERTEX
8
0
10
5516.0
20
4375.7
0
SEQEND
0
POLYLINE
8
0
66
1
10
0.0
20
0.0
30
0.0
0
VERTEX
8
0
10
5508.166666666667
20
4362.5
0
VERTEX
8
0
10
5508.166666666667
20
4362.068
0
VERTEX
8
0
10
5508.666666666667
20
4362.068
0
VERTEX
8
0
10
5511.666666666667
20
4362.5
0
VERTEX
8
0
10
5508.166666666667
20
4362.5
0
SEQEND
0
POLYLINE
8
0
66
1
10
0.0
20
0.0
30
0.0
0
VERTEX
8
0
10
5508.166666666667
20
4362.5
0
VERTEX
8
0
10
5508.166666666667
20
4362.068
0
VERTEX
8
0
10
5507.666666666667
20
4362.068
0
VERTEX
8
0
10
5504.666666666667
20
4362.5
0
VERTEX
8
0
10
5508.166666666667
20
4362.5
0
SEQEND
0
POLYLINE
8
0
66
1
10
0.0
20
0.0
30
0.0
0
VERTEX
8
0
10
5507.666666666667
20
4362.068
0
VERTEX
8
0
10
5507.666666666667
20
4361.932
0
VERTEX
8
0
10
5508.666666666667
20
4361.932
0
VERTEX
8
0
10
5508.666666666667
20
4362.068
0
VERTEX
8
0
10
5507.666666666667
20
4362.068
0
SEQEND
0
POLYLINE
8
0
66
1
10
0.0
20
0.0
30
0.0
0
VERTEX
8
0
10
5508.166666666667
20
4361.932
0
VERTEX
8
0
10
5508.166666666667
20
4361.5
0
VERTEX
8
0
10
5511.666666666667
20
4361.5
0
VERTEX
8
0
10
5508.666666666667
20
4361.932
0
VERTEX
8
0
10
5508.166666666667
20
4361.932
0
SEQEND
0
POLYLINE
8
0
66
1
10
0.0
20
0.0
30
0.0
0
VERTEX
8
0
10
5508.166666666667
20
4361.932
0
VERTEX
8
0
10
5508.166666666667
20
4361.5
0
VERTEX
8
0
10
5504.666666666667
20
4361.5
0
VERTEX
8
0
10
5507.666666666667
20
4361.932
0
VERTEX
8
0
10
5508.166666666667
20
4361.932
0
SEQEND
0
POLYLINE
8
0
66
1
10
0.0
20
0.0
30
0.0
0
VERTEX
8
0
10
5504.666666666667
20
4362.0
0
VERTEX
8
0
10
5507.666666666667
20
4362.0
0
VERTEX
8
0
10
5507.666666666667
20
4362.068
0
VERTEX
8
0
10
5504.666666666667
20
4362.5
0
VERTEX
8
0
10
5504.666666666667
20
4362.0
0
SEQEND
0
POLYLINE
8
0
66
1
10
0.0
20
0.0
30
0.0
0
VERTEX
8
0
10
5504.666666666667
20
4362.0
0
VERTEX
8
0
10
5507.666666666667
20
4362.0
0
VERTEX
8
0
10
5507.666666666667
20
4361.932
0
VERTEX
8
0
10
5504.666666666667
20
4361.5
0
VERTEX
8
0
10
5504.666666666667
20
4362.0
0
SEQEND
0
POLYLINE
8
0
66
1
10
0.0
20
0.0
30
0.0
0
VERTEX
8
0
10
5504.666666666667
20
4361.5
0
VERTEX
8
0
10
5508.056666666667
20
4361.5
0
VERTEX
8
0
10
5508.056666666667
20
4362.5
0
VERTEX
8
0
10
5504.666666666667
20
4362.5
0
VERTEX
8
0
10
5504.666666666667
20
4361.5
0
SEQEND
0
POLYLINE
8
0
66
1
10
0.0
20
0.0
30
0.0
0
VERTEX
8
0
10
5530.833333333334
20
4362.5
0
VERTEX
8
0
10
5530.833333333334
20
4362.068
0
VERTEX
8
0
10
5531.333333333334
20
4362.068
0
VERTEX
8
0
10
5534.333333333334
20
4362.5
0
VERTEX
8
0
10
5530.833333333334
20
4362.5
0
SEQEND
0
POLYLINE
8
0
66
1
10
0.0
20
0.0
30
0.0
0
VERTEX
8
0
10
5530.833333333334
20
4362.5
0
VERTEX
8
0
10
5530.833333333334
20
4362.068
0
VERTEX
8
0
10
5530.333333333334
20
4362.068
0
VERTEX
8
0
10
5527.333333333334
20
4362.5
0
VERTEX
8
0
10
5530.833333333334
20
4362.5
0
SEQEND
0
POLYLINE
8
0
66
1
10
0.0
20
0.0
30
0.0
0
VERTEX
8
0
10
5530.743333333334
20
4362.068
0
VERTEX
8
0
10
5530.743333333334
20
4361.932
0
VERTEX
8
0
10
5530.923333333334
20
4361.932
0
VERTEX
8
0
10
5530.923333333334
20
4362.068
0
VERTEX
8
0
10
5530.743333333334
20
4362.068
0
SEQEND
0
POLYLINE
8
0
66
1
10
0.0
20
0.0
30
0.0
0
VERTEX
8
0
10
5530.833333333334
20
4361.932
0
VERTEX
8
0
10
5530.833333333334
20
4361.5
0
VERTEX
8
0
10
5534.333333333334
20
4361.5
0
VERTEX
8
0
10
5531.333333333334
20
4361.932
0
VERTEX
8
0
10
5530.833333333334
20
4361.932
0
SEQEND
0
POLYLINE
8
0
66
1
10
0.0
20
0.0
30
0.0
0
VERTEX
8
0
10
5530.833333333334
20
4361.932
0
VERTEX
8
0
10
5530.833333333334
20
4361.5
0
VERTEX
8
0
10
5527.333333333334
20
4361.5
0
VERTEX
8
0
10
5530.333333333334
20
4361.932
0
VERTEX
8
0
10
5530.833333333334
20
4361.932
0
SEQEND
0
POLYLINE
8
0
66
1
10
0.0
20
0.0
30
0.0
0
VERTEX
8
0
10
5527.333333333334
20
4362.0
0
VERTEX
8
0
10
5530.333333333334
20
4362.0
0
VERTEX
8
0
10
5530.333333333334
20
4362.068
0
VERTEX
8
0
10
5527.333333333334
20
4362.5
0
VERTEX
8
0
10
5527.333333333334
20
4362.0
0
SEQEND
0
POLYLINE
8
0
66
1
10
0.0
20
0.0
30
0.0
0
VERTEX
8
0
10
5527.333333333334
20
4362.0
0
VERTEX
8
0
10
5530.333333333334
20
4362.0
0
VERTEX
8
0
10
5530.333333333334
20
4361.932
0
VERTEX
8
0
10
5527.333333333334
20
4361.5
0
VERTEX
8
0
10
5527.333333333334
20
4362.0
0
SEQEND
0
POLYLINE
8
0
66
1
10
0.0
20
0.0
30
0.0
0
VERTEX
8
0
10
5530.333333333334
20
4361.932
0
VERTEX
8
0
10
5530.743333333334
20
4361.932
0
VERTEX
8
0
10
5530.743333333334
20
4362.068
0
VERTEX
8
0
10
5530.333333333334
20
4362.068
0
VERTEX
8
0
10
5530.333333333334
20
4361.932
0
SEQEND
0
POLYLINE
8
0
66
1
10
0.0
20
0.0
30
0.0
0
VERTEX
8
0
10
5527.333333333334
20
4361.5
0
VERTEX
8
0
10
5530.743333333334
20
4361.5
0
VERTEX
8
0
10
5530.743333333334
20
4362.5
0
VERTEX
8
0
10
5527.333333333334
20
4362.5
0
VERTEX
8
0
10
5527.333333333334
20
4361.5
0
SEQEND
0
POLYLINE
8
0
66
1
10
0.0
20
0.0
30
0.0
0
VERTEX
8
0
10
5543.0
20
4389.5
0
VERTEX
8
0
10
5543.0
20
4379.5
0
VERTEX
8
0
10
5550.0
20
4379.5
0
VERTEX
8
0
10
5550.0
20
4389.5
0
VERTEX
8
0
10
5543.0
20
4389.5
0
SEQEND
0
POLYLINE
8
0
66
1
10
0.0
20
0.0
30
0.0
0
VERTEX
8
0
10
5539.0
20
4385.5
0
VERTEX
8
0
10
5539.0
20
4383.5
0
VERTEX
8
0
10
5543.0
20
4383.5
0
VERTEX
8
0
10
5543.0
20
4385.5
0
VERTEX
8
0
10
5539.0
20
4385.5
0
SEQEND
0
POLYLINE
8
0
66
1
10
0.0
20
0.0
30
0.0
0
VERTEX
8
0
10
5489.0
20
4389.5
0
VERTEX
8
0
10
5489.0
20
4379.5
0
VERTEX
8
0
10
5496.0
20
4379.5
0
VERTEX
8
0
10
5496.0
20
4389.5
0
VERTEX
8
0
10
5489.0
20
4389.5
0
SEQEND
0
POLYLINE
8
0
66
1
10
0.0
20
0.0
30
0.0
0
VERTEX
8
0
10
5496.0
20
4385.5
0
VERTEX
8
0
10
5496.0
20
4383.5
0
VERTEX
8
0
10
5500.0
20
4383.5
0
VERTEX
8
0
10
5500.0
20
4385.5
0
VERTEX
8
0
10
5496.0
20
4385.5
0
SEQEND
0
POLYLINE
8
0
66
1
10
0.0
20
0.0
30
0.0
0
VERTEX
8
0
10
5518.5
20
4361.5
0
VERTEX
8
0
10
5518.5
20
4357.5
0
VERTEX
8
0
10
5520.5
20
4357.5
0
VERTEX
8
0
10
5520.5
20
4361.5
0
VERTEX
8
0
10
5518.5
20
4361.5
0
SEQEND
0
POLYLINE
8
0
66
1
10
0.0
20
0.0
30
0.0
0
VERTEX
8
0
10
5514.5
20
4357.5
0
VERTEX
8
0
10
5514.5
20
4350.5
0
VERTEX
8
0
10
5524.5
20
4350.5
0
VERTEX
8
0
10
5524.5
20
4357.5
0
VERTEX
8
0
10
5514.5
20
4357.5
0
SEQEND
0
POLYLINE
8
0
66
1
10
0.0
20
0.0
30
0.0
0
VERTEX
8
0
10
5500.0
20
2797.5
0
VERTEX
8
0
10
5500.0
20
2761.5
0
VERTEX
8
0
10
5539.0
20
2761.5
0
VERTEX
8
0
10
5539.0
20
2797.5
0
VERTEX
8
0
10
5500.0
20
2797.5
0
SEQEND
0
POLYLINE
8
0
66
1
10
0.0
20
0.0
30
0.0
0
VERTEX
8
0
10
5501.0
20
2796.5
0
VERTEX
8
0
10
5501.0
20
2776.7
0
VERTEX
8
0
10
5538.0
20
2776.7
0
VERTEX
8
0
10
5538.0
20
2796.5
0
VERTEX
8
0
10
5501.0
20
2796.5
0
SEQEND
0
POLYLINE
8
0
66
1
10
0.0
20
0.0
30
0.0
0
VERTEX
8
0
10
5501.0
20
2775.7
0
VERTEX
8
0
10
5501.0
20
2762.5
0
VERTEX
8
0
10
5538.0
20
2762.5
0
VERTEX
8
0
10
5538.0
20
2775.7
0
VERTEX
8
0
10
5501.0
20
2775.7
0
SEQEND
0
POLYLINE
8
0
66
1
10
0.0
20
0.0
30
0.0
0
VERTEX
8
0
10
5519.5
20
2797.5
0
VERTEX
8
0
10
5519.5
20
2797.0455
0
VERTEX
8
0
10
5520.0
20
2797.0455
0
VERTEX
8
0
10
5523.0
20
2797.5
0
VERTEX
8
0
10
5519.5
20
2797.5
0
SEQEND
0
POLYLINE
8
0
66
1
10
0.0
20
0.0
30
0.0
0
VERTEX
8
0
10
5519.5
20
2797.5
0
VERTEX
8
0
10
5519.5
20
2797.0455
0
VERTEX
8
0
10
5519.0
20
2797.0455
0
VERTEX
8
0
10
5516.0
20
2797.5
0
VERTEX
8
0
10
5519.5
20
2797.5
0
SEQEND
0
POLYLINE
8
0
66
1
10
0.0
20
0.0
30
0.0
0
VERTEX
8
0
10
5519.0
20
2797.0455
0
VERTEX
8
0
10
5519.0
20
2796.9545
0
VERTEX
8
0
10
5520.0
20
2796.9545
0
VERTEX
8
0
10
5520.0
20
2797.0455
0
VERTEX
8
0
10
5519.0
20
2797.0455
0
SEQEND
0
POLYLINE
8
0
66
1
10
0.0
20
0.0
30
0.0
0
VERTEX
8
0
10
5519.5
20
2796.9545000000003
0
VERTEX
8
0
10
5519.5
20
2796.5000000000005
0
VERTEX
8
0
10
5523.0
20
2796.5000000000005
0
VERTEX
8
0
10
5520.0
20
2796.9545000000003
0
VERTEX
8
0
10
5519.5
20
2796.9545000000003
0
SEQEND
0
POLYLINE
8
0
66
1
10
0.0
20
0.0
30
0.0
0
VERTEX
8
0
10
5519.5
20
2796.9545000000003
0
VERTEX
8
0
10
5519.5
20
2796.5000000000005
0
VERTEX
8
0
10
5516.0
20
2796.5000000000005
0
VERTEX
8
0
10
5519.0
20
2796.9545000000003
0
VERTEX
8
0
10
5519.5
20
2796.9545000000003
0
SEQEND
0
POLYLINE
8
0
66
1
10
0.0
20
0.0
30
0.0
0
VERTEX
8
0
10
5516.0
20
2797.0
0
VERTEX
8
0
10
5519.0
20
2797.0
0
VERTEX
8
0
10
5519.0
20
2797.0455
0
VERTEX
8
0
10
5516.0
20
2797.5
0
VERTEX
8
0
10
5516.0
20
2797.0
0
SEQEND
0
POLYLINE
8
0
66
1
10
0.0
20
0.0
30
0.0
0
VERTEX
8
0
10
5516.0
20
2797.0
0
VERTEX
8
0
10
5519.0
20
2797.0
0
VERTEX
8
0
10
5519.0
20
2796.9545
0
VERTEX
8
0
10
5516.0
20
2796.5
0
VERTEX
8
0
10
5516.0
20
2797.0
0
SEQEND
0
POLYLINE
8
0
66
1
10
0.0
20
0.0
30
0.0
0
VERTEX
8
0
10
5516.0
20
2796.5
0
VERTEX
8
0
10
5519.38
20
2796.5
0
VERTEX
8
0
10
5519.38
20
2797.5
0
VERTEX
8
0
10
5516.0
20
2797.5
0
VERTEX
8
0
10
5516.0
20
2796.5
0
SEQEND
0
POLYLINE
8
0
66
1
10
0.0
20
0.0
30
0.0
0
VERTEX
8
0
10
5519.5
20
2776.7
0
VERTEX
8
0
10
5519.5
20
2776.2429999999995
0
VERTEX
8
0
10
5520.0
20
2776.2429999999995
0
VERTEX
8
0
10
5523.0
20
2776.7
0
VERTEX
8
0
10
5519.5
20
2776.7
0
SEQEND
0
POLYLINE
8
0
66
1
10
0.0
20
0.0
30
0.0
0
VERTEX
8
0
10
5519.5
20
2776.7
0
VERTEX
8
0
10
5519.5
20
2776.2429999999995
0
VERTEX
8
0
10
5519.0
20
2776.2429999999995
0
VERTEX
8
0
10
5516.0
20
2776.7
0
VERTEX
8
0
10
5519.5
20
2776.7
0
SEQEND
0
POLYLINE
8
0
66
1
10
0.0
20
0.0
30
0.0
0
VERTEX
8
0
10
5519.0
20
2776.243
0
VERTEX
8
0
10
5519.0
20
2776.1569999999997
0
VERTEX
8
0
10
5520.0
20
2776.1569999999997
0
VERTEX
8
0
10
5520.0
20
2776.243
0
VERTEX
8
0
10
5519.0
20
2776.243
0
SEQEND
0
POLYLINE
8
0
66
1
10
0.0
20
0.0
30
0.0
0
VERTEX
8
0
10
5519.5
20
2776.157
0
VERTEX
8
0
10
5519.5
20
2775.7
0
VERTEX
8
0
10
5523.0
20
2775.7
0
VERTEX
8
0
10
5520.0
20
2776.157
0
VERTEX
8
0
10
5519.5
20
2776.157
0
SEQEND
0
POLYLINE
8
0
66
1
10
0.0
20
0.0
30
0.0
0
VERTEX
8
0
10
5519.5
20
2776.157
0
VERTEX
8
0
10
5519.5
20
2775.7
0
VERTEX
8
0
10
5516.0
20
2775.7
0
VERTEX
8
0
10
5519.0
20
2776.157
0
VERTEX
8
0
10
5519.5
20
2776.157
0
SEQEND
0
POLYLINE
8
0
66
1
10
0.0
20
0.0
30
0.0
0
VERTEX
8
0
10
5516.0
20
2776.2
0
VERTEX
8
0
10
5519.0
20
2776.2
0
VERTEX
8
0
10
5519.0
20
2776.243
0
VERTEX
8
0
10
5516.0
20
2776.7
0
VERTEX
8
0
10
5516.0
20
2776.2
0
SEQEND
0
POLYLINE
8
0
66
1
10
0.0
20
0.0
30
0.0
0
VERTEX
8
0
10
5516.0
20
2776.2
0
VERTEX
8
0
10
5519.0
20
2776.2
0
VERTEX
8
0
10
5519.0
20
2776.1569999999997
0
VERTEX
8
0
10
5516.0
20
2775.7
0
VERTEX
8
0
10
5516.0
20
2776.2
0
SEQEND
0
POLYLINE
8
0
66
1
10
0.0
20
0.0
30
0.0
0
VERTEX
8
0
10
5516.0
20
2775.7
0
VERTEX
8
0
10
5519.38
20
2775.7
0
VERTEX
8
0
10
5519.38
20
2776.7
0
VERTEX
8
0
10
5516.0
20
2776.7
0
VERTEX
8
0
10
5516.0
20
2775.7
0
SEQEND
0
POLYLINE
8
0
66
1
10
0.0
20
0.0
30
0.0
0
VERTEX
8
0
10
5508.166666666667
20
2762.5
0
VERTEX
8
0
10
5508.166666666667
20
2762.068
0
VERTEX
8
0
10
5508.666666666667
20
2762.068
0
VERTEX
8
0
10
5511.666666666667
20
2762.5
0
VERTEX
8
0
10
5508.166666666667
20
2762.5
0
SEQEND
0
POLYLINE
8
0
66
1
10
0.0
20
0.0
30
0.0
0
VERTEX
8
0
10
5508.166666666667
20
2762.5
0
VERTEX
8
0
10
5508.166666666667
20
2762.068
0
VERTEX
8
0
10
5507.666666666667
20
2762.068
0
VERTEX
8
0
10
5504.666666666667
20
2762.5
0
VERTEX
8
0
10
5508.166666666667
20
2762.5
0
SEQEND
0
POLYLINE
8
0
66
1
10
0.0
20
0.0
30
0.0
0
VERTEX
8
0
10
5508.056666666667
20
2762.068
0
VERTEX
8
0
10
5508.056666666667
20
2761.932
0
VERTEX
8
0
10
5508.276666666667
20
2761.932
0
VERTEX
8
0
10
5508.276666666667
20
2762.068
0
VERTEX
8
0
10
5508.056666666667
20
2762.068
0
SEQEND
0
POLYLINE
8
0
66
1
10
0.0
20
0.0
30
0.0
0
VERTEX
8
0
10
5508.166666666667
20
2761.9320000000002
0
VERTEX
8
0
10
5508.166666666667
20
2761.5000000000005
0
VERTEX
8
0
10
5511.666666666667
20
2761.5000000000005
0
VERTEX
8
0
10
5508.666666666667
20
2761.9320000000002
0
VERTEX
8
0
10
5508.166666666667
20
2761.9320000000002
0
SEQEND
0
POLYLINE
8
0
66
1
10
0.0
20
0.0
30
0.0
0
VERTEX
8
0
10
5508.166666666667
20
2761.9320000000002
0
VERTEX
8
0
10
5508.166666666667
20
2761.5000000000005
0
VERTEX
8
0
10
5504.666666666667
20
2761.5000000000005
0
VERTEX
8
0
10
5507.666666666667
20
2761.9320000000002
0
VERTEX
8
0
10
5508.166666666667
20
2761.9320000000002
0
SEQEND
0
POLYLINE
8
0
66
1
10
0.0
20
0.0
30
0.0
0
VERTEX
8
0
10
5504.666666666667
20
2762.0
0
VERTEX
8
0
10
5507.666666666667
20
2762.0
0
VERTEX
8
0
10
5507.666666666667
20
2762.068
0
VERTEX
8
0
10
5504.666666666667
20
2762.5
0
VERTEX
8
0
10
5504.666666666667
20
2762.0
0
SEQEND
0
POLYLINE
8
0
66
1
10
0.0
20
0.0
30
0.0
0
VERTEX
8
0
10
5504.666666666667
20
2762.0
0
VERTEX
8
0
10
5507.666666666667
20
2762.0
0
VERTEX
8
0
10
5507.666666666667
20
2761.932
0
VERTEX
8
0
10
5504.666666666667
20
2761.5
0
VERTEX
8
0
10
5504.666666666667
20
2762.0
0
SEQEND
0
POLYLINE
8
0
66
1
10
0.0
20
0.0
30
0.0
0
VERTEX
8
0
10
5507.666666666667
20
2761.932
0
VERTEX
8
0
10
5508.056666666667
20
2761.932
0
VERTEX
8
0
10
5508.056666666667
20
2762.068
0
VERTEX
8
0
10
5507.666666666667
20
2762.068
0
VERTEX
8
0
10
5507.666666666667
20
2761.932
0
SEQEND
0
POLYLINE
8
0
66
1
10
0.0
20
0.0
30
0.0
0
VERTEX
8
0
10
5504.666666666667
20
2761.5
0
VERTEX
8
0
10
5508.056666666667
20
2761.5
0
VERTEX
8
0
10
5508.056666666667
20
2762.5
0
VERTEX
8
0
10
5504.666666666667
20
2762.5
0
VERTEX
8
0
10
5504.666666666667
20
2761.5
0
SEQEND
0
POLYLINE
8
0
66
1
10
0.0
20
0.0
30
0.0
0
VERTEX
8
0
10
5530.833333333334
20
2762.5
0
VERTEX
8
0
10
5530.833333333334
20
2762.068
0
VERTEX
8
0
10
5531.333333333334
20
2762.068
0
VERTEX
8
0
10
5534.333333333334
20
2762.5
0
VERTEX
8
0
10
5530.833333333334
20
2762.5
0
SEQEND
0
POLYLINE
8
0
66
1
10
0.0
20
0.0
30
0.0
0
VERTEX
8
0
10
5530.833333333334
20
2762.5
0
VERTEX
8
0
10
5530.833333333334
20
2762.068
0
VERTEX
8
0
10
5530.333333333334
20
2762.068
0
VERTEX
8
0
10
5527.333333333334
20
2762.5
0
VERTEX
8
0
10
5530.833333333334
20
2762.5
0
SEQEND
0
POLYLINE
8
0
66
1
10
0.0
20
0.0
30
0.0
0
VERTEX
8
0
10
5530.333333333334
20
2762.068
0
VERTEX
8
0
10
5530.333333333334
20
2761.932
0
VERTEX
8
0
10
5531.333333333334
20
2761.932
0
VERTEX
8
0
10
5531.333333333334
20
2762.068
0
VERTEX
8
0
10
5530.333333333334
20
2762.068
0
SEQEND
0
POLYLINE
8
0
66
1
10
0.0
20
0.0
30
0.0
0
VERTEX
8
0
10
5530.833333333334
20
2761.9320000000002
0
VERTEX
8
0
10
5530.833333333334
20
2761.5000000000005
0
VERTEX
8
0
10
5534.333333333334
20
2761.5000000000005
0
VERTEX
8
0
10
5531.333333333334
20
2761.9320000000002
0
VERTEX
8
0
10
5530.833333333334
20
2761.9320000000002
0
SEQEND
0
POLYLINE
8
0
66
1
10
0.0
20
0.0
30
0.0
0
VERTEX
8
0
10
5530.833333333334
20
2761.9320000000002
0
VERTEX
8
0
10
5530.833333333334
20
2761.5000000000005
0
VERTEX
8
0
10
5527.333333333334
20
2761.5000000000005
0
VERTEX
8
0
10
5530.333333333334
20
2761.9320000000002
0
VERTEX
8
0
10
5530.833333333334
20
2761.9320000000002
0
SEQEND
0
POLYLINE
8
0
66
1
10
0.0
20
0.0
30
0.0
0
VERTEX
8
0
10
5527.333333333334
20
2762.0
0
VERTEX
8
0
10
5530.333333333334
20
2762.0
0
VERTEX
8
0
10
5530.333333333334
20
2762.068
0
VERTEX
8
0
10
5527.333333333334
20
2762.5
0
VERTEX
8
0
10
5527.333333333334
20
2762.0
0
SEQEND
0
POLYLINE
8
0
66
1
10
0.0
20
0.0
30
0.0
0
VERTEX
8
0
10
5527.333333333334
20
2762.0
0
VERTEX
8
0
10
5530.333333333334
20
2762.0
0
VERTEX
8
0
10
5530.333333333334
20
2761.932
0
VERTEX
8
0
10
5527.333333333334
20
2761.5
0
VERTEX
8
0
10
5527.333333333334
20
2762.0
0
SEQEND
0
POLYLINE
8
0
66
1
10
0.0
20
0.0
30
0.0
0
VERTEX
8
0
10
5527.333333333334
20
2761.5
0
VERTEX
8
0
10
5530.743333333334
20
2761.5
0
VERTEX
8
0
10
5530.743333333334
20
2762.5
0
VERTEX
8
0
10
5527.333333333334
20
2762.5
0
VERTEX
8
0
10
5527.333333333334
20
2761.5
0
SEQEND
0
POLYLINE
8
0
66
1
10
0.0
20
0.0
30
0.0
0
VERTEX
8
0
10
5543.0
20
2789.5
0
VERTEX
8
0
10
5543.0
20
2779.5
0
VERTEX
8
0
10
5550.0
20
2779.5
0
VERTEX
8
0
10
5550.0
20
2789.5
0
VERTEX
8
0
10
5543.0
20
2789.5
0
SEQEND
0
POLYLINE
8
0
66
1
10
0.0
20
0.0
30
0.0
0
VERTEX
8
0
10
5539.0
20
2785.5
0
VERTEX
8
0
10
5539.0
20
2783.5
0
VERTEX
8
0
10
5543.0
20
2783.5
0
VERTEX
8
0
10
5543.0
20
2785.5
0
VERTEX
8
0
10
5539.0
20
2785.5
0
SEQEND
0
POLYLINE
8
0
66
1
10
0.0
20
0.0
30
0.0
0
VERTEX
8
0
10
5489.0
20
2789.5
0
VERTEX
8
0
10
5489.0
20
2779.5
0
VERTEX
8
0
10
5496.0
20
2779.5
0
VERTEX
8
0
10
5496.0
20
2789.5
0
VERTEX
8
0
10
5489.0
20
2789.5
0
SEQEND
0
POLYLINE
8
0
66
1
10
0.0
20
0.0
30
0.0
0
VERTEX
8
0
10
5496.0
20
2785.5
0
VERTEX
8
0
10
5496.0
20
2783.5
0
VERTEX
8
0
10
5500.0
20
2783.5
0
VERTEX
8
0
10
5500.0
20
2785.5
0
VERTEX
8
0
10
5496.0
20
2785.5
0
SEQEND
0
POLYLINE
8
0
66
1
10
0.0
20
0.0
30
0.0
0
VERTEX
8
0
10
5518.5
20
2761.5
0
VERTEX
8
0
10
5518.5
20
2757.5
0
VERTEX
8
0
10
5520.5
20
2757.5
0
VERTEX
8
0
10
5520.5
20
2761.5
0
VERTEX
8
0
10
5518.5
20
2761.5
0
SEQEND
0
POLYLINE
8
0
66
1
10
0.0
20
0.0
30
0.0
0
VERTEX
8
0
10
5514.5
20
2757.5
0
VERTEX
8
0
10
5514.5
20
2750.5
0
VERTEX
8
0
10
5524.5
20
2750.5
0
VERTEX
8
0
10
5524.5
20
2757.5
0
VERTEX
8
0
10
5514.5
20
2757.5
0
SEQEND
0
POLYLINE
8
0
66
1
10
0.0
20
0.0
30
0.0
0
VERTEX
8
0
10
3300.0
20
3397.5
0
VERTEX
8
0
10
3300.0
20
3361.5
0
VERTEX
8
0
10
3339.0
20
3361.5
0
VERTEX
8
0
10
3339.0
20
3397.5
0
VERTEX
8
0
10
3300.0
20
3397.5
0
SEQEND
0
POLYLINE
8
0
66
1
10
0.0
20
0.0
30
0.0
0
VERTEX
8
0
10
3301.0
20
3396.5
0
VERTEX
8
0
10
3301.0
20
3376.7
0
VERTEX
8
0
10
3338.0
20
3376.7
0
VERTEX
8
0
10
3338.0
20
3396.5
0
VERTEX
8
0
10
3301.0
20
3396.5
0
SEQEND
0
POLYLINE
8
0
66
1
10
0.0
20
0.0
30
0.0
0
VERTEX
8
0
10
3301.0
20
3375.7
0
VERTEX
8
0
10
3301.0
20
3362.5
0
VERTEX
8
0
10
3338.0
20
3362.5
0
VERTEX
8
0
10
3338.0
20
3375.7
0
VERTEX
8
0
10
3301.0
20
3375.7
0
SEQEND
0
POLYLINE
8
0
66
1
10
0.0
20
0.0
30
0.0
0
VERTEX
8
0
10
3319.5
20
3397.5
0
VERTEX
8
0
10
3319.5
20
3397.0455
0
VERTEX
8
0
10
3320.0
20
3397.0455
0
VERTEX
8
0
10
3323.0
20
3397.5
0
VERTEX
8
0
10
3319.5
20
3397.5
0
SEQEND
0
POLYLINE
8
0
66
1
10
0.0
20
0.0
30
0.0
0
VERTEX
8
0
10
3319.5
20
3397.5
0
VERTEX
8
0
10
3319.5
20
3397.0455
0
VERTEX
8
0
10
3319.0
20
3397.0455
0
VERTEX
8
0
10
3316.0
20
3397.5
0
VERTEX
8
0
10
3319.5
20
3397.5
0
SEQEND
0
POLYLINE
8
0
66
1
10
0.0
20
0.0
30
0.0
0
VERTEX
8
0
10
3319.38
20
3397.0455
0
VERTEX
8
0
10
3319.38
20
3396.9545000000003
0
VERTEX
8
0
10
3319.62
20
3396.9545000000003
0
VERTEX
8
0
10
3319.62
20
3397.0455
0
VERTEX
8
0
10
3319.38
20
3397.0455
0
SEQEND
0
POLYLINE
8
0
66
1
10
0.0
20
0.0
30
0.0
0
VERTEX
8
0
10
3319.5
20
3396.9545000000003
0
VERTEX
8
0
10
3319.5
20
3396.5000000000005
0
VERTEX
8
0
10
3323.0
20
3396.5000000000005
0
VERTEX
8
0
10
3320.0
20
3396.9545000000003
0
VERTEX
8
0
10
3319.5
20
3396.9545000000003
0
SEQEND
0
POLYLINE
8
0
66
1
10
0.0
20
0.0
30
0.0
0
VERTEX
8
0
10
3319.5
20
3396.9545000000003
0
VERTEX
8
0
10
3319.5
20
3396.5000000000005
0
VERTEX
8
0
10
3316.0
20
3396.5000000000005
0
VERTEX
8
0
10
3319.0
20
3396.9545000000003
0
VERTEX
8
0
10
3319.5
20
3396.9545000000003
0
SEQEND
0
POLYLINE
8
0
66
1
10
0.0
20
0.0
30
0.0
0
VERTEX
8
0
10
3316.0
20
3397.0
0
VERTEX
8
0
10
3319.0
20
3397.0
0
VERTEX
8
0
10
3319.0
20
3397.0455
0
VERTEX
8
0
10
3316.0
20
3397.5
0
VERTEX
8
0
10
3316.0
20
3397.0
0
SEQEND
0
POLYLINE
8
0
66
1
10
0.0
20
0.0
30
0.0
0
VERTEX
8
0
10
3316.0
20
3397.0
0
VERTEX
8
0
10
3319.0
20
3397.0
0
VERTEX
8
0
10
3319.0
20
3396.9545
0
VERTEX
8
0
10
3316.0
20
3396.5
0
VERTEX
8
0
10
3316.0
20
3397.0
0
SEQEND
0
POLYLINE
8
0
66
1
10
0.0
20
0.0
30
0.0
0
VERTEX
8
0
10
3319.0
20
3396.9545
0
VERTEX
8
0
10
3319.38
20
3396.9545
0
VERTEX
8
0
10
3319.38
20
3397.0455
0
VERTEX
8
0
10
3319.0
20
3397.0455
0
VERTEX
8
0
10
3319.0
20
3396.9545
0
SEQEND
0
POLYLINE
8
0
66
1
10
0.0
20
0.0
30
0.0
0
VERTEX
8
0
10
3316.0
20
3396.5
0
VERTEX
8
0
10
3319.38
20
3396.5
0
VERTEX
8
0
10
3319.38
20
3397.5
0
VERTEX
8
0
10
3316.0
20
3397.5
0
VERTEX
8
0
10
3316.0
20
3396.5
0
SEQEND
0
POLYLINE
8
0
66
1
10
0.0
20
0.0
30
0.0
0
VERTEX
8
0
10
3319.5
20
3376.7
0
VERTEX
8
0
10
3319.5
20
3376.243
0
VERTEX
8
0
10
3320.0
20
3376.243
0
VERTEX
8
0
10
3323.0
20
3376.7
0
VERTEX
8
0
10
3319.5
20
3376.7
0
SEQEND
0
POLYLINE
8
0
66
1
10
0.0
20
0.0
30
0.0
0
VERTEX
8
0
10
3319.5
20
3376.7
0
VERTEX
8
0
10
3319.5
20
3376.243
0
VERTEX
8
0
10
3319.0
20
3376.243
0
VERTEX
8
0
10
3316.0
20
3376.7
0
VERTEX
8
0
10
3319.5
20
3376.7
0
SEQEND
0
POLYLINE
8
0
66
1
10
0.0
20
0.0
30
0.0
0
VERTEX
8
0
10
3319.38
20
3376.243
0
VERTEX
8
0
10
3319.38
20
3376.157
0
VERTEX
8
0
10
3319.62
20
3376.157
0
VERTEX
8
0
10
3319.62
20
3376.243
0
VERTEX
8
0
10
3319.38
20
3376.243
0
SEQEND
0
POLYLINE
8
0
66
1
10
0.0
20
0.0
30
0.0
0
VERTEX
8
0
10
3319.5
20
3376.157
0
VERTEX
8
0
10
3319.5
20
3375.7000000000003
0
VERTEX
8
0
10
3323.0
20
3375.7000000000003
0
VERTEX
8
0
10
3320.0
20
3376.157
0
VERTEX
8
0
10
3319.5
20
3376.157
0
SEQEND
0
POLYLINE
8
0
66
1
10
0.0
20
0.0
30
0.0
0
VERTEX
8
0
10
3319.5
20
3376.157
0
VERTEX
8
0
10
3319.5
20
3375.7000000000003
0
VERTEX
8
0
10
3316.0
20
3375.7000000000003
0
VERTEX
8
0
10
3319.0
20
3376.157
0
VERTEX
8
0
10
3319.5
20
3376.157
0
SEQEND
0
POLYLINE
8
0
66
1
10
0.0
20
0.0
30
0.0
0
VERTEX
8
0
10
3316.0
20
3376.2
0
VERTEX
8
0
10
3319.0
20
3376.2
0
VERTEX
8
0
10
3319.0
20
3376.243
0
VERTEX
8
0
10
3316.0
20
3376.7
0
VERTEX
8
0
10
3316.0
20
3376.2
0
SEQEND
0
POLYLINE
8
0
66
1
10
0.0
20
0.0
30
0.0
0
VERTEX
8
0
10
3316.0
20
3376.2
0
VERTEX
8
0
10
3319.0
20
3376.2
0
VERTEX
8
0
10
3319.0
20
3376.1569999999997
0
VERTEX
8
0
10
3316.0
20
3375.7
0
VERTEX
8
0
10
3316.0
20
3376.2
0
SEQEND
0
POLYLINE
8
0
66
1
10
0.0
20
0.0
30
0.0
0
VERTEX
8
0
10
3319.0
20
3376.1569999999997
0
VERTEX
8
0
10
3319.38
20
3376.1569999999997
0
VERTEX
8
0
10
3319.38
20
3376.243
0
VERTEX
8
0
10
3319.0
20
3376.243
0
VERTEX
8
0
10
3319.0
20
3376.1569999999997
0
SEQEND
0
POLYLINE
8
0
66
1
10
0.0
20
0.0
30
0.0
0
VERTEX
8
0
10
3316.0
20
3375.7
0
VERTEX
8
0
10
3319.38
20
3375.7
0
VERTEX
8
0
10
3319.38
20
3376.7
0
VERTEX
8
0
10
3316.0
20
3376.7
0
VERTEX
8
0
10
3316.0
20
3375.7
0
SEQEND
0
POLYLINE
8
0
66
1
10
0.0
20
0.0
30
0.0
0
VERTEX
8
0
10
3308.1666666666665
20
3362.5
0
VERTEX
8
0
10
3308.1666666666665
20
3362.068
0
VERTEX
8
0
10
3308.6666666666665
20
3362.068
0
VERTEX
8
0
10
3311.6666666666665
20
3362.5
0
VERTEX
8
0
10
3308.1666666666665
20
3362.5
0
SEQEND
0
POLYLINE
8
0
66
1
10
0.0
20
0.0
30
0.0
0
VERTEX
8
0
10
3308.1666666666665
20
3362.5
0
VERTEX
8
0
10
3308.1666666666665
20
3362.068
0
VERTEX
8
0
10
3307.6666666666665
20
3362.068
0
VERTEX
8
0
10
3304.6666666666665
20
3362.5
0
VERTEX
8
0
10
3308.1666666666665
20
3362.5
0
SEQEND
0
POLYLINE
8
0
66
1
10
0.0
20
0.0
30
0.0
0
VERTEX
8
0
10
3308.0566666666664
20
3362.068
0
VERTEX
8
0
10
3308.0566666666664
20
3361.9320000000002
0
VERTEX
8
0
10
3308.2766666666666
20
3361.9320000000002
0
VERTEX
8
0
10
3308.2766666666666
20
3362.068
0
VERTEX
8
0
10
3308.0566666666664
20
3362.068
0
SEQEND
0
POLYLINE
8
0
66
1
10
0.0
20
0.0
30
0.0
0
VERTEX
8
0
10
3308.1666666666665
20
3361.9320000000002
0
VERTEX
8
0
10
3308.1666666666665
20
3361.5000000000005
0
VERTEX
8
0
10
3311.6666666666665
20
3361.5000000000005
0
VERTEX
8
0
10
3308.6666666666665
20
3361.9320000000002
0
VERTEX
8
0
10
3308.1666666666665
20
3361.9320000000002
0
SEQEND
0
POLYLINE
8
0
66
1
10
0.0
20
0.0
30
0.0
0
VERTEX
8
0
10
3308.1666666666665
20
3361.9320000000002
0
VERTEX
8
0
10
3308.1666666666665
20
3361.5000000000005
0
VERTEX
8
0
10
3304.6666666666665
20
3361.5000000000005
0
VERTEX
8
0
10
3307.6666666666665
20
3361.9320000000002
0
VERTEX
8
0
10
3308.1666666666665
20
3361.9320000000002
0
SEQEND
0
POLYLINE
8
0
66
1
10
0.0
20
0.0
30
0.0
0
VERTEX
8
0
10
3304.6666666666665
20
3362.0
0
VERTEX
8
0
10
3307.6666666666665
20
3362.0
0
VERTEX
8
0
10
3307.6666666666665
20
3362.068
0
VERTEX
8
0
10
3304.6666666666665
20
3362.5
0
VERTEX
8
0
10
3304.6666666666665
20
3362.0
0
SEQEND
0
POLYLINE
8
0
66
1
10
0.0
20
0.0
30
0.0
0
VERTEX
8
0
10
3304.6666666666665
20
3362.0
0
VERTEX
8
0
10
3307.6666666666665
20
3362.0
0
VERTEX
8
0
10
3307.6666666666665
20
3361.932
0
VERTEX
8
0
10
3304.6666666666665
20
3361.5
0
VERTEX
8
0
10
3304.6666666666665
20
3362.0
0
SEQEND
0
POLYLINE
8
0
66
1
10
0.0
20
0.0
30
0.0
0
VERTEX
8
0
10
3307.6666666666665
20
3361.932
0
VERTEX
8
0
10
3308.0566666666664
20
3361.932
0
VERTEX
8
0
10
3308.0566666666664
20
3362.068
0
VERTEX
8
0
10
3307.6666666666665
20
3362.068
0
VERTEX
8
0
10
3307.6666666666665
20
3361.932
0
SEQEND
0
POLYLINE
8
0
66
1
10
0.0
20
0.0
30
0.0
0
VERTEX
8
0
10
3304.6666666666665
20
3361.5
0
VERTEX
8
0
10
3308.0566666666664
20
3361.5
0
VERTEX
8
0
10
3308.0566666666664
20
3362.5
0
VERTEX
8
0
10
3304.6666666666665
20
3362.5
0
VERTEX
8
0
10
3304.6666666666665
20
3361.5
0
SEQEND
0
POLYLINE
8
0
66
1
10
0.0
20
0.0
30
0.0
0
VERTEX
8
0
10
3330.833333333333
20
3362.5
0
VERTEX
8
0
10
3330.833333333333
20
3362.068
0
VERTEX
8
0
10
3331.333333333333
20
3362.068
0
VERTEX
8
0
10
3334.333333333333
20
3362.5
0
VERTEX
8
0
10
3330.833333333333
20
3362.5
0
SEQEND
0
POLYLINE
8
0
66
1
10
0.0
20
0.0
30
0.0
0
VERTEX
8
0
10
3330.833333333333
20
3362.5
0
VERTEX
8
0
10
3330.833333333333
20
3362.068
0
VERTEX
8
0
10
3330.333333333333
20
3362.068
0
VERTEX
8
0
10
3327.333333333333
20
3362.5
0
VERTEX
8
0
10
3330.833333333333
20
3362.5
0
SEQEND
0
POLYLINE
8
0
66
1
10
0.0
20
0.0
30
0.0
0
VERTEX
8
0
10
3330.743333333333
20
3362.068
0
VERTEX
8
0
10
3330.743333333333
20
3361.9320000000002
0
VERTEX
8
0
10
3330.923333333333
20
3361.9320000000002
0
VERTEX
8
0
10
3330.923333333333
20
3362.068
0
VERTEX
8
0
10
3330.743333333333
20
3362.068
0
SEQEND
0
POLYLINE
8
0
66
1
10
0.0
20
0.0
30
0.0
0
VERTEX
8
0
10
3330.833333333333
20
3361.9320000000002
0
VERTEX
8
0
10
3330.833333333333
20
3361.5000000000005
0
VERTEX
8
0
10
3334.333333333333
20
3361.5000000000005
0
VERTEX
8
0
10
3331.333333333333
20
3361.9320000000002
0
VERTEX
8
0
10
3330.833333333333
20
3361.9320000000002
0
SEQEND
0
POLYLINE
8
0
66
1
10
0.0
20
0.0
30
0.0
0
VERTEX
8
0
10
3330.833333333333
20
3361.9320000000002
0
VERTEX
8
0
10
3330.833333333333
20
3361.5000000000005
0
VERTEX
8
0
10
3327.333333333333
20
3361.5000000000005
0
VERTEX
8
0
10
3330.333333333333
20
3361.9320000000002
0
VERTEX
8
0
10
3330.833333333333
20
3361.9320000000002
0
SEQEND
0
POLYLINE
8
0
66
1
10
0.0
20
0.0
30
0.0
0
VERTEX
8
0
10
3327.333333333333
20
3362.0
0
VERTEX
8
0
10
3330.333333333333
20
3362.0
0
VERTEX
8
0
10
3330.333333333333
20
3362.068
0
VERTEX
8
0
10
3327.333333333333
20
3362.5
0
VERTEX
8
0
10
3327.333333333333
20
3362.0
0
SEQEND
0
POLYLINE
8
0
66
1
10
0.0
20
0.0
30
0.0
0
VERTEX
8
0
10
3327.333333333333
20
3362.0
0
VERTEX
8
0
10
3330.333333333333
20
3362.0
0
VERTEX
8
0
10
3330.333333333333
20
3361.932
0
VERTEX
8
0
10
3327.333333333333
20
3361.5
0
VERTEX
8
0
10
3327.333333333333
20
3362.0
0
SEQEND
0
POLYLINE
8
0
66
1
10
0.0
20
0.0
30
0.0
0
VERTEX
8
0
10
3330.333333333333
20
3361.932
0
VERTEX
8
0
10
3330.743333333333
20
3361.932
0
VERTEX
8
0
10
3330.743333333333
20
3362.068
0
VERTEX
8
0
10
3330.333333333333
20
3362.068
0
VERTEX
8
0
10
3330.333333333333
20
3361.932
0
SEQEND
0
POLYLINE
8
0
66
1
10
0.0
20
0.0
30
0.0
0
VERTEX
8
0
10
3327.333333333333
20
3361.5
0
VERTEX
8
0
10
3330.743333333333
20
3361.5
0
VERTEX
8
0
10
3330.743333333333
20
3362.5
0
VERTEX
8
0
10
3327.333333333333
20
3362.5
0
VERTEX
8
0
10
3327.333333333333
20
3361.5
0
SEQEND
0
POLYLINE
8
0
66
1
10
0.0
20
0.0
30
0.0
0
VERTEX
8
0
10
3343.0
20
3389.5
0
VERTEX
8
0
10
3343.0
20
3379.5
0
VERTEX
8
0
10
3350.0
20
3379.5
0
VERTEX
8
0
10
3350.0
20
3389.5
0
VERTEX
8
0
10
3343.0
20
3389.5
0
SEQEND
0
POLYLINE
8
0
66
1
10
0.0
20
0.0
30
0.0
0
VERTEX
8
0
10
3339.0
20
3385.5
0
VERTEX
8
0
10
3339.0
20
3383.5
0
VERTEX
8
0
10
3343.0
20
3383.5
0
VERTEX
8
0
10
3343.0
20
3385.5
0
VERTEX
8
0
10
3339.0
20
3385.5
0
SEQEND
0
POLYLINE
8
0
66
1
10
0.0
20
0.0
30
0.0
0
VERTEX
8
0
10
3289.0
20
3389.5
0
VERTEX
8
0
10
3289.0
20
3379.5
0
VERTEX
8
0
10
3296.0
20
3379.5
0
VERTEX
8
0
10
3296.0
20
3389.5
0
VERTEX
8
0
10
3289.0
20
3389.5
0
SEQEND
0
POLYLINE
8
0
66
1
10
0.0
20
0.0
30
0.0
0
VERTEX
8
0
10
3296.0
20
3385.5
0
VERTEX
8
0
10
3296.0
20
3383.5
0
VERTEX
8
0
10
3300.0
20
3383.5
0
VERTEX
8
0
10
3300.0
20
3385.5
0
VERTEX
8
0
10
3296.0
20
3385.5
0
SEQEND
0
POLYLINE
8
0
66
1
10
0.0
20
0.0
30
0.0
0
VERTEX
8
0
10
3318.5
20
3361.5
0
VERTEX
8
0
10
3318.5
20
3357.5
0
VERTEX
8
0
10
3320.5
20
3357.5
0
VERTEX
8
0
10
3320.5
20
3361.5
0
VERTEX
8
0
10
3318.5
20
3361.5
0
SEQEND
0
POLYLINE
8
0
66
1
10
0.0
20
0.0
30
0.0
0
VERTEX
8
0
10
3314.5
20
3357.5
0
VERTEX
8
0
10
3314.5
20
3350.5
0
VERTEX
8
0
10
3324.5
20
3350.5
0
VERTEX
8
0
10
3324.5
20
3357.5
0
VERTEX
8
0
10
3314.5
20
3357.5
0
SEQEND
0
ENDBLK
0
BLOCK
8
0
2
A
70
0
10
0
20
0
30
0
3
A
0
POLYLINE
8
GAP
66
1
10
0.0
20
0.0
30
0.0
0
VERTEX
8
GAP
10
-200.0
20
6800.0
0
VERTEX
8
GAP
10
-130.0
20
6800.0
0
VERTEX
8
GAP
10
-130.0
20
6780.0
0
VERTEX
8
GAP
10
-180.0
20
6780.0
0
VERTEX
8
GAP
10
-180.0
20
6730.0
0
VERTEX
8
GAP
10
-200.0
20
6730.0
0
VERTEX
8
GAP
10
-200.0
20
6800.0
0
SEQEND
0
POLYLINE
8
GAP
66
1
10
0.0
20
0.0
30
0.0
0
VERTEX
8
GAP
10
-200.0
20
-200.0
0
VERTEX
8
GAP
10
-130.0
20
-200.0
0
VERTEX
8
GAP
10
-130.0
20
-180.0
0
VERTEX
8
GAP
10
-180.0
20
-180.0
0
VERTEX
8
GAP
10
-180.0
20
-130.0
0
VERTEX
8
GAP
10
-200.0
20
-130.0
0
VERTEX
8
GAP
10
-200.0
20
-200.0
0
SEQEND
0
POLYLINE
8
GAP
66
1
10
0.0
20
0.0
30
0.0
0
VERTEX
8
GAP
10
6800.0
20
-200.0
0
VERTEX
8
GAP
10
6730.0
20
-200.0
0
VERTEX
8
GAP
10
6730.0
20
-180.0
0
VERTEX
8
GAP
10
6780.0
20
-180.0
0
VERTEX
8
GAP
10
6780.0
20
-130.0
0
VERTEX
8
GAP
10
6800.0
20
-130.0
0
VERTEX
8
GAP
10
6800.0
20
-200.0
0
SEQEND
0
POLYLINE
8
GAP
66
1
10
0.0
20
0.0
30
0.0
0
VERTEX
8
GAP
10
6800.0
20
6800.0
0
VERTEX
8
GAP
10
6730.0
20
6800.0
0
VERTEX
8
GAP
10
6730.0
20
6780.0
0
VERTEX
8
GAP
10
6780.0
20
6780.0
0
VERTEX
8
GAP
10
6780.0
20
6730.0
0
VERTEX
8
GAP
10
6800.0
20
6730.0
0
VERTEX
8
GAP
10
6800.0
20
6800.0
0
SEQEND
0
ENDBLK
0
ENDSEC
0
SECTION
2
ENTITIES
0
INSERT
2
AGAP
8
GAP
10
0
20
0
0
INSERT
2
APIN
8
PIN
10
0
20
0
0
INSERT
2
A
8
0
10
0
20
0
0
ENDSEC
0
EOF
