0
SECTION
2
HEADER
9
$ACADVER
1
AC1006
9
$INSBASE
10
0.0
20
0.0
30
0.0
9
$EXTMIN
10
0.0
20
0.0
9
$EXTMAX
10
0.0
20
0.0
0
ENDSEC
0
SECTION
2
TABLES
0
TABLE
2
LTYPE
70
1
0
LTYPE
2
CONTINUOUS
70
64
3
Solid line
72
65
73
0
40
0.0
0
ENDTAB
0
TABLE
2
LAYER
70
1
0
LAYER
2
PYDXF
70
64
62
7
6
continuous
0
ENDTAB
0
TABLE
2
STYLE
70
1
0
STYLE
2
STANDARD
70
0
40
0
41
40
50
50
71
0
42
1
3
ARIAL.TTF
4

0
ENDTAB
0
TABLE
2
VIEW
70
0
0
ENDTAB
0
ENDSEC
0
SECTION
2
BLOCKS
0
BLOCK
8
0
2
S9
70
0
10
0
20
0
30
0
3
S9
0
POLYLINE
8
0
66
1
10
0.0
20
0.0
30
0.0
0
VERTEX
8
0
10
124.0
20
65.0
0
VERTEX
8
0
10
126.0
20
65.0
0
VERTEX
8
0
10
126.0
20
124.0
0
VERTEX
8
0
10
185.0
20
124.0
0
VERTEX
8
0
10
185.0
20
126.0
0
VERTEX
8
0
10
126.0
20
126.0
0
VERTEX
8
0
10
126.0
20
185.0
0
VERTEX
8
0
10
124.0
20
185.0
0
VERTEX
8
0
10
124.0
20
126.0
0
VERTEX
8
0
10
65.0
20
126.0
0
VERTEX
8
0
10
65.0
20
124.0
0
VERTEX
8
0
10
124.0
20
124.0
0
VERTEX
8
0
10
124.0
20
65.0
0
SEQEND
0
POLYLINE
8
0
66
1
10
0.0
20
0.0
30
0.0
0
VERTEX
8
0
10
9474.0
20
19415.0
0
VERTEX
8
0
10
9476.0
20
19415.0
0
VERTEX
8
0
10
9476.0
20
19474.0
0
VERTEX
8
0
10
9535.0
20
19474.0
0
VERTEX
8
0
10
9535.0
20
19476.0
0
VERTEX
8
0
10
9476.0
20
19476.0
0
VERTEX
8
0
10
9476.0
20
19535.0
0
VERTEX
8
0
10
9474.0
20
19535.0
0
VERTEX
8
0
10
9474.0
20
19476.0
0
VERTEX
8
0
10
9415.0
20
19476.0
0
VERTEX
8
0
10
9415.0
20
19474.0
0
VERTEX
8
0
10
9474.0
20
19474.0
0
VERTEX
8
0
10
9474.0
20
19415.0
0
SEQEND
0
POLYLINE
8
0
66
1
10
0.0
20
0.0
30
0.0
0
VERTEX
8
0
10
9474.0
20
65.0
0
VERTEX
8
0
10
9476.0
20
65.0
0
VERTEX
8
0
10
9476.0
20
124.0
0
VERTEX
8
0
10
9535.0
20
124.0
0
VERTEX
8
0
10
9535.0
20
126.0
0
VERTEX
8
0
10
9476.0
20
126.0
0
VERTEX
8
0
10
9476.0
20
185.0
0
VERTEX
8
0
10
9474.0
20
185.0
0
VERTEX
8
0
10
9474.0
20
126.0
0
VERTEX
8
0
10
9415.0
20
126.0
0
VERTEX
8
0
10
9415.0
20
124.0
0
VERTEX
8
0
10
9474.0
20
124.0
0
VERTEX
8
0
10
9474.0
20
65.0
0
SEQEND
0
POLYLINE
8
0
66
1
10
0.0
20
0.0
30
0.0
0
VERTEX
8
0
10
124.0
20
19415.0
0
VERTEX
8
0
10
126.0
20
19415.0
0
VERTEX
8
0
10
126.0
20
19474.0
0
VERTEX
8
0
10
185.0
20
19474.0
0
VERTEX
8
0
10
185.0
20
19476.0
0
VERTEX
8
0
10
126.0
20
19476.0
0
VERTEX
8
0
10
126.0
20
19535.0
0
VERTEX
8
0
10
124.0
20
19535.0
0
VERTEX
8
0
10
124.0
20
19476.0
0
VERTEX
8
0
10
65.0
20
19476.0
0
VERTEX
8
0
10
65.0
20
19474.0
0
VERTEX
8
0
10
124.0
20
19474.0
0
VERTEX
8
0
10
124.0
20
19415.0
0
SEQEND
0
POLYLINE
8
0
66
1
10
0.0
20
0.0
30
0.0
0
VERTEX
8
0
10
4500.0
20
19000.0
0
VERTEX
8
0
10
4500.0
20
18850.0
0
VERTEX
8
0
10
5100.0
20
18850.0
0
VERTEX
8
0
10
5100.0
20
19000.0
0
VERTEX
8
0
10
4500.0
20
19000.0
0
SEQEND
0
POLYLINE
8
0
66
1
10
0.0
20
0.0
30
0.0
0
VERTEX
8
0
10
4950.0
20
18850.0
0
VERTEX
8
0
10
4950.0
20
18700.0
0
VERTEX
8
0
10
5100.0
20
18700.0
0
VERTEX
8
0
10
5100.0
20
18850.0
0
VERTEX
8
0
10
4950.0
20
18850.0
0
SEQEND
0
POLYLINE
8
0
66
1
10
0.0
20
0.0
30
0.0
0
VERTEX
8
0
10
4650.0
20
18850.0
0
VERTEX
8
0
10
4650.0
20
18700.0
0
VERTEX
8
0
10
4500.0
20
18700.0
0
VERTEX
8
0
10
4500.0
20
18850.0
0
VERTEX
8
0
10
4650.0
20
18850.0
0
SEQEND
0
POLYLINE
8
0
66
1
10
0.0
20
0.0
30
0.0
0
VERTEX
8
0
10
4950.0
20
18700.0
0
VERTEX
8
0
10
4805.0
20
18550.0
0
VERTEX
8
0
10
4809.84168810942
20
18550.0
0
VERTEX
8
0
10
5100.0
20
18700.0
0
VERTEX
8
0
10
4950.0
20
18700.0
0
SEQEND
0
POLYLINE
8
0
66
1
10
0.0
20
0.0
30
0.0
0
VERTEX
8
0
10
4650.0
20
18700.0
0
VERTEX
8
0
10
4795.0
20
18550.0
0
VERTEX
8
0
10
4790.15831189058
20
18550.0
0
VERTEX
8
0
10
4500.0
20
18700.0
0
VERTEX
8
0
10
4650.0
20
18700.0
0
SEQEND
0
POLYLINE
8
0
66
1
10
0.0
20
0.0
30
0.0
0
VERTEX
8
0
10
5100.0
20
600.0
0
VERTEX
8
0
10
5100.0
20
750.0
0
VERTEX
8
0
10
4500.0
20
750.0
0
VERTEX
8
0
10
4500.0
20
600.0
0
VERTEX
8
0
10
5100.0
20
600.0
0
SEQEND
0
POLYLINE
8
0
66
1
10
0.0
20
0.0
30
0.0
0
VERTEX
8
0
10
4650.0
20
750.0
0
VERTEX
8
0
10
4650.0
20
900.0
0
VERTEX
8
0
10
4500.0
20
900.0
0
VERTEX
8
0
10
4500.0
20
750.0
0
VERTEX
8
0
10
4650.0
20
750.0
0
SEQEND
0
POLYLINE
8
0
66
1
10
0.0
20
0.0
30
0.0
0
VERTEX
8
0
10
4950.0
20
750.0
0
VERTEX
8
0
10
4950.0
20
900.0
0
VERTEX
8
0
10
5100.0
20
900.0
0
VERTEX
8
0
10
5100.0
20
750.0
0
VERTEX
8
0
10
4950.0
20
750.0
0
SEQEND
0
POLYLINE
8
0
66
1
10
0.0
20
0.0
30
0.0
0
VERTEX
8
0
10
4650.0
20
900.0
0
VERTEX
8
0
10
4795.0
20
1050.0
0
VERTEX
8
0
10
4790.158311890581
20
1050.0
0
VERTEX
8
0
10
4500.0
20
900.0
0
VERTEX
8
0
10
4650.0
20
900.0
0
SEQEND
0
POLYLINE
8
0
66
1
10
0.0
20
0.0
30
0.0
0
VERTEX
8
0
10
4950.0
20
900.0
0
VERTEX
8
0
10
4805.0
20
1050.0
0
VERTEX
8
0
10
4809.841688109419
20
1050.0
0
VERTEX
8
0
10
5100.0
20
900.0
0
VERTEX
8
0
10
4950.0
20
900.0
0
SEQEND
0
POLYLINE
8
0
66
1
10
0.0
20
0.0
30
0.0
0
VERTEX
8
0
10
4805.0
20
18550.0
0
VERTEX
8
0
10
4805.0
20
18450.0
0
VERTEX
8
0
10
4809.84168810942
20
18450.0
0
VERTEX
8
0
10
4809.84168810942
20
18550.0
0
VERTEX
8
0
10
4805.0
20
18550.0
0
SEQEND
0
POLYLINE
8
0
66
1
10
0.0
20
0.0
30
0.0
0
VERTEX
8
0
10
4795.0
20
18550.0
0
VERTEX
8
0
10
4795.0
20
18450.0
0
VERTEX
8
0
10
4790.15831189058
20
18450.0
0
VERTEX
8
0
10
4790.15831189058
20
18550.0
0
VERTEX
8
0
10
4795.0
20
18550.0
0
SEQEND
0
POLYLINE
8
0
66
1
10
0.0
20
0.0
30
0.0
0
VERTEX
8
0
10
4809.841688109419
20
18450.0
0
VERTEX
8
0
10
4806.912827422566
20
18431.507901402103
0
VERTEX
8
0
10
4798.412942652605
20
18414.825938256996
0
VERTEX
8
0
10
4785.174061743002
20
18401.587057347395
0
VERTEX
8
0
10
4768.492098597896
20
18393.087172577434
0
VERTEX
8
0
10
4750.0
20
18390.15831189058
0
VERTEX
8
0
10
4750.0
20
18395.0
0
VERTEX
8
0
10
4766.995934690622
20
18397.691891603765
0
VERTEX
8
0
10
4782.328188876086
20
18405.50406530938
0
VERTEX
8
0
10
4794.495934690622
20
18417.671811123913
0
VERTEX
8
0
10
4802.308108396233
20
18433.00406530938
0
VERTEX
8
0
10
4805.0
20
18450.0
0
VERTEX
8
0
10
4809.841688109419
20
18450.0
0
SEQEND
0
POLYLINE
8
0
66
1
10
0.0
20
0.0
30
0.0
0
VERTEX
8
0
10
4795.0
20
18450.0
0
VERTEX
8
0
10
4792.797543233282
20
18436.094235253127
0
VERTEX
8
0
10
4786.405764746873
20
18423.549663646838
0
VERTEX
8
0
10
4776.450336353161
20
18413.594235253127
0
VERTEX
8
0
10
4763.905764746873
20
18407.202456766718
0
VERTEX
8
0
10
4750.0
20
18405.0
0
VERTEX
8
0
10
4750.0
20
18409.84168810942
0
VERTEX
8
0
10
4762.409600839599
20
18411.80717579305
0
VERTEX
8
0
10
4773.604463486245
20
18417.51124321511
0
VERTEX
8
0
10
4782.488756784889
20
18426.395536513755
0
VERTEX
8
0
10
4788.19282420695
20
18437.590399160403
0
VERTEX
8
0
10
4790.158311890581
20
18450.0
0
VERTEX
8
0
10
4795.0
20
18450.0
0
SEQEND
0
POLYLINE
8
0
66
1
10
0.0
20
0.0
30
0.0
0
VERTEX
8
0
10
4750.0
20
18395.0
0
VERTEX
8
0
10
4650.0
20
18395.0
0
VERTEX
8
0
10
4650.0
20
18390.15831189058
0
VERTEX
8
0
10
4750.0
20
18390.15831189058
0
VERTEX
8
0
10
4750.0
20
18395.0
0
SEQEND
0
POLYLINE
8
0
66
1
10
0.0
20
0.0
30
0.0
0
VERTEX
8
0
10
4750.0
20
18405.0
0
VERTEX
8
0
10
4650.0
20
18405.0
0
VERTEX
8
0
10
4650.0
20
18409.84168810942
0
VERTEX
8
0
10
4750.0
20
18409.84168810942
0
VERTEX
8
0
10
4750.0
20
18405.0
0
SEQEND
0
POLYLINE
8
0
66
1
10
0.0
20
0.0
30
0.0
0
VERTEX
8
0
10
4650.0
20
18395.0
0
VERTEX
8
0
10
4570.0
20
18370.0
0
VERTEX
8
0
10
4570.0
20
18358.0
0
VERTEX
8
0
10
4650.0
20
18390.15831189058
0
VERTEX
8
0
10
4650.0
20
18395.0
0
SEQEND
0
POLYLINE
8
0
66
1
10
0.0
20
0.0
30
0.0
0
VERTEX
8
0
10
4650.0
20
18405.0
0
VERTEX
8
0
10
4570.0
20
18430.0
0
VERTEX
8
0
10
4570.0
20
18442.0
0
VERTEX
8
0
10
4650.0
20
18409.84168810942
0
VERTEX
8
0
10
4650.0
20
18405.0
0
SEQEND
0
POLYLINE
8
0
66
1
10
0.0
20
0.0
30
0.0
0
VERTEX
8
0
10
4570.0
20
18370.0
0
VERTEX
8
0
10
2950.0
20
18370.0
0
VERTEX
8
0
10
2950.0
20
18358.0
0
VERTEX
8
0
10
4570.0
20
18358.0
0
VERTEX
8
0
10
4570.0
20
18370.0
0
SEQEND
0
POLYLINE
8
0
66
1
10
0.0
20
0.0
30
0.0
0
VERTEX
8
0
10
4570.0
20
18430.0
0
VERTEX
8
0
10
2950.0
20
18430.0
0
VERTEX
8
0
10
2950.0
20
18442.0
0
VERTEX
8
0
10
4570.0
20
18442.0
0
VERTEX
8
0
10
4570.0
20
18430.0
0
SEQEND
0
POLYLINE
8
0
66
1
10
0.0
20
0.0
30
0.0
0
VERTEX
8
0
10
2950.0
20
18442.0
0
VERTEX
8
0
10
2860.6566416515443
20
18412.970583144994
0
VERTEX
8
0
10
2805.439409523137
20
18336.970583144994
0
VERTEX
8
0
10
2805.439409523137
20
18243.029416855006
0
VERTEX
8
0
10
2860.656641651544
20
18167.029416855006
0
VERTEX
8
0
10
2950.0
20
18138.0
0
VERTEX
8
0
10
2950.0
20
18150.0
0
VERTEX
8
0
10
2867.7100646790536
20
18176.737620787506
0
VERTEX
8
0
10
2816.8520877186784
20
18246.737620787506
0
VERTEX
8
0
10
2816.8520877186784
20
18333.262379212494
0
VERTEX
8
0
10
2867.7100646790536
20
18403.262379212494
0
VERTEX
8
0
10
2950.0
20
18430.0
0
VERTEX
8
0
10
2950.0
20
18442.0
0
SEQEND
0
POLYLINE
8
0
66
1
10
0.0
20
0.0
30
0.0
0
VERTEX
8
0
10
2950.0
20
18370.0
0
VERTEX
8
0
10
2902.977179816602
20
18354.721359549996
0
VERTEX
8
0
10
2873.9154786963877
20
18314.721359549996
0
VERTEX
8
0
10
2873.9154786963877
20
18265.278640450004
0
VERTEX
8
0
10
2902.977179816602
20
18225.278640450004
0
VERTEX
8
0
10
2950.0
20
18210.0
0
VERTEX
8
0
10
2950.0
20
18222.0
0
VERTEX
8
0
10
2910.030602844112
20
18234.986844382503
0
VERTEX
8
0
10
2885.3281568919297
20
18268.986844382503
0
VERTEX
8
0
10
2885.3281568919297
20
18311.013155617497
0
VERTEX
8
0
10
2910.030602844112
20
18345.013155617497
0
VERTEX
8
0
10
2950.0
20
18358.0
0
VERTEX
8
0
10
2950.0
20
18370.0
0
SEQEND
0
POLYLINE
8
0
66
1
10
0.0
20
0.0
30
0.0
0
VERTEX
8
0
10
2950.0
20
18210.0
0
VERTEX
8
0
10
6450.0
20
18210.0
0
VERTEX
8
0
10
6450.0
20
18222.0
0
VERTEX
8
0
10
2950.0
20
18222.0
0
VERTEX
8
0
10
2950.0
20
18210.0
0
SEQEND
0
POLYLINE
8
0
66
1
10
0.0
20
0.0
30
0.0
0
VERTEX
8
0
10
2950.0
20
18150.0
0
VERTEX
8
0
10
6450.0
20
18150.0
0
VERTEX
8
0
10
6450.0
20
18138.0
0
VERTEX
8
0
10
2950.0
20
18138.0
0
VERTEX
8
0
10
2950.0
20
18150.0
0
SEQEND
0
POLYLINE
8
0
66
1
10
0.0
20
0.0
30
0.0
0
VERTEX
8
0
10
6450.0
20
18222.0
0
VERTEX
8
0
10
6539.343358348456
20
18192.97058314499
0
VERTEX
8
0
10
6594.560590476864
20
18116.970583144994
0
VERTEX
8
0
10
6594.560590476864
20
18023.029416855006
0
VERTEX
8
0
10
6539.343358348456
20
17947.029416855006
0
VERTEX
8
0
10
6450.0
20
17918.0
0
VERTEX
8
0
10
6450.0
20
17930.0
0
VERTEX
8
0
10
6532.289935320946
20
17956.737620787506
0
VERTEX
8
0
10
6583.147912281322
20
18026.737620787506
0
VERTEX
8
0
10
6583.147912281322
20
18113.262379212494
0
VERTEX
8
0
10
6532.289935320947
20
18183.262379212494
0
VERTEX
8
0
10
6450.0
20
18210.0
0
VERTEX
8
0
10
6450.0
20
18222.0
0
SEQEND
0
POLYLINE
8
0
66
1
10
0.0
20
0.0
30
0.0
0
VERTEX
8
0
10
6450.0
20
18150.0
0
VERTEX
8
0
10
6497.022820183398
20
18134.721359549996
0
VERTEX
8
0
10
6526.084521303612
20
18094.721359549996
0
VERTEX
8
0
10
6526.084521303612
20
18045.278640450004
0
VERTEX
8
0
10
6497.022820183398
20
18005.278640450004
0
VERTEX
8
0
10
6450.0
20
17990.0
0
VERTEX
8
0
10
6450.0
20
18002.0
0
VERTEX
8
0
10
6489.969397155888
20
18014.986844382503
0
VERTEX
8
0
10
6514.671843108071
20
18048.986844382503
0
VERTEX
8
0
10
6514.671843108071
20
18091.013155617497
0
VERTEX
8
0
10
6489.969397155888
20
18125.013155617497
0
VERTEX
8
0
10
6450.0
20
18138.0
0
VERTEX
8
0
10
6450.0
20
18150.0
0
SEQEND
0
POLYLINE
8
0
66
1
10
0.0
20
0.0
30
0.0
0
VERTEX
8
0
10
6450.0
20
17930.0
0
VERTEX
8
0
10
3811.1503837897544
20
17930.0
0
VERTEX
8
0
10
3811.1503837897544
20
17918.0
0
VERTEX
8
0
10
6450.0
20
17918.0
0
VERTEX
8
0
10
6450.0
20
17930.0
0
SEQEND
0
POLYLINE
8
0
66
1
10
0.0
20
0.0
30
0.0
0
VERTEX
8
0
10
6450.0
20
17990.0
0
VERTEX
8
0
10
3811.1503837897544
20
17990.0
0
VERTEX
8
0
10
3811.1503837897544
20
18002.0
0
VERTEX
8
0
10
6450.0
20
18002.0
0
VERTEX
8
0
10
6450.0
20
17990.0
0
SEQEND
0
POLYLINE
8
0
66
1
10
0.0
20
0.0
30
0.0
0
VERTEX
8
0
10
3811.1503837897544
20
17930.0
0
VERTEX
8
0
10
3731.1503837897544
20
17954.0
0
VERTEX
8
0
10
3731.1503837897544
20
17894.0
0
VERTEX
8
0
10
3811.1503837897544
20
17918.0
0
VERTEX
8
0
10
3811.1503837897544
20
17930.0
0
SEQEND
0
POLYLINE
8
0
66
1
10
0.0
20
0.0
30
0.0
0
VERTEX
8
0
10
3811.1503837897544
20
17990.0
0
VERTEX
8
0
10
3731.1503837897544
20
17966.0
0
VERTEX
8
0
10
3731.1503837897544
20
18026.0
0
VERTEX
8
0
10
3811.1503837897544
20
18002.0
0
VERTEX
8
0
10
3811.1503837897544
20
17990.0
0
SEQEND
0
POLYLINE
8
0
66
1
10
0.0
20
0.0
30
0.0
0
VERTEX
8
0
10
3731.1503837897544
20
17954.0
0
VERTEX
8
0
10
2950.0
20
17954.0
0
VERTEX
8
0
10
2950.0
20
17894.0
0
VERTEX
8
0
10
3731.1503837897544
20
17894.0
0
VERTEX
8
0
10
3731.1503837897544
20
17954.0
0
SEQEND
0
POLYLINE
8
0
66
1
10
0.0
20
0.0
30
0.0
0
VERTEX
8
0
10
3731.1503837897544
20
17966.0
0
VERTEX
8
0
10
2950.0
20
17966.0
0
VERTEX
8
0
10
2950.0
20
18026.0
0
VERTEX
8
0
10
3731.1503837897544
20
18026.0
0
VERTEX
8
0
10
3731.1503837897544
20
17966.0
0
SEQEND
0
POLYLINE
8
0
66
1
10
0.0
20
0.0
30
0.0
0
VERTEX
8
0
10
2950.0
20
18026.0
0
VERTEX
8
0
10
2827.7406675231655
20
17986.27553482999
0
VERTEX
8
0
10
2752.180244610608
20
17882.27553482999
0
VERTEX
8
0
10
2752.180244610608
20
17753.72446517001
0
VERTEX
8
0
10
2827.7406675231655
20
17649.72446517001
0
VERTEX
8
0
10
2950.0
20
17610.0
0
VERTEX
8
0
10
2950.0
20
17670.0
0
VERTEX
8
0
10
2863.007782660714
20
17698.265484832507
0
VERTEX
8
0
10
2809.2436355883174
20
17772.265484832507
0
VERTEX
8
0
10
2809.2436355883174
20
17863.734515167493
0
VERTEX
8
0
10
2863.007782660714
20
17937.734515167493
0
VERTEX
8
0
10
2950.0
20
17966.0
0
VERTEX
8
0
10
2950.0
20
18026.0
0
SEQEND
0
POLYLINE
8
0
66
1
10
0.0
20
0.0
30
0.0
0
VERTEX
8
0
10
2950.0
20
17954.0
0
VERTEX
8
0
10
2870.0612056882237
20
17928.026311234993
0
VERTEX
8
0
10
2820.6563137838593
20
17860.026311234993
0
VERTEX
8
0
10
2820.6563137838593
20
17775.973688765007
0
VERTEX
8
0
10
2870.0612056882237
20
17707.973688765007
0
VERTEX
8
0
10
2950.0
20
17682.0
0
VERTEX
8
0
10
2950.0
20
17742.0
0
VERTEX
8
0
10
2905.328320825772
20
17756.514708427505
0
VERTEX
8
0
10
2877.719704761568
20
17794.514708427505
0
VERTEX
8
0
10
2877.719704761568
20
17841.485291572495
0
VERTEX
8
0
10
2905.328320825772
20
17879.485291572495
0
VERTEX
8
0
10
2950.0
20
17894.0
0
VERTEX
8
0
10
2950.0
20
17954.0
0
SEQEND
0
POLYLINE
8
0
66
1
10
0.0
20
0.0
30
0.0
0
VERTEX
8
0
10
2950.0
20
17682.0
0
VERTEX
8
0
10
6450.0
20
17682.0
0
VERTEX
8
0
10
6450.0
20
17742.0
0
VERTEX
8
0
10
2950.0
20
17742.0
0
VERTEX
8
0
10
2950.0
20
17682.0
0
SEQEND
0
POLYLINE
8
0
66
1
10
0.0
20
0.0
30
0.0
0
VERTEX
8
0
10
2950.0
20
17670.0
0
VERTEX
8
0
10
6450.0
20
17670.0
0
VERTEX
8
0
10
6450.0
20
17610.0
0
VERTEX
8
0
10
2950.0
20
17610.0
0
VERTEX
8
0
10
2950.0
20
17670.0
0
SEQEND
0
POLYLINE
8
0
66
1
10
0.0
20
0.0
30
0.0
0
VERTEX
8
0
10
6450.0
20
17742.0
0
VERTEX
8
0
10
6572.259332476835
20
17702.27553482999
0
VERTEX
8
0
10
6647.8197553893915
20
17598.27553482999
0
VERTEX
8
0
10
6647.8197553893915
20
17469.72446517001
0
VERTEX
8
0
10
6572.259332476834
20
17365.72446517001
0
VERTEX
8
0
10
6450.0
20
17326.0
0
VERTEX
8
0
10
6450.0
20
17386.0
0
VERTEX
8
0
10
6536.992217339286
20
17414.265484832507
0
VERTEX
8
0
10
6590.756364411683
20
17488.265484832507
0
VERTEX
8
0
10
6590.756364411683
20
17579.734515167493
0
VERTEX
8
0
10
6536.992217339286
20
17653.734515167493
0
VERTEX
8
0
10
6450.0
20
17682.0
0
VERTEX
8
0
10
6450.0
20
17742.0
0
SEQEND
0
POLYLINE
8
0
66
1
10
0.0
20
0.0
30
0.0
0
VERTEX
8
0
10
6450.0
20
17670.0
0
VERTEX
8
0
10
6529.938794311776
20
17644.026311234993
0
VERTEX
8
0
10
6579.343686216141
20
17576.026311234993
0
VERTEX
8
0
10
6579.343686216141
20
17491.973688765007
0
VERTEX
8
0
10
6529.938794311776
20
17423.973688765007
0
VERTEX
8
0
10
6450.0
20
17398.0
0
VERTEX
8
0
10
6450.0
20
17458.0
0
VERTEX
8
0
10
6494.671679174228
20
17472.514708427505
0
VERTEX
8
0
10
6522.280295238432
20
17510.514708427505
0
VERTEX
8
0
10
6522.280295238432
20
17557.485291572495
0
VERTEX
8
0
10
6494.671679174228
20
17595.485291572495
0
VERTEX
8
0
10
6450.0
20
17610.0
0
VERTEX
8
0
10
6450.0
20
17670.0
0
SEQEND
0
POLYLINE
8
0
66
1
10
0.0
20
0.0
30
0.0
0
VERTEX
8
0
10
6450.0
20
17386.0
0
VERTEX
8
0
10
3173.362697409255
20
17386.0
0
VERTEX
8
0
10
3173.362697409255
20
17326.0
0
VERTEX
8
0
10
6450.0
20
17326.0
0
VERTEX
8
0
10
6450.0
20
17386.0
0
SEQEND
0
POLYLINE
8
0
66
1
10
0.0
20
0.0
30
0.0
0
VERTEX
8
0
10
6450.0
20
17398.0
0
VERTEX
8
0
10
3173.362697409255
20
17398.0
0
VERTEX
8
0
10
3173.362697409255
20
17458.0
0
VERTEX
8
0
10
6450.0
20
17458.0
0
VERTEX
8
0
10
6450.0
20
17398.0
0
SEQEND
0
POLYLINE
8
0
66
1
10
0.0
20
0.0
30
0.0
0
VERTEX
8
0
10
3173.362697409255
20
17386.0
0
VERTEX
8
0
10
3093.362697409255
20
17362.0
0
VERTEX
8
0
10
3093.362697409255
20
17350.0
0
VERTEX
8
0
10
3173.362697409255
20
17326.0
0
VERTEX
8
0
10
3173.362697409255
20
17386.0
0
SEQEND
0
POLYLINE
8
0
66
1
10
0.0
20
0.0
30
0.0
0
VERTEX
8
0
10
3173.362697409255
20
17398.0
0
VERTEX
8
0
10
3093.362697409255
20
17422.0
0
VERTEX
8
0
10
3093.362697409255
20
17434.0
0
VERTEX
8
0
10
3173.362697409255
20
17458.0
0
VERTEX
8
0
10
3173.362697409255
20
17398.0
0
SEQEND
0
POLYLINE
8
0
66
1
10
0.0
20
0.0
30
0.0
0
VERTEX
8
0
10
3093.362697409255
20
17362.0
0
VERTEX
8
0
10
2950.0
20
17362.0
0
VERTEX
8
0
10
2950.0
20
17350.0
0
VERTEX
8
0
10
3093.362697409255
20
17350.0
0
VERTEX
8
0
10
3093.362697409255
20
17362.0
0
SEQEND
0
POLYLINE
8
0
66
1
10
0.0
20
0.0
30
0.0
0
VERTEX
8
0
10
3093.362697409255
20
17422.0
0
VERTEX
8
0
10
2950.0
20
17422.0
0
VERTEX
8
0
10
2950.0
20
17434.0
0
VERTEX
8
0
10
3093.362697409255
20
17434.0
0
VERTEX
8
0
10
3093.362697409255
20
17422.0
0
SEQEND
0
POLYLINE
8
0
66
1
10
0.0
20
0.0
30
0.0
0
VERTEX
8
0
10
2950.0
20
17434.0
0
VERTEX
8
0
10
2860.6566416515443
20
17404.970583144994
0
VERTEX
8
0
10
2805.439409523137
20
17328.970583144994
0
VERTEX
8
0
10
2805.439409523137
20
17235.029416855006
0
VERTEX
8
0
10
2860.656641651544
20
17159.029416855006
0
VERTEX
8
0
10
2950.0
20
17130.0
0
VERTEX
8
0
10
2950.0
20
17142.0
0
VERTEX
8
0
10
2867.7100646790536
20
17168.737620787506
0
VERTEX
8
0
10
2816.8520877186784
20
17238.737620787506
0
VERTEX
8
0
10
2816.8520877186784
20
17325.262379212494
0
VERTEX
8
0
10
2867.7100646790536
20
17395.262379212494
0
VERTEX
8
0
10
2950.0
20
17422.0
0
VERTEX
8
0
10
2950.0
20
17434.0
0
SEQEND
0
POLYLINE
8
0
66
1
10
0.0
20
0.0
30
0.0
0
VERTEX
8
0
10
2950.0
20
17362.0
0
VERTEX
8
0
10
2902.977179816602
20
17346.721359549996
0
VERTEX
8
0
10
2873.9154786963877
20
17306.721359549996
0
VERTEX
8
0
10
2873.9154786963877
20
17257.278640450004
0
VERTEX
8
0
10
2902.977179816602
20
17217.278640450004
0
VERTEX
8
0
10
2950.0
20
17202.0
0
VERTEX
8
0
10
2950.0
20
17214.0
0
VERTEX
8
0
10
2910.030602844112
20
17226.986844382503
0
VERTEX
8
0
10
2885.3281568919297
20
17260.986844382503
0
VERTEX
8
0
10
2885.3281568919297
20
17303.013155617497
0
VERTEX
8
0
10
2910.030602844112
20
17337.013155617497
0
VERTEX
8
0
10
2950.0
20
17350.0
0
VERTEX
8
0
10
2950.0
20
17362.0
0
SEQEND
0
POLYLINE
8
0
66
1
10
0.0
20
0.0
30
0.0
0
VERTEX
8
0
10
2950.0
20
17202.0
0
VERTEX
8
0
10
6450.0
20
17202.0
0
VERTEX
8
0
10
6450.0
20
17214.0
0
VERTEX
8
0
10
2950.0
20
17214.0
0
VERTEX
8
0
10
2950.0
20
17202.0
0
SEQEND
0
POLYLINE
8
0
66
1
10
0.0
20
0.0
30
0.0
0
VERTEX
8
0
10
2950.0
20
17142.0
0
VERTEX
8
0
10
6450.0
20
17142.0
0
VERTEX
8
0
10
6450.0
20
17130.0
0
VERTEX
8
0
10
2950.0
20
17130.0
0
VERTEX
8
0
10
2950.0
20
17142.0
0
SEQEND
0
POLYLINE
8
0
66
1
10
0.0
20
0.0
30
0.0
0
VERTEX
8
0
10
6450.0
20
17214.0
0
VERTEX
8
0
10
6539.343358348456
20
17184.97058314499
0
VERTEX
8
0
10
6594.560590476864
20
17108.970583144994
0
VERTEX
8
0
10
6594.560590476864
20
17015.029416855006
0
VERTEX
8
0
10
6539.343358348456
20
16939.029416855006
0
VERTEX
8
0
10
6450.0
20
16910.0
0
VERTEX
8
0
10
6450.0
20
16922.0
0
VERTEX
8
0
10
6532.289935320946
20
16948.737620787506
0
VERTEX
8
0
10
6583.147912281322
20
17018.737620787506
0
VERTEX
8
0
10
6583.147912281322
20
17105.262379212494
0
VERTEX
8
0
10
6532.289935320947
20
17175.262379212494
0
VERTEX
8
0
10
6450.0
20
17202.0
0
VERTEX
8
0
10
6450.0
20
17214.0
0
SEQEND
0
POLYLINE
8
0
66
1
10
0.0
20
0.0
30
0.0
0
VERTEX
8
0
10
6450.0
20
17142.0
0
VERTEX
8
0
10
6497.022820183398
20
17126.721359549996
0
VERTEX
8
0
10
6526.084521303612
20
17086.721359549996
0
VERTEX
8
0
10
6526.084521303612
20
17037.278640450004
0
VERTEX
8
0
10
6497.022820183398
20
16997.278640450004
0
VERTEX
8
0
10
6450.0
20
16982.0
0
VERTEX
8
0
10
6450.0
20
16994.0
0
VERTEX
8
0
10
6489.969397155888
20
17006.986844382503
0
VERTEX
8
0
10
6514.671843108071
20
17040.986844382503
0
VERTEX
8
0
10
6514.671843108071
20
17083.013155617497
0
VERTEX
8
0
10
6489.969397155888
20
17117.013155617497
0
VERTEX
8
0
10
6450.0
20
17130.0
0
VERTEX
8
0
10
6450.0
20
17142.0
0
SEQEND
0
POLYLINE
8
0
66
1
10
0.0
20
0.0
30
0.0
0
VERTEX
8
0
10
6450.0
20
16922.0
0
VERTEX
8
0
10
2950.0
20
16922.0
0
VERTEX
8
0
10
2950.0
20
16910.0
0
VERTEX
8
0
10
6450.0
20
16910.0
0
VERTEX
8
0
10
6450.0
20
16922.0
0
SEQEND
0
POLYLINE
8
0
66
1
10
0.0
20
0.0
30
0.0
0
VERTEX
8
0
10
6450.0
20
16982.0
0
VERTEX
8
0
10
2950.0
20
16982.0
0
VERTEX
8
0
10
2950.0
20
16994.0
0
VERTEX
8
0
10
6450.0
20
16994.0
0
VERTEX
8
0
10
6450.0
20
16982.0
0
SEQEND
0
POLYLINE
8
0
66
1
10
0.0
20
0.0
30
0.0
0
VERTEX
8
0
10
2950.0
20
16994.0
0
VERTEX
8
0
10
2860.6566416515443
20
16964.970583144994
0
VERTEX
8
0
10
2805.439409523137
20
16888.970583144994
0
VERTEX
8
0
10
2805.439409523137
20
16795.029416855006
0
VERTEX
8
0
10
2860.656641651544
20
16719.029416855006
0
VERTEX
8
0
10
2950.0
20
16690.0
0
VERTEX
8
0
10
2950.0
20
16702.0
0
VERTEX
8
0
10
2867.7100646790536
20
16728.737620787506
0
VERTEX
8
0
10
2816.8520877186784
20
16798.737620787506
0
VERTEX
8
0
10
2816.8520877186784
20
16885.262379212494
0
VERTEX
8
0
10
2867.7100646790536
20
16955.262379212494
0
VERTEX
8
0
10
2950.0
20
16982.0
0
VERTEX
8
0
10
2950.0
20
16994.0
0
SEQEND
0
POLYLINE
8
0
66
1
10
0.0
20
0.0
30
0.0
0
VERTEX
8
0
10
2950.0
20
16922.0
0
VERTEX
8
0
10
2902.977179816602
20
16906.721359549996
0
VERTEX
8
0
10
2873.9154786963877
20
16866.721359549996
0
VERTEX
8
0
10
2873.9154786963877
20
16817.278640450004
0
VERTEX
8
0
10
2902.977179816602
20
16777.278640450004
0
VERTEX
8
0
10
2950.0
20
16762.0
0
VERTEX
8
0
10
2950.0
20
16774.0
0
VERTEX
8
0
10
2910.030602844112
20
16786.986844382503
0
VERTEX
8
0
10
2885.3281568919297
20
16820.986844382503
0
VERTEX
8
0
10
2885.3281568919297
20
16863.013155617497
0
VERTEX
8
0
10
2910.030602844112
20
16897.013155617497
0
VERTEX
8
0
10
2950.0
20
16910.0
0
VERTEX
8
0
10
2950.0
20
16922.0
0
SEQEND
0
POLYLINE
8
0
66
1
10
0.0
20
0.0
30
0.0
0
VERTEX
8
0
10
2950.0
20
16762.0
0
VERTEX
8
0
10
3219.9117269061135
20
16762.0
0
VERTEX
8
0
10
3219.9117269061135
20
16774.0
0
VERTEX
8
0
10
2950.0
20
16774.0
0
VERTEX
8
0
10
2950.0
20
16762.0
0
SEQEND
0
POLYLINE
8
0
66
1
10
0.0
20
0.0
30
0.0
0
VERTEX
8
0
10
2950.0
20
16702.0
0
VERTEX
8
0
10
3219.9117269061135
20
16702.0
0
VERTEX
8
0
10
3219.9117269061135
20
16690.0
0
VERTEX
8
0
10
2950.0
20
16690.0
0
VERTEX
8
0
10
2950.0
20
16702.0
0
SEQEND
0
POLYLINE
8
0
66
1
10
0.0
20
0.0
30
0.0
0
VERTEX
8
0
10
3219.9117269061135
20
16762.0
0
VERTEX
8
0
10
3299.9117269061135
20
16738.0
0
VERTEX
8
0
10
3299.9117269061135
20
16798.0
0
VERTEX
8
0
10
3219.9117269061135
20
16774.0
0
VERTEX
8
0
10
3219.9117269061135
20
16762.0
0
SEQEND
0
POLYLINE
8
0
66
1
10
0.0
20
0.0
30
0.0
0
VERTEX
8
0
10
3219.9117269061135
20
16702.0
0
VERTEX
8
0
10
3299.9117269061135
20
16726.0
0
VERTEX
8
0
10
3299.9117269061135
20
16666.0
0
VERTEX
8
0
10
3219.9117269061135
20
16690.0
0
VERTEX
8
0
10
3219.9117269061135
20
16702.0
0
SEQEND
0
POLYLINE
8
0
66
1
10
0.0
20
0.0
30
0.0
0
VERTEX
8
0
10
3299.9117269061135
20
16738.0
0
VERTEX
8
0
10
6450.0
20
16738.0
0
VERTEX
8
0
10
6450.0
20
16798.0
0
VERTEX
8
0
10
3299.9117269061135
20
16798.0
0
VERTEX
8
0
10
3299.9117269061135
20
16738.0
0
SEQEND
0
POLYLINE
8
0
66
1
10
0.0
20
0.0
30
0.0
0
VERTEX
8
0
10
3299.9117269061135
20
16726.0
0
VERTEX
8
0
10
6450.0
20
16726.0
0
VERTEX
8
0
10
6450.0
20
16666.0
0
VERTEX
8
0
10
3299.9117269061135
20
16666.0
0
VERTEX
8
0
10
3299.9117269061135
20
16726.0
0
SEQEND
0
POLYLINE
8
0
66
1
10
0.0
20
0.0
30
0.0
0
VERTEX
8
0
10
6450.0
20
16798.0
0
VERTEX
8
0
10
6572.259332476835
20
16758.27553482999
0
VERTEX
8
0
10
6647.8197553893915
20
16654.27553482999
0
VERTEX
8
0
10
6647.8197553893915
20
16525.72446517001
0
VERTEX
8
0
10
6572.259332476834
20
16421.72446517001
0
VERTEX
8
0
10
6450.0
20
16382.0
0
VERTEX
8
0
10
6450.0
20
16442.0
0
VERTEX
8
0
10
6536.992217339286
20
16470.265484832507
0
VERTEX
8
0
10
6590.756364411683
20
16544.265484832507
0
VERTEX
8
0
10
6590.756364411683
20
16635.734515167493
0
VERTEX
8
0
10
6536.992217339286
20
16709.734515167493
0
VERTEX
8
0
10
6450.0
20
16738.0
0
VERTEX
8
0
10
6450.0
20
16798.0
0
SEQEND
0
POLYLINE
8
0
66
1
10
0.0
20
0.0
30
0.0
0
VERTEX
8
0
10
6450.0
20
16726.0
0
VERTEX
8
0
10
6529.938794311776
20
16700.026311234993
0
VERTEX
8
0
10
6579.343686216141
20
16632.026311234993
0
VERTEX
8
0
10
6579.343686216141
20
16547.973688765007
0
VERTEX
8
0
10
6529.938794311776
20
16479.973688765007
0
VERTEX
8
0
10
6450.0
20
16454.0
0
VERTEX
8
0
10
6450.0
20
16514.0
0
VERTEX
8
0
10
6494.671679174228
20
16528.514708427505
0
VERTEX
8
0
10
6522.280295238432
20
16566.514708427505
0
VERTEX
8
0
10
6522.280295238432
20
16613.485291572495
0
VERTEX
8
0
10
6494.671679174228
20
16651.485291572495
0
VERTEX
8
0
10
6450.0
20
16666.0
0
VERTEX
8
0
10
6450.0
20
16726.0
0
SEQEND
0
POLYLINE
8
0
66
1
10
0.0
20
0.0
30
0.0
0
VERTEX
8
0
10
6450.0
20
16442.0
0
VERTEX
8
0
10
2950.0
20
16442.0
0
VERTEX
8
0
10
2950.0
20
16382.0
0
VERTEX
8
0
10
6450.0
20
16382.0
0
VERTEX
8
0
10
6450.0
20
16442.0
0
SEQEND
0
POLYLINE
8
0
66
1
10
0.0
20
0.0
30
0.0
0
VERTEX
8
0
10
6450.0
20
16454.0
0
VERTEX
8
0
10
2950.0
20
16454.0
0
VERTEX
8
0
10
2950.0
20
16514.0
0
VERTEX
8
0
10
6450.0
20
16514.0
0
VERTEX
8
0
10
6450.0
20
16454.0
0
SEQEND
0
POLYLINE
8
0
66
1
10
0.0
20
0.0
30
0.0
0
VERTEX
8
0
10
2950.0
20
16514.0
0
VERTEX
8
0
10
2827.7406675231655
20
16474.27553482999
0
VERTEX
8
0
10
2752.180244610608
20
16370.275534829989
0
VERTEX
8
0
10
2752.180244610608
20
16241.724465170011
0
VERTEX
8
0
10
2827.7406675231655
20
16137.724465170011
0
VERTEX
8
0
10
2950.0
20
16098.0
0
VERTEX
8
0
10
2950.0
20
16158.0
0
VERTEX
8
0
10
2863.007782660714
20
16186.265484832507
0
VERTEX
8
0
10
2809.2436355883174
20
16260.265484832507
0
VERTEX
8
0
10
2809.2436355883174
20
16351.734515167493
0
VERTEX
8
0
10
2863.007782660714
20
16425.734515167493
0
VERTEX
8
0
10
2950.0
20
16454.0
0
VERTEX
8
0
10
2950.0
20
16514.0
0
SEQEND
0
POLYLINE
8
0
66
1
10
0.0
20
0.0
30
0.0
0
VERTEX
8
0
10
2950.0
20
16442.0
0
VERTEX
8
0
10
2870.0612056882237
20
16416.026311234993
0
VERTEX
8
0
10
2820.6563137838593
20
16348.026311234993
0
VERTEX
8
0
10
2820.6563137838593
20
16263.973688765007
0
VERTEX
8
0
10
2870.0612056882237
20
16195.973688765007
0
VERTEX
8
0
10
2950.0
20
16170.0
0
VERTEX
8
0
10
2950.0
20
16230.0
0
VERTEX
8
0
10
2905.328320825772
20
16244.514708427503
0
VERTEX
8
0
10
2877.719704761568
20
16282.514708427503
0
VERTEX
8
0
10
2877.719704761568
20
16329.485291572497
0
VERTEX
8
0
10
2905.328320825772
20
16367.485291572497
0
VERTEX
8
0
10
2950.0
20
16382.0
0
VERTEX
8
0
10
2950.0
20
16442.0
0
SEQEND
0
POLYLINE
8
0
66
1
10
0.0
20
0.0
30
0.0
0
VERTEX
8
0
10
2950.0
20
16170.0
0
VERTEX
8
0
10
3857.699413286613
20
16170.0
0
VERTEX
8
0
10
3857.699413286613
20
16230.0
0
VERTEX
8
0
10
2950.0
20
16230.0
0
VERTEX
8
0
10
2950.0
20
16170.0
0
SEQEND
0
POLYLINE
8
0
66
1
10
0.0
20
0.0
30
0.0
0
VERTEX
8
0
10
2950.0
20
16158.0
0
VERTEX
8
0
10
3857.699413286613
20
16158.0
0
VERTEX
8
0
10
3857.699413286613
20
16098.0
0
VERTEX
8
0
10
2950.0
20
16098.0
0
VERTEX
8
0
10
2950.0
20
16158.0
0
SEQEND
0
POLYLINE
8
0
66
1
10
0.0
20
0.0
30
0.0
0
VERTEX
8
0
10
3857.699413286613
20
16170.0
0
VERTEX
8
0
10
3937.699413286613
20
16194.0
0
VERTEX
8
0
10
3937.699413286613
20
16206.0
0
VERTEX
8
0
10
3857.699413286613
20
16230.0
0
VERTEX
8
0
10
3857.699413286613
20
16170.0
0
SEQEND
0
POLYLINE
8
0
66
1
10
0.0
20
0.0
30
0.0
0
VERTEX
8
0
10
3857.699413286613
20
16158.0
0
VERTEX
8
0
10
3937.699413286613
20
16134.0
0
VERTEX
8
0
10
3937.699413286613
20
16122.0
0
VERTEX
8
0
10
3857.699413286613
20
16098.0
0
VERTEX
8
0
10
3857.699413286613
20
16158.0
0
SEQEND
0
POLYLINE
8
0
66
1
10
0.0
20
0.0
30
0.0
0
VERTEX
8
0
10
3937.699413286613
20
16194.0
0
VERTEX
8
0
10
6450.0
20
16194.0
0
VERTEX
8
0
10
6450.0
20
16206.0
0
VERTEX
8
0
10
3937.699413286613
20
16206.0
0
VERTEX
8
0
10
3937.699413286613
20
16194.0
0
SEQEND
0
POLYLINE
8
0
66
1
10
0.0
20
0.0
30
0.0
0
VERTEX
8
0
10
3937.699413286613
20
16134.0
0
VERTEX
8
0
10
6450.0
20
16134.0
0
VERTEX
8
0
10
6450.0
20
16122.0
0
VERTEX
8
0
10
3937.699413286613
20
16122.0
0
VERTEX
8
0
10
3937.699413286613
20
16134.0
0
SEQEND
0
POLYLINE
8
0
66
1
10
0.0
20
0.0
30
0.0
0
VERTEX
8
0
10
6450.0
20
16206.0
0
VERTEX
8
0
10
6539.343358348456
20
16176.970583144992
0
VERTEX
8
0
10
6594.560590476864
20
16100.970583144992
0
VERTEX
8
0
10
6594.560590476864
20
16007.029416855008
0
VERTEX
8
0
10
6539.343358348456
20
15931.029416855008
0
VERTEX
8
0
10
6450.0
20
15902.0
0
VERTEX
8
0
10
6450.0
20
15914.0
0
VERTEX
8
0
10
6532.289935320946
20
15940.737620787508
0
VERTEX
8
0
10
6583.147912281322
20
16010.737620787508
0
VERTEX
8
0
10
6583.147912281322
20
16097.262379212492
0
VERTEX
8
0
10
6532.289935320947
20
16167.262379212492
0
VERTEX
8
0
10
6450.0
20
16194.0
0
VERTEX
8
0
10
6450.0
20
16206.0
0
SEQEND
0
POLYLINE
8
0
66
1
10
0.0
20
0.0
30
0.0
0
VERTEX
8
0
10
6450.0
20
16134.0
0
VERTEX
8
0
10
6497.022820183398
20
16118.721359549996
0
VERTEX
8
0
10
6526.084521303612
20
16078.721359549996
0
VERTEX
8
0
10
6526.084521303612
20
16029.278640450004
0
VERTEX
8
0
10
6497.022820183398
20
15989.278640450004
0
VERTEX
8
0
10
6450.0
20
15974.0
0
VERTEX
8
0
10
6450.0
20
15986.0
0
VERTEX
8
0
10
6489.969397155888
20
15998.986844382503
0
VERTEX
8
0
10
6514.671843108071
20
16032.986844382503
0
VERTEX
8
0
10
6514.671843108071
20
16075.013155617497
0
VERTEX
8
0
10
6489.969397155888
20
16109.013155617497
0
VERTEX
8
0
10
6450.0
20
16122.0
0
VERTEX
8
0
10
6450.0
20
16134.0
0
SEQEND
0
POLYLINE
8
0
66
1
10
0.0
20
0.0
30
0.0
0
VERTEX
8
0
10
6450.0
20
15914.0
0
VERTEX
8
0
10
2950.0
20
15914.0
0
VERTEX
8
0
10
2950.0
20
15902.0
0
VERTEX
8
0
10
6450.0
20
15902.0
0
VERTEX
8
0
10
6450.0
20
15914.0
0
SEQEND
0
POLYLINE
8
0
66
1
10
0.0
20
0.0
30
0.0
0
VERTEX
8
0
10
6450.0
20
15974.0
0
VERTEX
8
0
10
2950.0
20
15974.0
0
VERTEX
8
0
10
2950.0
20
15986.0
0
VERTEX
8
0
10
6450.0
20
15986.0
0
VERTEX
8
0
10
6450.0
20
15974.0
0
SEQEND
0
POLYLINE
8
0
66
1
10
0.0
20
0.0
30
0.0
0
VERTEX
8
0
10
2950.0
20
15986.0
0
VERTEX
8
0
10
2860.6566416515443
20
15956.970583144992
0
VERTEX
8
0
10
2805.439409523137
20
15880.970583144992
0
VERTEX
8
0
10
2805.439409523137
20
15787.029416855008
0
VERTEX
8
0
10
2860.656641651544
20
15711.029416855008
0
VERTEX
8
0
10
2950.0
20
15682.0
0
VERTEX
8
0
10
2950.0
20
15694.0
0
VERTEX
8
0
10
2867.7100646790536
20
15720.737620787508
0
VERTEX
8
0
10
2816.8520877186784
20
15790.737620787508
0
VERTEX
8
0
10
2816.8520877186784
20
15877.262379212492
0
VERTEX
8
0
10
2867.7100646790536
20
15947.262379212492
0
VERTEX
8
0
10
2950.0
20
15974.0
0
VERTEX
8
0
10
2950.0
20
15986.0
0
SEQEND
0
POLYLINE
8
0
66
1
10
0.0
20
0.0
30
0.0
0
VERTEX
8
0
10
2950.0
20
15914.0
0
VERTEX
8
0
10
2902.977179816602
20
15898.721359549996
0
VERTEX
8
0
10
2873.9154786963877
20
15858.721359549996
0
VERTEX
8
0
10
2873.9154786963877
20
15809.278640450004
0
VERTEX
8
0
10
2902.977179816602
20
15769.278640450004
0
VERTEX
8
0
10
2950.0
20
15754.0
0
VERTEX
8
0
10
2950.0
20
15766.0
0
VERTEX
8
0
10
2910.030602844112
20
15778.986844382503
0
VERTEX
8
0
10
2885.3281568919297
20
15812.986844382503
0
VERTEX
8
0
10
2885.3281568919297
20
15855.013155617497
0
VERTEX
8
0
10
2910.030602844112
20
15889.013155617497
0
VERTEX
8
0
10
2950.0
20
15902.0
0
VERTEX
8
0
10
2950.0
20
15914.0
0
SEQEND
0
POLYLINE
8
0
66
1
10
0.0
20
0.0
30
0.0
0
VERTEX
8
0
10
2950.0
20
15754.0
0
VERTEX
8
0
10
4696.549029496859
20
15754.0
0
VERTEX
8
0
10
4696.549029496859
20
15766.0
0
VERTEX
8
0
10
2950.0
20
15766.0
0
VERTEX
8
0
10
2950.0
20
15754.0
0
SEQEND
0
POLYLINE
8
0
66
1
10
0.0
20
0.0
30
0.0
0
VERTEX
8
0
10
2950.0
20
15694.0
0
VERTEX
8
0
10
4696.549029496859
20
15694.0
0
VERTEX
8
0
10
4696.549029496859
20
15682.0
0
VERTEX
8
0
10
2950.0
20
15682.0
0
VERTEX
8
0
10
2950.0
20
15694.0
0
SEQEND
0
POLYLINE
8
0
66
1
10
0.0
20
0.0
30
0.0
0
VERTEX
8
0
10
4696.549029496859
20
15754.0
0
VERTEX
8
0
10
4776.549029496859
20
15730.0
0
VERTEX
8
0
10
4776.549029496859
20
15790.0
0
VERTEX
8
0
10
4696.549029496859
20
15766.0
0
VERTEX
8
0
10
4696.549029496859
20
15754.0
0
SEQEND
0
POLYLINE
8
0
66
1
10
0.0
20
0.0
30
0.0
0
VERTEX
8
0
10
4696.549029496859
20
15694.0
0
VERTEX
8
0
10
4776.549029496859
20
15718.0
0
VERTEX
8
0
10
4776.549029496859
20
15658.0
0
VERTEX
8
0
10
4696.549029496859
20
15682.0
0
VERTEX
8
0
10
4696.549029496859
20
15694.0
0
SEQEND
0
POLYLINE
8
0
66
1
10
0.0
20
0.0
30
0.0
0
VERTEX
8
0
10
4776.549029496859
20
15730.0
0
VERTEX
8
0
10
6450.0
20
15730.0
0
VERTEX
8
0
10
6450.0
20
15790.0
0
VERTEX
8
0
10
4776.549029496859
20
15790.0
0
VERTEX
8
0
10
4776.549029496859
20
15730.0
0
SEQEND
0
POLYLINE
8
0
66
1
10
0.0
20
0.0
30
0.0
0
VERTEX
8
0
10
4776.549029496859
20
15718.0
0
VERTEX
8
0
10
6450.0
20
15718.0
0
VERTEX
8
0
10
6450.0
20
15658.0
0
VERTEX
8
0
10
4776.549029496859
20
15658.0
0
VERTEX
8
0
10
4776.549029496859
20
15718.0
0
SEQEND
0
POLYLINE
8
0
66
1
10
0.0
20
0.0
30
0.0
0
VERTEX
8
0
10
6450.0
20
15790.0
0
VERTEX
8
0
10
6572.259332476835
20
15750.275534829989
0
VERTEX
8
0
10
6647.8197553893915
20
15646.275534829989
0
VERTEX
8
0
10
6647.8197553893915
20
15517.724465170011
0
VERTEX
8
0
10
6572.259332476834
20
15413.724465170011
0
VERTEX
8
0
10
6450.0
20
15374.0
0
VERTEX
8
0
10
6450.0
20
15434.0
0
VERTEX
8
0
10
6536.992217339286
20
15462.265484832507
0
VERTEX
8
0
10
6590.756364411683
20
15536.265484832507
0
VERTEX
8
0
10
6590.756364411683
20
15627.734515167493
0
VERTEX
8
0
10
6536.992217339286
20
15701.734515167493
0
VERTEX
8
0
10
6450.0
20
15730.0
0
VERTEX
8
0
10
6450.0
20
15790.0
0
SEQEND
0
POLYLINE
8
0
66
1
10
0.0
20
0.0
30
0.0
0
VERTEX
8
0
10
6450.0
20
15718.0
0
VERTEX
8
0
10
6529.938794311776
20
15692.026311234993
0
VERTEX
8
0
10
6579.343686216141
20
15624.026311234993
0
VERTEX
8
0
10
6579.343686216141
20
15539.973688765007
0
VERTEX
8
0
10
6529.938794311776
20
15471.973688765007
0
VERTEX
8
0
10
6450.0
20
15446.0
0
VERTEX
8
0
10
6450.0
20
15506.0
0
VERTEX
8
0
10
6494.671679174228
20
15520.514708427503
0
VERTEX
8
0
10
6522.280295238432
20
15558.514708427503
0
VERTEX
8
0
10
6522.280295238432
20
15605.485291572497
0
VERTEX
8
0
10
6494.671679174228
20
15643.485291572495
0
VERTEX
8
0
10
6450.0
20
15658.0
0
VERTEX
8
0
10
6450.0
20
15718.0
0
SEQEND
0
POLYLINE
8
0
66
1
10
0.0
20
0.0
30
0.0
0
VERTEX
8
0
10
6450.0
20
15434.0
0
VERTEX
8
0
10
2950.0
20
15434.0
0
VERTEX
8
0
10
2950.0
20
15374.0
0
VERTEX
8
0
10
6450.0
20
15374.0
0
VERTEX
8
0
10
6450.0
20
15434.0
0
SEQEND
0
POLYLINE
8
0
66
1
10
0.0
20
0.0
30
0.0
0
VERTEX
8
0
10
6450.0
20
15446.0
0
VERTEX
8
0
10
2950.0
20
15446.0
0
VERTEX
8
0
10
2950.0
20
15506.0
0
VERTEX
8
0
10
6450.0
20
15506.0
0
VERTEX
8
0
10
6450.0
20
15446.0
0
SEQEND
0
POLYLINE
8
0
66
1
10
0.0
20
0.0
30
0.0
0
VERTEX
8
0
10
2950.0
20
15506.0
0
VERTEX
8
0
10
2827.7406675231655
20
15466.275534829989
0
VERTEX
8
0
10
2752.180244610608
20
15362.275534829989
0
VERTEX
8
0
10
2752.180244610608
20
15233.724465170011
0
VERTEX
8
0
10
2827.7406675231655
20
15129.724465170011
0
VERTEX
8
0
10
2950.0
20
15090.0
0
VERTEX
8
0
10
2950.0
20
15150.0
0
VERTEX
8
0
10
2863.007782660714
20
15178.265484832507
0
VERTEX
8
0
10
2809.2436355883174
20
15252.265484832507
0
VERTEX
8
0
10
2809.2436355883174
20
15343.734515167493
0
VERTEX
8
0
10
2863.007782660714
20
15417.734515167493
0
VERTEX
8
0
10
2950.0
20
15446.0
0
VERTEX
8
0
10
2950.0
20
15506.0
0
SEQEND
0
POLYLINE
8
0
66
1
10
0.0
20
0.0
30
0.0
0
VERTEX
8
0
10
2950.0
20
15434.0
0
VERTEX
8
0
10
2870.0612056882237
20
15408.026311234993
0
VERTEX
8
0
10
2820.6563137838593
20
15340.026311234993
0
VERTEX
8
0
10
2820.6563137838593
20
15255.973688765007
0
VERTEX
8
0
10
2870.0612056882237
20
15187.973688765007
0
VERTEX
8
0
10
2950.0
20
15162.0
0
VERTEX
8
0
10
2950.0
20
15222.0
0
VERTEX
8
0
10
2905.328320825772
20
15236.514708427503
0
VERTEX
8
0
10
2877.719704761568
20
15274.514708427503
0
VERTEX
8
0
10
2877.719704761568
20
15321.485291572497
0
VERTEX
8
0
10
2905.328320825772
20
15359.485291572497
0
VERTEX
8
0
10
2950.0
20
15374.0
0
VERTEX
8
0
10
2950.0
20
15434.0
0
SEQEND
0
POLYLINE
8
0
66
1
10
0.0
20
0.0
30
0.0
0
VERTEX
8
0
10
2950.0
20
15162.0
0
VERTEX
8
0
10
5334.336715877358
20
15162.0
0
VERTEX
8
0
10
5334.336715877358
20
15222.0
0
VERTEX
8
0
10
2950.0
20
15222.0
0
VERTEX
8
0
10
2950.0
20
15162.0
0
SEQEND
0
POLYLINE
8
0
66
1
10
0.0
20
0.0
30
0.0
0
VERTEX
8
0
10
2950.0
20
15150.0
0
VERTEX
8
0
10
5334.336715877358
20
15150.0
0
VERTEX
8
0
10
5334.336715877358
20
15090.0
0
VERTEX
8
0
10
2950.0
20
15090.0
0
VERTEX
8
0
10
2950.0
20
15150.0
0
SEQEND
0
POLYLINE
8
0
66
1
10
0.0
20
0.0
30
0.0
0
VERTEX
8
0
10
5334.336715877358
20
15162.0
0
VERTEX
8
0
10
5414.336715877358
20
15186.0
0
VERTEX
8
0
10
5414.336715877358
20
15198.0
0
VERTEX
8
0
10
5334.336715877358
20
15222.0
0
VERTEX
8
0
10
5334.336715877358
20
15162.0
0
SEQEND
0
POLYLINE
8
0
66
1
10
0.0
20
0.0
30
0.0
0
VERTEX
8
0
10
5334.336715877358
20
15150.0
0
VERTEX
8
0
10
5414.336715877358
20
15126.0
0
VERTEX
8
0
10
5414.336715877358
20
15114.0
0
VERTEX
8
0
10
5334.336715877358
20
15090.0
0
VERTEX
8
0
10
5334.336715877358
20
15150.0
0
SEQEND
0
POLYLINE
8
0
66
1
10
0.0
20
0.0
30
0.0
0
VERTEX
8
0
10
5414.336715877358
20
15186.0
0
VERTEX
8
0
10
6450.0
20
15186.0
0
VERTEX
8
0
10
6450.0
20
15198.0
0
VERTEX
8
0
10
5414.336715877358
20
15198.0
0
VERTEX
8
0
10
5414.336715877358
20
15186.0
0
SEQEND
0
POLYLINE
8
0
66
1
10
0.0
20
0.0
30
0.0
0
VERTEX
8
0
10
5414.336715877358
20
15126.0
0
VERTEX
8
0
10
6450.0
20
15126.0
0
VERTEX
8
0
10
6450.0
20
15114.0
0
VERTEX
8
0
10
5414.336715877358
20
15114.0
0
VERTEX
8
0
10
5414.336715877358
20
15126.0
0
SEQEND
0
POLYLINE
8
0
66
1
10
0.0
20
0.0
30
0.0
0
VERTEX
8
0
10
6450.0
20
15198.0
0
VERTEX
8
0
10
6539.343358348456
20
15168.970583144992
0
VERTEX
8
0
10
6594.560590476864
20
15092.970583144992
0
VERTEX
8
0
10
6594.560590476864
20
14999.029416855008
0
VERTEX
8
0
10
6539.343358348456
20
14923.029416855008
0
VERTEX
8
0
10
6450.0
20
14894.0
0
VERTEX
8
0
10
6450.0
20
14906.0
0
VERTEX
8
0
10
6532.289935320946
20
14932.737620787508
0
VERTEX
8
0
10
6583.147912281322
20
15002.737620787508
0
VERTEX
8
0
10
6583.147912281322
20
15089.262379212492
0
VERTEX
8
0
10
6532.289935320947
20
15159.262379212492
0
VERTEX
8
0
10
6450.0
20
15186.0
0
VERTEX
8
0
10
6450.0
20
15198.0
0
SEQEND
0
POLYLINE
8
0
66
1
10
0.0
20
0.0
30
0.0
0
VERTEX
8
0
10
6450.0
20
15126.0
0
VERTEX
8
0
10
6497.022820183398
20
15110.721359549996
0
VERTEX
8
0
10
6526.084521303612
20
15070.721359549996
0
VERTEX
8
0
10
6526.084521303612
20
15021.278640450004
0
VERTEX
8
0
10
6497.022820183398
20
14981.278640450004
0
VERTEX
8
0
10
6450.0
20
14966.0
0
VERTEX
8
0
10
6450.0
20
14978.0
0
VERTEX
8
0
10
6489.969397155888
20
14990.986844382503
0
VERTEX
8
0
10
6514.671843108071
20
15024.986844382503
0
VERTEX
8
0
10
6514.671843108071
20
15067.013155617497
0
VERTEX
8
0
10
6489.969397155888
20
15101.013155617497
0
VERTEX
8
0
10
6450.0
20
15114.0
0
VERTEX
8
0
10
6450.0
20
15126.0
0
SEQEND
0
POLYLINE
8
0
66
1
10
0.0
20
0.0
30
0.0
0
VERTEX
8
0
10
6450.0
20
14906.0
0
VERTEX
8
0
10
2950.0
20
14906.0
0
VERTEX
8
0
10
2950.0
20
14894.0
0
VERTEX
8
0
10
6450.0
20
14894.0
0
VERTEX
8
0
10
6450.0
20
14906.0
0
SEQEND
0
POLYLINE
8
0
66
1
10
0.0
20
0.0
30
0.0
0
VERTEX
8
0
10
6450.0
20
14966.0
0
VERTEX
8
0
10
2950.0
20
14966.0
0
VERTEX
8
0
10
2950.0
20
14978.0
0
VERTEX
8
0
10
6450.0
20
14978.0
0
VERTEX
8
0
10
6450.0
20
14966.0
0
SEQEND
0
POLYLINE
8
0
66
1
10
0.0
20
0.0
30
0.0
0
VERTEX
8
0
10
2950.0
20
14978.0
0
VERTEX
8
0
10
2860.6566416515443
20
14948.970583144992
0
VERTEX
8
0
10
2805.439409523137
20
14872.970583144992
0
VERTEX
8
0
10
2805.439409523137
20
14779.029416855008
0
VERTEX
8
0
10
2860.656641651544
20
14703.029416855008
0
VERTEX
8
0
10
2950.0
20
14674.0
0
VERTEX
8
0
10
2950.0
20
14686.0
0
VERTEX
8
0
10
2867.7100646790536
20
14712.737620787508
0
VERTEX
8
0
10
2816.8520877186784
20
14782.737620787508
0
VERTEX
8
0
10
2816.8520877186784
20
14869.262379212492
0
VERTEX
8
0
10
2867.7100646790536
20
14939.262379212492
0
VERTEX
8
0
10
2950.0
20
14966.0
0
VERTEX
8
0
10
2950.0
20
14978.0
0
SEQEND
0
POLYLINE
8
0
66
1
10
0.0
20
0.0
30
0.0
0
VERTEX
8
0
10
2950.0
20
14906.0
0
VERTEX
8
0
10
2902.977179816602
20
14890.721359549996
0
VERTEX
8
0
10
2873.9154786963877
20
14850.721359549996
0
VERTEX
8
0
10
2873.9154786963877
20
14801.278640450004
0
VERTEX
8
0
10
2902.977179816602
20
14761.278640450004
0
VERTEX
8
0
10
2950.0
20
14746.0
0
VERTEX
8
0
10
2950.0
20
14758.0
0
VERTEX
8
0
10
2910.030602844112
20
14770.986844382503
0
VERTEX
8
0
10
2885.3281568919297
20
14804.986844382503
0
VERTEX
8
0
10
2885.3281568919297
20
14847.013155617497
0
VERTEX
8
0
10
2910.030602844112
20
14881.013155617497
0
VERTEX
8
0
10
2950.0
20
14894.0
0
VERTEX
8
0
10
2950.0
20
14906.0
0
SEQEND
0
POLYLINE
8
0
66
1
10
0.0
20
0.0
30
0.0
0
VERTEX
8
0
10
2950.0
20
14746.0
0
VERTEX
8
0
10
6173.186332087604
20
14746.0
0
VERTEX
8
0
10
6173.186332087604
20
14758.0
0
VERTEX
8
0
10
2950.0
20
14758.0
0
VERTEX
8
0
10
2950.0
20
14746.0
0
SEQEND
0
POLYLINE
8
0
66
1
10
0.0
20
0.0
30
0.0
0
VERTEX
8
0
10
2950.0
20
14686.0
0
VERTEX
8
0
10
6173.186332087604
20
14686.0
0
VERTEX
8
0
10
6173.186332087604
20
14674.0
0
VERTEX
8
0
10
2950.0
20
14674.0
0
VERTEX
8
0
10
2950.0
20
14686.0
0
SEQEND
0
POLYLINE
8
0
66
1
10
0.0
20
0.0
30
0.0
0
VERTEX
8
0
10
6173.186332087604
20
14746.0
0
VERTEX
8
0
10
6253.186332087604
20
14722.0
0
VERTEX
8
0
10
6253.186332087604
20
14782.0
0
VERTEX
8
0
10
6173.186332087604
20
14758.0
0
VERTEX
8
0
10
6173.186332087604
20
14746.0
0
SEQEND
0
POLYLINE
8
0
66
1
10
0.0
20
0.0
30
0.0
0
VERTEX
8
0
10
6173.186332087604
20
14686.0
0
VERTEX
8
0
10
6253.186332087604
20
14710.0
0
VERTEX
8
0
10
6253.186332087604
20
14650.0
0
VERTEX
8
0
10
6173.186332087604
20
14674.0
0
VERTEX
8
0
10
6173.186332087604
20
14686.0
0
SEQEND
0
POLYLINE
8
0
66
1
10
0.0
20
0.0
30
0.0
0
VERTEX
8
0
10
6253.186332087604
20
14722.0
0
VERTEX
8
0
10
6450.0
20
14722.0
0
VERTEX
8
0
10
6450.0
20
14782.0
0
VERTEX
8
0
10
6253.186332087604
20
14782.0
0
VERTEX
8
0
10
6253.186332087604
20
14722.0
0
SEQEND
0
POLYLINE
8
0
66
1
10
0.0
20
0.0
30
0.0
0
VERTEX
8
0
10
6253.186332087604
20
14710.0
0
VERTEX
8
0
10
6450.0
20
14710.0
0
VERTEX
8
0
10
6450.0
20
14650.0
0
VERTEX
8
0
10
6253.186332087604
20
14650.0
0
VERTEX
8
0
10
6253.186332087604
20
14710.0
0
SEQEND
0
POLYLINE
8
0
66
1
10
0.0
20
0.0
30
0.0
0
VERTEX
8
0
10
6450.0
20
14782.0
0
VERTEX
8
0
10
6572.259332476835
20
14742.275534829989
0
VERTEX
8
0
10
6647.8197553893915
20
14638.275534829989
0
VERTEX
8
0
10
6647.8197553893915
20
14509.724465170011
0
VERTEX
8
0
10
6572.259332476834
20
14405.724465170011
0
VERTEX
8
0
10
6450.0
20
14366.0
0
VERTEX
8
0
10
6450.0
20
14426.0
0
VERTEX
8
0
10
6536.992217339286
20
14454.265484832507
0
VERTEX
8
0
10
6590.756364411683
20
14528.265484832507
0
VERTEX
8
0
10
6590.756364411683
20
14619.734515167493
0
VERTEX
8
0
10
6536.992217339286
20
14693.734515167493
0
VERTEX
8
0
10
6450.0
20
14722.0
0
VERTEX
8
0
10
6450.0
20
14782.0
0
SEQEND
0
POLYLINE
8
0
66
1
10
0.0
20
0.0
30
0.0
0
VERTEX
8
0
10
6450.0
20
14710.0
0
VERTEX
8
0
10
6529.938794311776
20
14684.026311234993
0
VERTEX
8
0
10
6579.343686216141
20
14616.026311234993
0
VERTEX
8
0
10
6579.343686216141
20
14531.973688765007
0
VERTEX
8
0
10
6529.938794311776
20
14463.973688765007
0
VERTEX
8
0
10
6450.0
20
14438.0
0
VERTEX
8
0
10
6450.0
20
14498.0
0
VERTEX
8
0
10
6494.671679174228
20
14512.514708427503
0
VERTEX
8
0
10
6522.280295238432
20
14550.514708427503
0
VERTEX
8
0
10
6522.280295238432
20
14597.485291572497
0
VERTEX
8
0
10
6494.671679174228
20
14635.485291572495
0
VERTEX
8
0
10
6450.0
20
14650.0
0
VERTEX
8
0
10
6450.0
20
14710.0
0
SEQEND
0
POLYLINE
8
0
66
1
10
0.0
20
0.0
30
0.0
0
VERTEX
8
0
10
6450.0
20
14426.0
0
VERTEX
8
0
10
2950.0
20
14426.0
0
VERTEX
8
0
10
2950.0
20
14366.0
0
VERTEX
8
0
10
6450.0
20
14366.0
0
VERTEX
8
0
10
6450.0
20
14426.0
0
SEQEND
0
POLYLINE
8
0
66
1
10
0.0
20
0.0
30
0.0
0
VERTEX
8
0
10
6450.0
20
14438.0
0
VERTEX
8
0
10
2950.0
20
14438.0
0
VERTEX
8
0
10
2950.0
20
14498.0
0
VERTEX
8
0
10
6450.0
20
14498.0
0
VERTEX
8
0
10
6450.0
20
14438.0
0
SEQEND
0
POLYLINE
8
0
66
1
10
0.0
20
0.0
30
0.0
0
VERTEX
8
0
10
2950.0
20
14498.0
0
VERTEX
8
0
10
2827.7406675231655
20
14458.275534829989
0
VERTEX
8
0
10
2752.180244610608
20
14354.275534829989
0
VERTEX
8
0
10
2752.180244610608
20
14225.724465170011
0
VERTEX
8
0
10
2827.7406675231655
20
14121.724465170011
0
VERTEX
8
0
10
2950.0
20
14082.0
0
VERTEX
8
0
10
2950.0
20
14142.0
0
VERTEX
8
0
10
2863.007782660714
20
14170.265484832507
0
VERTEX
8
0
10
2809.2436355883174
20
14244.265484832507
0
VERTEX
8
0
10
2809.2436355883174
20
14335.734515167493
0
VERTEX
8
0
10
2863.007782660714
20
14409.734515167493
0
VERTEX
8
0
10
2950.0
20
14438.0
0
VERTEX
8
0
10
2950.0
20
14498.0
0
SEQEND
0
POLYLINE
8
0
66
1
10
0.0
20
0.0
30
0.0
0
VERTEX
8
0
10
2950.0
20
14426.0
0
VERTEX
8
0
10
2870.0612056882237
20
14400.026311234993
0
VERTEX
8
0
10
2820.6563137838593
20
14332.026311234993
0
VERTEX
8
0
10
2820.6563137838593
20
14247.973688765007
0
VERTEX
8
0
10
2870.0612056882237
20
14179.973688765007
0
VERTEX
8
0
10
2950.0
20
14154.0
0
VERTEX
8
0
10
2950.0
20
14214.0
0
VERTEX
8
0
10
2905.328320825772
20
14228.514708427503
0
VERTEX
8
0
10
2877.719704761568
20
14266.514708427503
0
VERTEX
8
0
10
2877.719704761568
20
14313.485291572497
0
VERTEX
8
0
10
2905.328320825772
20
14351.485291572497
0
VERTEX
8
0
10
2950.0
20
14366.0
0
VERTEX
8
0
10
2950.0
20
14426.0
0
SEQEND
0
POLYLINE
8
0
66
1
10
0.0
20
0.0
30
0.0
0
VERTEX
8
0
10
2950.0
20
14154.0
0
VERTEX
8
0
10
6450.0
20
14154.0
0
VERTEX
8
0
10
6450.0
20
14214.0
0
VERTEX
8
0
10
2950.0
20
14214.0
0
VERTEX
8
0
10
2950.0
20
14154.0
0
SEQEND
0
POLYLINE
8
0
66
1
10
0.0
20
0.0
30
0.0
0
VERTEX
8
0
10
2950.0
20
14142.0
0
VERTEX
8
0
10
6450.0
20
14142.0
0
VERTEX
8
0
10
6450.0
20
14082.0
0
VERTEX
8
0
10
2950.0
20
14082.0
0
VERTEX
8
0
10
2950.0
20
14142.0
0
SEQEND
0
POLYLINE
8
0
66
1
10
0.0
20
0.0
30
0.0
0
VERTEX
8
0
10
6450.0
20
14214.0
0
VERTEX
8
0
10
6572.259332476835
20
14174.275534829989
0
VERTEX
8
0
10
6647.8197553893915
20
14070.275534829989
0
VERTEX
8
0
10
6647.8197553893915
20
13941.724465170011
0
VERTEX
8
0
10
6572.259332476834
20
13837.724465170011
0
VERTEX
8
0
10
6450.0
20
13798.0
0
VERTEX
8
0
10
6450.0
20
13858.0
0
VERTEX
8
0
10
6536.992217339286
20
13886.265484832507
0
VERTEX
8
0
10
6590.756364411683
20
13960.265484832507
0
VERTEX
8
0
10
6590.756364411683
20
14051.734515167493
0
VERTEX
8
0
10
6536.992217339286
20
14125.734515167493
0
VERTEX
8
0
10
6450.0
20
14154.0
0
VERTEX
8
0
10
6450.0
20
14214.0
0
SEQEND
0
POLYLINE
8
0
66
1
10
0.0
20
0.0
30
0.0
0
VERTEX
8
0
10
6450.0
20
14142.0
0
VERTEX
8
0
10
6529.938794311776
20
14116.026311234993
0
VERTEX
8
0
10
6579.343686216141
20
14048.026311234993
0
VERTEX
8
0
10
6579.343686216141
20
13963.973688765007
0
VERTEX
8
0
10
6529.938794311776
20
13895.973688765007
0
VERTEX
8
0
10
6450.0
20
13870.0
0
VERTEX
8
0
10
6450.0
20
13930.0
0
VERTEX
8
0
10
6494.671679174228
20
13944.514708427503
0
VERTEX
8
0
10
6522.280295238432
20
13982.514708427503
0
VERTEX
8
0
10
6522.280295238432
20
14029.485291572497
0
VERTEX
8
0
10
6494.671679174228
20
14067.485291572495
0
VERTEX
8
0
10
6450.0
20
14082.0
0
VERTEX
8
0
10
6450.0
20
14142.0
0
SEQEND
0
POLYLINE
8
0
66
1
10
0.0
20
0.0
30
0.0
0
VERTEX
8
0
10
6450.0
20
13858.0
0
VERTEX
8
0
10
6370.0
20
13834.0
0
VERTEX
8
0
10
6370.0
20
13822.0
0
VERTEX
8
0
10
6450.0
20
13798.0
0
VERTEX
8
0
10
6450.0
20
13858.0
0
SEQEND
0
POLYLINE
8
0
66
1
10
0.0
20
0.0
30
0.0
0
VERTEX
8
0
10
6450.0
20
13870.0
0
VERTEX
8
0
10
6370.0
20
13894.0
0
VERTEX
8
0
10
6370.0
20
13906.0
0
VERTEX
8
0
10
6450.0
20
13930.0
0
VERTEX
8
0
10
6450.0
20
13870.0
0
SEQEND
0
POLYLINE
8
0
66
1
10
0.0
20
0.0
30
0.0
0
VERTEX
8
0
10
6370.0
20
13834.0
0
VERTEX
8
0
10
2950.0
20
13834.0
0
VERTEX
8
0
10
2950.0
20
13822.0
0
VERTEX
8
0
10
6370.0
20
13822.0
0
VERTEX
8
0
10
6370.0
20
13834.0
0
SEQEND
0
POLYLINE
8
0
66
1
10
0.0
20
0.0
30
0.0
0
VERTEX
8
0
10
6370.0
20
13894.0
0
VERTEX
8
0
10
2950.0
20
13894.0
0
VERTEX
8
0
10
2950.0
20
13906.0
0
VERTEX
8
0
10
6370.0
20
13906.0
0
VERTEX
8
0
10
6370.0
20
13894.0
0
SEQEND
0
POLYLINE
8
0
66
1
10
0.0
20
0.0
30
0.0
0
VERTEX
8
0
10
2950.0
20
13906.0
0
VERTEX
8
0
10
2860.6566416515443
20
13876.970583144992
0
VERTEX
8
0
10
2805.439409523137
20
13800.970583144992
0
VERTEX
8
0
10
2805.439409523137
20
13707.029416855008
0
VERTEX
8
0
10
2860.656641651544
20
13631.029416855008
0
VERTEX
8
0
10
2950.0
20
13602.0
0
VERTEX
8
0
10
2950.0
20
13614.0
0
VERTEX
8
0
10
2867.7100646790536
20
13640.737620787508
0
VERTEX
8
0
10
2816.8520877186784
20
13710.737620787508
0
VERTEX
8
0
10
2816.8520877186784
20
13797.262379212492
0
VERTEX
8
0
10
2867.7100646790536
20
13867.262379212492
0
VERTEX
8
0
10
2950.0
20
13894.0
0
VERTEX
8
0
10
2950.0
20
13906.0
0
SEQEND
0
POLYLINE
8
0
66
1
10
0.0
20
0.0
30
0.0
0
VERTEX
8
0
10
2950.0
20
13834.0
0
VERTEX
8
0
10
2902.977179816602
20
13818.721359549996
0
VERTEX
8
0
10
2873.9154786963877
20
13778.721359549996
0
VERTEX
8
0
10
2873.9154786963877
20
13729.278640450004
0
VERTEX
8
0
10
2902.977179816602
20
13689.278640450004
0
VERTEX
8
0
10
2950.0
20
13674.0
0
VERTEX
8
0
10
2950.0
20
13686.0
0
VERTEX
8
0
10
2910.030602844112
20
13698.986844382503
0
VERTEX
8
0
10
2885.3281568919297
20
13732.986844382503
0
VERTEX
8
0
10
2885.3281568919297
20
13775.013155617497
0
VERTEX
8
0
10
2910.030602844112
20
13809.013155617497
0
VERTEX
8
0
10
2950.0
20
13822.0
0
VERTEX
8
0
10
2950.0
20
13834.0
0
SEQEND
0
POLYLINE
8
0
66
1
10
0.0
20
0.0
30
0.0
0
VERTEX
8
0
10
2950.0
20
13674.0
0
VERTEX
8
0
10
6450.0
20
13674.0
0
VERTEX
8
0
10
6450.0
20
13686.0
0
VERTEX
8
0
10
2950.0
20
13686.0
0
VERTEX
8
0
10
2950.0
20
13674.0
0
SEQEND
0
POLYLINE
8
0
66
1
10
0.0
20
0.0
30
0.0
0
VERTEX
8
0
10
2950.0
20
13614.0
0
VERTEX
8
0
10
6450.0
20
13614.0
0
VERTEX
8
0
10
6450.0
20
13602.0
0
VERTEX
8
0
10
2950.0
20
13602.0
0
VERTEX
8
0
10
2950.0
20
13614.0
0
SEQEND
0
POLYLINE
8
0
66
1
10
0.0
20
0.0
30
0.0
0
VERTEX
8
0
10
6450.0
20
13686.0
0
VERTEX
8
0
10
6539.343358348456
20
13656.970583144992
0
VERTEX
8
0
10
6594.560590476864
20
13580.970583144992
0
VERTEX
8
0
10
6594.560590476864
20
13487.029416855008
0
VERTEX
8
0
10
6539.343358348456
20
13411.029416855008
0
VERTEX
8
0
10
6450.0
20
13382.0
0
VERTEX
8
0
10
6450.0
20
13394.0
0
VERTEX
8
0
10
6532.289935320946
20
13420.737620787508
0
VERTEX
8
0
10
6583.147912281322
20
13490.737620787508
0
VERTEX
8
0
10
6583.147912281322
20
13577.262379212492
0
VERTEX
8
0
10
6532.289935320947
20
13647.262379212492
0
VERTEX
8
0
10
6450.0
20
13674.0
0
VERTEX
8
0
10
6450.0
20
13686.0
0
SEQEND
0
POLYLINE
8
0
66
1
10
0.0
20
0.0
30
0.0
0
VERTEX
8
0
10
6450.0
20
13614.0
0
VERTEX
8
0
10
6497.022820183398
20
13598.721359549996
0
VERTEX
8
0
10
6526.084521303612
20
13558.721359549996
0
VERTEX
8
0
10
6526.084521303612
20
13509.278640450004
0
VERTEX
8
0
10
6497.022820183398
20
13469.278640450004
0
VERTEX
8
0
10
6450.0
20
13454.0
0
VERTEX
8
0
10
6450.0
20
13466.0
0
VERTEX
8
0
10
6489.969397155888
20
13478.986844382503
0
VERTEX
8
0
10
6514.671843108071
20
13512.986844382503
0
VERTEX
8
0
10
6514.671843108071
20
13555.013155617497
0
VERTEX
8
0
10
6489.969397155888
20
13589.013155617497
0
VERTEX
8
0
10
6450.0
20
13602.0
0
VERTEX
8
0
10
6450.0
20
13614.0
0
SEQEND
0
POLYLINE
8
0
66
1
10
0.0
20
0.0
30
0.0
0
VERTEX
8
0
10
6450.0
20
13394.0
0
VERTEX
8
0
10
5611.150383789754
20
13394.0
0
VERTEX
8
0
10
5611.150383789754
20
13382.0
0
VERTEX
8
0
10
6450.0
20
13382.0
0
VERTEX
8
0
10
6450.0
20
13394.0
0
SEQEND
0
POLYLINE
8
0
66
1
10
0.0
20
0.0
30
0.0
0
VERTEX
8
0
10
6450.0
20
13454.0
0
VERTEX
8
0
10
5611.150383789754
20
13454.0
0
VERTEX
8
0
10
5611.150383789754
20
13466.0
0
VERTEX
8
0
10
6450.0
20
13466.0
0
VERTEX
8
0
10
6450.0
20
13454.0
0
SEQEND
0
POLYLINE
8
0
66
1
10
0.0
20
0.0
30
0.0
0
VERTEX
8
0
10
5611.150383789754
20
13394.0
0
VERTEX
8
0
10
5531.150383789754
20
13419.0
0
VERTEX
8
0
10
5531.150383789754
20
13414.15831189058
0
VERTEX
8
0
10
5611.150383789754
20
13382.0
0
VERTEX
8
0
10
5611.150383789754
20
13394.0
0
SEQEND
0
POLYLINE
8
0
66
1
10
0.0
20
0.0
30
0.0
0
VERTEX
8
0
10
5611.150383789754
20
13454.0
0
VERTEX
8
0
10
5531.150383789754
20
13429.0
0
VERTEX
8
0
10
5531.150383789754
20
13433.84168810942
0
VERTEX
8
0
10
5611.150383789754
20
13466.0
0
VERTEX
8
0
10
5611.150383789754
20
13454.0
0
SEQEND
0
POLYLINE
8
0
66
1
10
0.0
20
0.0
30
0.0
0
VERTEX
8
0
10
5531.150383789754
20
13419.0
0
VERTEX
8
0
10
4850.0
20
13419.0
0
VERTEX
8
0
10
4850.0
20
13414.15831189058
0
VERTEX
8
0
10
5531.150383789754
20
13414.15831189058
0
VERTEX
8
0
10
5531.150383789754
20
13419.0
0
SEQEND
0
POLYLINE
8
0
66
1
10
0.0
20
0.0
30
0.0
0
VERTEX
8
0
10
5531.150383789754
20
13429.0
0
VERTEX
8
0
10
4850.0
20
13429.0
0
VERTEX
8
0
10
4850.0
20
13433.84168810942
0
VERTEX
8
0
10
5531.150383789754
20
13433.84168810942
0
VERTEX
8
0
10
5531.150383789754
20
13429.0
0
SEQEND
0
POLYLINE
8
0
66
1
10
0.0
20
0.0
30
0.0
0
VERTEX
8
0
10
4850.0
20
13433.84168810942
0
VERTEX
8
0
10
4831.507901402104
20
13430.912827422566
0
VERTEX
8
0
10
4814.825938256998
20
13422.412942652605
0
VERTEX
8
0
10
4801.587057347395
20
13409.174061743002
0
VERTEX
8
0
10
4793.087172577434
20
13392.492098597895
0
VERTEX
8
0
10
4790.158311890581
20
13374.0
0
VERTEX
8
0
10
4795.0
20
13374.0
0
VERTEX
8
0
10
4797.691891603767
20
13390.995934690622
0
VERTEX
8
0
10
4805.504065309378
20
13406.328188876087
0
VERTEX
8
0
10
4817.671811123914
20
13418.495934690622
0
VERTEX
8
0
10
4833.004065309378
20
13426.308108396233
0
VERTEX
8
0
10
4850.0
20
13429.0
0
VERTEX
8
0
10
4850.0
20
13433.84168810942
0
SEQEND
0
POLYLINE
8
0
66
1
10
0.0
20
0.0
30
0.0
0
VERTEX
8
0
10
4850.0
20
13419.0
0
VERTEX
8
0
10
4836.094235253127
20
13416.797543233282
0
VERTEX
8
0
10
4823.549663646839
20
13410.405764746873
0
VERTEX
8
0
10
4813.594235253127
20
13400.450336353162
0
VERTEX
8
0
10
4807.202456766718
20
13387.905764746873
0
VERTEX
8
0
10
4805.0
20
13374.0
0
VERTEX
8
0
10
4809.841688109419
20
13374.0
0
VERTEX
8
0
10
4811.80717579305
20
13386.409600839599
0
VERTEX
8
0
10
4817.511243215111
20
13397.604463486245
0
VERTEX
8
0
10
4826.395536513755
20
13406.48875678489
0
VERTEX
8
0
10
4837.590399160401
20
13412.19282420695
0
VERTEX
8
0
10
4850.0
20
13414.15831189058
0
VERTEX
8
0
10
4850.0
20
13419.0
0
SEQEND
0
POLYLINE
8
0
66
1
10
0.0
20
0.0
30
0.0
0
VERTEX
8
0
10
4805.0
20
13374.0
0
VERTEX
8
0
10
4804.999999999998
20
1050.0
0
VERTEX
8
0
10
4809.841688109418
20
1050.0
0
VERTEX
8
0
10
4809.84168810942
20
13374.0
0
VERTEX
8
0
10
4805.0
20
13374.0
0
SEQEND
0
POLYLINE
8
0
66
1
10
0.0
20
0.0
30
0.0
0
VERTEX
8
0
10
4795.0
20
13374.0
0
VERTEX
8
0
10
4794.999999999998
20
1050.0
0
VERTEX
8
0
10
4790.158311890578
20
1050.0
0
VERTEX
8
0
10
4790.15831189058
20
13374.0
0
VERTEX
8
0
10
4795.0
20
13374.0
0
SEQEND
0
POLYLINE
8
0
66
1
10
0.0
20
0.0
30
0.0
0
VERTEX
8
0
10
-200.0
20
19800.0
0
VERTEX
8
0
10
-130.0
20
19800.0
0
VERTEX
8
0
10
-130.0
20
19780.0
0
VERTEX
8
0
10
-180.0
20
19780.0
0
VERTEX
8
0
10
-180.0
20
19730.0
0
VERTEX
8
0
10
-200.0
20
19730.0
0
VERTEX
8
0
10
-200.0
20
19800.0
0
SEQEND
0
POLYLINE
8
0
66
1
10
0.0
20
0.0
30
0.0
0
VERTEX
8
0
10
-200.0
20
-200.0
0
VERTEX
8
0
10
-130.0
20
-200.0
0
VERTEX
8
0
10
-130.0
20
-180.0
0
VERTEX
8
0
10
-180.0
20
-180.0
0
VERTEX
8
0
10
-180.0
20
-130.0
0
VERTEX
8
0
10
-200.0
20
-130.0
0
VERTEX
8
0
10
-200.0
20
-200.0
0
SEQEND
0
POLYLINE
8
0
66
1
10
0.0
20
0.0
30
0.0
0
VERTEX
8
0
10
9800.0
20
-200.0
0
VERTEX
8
0
10
9730.0
20
-200.0
0
VERTEX
8
0
10
9730.0
20
-180.0
0
VERTEX
8
0
10
9780.0
20
-180.0
0
VERTEX
8
0
10
9780.0
20
-130.0
0
VERTEX
8
0
10
9800.0
20
-130.0
0
VERTEX
8
0
10
9800.0
20
-200.0
0
SEQEND
0
POLYLINE
8
0
66
1
10
0.0
20
0.0
30
0.0
0
VERTEX
8
0
10
9800.0
20
19800.0
0
VERTEX
8
0
10
9730.0
20
19800.0
0
VERTEX
8
0
10
9730.0
20
19780.0
0
VERTEX
8
0
10
9780.0
20
19780.0
0
VERTEX
8
0
10
9780.0
20
19730.0
0
VERTEX
8
0
10
9800.0
20
19730.0
0
VERTEX
8
0
10
9800.0
20
19800.0
0
SEQEND
0
POLYLINE
8
0
66
1
10
0.0
20
0.0
30
0.0
0
VERTEX
8
0
10
2275.0
20
19800.0
0
VERTEX
8
0
10
2325.0
20
19800.0
0
VERTEX
8
0
10
2325.0
20
19780.0
0
VERTEX
8
0
10
2275.0
20
19780.0
0
VERTEX
8
0
10
2275.0
20
19800.0
0
SEQEND
0
POLYLINE
8
0
66
1
10
0.0
20
0.0
30
0.0
0
VERTEX
8
0
10
2275.0
20
-200.0
0
VERTEX
8
0
10
2325.0
20
-200.0
0
VERTEX
8
0
10
2325.0
20
-180.0
0
VERTEX
8
0
10
2275.0
20
-180.0
0
VERTEX
8
0
10
2275.0
20
-200.0
0
SEQEND
0
POLYLINE
8
0
66
1
10
0.0
20
0.0
30
0.0
0
VERTEX
8
0
10
-200.0
20
4775.0
0
VERTEX
8
0
10
-200.0
20
4825.0
0
VERTEX
8
0
10
-180.0
20
4825.0
0
VERTEX
8
0
10
-180.0
20
4775.0
0
VERTEX
8
0
10
-200.0
20
4775.0
0
SEQEND
0
POLYLINE
8
0
66
1
10
0.0
20
0.0
30
0.0
0
VERTEX
8
0
10
9800.0
20
4775.0
0
VERTEX
8
0
10
9800.0
20
4825.0
0
VERTEX
8
0
10
9780.0
20
4825.0
0
VERTEX
8
0
10
9780.0
20
4775.0
0
VERTEX
8
0
10
9800.0
20
4775.0
0
SEQEND
0
POLYLINE
8
0
66
1
10
0.0
20
0.0
30
0.0
0
VERTEX
8
0
10
4775.0
20
19800.0
0
VERTEX
8
0
10
4825.0
20
19800.0
0
VERTEX
8
0
10
4825.0
20
19780.0
0
VERTEX
8
0
10
4775.0
20
19780.0
0
VERTEX
8
0
10
4775.0
20
19800.0
0
SEQEND
0
POLYLINE
8
0
66
1
10
0.0
20
0.0
30
0.0
0
VERTEX
8
0
10
4775.0
20
-200.0
0
VERTEX
8
0
10
4825.0
20
-200.0
0
VERTEX
8
0
10
4825.0
20
-180.0
0
VERTEX
8
0
10
4775.0
20
-180.0
0
VERTEX
8
0
10
4775.0
20
-200.0
0
SEQEND
0
POLYLINE
8
0
66
1
10
0.0
20
0.0
30
0.0
0
VERTEX
8
0
10
-200.0
20
9775.0
0
VERTEX
8
0
10
-200.0
20
9825.0
0
VERTEX
8
0
10
-180.0
20
9825.0
0
VERTEX
8
0
10
-180.0
20
9775.0
0
VERTEX
8
0
10
-200.0
20
9775.0
0
SEQEND
0
POLYLINE
8
0
66
1
10
0.0
20
0.0
30
0.0
0
VERTEX
8
0
10
9800.0
20
9775.0
0
VERTEX
8
0
10
9800.0
20
9825.0
0
VERTEX
8
0
10
9780.0
20
9825.0
0
VERTEX
8
0
10
9780.0
20
9775.0
0
VERTEX
8
0
10
9800.0
20
9775.0
0
SEQEND
0
POLYLINE
8
0
66
1
10
0.0
20
0.0
30
0.0
0
VERTEX
8
0
10
7275.0
20
19800.0
0
VERTEX
8
0
10
7325.0
20
19800.0
0
VERTEX
8
0
10
7325.0
20
19780.0
0
VERTEX
8
0
10
7275.0
20
19780.0
0
VERTEX
8
0
10
7275.0
20
19800.0
0
SEQEND
0
POLYLINE
8
0
66
1
10
0.0
20
0.0
30
0.0
0
VERTEX
8
0
10
7275.0
20
-200.0
0
VERTEX
8
0
10
7325.0
20
-200.0
0
VERTEX
8
0
10
7325.0
20
-180.0
0
VERTEX
8
0
10
7275.0
20
-180.0
0
VERTEX
8
0
10
7275.0
20
-200.0
0
SEQEND
0
POLYLINE
8
0
66
1
10
0.0
20
0.0
30
0.0
0
VERTEX
8
0
10
-200.0
20
14775.0
0
VERTEX
8
0
10
-200.0
20
14825.0
0
VERTEX
8
0
10
-180.0
20
14825.0
0
VERTEX
8
0
10
-180.0
20
14775.0
0
VERTEX
8
0
10
-200.0
20
14775.0
0
SEQEND
0
POLYLINE
8
0
66
1
10
0.0
20
0.0
30
0.0
0
VERTEX
8
0
10
9800.0
20
14775.0
0
VERTEX
8
0
10
9800.0
20
14825.0
0
VERTEX
8
0
10
9780.0
20
14825.0
0
VERTEX
8
0
10
9780.0
20
14775.0
0
VERTEX
8
0
10
9800.0
20
14775.0
0
SEQEND
0
POLYLINE
8
0
66
1
10
0.0
20
0.0
30
0.0
0
VERTEX
8
0
10
8800.0
20
19430.0
0
VERTEX
8
0
10
8852.5
20
19430.0
0
VERTEX
8
0
10
8852.5
20
19473.75
0
VERTEX
8
0
10
8817.5
20
19473.75
0
VERTEX
8
0
10
8817.5
20
19491.25
0
VERTEX
8
0
10
8852.5
20
19491.25
0
VERTEX
8
0
10
8852.5
20
19500.0
0
VERTEX
8
0
10
8800.0
20
19500.0
0
VERTEX
8
0
10
8800.0
20
19465.0
0
VERTEX
8
0
10
8835.0
20
19465.0
0
VERTEX
8
0
10
8835.0
20
19438.75
0
VERTEX
8
0
10
8800.0
20
19438.75
0
VERTEX
8
0
10
8800.0
20
19430.0
0
VERTEX
8
0
10
8800.0
20
19430.0
0
SEQEND
0
POLYLINE
8
0
66
1
10
0.0
20
0.0
30
0.0
0
VERTEX
8
0
10
8870.0
20
19430.0
0
VERTEX
8
0
10
8922.5
20
19430.0
0
VERTEX
8
0
10
8922.5
20
19438.75
0
VERTEX
8
0
10
8905.0
20
19438.75
0
VERTEX
8
0
10
8905.0
20
19491.25
0
VERTEX
8
0
10
8922.5
20
19491.25
0
VERTEX
8
0
10
8922.5
20
19500.0
0
VERTEX
8
0
10
8870.0
20
19500.0
0
VERTEX
8
0
10
8870.0
20
19491.25
0
VERTEX
8
0
10
8887.5
20
19491.25
0
VERTEX
8
0
10
8887.5
20
19438.75
0
VERTEX
8
0
10
8870.0
20
19438.75
0
VERTEX
8
0
10
8870.0
20
19430.0
0
VERTEX
8
0
10
8870.0
20
19430.0
0
SEQEND
0
POLYLINE
8
0
66
1
10
0.0
20
0.0
30
0.0
0
VERTEX
8
0
10
8940.0
20
19430.0
0
VERTEX
8
0
10
8957.5
20
19430.0
0
VERTEX
8
0
10
8957.5
20
19500.0
0
VERTEX
8
0
10
8940.0
20
19500.0
0
VERTEX
8
0
10
8940.0
20
19430.0
0
SEQEND
0
POLYLINE
8
0
66
1
10
0.0
20
0.0
30
0.0
0
VERTEX
8
0
10
8957.5
20
19465.0
0
VERTEX
8
0
10
8992.5
20
19465.0
0
VERTEX
8
0
10
8992.5
20
19500.0
0
VERTEX
8
0
10
8957.5
20
19500.0
0
VERTEX
8
0
10
8957.5
20
19491.25
0
VERTEX
8
0
10
8975.0
20
19491.25
0
VERTEX
8
0
10
8975.0
20
19473.75
0
VERTEX
8
0
10
8957.5
20
19473.75
0
VERTEX
8
0
10
8957.5
20
19465.0
0
SEQEND
0
POLYLINE
8
0
66
1
10
0.0
20
0.0
30
0.0
0
VERTEX
8
0
10
9010.0
20
19430.0
0
VERTEX
8
0
10
9010.0
20
19500.0
0
VERTEX
8
0
10
9062.5
20
19500.0
0
VERTEX
8
0
10
9062.5
20
19491.25
0
VERTEX
8
0
10
9027.5
20
19491.25
0
VERTEX
8
0
10
9027.5
20
19473.75
0
VERTEX
8
0
10
9045.0
20
19473.75
0
VERTEX
8
0
10
9045.0
20
19465.0
0
VERTEX
8
0
10
9027.5
20
19465.0
0
VERTEX
8
0
10
9027.5
20
19430.0
0
VERTEX
8
0
10
9010.0
20
19430.0
0
VERTEX
8
0
10
9010.0
20
19430.0
0
SEQEND
0
POLYLINE
8
0
66
1
10
0.0
20
0.0
30
0.0
0
VERTEX
8
0
10
200.0
20
100.0
0
VERTEX
8
0
10
252.5
20
100.0
0
VERTEX
8
0
10
252.5
20
143.75
0
VERTEX
8
0
10
217.5
20
143.75
0
VERTEX
8
0
10
217.5
20
161.25
0
VERTEX
8
0
10
252.5
20
161.25
0
VERTEX
8
0
10
252.5
20
170.0
0
VERTEX
8
0
10
200.0
20
170.0
0
VERTEX
8
0
10
200.0
20
135.0
0
VERTEX
8
0
10
235.0
20
135.0
0
VERTEX
8
0
10
235.0
20
108.75
0
VERTEX
8
0
10
200.0
20
108.75
0
VERTEX
8
0
10
200.0
20
100.0
0
VERTEX
8
0
10
200.0
20
100.0
0
SEQEND
0
POLYLINE
8
0
66
1
10
0.0
20
0.0
30
0.0
0
VERTEX
8
0
10
305.0
20
100.0
0
VERTEX
8
0
10
322.5
20
100.0
0
VERTEX
8
0
10
322.5
20
170.0
0
VERTEX
8
0
10
305.0
20
170.0
0
VERTEX
8
0
10
305.0
20
100.0
0
SEQEND
0
POLYLINE
8
0
66
1
10
0.0
20
0.0
30
0.0
0
VERTEX
8
0
10
305.0
20
170.0
0
VERTEX
8
0
10
270.0
20
170.0
0
VERTEX
8
0
10
270.0
20
135.0
0
VERTEX
8
0
10
305.0
20
135.0
0
VERTEX
8
0
10
305.0
20
143.75
0
VERTEX
8
0
10
287.5
20
143.75
0
VERTEX
8
0
10
287.5
20
161.25
0
VERTEX
8
0
10
305.0
20
161.25
0
VERTEX
8
0
10
305.0
20
170.0
0
SEQEND
0
ENDBLK
0
ENDSEC
0
SECTION
2
ENTITIES
0
INSERT
2
S9
8
0
10
0
20
0
0
ENDSEC
0
EOF
