0
SECTION
2
HEADER
9
$ACADVER
1
AC1006
9
$INSBASE
10
0.0
20
0.0
30
0.0
9
$EXTMIN
10
0.0
20
0.0
9
$EXTMAX
10
0.0
20
0.0
0
ENDSEC
0
SECTION
2
TABLES
0
TABLE
2
LTYPE
70
1
0
LTYPE
2
CONTINUOUS
70
64
3
Solid line
72
65
73
0
40
0.0
0
ENDTAB
0
TABLE
2
LAYER
70
3
0
LAYER
2
PYDXF
70
64
62
7
6
continuous
0
LAYER
2
GAP
70
64
62
1
6
continuous
0
LAYER
2
PIN
70
64
62
3
6
continuous
0
ENDTAB
0
TABLE
2
STYLE
70
1
0
STYLE
2
STANDARD
70
0
40
0
41
40
50
50
71
0
42
1
3
ARIAL.TTF
4

0
ENDTAB
0
TABLE
2
VIEW
70
0
0
ENDTAB
0
ENDSEC
0
SECTION
2
BLOCKS
0
BLOCK
8
gap
2
AGAP
70
0
10
0
20
0
30
0
3
AGAP
0
SOLID
8
0
10
0.0
20
800.0
11
75.0
21
800.0
12
0.0
22
1100.0
13
75.0
23
1100.0
0
POLYLINE
8
0
66
1
10
0.0
20
0.0
30
0.0
0
VERTEX
8
0
10
0.0
20
800.0
0
VERTEX
8
0
10
75.0
20
800.0
0
VERTEX
8
0
10
75.0
20
1100.0
0
VERTEX
8
0
10
0.0
20
1100.0
0
VERTEX
8
0
10
0.0
20
800.0
0
SEQEND
0
SOLID
8
0
10
75.0
20
800.0
11
250.0
21
800.0
12
75.0
22
1100.0
13
250.0
23
1100.0
0
POLYLINE
8
0
66
1
10
0.0
20
0.0
30
0.0
0
VERTEX
8
0
10
75.0
20
800.0
0
VERTEX
8
0
10
250.0
20
800.0
0
VERTEX
8
0
10
250.0
20
1100.0
0
VERTEX
8
0
10
75.0
20
1100.0
0
VERTEX
8
0
10
75.0
20
800.0
0
SEQEND
0
SOLID
8
0
10
250.0
20
950.0
11
500.0
21
950.0
12
250.0
22
1100.0
13
500.0
23
965.0
0
SOLID
8
0
10
250.0
20
950.0
11
500.0
21
950.0
12
250.0
22
800.0
13
500.0
23
935.0
0
SOLID
8
0
10
500.0
20
935.0
11
900.0
21
935.0
12
500.0
22
965.0
13
900.0
23
965.0
0
POLYLINE
8
0
66
1
10
0.0
20
0.0
30
0.0
0
VERTEX
8
0
10
500.0
20
935.0
0
VERTEX
8
0
10
900.0
20
935.0
0
VERTEX
8
0
10
900.0
20
965.0
0
VERTEX
8
0
10
500.0
20
965.0
0
VERTEX
8
0
10
500.0
20
935.0
0
SEQEND
0
SOLID
8
0
10
900.0
20
950.0
11
950.0
21
950.0
12
900.0
22
965.0
13
950.0
23
986.0
0
SOLID
8
0
10
900.0
20
950.0
11
950.0
21
950.0
12
900.0
22
935.0
13
950.0
23
914.0
0
SOLID
8
0
10
950.0
20
914.0
11
1021.0
21
914.0
12
950.0
22
986.0
13
1021.0
23
986.0
0
SOLID
8
0
10
1021.0
20
950.0
11
1071.0
21
950.0
12
1021.0
22
986.0
13
1071.0
23
965.0
0
SOLID
8
0
10
1021.0
20
950.0
11
1071.0
21
950.0
12
1021.0
22
914.0
13
1071.0
23
935.0
0
SOLID
8
0
10
1071.0
20
965.0
11
1071.0
21
950.0
12
1074.8743476784211
22
965.0405735571536
13
1075.1884839766715
23
950.0438633050309
0
SOLID
8
0
10
1074.8743476784211
20
965.0405735571536
11
1075.1884839766715
21
950.0438633050309
12
1078.746995939902
22
965.1622764317112
13
1079.3751307458401
23
950.1754339802283
0
SOLID
8
0
10
1078.746995939902
20
965.1622764317112
11
1079.37513074584
21
950.1754339802283
12
1082.6162461129231
22
965.3650552407698
13
1083.5581039058627
23
950.3946543143456
0
SOLID
8
0
10
1082.616246112923
20
965.3650552407697
11
1083.5581039058627
21
950.3946543143456
12
1086.4804010164785
22
965.6488210388417
13
1087.7355686664632
23
950.7014281500992
0
SOLID
8
0
10
1086.4804010164783
20
965.6488210388417
11
1087.735568666463
21
950.7014281500991
12
1090.337765704516
22
966.0134493568694
13
1091.9056926535309
23
951.0956209263454
0
SOLID
8
0
10
1090.337765704516
20
966.0134493568694
11
1091.9056926535307
21
951.0956209263453
12
1094.1866482093963
22
966.4587802568217
13
1096.066646712861
23
951.5770597371045
0
SOLID
8
0
10
1094.1866482093963
20
966.4587802568216
11
1096.0666467128608
21
951.5770597371045
12
1098.0253602840462
22
966.9846184018471
13
1100.2166057124825
23
952.1455334074024
0
SOLID
8
0
10
1098.0253602840462
20
966.9846184018472
11
1100.2166057124823
21
952.1455334074024
12
1101.852218142479
22
967.5907331419567
13
1104.3537493432204
23
952.800792585899
0
SOLID
8
0
10
1101.852218142479
20
967.5907331419565
11
1104.3537493432204
21
952.800792585899
12
1105.6655431983593
22
968.2768586151926
13
1108.476262917145
23
953.5425498542623
0
SOLID
8
0
10
1105.665543198359
20
968.2768586151926
11
1108.4762629171448
21
953.5425498542622
12
1109.4636628012856
22
969.0426938642458
13
1112.5823381635519
23
954.3704798532387
0
SOLID
8
0
10
1109.4636628012854
20
969.042693864246
11
1112.5823381635519
21
954.3704798532389
12
1113.2449109704714
22
969.8879029684655
13
1116.6701740221313
23
955.284219425368
0
SOLID
8
0
10
1113.2449109704712
20
969.8879029684654
11
1116.670174022131
21
955.284219425368
12
1117.0076291254982
22
970.8121151912032
13
1120.737977432971
23
956.2833677742736
0
SOLID
8
0
10
1117.0076291254982
20
970.8121151912032
11
1120.7379774329709
21
956.2833677742738
12
1120.7501668138243
22
971.8149251424334
13
1124.783964123053
23
957.3674866404683
0
SOLID
8
0
10
1120.750166813824
20
971.8149251424333
11
1124.7839641230532
21
957.3674866404683
12
1124.4708824347274
22
972.8958929565675
13
1128.8063593888944
23
958.5361004935866
0
SOLID
8
0
10
1124.4708824347272
20
972.8958929565675
11
1128.8063593888944
21
958.5361004935866
12
1128.1681439593654
22
974.0545444853967
13
1132.8033988749896
23
959.7886967409693
0
SOLID
8
0
10
1128.1681439593654
20
974.0545444853966
11
1132.8033988749894
21
959.7886967409693
12
1131.840329646638
22
975.2903715060661
13
1136.7733293477168
23
961.1247259525038
0
SOLID
8
0
10
1131.8403296466379
20
975.290371506066
11
1136.7733293477168
21
961.1247259525038
12
1135.485828754536
22
976.6028319440002
13
1140.7144094643631
23
962.5436021016218
0
SOLID
8
0
10
1135.4858287545358
20
976.6028319440001
11
1140.7144094643631
21
962.5436021016217
12
1139.1030422466654
22
977.9913501106735
13
1144.6249105369357
23
964.0447028223497
0
SOLID
8
0
10
1139.1030422466654
20
977.9913501106735
11
1144.6249105369357
21
964.0447028223497
12
1142.6903834936393
22
979.4553169561275
13
1148.5031172904207
23
965.6273696822999
0
SOLID
8
0
10
1142.690383493639
20
979.4553169561274
11
1148.5031172904205
21
965.6273696822999
12
1146.2462789690233
22
980.9940903361189
13
1152.3473286151602
23
967.29090847148
0
SOLID
8
0
10
1146.246278969023
20
980.9940903361188
11
1152.34732861516
21
967.2909084714798
12
1149.7691689395385
22
982.6069952937864
13
1156.1558583130145
23
969.034589506796
0
SOLID
8
0
10
1149.7691689395385
20
982.6069952937864
11
1156.1558583130145
21
969.0345895067961
12
1153.2575081492116
22
984.2933243557086
13
1159.9270358369856
23
970.8576479521175
0
SOLID
8
0
10
1153.2575081492116
20
984.2933243557086
11
1159.9270358369854
21
970.8576479521174
12
1156.7097664971743
22
986.0523378422254
13
1163.6592070239726
23
972.759284153757
0
SOLID
8
0
10
1156.7097664971743
20
986.0523378422253
11
1163.6592070239724
21
972.7592841537571
12
1160.1244297088174
22
987.8832641918852
13
1167.350734820343
23
974.7386639912272
0
SOLID
8
0
10
1160.1244297088174
20
987.8832641918852
11
1167.350734820343
21
974.7386639912272
12
1163.5
22
989.7853002998789
13
1171.0
23
976.7949192431123
0
SOLID
8
0
10
1163.5
20
989.7853002998788
11
1171.0
21
976.7949192431122
12
1166.8349967340291
22
991.7576118703064
13
1174.6054018746263
23
978.9271479678986
0
SOLID
8
0
10
1166.8349967340291
20
991.7576118703063
11
1174.605401874626
21
978.9271479678987
12
1170.1279570711145
22
993.7993337821273
13
1178.1653589957996
23
981.134414899597
0
SOLID
8
0
10
1170.1279570711145
20
993.7993337821272
11
1178.1653589957994
21
981.134414899597
12
1173.3774366100188
22
995.9095704686317
13
1181.678309848669
23
983.41575185798
0
SOLID
8
0
10
1173.3774366100188
20
995.9095704686316
11
1181.6783098486687
21
983.4157518579801
12
1176.58201002162
22
998.0873963102649
13
1185.1427135368865
23
985.7701581732592
0
SOLID
8
0
10
1176.58201002162
20
998.0873963102647
11
1185.1427135368863
21
985.7701581732592
12
1179.7402716741076
22
1000.3318560406348
13
1188.5570504584946
23
988.1966011250106
0
SOLID
8
0
10
1179.7402716741076
20
1000.3318560406348
11
1188.5570504584946
21
988.1966011250105
12
1182.8508362495395
22
1002.6419651655239
13
1191.9198229724752
23
990.6940163951608
0
SOLID
8
0
10
1182.8508362495393
20
1002.6419651655236
11
1191.919822972475
21
990.6940163951607
12
1185.9123393514876
22
1005.0167103947197
13
1195.229556055662
23
993.261308534832
0
SOLID
8
0
10
1185.9123393514874
20
1005.0167103947197
11
1195.229556055662
21
993.2613085348321
12
1188.9234381035078
22
1007.4550500864791
13
1198.484797949738
23
995.8973514448421
0
SOLID
8
0
10
1188.9234381035076
20
1007.455050086479
11
1198.4847979497379
21
995.8973514448421
12
1191.8828117381695
22
1009.9559147044251
13
1201.6841207980212
23
998.6009888696487
0
SOLID
8
0
10
1191.8828117381695
20
1009.955914704425
11
1201.684120798021
21
998.6009888696487
12
1194.7891621763888
22
1012.518207286682
13
1204.8261212717719
23
1001.3710349045213
0
SOLID
8
0
10
1194.7891621763888
20
1012.5182072866821
11
1204.8261212717716
21
1001.3710349045211
12
1197.6412145968075
22
1015.140803927039
13
1207.9094211857378
23
1004.2062745157177
0
SOLID
8
0
10
1197.6412145968075
20
1015.1408039270389
11
1207.9094211857378
21
1004.2062745157177
12
1200.4377179949727
22
1017.8225542679315
13
1210.9326681026732
23
1007.1054640734394
0
SOLID
8
0
10
1200.4377179949727
20
1017.8225542679313
11
1210.932668102673
21
1007.1054640734393
12
1203.1774457320687
22
1020.5622820050273
13
1213.8945359265608
23
1010.067331897327
0
SOLID
8
0
10
1203.1774457320687
20
1020.5622820050274
11
1213.8945359265608
21
1010.067331897327
12
1205.8591960729611
22
1023.3587854031928
13
1216.7937254842825
23
1013.0905788142624
0
SOLID
8
0
10
1205.8591960729611
20
1023.3587854031925
11
1216.7937254842823
21
1013.0905788142622
12
1208.481792713318
22
1026.2108378236114
13
1219.6289650954789
23
1016.1738787282284
0
SOLID
8
0
10
1208.4817927133179
20
1026.2108378236112
11
1219.6289650954789
21
1016.1738787282284
12
1211.0440852955749
22
1029.1171882618305
13
1222.3990111303515
23
1019.315879201979
0
SOLID
8
0
10
1211.0440852955749
20
1029.1171882618305
11
1222.3990111303513
21
1019.3158792019789
12
1213.544949913521
22
1032.0765618964924
13
1225.1026485551579
23
1022.5152020502621
0
SOLID
8
0
10
1213.544949913521
20
1032.0765618964924
11
1225.1026485551579
21
1022.515202050262
12
1215.9832896052803
22
1035.0876606485126
13
1227.7386914651681
23
1025.770443944338
0
SOLID
8
0
10
1215.9832896052803
20
1035.0876606485126
11
1227.738691465168
21
1025.770443944338
12
1218.3580348344765
22
1038.1491637504607
13
1230.3059836048392
23
1029.0801770275252
0
SOLID
8
0
10
1218.3580348344763
20
1038.1491637504607
11
1230.3059836048392
21
1029.080177027525
12
1220.6681439593654
22
1041.2597283258926
13
1232.8033988749894
23
1032.4429495415054
0
SOLID
8
0
10
1220.6681439593654
20
1041.2597283258924
11
1232.8033988749894
21
1032.4429495415054
12
1222.9126036897353
22
1044.4179899783803
13
1235.229841826741
23
1035.8572864631137
0
SOLID
8
0
10
1222.9126036897353
20
1044.41798997838
11
1235.2298418267408
21
1035.8572864631137
12
1225.0904295313685
22
1047.6225633899815
13
1237.58424814202
23
1039.321690151331
0
SOLID
8
0
10
1225.0904295313685
20
1047.6225633899812
11
1237.58424814202
21
1039.3216901513313
12
1227.2006662178728
22
1050.8720429288858
13
1239.865585100403
23
1042.8346410042006
0
SOLID
8
0
10
1227.2006662178728
20
1050.8720429288855
11
1239.865585100403
21
1042.8346410042006
12
1229.2423881296938
22
1054.1650032659709
13
1242.0728520321013
23
1046.3945981253742
0
SOLID
8
0
10
1229.2423881296936
20
1054.1650032659709
11
1242.0728520321013
21
1046.394598125374
12
1231.2146997001212
22
1057.5
13
1244.2050807568878
23
1050.0
0
SOLID
8
0
10
1231.2146997001212
20
1057.5
11
1244.2050807568878
21
1050.0
12
1233.1167358081148
22
1060.8755702911826
13
1246.261336008773
23
1053.649265179657
0
SOLID
8
0
10
1233.1167358081148
20
1060.8755702911826
11
1246.2613360087728
21
1053.649265179657
12
1234.9476621577746
22
1064.2902335028257
13
1248.2407158462431
23
1057.3407929760278
0
SOLID
8
0
10
1234.9476621577746
20
1064.2902335028257
11
1248.240715846243
21
1057.3407929760276
12
1236.7066756442914
22
1067.7424918507886
13
1250.1423520478827
23
1061.0729641630144
0
SOLID
8
0
10
1236.7066756442914
20
1067.7424918507884
11
1250.1423520478825
21
1061.0729641630146
12
1238.3930047062136
22
1071.2308310604617
13
1251.965410493204
23
1064.8441416869855
0
SOLID
8
0
10
1238.3930047062136
20
1071.2308310604615
11
1251.965410493204
21
1064.8441416869855
12
1240.005909663881
22
1074.753721030977
13
1253.7090915285203
23
1068.65267138484
0
SOLID
8
0
10
1240.005909663881
20
1074.753721030977
11
1253.7090915285203
21
1068.65267138484
12
1241.5446830438727
22
1078.309616506361
13
1255.3726303177002
23
1072.4968827095795
0
SOLID
8
0
10
1241.5446830438725
20
1078.309616506361
11
1255.3726303177
21
1072.4968827095795
12
1243.0086498893265
22
1081.8969577533346
13
1256.9552971776504
23
1076.3750894630643
0
SOLID
8
0
10
1243.0086498893265
20
1081.8969577533346
11
1256.9552971776502
21
1076.3750894630643
12
1244.397168056
22
1085.5141712454642
13
1258.4563978983783
23
1080.285590535637
0
SOLID
8
0
10
1244.3971680559998
20
1085.5141712454642
11
1258.4563978983783
21
1080.2855905356369
12
1245.709628493934
22
1089.1596703533621
13
1259.875274047496
23
1084.2266706522832
0
SOLID
8
0
10
1245.709628493934
20
1089.1596703533621
11
1259.875274047496
21
1084.2266706522832
12
1246.9454555146035
22
1092.8318560406349
13
1261.211303259031
23
1088.1966011250106
0
SOLID
8
0
10
1246.9454555146035
20
1092.8318560406346
11
1261.2113032590307
21
1088.1966011250106
12
1248.1041070434326
22
1096.5291175652728
13
1262.4638995064136
23
1092.1936406111058
0
SOLID
8
0
10
1248.1041070434324
20
1096.5291175652728
11
1262.4638995064133
21
1092.1936406111056
12
1249.1850748575669
22
1100.2498331861761
13
1263.6325133595317
23
1096.2160358769468
0
SOLID
8
0
10
1249.1850748575666
20
1100.2498331861757
11
1263.6325133595317
21
1096.2160358769468
12
1250.1878848087968
22
1103.992370874502
13
1264.7166322257262
23
1100.2620225670291
0
SOLID
8
0
10
1250.1878848087968
20
1103.9923708745018
11
1264.7166322257262
21
1100.262022567029
12
1251.1120970315346
22
1107.7550890295288
13
1265.7157805746322
23
1104.3298259778687
0
SOLID
8
0
10
1251.1120970315346
20
1107.7550890295286
11
1265.715780574632
21
1104.3298259778687
12
1251.9573061357542
22
1111.5363371987146
13
1266.629520146761
23
1108.4176618364481
0
SOLID
8
0
10
1251.9573061357542
20
1111.5363371987146
11
1266.629520146761
21
1108.4176618364481
12
1252.7231413848076
22
1115.3344568016412
13
1267.4574501457378
23
1112.5237370828552
0
SOLID
8
0
10
1252.7231413848074
20
1115.334456801641
11
1267.4574501457378
21
1112.5237370828552
12
1253.4092668580433
22
1119.1477818575213
13
1268.199207414101
23
1116.6462506567796
0
SOLID
8
0
10
1253.4092668580433
20
1119.147781857521
11
1268.199207414101
21
1116.6462506567796
12
1254.0153815981528
22
1122.974639715954
13
1268.8544665925979
23
1120.7833942875177
0
SOLID
8
0
10
1254.0153815981528
20
1122.9746397159538
11
1268.8544665925976
21
1120.7833942875177
12
1254.5412197431783
22
1126.8133517906037
13
1269.4229402628955
23
1124.9333532871392
0
SOLID
8
0
10
1254.5412197431783
20
1126.8133517906037
11
1269.4229402628955
21
1124.9333532871392
12
1254.9865506431306
22
1130.6622342954843
13
1269.9043790736548
23
1129.0943073464693
0
SOLID
8
0
10
1254.9865506431306
20
1130.662234295484
11
1269.9043790736546
21
1129.0943073464693
12
1255.3511789611584
22
1134.5195989835217
13
1270.298571849901
23
1133.264431333537
0
SOLID
8
0
10
1255.3511789611582
20
1134.5195989835217
11
1270.2985718499008
21
1133.264431333537
12
1255.6349447592302
22
1138.3837538870773
13
1270.6053456856544
23
1137.4418960941375
0
SOLID
8
0
10
1255.6349447592302
20
1138.383753887077
11
1270.6053456856544
21
1137.4418960941373
12
1255.8377235682888
22
1142.2530040600982
13
1270.8245660197717
23
1141.6248692541603
0
SOLID
8
0
10
1255.8377235682888
20
1142.253004060098
11
1270.8245660197717
21
1141.62486925416
12
1255.9594264428465
22
1146.125652321579
13
1270.9561366949692
23
1145.8115160233285
0
SOLID
8
0
10
1255.9594264428465
20
1146.1256523215789
11
1270.956136694969
21
1145.8115160233285
12
1256.0
22
1150.0000000000002
13
1271.0
23
1150.0
0
SOLID
8
0
10
1256.0
20
1150.0
11
1271.0
21
1150.0
12
1255.9594264428465
22
1153.8743476784211
13
1270.9561366949692
23
1154.1884839766715
0
SOLID
8
0
10
1255.9594264428465
20
1153.8743476784211
11
1270.956136694969
21
1154.1884839766715
12
1255.8377235682888
22
1157.746995939902
13
1270.8245660197717
23
1158.3751307458401
0
SOLID
8
0
10
1255.8377235682888
20
1157.746995939902
11
1270.8245660197717
21
1158.37513074584
12
1255.6349447592302
22
1161.6162461129231
13
1270.6053456856544
23
1162.5581039058627
0
SOLID
8
0
10
1255.6349447592302
20
1161.616246112923
11
1270.6053456856544
21
1162.5581039058627
12
1255.3511789611584
22
1165.4804010164785
13
1270.2985718499008
23
1166.7355686664632
0
SOLID
8
0
10
1255.3511789611582
20
1165.4804010164783
11
1270.2985718499008
21
1166.735568666463
12
1254.9865506431306
22
1169.337765704516
13
1269.9043790736546
23
1170.9056926535309
0
SOLID
8
0
10
1254.9865506431306
20
1169.337765704516
11
1269.9043790736546
21
1170.9056926535307
12
1254.5412197431783
22
1173.1866482093963
13
1269.4229402628955
23
1175.066646712861
0
SOLID
8
0
10
1254.5412197431783
20
1173.1866482093963
11
1269.4229402628955
21
1175.0666467128608
12
1254.0153815981528
22
1177.0253602840462
13
1268.8544665925976
23
1179.2166057124825
0
SOLID
8
0
10
1254.0153815981528
20
1177.0253602840462
11
1268.8544665925976
21
1179.2166057124823
12
1253.4092668580433
22
1180.852218142479
13
1268.199207414101
23
1183.3537493432204
0
SOLID
8
0
10
1253.4092668580433
20
1180.852218142479
11
1268.199207414101
21
1183.3537493432204
12
1252.7231413848074
22
1184.6655431983593
13
1267.4574501457378
23
1187.476262917145
0
SOLID
8
0
10
1252.7231413848074
20
1184.665543198359
11
1267.4574501457378
21
1187.4762629171448
12
1251.9573061357542
22
1188.4636628012854
13
1266.6295201467613
23
1191.5823381635519
0
SOLID
8
0
10
1251.9573061357542
20
1188.4636628012854
11
1266.629520146761
21
1191.5823381635519
12
1251.1120970315346
22
1192.2449109704714
13
1265.715780574632
23
1195.6701740221313
0
SOLID
8
0
10
1251.1120970315346
20
1192.2449109704712
11
1265.715780574632
21
1195.670174022131
12
1250.1878848087968
22
1196.0076291254982
13
1264.7166322257262
23
1199.737977432971
0
SOLID
8
0
10
1250.1878848087968
20
1196.0076291254982
11
1264.7166322257262
21
1199.7379774329709
12
1249.1850748575666
22
1199.7501668138243
13
1263.6325133595317
23
1203.783964123053
0
SOLID
8
0
10
1249.1850748575669
20
1199.750166813824
11
1263.6325133595317
21
1203.783964123053
12
1248.1041070434326
22
1203.4708824347274
13
1262.4638995064133
23
1207.8063593888944
0
SOLID
8
0
10
1248.1041070434326
20
1203.4708824347272
11
1262.4638995064136
21
1207.8063593888942
12
1246.9454555146033
22
1207.1681439593654
13
1261.2113032590307
23
1211.8033988749894
0
SOLID
8
0
10
1246.9454555146035
20
1207.1681439593654
11
1261.2113032590307
21
1211.8033988749894
12
1245.709628493934
22
1210.840329646638
13
1259.8752740474963
23
1215.7733293477168
0
SOLID
8
0
10
1245.709628493934
20
1210.8403296466379
11
1259.8752740474963
21
1215.7733293477168
12
1244.3971680559998
22
1214.485828754536
13
1258.4563978983783
23
1219.7144094643631
0
SOLID
8
0
10
1244.3971680559998
20
1214.4858287545358
11
1258.4563978983783
21
1219.714409464363
12
1243.0086498893265
22
1218.1030422466654
13
1256.9552971776504
23
1223.6249105369357
0
SOLID
8
0
10
1243.0086498893265
20
1218.1030422466654
11
1256.9552971776502
21
1223.6249105369357
12
1241.5446830438725
22
1221.690383493639
13
1255.3726303177
23
1227.5031172904207
0
SOLID
8
0
10
1241.5446830438725
20
1221.690383493639
11
1255.3726303177
21
1227.5031172904205
12
1240.005909663881
22
1225.2462789690233
13
1253.70909152852
23
1231.3473286151602
0
SOLID
8
0
10
1240.005909663881
20
1225.246278969023
11
1253.7090915285203
21
1231.34732861516
12
1238.3930047062136
22
1228.7691689395385
13
1251.965410493204
23
1235.1558583130145
0
SOLID
8
0
10
1238.3930047062136
20
1228.7691689395383
11
1251.965410493204
21
1235.1558583130145
12
1236.7066756442914
22
1232.2575081492116
13
1250.1423520478825
23
1238.9270358369856
0
SOLID
8
0
10
1236.7066756442914
20
1232.2575081492116
11
1250.1423520478827
21
1238.9270358369854
12
1234.9476621577746
22
1235.7097664971743
13
1248.2407158462431
23
1242.6592070239724
0
SOLID
8
0
10
1234.9476621577746
20
1235.7097664971743
11
1248.240715846243
21
1242.6592070239724
12
1233.1167358081148
22
1239.1244297088174
13
1246.2613360087728
23
1246.350734820343
0
SOLID
8
0
10
1233.1167358081148
20
1239.1244297088174
11
1246.2613360087728
21
1246.350734820343
12
1231.2146997001212
22
1242.5
13
1244.2050807568878
23
1250.0
0
SOLID
8
0
10
1231.2146997001212
20
1242.5
11
1244.2050807568878
21
1250.0
12
1229.2423881296936
22
1245.8349967340291
13
1242.0728520321015
23
1253.6054018746263
0
SOLID
8
0
10
1229.2423881296938
20
1245.834996734029
11
1242.0728520321013
21
1253.6054018746258
12
1227.2006662178728
22
1249.1279570711142
13
1239.865585100403
23
1257.1653589957994
0
SOLID
8
0
10
1227.2006662178728
20
1249.1279570711145
11
1239.865585100403
21
1257.1653589957994
12
1225.0904295313683
22
1252.3774366100185
13
1237.58424814202
23
1260.678309848669
0
SOLID
8
0
10
1225.0904295313685
20
1252.3774366100185
11
1237.58424814202
21
1260.6783098486687
12
1222.912603689735
22
1255.58201002162
13
1235.2298418267408
23
1264.1427135368865
0
SOLID
8
0
10
1222.9126036897353
20
1255.58201002162
11
1235.2298418267408
21
1264.1427135368863
12
1220.6681439593654
22
1258.7402716741076
13
1232.8033988749894
23
1267.5570504584946
0
SOLID
8
0
10
1220.6681439593654
20
1258.7402716741076
11
1232.8033988749894
21
1267.5570504584946
12
1218.358034834476
22
1261.8508362495395
13
1230.3059836048392
23
1270.9198229724752
0
SOLID
8
0
10
1218.3580348344763
20
1261.8508362495393
11
1230.3059836048392
21
1270.919822972475
12
1215.9832896052803
22
1264.9123393514876
13
1227.738691465168
23
1274.229556055662
0
SOLID
8
0
10
1215.9832896052803
20
1264.9123393514874
11
1227.738691465168
21
1274.229556055662
12
1213.544949913521
22
1267.9234381035078
13
1225.1026485551579
23
1277.484797949738
0
SOLID
8
0
10
1213.5449499135211
20
1267.9234381035076
11
1225.1026485551579
21
1277.4847979497379
12
1211.0440852955749
22
1270.8828117381695
13
1222.3990111303513
23
1280.6841207980212
0
SOLID
8
0
10
1211.0440852955749
20
1270.8828117381695
11
1222.3990111303513
21
1280.684120798021
12
1208.481792713318
22
1273.7891621763888
13
1219.6289650954789
23
1283.8261212717716
0
SOLID
8
0
10
1208.4817927133179
20
1273.7891621763888
11
1219.6289650954789
21
1283.8261212717716
12
1205.8591960729611
22
1276.6412145968075
13
1216.7937254842823
23
1286.9094211857378
0
SOLID
8
0
10
1205.8591960729611
20
1276.6412145968075
11
1216.7937254842823
21
1286.9094211857378
12
1203.1774457320685
22
1279.4377179949727
13
1213.8945359265608
23
1289.9326681026732
0
SOLID
8
0
10
1203.1774457320687
20
1279.4377179949727
11
1213.8945359265606
21
1289.932668102673
12
1200.4377179949727
22
1282.1774457320687
13
1210.932668102673
23
1292.8945359265608
0
SOLID
8
0
10
1200.4377179949727
20
1282.1774457320685
11
1210.9326681026732
21
1292.8945359265606
12
1197.6412145968072
22
1284.8591960729611
13
1207.9094211857378
23
1295.7937254842825
0
SOLID
8
0
10
1197.6412145968075
20
1284.8591960729611
11
1207.9094211857378
21
1295.7937254842823
12
1194.7891621763886
22
1287.481792713318
13
1204.8261212717716
23
1298.6289650954789
0
SOLID
8
0
10
1194.7891621763888
20
1287.4817927133179
11
1204.8261212717716
21
1298.6289650954789
12
1191.8828117381695
22
1290.0440852955749
13
1201.684120798021
23
1301.3990111303515
0
SOLID
8
0
10
1191.8828117381695
20
1290.0440852955749
11
1201.684120798021
21
1301.3990111303513
12
1188.9234381035076
22
1292.544949913521
13
1198.4847979497379
23
1304.1026485551579
0
SOLID
8
0
10
1188.9234381035076
20
1292.544949913521
11
1198.4847979497379
21
1304.1026485551579
12
1185.9123393514874
22
1294.9832896052803
13
1195.229556055662
23
1306.7386914651681
0
SOLID
8
0
10
1185.9123393514874
20
1294.9832896052803
11
1195.2295560556622
21
1306.738691465168
12
1182.8508362495393
22
1297.3580348344765
13
1191.9198229724748
23
1309.3059836048392
0
SOLID
8
0
10
1182.8508362495395
20
1297.3580348344763
11
1191.919822972475
21
1309.3059836048392
12
1179.7402716741074
22
1299.6681439593654
13
1188.5570504584948
23
1311.8033988749894
0
SOLID
8
0
10
1179.7402716741076
20
1299.6681439593654
11
1188.5570504584946
21
1311.8033988749894
12
1176.5820100216197
22
1301.9126036897353
13
1185.1427135368863
23
1314.229841826741
0
SOLID
8
0
10
1176.58201002162
20
1301.912603689735
11
1185.1427135368865
21
1314.2298418267408
12
1173.3774366100185
22
1304.0904295313683
13
1181.678309848669
23
1316.58424814202
0
SOLID
8
0
10
1173.3774366100188
20
1304.0904295313685
11
1181.6783098486687
21
1316.58424814202
12
1170.1279570711142
22
1306.2006662178728
13
1178.1653589957994
23
1318.865585100403
0
SOLID
8
0
10
1170.1279570711145
20
1306.2006662178728
11
1178.1653589957994
21
1318.865585100403
12
1166.8349967340291
22
1308.2423881296938
13
1174.6054018746258
23
1321.0728520321013
0
SOLID
8
0
10
1166.8349967340291
20
1308.2423881296936
11
1174.605401874626
21
1321.0728520321013
12
1163.5
22
1310.2146997001212
13
1171.0
23
1323.2050807568878
0
SOLID
8
0
10
1163.5
20
1310.2146997001212
11
1171.0
21
1323.2050807568878
12
1160.1244297088174
22
1312.1167358081148
13
1167.350734820343
23
1325.2613360087728
0
SOLID
8
0
10
1160.1244297088174
20
1312.1167358081148
11
1167.3507348203432
21
1325.2613360087728
12
1156.7097664971743
22
1313.9476621577746
13
1163.6592070239724
23
1327.240715846243
0
SOLID
8
0
10
1156.7097664971743
20
1313.9476621577746
11
1163.6592070239724
21
1327.240715846243
12
1153.2575081492114
22
1315.7066756442914
13
1159.9270358369854
23
1329.1423520478827
0
SOLID
8
0
10
1153.2575081492116
20
1315.7066756442914
11
1159.9270358369856
21
1329.1423520478825
12
1149.7691689395385
22
1317.3930047062136
13
1156.1558583130145
23
1330.9654104932038
0
SOLID
8
0
10
1149.7691689395385
20
1317.3930047062136
11
1156.1558583130145
21
1330.9654104932038
12
1146.246278969023
22
1319.005909663881
13
1152.34732861516
23
1332.7090915285203
0
SOLID
8
0
10
1146.246278969023
20
1319.005909663881
11
1152.34732861516
21
1332.7090915285203
12
1142.690383493639
22
1320.5446830438727
13
1148.5031172904205
23
1334.3726303177002
0
SOLID
8
0
10
1142.690383493639
20
1320.5446830438725
11
1148.5031172904207
21
1334.3726303177
12
1139.1030422466654
22
1322.0086498893265
13
1144.6249105369357
23
1335.9552971776504
0
SOLID
8
0
10
1139.1030422466654
20
1322.0086498893265
11
1144.6249105369357
21
1335.9552971776502
12
1135.4858287545355
22
1323.397168056
13
1140.714409464363
23
1337.4563978983783
0
SOLID
8
0
10
1135.4858287545358
20
1323.3971680559998
11
1140.7144094643631
21
1337.4563978983783
12
1131.8403296466379
22
1324.709628493934
13
1136.7733293477168
23
1338.875274047496
0
SOLID
8
0
10
1131.8403296466379
20
1324.709628493934
11
1136.7733293477168
21
1338.875274047496
12
1128.1681439593651
22
1325.9454555146035
13
1132.8033988749894
23
1340.211303259031
0
SOLID
8
0
10
1128.1681439593654
20
1325.9454555146035
11
1132.8033988749894
21
1340.2113032590307
12
1124.4708824347272
22
1327.1041070434326
13
1128.8063593888942
23
1341.4638995064136
0
SOLID
8
0
10
1124.4708824347274
20
1327.1041070434324
11
1128.8063593888944
21
1341.4638995064133
12
1120.750166813824
22
1328.1850748575669
13
1124.7839641230532
23
1342.6325133595317
0
SOLID
8
0
10
1120.750166813824
20
1328.1850748575666
11
1124.7839641230532
21
1342.6325133595317
12
1117.007629125498
22
1329.1878848087968
13
1120.7379774329709
23
1343.7166322257262
0
SOLID
8
0
10
1117.0076291254982
20
1329.1878848087968
11
1120.7379774329709
21
1343.7166322257262
12
1113.2449109704712
22
1330.1120970315346
13
1116.6701740221313
23
1344.7157805746322
0
SOLID
8
0
10
1113.2449109704714
20
1330.1120970315346
11
1116.6701740221313
21
1344.715780574632
12
1109.4636628012854
22
1330.9573061357542
13
1112.5823381635519
23
1345.629520146761
0
SOLID
8
0
10
1109.4636628012854
20
1330.9573061357542
11
1112.5823381635519
21
1345.629520146761
12
1105.6655431983588
22
1331.7231413848076
13
1108.4762629171448
23
1346.4574501457378
0
SOLID
8
0
10
1105.665543198359
20
1331.7231413848074
11
1108.4762629171448
21
1346.4574501457378
12
1101.852218142479
22
1332.4092668580433
13
1104.3537493432204
23
1347.199207414101
0
SOLID
8
0
10
1101.852218142479
20
1332.4092668580433
11
1104.3537493432204
21
1347.199207414101
12
1098.025360284046
22
1333.0153815981528
13
1100.2166057124823
23
1347.8544665925979
0
SOLID
8
0
10
1098.0253602840462
20
1333.0153815981528
11
1100.2166057124823
21
1347.8544665925976
12
1094.1866482093963
22
1333.5412197431783
13
1096.0666467128608
23
1348.4229402628955
0
SOLID
8
0
10
1094.1866482093963
20
1333.5412197431783
11
1096.0666467128608
21
1348.4229402628955
12
1090.3377657045157
22
1333.9865506431304
13
1091.9056926535307
23
1348.9043790736548
0
SOLID
8
0
10
1090.337765704516
20
1333.9865506431306
11
1091.9056926535307
21
1348.9043790736546
12
1086.4804010164785
22
1334.3511789611584
13
1087.735568666463
23
1349.298571849901
0
SOLID
8
0
10
1086.4804010164785
20
1334.3511789611582
11
1087.7355686664632
21
1349.2985718499008
12
1082.616246112923
22
1334.6349447592302
13
1083.5581039058627
23
1349.6053456856544
0
SOLID
8
0
10
1082.616246112923
20
1334.6349447592302
11
1083.5581039058627
21
1349.6053456856544
12
1078.7469959399018
22
1334.8377235682888
13
1079.3751307458397
23
1349.8245660197717
0
SOLID
8
0
10
1078.746995939902
20
1334.8377235682888
11
1079.37513074584
21
1349.8245660197717
12
1074.874347678421
22
1334.9594264428465
13
1075.1884839766715
23
1349.9561366949692
0
SOLID
8
0
10
1074.8743476784211
20
1334.9594264428465
11
1075.1884839766715
21
1349.956136694969
12
1071.0
22
1335.0
13
1071.0
23
1350.0
0
SOLID
8
0
10
1071.0
20
950.0
11
1071.0
21
935.0
12
1075.1884839766715
22
950.0438633050309
13
1075.5026202749218
23
935.0471530529082
0
SOLID
8
0
10
1075.1884839766715
20
950.0438633050309
11
1075.5026202749218
21
935.0471530529082
12
1079.3751307458401
22
950.1754339802283
13
1080.003265551778
23
935.1885915287454
0
SOLID
8
0
10
1079.37513074584
20
950.1754339802283
11
1080.003265551778
21
935.1885915287454
12
1083.5581039058627
22
950.3946543143456
13
1084.4999616988025
23
935.4242533879217
0
SOLID
8
0
10
1083.5581039058627
20
950.3946543143456
11
1084.4999616988023
21
935.4242533879217
12
1087.7355686664632
22
950.7014281500992
13
1088.990736316448
23
935.7540352613566
0
SOLID
8
0
10
1087.735568666463
20
950.7014281500991
11
1088.9907363164477
21
935.7540352613565
12
1091.9056926535309
22
951.0956209263454
13
1093.4736196025456
23
936.1777924958212
0
SOLID
8
0
10
1091.9056926535307
20
951.0956209263453
11
1093.4736196025456
21
936.1777924958212
12
1096.066646712861
22
951.5770597371045
13
1097.9466452163254
23
936.6953392173874
0
SOLID
8
0
10
1096.0666467128608
20
951.5770597371045
11
1097.9466452163254
21
936.6953392173873
12
1100.2166057124825
22
952.1455334074024
13
1102.4078511409186
23
937.3064484129575
0
SOLID
8
0
10
1100.2166057124823
20
952.1455334074024
11
1102.4078511409184
21
937.3064484129575
12
1104.3537493432204
22
952.800792585899
13
1106.855280543962
23
938.0108520298413
0
SOLID
8
0
10
1104.3537493432204
20
952.800792585899
11
1106.855280543962
21
938.0108520298414
12
1108.476262917145
22
953.5425498542623
13
1111.286982635931
23
938.8082410933318
0
SOLID
8
0
10
1108.4762629171448
20
953.5425498542622
11
1111.2869826359308
21
938.808241093332
12
1112.5823381635519
22
954.3704798532387
13
1115.7010135258183
23
939.6982658422318
0
SOLID
8
0
10
1112.5823381635519
20
954.3704798532389
11
1115.7010135258183
21
939.6982658422318
12
1116.6701740221313
22
955.284219425368
13
1120.0954370737911
23
940.6805358822705
0
SOLID
8
0
10
1116.670174022131
20
955.284219425368
11
1120.095437073791
21
940.6805358822705
12
1120.737977432971
22
956.2833677742736
13
1124.4683257404438
23
941.7546203573444
0
SOLID
8
0
10
1120.7379774329709
20
956.2833677742738
11
1124.4683257404438
21
941.7546203573443
12
1124.783964123053
22
957.3674866404683
13
1128.8177614322822
23
942.9200481385035
0
SOLID
8
0
10
1124.7839641230532
20
957.3674866404683
11
1128.8177614322822
21
942.9200481385035
12
1128.8063593888944
22
958.5361004935866
13
1133.1418363430614
23
944.1763080306055
0
SOLID
8
0
10
1128.8063593888944
20
958.5361004935866
11
1133.1418363430614
21
944.1763080306056
12
1132.8033988749896
22
959.7886967409693
13
1137.4386537906137
23
945.5228489965419
0
SOLID
8
0
10
1132.8033988749894
20
959.7886967409693
11
1137.4386537906137
21
945.522848996542
12
1136.7733293477168
22
961.1247259525038
13
1141.7063290487954
23
946.9590803989418
0
SOLID
8
0
10
1136.7733293477168
20
961.1247259525038
11
1141.7063290487954
21
946.9590803989415
12
1140.7144094643631
22
962.5436021016218
13
1145.9429901741903
23
948.4843722592434
0
SOLID
8
0
10
1140.7144094643631
20
962.5436021016217
11
1145.9429901741903
21
948.4843722592433
12
1144.6249105369357
22
964.0447028223497
13
1150.1467788272057
23
950.0980555340259
0
SOLID
8
0
10
1144.6249105369357
20
964.0447028223497
11
1150.1467788272057
21
950.0980555340259
12
1148.5031172904207
22
965.6273696822999
13
1154.3158510872022
23
951.7994224084724
0
SOLID
8
0
10
1148.5031172904205
20
965.6273696822999
11
1154.3158510872022
21
951.7994224084724
12
1152.3473286151602
22
967.29090847148
13
1158.448378261297
23
953.5877266068409
0
SOLID
8
0
10
1152.34732861516
20
967.2909084714798
11
1158.448378261297
21
953.5877266068408
12
1156.1558583130145
22
969.034589506796
13
1162.5425476864907
23
955.4621837198058
0
SOLID
8
0
10
1156.1558583130145
20
969.0345895067961
11
1162.5425476864907
21
955.4621837198058
12
1159.9270358369856
22
970.8576479521175
13
1166.5965635247594
23
957.4219715485262
0
SOLID
8
0
10
1159.9270358369854
20
970.8576479521174
11
1166.5965635247594
21
957.4219715485262
12
1163.6592070239726
22
972.759284153757
13
1170.6086475507702
23
959.466230465289
0
SOLID
8
0
10
1163.6592070239724
20
972.7592841537571
11
1170.6086475507702
21
959.4662304652888
12
1167.350734820343
22
974.7386639912272
13
1174.577039931869
23
961.5940637905694
0
SOLID
8
0
10
1167.350734820343
20
974.7386639912272
11
1174.5770399318687
21
961.5940637905693
12
1171.0
22
976.7949192431123
13
1178.5
23
963.8045381863458
0
SOLID
8
0
10
1171.0
20
976.7949192431122
11
1178.5
21
963.8045381863457
12
1174.6054018746263
22
978.9271479678986
13
1182.375807015223
23
966.0966840654911
0
SOLID
8
0
10
1174.605401874626
20
978.9271479678987
11
1182.375807015223
21
966.096684065491
12
1178.1653589957996
22
981.134414899597
13
1186.2027609204843
23
968.4694960170667
0
SOLID
8
0
10
1178.1653589957994
20
981.134414899597
11
1186.2027609204843
21
968.4694960170667
12
1181.678309848669
22
983.41575185798
13
1189.979183087319
23
970.9219332473286
0
SOLID
8
0
10
1181.6783098486687
20
983.4157518579801
11
1189.979183087319
21
970.9219332473286
12
1185.1427135368865
22
985.7701581732592
13
1193.7034170521529
23
973.4529200362538
0
SOLID
8
0
10
1185.1427135368863
20
985.7701581732592
11
1193.7034170521529
21
973.4529200362537
12
1188.5570504584946
22
988.1966011250106
13
1197.3738292428818
23
976.0613462093863
0
SOLID
8
0
10
1188.5570504584946
20
988.1966011250105
11
1197.3738292428818
21
976.0613462093863
12
1191.9198229724752
22
990.6940163951608
13
1200.9888096954107
23
978.7460676247979
0
SOLID
8
0
10
1191.919822972475
20
990.6940163951607
11
1200.9888096954105
21
978.7460676247978
12
1195.229556055662
22
993.261308534832
13
1204.5467727598366
23
981.5059066749445
0
SOLID
8
0
10
1195.229556055662
20
993.2613085348321
11
1204.5467727598368
21
981.5059066749444
12
1198.484797949738
22
995.8973514448421
13
1208.0461577959682
23
984.3396528032054
0
SOLID
8
0
10
1198.4847979497379
20
995.8973514448421
11
1208.0461577959684
21
984.3396528032054
12
1201.6841207980212
22
998.6009888696487
13
1211.4854298578728
23
987.2460630348723
0
SOLID
8
0
10
1201.684120798021
20
998.6009888696487
11
1211.4854298578725
21
987.2460630348723
12
1204.8261212717719
22
1001.3710349045213
13
1214.8630803671545
23
990.2238625223603
0
SOLID
8
0
10
1204.8261212717716
20
1001.3710349045211
11
1214.8630803671545
21
990.2238625223603
12
1207.9094211857378
22
1004.2062745157177
13
1218.177627774668
23
993.2717451043967
0
SOLID
8
0
10
1207.9094211857378
20
1004.2062745157177
11
1218.177627774668
21
993.2717451043966
12
1210.9326681026732
22
1007.1054640734394
13
1221.4276182103736
23
996.3883738789473
0
SOLID
8
0
10
1210.932668102673
20
1007.1054640734393
11
1221.4276182103736
21
996.3883738789473
12
1213.8945359265608
22
1010.067331897327
13
1224.6116261210527
23
999.5723817896265
0
SOLID
8
0
10
1213.8945359265608
20
1010.067331897327
11
1224.6116261210527
21
999.5723817896264
12
1216.7937254842825
22
1013.0905788142624
13
1227.7282548956036
23
1002.822372225332
0
SOLID
8
0
10
1216.7937254842823
20
1013.0905788142622
11
1227.7282548956034
21
1002.822372225332
12
1219.6289650954789
22
1016.1738787282284
13
1230.7761374776396
23
1006.1369196328455
0
SOLID
8
0
10
1219.6289650954789
20
1016.1738787282284
11
1230.7761374776396
21
1006.1369196328455
12
1222.3990111303515
22
1019.315879201979
13
1233.7539369651277
23
1009.5145701421275
0
SOLID
8
0
10
1222.3990111303513
20
1019.3158792019789
11
1233.7539369651277
21
1009.5145701421274
12
1225.1026485551579
22
1022.5152020502621
13
1236.6603471967946
23
1012.9538422040317
0
SOLID
8
0
10
1225.1026485551579
20
1022.515202050262
11
1236.6603471967946
21
1012.9538422040316
12
1227.7386914651681
22
1025.770443944338
13
1239.4940933250555
23
1016.4532272401632
0
SOLID
8
0
10
1227.738691465168
20
1025.770443944338
11
1239.4940933250555
21
1016.4532272401633
12
1230.3059836048392
22
1029.0801770275252
13
1242.253932375202
23
1020.0111903045894
0
SOLID
8
0
10
1230.3059836048392
20
1029.080177027525
11
1242.253932375202
21
1020.0111903045894
12
1232.8033988749894
22
1032.4429495415054
13
1244.938653790614
23
1023.6261707571183
0
SOLID
8
0
10
1232.8033988749894
20
1032.4429495415054
11
1244.9386537906137
21
1023.6261707571183
12
1235.229841826741
22
1035.8572864631137
13
1247.5470799637465
23
1027.2965829478474
0
SOLID
8
0
10
1235.2298418267408
20
1035.8572864631137
11
1247.5470799637465
21
1027.2965829478471
12
1237.58424814202
22
1039.321690151331
13
1250.0780667526712
23
1031.020816912681
0
SOLID
8
0
10
1237.58424814202
20
1039.3216901513313
11
1250.0780667526715
21
1031.020816912681
12
1239.865585100403
22
1042.8346410042006
13
1252.5305039829334
23
1034.7972390795157
0
SOLID
8
0
10
1239.865585100403
20
1042.8346410042006
11
1252.5305039829332
21
1034.7972390795157
12
1242.0728520321013
22
1046.3945981253742
13
1254.9033159345088
23
1038.624192984777
0
SOLID
8
0
10
1242.0728520321013
20
1046.394598125374
11
1254.903315934509
21
1038.624192984777
12
1244.2050807568878
22
1050.0
13
1257.1954618136542
23
1042.5
0
SOLID
8
0
10
1244.2050807568878
20
1050.0
11
1257.1954618136542
21
1042.5
12
1246.261336008773
22
1053.649265179657
13
1259.4059362094306
23
1046.4229600681313
0
SOLID
8
0
10
1246.2613360087728
20
1053.649265179657
11
1259.4059362094306
21
1046.4229600681313
12
1248.2407158462431
22
1057.3407929760278
13
1261.5337695347112
23
1050.3913524492298
0
SOLID
8
0
10
1248.240715846243
20
1057.3407929760276
11
1261.5337695347112
21
1050.3913524492298
12
1250.1423520478827
22
1061.0729641630144
13
1263.5780284514738
23
1054.4034364752406
0
SOLID
8
0
10
1250.1423520478825
20
1061.0729641630146
11
1263.5780284514738
21
1054.4034364752406
12
1251.965410493204
22
1064.8441416869855
13
1265.5378162801944
23
1058.4574523135095
0
SOLID
8
0
10
1251.965410493204
20
1064.8441416869855
11
1265.5378162801942
21
1058.4574523135093
12
1253.7090915285203
22
1068.65267138484
13
1267.4122733931592
23
1062.551621738703
0
SOLID
8
0
10
1253.7090915285203
20
1068.65267138484
11
1267.4122733931592
21
1062.551621738703
12
1255.3726303177002
22
1072.4968827095795
13
1269.2005775915275
23
1066.6841489127978
0
SOLID
8
0
10
1255.3726303177
20
1072.4968827095795
11
1269.2005775915277
21
1066.6841489127978
12
1256.9552971776504
22
1076.3750894630643
13
1270.901944465974
23
1070.8532211727943
0
SOLID
8
0
10
1256.9552971776502
20
1076.3750894630643
11
1270.901944465974
21
1070.8532211727943
12
1258.4563978983783
22
1080.285590535637
13
1272.5156277407566
23
1075.05700982581
0
SOLID
8
0
10
1258.4563978983783
20
1080.2855905356369
11
1272.5156277407566
21
1075.0570098258097
12
1259.875274047496
22
1084.2266706522832
13
1274.0409196010585
23
1079.2936709512046
0
SOLID
8
0
10
1259.875274047496
20
1084.2266706522832
11
1274.0409196010585
21
1079.2936709512046
12
1261.211303259031
22
1088.1966011250106
13
1275.4771510034582
23
1083.5613462093863
0
SOLID
8
0
10
1261.2113032590307
20
1088.1966011250106
11
1275.477151003458
21
1083.5613462093863
12
1262.4638995064136
22
1092.1936406111058
13
1276.8236919693945
23
1087.8581636569388
0
SOLID
8
0
10
1262.4638995064133
20
1092.1936406111056
11
1276.8236919693945
21
1087.8581636569386
12
1263.6325133595317
22
1096.2160358769468
13
1278.0799518614963
23
1092.182238567718
0
SOLID
8
0
10
1263.6325133595317
20
1096.2160358769468
11
1278.0799518614965
21
1092.1822385677178
12
1264.7166322257262
22
1100.2620225670291
13
1279.2453796426557
23
1096.5316742595562
0
SOLID
8
0
10
1264.7166322257262
20
1100.262022567029
11
1279.2453796426557
21
1096.5316742595562
12
1265.7157805746322
22
1104.3298259778687
13
1280.3194641177295
23
1100.904562926209
0
SOLID
8
0
10
1265.715780574632
20
1104.3298259778687
11
1280.3194641177295
21
1100.9045629262089
12
1266.629520146761
22
1108.4176618364481
13
1281.3017341577681
23
1105.298986474182
0
SOLID
8
0
10
1266.629520146761
20
1108.4176618364481
11
1281.3017341577681
21
1105.2989864741817
12
1267.4574501457378
22
1112.5237370828552
13
1282.1917589066682
23
1109.7130173640692
0
SOLID
8
0
10
1267.4574501457378
20
1112.5237370828552
11
1282.1917589066682
21
1109.7130173640692
12
1268.199207414101
22
1116.6462506567796
13
1282.9891479701585
23
1114.1447194560383
0
SOLID
8
0
10
1268.199207414101
20
1116.6462506567796
11
1282.9891479701585
21
1114.144719456038
12
1268.8544665925979
22
1120.7833942875177
13
1283.6935515870425
23
1118.5921488590816
0
SOLID
8
0
10
1268.8544665925976
20
1120.7833942875177
11
1283.6935515870425
21
1118.5921488590814
12
1269.4229402628955
22
1124.9333532871392
13
1284.3046607826127
23
1123.0533547836746
0
SOLID
8
0
10
1269.4229402628955
20
1124.9333532871392
11
1284.3046607826127
21
1123.0533547836746
12
1269.9043790736548
22
1129.0943073464693
13
1284.8222075041788
23
1127.5263803974547
0
SOLID
8
0
10
1269.9043790736546
20
1129.0943073464693
11
1284.8222075041788
21
1127.5263803974544
12
1270.298571849901
22
1133.264431333537
13
1285.2459647386436
23
1132.0092636835523
0
SOLID
8
0
10
1270.2985718499008
20
1133.264431333537
11
1285.2459647386434
21
1132.0092636835523
12
1270.6053456856544
22
1137.4418960941375
13
1285.5757466120783
23
1136.5000383011975
0
SOLID
8
0
10
1270.6053456856544
20
1137.4418960941373
11
1285.5757466120783
21
1136.5000383011975
12
1270.8245660197717
22
1141.6248692541603
13
1285.8114084712545
23
1140.996734448222
0
SOLID
8
0
10
1270.8245660197717
20
1141.62486925416
11
1285.8114084712545
21
1140.996734448222
12
1270.9561366949692
22
1145.8115160233285
13
1285.9528469470918
23
1145.4973797250782
0
SOLID
8
0
10
1270.956136694969
20
1145.8115160233285
11
1285.9528469470918
21
1145.4973797250782
12
1271.0
22
1150.0
13
1286.0
23
1150.0
0
SOLID
8
0
10
1271.0
20
1150.0
11
1286.0
21
1150.0
12
1270.9561366949692
22
1154.1884839766715
13
1285.9528469470918
23
1154.5026202749218
0
SOLID
8
0
10
1270.956136694969
20
1154.1884839766715
11
1285.9528469470918
21
1154.5026202749218
12
1270.8245660197717
22
1158.3751307458401
13
1285.8114084712547
23
1159.003265551778
0
SOLID
8
0
10
1270.8245660197717
20
1158.37513074584
11
1285.8114084712545
21
1159.003265551778
12
1270.6053456856544
22
1162.5581039058627
13
1285.5757466120783
23
1163.4999616988025
0
SOLID
8
0
10
1270.6053456856544
20
1162.5581039058627
11
1285.5757466120783
21
1163.4999616988023
12
1270.2985718499008
22
1166.7355686664632
13
1285.2459647386434
23
1167.9907363164477
0
SOLID
8
0
10
1270.2985718499008
20
1166.735568666463
11
1285.2459647386434
21
1167.9907363164477
12
1269.9043790736546
22
1170.9056926535309
13
1284.8222075041788
23
1172.4736196025453
0
SOLID
8
0
10
1269.9043790736546
20
1170.9056926535307
11
1284.8222075041788
21
1172.4736196025456
12
1269.4229402628955
22
1175.066646712861
13
1284.3046607826127
23
1176.9466452163254
0
SOLID
8
0
10
1269.4229402628955
20
1175.0666467128608
11
1284.3046607826127
21
1176.9466452163254
12
1268.8544665925976
22
1179.2166057124825
13
1283.6935515870425
23
1181.4078511409186
0
SOLID
8
0
10
1268.8544665925976
20
1179.2166057124823
11
1283.6935515870425
21
1181.4078511409184
12
1268.199207414101
22
1183.3537493432204
13
1282.9891479701587
23
1185.855280543962
0
SOLID
8
0
10
1268.199207414101
20
1183.3537493432204
11
1282.9891479701587
21
1185.855280543962
12
1267.4574501457378
22
1187.476262917145
13
1282.1917589066682
23
1190.286982635931
0
SOLID
8
0
10
1267.4574501457378
20
1187.4762629171448
11
1282.1917589066682
21
1190.2869826359308
12
1266.6295201467613
22
1191.5823381635519
13
1281.3017341577681
23
1194.7010135258183
0
SOLID
8
0
10
1266.629520146761
20
1191.5823381635519
11
1281.3017341577684
21
1194.7010135258183
12
1265.715780574632
22
1195.6701740221313
13
1280.3194641177295
23
1199.095437073791
0
SOLID
8
0
10
1265.715780574632
20
1195.670174022131
11
1280.3194641177295
21
1199.095437073791
12
1264.7166322257262
22
1199.737977432971
13
1279.2453796426557
23
1203.4683257404438
0
SOLID
8
0
10
1264.7166322257262
20
1199.7379774329709
11
1279.2453796426557
21
1203.4683257404438
12
1263.6325133595317
22
1203.783964123053
13
1278.0799518614965
23
1207.8177614322822
0
SOLID
8
0
10
1263.6325133595317
20
1203.783964123053
11
1278.0799518614965
21
1207.8177614322822
12
1262.4638995064133
22
1207.8063593888944
13
1276.8236919693945
23
1212.1418363430614
0
SOLID
8
0
10
1262.4638995064136
20
1207.8063593888942
11
1276.8236919693945
21
1212.1418363430614
12
1261.2113032590307
22
1211.8033988749894
13
1275.4771510034582
23
1216.4386537906137
0
SOLID
8
0
10
1261.2113032590307
20
1211.8033988749894
11
1275.477151003458
21
1216.4386537906137
12
1259.8752740474963
22
1215.7733293477168
13
1274.0409196010582
23
1220.7063290487954
0
SOLID
8
0
10
1259.8752740474963
20
1215.7733293477168
11
1274.0409196010585
21
1220.7063290487954
12
1258.4563978983783
22
1219.7144094643631
13
1272.5156277407566
23
1224.9429901741903
0
SOLID
8
0
10
1258.4563978983783
20
1219.714409464363
11
1272.5156277407566
21
1224.9429901741903
12
1256.9552971776504
22
1223.6249105369357
13
1270.901944465974
23
1229.1467788272057
0
SOLID
8
0
10
1256.9552971776502
20
1223.6249105369357
11
1270.901944465974
21
1229.1467788272057
12
1255.3726303177
22
1227.5031172904207
13
1269.2005775915277
23
1233.3158510872022
0
SOLID
8
0
10
1255.3726303177
20
1227.5031172904205
11
1269.2005775915277
21
1233.3158510872022
12
1253.70909152852
22
1231.3473286151602
13
1267.4122733931592
23
1237.448378261297
0
SOLID
8
0
10
1253.7090915285203
20
1231.34732861516
11
1267.4122733931592
21
1237.448378261297
12
1251.965410493204
22
1235.1558583130145
13
1265.5378162801942
23
1241.5425476864907
0
SOLID
8
0
10
1251.965410493204
20
1235.1558583130145
11
1265.5378162801942
21
1241.5425476864905
12
1250.1423520478825
22
1238.9270358369856
13
1263.5780284514738
23
1245.5965635247594
0
SOLID
8
0
10
1250.1423520478827
20
1238.9270358369854
11
1263.5780284514738
21
1245.5965635247594
12
1248.2407158462431
22
1242.6592070239724
13
1261.5337695347112
23
1249.6086475507702
0
SOLID
8
0
10
1248.240715846243
20
1242.6592070239724
11
1261.5337695347112
21
1249.6086475507702
12
1246.2613360087728
22
1246.350734820343
13
1259.4059362094306
23
1253.5770399318687
0
SOLID
8
0
10
1246.2613360087728
20
1246.350734820343
11
1259.4059362094308
21
1253.5770399318687
12
1244.2050807568878
22
1250.0
13
1257.1954618136542
23
1257.5
0
SOLID
8
0
10
1244.2050807568878
20
1250.0
11
1257.1954618136542
21
1257.5
12
1242.0728520321015
22
1253.6054018746263
13
1254.903315934509
23
1261.375807015223
0
SOLID
8
0
10
1242.0728520321013
20
1253.6054018746258
11
1254.903315934509
21
1261.3758070152228
12
1239.865585100403
22
1257.1653589957994
13
1252.5305039829332
23
1265.202760920484
0
SOLID
8
0
10
1239.865585100403
20
1257.1653589957994
11
1252.5305039829332
21
1265.2027609204843
12
1237.58424814202
22
1260.678309848669
13
1250.0780667526715
23
1268.979183087319
0
SOLID
8
0
10
1237.58424814202
20
1260.6783098486687
11
1250.0780667526715
21
1268.979183087319
12
1235.2298418267408
22
1264.1427135368865
13
1247.5470799637462
23
1272.7034170521529
0
SOLID
8
0
10
1235.2298418267408
20
1264.1427135368863
11
1247.5470799637465
21
1272.7034170521529
12
1232.8033988749894
22
1267.5570504584946
13
1244.9386537906137
23
1276.3738292428818
0
SOLID
8
0
10
1232.8033988749894
20
1267.5570504584946
11
1244.9386537906137
21
1276.3738292428816
12
1230.3059836048392
22
1270.9198229724752
13
1242.253932375202
23
1279.9888096954107
0
SOLID
8
0
10
1230.3059836048392
20
1270.919822972475
11
1242.253932375202
21
1279.9888096954105
12
1227.738691465168
22
1274.229556055662
13
1239.4940933250555
23
1283.5467727598366
0
SOLID
8
0
10
1227.738691465168
20
1274.229556055662
11
1239.4940933250555
21
1283.5467727598368
12
1225.1026485551579
22
1277.484797949738
13
1236.6603471967946
23
1287.0461577959682
0
SOLID
8
0
10
1225.1026485551579
20
1277.4847979497379
11
1236.6603471967946
21
1287.0461577959682
12
1222.3990111303513
22
1280.6841207980212
13
1233.7539369651277
23
1290.4854298578725
0
SOLID
8
0
10
1222.3990111303513
20
1280.684120798021
11
1233.7539369651277
21
1290.4854298578725
12
1219.6289650954789
22
1283.8261212717716
13
1230.7761374776396
23
1293.8630803671545
0
SOLID
8
0
10
1219.6289650954789
20
1283.8261212717716
11
1230.7761374776398
21
1293.8630803671545
12
1216.7937254842823
22
1286.9094211857378
13
1227.7282548956032
23
1297.177627774668
0
SOLID
8
0
10
1216.7937254842823
20
1286.9094211857378
11
1227.7282548956036
21
1297.177627774668
12
1213.8945359265608
22
1289.9326681026732
13
1224.6116261210527
23
1300.4276182103736
0
SOLID
8
0
10
1213.8945359265606
20
1289.932668102673
11
1224.6116261210527
21
1300.4276182103736
12
1210.932668102673
22
1292.8945359265608
13
1221.4276182103736
23
1303.6116261210527
0
SOLID
8
0
10
1210.9326681026732
20
1292.8945359265606
11
1221.4276182103736
21
1303.6116261210527
12
1207.9094211857378
22
1295.7937254842825
13
1218.177627774668
23
1306.7282548956034
0
SOLID
8
0
10
1207.9094211857378
20
1295.7937254842823
11
1218.177627774668
21
1306.7282548956034
12
1204.8261212717716
22
1298.6289650954789
13
1214.8630803671545
23
1309.7761374776396
0
SOLID
8
0
10
1204.8261212717716
20
1298.6289650954789
11
1214.8630803671545
21
1309.7761374776396
12
1201.684120798021
22
1301.3990111303515
13
1211.4854298578725
23
1312.7539369651277
0
SOLID
8
0
10
1201.684120798021
20
1301.3990111303513
11
1211.4854298578728
21
1312.7539369651277
12
1198.4847979497379
22
1304.1026485551579
13
1208.0461577959682
23
1315.6603471967946
0
SOLID
8
0
10
1198.4847979497379
20
1304.1026485551579
11
1208.0461577959684
21
1315.6603471967946
12
1195.229556055662
22
1306.7386914651681
13
1204.5467727598368
23
1318.4940933250555
0
SOLID
8
0
10
1195.2295560556622
20
1306.738691465168
11
1204.5467727598368
21
1318.4940933250555
12
1191.9198229724748
22
1309.3059836048392
13
1200.9888096954107
23
1321.253932375202
0
SOLID
8
0
10
1191.919822972475
20
1309.3059836048392
11
1200.9888096954107
21
1321.253932375202
12
1188.5570504584948
22
1311.8033988749894
13
1197.3738292428818
23
1323.9386537906137
0
SOLID
8
0
10
1188.5570504584946
20
1311.8033988749894
11
1197.3738292428818
21
1323.9386537906137
12
1185.1427135368863
22
1314.229841826741
13
1193.7034170521526
23
1326.5470799637465
0
SOLID
8
0
10
1185.1427135368865
20
1314.2298418267408
11
1193.7034170521529
21
1326.5470799637462
12
1181.678309848669
22
1316.58424814202
13
1189.979183087319
23
1329.0780667526712
0
SOLID
8
0
10
1181.6783098486687
20
1316.58424814202
11
1189.979183087319
21
1329.0780667526715
12
1178.1653589957994
22
1318.865585100403
13
1186.2027609204843
23
1331.5305039829334
0
SOLID
8
0
10
1178.1653589957994
20
1318.865585100403
11
1186.2027609204843
21
1331.5305039829332
12
1174.6054018746258
22
1321.0728520321013
13
1182.375807015223
23
1333.903315934509
0
SOLID
8
0
10
1174.605401874626
20
1321.0728520321013
11
1182.375807015223
21
1333.9033159345088
12
1171.0
22
1323.2050807568878
13
1178.5
23
1336.1954618136542
0
SOLID
8
0
10
1171.0
20
1323.2050807568878
11
1178.5
21
1336.1954618136542
12
1167.350734820343
22
1325.2613360087728
13
1174.5770399318685
23
1338.4059362094308
0
SOLID
8
0
10
1167.3507348203432
20
1325.2613360087728
11
1174.577039931869
21
1338.4059362094306
12
1163.6592070239724
22
1327.240715846243
13
1170.6086475507702
23
1340.5337695347112
0
SOLID
8
0
10
1163.6592070239724
20
1327.240715846243
11
1170.6086475507702
21
1340.5337695347112
12
1159.9270358369854
22
1329.1423520478827
13
1166.5965635247592
23
1342.5780284514738
0
SOLID
8
0
10
1159.9270358369856
20
1329.1423520478825
11
1166.5965635247594
21
1342.5780284514738
12
1156.1558583130145
22
1330.9654104932038
13
1162.5425476864907
23
1344.5378162801942
0
SOLID
8
0
10
1156.1558583130145
20
1330.9654104932038
11
1162.5425476864907
21
1344.5378162801942
12
1152.34732861516
22
1332.7090915285203
13
1158.448378261297
23
1346.4122733931592
0
SOLID
8
0
10
1152.34732861516
20
1332.7090915285203
11
1158.4483782612972
21
1346.4122733931592
12
1148.5031172904205
22
1334.3726303177002
13
1154.3158510872022
23
1348.2005775915275
0
SOLID
8
0
10
1148.5031172904207
20
1334.3726303177
11
1154.3158510872022
21
1348.2005775915277
12
1144.6249105369357
22
1335.9552971776504
13
1150.1467788272057
23
1349.9019444659739
0
SOLID
8
0
10
1144.6249105369357
20
1335.9552971776502
11
1150.1467788272057
21
1349.901944465974
12
1140.714409464363
22
1337.4563978983783
13
1145.94299017419
23
1351.5156277407568
0
SOLID
8
0
10
1140.7144094643631
20
1337.4563978983783
11
1145.9429901741903
21
1351.5156277407566
12
1136.7733293477168
22
1338.875274047496
13
1141.7063290487954
23
1353.0409196010585
0
SOLID
8
0
10
1136.7733293477168
20
1338.875274047496
11
1141.7063290487954
21
1353.0409196010585
12
1132.8033988749894
22
1340.211303259031
13
1137.4386537906137
23
1354.4771510034582
0
SOLID
8
0
10
1132.8033988749894
20
1340.2113032590307
11
1137.4386537906137
21
1354.477151003458
12
1128.8063593888942
22
1341.4638995064136
13
1133.1418363430612
23
1355.8236919693945
0
SOLID
8
0
10
1128.8063593888944
20
1341.4638995064133
11
1133.1418363430614
21
1355.8236919693945
12
1124.7839641230532
22
1342.6325133595317
13
1128.8177614322822
23
1357.0799518614963
0
SOLID
8
0
10
1124.7839641230532
20
1342.6325133595317
11
1128.8177614322822
21
1357.0799518614965
12
1120.7379774329709
22
1343.7166322257262
13
1124.4683257404438
23
1358.2453796426557
0
SOLID
8
0
10
1120.7379774329709
20
1343.7166322257262
11
1124.4683257404438
21
1358.2453796426557
12
1116.6701740221313
22
1344.7157805746322
13
1120.095437073791
23
1359.3194641177295
0
SOLID
8
0
10
1116.6701740221313
20
1344.715780574632
11
1120.0954370737911
21
1359.3194641177295
12
1112.5823381635519
22
1345.629520146761
13
1115.7010135258183
23
1360.3017341577681
0
SOLID
8
0
10
1112.5823381635519
20
1345.629520146761
11
1115.7010135258183
21
1360.3017341577684
12
1108.4762629171448
22
1346.4574501457378
13
1111.2869826359308
23
1361.1917589066682
0
SOLID
8
0
10
1108.4762629171448
20
1346.4574501457378
11
1111.2869826359308
21
1361.1917589066682
12
1104.3537493432204
22
1347.199207414101
13
1106.8552805439617
23
1361.9891479701585
0
SOLID
8
0
10
1104.3537493432204
20
1347.199207414101
11
1106.855280543962
21
1361.9891479701587
12
1100.2166057124823
22
1347.8544665925979
13
1102.4078511409184
23
1362.6935515870425
0
SOLID
8
0
10
1100.2166057124823
20
1347.8544665925976
11
1102.4078511409184
21
1362.6935515870425
12
1096.0666467128608
22
1348.4229402628955
13
1097.9466452163254
23
1363.3046607826127
0
SOLID
8
0
10
1096.0666467128608
20
1348.4229402628955
11
1097.9466452163256
21
1363.3046607826127
12
1091.9056926535307
22
1348.9043790736548
13
1093.4736196025453
23
1363.8222075041788
0
SOLID
8
0
10
1091.9056926535307
20
1348.9043790736546
11
1093.4736196025456
21
1363.8222075041788
12
1087.735568666463
22
1349.298571849901
13
1088.990736316448
23
1364.2459647386436
0
SOLID
8
0
10
1087.7355686664632
20
1349.2985718499008
11
1088.990736316448
21
1364.2459647386434
12
1083.5581039058627
22
1349.6053456856544
13
1084.4999616988025
23
1364.5757466120783
0
SOLID
8
0
10
1083.5581039058627
20
1349.6053456856544
11
1084.4999616988025
21
1364.5757466120783
12
1079.3751307458397
22
1349.8245660197717
13
1080.003265551778
23
1364.8114084712545
0
SOLID
8
0
10
1079.37513074584
20
1349.8245660197717
11
1080.003265551778
21
1364.8114084712545
12
1075.1884839766715
22
1349.9561366949692
13
1075.5026202749218
23
1364.9528469470918
0
SOLID
8
0
10
1075.1884839766715
20
1349.956136694969
11
1075.5026202749218
21
1364.9528469470918
12
1071.0
22
1350.0
13
1071.0
23
1365.0
0
POLYLINE
8
0
66
1
10
0.0
20
0.0
30
0.0
0
VERTEX
8
0
10
1071.0
20
935.0
0
VERTEX
8
0
10
1082.4427675910683
20
935.3047204294962
0
VERTEX
8
0
10
1093.8530994141836
20
936.2180179548205
0
VERTEX
8
0
10
1105.1986516441004
20
937.7373037349109
0
VERTEX
8
0
10
1116.4472640803692
20
939.8582711891587
0
VERTEX
8
0
10
1127.5670513089171
20
942.5749082048791
0
VERTEX
8
0
10
1138.526493084719
20
945.879514179298
0
VERTEX
8
0
10
1149.2945236793566
20
949.7627218477472
0
VERTEX
8
0
10
1159.8406199402013
20
954.2135238361936
0
VERTEX
8
0
10
1170.134887811605
20
959.2193038628371
0
VERTEX
8
0
10
1180.1481470728506
20
964.7658725003316
0
VERTEX
8
0
10
1189.8520140526566
20
970.8375073972593
0
VERTEX
8
0
10
1199.2189820857777
20
977.4169978448429
0
VERTEX
8
0
10
1208.2224994836363
20
984.4856935625702
0
VERTEX
8
0
10
1216.8370447979673
20
992.0235575644406
0
VERTEX
8
0
10
1225.0381991641377
20
1000.0092229559783
0
VERTEX
8
0
10
1232.8027155190698
20
1008.4200535010167
0
VERTEX
8
0
10
1240.1085844975682
20
1017.2322077865688
0
VERTEX
8
0
10
1246.9350968202564
20
1026.4207068039025
0
VERTEX
8
0
10
1253.2629019962792
20
1035.9595047542555
0
VERTEX
8
0
10
1259.0740631743718
20
1045.82156287848
0
VERTEX
8
0
10
1264.3521079868121
20
1055.9789261013461
0
VERTEX
8
0
10
1269.0820752421387
20
1066.4028022732361
0
VERTEX
8
0
10
1273.2505573342721
20
1077.0636437846235
0
VERTEX
8
0
10
1276.8457382478312
20
1087.9312313219816
0
VERTEX
8
0
10
1279.8574270519127
20
1098.9747595277104
0
VERTEX
8
0
10
1282.277086787392
20
1110.1629243212703
0
VERTEX
8
0
10
1284.0978586658616
20
1121.4640116339997
0
VERTEX
8
0
10
1285.3145815116113
20
1132.8459873060872
0
VERTEX
8
0
10
1285.9238063915423
20
1144.2765878908785
0
VERTEX
8
0
10
1285.9238063915423
20
1155.7234121091215
0
VERTEX
8
0
10
1285.3145815116113
20
1167.1540126939128
0
VERTEX
8
0
10
1284.0978586658616
20
1178.5359883660003
0
VERTEX
8
0
10
1282.277086787392
20
1189.8370756787297
0
VERTEX
8
0
10
1279.8574270519127
20
1201.0252404722896
0
VERTEX
8
0
10
1276.8457382478312
20
1212.0687686780184
0
VERTEX
8
0
10
1273.2505573342721
20
1222.9363562153765
0
VERTEX
8
0
10
1269.0820752421387
20
1233.5971977267639
0
VERTEX
8
0
10
1264.3521079868121
20
1244.0210738986539
0
VERTEX
8
0
10
1259.0740631743718
20
1254.17843712152
0
VERTEX
8
0
10
1253.2629019962792
20
1264.0404952457445
0
VERTEX
8
0
10
1246.9350968202564
20
1273.5792931960975
0
VERTEX
8
0
10
1240.108584497568
20
1282.7677922134312
0
VERTEX
8
0
10
1232.8027155190698
20
1291.5799464989832
0
VERTEX
8
0
10
1225.0381991641377
20
1299.9907770440218
0
VERTEX
8
0
10
1216.8370447979673
20
1307.9764424355594
0
VERTEX
8
0
10
1208.2224994836363
20
1315.51430643743
0
VERTEX
8
0
10
1199.2189820857777
20
1322.5830021551571
0
VERTEX
8
0
10
1189.8520140526566
20
1329.1624926027407
0
VERTEX
8
0
10
1180.1481470728506
20
1335.2341274996684
0
VERTEX
8
0
10
1170.134887811605
20
1340.780696137163
0
VERTEX
8
0
10
1159.8406199402013
20
1345.7864761638064
0
VERTEX
8
0
10
1149.2945236793569
20
1350.2372781522527
0
VERTEX
8
0
10
1138.526493084719
20
1354.120485820702
0
VERTEX
8
0
10
1127.5670513089171
20
1357.4250917951208
0
VERTEX
8
0
10
1116.4472640803692
20
1360.1417288108414
0
VERTEX
8
0
10
1105.1986516441004
20
1362.262696265089
0
VERTEX
8
0
10
1093.8530994141836
20
1363.7819820451796
0
VERTEX
8
0
10
1082.4427675910683
20
1364.6952795705038
0
VERTEX
8
0
10
1071.0
20
1365.0
0
VERTEX
8
0
10
1071.0
20
1350.0
0
VERTEX
8
0
10
1081.6444349684357
20
1349.7165391353524
0
VERTEX
8
0
10
1092.2586971294731
20
1348.8669600420274
0
VERTEX
8
0
10
1102.8126992038144
20
1347.4536709442689
0
VERTEX
8
0
10
1113.276524725925
20
1345.4806779635733
0
VERTEX
8
0
10
1123.6205128455042
20
1342.9535737629033
0
VERTEX
8
0
10
1133.8153424043899
20
1339.8795216936762
0
VERTEX
8
0
10
1143.8321150505644
20
1336.2672354904678
0
VERTEX
8
0
10
1153.6424371536757
20
1332.1269545709827
0
VERTEX
8
0
10
1163.2185002898652
20
1327.4704150113143
0
VERTEX
8
0
10
1172.533160067768
20
1322.3108162787612
0
VERTEX
8
0
10
1181.5600130722387
20
1316.662783816503
0
VERTEX
8
0
10
1190.2734717077003
20
1310.5423275861926
0
VERTEX
8
0
10
1198.648836728964
20
1303.9667966859813
0
VERTEX
8
0
10
1206.662367253923
20
1296.9548301726136
0
VERTEX
8
0
10
1214.291348059663
20
1289.526304226997
0
VERTEX
8
0
10
1221.5141539712276
20
1281.7022758130079
0
VERTEX
8
0
10
1228.3103111605285
20
1273.5049229892384
0
VERTEX
8
0
10
1234.6605551816338
20
1264.9574820428813
0
VERTEX
8
0
10
1240.5468855779343
20
1256.0841816239486
0
VERTEX
8
0
10
1245.9526169063922
20
1246.91017406653
0
VERTEX
8
0
10
1250.8624260342438
20
1237.4614640917712
0
VERTEX
8
0
10
1255.2623955740826
20
1227.7648350946642
0
VERTEX
8
0
10
1259.1400533342066
20
1217.847773223606
0
VERTEX
8
0
10
1262.4844076724012
20
1207.7383894679242
0
VERTEX
8
0
10
1265.285978652942
20
1197.465339974223
0
VERTEX
8
0
10
1267.5368249185042
20
1187.0577448174229
0
VERTEX
8
0
10
1269.2305662008014
20
1176.5451054567443
0
VERTEX
8
0
10
1270.36240140615
20
1165.9572211106165
0
VERTEX
8
0
10
1270.9291222246904
20
1155.324104287555
0
VERTEX
8
0
10
1270.9291222246904
20
1144.675895712445
0
VERTEX
8
0
10
1270.36240140615
20
1134.0427788893833
0
VERTEX
8
0
10
1269.2305662008014
20
1123.4548945432557
0
VERTEX
8
0
10
1267.5368249185042
20
1112.9422551825771
0
VERTEX
8
0
10
1265.285978652942
20
1102.534660025777
0
VERTEX
8
0
10
1262.4844076724012
20
1092.2616105320758
0
VERTEX
8
0
10
1259.1400533342066
20
1082.152226776394
0
VERTEX
8
0
10
1255.2623955740826
20
1072.2351649053358
0
VERTEX
8
0
10
1250.8624260342438
20
1062.5385359082288
0
VERTEX
8
0
10
1245.9526169063922
20
1053.08982593347
0
VERTEX
8
0
10
1240.5468855779343
20
1043.9158183760514
0
VERTEX
8
0
10
1234.6605551816338
20
1035.0425179571187
0
VERTEX
8
0
10
1228.3103111605285
20
1026.4950770107616
0
VERTEX
8
0
10
1221.5141539712276
20
1018.2977241869924
0
VERTEX
8
0
10
1214.291348059663
20
1010.4736957730031
0
VERTEX
8
0
10
1206.662367253923
20
1003.0451698273865
0
VERTEX
8
0
10
1198.648836728964
20
996.0332033140187
0
VERTEX
8
0
10
1190.2734717077003
20
989.4576724138072
0
VERTEX
8
0
10
1181.5600130722387
20
983.337216183497
0
VERTEX
8
0
10
1172.533160067768
20
977.6891837212388
0
VERTEX
8
0
10
1163.2185002898652
20
972.5295849886857
0
VERTEX
8
0
10
1153.6424371536757
20
967.8730454290173
0
VERTEX
8
0
10
1143.8321150505644
20
963.7327645095323
0
VERTEX
8
0
10
1133.8153424043899
20
960.1204783063238
0
VERTEX
8
0
10
1123.6205128455042
20
957.0464262370969
0
VERTEX
8
0
10
1113.276524725925
20
954.5193220364267
0
VERTEX
8
0
10
1102.8126992038144
20
952.5463290557311
0
VERTEX
8
0
10
1092.2586971294731
20
951.1330399579726
0
VERTEX
8
0
10
1081.6444349684357
20
950.2834608646476
0
VERTEX
8
0
10
1071.0
20
950.0
0
VERTEX
8
0
10
1071.0
20
935.0
0
SEQEND
0
POLYLINE
8
0
66
1
10
0.0
20
0.0
30
0.0
0
VERTEX
8
0
10
1071.0
20
950.0
0
VERTEX
8
0
10
1081.6444349684357
20
950.2834608646476
0
VERTEX
8
0
10
1092.2586971294731
20
951.1330399579726
0
VERTEX
8
0
10
1102.8126992038144
20
952.5463290557311
0
VERTEX
8
0
10
1113.276524725925
20
954.5193220364267
0
VERTEX
8
0
10
1123.6205128455042
20
957.0464262370969
0
VERTEX
8
0
10
1133.8153424043899
20
960.1204783063238
0
VERTEX
8
0
10
1143.8321150505644
20
963.7327645095323
0
VERTEX
8
0
10
1153.6424371536757
20
967.8730454290173
0
VERTEX
8
0
10
1163.2185002898652
20
972.5295849886857
0
VERTEX
8
0
10
1172.533160067768
20
977.6891837212388
0
VERTEX
8
0
10
1181.5600130722387
20
983.337216183497
0
VERTEX
8
0
10
1190.2734717077003
20
989.4576724138072
0
VERTEX
8
0
10
1198.648836728964
20
996.0332033140187
0
VERTEX
8
0
10
1206.662367253923
20
1003.0451698273865
0
VERTEX
8
0
10
1214.291348059663
20
1010.4736957730031
0
VERTEX
8
0
10
1221.5141539712276
20
1018.2977241869922
0
VERTEX
8
0
10
1228.3103111605285
20
1026.4950770107616
0
VERTEX
8
0
10
1234.6605551816338
20
1035.0425179571187
0
VERTEX
8
0
10
1240.5468855779343
20
1043.9158183760514
0
VERTEX
8
0
10
1245.9526169063922
20
1053.08982593347
0
VERTEX
8
0
10
1250.8624260342438
20
1062.5385359082288
0
VERTEX
8
0
10
1255.2623955740826
20
1072.2351649053358
0
VERTEX
8
0
10
1259.1400533342066
20
1082.152226776394
0
VERTEX
8
0
10
1262.4844076724012
20
1092.2616105320758
0
VERTEX
8
0
10
1265.285978652942
20
1102.534660025777
0
VERTEX
8
0
10
1267.5368249185042
20
1112.9422551825771
0
VERTEX
8
0
10
1269.2305662008014
20
1123.4548945432557
0
VERTEX
8
0
10
1270.36240140615
20
1134.0427788893835
0
VERTEX
8
0
10
1270.9291222246904
20
1144.675895712445
0
VERTEX
8
0
10
1270.9291222246904
20
1155.324104287555
0
VERTEX
8
0
10
1270.36240140615
20
1165.9572211106167
0
VERTEX
8
0
10
1269.2305662008014
20
1176.5451054567443
0
VERTEX
8
0
10
1267.5368249185042
20
1187.0577448174229
0
VERTEX
8
0
10
1265.285978652942
20
1197.465339974223
0
VERTEX
8
0
10
1262.4844076724012
20
1207.7383894679242
0
VERTEX
8
0
10
1259.1400533342066
20
1217.847773223606
0
VERTEX
8
0
10
1255.2623955740826
20
1227.7648350946642
0
VERTEX
8
0
10
1250.8624260342438
20
1237.4614640917712
0
VERTEX
8
0
10
1245.9526169063922
20
1246.91017406653
0
VERTEX
8
0
10
1240.5468855779343
20
1256.0841816239486
0
VERTEX
8
0
10
1234.6605551816338
20
1264.9574820428813
0
VERTEX
8
0
10
1228.3103111605285
20
1273.5049229892384
0
VERTEX
8
0
10
1221.5141539712276
20
1281.7022758130076
0
VERTEX
8
0
10
1214.291348059663
20
1289.526304226997
0
VERTEX
8
0
10
1206.662367253923
20
1296.9548301726136
0
VERTEX
8
0
10
1198.648836728964
20
1303.9667966859813
0
VERTEX
8
0
10
1190.2734717077003
20
1310.5423275861926
0
VERTEX
8
0
10
1181.5600130722387
20
1316.662783816503
0
VERTEX
8
0
10
1172.533160067768
20
1322.3108162787612
0
VERTEX
8
0
10
1163.2185002898652
20
1327.4704150113143
0
VERTEX
8
0
10
1153.6424371536757
20
1332.1269545709827
0
VERTEX
8
0
10
1143.8321150505644
20
1336.2672354904676
0
VERTEX
8
0
10
1133.8153424043899
20
1339.8795216936762
0
VERTEX
8
0
10
1123.6205128455042
20
1342.9535737629033
0
VERTEX
8
0
10
1113.276524725925
20
1345.4806779635733
0
VERTEX
8
0
10
1102.8126992038144
20
1347.4536709442689
0
VERTEX
8
0
10
1092.2586971294731
20
1348.8669600420274
0
VERTEX
8
0
10
1081.6444349684357
20
1349.7165391353524
0
VERTEX
8
0
10
1071.0
20
1350.0
0
VERTEX
8
0
10
1071.0
20
1335.0
0
VERTEX
8
0
10
1080.846102345803
20
1334.737798700201
0
VERTEX
8
0
10
1090.6642948447627
20
1333.9519380388754
0
VERTEX
8
0
10
1100.4267467635284
20
1332.6446456234487
0
VERTEX
8
0
10
1110.1057853714806
20
1330.8196271163054
0
VERTEX
8
0
10
1119.6739743820915
20
1328.4820557306855
0
VERTEX
8
0
10
1129.1041917240605
20
1325.6385575666504
0
VERTEX
8
0
10
1138.369706421772
20
1322.2971928286827
0
VERTEX
8
0
10
1147.4442543671498
20
1318.467432978159
0
VERTEX
8
0
10
1156.3021127681252
20
1314.1601338854657
0
VERTEX
8
0
10
1164.9181730626854
20
1309.387505057854
0
VERTEX
8
0
10
1173.2680120918208
20
1304.1630750302652
0
VERTEX
8
0
10
1181.3279613296227
20
1298.5016530172284
0
VERTEX
8
0
10
1189.0751739742918
20
1292.4192869345327
0
VERTEX
8
0
10
1196.487689709879
20
1285.9332179096675
0
VERTEX
8
0
10
1203.5444969551884
20
1279.0618314099722
0
VERTEX
8
0
10
1210.2255924233857
20
1271.824605127032
0
VERTEX
8
0
10
1216.5120378234888
20
1264.2420537650455
0
VERTEX
8
0
10
1222.3860135430114
20
1256.3356708896654
0
VERTEX
8
0
10
1227.8308691595892
20
1248.1278680021524
0
VERTEX
8
0
10
1232.831170638413
20
1239.6419110115403
0
VERTEX
8
0
10
1237.3727440816756
20
1230.9018542848883
0
VERTEX
8
0
10
1241.4427159060265
20
1221.9324724625644
0
VERTEX
8
0
10
1245.0295493341412
20
1212.7591902318356
0
VERTEX
8
0
10
1248.123077096971
20
1203.4080102578298
0
VERTEX
8
0
10
1250.7145302539714
20
1193.9054394761563
0
VERTEX
8
0
10
1252.7965630496165
20
1184.278413956116
0
VERTEX
8
0
10
1254.3632737357414
20
1174.5542225474885
0
VERTEX
8
0
10
1255.4102213006888
20
1164.7604295273204
0
VERTEX
8
0
10
1255.9344380578386
20
1154.9247964659883
0
VERTEX
8
0
10
1255.9344380578386
20
1145.0752035340117
0
VERTEX
8
0
10
1255.4102213006888
20
1135.2395704726796
0
VERTEX
8
0
10
1254.3632737357414
20
1125.4457774525115
0
VERTEX
8
0
10
1252.7965630496165
20
1115.721586043884
0
VERTEX
8
0
10
1250.7145302539714
20
1106.0945605238437
0
VERTEX
8
0
10
1248.123077096971
20
1096.5919897421702
0
VERTEX
8
0
10
1245.0295493341412
20
1087.2408097681644
0
VERTEX
8
0
10
1241.4427159060265
20
1078.0675275374356
0
VERTEX
8
0
10
1237.3727440816756
20
1069.0981457151117
0
VERTEX
8
0
10
1232.831170638413
20
1060.3580889884597
0
VERTEX
8
0
10
1227.8308691595892
20
1051.8721319978476
0
VERTEX
8
0
10
1222.3860135430114
20
1043.6643291103346
0
VERTEX
8
0
10
1216.5120378234888
20
1035.7579462349545
0
VERTEX
8
0
10
1210.2255924233857
20
1028.175394872968
0
VERTEX
8
0
10
1203.5444969551884
20
1020.9381685900278
0
VERTEX
8
0
10
1196.4876897098789
20
1014.0667820903325
0
VERTEX
8
0
10
1189.0751739742916
20
1007.5807130654673
0
VERTEX
8
0
10
1181.3279613296227
20
1001.4983469827717
0
VERTEX
8
0
10
1173.2680120918208
20
995.8369249697347
0
VERTEX
8
0
10
1164.9181730626854
20
990.6124949421459
0
VERTEX
8
0
10
1156.3021127681252
20
985.8398661145343
0
VERTEX
8
0
10
1147.4442543671498
20
981.532567021841
0
VERTEX
8
0
10
1138.3697064217722
20
977.7028071713174
0
VERTEX
8
0
10
1129.1041917240605
20
974.3614424333495
0
VERTEX
8
0
10
1119.6739743820915
20
971.5179442693145
0
VERTEX
8
0
10
1110.1057853714806
20
969.1803728836946
0
VERTEX
8
0
10
1100.4267467635284
20
967.3553543765513
0
VERTEX
8
0
10
1090.6642948447627
20
966.0480619611246
0
VERTEX
8
0
10
1080.846102345803
20
965.262201299799
0
VERTEX
8
0
10
1071.0
20
965.0
0
VERTEX
8
0
10
1071.0
20
950.0
0
SEQEND
0
SOLID
8
0
10
1071.0
20
1350.0
11
1021.0
21
1350.0
12
1071.0
22
1335.0
13
1021.0
23
1314.0
0
SOLID
8
0
10
1071.0
20
1350.0
11
1021.0
21
1350.0
12
1071.0
22
1365.0
13
1021.0
23
1386.0
0
SOLID
8
0
10
1021.0
20
1386.0
11
950.0
21
1386.0
12
1021.0
22
1314.0
13
950.0
23
1314.0
0
SOLID
8
0
10
950.0
20
1350.0
11
900.0
21
1350.0
12
950.0
22
1314.0
13
900.0
23
1335.0
0
SOLID
8
0
10
950.0
20
1350.0
11
900.0
21
1350.0
12
950.0
22
1386.0
13
900.0
23
1365.0
0
SOLID
8
0
10
900.0
20
1365.0
11
500.0
21
1365.0
12
900.0
22
1335.0
13
500.0
23
1335.0
0
POLYLINE
8
0
66
1
10
0.0
20
0.0
30
0.0
0
VERTEX
8
0
10
900.0
20
1365.0
0
VERTEX
8
0
10
500.0
20
1365.0
0
VERTEX
8
0
10
500.0
20
1335.0
0
VERTEX
8
0
10
900.0
20
1335.0
0
VERTEX
8
0
10
900.0
20
1365.0
0
SEQEND
0
SOLID
8
0
10
500.0
20
1350.0
11
250.0
21
1350.0
12
500.0
22
1335.0
13
249.99999999999997
23
1200.0
0
SOLID
8
0
10
500.0
20
1350.0
11
250.0
21
1350.0
12
500.0
22
1365.0
13
250.00000000000003
23
1500.0
0
SOLID
8
0
10
250.00000000000003
20
1500.0
11
75.00000000000001
21
1500.0
12
249.99999999999997
22
1200.0
13
74.99999999999999
23
1200.0
0
POLYLINE
8
0
66
1
10
0.0
20
0.0
30
0.0
0
VERTEX
8
0
10
250.00000000000003
20
1500.0
0
VERTEX
8
0
10
75.00000000000001
20
1500.0
0
VERTEX
8
0
10
74.99999999999999
20
1200.0
0
VERTEX
8
0
10
249.99999999999997
20
1200.0
0
VERTEX
8
0
10
250.00000000000003
20
1500.0
0
SEQEND
0
SOLID
8
0
10
75.00000000000001
20
1500.0
11
1.8369701987210297e-14
21
1500.0
12
74.99999999999999
22
1200.0
13
-1.8369701987210297e-14
23
1200.0
0
POLYLINE
8
0
66
1
10
0.0
20
0.0
30
0.0
0
VERTEX
8
0
10
75.00000000000001
20
1500.0
0
VERTEX
8
0
10
1.8369701987210297e-14
20
1500.0
0
VERTEX
8
0
10
-1.8369701987210297e-14
20
1200.0
0
VERTEX
8
0
10
74.99999999999999
20
1200.0
0
VERTEX
8
0
10
75.00000000000001
20
1500.0
0
SEQEND
0
POLYLINE
8
gap
66
1
10
0.0
20
0.0
30
0.0
0
VERTEX
8
gap
10
40.0
20
1800.0
0
VERTEX
8
gap
10
80.0
20
1800.0
0
VERTEX
8
gap
10
80.0
20
1940.0
0
VERTEX
8
gap
10
120.0
20
1940.0
0
VERTEX
8
gap
10
120.0
20
1960.0
0
VERTEX
8
gap
10
0.0
20
1960.0
0
VERTEX
8
gap
10
0.0
20
1940.0
0
VERTEX
8
gap
10
40.0
20
1940.0
0
VERTEX
8
gap
10
40.0
20
1800.0
0
VERTEX
8
gap
10
40.0
20
1800.0
0
SEQEND
0
POLYLINE
8
gap
66
1
10
0.0
20
0.0
30
0.0
0
VERTEX
8
gap
10
160.0
20
1800.0
0
VERTEX
8
gap
10
160.0
20
1960.0
0
VERTEX
8
gap
10
200.0
20
1960.0
0
VERTEX
8
gap
10
200.0
20
1820.0
0
VERTEX
8
gap
10
280.0
20
1820.0
0
VERTEX
8
gap
10
280.0
20
1800.0
0
VERTEX
8
gap
10
160.0
20
1800.0
0
VERTEX
8
gap
10
160.0
20
1800.0
0
SEQEND
0
POLYLINE
8
gap
66
1
10
0.0
20
0.0
30
0.0
0
VERTEX
8
gap
10
0.0
20
0.0
0
VERTEX
8
gap
10
0.0
20
160.0
0
VERTEX
8
gap
10
120.0
20
160.0
0
VERTEX
8
gap
10
120.0
20
0.0
0
VERTEX
8
gap
10
80.0
20
0.0
0
VERTEX
8
gap
10
80.0
20
140.0
0
VERTEX
8
gap
10
40.0
20
140.0
0
VERTEX
8
gap
10
40.0
20
0.0
0
VERTEX
8
gap
10
0.0
20
0.0
0
SEQEND
0
POLYLINE
8
gap
66
1
10
0.0
20
0.0
30
0.0
0
VERTEX
8
gap
10
40.0
20
80.0
0
VERTEX
8
gap
10
40.0
20
100.0
0
VERTEX
8
gap
10
80.0
20
100.0
0
VERTEX
8
gap
10
80.0
20
80.0
0
VERTEX
8
gap
10
40.0
20
80.0
0
SEQEND
0
ENDBLK
0
BLOCK
8
pin
2
APIN
70
0
10
0
20
0
30
0
3
APIN
0
SOLID
8
0
10
75.0
20
875.0
11
250.0
21
875.0
12
75.0
22
1025.0
13
250.0
23
1025.0
0
POLYLINE
8
0
66
1
10
0.0
20
0.0
30
0.0
0
VERTEX
8
0
10
75.0
20
875.0
0
VERTEX
8
0
10
250.0
20
875.0
0
VERTEX
8
0
10
250.0
20
1025.0
0
VERTEX
8
0
10
75.0
20
1025.0
0
VERTEX
8
0
10
75.0
20
875.0
0
SEQEND
0
SOLID
8
0
10
250.0
20
950.0
11
500.0
21
950.0
12
250.0
22
1025.0
13
500.0
23
955.0
0
SOLID
8
0
10
250.0
20
950.0
11
500.0
21
950.0
12
250.0
22
875.0
13
500.0
23
945.0
0
SOLID
8
0
10
500.0
20
945.0
11
900.0
21
945.0
12
500.0
22
955.0
13
900.0
23
955.0
0
POLYLINE
8
0
66
1
10
0.0
20
0.0
30
0.0
0
VERTEX
8
0
10
500.0
20
945.0
0
VERTEX
8
0
10
900.0
20
945.0
0
VERTEX
8
0
10
900.0
20
955.0
0
VERTEX
8
0
10
500.0
20
955.0
0
VERTEX
8
0
10
500.0
20
945.0
0
SEQEND
0
SOLID
8
0
10
900.0
20
950.0
11
950.0
21
950.0
12
900.0
22
955.0
13
950.0
23
962.0
0
SOLID
8
0
10
900.0
20
950.0
11
950.0
21
950.0
12
900.0
22
945.0
13
950.0
23
938.0
0
SOLID
8
0
10
954.0
20
938.0
11
954.0
21
941.0
12
1021.0
22
938.0
13
1021.0
23
941.0
0
SOLID
8
0
10
950.0
20
945.0
11
950.0
21
948.0
12
1017.0
22
945.0
13
1017.0
23
948.0
0
SOLID
8
0
10
954.0
20
952.0
11
954.0
21
955.0
12
1021.0
22
952.0
13
1021.0
23
955.0
0
SOLID
8
0
10
950.0
20
959.0
11
950.0
21
962.0
12
1017.0
22
959.0
13
1017.0
23
962.0
0
SOLID
8
0
10
1021.0
20
950.0
11
1071.0
21
950.0
12
1021.0
22
962.0
13
1071.0
23
955.0
0
SOLID
8
0
10
1021.0
20
950.0
11
1071.0
21
950.0
12
1021.0
22
938.0
13
1071.0
23
945.0
0
SOLID
8
0
10
1071.0
20
955.0
11
1071.0
21
950.0
12
1075.0837718772545
22
955.0427667224051
13
1075.1884839766715
23
950.0438633050309
0
SOLID
8
0
10
1075.0837718772545
20
955.0427667224051
11
1075.1884839766715
21
950.0438633050309
12
1079.165752477194
22
955.1710481307226
13
1079.3751307458401
23
950.1754339802283
0
SOLID
8
0
10
1079.165752477194
20
955.1710481307226
11
1079.37513074584
21
950.1754339802283
12
1083.244151308216
22
955.3847879564871
13
1083.5581039058627
23
950.3946543143456
0
SOLID
8
0
10
1083.244151308216
20
955.3847879564871
11
1083.5581039058627
21
950.3946543143456
12
1087.3171794498016
22
955.6838924463466
13
1087.7355686664632
23
950.7014281500992
0
SOLID
8
0
10
1087.3171794498014
20
955.6838924463466
11
1087.735568666463
21
950.7014281500991
12
1091.3830503371923
22
956.0682304031867
13
1091.9056926535309
23
951.0956209263454
0
SOLID
8
0
10
1091.3830503371923
20
956.0682304031867
11
1091.9056926535307
21
951.0956209263453
12
1095.4399805450394
22
956.5376332436769
13
1096.066646712861
23
951.5770597371045
0
SOLID
8
0
10
1095.4399805450394
20
956.5376332436769
11
1096.0666467128608
21
951.5770597371045
12
1099.4861905696703
22
957.0918950722172
13
1100.2166057124825
23
952.1455334074024
0
SOLID
8
0
10
1099.4861905696703
20
957.0918950722173
11
1100.2166057124823
21
952.1455334074024
12
1103.5199056096399
22
957.7307727712514
13
1104.3537493432204
23
952.800792585899
0
SOLID
8
0
10
1103.5199056096399
20
957.7307727712515
11
1104.3537493432204
21
952.800792585899
12
1107.5393563442162
22
958.4539861079057
13
1108.476262917145
23
953.5425498542623
0
SOLID
8
0
10
1107.5393563442162
20
958.4539861079057
11
1108.4762629171448
21
953.5425498542622
12
1111.542779709463
22
959.2612178569079
13
1112.5823381635519
23
954.3704798532387
0
SOLID
8
0
10
1111.542779709463
20
959.2612178569079
11
1112.5823381635519
21
954.3704798532389
12
1115.5284196715777
22
960.1521139397337
13
1116.6701740221313
23
955.284219425368
0
SOLID
8
0
10
1115.528419671578
20
960.1521139397337
11
1116.670174022131
21
955.284219425368
12
1119.4945279971466
22
961.126283579917
13
1120.737977432971
23
956.2833677742736
0
SOLID
8
0
10
1119.4945279971466
20
961.126283579917
11
1120.7379774329709
21
956.2833677742738
12
1123.4393650199768
22
962.1832994744565
13
1124.783964123053
23
957.3674866404683
0
SOLID
8
0
10
1123.4393650199768
20
962.1832994744566
11
1124.7839641230532
21
957.3674866404683
12
1127.361200404172
22
963.3226979812468
13
1128.8063593888944
23
958.5361004935866
0
SOLID
8
0
10
1127.361200404172
20
963.3226979812468
11
1128.8063593888944
21
958.5361004935866
12
1131.2583139031146
22
964.5439793224449
13
1132.8033988749896
23
959.7886967409693
0
SOLID
8
0
10
1131.2583139031146
20
964.543979322445
11
1132.8033988749894
21
959.7886967409693
12
1135.1289961140237
22
965.8466078036911
13
1136.7733293477168
23
961.1247259525038
0
SOLID
8
0
10
1135.1289961140237
20
965.8466078036912
11
1136.7733293477168
21
961.1247259525038
12
1138.971549227754
22
967.230012049081
13
1140.7144094643631
23
962.5436021016218
0
SOLID
8
0
10
1138.971549227754
20
967.2300120490811
11
1140.7144094643631
21
962.5436021016217
12
1142.784287773512
22
968.6935852517909
13
1144.6249105369357
23
964.0447028223497
0
SOLID
8
0
10
1142.7842877735122
20
968.693585251791
11
1144.6249105369357
21
964.0447028223497
12
1146.56553935816
22
970.2366854402424
13
1148.5031172904207
23
965.6273696822999
0
SOLID
8
0
10
1146.56553935816
20
970.2366854402424
11
1148.5031172904205
21
965.6273696822999
12
1150.313645399781
22
971.8586357596928
13
1152.3473286151602
23
967.29090847148
0
SOLID
8
0
10
1150.313645399781
20
971.8586357596928
11
1152.34732861516
21
967.2909084714798
12
1154.0269618551893
22
973.5587247691262
13
1156.1558583130145
23
969.034589506796
0
SOLID
8
0
10
1154.0269618551893
20
973.5587247691262
11
1156.1558583130145
21
969.0345895067961
12
1157.703859941061
22
975.3362067533144
13
1159.9270358369856
23
970.8576479521175
0
SOLID
8
0
10
1157.703859941061
20
975.3362067533145
11
1159.9270358369854
21
970.8576479521174
12
1161.3427268483729
22
977.1903020499132
13
1163.6592070239726
23
972.759284153757
0
SOLID
8
0
10
1161.342726848373
20
977.1903020499132
11
1163.6592070239724
21
972.7592841537571
12
1164.9419664498344
22
979.1201973914465
13
1167.350734820343
23
974.7386639912272
0
SOLID
8
0
10
1164.9419664498346
20
979.1201973914466
11
1167.350734820343
21
974.7386639912272
12
1168.4999999999998
22
981.1250462620343
13
1171.0
23
976.7949192431123
0
SOLID
8
0
10
1168.5
20
981.1250462620344
11
1171.0
21
976.7949192431122
12
1172.0152668277603
22
983.2039692687011
13
1174.6054018746263
23
978.9271479678986
0
SOLID
8
0
10
1172.0152668277603
20
983.2039692687013
11
1174.605401874626
21
978.9271479678987
12
1175.4862250209044
22
985.356054527107
13
1178.1653589957996
23
981.134414899597
0
SOLID
8
0
10
1175.4862250209044
20
985.3560545271071
11
1178.1653589957994
21
981.134414899597
12
1178.9113521024522
22
987.5803580615305
13
1181.678309848669
23
983.41575185798
0
SOLID
8
0
10
1178.9113521024522
20
987.5803580615307
11
1181.6783098486687
21
983.4157518579801
12
1182.2891456984642
22
989.8759042189276
13
1185.1427135368865
23
985.7701581732592
0
SOLID
8
0
10
1182.2891456984642
20
989.8759042189276
11
1185.1427135368863
21
985.7701581732592
12
1185.6181241970323
22
992.2416860968851
13
1188.5570504584946
23
988.1966011250106
0
SOLID
8
0
10
1185.6181241970323
20
992.2416860968852
11
1188.5570504584946
21
988.1966011250105
12
1188.8968273981632
22
994.6766659852816
13
1191.9198229724752
23
990.6940163951608
0
SOLID
8
0
10
1188.8968273981632
20
994.6766659852817
11
1191.919822972475
21
990.6940163951607
12
1192.1238171542705
22
997.1797758214611
13
1195.229556055662
23
993.261308534832
0
SOLID
8
0
10
1192.1238171542705
20
997.1797758214612
11
1195.229556055662
21
993.2613085348321
12
1195.2976780009944
22
999.749917658721
13
1198.484797949738
23
995.8973514448421
0
SOLID
8
0
10
1195.2976780009944
20
999.7499176587212
11
1198.4847979497379
21
995.8973514448421
12
1198.4170177780704
22
1002.3859641479075
13
1201.6841207980212
23
998.6009888696487
0
SOLID
8
0
10
1198.4170177780707
20
1002.3859641479075
11
1201.684120798021
21
998.6009888696487
12
1201.4804682399774
22
1005.0867590319081
13
1204.8261212717719
23
1001.3710349045213
0
SOLID
8
0
10
1201.4804682399774
20
1005.0867590319081
11
1204.8261212717716
21
1001.3710349045211
12
1204.4866856560943
22
1007.8511176528245
13
1207.9094211857378
23
1004.2062745157177
0
SOLID
8
0
10
1204.4866856560943
20
1007.8511176528248
11
1207.9094211857378
21
1004.2062745157177
12
1207.4343514001064
22
1010.6778274716032
13
1210.9326681026732
23
1007.1054640734394
0
SOLID
8
0
10
1207.4343514001062
20
1010.6778274716033
11
1210.932668102673
21
1007.1054640734393
12
1210.3221725283965
22
1013.5656485998936
13
1213.8945359265608
23
1010.067331897327
0
SOLID
8
0
10
1210.3221725283968
20
1013.5656485998937
11
1213.8945359265608
21
1010.067331897327
12
1213.1488823471752
22
1016.5133143439057
13
1216.7937254842825
23
1013.0905788142624
0
SOLID
8
0
10
1213.1488823471752
20
1016.5133143439057
11
1216.7937254842823
21
1013.0905788142622
12
1215.9132409680917
22
1019.5195317600226
13
1219.6289650954789
23
1016.1738787282284
0
SOLID
8
0
10
1215.913240968092
20
1019.5195317600226
11
1219.6289650954789
21
1016.1738787282284
12
1218.6140358520925
22
1022.5829822219293
13
1222.3990111303515
23
1019.315879201979
0
SOLID
8
0
10
1218.6140358520925
20
1022.5829822219295
11
1222.3990111303513
21
1019.3158792019789
12
1221.2500823412788
22
1025.7023219990053
13
1225.1026485551579
23
1022.5152020502621
0
SOLID
8
0
10
1221.2500823412788
20
1025.7023219990056
11
1225.1026485551579
21
1022.515202050262
12
1223.8202241785389
22
1028.8761828457293
13
1227.7386914651681
23
1025.770443944338
0
SOLID
8
0
10
1223.8202241785389
20
1028.8761828457295
11
1227.738691465168
21
1025.770443944338
12
1226.3233340147183
22
1032.1031726018368
13
1230.3059836048392
23
1029.0801770275252
0
SOLID
8
0
10
1226.3233340147183
20
1032.1031726018368
11
1230.3059836048392
21
1029.080177027525
12
1228.7583139031149
22
1035.3818758029677
13
1232.8033988749894
23
1032.4429495415054
0
SOLID
8
0
10
1228.7583139031149
20
1035.3818758029677
11
1232.8033988749894
21
1032.4429495415054
12
1231.1240957810724
22
1038.7108543015356
13
1235.229841826741
23
1035.8572864631137
0
SOLID
8
0
10
1231.1240957810724
20
1038.7108543015358
11
1235.2298418267408
21
1035.8572864631137
12
1233.4196419384693
22
1042.0886478975478
13
1237.58424814202
23
1039.321690151331
0
SOLID
8
0
10
1233.4196419384693
20
1042.0886478975478
11
1237.58424814202
21
1039.3216901513313
12
1235.643945472893
22
1045.5137749790954
13
1239.865585100403
23
1042.8346410042006
0
SOLID
8
0
10
1235.643945472893
20
1045.5137749790956
11
1239.865585100403
21
1042.8346410042006
12
1237.7960307312987
22
1048.9847331722397
13
1242.0728520321013
23
1046.3945981253742
0
SOLID
8
0
10
1237.7960307312987
20
1048.9847331722397
11
1242.0728520321013
21
1046.394598125374
12
1239.8749537379654
22
1052.5
13
1244.2050807568878
23
1050.0
0
SOLID
8
0
10
1239.8749537379656
20
1052.5
11
1244.2050807568878
21
1050.0
12
1241.8798026085533
22
1056.0580335501654
13
1246.261336008773
23
1053.649265179657
0
SOLID
8
0
10
1241.8798026085533
20
1056.0580335501654
11
1246.2613360087728
21
1053.649265179657
12
1243.8096979500867
22
1059.6572731516267
13
1248.2407158462431
23
1057.3407929760278
0
SOLID
8
0
10
1243.809697950087
20
1059.657273151627
11
1248.240715846243
21
1057.3407929760276
12
1245.6637932466854
22
1063.296140058939
13
1250.1423520478827
23
1061.0729641630144
0
SOLID
8
0
10
1245.6637932466856
20
1063.296140058939
11
1250.1423520478825
21
1061.0729641630146
12
1247.441275230874
22
1066.9730381448107
13
1251.965410493204
23
1064.8441416869855
0
SOLID
8
0
10
1247.4412752308738
20
1066.9730381448107
11
1251.965410493204
21
1064.8441416869855
12
1249.1413642403072
22
1070.686354600219
13
1253.7090915285203
23
1068.65267138484
0
SOLID
8
0
10
1249.1413642403072
20
1070.686354600219
11
1253.7090915285203
21
1068.65267138484
12
1250.7633145597576
22
1074.43446064184
13
1255.3726303177002
23
1072.4968827095795
0
SOLID
8
0
10
1250.7633145597576
20
1074.43446064184
11
1255.3726303177
21
1072.4968827095795
12
1252.3064147482091
22
1078.2157122264878
13
1256.9552971776504
23
1076.3750894630643
0
SOLID
8
0
10
1252.3064147482091
20
1078.2157122264878
11
1256.9552971776502
21
1076.3750894630643
12
1253.769987950919
22
1082.0284507722458
13
1258.4563978983783
23
1080.285590535637
0
SOLID
8
0
10
1253.769987950919
20
1082.028450772246
11
1258.4563978983783
21
1080.2855905356369
12
1255.1533921963087
22
1085.871003885976
13
1259.875274047496
23
1084.2266706522832
0
SOLID
8
0
10
1255.1533921963087
20
1085.8710038859763
11
1259.875274047496
21
1084.2266706522832
12
1256.456020677555
22
1089.7416860968854
13
1261.211303259031
23
1088.1966011250106
0
SOLID
8
0
10
1256.456020677555
20
1089.7416860968851
11
1261.2113032590307
21
1088.1966011250106
12
1257.6773020187532
22
1093.638799595828
13
1262.4638995064136
23
1092.1936406111058
0
SOLID
8
0
10
1257.6773020187532
20
1093.638799595828
11
1262.4638995064133
21
1092.1936406111056
12
1258.8167005255432
22
1097.560634980023
13
1263.6325133595317
23
1096.2160358769468
0
SOLID
8
0
10
1258.8167005255434
20
1097.5606349800232
11
1263.6325133595317
21
1096.2160358769468
12
1259.8737164200832
22
1101.5054720028534
13
1264.7166322257262
23
1100.2620225670291
0
SOLID
8
0
10
1259.8737164200832
20
1101.5054720028534
11
1264.7166322257262
21
1100.262022567029
12
1260.847886060266
22
1105.471580328422
13
1265.7157805746322
23
1104.3298259778687
0
SOLID
8
0
10
1260.8478860602663
20
1105.471580328422
11
1265.715780574632
21
1104.3298259778687
12
1261.738782143092
22
1109.457220290537
13
1266.629520146761
23
1108.4176618364481
0
SOLID
8
0
10
1261.738782143092
20
1109.457220290537
11
1266.629520146761
21
1108.4176618364481
12
1262.5460138920944
22
1113.4606436557835
13
1267.4574501457378
23
1112.5237370828552
0
SOLID
8
0
10
1262.5460138920944
20
1113.4606436557838
11
1267.4574501457378
21
1112.5237370828552
12
1263.2692272287486
22
1117.4800943903601
13
1268.199207414101
23
1116.6462506567796
0
SOLID
8
0
10
1263.2692272287484
20
1117.4800943903601
11
1268.199207414101
21
1116.6462506567796
12
1263.908104927783
22
1121.5138094303297
13
1268.8544665925979
23
1120.7833942875177
0
SOLID
8
0
10
1263.9081049277827
20
1121.5138094303297
11
1268.8544665925976
21
1120.7833942875177
12
1264.4623667563233
22
1125.5600194549606
13
1269.4229402628955
23
1124.9333532871392
0
SOLID
8
0
10
1264.4623667563233
20
1125.5600194549606
11
1269.4229402628955
21
1124.9333532871392
12
1264.9317695968134
22
1129.6169496628077
13
1269.9043790736548
23
1129.0943073464693
0
SOLID
8
0
10
1264.9317695968134
20
1129.6169496628077
11
1269.9043790736546
21
1129.0943073464693
12
1265.3161075536534
22
1133.6828205501984
13
1270.298571849901
23
1133.264431333537
0
SOLID
8
0
10
1265.3161075536534
20
1133.6828205501986
11
1270.2985718499008
21
1133.264431333537
12
1265.615212043513
22
1137.7558486917837
13
1270.6053456856544
23
1137.4418960941375
0
SOLID
8
0
10
1265.6152120435129
20
1137.755848691784
11
1270.6053456856544
21
1137.4418960941373
12
1265.8289518692775
22
1141.834247522806
13
1270.8245660197717
23
1141.6248692541603
0
SOLID
8
0
10
1265.8289518692773
20
1141.834247522806
11
1270.8245660197717
21
1141.62486925416
12
1265.957233277595
22
1145.9162281227452
13
1270.9561366949692
23
1145.8115160233285
0
SOLID
8
0
10
1265.957233277595
20
1145.9162281227455
11
1270.956136694969
21
1145.8115160233285
12
1266.0
22
1150.0
13
1271.0
23
1150.0
0
SOLID
8
0
10
1266.0
20
1150.0
11
1271.0
21
1150.0
12
1265.957233277595
22
1154.0837718772545
13
1270.9561366949692
23
1154.1884839766715
0
SOLID
8
0
10
1265.957233277595
20
1154.0837718772545
11
1270.956136694969
21
1154.1884839766715
12
1265.8289518692773
22
1158.165752477194
13
1270.8245660197717
23
1158.3751307458401
0
SOLID
8
0
10
1265.8289518692773
20
1158.165752477194
11
1270.8245660197717
21
1158.37513074584
12
1265.6152120435129
22
1162.244151308216
13
1270.6053456856544
23
1162.5581039058627
0
SOLID
8
0
10
1265.6152120435129
20
1162.244151308216
11
1270.6053456856544
21
1162.5581039058627
12
1265.3161075536534
22
1166.3171794498014
13
1270.2985718499008
23
1166.7355686664632
0
SOLID
8
0
10
1265.3161075536534
20
1166.3171794498014
11
1270.2985718499008
21
1166.735568666463
12
1264.9317695968134
22
1170.3830503371923
13
1269.9043790736546
23
1170.9056926535309
0
SOLID
8
0
10
1264.9317695968134
20
1170.3830503371923
11
1269.9043790736546
21
1170.9056926535307
12
1264.4623667563233
22
1174.4399805450394
13
1269.4229402628955
23
1175.066646712861
0
SOLID
8
0
10
1264.4623667563233
20
1174.4399805450394
11
1269.4229402628955
21
1175.0666467128608
12
1263.908104927783
22
1178.4861905696703
13
1268.8544665925976
23
1179.2166057124825
0
SOLID
8
0
10
1263.9081049277827
20
1178.4861905696703
11
1268.8544665925976
21
1179.2166057124823
12
1263.2692272287486
22
1182.5199056096399
13
1268.199207414101
23
1183.3537493432204
0
SOLID
8
0
10
1263.2692272287484
20
1182.5199056096399
11
1268.199207414101
21
1183.3537493432204
12
1262.5460138920944
22
1186.5393563442162
13
1267.4574501457378
23
1187.476262917145
0
SOLID
8
0
10
1262.5460138920944
20
1186.5393563442162
11
1267.4574501457378
21
1187.4762629171448
12
1261.738782143092
22
1190.542779709463
13
1266.6295201467613
23
1191.5823381635519
0
SOLID
8
0
10
1261.738782143092
20
1190.542779709463
11
1266.629520146761
21
1191.5823381635519
12
1260.8478860602663
22
1194.5284196715777
13
1265.715780574632
23
1195.6701740221313
0
SOLID
8
0
10
1260.8478860602663
20
1194.528419671578
11
1265.715780574632
21
1195.670174022131
12
1259.8737164200832
22
1198.4945279971466
13
1264.7166322257262
23
1199.737977432971
0
SOLID
8
0
10
1259.8737164200832
20
1198.4945279971466
11
1264.7166322257262
21
1199.7379774329709
12
1258.8167005255436
22
1202.4393650199768
13
1263.6325133595317
23
1203.783964123053
0
SOLID
8
0
10
1258.8167005255434
20
1202.4393650199768
11
1263.6325133595317
21
1203.783964123053
12
1257.6773020187532
22
1206.361200404172
13
1262.4638995064133
23
1207.8063593888944
0
SOLID
8
0
10
1257.6773020187532
20
1206.361200404172
11
1262.4638995064136
21
1207.8063593888942
12
1256.456020677555
22
1210.2583139031146
13
1261.2113032590307
23
1211.8033988749894
0
SOLID
8
0
10
1256.456020677555
20
1210.2583139031146
11
1261.2113032590307
21
1211.8033988749894
12
1255.153392196309
22
1214.1289961140237
13
1259.8752740474963
23
1215.7733293477168
0
SOLID
8
0
10
1255.153392196309
20
1214.1289961140237
11
1259.8752740474963
21
1215.7733293477168
12
1253.7699879509191
22
1217.971549227754
13
1258.4563978983783
23
1219.7144094643631
0
SOLID
8
0
10
1253.769987950919
20
1217.971549227754
11
1258.4563978983783
21
1219.714409464363
12
1252.3064147482091
22
1221.784287773512
13
1256.9552971776504
23
1223.6249105369357
0
SOLID
8
0
10
1252.3064147482091
20
1221.7842877735122
11
1256.9552971776502
21
1223.6249105369357
12
1250.7633145597576
22
1225.5655393581599
13
1255.3726303177
23
1227.5031172904207
0
SOLID
8
0
10
1250.7633145597576
20
1225.56553935816
11
1255.3726303177
21
1227.5031172904205
12
1249.1413642403072
22
1229.313645399781
13
1253.70909152852
23
1231.3473286151602
0
SOLID
8
0
10
1249.1413642403072
20
1229.313645399781
11
1253.7090915285203
21
1231.34732861516
12
1247.4412752308738
22
1233.0269618551893
13
1251.965410493204
23
1235.1558583130145
0
SOLID
8
0
10
1247.4412752308738
20
1233.026961855189
11
1251.965410493204
21
1235.1558583130145
12
1245.6637932466856
22
1236.7038599410607
13
1250.1423520478825
23
1238.9270358369856
0
SOLID
8
0
10
1245.6637932466856
20
1236.7038599410607
11
1250.1423520478827
21
1238.9270358369854
12
1243.809697950087
22
1240.3427268483729
13
1248.2407158462431
23
1242.6592070239724
0
SOLID
8
0
10
1243.809697950087
20
1240.3427268483729
11
1248.240715846243
21
1242.6592070239724
12
1241.8798026085535
22
1243.9419664498344
13
1246.2613360087728
23
1246.350734820343
0
SOLID
8
0
10
1241.8798026085535
20
1243.9419664498344
11
1246.2613360087728
21
1246.350734820343
12
1239.8749537379658
22
1247.4999999999998
13
1244.2050807568878
23
1250.0
0
SOLID
8
0
10
1239.8749537379656
20
1247.5
11
1244.2050807568878
21
1250.0
12
1237.796030731299
22
1251.0152668277603
13
1242.0728520321015
23
1253.6054018746263
0
SOLID
8
0
10
1237.7960307312987
20
1251.0152668277603
11
1242.0728520321013
21
1253.6054018746258
12
1235.6439454728932
22
1254.4862250209044
13
1239.865585100403
23
1257.1653589957994
0
SOLID
8
0
10
1235.643945472893
20
1254.4862250209044
11
1239.865585100403
21
1257.1653589957994
12
1233.4196419384693
22
1257.9113521024522
13
1237.58424814202
23
1260.678309848669
0
SOLID
8
0
10
1233.4196419384693
20
1257.9113521024522
11
1237.58424814202
21
1260.6783098486687
12
1231.1240957810724
22
1261.289145698464
13
1235.2298418267408
23
1264.1427135368865
0
SOLID
8
0
10
1231.1240957810724
20
1261.2891456984642
11
1235.2298418267408
21
1264.1427135368863
12
1228.7583139031149
22
1264.6181241970323
13
1232.8033988749894
23
1267.5570504584946
0
SOLID
8
0
10
1228.7583139031149
20
1264.6181241970323
11
1232.8033988749894
21
1267.5570504584946
12
1226.3233340147185
22
1267.896827398163
13
1230.3059836048392
23
1270.9198229724752
0
SOLID
8
0
10
1226.3233340147183
20
1267.8968273981632
11
1230.3059836048392
21
1270.919822972475
12
1223.8202241785389
22
1271.1238171542707
13
1227.738691465168
23
1274.229556055662
0
SOLID
8
0
10
1223.8202241785389
20
1271.1238171542705
11
1227.738691465168
21
1274.229556055662
12
1221.250082341279
22
1274.2976780009944
13
1225.1026485551579
23
1277.484797949738
0
SOLID
8
0
10
1221.250082341279
20
1274.2976780009944
11
1225.1026485551579
21
1277.4847979497379
12
1218.6140358520927
22
1277.4170177780704
13
1222.3990111303513
23
1280.6841207980212
0
SOLID
8
0
10
1218.6140358520925
20
1277.4170177780704
11
1222.3990111303513
21
1280.684120798021
12
1215.913240968092
22
1280.4804682399772
13
1219.6289650954789
23
1283.8261212717716
0
SOLID
8
0
10
1215.913240968092
20
1280.4804682399774
11
1219.6289650954789
21
1283.8261212717716
12
1213.1488823471755
22
1283.4866856560943
13
1216.7937254842823
23
1286.9094211857378
0
SOLID
8
0
10
1213.1488823471752
20
1283.4866856560943
11
1216.7937254842823
21
1286.9094211857378
12
1210.322172528397
22
1286.4343514001062
13
1213.8945359265608
23
1289.9326681026732
0
SOLID
8
0
10
1210.3221725283965
20
1286.4343514001062
11
1213.8945359265606
21
1289.932668102673
12
1207.4343514001064
22
1289.3221725283965
13
1210.932668102673
23
1292.8945359265608
0
SOLID
8
0
10
1207.4343514001064
20
1289.3221725283965
11
1210.9326681026732
21
1292.8945359265606
12
1204.4866856560943
22
1292.1488823471752
13
1207.9094211857378
23
1295.7937254842825
0
SOLID
8
0
10
1204.4866856560943
20
1292.1488823471752
11
1207.9094211857378
21
1295.7937254842823
12
1201.4804682399774
22
1294.9132409680917
13
1204.8261212717716
23
1298.6289650954789
0
SOLID
8
0
10
1201.4804682399774
20
1294.913240968092
11
1204.8261212717716
21
1298.6289650954789
12
1198.4170177780707
22
1297.6140358520925
13
1201.684120798021
23
1301.3990111303515
0
SOLID
8
0
10
1198.4170177780707
20
1297.6140358520925
11
1201.684120798021
21
1301.3990111303513
12
1195.2976780009947
22
1300.2500823412788
13
1198.4847979497379
23
1304.1026485551579
0
SOLID
8
0
10
1195.2976780009944
20
1300.2500823412788
11
1198.4847979497379
21
1304.1026485551579
12
1192.1238171542707
22
1302.8202241785389
13
1195.229556055662
23
1306.7386914651681
0
SOLID
8
0
10
1192.1238171542705
20
1302.8202241785389
11
1195.2295560556622
21
1306.738691465168
12
1188.8968273981632
22
1305.3233340147183
13
1191.9198229724748
23
1309.3059836048392
0
SOLID
8
0
10
1188.8968273981632
20
1305.3233340147183
11
1191.919822972475
21
1309.3059836048392
12
1185.6181241970323
22
1307.7583139031146
13
1188.5570504584948
23
1311.8033988749894
0
SOLID
8
0
10
1185.6181241970323
20
1307.7583139031146
11
1188.5570504584946
21
1311.8033988749894
12
1182.2891456984644
22
1310.1240957810724
13
1185.1427135368863
23
1314.229841826741
0
SOLID
8
0
10
1182.2891456984644
20
1310.1240957810721
11
1185.1427135368865
21
1314.2298418267408
12
1178.9113521024522
22
1312.4196419384693
13
1181.678309848669
23
1316.58424814202
0
SOLID
8
0
10
1178.9113521024522
20
1312.4196419384693
11
1181.6783098486687
21
1316.58424814202
12
1175.4862250209046
22
1314.643945472893
13
1178.1653589957994
23
1318.865585100403
0
SOLID
8
0
10
1175.4862250209044
20
1314.643945472893
11
1178.1653589957994
21
1318.865585100403
12
1172.0152668277603
22
1316.7960307312987
13
1174.6054018746258
23
1321.0728520321013
0
SOLID
8
0
10
1172.0152668277606
20
1316.7960307312987
11
1174.605401874626
21
1321.0728520321013
12
1168.5
22
1318.8749537379654
13
1171.0
23
1323.2050807568878
0
SOLID
8
0
10
1168.5
20
1318.8749537379656
11
1171.0
21
1323.2050807568878
12
1164.9419664498344
22
1320.8798026085535
13
1167.350734820343
23
1325.2613360087728
0
SOLID
8
0
10
1164.9419664498346
20
1320.8798026085533
11
1167.3507348203432
21
1325.2613360087728
12
1161.3427268483733
22
1322.8096979500867
13
1163.6592070239724
23
1327.240715846243
0
SOLID
8
0
10
1161.342726848373
20
1322.809697950087
11
1163.6592070239724
21
1327.240715846243
12
1157.703859941061
22
1324.6637932466854
13
1159.9270358369854
23
1329.1423520478827
0
SOLID
8
0
10
1157.703859941061
20
1324.6637932466856
11
1159.9270358369856
21
1329.1423520478825
12
1154.0269618551893
22
1326.441275230874
13
1156.1558583130145
23
1330.9654104932038
0
SOLID
8
0
10
1154.0269618551893
20
1326.4412752308738
11
1156.1558583130145
21
1330.9654104932038
12
1150.313645399781
22
1328.1413642403072
13
1152.34732861516
23
1332.7090915285203
0
SOLID
8
0
10
1150.313645399781
20
1328.1413642403072
11
1152.34732861516
21
1332.7090915285203
12
1146.56553935816
22
1329.7633145597576
13
1148.5031172904205
23
1334.3726303177002
0
SOLID
8
0
10
1146.56553935816
20
1329.7633145597576
11
1148.5031172904207
21
1334.3726303177
12
1142.7842877735122
22
1331.3064147482091
13
1144.6249105369357
23
1335.9552971776504
0
SOLID
8
0
10
1142.7842877735122
20
1331.3064147482091
11
1144.6249105369357
21
1335.9552971776502
12
1138.971549227754
22
1332.769987950919
13
1140.714409464363
23
1337.4563978983783
0
SOLID
8
0
10
1138.971549227754
20
1332.769987950919
11
1140.7144094643631
21
1337.4563978983783
12
1135.128996114024
22
1334.1533921963087
13
1136.7733293477168
23
1338.875274047496
0
SOLID
8
0
10
1135.1289961140237
20
1334.1533921963087
11
1136.7733293477168
21
1338.875274047496
12
1131.2583139031149
22
1335.456020677555
13
1132.8033988749894
23
1340.211303259031
0
SOLID
8
0
10
1131.2583139031149
20
1335.456020677555
11
1132.8033988749894
21
1340.2113032590307
12
1127.361200404172
22
1336.6773020187532
13
1128.8063593888942
23
1341.4638995064136
0
SOLID
8
0
10
1127.361200404172
20
1336.6773020187532
11
1128.8063593888944
21
1341.4638995064133
12
1123.439365019977
22
1337.8167005255432
13
1124.7839641230532
23
1342.6325133595317
0
SOLID
8
0
10
1123.4393650199768
20
1337.8167005255434
11
1124.7839641230532
21
1342.6325133595317
12
1119.4945279971466
22
1338.8737164200832
13
1120.7379774329709
23
1343.7166322257262
0
SOLID
8
0
10
1119.4945279971466
20
1338.8737164200832
11
1120.7379774329709
21
1343.7166322257262
12
1115.528419671578
22
1339.847886060266
13
1116.6701740221313
23
1344.7157805746322
0
SOLID
8
0
10
1115.528419671578
20
1339.8478860602663
11
1116.6701740221313
21
1344.715780574632
12
1111.5427797094633
22
1340.738782143092
13
1112.5823381635519
23
1345.629520146761
0
SOLID
8
0
10
1111.542779709463
20
1340.738782143092
11
1112.5823381635519
21
1345.629520146761
12
1107.5393563442165
22
1341.5460138920944
13
1108.4762629171448
23
1346.4574501457378
0
SOLID
8
0
10
1107.5393563442162
20
1341.5460138920944
11
1108.4762629171448
21
1346.4574501457378
12
1103.5199056096399
22
1342.2692272287486
13
1104.3537493432204
23
1347.199207414101
0
SOLID
8
0
10
1103.5199056096399
20
1342.2692272287484
11
1104.3537493432204
21
1347.199207414101
12
1099.4861905696703
22
1342.908104927783
13
1100.2166057124823
23
1347.8544665925979
0
SOLID
8
0
10
1099.4861905696703
20
1342.9081049277827
11
1100.2166057124823
21
1347.8544665925976
12
1095.4399805450394
22
1343.4623667563233
13
1096.0666467128608
23
1348.4229402628955
0
SOLID
8
0
10
1095.4399805450394
20
1343.4623667563233
11
1096.0666467128608
21
1348.4229402628955
12
1091.3830503371923
22
1343.9317695968134
13
1091.9056926535307
23
1348.9043790736548
0
SOLID
8
0
10
1091.3830503371926
20
1343.9317695968134
11
1091.9056926535307
21
1348.9043790736546
12
1087.3171794498016
22
1344.3161075536534
13
1087.735568666463
23
1349.298571849901
0
SOLID
8
0
10
1087.3171794498016
20
1344.3161075536534
11
1087.7355686664632
21
1349.2985718499008
12
1083.2441513082163
22
1344.615212043513
13
1083.5581039058627
23
1349.6053456856544
0
SOLID
8
0
10
1083.2441513082163
20
1344.6152120435129
11
1083.5581039058627
21
1349.6053456856544
12
1079.165752477194
22
1344.8289518692775
13
1079.3751307458397
23
1349.8245660197717
0
SOLID
8
0
10
1079.165752477194
20
1344.8289518692773
11
1079.37513074584
21
1349.8245660197717
12
1075.0837718772548
22
1344.957233277595
13
1075.1884839766715
23
1349.9561366949692
0
SOLID
8
0
10
1075.0837718772548
20
1344.957233277595
11
1075.1884839766715
21
1349.956136694969
12
1071.0
22
1345.0
13
1071.0
23
1350.0
0
SOLID
8
0
10
1071.0
20
950.0
11
1071.0
21
945.0
12
1075.1884839766715
22
950.0438633050309
13
1075.2931960760882
23
945.0449598876567
0
SOLID
8
0
10
1075.1884839766715
20
950.0438633050309
11
1075.2931960760882
21
945.0449598876567
12
1079.3751307458401
22
950.1754339802283
13
1079.5845090144858
23
945.1798198297341
0
SOLID
8
0
10
1079.37513074584
20
950.1754339802283
11
1079.584509014486
21
945.179819829734
12
1083.5581039058627
22
950.3946543143456
13
1083.8720565035094
23
945.4045206722044
0
SOLID
8
0
10
1083.5581039058627
20
950.3946543143456
11
1083.8720565035092
21
945.4045206722044
12
1087.7355686664632
22
950.7014281500992
13
1088.1539578831246
23
945.7189638538515
0
SOLID
8
0
10
1087.735568666463
20
950.7014281500991
11
1088.1539578831246
21
945.7189638538516
12
1091.9056926535309
22
951.0956209263454
13
1092.428334969869
23
946.123011449504
0
SOLID
8
0
10
1091.9056926535307
20
951.0956209263453
11
1092.428334969869
21
946.123011449504
12
1096.066646712861
22
951.5770597371045
13
1096.6933128806825
23
946.6164862305321
0
SOLID
8
0
10
1096.0666467128608
20
951.5770597371045
11
1096.6933128806825
21
946.616486230532
12
1100.2166057124825
22
952.1455334074024
13
1100.9470208552943
23
947.1991717425874
0
SOLID
8
0
10
1100.2166057124823
20
952.1455334074024
11
1100.9470208552943
21
947.1991717425874
12
1104.3537493432204
22
952.800792585899
13
1105.187593076801
23
947.8708124005464
0
SOLID
8
0
10
1104.3537493432204
20
952.800792585899
11
1105.187593076801
21
947.8708124005465
12
1108.476262917145
22
953.5425498542623
13
1109.4131694900734
23
948.6311136006187
0
SOLID
8
0
10
1108.4762629171448
20
953.5425498542622
11
1109.4131694900736
21
948.6311136006188
12
1112.5823381635519
22
954.3704798532387
13
1113.6218966176407
23
949.4797418495698
0
SOLID
8
0
10
1112.5823381635519
20
954.3704798532389
11
1113.6218966176407
21
949.4797418495698
12
1116.6701740221313
22
955.284219425368
13
1117.8119283726844
23
950.416324911002
0
SOLID
8
0
10
1116.670174022131
20
955.284219425368
11
1117.8119283726844
21
950.4163249110021
12
1120.737977432971
22
956.2833677742736
13
1121.981426868795
23
951.4404519686307
0
SOLID
8
0
10
1120.7379774329709
20
956.2833677742738
11
1121.9814268687953
21
951.4404519686307
12
1124.783964123053
22
957.3674866404683
13
1126.1285632261295
23
952.55167380648
0
SOLID
8
0
10
1124.7839641230532
20
957.3674866404683
11
1126.1285632261295
21
952.55167380648
12
1128.8063593888944
22
958.5361004935866
13
1130.2515183736166
23
953.749503005926
0
SOLID
8
0
10
1128.8063593888944
20
958.5361004935866
11
1130.2515183736166
21
953.7495030059263
12
1132.8033988749896
22
959.7886967409693
13
1134.3484838468642
23
955.0334141594934
0
SOLID
8
0
10
1132.8033988749894
20
959.7886967409693
11
1134.3484838468642
21
955.0334141594935
12
1136.7733293477168
22
961.1247259525038
13
1138.4176625814096
23
956.4028441013164
0
SOLID
8
0
10
1136.7733293477168
20
961.1247259525038
11
1138.4176625814096
21
956.4028441013163
12
1140.7144094643631
22
962.5436021016218
13
1142.4572697009721
23
957.8571921541624
0
SOLID
8
0
10
1140.7144094643631
20
962.5436021016217
11
1142.4572697009721
21
957.8571921541622
12
1144.6249105369357
22
964.0447028223497
13
1146.465533300359
23
959.3958203929085
0
SOLID
8
0
10
1144.6249105369357
20
964.0447028223497
11
1146.4655333003589
21
959.3958203929085
12
1148.5031172904207
22
965.6273696822999
13
1150.440695222681
23
961.0180539243572
0
SOLID
8
0
10
1148.5031172904205
20
965.6273696822999
11
1150.4406952226811
21
961.0180539243574
12
1152.3473286151602
22
967.29090847148
13
1154.3810118305391
23
962.7231811832669
0
SOLID
8
0
10
1152.34732861516
20
967.2909084714798
11
1154.3810118305391
21
962.7231811832669
12
1156.1558583130145
22
969.034589506796
13
1158.28475477084
23
964.510454244466
0
SOLID
8
0
10
1156.1558583130145
20
969.0345895067961
11
1158.28475477084
21
964.510454244466
12
1159.9270358369856
22
970.8576479521175
13
1162.15021173291
23
966.3790891509203
0
SOLID
8
0
10
1159.9270358369854
20
970.8576479521174
11
1162.15021173291
21
966.3790891509203
12
1163.6592070239726
22
972.759284153757
13
1165.9756871995717
23
968.3282662576011
0
SOLID
8
0
10
1163.6592070239724
20
972.7592841537571
11
1165.9756871995717
21
968.328266257601
12
1167.350734820343
22
974.7386639912272
13
1169.7595031908518
23
970.357130591008
0
SOLID
8
0
10
1167.350734820343
20
974.7386639912272
11
1169.7595031908515
21
970.357130591008
12
1171.0
22
976.7949192431123
13
1173.5
23
972.46479222419
0
SOLID
8
0
10
1171.0
20
976.7949192431122
11
1173.5
21
972.4647922241901
12
1174.6054018746263
22
978.9271479678986
13
1177.1955369214918
23
974.650326667096
0
SOLID
8
0
10
1174.605401874626
20
978.9271479678987
11
1177.1955369214916
21
974.6503266670961
12
1178.1653589957996
22
981.134414899597
13
1180.8444929706943
23
976.9127752720868
0
SOLID
8
0
10
1178.1653589957994
20
981.134414899597
11
1180.8444929706943
21
976.912775272087
12
1181.678309848669
22
983.41575185798
13
1184.4452675948855
23
979.2511456544295
0
SOLID
8
0
10
1181.6783098486687
20
983.4157518579801
11
1184.4452675948855
21
979.2511456544296
12
1185.1427135368865
22
985.7701581732592
13
1187.9962813753086
23
981.6644121275907
0
SOLID
8
0
10
1185.1427135368863
20
985.7701581732592
11
1187.9962813753084
21
981.6644121275907
12
1188.5570504584946
22
988.1966011250106
13
1191.495976719957
23
984.1515161531358
0
SOLID
8
0
10
1188.5570504584946
20
988.1966011250105
11
1191.495976719957
21
984.1515161531357
12
1191.9198229724752
22
990.6940163951608
13
1194.9428185467868
23
986.7113668050397
0
SOLID
8
0
10
1191.919822972475
20
990.6940163951607
11
1194.9428185467868
21
986.7113668050397
12
1195.229556055662
22
993.261308534832
13
1198.3352949570535
23
989.3428412482028
0
SOLID
8
0
10
1195.229556055662
20
993.2613085348321
11
1198.3352949570535
21
989.3428412482028
12
1198.484797949738
22
995.8973514448421
13
1201.6719178984813
23
992.0447852309632
0
SOLID
8
0
10
1198.4847979497379
20
995.8973514448421
11
1201.6719178984813
21
992.0447852309633
12
1201.6841207980212
22
998.6009888696487
13
1204.9512238179716
23
994.8160135913898
0
SOLID
8
0
10
1201.684120798021
20
998.6009888696487
11
1204.9512238179716
21
994.81601359139
12
1204.8261212717719
22
1001.3710349045213
13
1208.171774303566
23
997.6553107771342
0
SOLID
8
0
10
1204.8261212717716
20
1001.3710349045211
11
1208.171774303566
21
997.6553107771342
12
1207.9094211857378
22
1004.2062745157177
13
1211.3321567153812
23
1000.5614313786106
0
SOLID
8
0
10
1207.9094211857378
20
1004.2062745157177
11
1211.3321567153812
21
1000.5614313786107
12
1210.9326681026732
22
1007.1054640734394
13
1214.4309848052399
23
1003.5331006752754
0
SOLID
8
0
10
1210.932668102673
20
1007.1054640734393
11
1214.4309848052399
21
1003.5331006752754
12
1213.8945359265608
22
1010.067331897327
13
1217.4668993247246
23
1006.5690151947599
0
SOLID
8
0
10
1213.8945359265608
20
1010.067331897327
11
1217.4668993247246
21
1006.5690151947601
12
1216.7937254842825
22
1013.0905788142624
13
1220.4385686213893
23
1009.6678432846188
0
SOLID
8
0
10
1216.7937254842823
20
1013.0905788142622
11
1220.4385686213893
21
1009.6678432846188
12
1219.6289650954789
22
1016.1738787282284
13
1223.3446892228658
23
1012.828225696434
0
SOLID
8
0
10
1219.6289650954789
20
1016.1738787282284
11
1223.3446892228658
21
1012.8282256964341
12
1222.3990111303515
22
1019.315879201979
13
1226.18398640861
23
1016.0487761820283
0
SOLID
8
0
10
1222.3990111303513
20
1019.3158792019789
11
1226.18398640861
21
1016.0487761820284
12
1225.1026485551579
22
1022.5152020502621
13
1228.955214769037
23
1019.3280821015187
0
SOLID
8
0
10
1225.1026485551579
20
1022.515202050262
11
1228.9552147690367
21
1019.3280821015186
12
1227.7386914651681
22
1025.770443944338
13
1231.657158751797
23
1022.6647050429463
0
SOLID
8
0
10
1227.738691465168
20
1025.770443944338
11
1231.6571587517972
21
1022.6647050429464
12
1230.3059836048392
22
1029.0801770275252
13
1234.2886331949603
23
1026.0571814532132
0
SOLID
8
0
10
1230.3059836048392
20
1029.080177027525
11
1234.2886331949603
21
1026.0571814532132
12
1232.8033988749894
22
1032.4429495415054
13
1236.8484838468642
23
1029.504023280043
0
SOLID
8
0
10
1232.8033988749894
20
1032.4429495415054
11
1236.8484838468642
21
1029.504023280043
12
1235.229841826741
22
1035.8572864631137
13
1239.3355878724092
23
1033.0037186246914
0
SOLID
8
0
10
1235.2298418267408
20
1035.8572864631137
11
1239.3355878724092
21
1033.0037186246914
12
1237.58424814202
22
1039.321690151331
13
1241.7488543455704
23
1036.5547324051145
0
SOLID
8
0
10
1237.58424814202
20
1039.3216901513313
11
1241.7488543455704
21
1036.5547324051145
12
1239.865585100403
22
1042.8346410042006
13
1244.087224727913
23
1040.1555070293057
0
SOLID
8
0
10
1239.865585100403
20
1042.8346410042006
11
1244.087224727913
21
1040.1555070293057
12
1242.0728520321013
22
1046.3945981253742
13
1246.3496733329039
23
1043.8044630785084
0
SOLID
8
0
10
1242.0728520321013
20
1046.394598125374
11
1246.3496733329039
21
1043.8044630785082
12
1244.2050807568878
22
1050.0
13
1248.5352077758098
23
1047.5
0
SOLID
8
0
10
1244.2050807568878
20
1050.0
11
1248.5352077758098
21
1047.5
12
1246.261336008773
22
1053.649265179657
13
1250.642869408992
23
1051.2404968091485
0
SOLID
8
0
10
1246.2613360087728
20
1053.649265179657
11
1250.642869408992
21
1051.2404968091485
12
1248.2407158462431
22
1057.3407929760278
13
1252.671733742399
23
1055.0243128004283
0
SOLID
8
0
10
1248.240715846243
20
1057.3407929760276
11
1252.671733742399
21
1055.0243128004283
12
1250.1423520478827
22
1061.0729641630144
13
1254.6209108490796
23
1058.84978826709
0
SOLID
8
0
10
1250.1423520478825
20
1061.0729641630146
11
1254.6209108490796
21
1058.84978826709
12
1251.965410493204
22
1064.8441416869855
13
1256.489545755534
23
1062.71524522916
0
SOLID
8
0
10
1251.965410493204
20
1064.8441416869855
11
1256.489545755534
21
1062.71524522916
12
1253.7090915285203
22
1068.65267138484
13
1258.276818816733
23
1066.6189881694609
0
SOLID
8
0
10
1253.7090915285203
20
1068.65267138484
11
1258.276818816733
21
1066.6189881694609
12
1255.3726303177002
22
1072.4968827095795
13
1259.9819460756426
23
1070.5593047773189
0
SOLID
8
0
10
1255.3726303177
20
1072.4968827095795
11
1259.9819460756426
21
1070.5593047773189
12
1256.9552971776504
22
1076.3750894630643
13
1261.6041796070915
23
1074.5344666996411
0
SOLID
8
0
10
1256.9552971776502
20
1076.3750894630643
11
1261.6041796070915
21
1074.534466699641
12
1258.4563978983783
22
1080.285590535637
13
1263.1428078458378
23
1078.5427302990277
0
SOLID
8
0
10
1258.4563978983783
20
1080.2855905356369
11
1263.1428078458378
21
1078.5427302990279
12
1259.875274047496
22
1084.2266706522832
13
1264.5971558986837
23
1082.5823374185904
0
SOLID
8
0
10
1259.875274047496
20
1084.2266706522832
11
1264.5971558986837
21
1082.5823374185904
12
1261.211303259031
22
1088.1966011250106
13
1265.9665858405065
23
1086.6515161531356
0
SOLID
8
0
10
1261.2113032590307
20
1088.1966011250106
11
1265.9665858405065
21
1086.6515161531358
12
1262.4638995064136
22
1092.1936406111058
13
1267.2504969940737
23
1090.7484816263834
0
SOLID
8
0
10
1262.4638995064133
20
1092.1936406111056
11
1267.2504969940737
21
1090.7484816263834
12
1263.6325133595317
22
1096.2160358769468
13
1268.4483261935197
23
1094.8714367738705
0
SOLID
8
0
10
1263.6325133595317
20
1096.2160358769468
11
1268.44832619352
21
1094.8714367738705
12
1264.7166322257262
22
1100.2620225670291
13
1269.5595480313693
23
1099.0185731312047
0
SOLID
8
0
10
1264.7166322257262
20
1100.262022567029
11
1269.5595480313693
21
1099.0185731312047
12
1265.7157805746322
22
1104.3298259778687
13
1270.5836750889978
23
1103.1880716273156
0
SOLID
8
0
10
1265.715780574632
20
1104.3298259778687
11
1270.5836750889978
21
1103.1880716273156
12
1266.629520146761
22
1108.4176618364481
13
1271.5202581504302
23
1107.3781033823593
0
SOLID
8
0
10
1266.629520146761
20
1108.4176618364481
11
1271.5202581504302
21
1107.3781033823593
12
1267.4574501457378
22
1112.5237370828552
13
1272.3688863993812
23
1111.5868305099264
0
SOLID
8
0
10
1267.4574501457378
20
1112.5237370828552
11
1272.3688863993812
21
1111.5868305099266
12
1268.199207414101
22
1116.6462506567796
13
1273.1291875994536
23
1115.812406923199
0
SOLID
8
0
10
1268.199207414101
20
1116.6462506567796
11
1273.1291875994534
21
1115.812406923199
12
1268.8544665925979
22
1120.7833942875177
13
1273.8008282574126
23
1120.0529791447057
0
SOLID
8
0
10
1268.8544665925976
20
1120.7833942875177
11
1273.8008282574126
21
1120.0529791447057
12
1269.4229402628955
22
1124.9333532871392
13
1274.383513769468
23
1124.3066871193178
0
SOLID
8
0
10
1269.4229402628955
20
1124.9333532871392
11
1274.383513769468
21
1124.3066871193175
12
1269.9043790736548
22
1129.0943073464693
13
1274.876988550496
23
1128.571665030131
0
SOLID
8
0
10
1269.9043790736546
20
1129.0943073464693
11
1274.876988550496
21
1128.571665030131
12
1270.298571849901
22
1133.264431333537
13
1275.2810361461484
23
1132.8460421168754
0
SOLID
8
0
10
1270.2985718499008
20
1133.264431333537
11
1275.2810361461484
21
1132.8460421168754
12
1270.6053456856544
22
1137.4418960941375
13
1275.5954793277958
23
1137.1279434964908
0
SOLID
8
0
10
1270.6053456856544
20
1137.4418960941373
11
1275.5954793277956
21
1137.1279434964906
12
1270.8245660197717
22
1141.6248692541603
13
1275.8201801702658
23
1141.415490985514
0
SOLID
8
0
10
1270.8245660197717
20
1141.62486925416
11
1275.820180170266
21
1141.415490985514
12
1270.9561366949692
22
1145.8115160233285
13
1275.9550401123433
23
1145.7068039239118
0
SOLID
8
0
10
1270.956136694969
20
1145.8115160233285
11
1275.9550401123433
21
1145.7068039239118
12
1271.0
22
1150.0
13
1276.0
23
1150.0
0
SOLID
8
0
10
1271.0
20
1150.0
11
1276.0
21
1150.0
12
1270.9561366949692
22
1154.1884839766715
13
1275.9550401123433
23
1154.2931960760882
0
SOLID
8
0
10
1270.956136694969
20
1154.1884839766715
11
1275.9550401123433
21
1154.2931960760882
12
1270.8245660197717
22
1158.3751307458401
13
1275.8201801702658
23
1158.5845090144858
0
SOLID
8
0
10
1270.8245660197717
20
1158.37513074584
11
1275.820180170266
21
1158.584509014486
12
1270.6053456856544
22
1162.5581039058627
13
1275.5954793277956
23
1162.8720565035094
0
SOLID
8
0
10
1270.6053456856544
20
1162.5581039058627
11
1275.5954793277956
21
1162.8720565035092
12
1270.2985718499008
22
1166.7355686664632
13
1275.2810361461484
23
1167.1539578831246
0
SOLID
8
0
10
1270.2985718499008
20
1166.735568666463
11
1275.2810361461484
21
1167.1539578831246
12
1269.9043790736546
22
1170.9056926535309
13
1274.876988550496
23
1171.428334969869
0
SOLID
8
0
10
1269.9043790736546
20
1170.9056926535307
11
1274.876988550496
21
1171.428334969869
12
1269.4229402628955
22
1175.066646712861
13
1274.383513769468
23
1175.6933128806825
0
SOLID
8
0
10
1269.4229402628955
20
1175.0666467128608
11
1274.383513769468
21
1175.6933128806825
12
1268.8544665925976
22
1179.2166057124825
13
1273.8008282574126
23
1179.9470208552943
0
SOLID
8
0
10
1268.8544665925976
20
1179.2166057124823
11
1273.8008282574126
21
1179.9470208552943
12
1268.199207414101
22
1183.3537493432204
13
1273.1291875994536
23
1184.187593076801
0
SOLID
8
0
10
1268.199207414101
20
1183.3537493432204
11
1273.1291875994534
21
1184.187593076801
12
1267.4574501457378
22
1187.476262917145
13
1272.3688863993814
23
1188.4131694900734
0
SOLID
8
0
10
1267.4574501457378
20
1187.4762629171448
11
1272.3688863993812
21
1188.4131694900734
12
1266.6295201467613
22
1191.5823381635519
13
1271.5202581504302
23
1192.6218966176407
0
SOLID
8
0
10
1266.629520146761
20
1191.5823381635519
11
1271.5202581504302
21
1192.6218966176407
12
1265.715780574632
22
1195.6701740221313
13
1270.583675088998
23
1196.8119283726844
0
SOLID
8
0
10
1265.715780574632
20
1195.670174022131
11
1270.5836750889978
21
1196.8119283726844
12
1264.7166322257262
22
1199.737977432971
13
1269.5595480313693
23
1200.981426868795
0
SOLID
8
0
10
1264.7166322257262
20
1199.7379774329709
11
1269.5595480313693
21
1200.981426868795
12
1263.6325133595317
22
1203.783964123053
13
1268.44832619352
23
1205.1285632261295
0
SOLID
8
0
10
1263.6325133595317
20
1203.783964123053
11
1268.44832619352
21
1205.1285632261295
12
1262.4638995064133
22
1207.8063593888944
13
1267.250496994074
23
1209.2515183736166
0
SOLID
8
0
10
1262.4638995064136
20
1207.8063593888942
11
1267.2504969940737
21
1209.2515183736166
12
1261.2113032590307
22
1211.8033988749894
13
1265.9665858405067
23
1213.3484838468642
0
SOLID
8
0
10
1261.2113032590307
20
1211.8033988749894
11
1265.9665858405065
21
1213.3484838468642
12
1259.8752740474963
22
1215.7733293477168
13
1264.5971558986837
23
1217.4176625814096
0
SOLID
8
0
10
1259.8752740474963
20
1215.7733293477168
11
1264.5971558986837
21
1217.4176625814096
12
1258.4563978983783
22
1219.7144094643631
13
1263.1428078458378
23
1221.4572697009721
0
SOLID
8
0
10
1258.4563978983783
20
1219.714409464363
11
1263.1428078458378
21
1221.4572697009721
12
1256.9552971776504
22
1223.6249105369357
13
1261.6041796070915
23
1225.465533300359
0
SOLID
8
0
10
1256.9552971776502
20
1223.6249105369357
11
1261.6041796070915
21
1225.4655333003589
12
1255.3726303177
22
1227.5031172904207
13
1259.9819460756428
23
1229.440695222681
0
SOLID
8
0
10
1255.3726303177
20
1227.5031172904205
11
1259.9819460756426
21
1229.4406952226811
12
1253.70909152852
22
1231.3473286151602
13
1258.276818816733
23
1233.3810118305391
0
SOLID
8
0
10
1253.7090915285203
20
1231.34732861516
11
1258.276818816733
21
1233.3810118305391
12
1251.965410493204
22
1235.1558583130145
13
1256.489545755534
23
1237.28475477084
0
SOLID
8
0
10
1251.965410493204
20
1235.1558583130145
11
1256.489545755534
21
1237.2847547708398
12
1250.1423520478825
22
1238.9270358369856
13
1254.6209108490798
23
1241.15021173291
0
SOLID
8
0
10
1250.1423520478827
20
1238.9270358369854
11
1254.6209108490798
21
1241.15021173291
12
1248.2407158462431
22
1242.6592070239724
13
1252.671733742399
23
1244.9756871995717
0
SOLID
8
0
10
1248.240715846243
20
1242.6592070239724
11
1252.671733742399
21
1244.9756871995717
12
1246.2613360087728
22
1246.350734820343
13
1250.642869408992
23
1248.7595031908518
0
SOLID
8
0
10
1246.2613360087728
20
1246.350734820343
11
1250.642869408992
21
1248.7595031908515
12
1244.2050807568878
22
1250.0
13
1248.53520777581
23
1252.5
0
SOLID
8
0
10
1244.2050807568878
20
1250.0
11
1248.53520777581
21
1252.5
12
1242.0728520321015
22
1253.6054018746263
13
1246.3496733329039
23
1256.1955369214918
0
SOLID
8
0
10
1242.0728520321013
20
1253.6054018746258
11
1246.3496733329039
21
1256.1955369214916
12
1239.865585100403
22
1257.1653589957994
13
1244.0872247279133
23
1259.8444929706943
0
SOLID
8
0
10
1239.865585100403
20
1257.1653589957994
11
1244.087224727913
21
1259.8444929706943
12
1237.58424814202
22
1260.678309848669
13
1241.7488543455706
23
1263.4452675948855
0
SOLID
8
0
10
1237.58424814202
20
1260.6783098486687
11
1241.7488543455704
21
1263.4452675948855
12
1235.2298418267408
22
1264.1427135368865
13
1239.3355878724092
23
1266.9962813753086
0
SOLID
8
0
10
1235.2298418267408
20
1264.1427135368863
11
1239.3355878724094
21
1266.9962813753084
12
1232.8033988749894
22
1267.5570504584946
13
1236.8484838468642
23
1270.495976719957
0
SOLID
8
0
10
1232.8033988749894
20
1267.5570504584946
11
1236.8484838468642
21
1270.495976719957
12
1230.3059836048392
22
1270.9198229724752
13
1234.2886331949603
23
1273.9428185467868
0
SOLID
8
0
10
1230.3059836048392
20
1270.919822972475
11
1234.2886331949603
21
1273.9428185467868
12
1227.738691465168
22
1274.229556055662
13
1231.6571587517972
23
1277.3352949570535
0
SOLID
8
0
10
1227.738691465168
20
1274.229556055662
11
1231.6571587517972
21
1277.3352949570535
12
1225.1026485551579
22
1277.484797949738
13
1228.955214769037
23
1280.6719178984813
0
SOLID
8
0
10
1225.1026485551579
20
1277.4847979497379
11
1228.955214769037
21
1280.6719178984813
12
1222.3990111303513
22
1280.6841207980212
13
1226.1839864086103
23
1283.9512238179714
0
SOLID
8
0
10
1222.3990111303513
20
1280.684120798021
11
1226.18398640861
21
1283.9512238179716
12
1219.6289650954789
22
1283.8261212717716
13
1223.3446892228658
23
1287.171774303566
0
SOLID
8
0
10
1219.6289650954789
20
1283.8261212717716
11
1223.3446892228658
21
1287.171774303566
12
1216.7937254842823
22
1286.9094211857378
13
1220.4385686213895
23
1290.3321567153812
0
SOLID
8
0
10
1216.7937254842823
20
1286.9094211857378
11
1220.4385686213893
21
1290.3321567153812
12
1213.8945359265608
22
1289.9326681026732
13
1217.4668993247246
23
1293.4309848052399
0
SOLID
8
0
10
1213.8945359265606
20
1289.932668102673
11
1217.4668993247246
21
1293.4309848052399
12
1210.932668102673
22
1292.8945359265608
13
1214.43098480524
23
1296.4668993247246
0
SOLID
8
0
10
1210.9326681026732
20
1292.8945359265606
11
1214.4309848052399
21
1296.4668993247246
12
1207.9094211857378
22
1295.7937254842825
13
1211.3321567153812
23
1299.438568621389
0
SOLID
8
0
10
1207.9094211857378
20
1295.7937254842823
11
1211.3321567153812
21
1299.4385686213893
12
1204.8261212717716
22
1298.6289650954789
13
1208.171774303566
23
1302.3446892228658
0
SOLID
8
0
10
1204.8261212717716
20
1298.6289650954789
11
1208.171774303566
21
1302.3446892228658
12
1201.684120798021
22
1301.3990111303515
13
1204.9512238179718
23
1305.18398640861
0
SOLID
8
0
10
1201.684120798021
20
1301.3990111303513
11
1204.9512238179716
21
1305.18398640861
12
1198.4847979497379
22
1304.1026485551579
13
1201.6719178984813
23
1307.955214769037
0
SOLID
8
0
10
1198.4847979497379
20
1304.1026485551579
11
1201.6719178984813
21
1307.9552147690367
12
1195.229556055662
22
1306.7386914651681
13
1198.3352949570537
23
1310.657158751797
0
SOLID
8
0
10
1195.2295560556622
20
1306.738691465168
11
1198.3352949570537
21
1310.6571587517972
12
1191.9198229724748
22
1309.3059836048392
13
1194.9428185467868
23
1313.2886331949603
0
SOLID
8
0
10
1191.919822972475
20
1309.3059836048392
11
1194.9428185467868
21
1313.28863319496
12
1188.5570504584948
22
1311.8033988749894
13
1191.495976719957
23
1315.8484838468642
0
SOLID
8
0
10
1188.5570504584946
20
1311.8033988749894
11
1191.495976719957
21
1315.8484838468642
12
1185.1427135368863
22
1314.229841826741
13
1187.9962813753086
23
1318.3355878724094
0
SOLID
8
0
10
1185.1427135368865
20
1314.2298418267408
11
1187.9962813753086
21
1318.3355878724092
12
1181.678309848669
22
1316.58424814202
13
1184.4452675948855
23
1320.7488543455704
0
SOLID
8
0
10
1181.6783098486687
20
1316.58424814202
11
1184.4452675948855
21
1320.7488543455704
12
1178.1653589957994
22
1318.865585100403
13
1180.8444929706943
23
1323.087224727913
0
SOLID
8
0
10
1178.1653589957994
20
1318.865585100403
11
1180.8444929706943
21
1323.087224727913
12
1174.6054018746258
22
1321.0728520321013
13
1177.1955369214916
23
1325.3496733329039
0
SOLID
8
0
10
1174.605401874626
20
1321.0728520321013
11
1177.1955369214918
21
1325.3496733329039
12
1171.0
22
1323.2050807568878
13
1173.5
23
1327.5352077758098
0
SOLID
8
0
10
1171.0
20
1323.2050807568878
11
1173.5
21
1327.53520777581
12
1167.350734820343
22
1325.2613360087728
13
1169.7595031908515
23
1329.6428694089918
0
SOLID
8
0
10
1167.3507348203432
20
1325.2613360087728
11
1169.7595031908518
21
1329.642869408992
12
1163.6592070239724
22
1327.240715846243
13
1165.9756871995717
23
1331.671733742399
0
SOLID
8
0
10
1163.6592070239724
20
1327.240715846243
11
1165.9756871995717
21
1331.671733742399
12
1159.9270358369854
22
1329.1423520478827
13
1162.15021173291
23
1333.6209108490796
0
SOLID
8
0
10
1159.9270358369856
20
1329.1423520478825
11
1162.1502117329103
21
1333.6209108490796
12
1156.1558583130145
22
1330.9654104932038
13
1158.28475477084
23
1335.489545755534
0
SOLID
8
0
10
1156.1558583130145
20
1330.9654104932038
11
1158.28475477084
21
1335.489545755534
12
1152.34732861516
22
1332.7090915285203
13
1154.3810118305391
23
1337.276818816733
0
SOLID
8
0
10
1152.34732861516
20
1332.7090915285203
11
1154.3810118305391
21
1337.276818816733
12
1148.5031172904205
22
1334.3726303177002
13
1150.4406952226811
23
1338.9819460756426
0
SOLID
8
0
10
1148.5031172904207
20
1334.3726303177
11
1150.4406952226811
21
1338.9819460756426
12
1144.6249105369357
22
1335.9552971776504
13
1146.4655333003589
23
1340.6041796070915
0
SOLID
8
0
10
1144.6249105369357
20
1335.9552971776502
11
1146.4655333003589
21
1340.6041796070915
12
1140.714409464363
22
1337.4563978983783
13
1142.4572697009721
23
1342.1428078458378
0
SOLID
8
0
10
1140.7144094643631
20
1337.4563978983783
11
1142.4572697009721
21
1342.1428078458378
12
1136.7733293477168
22
1338.875274047496
13
1138.4176625814096
23
1343.5971558986837
0
SOLID
8
0
10
1136.7733293477168
20
1338.875274047496
11
1138.4176625814096
21
1343.5971558986837
12
1132.8033988749894
22
1340.211303259031
13
1134.3484838468644
23
1344.9665858405065
0
SOLID
8
0
10
1132.8033988749894
20
1340.2113032590307
11
1134.3484838468642
21
1344.9665858405065
12
1128.8063593888942
22
1341.4638995064136
13
1130.2515183736166
23
1346.2504969940737
0
SOLID
8
0
10
1128.8063593888944
20
1341.4638995064133
11
1130.2515183736168
21
1346.2504969940737
12
1124.7839641230532
22
1342.6325133595317
13
1126.1285632261297
23
1347.4483261935197
0
SOLID
8
0
10
1124.7839641230532
20
1342.6325133595317
11
1126.1285632261295
21
1347.44832619352
12
1120.7379774329709
22
1343.7166322257262
13
1121.9814268687953
23
1348.5595480313693
0
SOLID
8
0
10
1120.7379774329709
20
1343.7166322257262
11
1121.9814268687953
21
1348.5595480313693
12
1116.6701740221313
22
1344.7157805746322
13
1117.8119283726844
23
1349.5836750889978
0
SOLID
8
0
10
1116.6701740221313
20
1344.715780574632
11
1117.8119283726844
21
1349.5836750889978
12
1112.5823381635519
22
1345.629520146761
13
1113.621896617641
23
1350.5202581504302
0
SOLID
8
0
10
1112.5823381635519
20
1345.629520146761
11
1113.6218966176407
21
1350.5202581504302
12
1108.4762629171448
22
1346.4574501457378
13
1109.4131694900736
23
1351.3688863993812
0
SOLID
8
0
10
1108.4762629171448
20
1346.4574501457378
11
1109.4131694900736
21
1351.3688863993812
12
1104.3537493432204
22
1347.199207414101
13
1105.187593076801
23
1352.1291875994536
0
SOLID
8
0
10
1104.3537493432204
20
1347.199207414101
11
1105.187593076801
21
1352.1291875994534
12
1100.2166057124823
22
1347.8544665925979
13
1100.9470208552943
23
1352.8008282574126
0
SOLID
8
0
10
1100.2166057124823
20
1347.8544665925976
11
1100.9470208552943
21
1352.8008282574126
12
1096.0666467128608
22
1348.4229402628955
13
1096.6933128806822
23
1353.383513769468
0
SOLID
8
0
10
1096.0666467128608
20
1348.4229402628955
11
1096.6933128806825
21
1353.383513769468
12
1091.9056926535307
22
1348.9043790736548
13
1092.428334969869
23
1353.876988550496
0
SOLID
8
0
10
1091.9056926535307
20
1348.9043790736546
11
1092.428334969869
21
1353.876988550496
12
1087.735568666463
22
1349.298571849901
13
1088.1539578831246
23
1354.2810361461484
0
SOLID
8
0
10
1087.7355686664632
20
1349.2985718499008
11
1088.1539578831248
21
1354.2810361461484
12
1083.5581039058627
22
1349.6053456856544
13
1083.8720565035094
23
1354.5954793277958
0
SOLID
8
0
10
1083.5581039058627
20
1349.6053456856544
11
1083.8720565035094
21
1354.5954793277956
12
1079.3751307458397
22
1349.8245660197717
13
1079.584509014486
23
1354.8201801702658
0
SOLID
8
0
10
1079.37513074584
20
1349.8245660197717
11
1079.584509014486
21
1354.820180170266
12
1075.1884839766715
22
1349.9561366949692
13
1075.2931960760882
23
1354.9550401123433
0
SOLID
8
0
10
1075.1884839766715
20
1349.956136694969
11
1075.2931960760884
21
1354.9550401123433
12
1071.0
22
1350.0
13
1071.0000000000002
23
1355.0
0
POLYLINE
8
0
66
1
10
0.0
20
0.0
30
0.0
0
VERTEX
8
0
10
1071.0
20
945.0
0
VERTEX
8
0
10
1081.9105458426466
20
945.2905473862638
0
VERTEX
8
0
10
1092.7901645577099
20
946.1613659569218
0
VERTEX
8
0
10
1103.6080166839097
20
947.6099872821244
0
VERTEX
8
0
10
1114.333437844073
20
949.6323050873373
0
VERTEX
8
0
10
1124.9360256666419
20
952.2225868930243
0
VERTEX
8
0
10
1135.3857259644994
20
955.3734902639818
0
VERTEX
8
0
10
1145.6529179268284
20
959.0760836222706
0
VERTEX
8
0
10
1155.7084980825175
20
963.3198715647428
0
VERTEX
8
0
10
1165.5239627971118
20
968.0928246134029
0
VERTEX
8
0
10
1175.0714890694621
20
973.3814133142698
0
VERTEX
8
0
10
1184.3240133990446
20
979.1706465880844
0
VERTEX
8
0
10
1193.2553085003929
20
985.4441142241525
0
VERTEX
8
0
10
1201.8400576471881
20
992.1840333968692
0
VERTEX
8
0
10
1210.0539264352713
20
999.3712990730712
0
VERTEX
8
0
10
1217.8736317611547
20
1006.9855381673282
0
VERTEX
8
0
10
1225.2770078205083
20
1015.005167291667
0
VERTEX
8
0
10
1232.2430689395417
20
1023.4074539360307
0
VERTEX
8
0
10
1238.7520690611746
20
1032.1685809060466
0
VERTEX
8
0
10
1244.7855577173825
20
1041.2637138354528
0
VERTEX
8
0
10
1250.326432329052
20
1050.6670715818068
0
VERTEX
8
0
10
1255.3589866851
20
1060.3519993059347
0
VERTEX
8
0
10
1259.8689554634348
20
1070.2910440279693
0
VERTEX
8
0
10
1263.8435546675619
20
1080.4560324458039
0
VERTEX
8
0
10
1267.271517864211
20
1090.8181507953777
0
VERTEX
8
0
10
1270.1431281192656
20
1101.3480265264216
0
VERTEX
8
0
10
1272.4502455414668
20
1112.0158115621416
0
VERTEX
8
0
10
1274.1863303558214
20
1122.791266906837
0
VERTEX
8
0
10
1275.3464614413037
20
1133.643848361618
0
VERTEX
8
0
10
1275.9273502803078
20
1144.5427931052561
0
VERTEX
8
0
10
1275.9273502803078
20
1155.4572068947439
0
VERTEX
8
0
10
1275.3464614413037
20
1166.356151638382
0
VERTEX
8
0
10
1274.1863303558214
20
1177.208733093163
0
VERTEX
8
0
10
1272.4502455414668
20
1187.9841884378584
0
VERTEX
8
0
10
1270.1431281192656
20
1198.6519734735784
0
VERTEX
8
0
10
1267.271517864211
20
1209.1818492046223
0
VERTEX
8
0
10
1263.8435546675619
20
1219.5439675541961
0
VERTEX
8
0
10
1259.8689554634348
20
1229.7089559720307
0
VERTEX
8
0
10
1255.3589866851
20
1239.6480006940653
0
VERTEX
8
0
10
1250.326432329052
20
1249.3329284181932
0
VERTEX
8
0
10
1244.7855577173825
20
1258.7362861645472
0
VERTEX
8
0
10
1238.7520690611746
20
1267.8314190939534
0
VERTEX
8
0
10
1232.2430689395417
20
1276.5925460639694
0
VERTEX
8
0
10
1225.2770078205085
20
1284.994832708333
0
VERTEX
8
0
10
1217.8736317611547
20
1293.014461832672
0
VERTEX
8
0
10
1210.0539264352713
20
1300.6287009269288
0
VERTEX
8
0
10
1201.8400576471881
20
1307.8159666031308
0
VERTEX
8
0
10
1193.2553085003929
20
1314.5558857758476
0
VERTEX
8
0
10
1184.3240133990446
20
1320.8293534119157
0
VERTEX
8
0
10
1175.0714890694621
20
1326.6185866857302
0
VERTEX
8
0
10
1165.5239627971118
20
1331.9071753865971
0
VERTEX
8
0
10
1155.7084980825175
20
1336.6801284352573
0
VERTEX
8
0
10
1145.6529179268286
20
1340.9239163777293
0
VERTEX
8
0
10
1135.3857259644994
20
1344.626509736018
0
VERTEX
8
0
10
1124.9360256666419
20
1347.7774131069757
0
VERTEX
8
0
10
1114.333437844073
20
1350.3676949126627
0
VERTEX
8
0
10
1103.6080166839097
20
1352.3900127178756
0
VERTEX
8
0
10
1092.7901645577099
20
1353.8386340430782
0
VERTEX
8
0
10
1081.9105458426466
20
1354.7094526137362
0
VERTEX
8
0
10
1071.0
20
1355.0
0
VERTEX
8
0
10
1071.0
20
1350.0
0
VERTEX
8
0
10
1081.6444349684357
20
1349.7165391353524
0
VERTEX
8
0
10
1092.2586971294731
20
1348.8669600420274
0
VERTEX
8
0
10
1102.8126992038144
20
1347.4536709442689
0
VERTEX
8
0
10
1113.276524725925
20
1345.4806779635733
0
VERTEX
8
0
10
1123.6205128455042
20
1342.9535737629033
0
VERTEX
8
0
10
1133.8153424043899
20
1339.8795216936762
0
VERTEX
8
0
10
1143.8321150505644
20
1336.2672354904678
0
VERTEX
8
0
10
1153.6424371536757
20
1332.1269545709827
0
VERTEX
8
0
10
1163.2185002898652
20
1327.4704150113143
0
VERTEX
8
0
10
1172.533160067768
20
1322.3108162787612
0
VERTEX
8
0
10
1181.5600130722387
20
1316.662783816503
0
VERTEX
8
0
10
1190.2734717077003
20
1310.5423275861926
0
VERTEX
8
0
10
1198.648836728964
20
1303.9667966859813
0
VERTEX
8
0
10
1206.662367253923
20
1296.9548301726136
0
VERTEX
8
0
10
1214.291348059663
20
1289.526304226997
0
VERTEX
8
0
10
1221.5141539712276
20
1281.7022758130079
0
VERTEX
8
0
10
1228.3103111605285
20
1273.5049229892384
0
VERTEX
8
0
10
1234.6605551816338
20
1264.9574820428813
0
VERTEX
8
0
10
1240.5468855779343
20
1256.0841816239486
0
VERTEX
8
0
10
1245.9526169063922
20
1246.91017406653
0
VERTEX
8
0
10
1250.8624260342438
20
1237.4614640917712
0
VERTEX
8
0
10
1255.2623955740826
20
1227.7648350946642
0
VERTEX
8
0
10
1259.1400533342066
20
1217.847773223606
0
VERTEX
8
0
10
1262.4844076724012
20
1207.7383894679242
0
VERTEX
8
0
10
1265.285978652942
20
1197.465339974223
0
VERTEX
8
0
10
1267.5368249185042
20
1187.0577448174229
0
VERTEX
8
0
10
1269.2305662008014
20
1176.5451054567443
0
VERTEX
8
0
10
1270.36240140615
20
1165.9572211106165
0
VERTEX
8
0
10
1270.9291222246904
20
1155.324104287555
0
VERTEX
8
0
10
1270.9291222246904
20
1144.675895712445
0
VERTEX
8
0
10
1270.36240140615
20
1134.0427788893833
0
VERTEX
8
0
10
1269.2305662008014
20
1123.4548945432557
0
VERTEX
8
0
10
1267.5368249185042
20
1112.9422551825771
0
VERTEX
8
0
10
1265.285978652942
20
1102.534660025777
0
VERTEX
8
0
10
1262.4844076724012
20
1092.2616105320758
0
VERTEX
8
0
10
1259.1400533342066
20
1082.152226776394
0
VERTEX
8
0
10
1255.2623955740826
20
1072.2351649053358
0
VERTEX
8
0
10
1250.8624260342438
20
1062.5385359082288
0
VERTEX
8
0
10
1245.9526169063922
20
1053.08982593347
0
VERTEX
8
0
10
1240.5468855779343
20
1043.9158183760514
0
VERTEX
8
0
10
1234.6605551816338
20
1035.0425179571187
0
VERTEX
8
0
10
1228.3103111605285
20
1026.4950770107616
0
VERTEX
8
0
10
1221.5141539712276
20
1018.2977241869924
0
VERTEX
8
0
10
1214.291348059663
20
1010.4736957730031
0
VERTEX
8
0
10
1206.662367253923
20
1003.0451698273865
0
VERTEX
8
0
10
1198.648836728964
20
996.0332033140187
0
VERTEX
8
0
10
1190.2734717077003
20
989.4576724138072
0
VERTEX
8
0
10
1181.5600130722387
20
983.337216183497
0
VERTEX
8
0
10
1172.533160067768
20
977.6891837212388
0
VERTEX
8
0
10
1163.2185002898652
20
972.5295849886857
0
VERTEX
8
0
10
1153.6424371536757
20
967.8730454290173
0
VERTEX
8
0
10
1143.8321150505644
20
963.7327645095323
0
VERTEX
8
0
10
1133.8153424043899
20
960.1204783063238
0
VERTEX
8
0
10
1123.6205128455042
20
957.0464262370969
0
VERTEX
8
0
10
1113.276524725925
20
954.5193220364267
0
VERTEX
8
0
10
1102.8126992038144
20
952.5463290557311
0
VERTEX
8
0
10
1092.2586971294731
20
951.1330399579726
0
VERTEX
8
0
10
1081.6444349684357
20
950.2834608646476
0
VERTEX
8
0
10
1071.0
20
950.0
0
VERTEX
8
0
10
1071.0
20
945.0
0
SEQEND
0
POLYLINE
8
0
66
1
10
0.0
20
0.0
30
0.0
0
VERTEX
8
0
10
1071.0
20
950.0
0
VERTEX
8
0
10
1081.6444349684357
20
950.2834608646476
0
VERTEX
8
0
10
1092.2586971294731
20
951.1330399579726
0
VERTEX
8
0
10
1102.8126992038144
20
952.5463290557311
0
VERTEX
8
0
10
1113.276524725925
20
954.5193220364267
0
VERTEX
8
0
10
1123.6205128455042
20
957.0464262370969
0
VERTEX
8
0
10
1133.8153424043899
20
960.1204783063238
0
VERTEX
8
0
10
1143.8321150505644
20
963.7327645095323
0
VERTEX
8
0
10
1153.6424371536757
20
967.8730454290173
0
VERTEX
8
0
10
1163.2185002898652
20
972.5295849886857
0
VERTEX
8
0
10
1172.533160067768
20
977.6891837212388
0
VERTEX
8
0
10
1181.5600130722387
20
983.337216183497
0
VERTEX
8
0
10
1190.2734717077003
20
989.4576724138072
0
VERTEX
8
0
10
1198.648836728964
20
996.0332033140187
0
VERTEX
8
0
10
1206.662367253923
20
1003.0451698273865
0
VERTEX
8
0
10
1214.291348059663
20
1010.4736957730031
0
VERTEX
8
0
10
1221.5141539712276
20
1018.2977241869922
0
VERTEX
8
0
10
1228.3103111605285
20
1026.4950770107616
0
VERTEX
8
0
10
1234.6605551816338
20
1035.0425179571187
0
VERTEX
8
0
10
1240.5468855779343
20
1043.9158183760514
0
VERTEX
8
0
10
1245.9526169063922
20
1053.08982593347
0
VERTEX
8
0
10
1250.8624260342438
20
1062.5385359082288
0
VERTEX
8
0
10
1255.2623955740826
20
1072.2351649053358
0
VERTEX
8
0
10
1259.1400533342066
20
1082.152226776394
0
VERTEX
8
0
10
1262.4844076724012
20
1092.2616105320758
0
VERTEX
8
0
10
1265.285978652942
20
1102.534660025777
0
VERTEX
8
0
10
1267.5368249185042
20
1112.9422551825771
0
VERTEX
8
0
10
1269.2305662008014
20
1123.4548945432557
0
VERTEX
8
0
10
1270.36240140615
20
1134.0427788893835
0
VERTEX
8
0
10
1270.9291222246904
20
1144.675895712445
0
VERTEX
8
0
10
1270.9291222246904
20
1155.324104287555
0
VERTEX
8
0
10
1270.36240140615
20
1165.9572211106167
0
VERTEX
8
0
10
1269.2305662008014
20
1176.5451054567443
0
VERTEX
8
0
10
1267.5368249185042
20
1187.0577448174229
0
VERTEX
8
0
10
1265.285978652942
20
1197.465339974223
0
VERTEX
8
0
10
1262.4844076724012
20
1207.7383894679242
0
VERTEX
8
0
10
1259.1400533342066
20
1217.847773223606
0
VERTEX
8
0
10
1255.2623955740826
20
1227.7648350946642
0
VERTEX
8
0
10
1250.8624260342438
20
1237.4614640917712
0
VERTEX
8
0
10
1245.9526169063922
20
1246.91017406653
0
VERTEX
8
0
10
1240.5468855779343
20
1256.0841816239486
0
VERTEX
8
0
10
1234.6605551816338
20
1264.9574820428813
0
VERTEX
8
0
10
1228.3103111605285
20
1273.5049229892384
0
VERTEX
8
0
10
1221.5141539712276
20
1281.7022758130076
0
VERTEX
8
0
10
1214.291348059663
20
1289.526304226997
0
VERTEX
8
0
10
1206.662367253923
20
1296.9548301726136
0
VERTEX
8
0
10
1198.648836728964
20
1303.9667966859813
0
VERTEX
8
0
10
1190.2734717077003
20
1310.5423275861926
0
VERTEX
8
0
10
1181.5600130722387
20
1316.662783816503
0
VERTEX
8
0
10
1172.533160067768
20
1322.3108162787612
0
VERTEX
8
0
10
1163.2185002898652
20
1327.4704150113143
0
VERTEX
8
0
10
1153.6424371536757
20
1332.1269545709827
0
VERTEX
8
0
10
1143.8321150505644
20
1336.2672354904676
0
VERTEX
8
0
10
1133.8153424043899
20
1339.8795216936762
0
VERTEX
8
0
10
1123.6205128455042
20
1342.9535737629033
0
VERTEX
8
0
10
1113.276524725925
20
1345.4806779635733
0
VERTEX
8
0
10
1102.8126992038144
20
1347.4536709442689
0
VERTEX
8
0
10
1092.2586971294731
20
1348.8669600420274
0
VERTEX
8
0
10
1081.6444349684357
20
1349.7165391353524
0
VERTEX
8
0
10
1071.0
20
1350.0
0
VERTEX
8
0
10
1071.0
20
1345.0
0
VERTEX
8
0
10
1081.3783240942248
20
1344.7236256569686
0
VERTEX
8
0
10
1091.7272297012364
20
1343.8952860409768
0
VERTEX
8
0
10
1102.0173817237192
20
1342.5173291706622
0
VERTEX
8
0
10
1112.2196116077766
20
1340.593661014484
0
VERTEX
8
0
10
1122.3050000243666
20
1338.1297344188306
0
VERTEX
8
0
10
1132.24495884428
20
1335.1325336513344
0
VERTEX
8
0
10
1142.0113121743002
20
1331.610554603206
0
VERTEX
8
0
10
1151.5763762248337
20
1327.573780706708
0
VERTEX
8
0
10
1160.9130377826186
20
1323.0336546360315
0
VERTEX
8
0
10
1169.9948310660739
20
1318.0030458717922
0
VERTEX
8
0
10
1178.7960127454328
20
1312.4962142210904
0
VERTEX
8
0
10
1187.2916349150078
20
1306.5287693965379
0
VERTEX
8
0
10
1195.45761581074
20
1300.1176267688318
0
VERTEX
8
0
10
1203.2708080725752
20
1293.2809594182982
0
VERTEX
8
0
10
1210.7090643581714
20
1286.038146621322
0
VERTEX
8
0
10
1217.751300121947
20
1278.4097189176825
0
VERTEX
8
0
10
1224.3775533815153
20
1270.4172999145073
0
VERTEX
8
0
10
1230.569041302093
20
1262.0835449918093
0
VERTEX
8
0
10
1236.3082134384858
20
1253.4320770833497
0
VERTEX
8
0
10
1241.5788014837324
20
1244.4874197148667
0
VERTEX
8
0
10
1246.3658653833877
20
1235.2749274894768
0
VERTEX
8
0
10
1250.6558356847306
20
1225.8207142172976
0
VERTEX
8
0
10
1254.4365520008514
20
1216.1515788930158
0
VERTEX
8
0
10
1257.697297480591
20
1206.2949297312261
0
VERTEX
8
0
10
1260.4288291866185
20
1196.2787064748675
0
VERTEX
8
0
10
1262.6234042955416
20
1186.1313011969874
0
VERTEX
8
0
10
1264.2748020457814
20
1175.8814778203257
0
VERTEX
8
0
10
1265.3783413709962
20
1165.5582905828512
0
VERTEX
8
0
10
1265.9308941690733
20
1155.191001680366
0
VERTEX
8
0
10
1265.9308941690733
20
1144.808998319634
0
VERTEX
8
0
10
1265.3783413709962
20
1134.4417094171488
0
VERTEX
8
0
10
1264.2748020457814
20
1124.1185221796743
0
VERTEX
8
0
10
1262.6234042955416
20
1113.8686988030126
0
VERTEX
8
0
10
1260.4288291866185
20
1103.7212935251325
0
VERTEX
8
0
10
1257.697297480591
20
1093.7050702687739
0
VERTEX
8
0
10
1254.4365520008514
20
1083.848421106984
0
VERTEX
8
0
10
1250.6558356847306
20
1074.1792857827024
0
VERTEX
8
0
10
1246.3658653833877
20
1064.7250725105232
0
VERTEX
8
0
10
1241.5788014837324
20
1055.5125802851333
0
VERTEX
8
0
10
1236.3082134384858
20
1046.5679229166503
0
VERTEX
8
0
10
1230.569041302093
20
1037.9164550081907
0
VERTEX
8
0
10
1224.3775533815153
20
1029.5827000854924
0
VERTEX
8
0
10
1217.751300121947
20
1021.5902810823175
0
VERTEX
8
0
10
1210.7090643581714
20
1013.9618533786779
0
VERTEX
8
0
10
1203.2708080725752
20
1006.7190405817018
0
VERTEX
8
0
10
1195.45761581074
20
999.8823732311682
0
VERTEX
8
0
10
1187.2916349150078
20
993.4712306034621
0
VERTEX
8
0
10
1178.7960127454328
20
987.5037857789096
0
VERTEX
8
0
10
1169.9948310660739
20
981.9969541282078
0
VERTEX
8
0
10
1160.9130377826186
20
976.9663453639686
0
VERTEX
8
0
10
1151.5763762248337
20
972.426219293292
0
VERTEX
8
0
10
1142.0113121743004
20
968.389445396794
0
VERTEX
8
0
10
1132.24495884428
20
964.8674663486656
0
VERTEX
8
0
10
1122.3050000243666
20
961.8702655811694
0
VERTEX
8
0
10
1112.2196116077769
20
959.406338985516
0
VERTEX
8
0
10
1102.0173817237192
20
957.4826708293378
0
VERTEX
8
0
10
1091.7272297012362
20
956.1047139590232
0
VERTEX
8
0
10
1081.3783240942248
20
955.2763743430314
0
VERTEX
8
0
10
1071.0
20
955.0
0
VERTEX
8
0
10
1071.0
20
950.0
0
SEQEND
0
SOLID
8
0
10
1071.0
20
1350.0
11
1021.0
21
1350.0
12
1071.0
22
1345.0
13
1021.0
23
1338.0
0
SOLID
8
0
10
1071.0
20
1350.0
11
1021.0
21
1350.0
12
1071.0
22
1355.0
13
1021.0
23
1362.0
0
SOLID
8
0
10
1017.0
20
1362.0
11
1017.0
21
1359.0
12
950.0
22
1362.0
13
950.0
23
1359.0
0
SOLID
8
0
10
1021.0
20
1355.0
11
1021.0
21
1352.0
12
954.0
22
1355.0
13
954.0
23
1352.0
0
SOLID
8
0
10
1017.0
20
1348.0
11
1017.0
21
1345.0
12
950.0
22
1348.0
13
950.0
23
1345.0
0
SOLID
8
0
10
1021.0
20
1341.0
11
1021.0
21
1338.0
12
954.0
22
1341.0
13
954.0
23
1338.0
0
SOLID
8
0
10
950.0
20
1350.0
11
900.0
21
1350.0
12
950.0
22
1338.0
13
900.0
23
1345.0
0
SOLID
8
0
10
950.0
20
1350.0
11
900.0
21
1350.0
12
950.0
22
1362.0
13
900.0
23
1355.0
0
SOLID
8
0
10
900.0
20
1355.0
11
500.0
21
1355.0
12
900.0
22
1345.0
13
500.0
23
1345.0
0
POLYLINE
8
0
66
1
10
0.0
20
0.0
30
0.0
0
VERTEX
8
0
10
900.0
20
1355.0
0
VERTEX
8
0
10
500.0
20
1355.0
0
VERTEX
8
0
10
500.0
20
1345.0
0
VERTEX
8
0
10
900.0
20
1345.0
0
VERTEX
8
0
10
900.0
20
1355.0
0
SEQEND
0
SOLID
8
0
10
500.0
20
1350.0
11
250.0
21
1350.0
12
500.0
22
1345.0
13
250.0
23
1275.0
0
SOLID
8
0
10
500.0
20
1350.0
11
250.0
21
1350.0
12
500.0
22
1355.0
13
250.0
23
1425.0
0
SOLID
8
0
10
250.0
20
1425.0
11
75.00000000000001
21
1425.0
12
250.0
22
1275.0
13
74.99999999999999
23
1275.0
0
POLYLINE
8
0
66
1
10
0.0
20
0.0
30
0.0
0
VERTEX
8
0
10
250.0
20
1425.0
0
VERTEX
8
0
10
75.00000000000001
20
1425.0
0
VERTEX
8
0
10
74.99999999999999
20
1275.0
0
VERTEX
8
0
10
250.0
20
1275.0
0
VERTEX
8
0
10
250.0
20
1425.0
0
SEQEND
0
ENDBLK
0
BLOCK
8
0
2
A
70
0
10
0
20
0
30
0
3
A
0
POLYLINE
8
0
66
1
10
0.0
20
0.0
30
0.0
0
VERTEX
8
0
10
-100.0
20
2000.0
0
VERTEX
8
0
10
7100.0
20
2000.0
0
VERTEX
8
0
10
7100.0
20
1900.0
0
VERTEX
8
0
10
-100.0
20
1900.0
0
VERTEX
8
0
10
-100.0
20
2000.0
0
SEQEND
0
POLYLINE
8
0
66
1
10
0.0
20
0.0
30
0.0
0
VERTEX
8
0
10
-100.0
20
-100.0
0
VERTEX
8
0
10
7100.0
20
-100.0
0
VERTEX
8
0
10
7100.0
20
0.0
0
VERTEX
8
0
10
-100.0
20
0.0
0
VERTEX
8
0
10
-100.0
20
-100.0
0
SEQEND
0
POLYLINE
8
0
66
1
10
0.0
20
0.0
30
0.0
0
VERTEX
8
0
10
-100.0
20
0.0
0
VERTEX
8
0
10
0.0
20
0.0
0
VERTEX
8
0
10
0.0
20
1900.0
0
VERTEX
8
0
10
-100.0
20
1900.0
0
VERTEX
8
0
10
-100.0
20
0.0
0
SEQEND
0
POLYLINE
8
0
66
1
10
0.0
20
0.0
30
0.0
0
VERTEX
8
0
10
7000.0
20
0.0
0
VERTEX
8
0
10
7100.0
20
0.0
0
VERTEX
8
0
10
7100.0
20
1900.0
0
VERTEX
8
0
10
7000.0
20
1900.0
0
VERTEX
8
0
10
7000.0
20
0.0
0
SEQEND
0
ENDBLK
0
ENDSEC
0
SECTION
2
ENTITIES
0
INSERT
2
AGAP
8
gap
10
0
20
0
0
INSERT
2
APIN
8
pin
10
0
20
0
0
INSERT
2
A
8
0
10
0
20
0
0
ENDSEC
0
EOF
