0
SECTION
2
HEADER
9
$ACADVER
1
AC1006
9
$INSBASE
10
0.0
20
0.0
30
0.0
9
$EXTMIN
10
0.0
20
0.0
9
$EXTMAX
10
0.0
20
0.0
0
ENDSEC
0
SECTION
2
TABLES
0
TABLE
2
LTYPE
70
1
0
LTYPE
2
CONTINUOUS
70
64
3
Solid line
72
65
73
0
40
0.0
0
ENDTAB
0
TABLE
2
LAYER
70
3
0
LAYER
2
PYDXF
70
64
62
7
6
continuous
0
LAYER
2
GAP
70
64
62
1
6
continuous
0
LAYER
2
PIN
70
64
62
3
6
continuous
0
ENDTAB
0
TABLE
2
STYLE
70
1
0
STYLE
2
STANDARD
70
0
40
0
41
40
50
50
71
0
42
1
3
ARIAL.TTF
4

0
ENDTAB
0
TABLE
2
VIEW
70
0
0
ENDTAB
0
ENDSEC
0
SECTION
2
BLOCKS
0
BLOCK
8
gap
2
AGAP
70
0
10
0
20
0
30
0
3
AGAP
0
SOLID
8
0
10
0.0
20
800.0
11
75.0
21
800.0
12
0.0
22
1100.0
13
75.0
23
1100.0
0
POLYLINE
8
0
66
1
10
0.0
20
0.0
30
0.0
0
VERTEX
8
0
10
0.0
20
800.0
0
VERTEX
8
0
10
75.0
20
800.0
0
VERTEX
8
0
10
75.0
20
1100.0
0
VERTEX
8
0
10
0.0
20
1100.0
0
VERTEX
8
0
10
0.0
20
800.0
0
SEQEND
0
SOLID
8
0
10
75.0
20
800.0
11
250.0
21
800.0
12
75.0
22
1100.0
13
250.0
23
1100.0
0
POLYLINE
8
0
66
1
10
0.0
20
0.0
30
0.0
0
VERTEX
8
0
10
75.0
20
800.0
0
VERTEX
8
0
10
250.0
20
800.0
0
VERTEX
8
0
10
250.0
20
1100.0
0
VERTEX
8
0
10
75.0
20
1100.0
0
VERTEX
8
0
10
75.0
20
800.0
0
SEQEND
0
SOLID
8
0
10
250.0
20
950.0
11
500.0
21
950.0
12
250.0
22
1100.0
13
500.0
23
965.0
0
SOLID
8
0
10
250.0
20
950.0
11
500.0
21
950.0
12
250.0
22
800.0
13
500.0
23
935.0
0
SOLID
8
0
10
500.0
20
935.0
11
900.0
21
935.0
12
500.0
22
965.0
13
900.0
23
965.0
0
POLYLINE
8
0
66
1
10
0.0
20
0.0
30
0.0
0
VERTEX
8
0
10
500.0
20
935.0
0
VERTEX
8
0
10
900.0
20
935.0
0
VERTEX
8
0
10
900.0
20
965.0
0
VERTEX
8
0
10
500.0
20
965.0
0
VERTEX
8
0
10
500.0
20
935.0
0
SEQEND
0
SOLID
8
0
10
900.0
20
950.0
11
950.0
21
950.0
12
900.0
22
965.0
13
950.0
23
986.0
0
SOLID
8
0
10
900.0
20
950.0
11
950.0
21
950.0
12
900.0
22
935.0
13
950.0
23
914.0
0
SOLID
8
0
10
950.0
20
914.0
11
1021.0
21
914.0
12
950.0
22
986.0
13
1021.0
23
986.0
0
SOLID
8
0
10
1021.0
20
950.0
11
1071.0
21
950.0
12
1021.0
22
986.0
13
1071.0
23
965.0
0
SOLID
8
0
10
1021.0
20
950.0
11
1071.0
21
950.0
12
1021.0
22
914.0
13
1071.0
23
935.0
0
SOLID
8
0
10
1071.0
20
965.0
11
1071.0
21
950.0
12
1074.8743476784211
22
965.0405735571536
13
1075.1884839766715
23
950.0438633050309
0
SOLID
8
0
10
1074.8743476784211
20
965.0405735571536
11
1075.1884839766715
21
950.0438633050309
12
1078.746995939902
22
965.1622764317112
13
1079.3751307458401
23
950.1754339802283
0
SOLID
8
0
10
1078.746995939902
20
965.1622764317112
11
1079.37513074584
21
950.1754339802283
12
1082.6162461129231
22
965.3650552407698
13
1083.5581039058627
23
950.3946543143456
0
SOLID
8
0
10
1082.616246112923
20
965.3650552407697
11
1083.5581039058627
21
950.3946543143456
12
1086.4804010164785
22
965.6488210388417
13
1087.7355686664632
23
950.7014281500992
0
SOLID
8
0
10
1086.4804010164783
20
965.6488210388417
11
1087.735568666463
21
950.7014281500991
12
1090.337765704516
22
966.0134493568694
13
1091.9056926535309
23
951.0956209263454
0
SOLID
8
0
10
1090.337765704516
20
966.0134493568694
11
1091.9056926535307
21
951.0956209263453
12
1094.1866482093963
22
966.4587802568217
13
1096.066646712861
23
951.5770597371045
0
SOLID
8
0
10
1094.1866482093963
20
966.4587802568216
11
1096.0666467128608
21
951.5770597371045
12
1098.0253602840462
22
966.9846184018471
13
1100.2166057124825
23
952.1455334074024
0
SOLID
8
0
10
1098.0253602840462
20
966.9846184018472
11
1100.2166057124823
21
952.1455334074024
12
1101.852218142479
22
967.5907331419567
13
1104.3537493432204
23
952.800792585899
0
SOLID
8
0
10
1101.852218142479
20
967.5907331419565
11
1104.3537493432204
21
952.800792585899
12
1105.6655431983593
22
968.2768586151926
13
1108.476262917145
23
953.5425498542623
0
SOLID
8
0
10
1105.665543198359
20
968.2768586151926
11
1108.4762629171448
21
953.5425498542622
12
1109.4636628012856
22
969.0426938642458
13
1112.5823381635519
23
954.3704798532387
0
SOLID
8
0
10
1109.4636628012854
20
969.042693864246
11
1112.5823381635519
21
954.3704798532389
12
1113.2449109704714
22
969.8879029684655
13
1116.6701740221313
23
955.284219425368
0
SOLID
8
0
10
1113.2449109704712
20
969.8879029684654
11
1116.670174022131
21
955.284219425368
12
1117.0076291254982
22
970.8121151912032
13
1120.737977432971
23
956.2833677742736
0
SOLID
8
0
10
1117.0076291254982
20
970.8121151912032
11
1120.7379774329709
21
956.2833677742738
12
1120.7501668138243
22
971.8149251424334
13
1124.783964123053
23
957.3674866404683
0
SOLID
8
0
10
1120.750166813824
20
971.8149251424333
11
1124.7839641230532
21
957.3674866404683
12
1124.4708824347274
22
972.8958929565675
13
1128.8063593888944
23
958.5361004935866
0
SOLID
8
0
10
1124.4708824347272
20
972.8958929565675
11
1128.8063593888944
21
958.5361004935866
12
1128.1681439593654
22
974.0545444853967
13
1132.8033988749896
23
959.7886967409693
0
SOLID
8
0
10
1128.1681439593654
20
974.0545444853966
11
1132.8033988749894
21
959.7886967409693
12
1131.840329646638
22
975.2903715060661
13
1136.7733293477168
23
961.1247259525038
0
SOLID
8
0
10
1131.8403296466379
20
975.290371506066
11
1136.7733293477168
21
961.1247259525038
12
1135.485828754536
22
976.6028319440002
13
1140.7144094643631
23
962.5436021016218
0
SOLID
8
0
10
1135.4858287545358
20
976.6028319440001
11
1140.7144094643631
21
962.5436021016217
12
1139.1030422466654
22
977.9913501106735
13
1144.6249105369357
23
964.0447028223497
0
SOLID
8
0
10
1139.1030422466654
20
977.9913501106735
11
1144.6249105369357
21
964.0447028223497
12
1142.6903834936393
22
979.4553169561275
13
1148.5031172904207
23
965.6273696822999
0
SOLID
8
0
10
1142.690383493639
20
979.4553169561274
11
1148.5031172904205
21
965.6273696822999
12
1146.2462789690233
22
980.9940903361189
13
1152.3473286151602
23
967.29090847148
0
SOLID
8
0
10
1146.246278969023
20
980.9940903361188
11
1152.34732861516
21
967.2909084714798
12
1149.7691689395385
22
982.6069952937864
13
1156.1558583130145
23
969.034589506796
0
SOLID
8
0
10
1149.7691689395385
20
982.6069952937864
11
1156.1558583130145
21
969.0345895067961
12
1153.2575081492116
22
984.2933243557086
13
1159.9270358369856
23
970.8576479521175
0
SOLID
8
0
10
1153.2575081492116
20
984.2933243557086
11
1159.9270358369854
21
970.8576479521174
12
1156.7097664971743
22
986.0523378422254
13
1163.6592070239726
23
972.759284153757
0
SOLID
8
0
10
1156.7097664971743
20
986.0523378422253
11
1163.6592070239724
21
972.7592841537571
12
1160.1244297088174
22
987.8832641918852
13
1167.350734820343
23
974.7386639912272
0
SOLID
8
0
10
1160.1244297088174
20
987.8832641918852
11
1167.350734820343
21
974.7386639912272
12
1163.5
22
989.7853002998789
13
1171.0
23
976.7949192431123
0
SOLID
8
0
10
1163.5
20
989.7853002998788
11
1171.0
21
976.7949192431122
12
1166.8349967340291
22
991.7576118703064
13
1174.6054018746263
23
978.9271479678986
0
SOLID
8
0
10
1166.8349967340291
20
991.7576118703063
11
1174.605401874626
21
978.9271479678987
12
1170.1279570711145
22
993.7993337821273
13
1178.1653589957996
23
981.134414899597
0
SOLID
8
0
10
1170.1279570711145
20
993.7993337821272
11
1178.1653589957994
21
981.134414899597
12
1173.3774366100188
22
995.9095704686317
13
1181.678309848669
23
983.41575185798
0
SOLID
8
0
10
1173.3774366100188
20
995.9095704686316
11
1181.6783098486687
21
983.4157518579801
12
1176.58201002162
22
998.0873963102649
13
1185.1427135368865
23
985.7701581732592
0
SOLID
8
0
10
1176.58201002162
20
998.0873963102647
11
1185.1427135368863
21
985.7701581732592
12
1179.7402716741076
22
1000.3318560406348
13
1188.5570504584946
23
988.1966011250106
0
SOLID
8
0
10
1179.7402716741076
20
1000.3318560406348
11
1188.5570504584946
21
988.1966011250105
12
1182.8508362495395
22
1002.6419651655239
13
1191.9198229724752
23
990.6940163951608
0
SOLID
8
0
10
1182.8508362495393
20
1002.6419651655236
11
1191.919822972475
21
990.6940163951607
12
1185.9123393514876
22
1005.0167103947197
13
1195.229556055662
23
993.261308534832
0
SOLID
8
0
10
1185.9123393514874
20
1005.0167103947197
11
1195.229556055662
21
993.2613085348321
12
1188.9234381035078
22
1007.4550500864791
13
1198.484797949738
23
995.8973514448421
0
SOLID
8
0
10
1188.9234381035076
20
1007.455050086479
11
1198.4847979497379
21
995.8973514448421
12
1191.8828117381695
22
1009.9559147044251
13
1201.6841207980212
23
998.6009888696487
0
SOLID
8
0
10
1191.8828117381695
20
1009.955914704425
11
1201.684120798021
21
998.6009888696487
12
1194.7891621763888
22
1012.518207286682
13
1204.8261212717719
23
1001.3710349045213
0
SOLID
8
0
10
1194.7891621763888
20
1012.5182072866821
11
1204.8261212717716
21
1001.3710349045211
12
1197.6412145968075
22
1015.140803927039
13
1207.9094211857378
23
1004.2062745157177
0
SOLID
8
0
10
1197.6412145968075
20
1015.1408039270389
11
1207.9094211857378
21
1004.2062745157177
12
1200.4377179949727
22
1017.8225542679315
13
1210.9326681026732
23
1007.1054640734394
0
SOLID
8
0
10
1200.4377179949727
20
1017.8225542679313
11
1210.932668102673
21
1007.1054640734393
12
1203.1774457320687
22
1020.5622820050273
13
1213.8945359265608
23
1010.067331897327
0
SOLID
8
0
10
1203.1774457320687
20
1020.5622820050274
11
1213.8945359265608
21
1010.067331897327
12
1205.8591960729611
22
1023.3587854031928
13
1216.7937254842825
23
1013.0905788142624
0
SOLID
8
0
10
1205.8591960729611
20
1023.3587854031925
11
1216.7937254842823
21
1013.0905788142622
12
1208.481792713318
22
1026.2108378236114
13
1219.6289650954789
23
1016.1738787282284
0
SOLID
8
0
10
1208.4817927133179
20
1026.2108378236112
11
1219.6289650954789
21
1016.1738787282284
12
1211.0440852955749
22
1029.1171882618305
13
1222.3990111303515
23
1019.315879201979
0
SOLID
8
0
10
1211.0440852955749
20
1029.1171882618305
11
1222.3990111303513
21
1019.3158792019789
12
1213.544949913521
22
1032.0765618964924
13
1225.1026485551579
23
1022.5152020502621
0
SOLID
8
0
10
1213.544949913521
20
1032.0765618964924
11
1225.1026485551579
21
1022.515202050262
12
1215.9832896052803
22
1035.0876606485126
13
1227.7386914651681
23
1025.770443944338
0
SOLID
8
0
10
1215.9832896052803
20
1035.0876606485126
11
1227.738691465168
21
1025.770443944338
12
1218.3580348344765
22
1038.1491637504607
13
1230.3059836048392
23
1029.0801770275252
0
SOLID
8
0
10
1218.3580348344763
20
1038.1491637504607
11
1230.3059836048392
21
1029.080177027525
12
1220.6681439593654
22
1041.2597283258926
13
1232.8033988749894
23
1032.4429495415054
0
SOLID
8
0
10
1220.6681439593654
20
1041.2597283258924
11
1232.8033988749894
21
1032.4429495415054
12
1222.9126036897353
22
1044.4179899783803
13
1235.229841826741
23
1035.8572864631137
0
SOLID
8
0
10
1222.9126036897353
20
1044.41798997838
11
1235.2298418267408
21
1035.8572864631137
12
1225.0904295313685
22
1047.6225633899815
13
1237.58424814202
23
1039.321690151331
0
SOLID
8
0
10
1225.0904295313685
20
1047.6225633899812
11
1237.58424814202
21
1039.3216901513313
12
1227.2006662178728
22
1050.8720429288858
13
1239.865585100403
23
1042.8346410042006
0
SOLID
8
0
10
1227.2006662178728
20
1050.8720429288855
11
1239.865585100403
21
1042.8346410042006
12
1229.2423881296938
22
1054.1650032659709
13
1242.0728520321013
23
1046.3945981253742
0
SOLID
8
0
10
1229.2423881296936
20
1054.1650032659709
11
1242.0728520321013
21
1046.394598125374
12
1231.2146997001212
22
1057.5
13
1244.2050807568878
23
1050.0
0
SOLID
8
0
10
1231.2146997001212
20
1057.5
11
1244.2050807568878
21
1050.0
12
1233.1167358081148
22
1060.8755702911826
13
1246.261336008773
23
1053.649265179657
0
SOLID
8
0
10
1233.1167358081148
20
1060.8755702911826
11
1246.2613360087728
21
1053.649265179657
12
1234.9476621577746
22
1064.2902335028257
13
1248.2407158462431
23
1057.3407929760278
0
SOLID
8
0
10
1234.9476621577746
20
1064.2902335028257
11
1248.240715846243
21
1057.3407929760276
12
1236.7066756442914
22
1067.7424918507886
13
1250.1423520478827
23
1061.0729641630144
0
SOLID
8
0
10
1236.7066756442914
20
1067.7424918507884
11
1250.1423520478825
21
1061.0729641630146
12
1238.3930047062136
22
1071.2308310604617
13
1251.965410493204
23
1064.8441416869855
0
SOLID
8
0
10
1238.3930047062136
20
1071.2308310604615
11
1251.965410493204
21
1064.8441416869855
12
1240.005909663881
22
1074.753721030977
13
1253.7090915285203
23
1068.65267138484
0
SOLID
8
0
10
1240.005909663881
20
1074.753721030977
11
1253.7090915285203
21
1068.65267138484
12
1241.5446830438727
22
1078.309616506361
13
1255.3726303177002
23
1072.4968827095795
0
SOLID
8
0
10
1241.5446830438725
20
1078.309616506361
11
1255.3726303177
21
1072.4968827095795
12
1243.0086498893265
22
1081.8969577533346
13
1256.9552971776504
23
1076.3750894630643
0
SOLID
8
0
10
1243.0086498893265
20
1081.8969577533346
11
1256.9552971776502
21
1076.3750894630643
12
1244.397168056
22
1085.5141712454642
13
1258.4563978983783
23
1080.285590535637
0
SOLID
8
0
10
1244.3971680559998
20
1085.5141712454642
11
1258.4563978983783
21
1080.2855905356369
12
1245.709628493934
22
1089.1596703533621
13
1259.875274047496
23
1084.2266706522832
0
SOLID
8
0
10
1245.709628493934
20
1089.1596703533621
11
1259.875274047496
21
1084.2266706522832
12
1246.9454555146035
22
1092.8318560406349
13
1261.211303259031
23
1088.1966011250106
0
SOLID
8
0
10
1246.9454555146035
20
1092.8318560406346
11
1261.2113032590307
21
1088.1966011250106
12
1248.1041070434326
22
1096.5291175652728
13
1262.4638995064136
23
1092.1936406111058
0
SOLID
8
0
10
1248.1041070434324
20
1096.5291175652728
11
1262.4638995064133
21
1092.1936406111056
12
1249.1850748575669
22
1100.2498331861761
13
1263.6325133595317
23
1096.2160358769468
0
SOLID
8
0
10
1249.1850748575666
20
1100.2498331861757
11
1263.6325133595317
21
1096.2160358769468
12
1250.1878848087968
22
1103.992370874502
13
1264.7166322257262
23
1100.2620225670291
0
SOLID
8
0
10
1250.1878848087968
20
1103.9923708745018
11
1264.7166322257262
21
1100.262022567029
12
1251.1120970315346
22
1107.7550890295288
13
1265.7157805746322
23
1104.3298259778687
0
SOLID
8
0
10
1251.1120970315346
20
1107.7550890295286
11
1265.715780574632
21
1104.3298259778687
12
1251.9573061357542
22
1111.5363371987146
13
1266.629520146761
23
1108.4176618364481
0
SOLID
8
0
10
1251.9573061357542
20
1111.5363371987146
11
1266.629520146761
21
1108.4176618364481
12
1252.7231413848076
22
1115.3344568016412
13
1267.4574501457378
23
1112.5237370828552
0
SOLID
8
0
10
1252.7231413848074
20
1115.334456801641
11
1267.4574501457378
21
1112.5237370828552
12
1253.4092668580433
22
1119.1477818575213
13
1268.199207414101
23
1116.6462506567796
0
SOLID
8
0
10
1253.4092668580433
20
1119.147781857521
11
1268.199207414101
21
1116.6462506567796
12
1254.0153815981528
22
1122.974639715954
13
1268.8544665925979
23
1120.7833942875177
0
SOLID
8
0
10
1254.0153815981528
20
1122.9746397159538
11
1268.8544665925976
21
1120.7833942875177
12
1254.5412197431783
22
1126.8133517906037
13
1269.4229402628955
23
1124.9333532871392
0
SOLID
8
0
10
1254.5412197431783
20
1126.8133517906037
11
1269.4229402628955
21
1124.9333532871392
12
1254.9865506431306
22
1130.6622342954843
13
1269.9043790736548
23
1129.0943073464693
0
SOLID
8
0
10
1254.9865506431306
20
1130.662234295484
11
1269.9043790736546
21
1129.0943073464693
12
1255.3511789611584
22
1134.5195989835217
13
1270.298571849901
23
1133.264431333537
0
SOLID
8
0
10
1255.3511789611582
20
1134.5195989835217
11
1270.2985718499008
21
1133.264431333537
12
1255.6349447592302
22
1138.3837538870773
13
1270.6053456856544
23
1137.4418960941375
0
SOLID
8
0
10
1255.6349447592302
20
1138.383753887077
11
1270.6053456856544
21
1137.4418960941373
12
1255.8377235682888
22
1142.2530040600982
13
1270.8245660197717
23
1141.6248692541603
0
SOLID
8
0
10
1255.8377235682888
20
1142.253004060098
11
1270.8245660197717
21
1141.62486925416
12
1255.9594264428465
22
1146.125652321579
13
1270.9561366949692
23
1145.8115160233285
0
SOLID
8
0
10
1255.9594264428465
20
1146.1256523215789
11
1270.956136694969
21
1145.8115160233285
12
1256.0
22
1150.0000000000002
13
1271.0
23
1150.0
0
SOLID
8
0
10
1256.0
20
1150.0
11
1271.0
21
1150.0
12
1255.9594264428465
22
1153.8743476784211
13
1270.9561366949692
23
1154.1884839766715
0
SOLID
8
0
10
1255.9594264428465
20
1153.8743476784211
11
1270.956136694969
21
1154.1884839766715
12
1255.8377235682888
22
1157.746995939902
13
1270.8245660197717
23
1158.3751307458401
0
SOLID
8
0
10
1255.8377235682888
20
1157.746995939902
11
1270.8245660197717
21
1158.37513074584
12
1255.6349447592302
22
1161.6162461129231
13
1270.6053456856544
23
1162.5581039058627
0
SOLID
8
0
10
1255.6349447592302
20
1161.616246112923
11
1270.6053456856544
21
1162.5581039058627
12
1255.3511789611584
22
1165.4804010164785
13
1270.2985718499008
23
1166.7355686664632
0
SOLID
8
0
10
1255.3511789611582
20
1165.4804010164783
11
1270.2985718499008
21
1166.735568666463
12
1254.9865506431306
22
1169.337765704516
13
1269.9043790736546
23
1170.9056926535309
0
SOLID
8
0
10
1254.9865506431306
20
1169.337765704516
11
1269.9043790736546
21
1170.9056926535307
12
1254.5412197431783
22
1173.1866482093963
13
1269.4229402628955
23
1175.066646712861
0
SOLID
8
0
10
1254.5412197431783
20
1173.1866482093963
11
1269.4229402628955
21
1175.0666467128608
12
1254.0153815981528
22
1177.0253602840462
13
1268.8544665925976
23
1179.2166057124825
0
SOLID
8
0
10
1254.0153815981528
20
1177.0253602840462
11
1268.8544665925976
21
1179.2166057124823
12
1253.4092668580433
22
1180.852218142479
13
1268.199207414101
23
1183.3537493432204
0
SOLID
8
0
10
1253.4092668580433
20
1180.852218142479
11
1268.199207414101
21
1183.3537493432204
12
1252.7231413848074
22
1184.6655431983593
13
1267.4574501457378
23
1187.476262917145
0
SOLID
8
0
10
1252.7231413848074
20
1184.665543198359
11
1267.4574501457378
21
1187.4762629171448
12
1251.9573061357542
22
1188.4636628012854
13
1266.6295201467613
23
1191.5823381635519
0
SOLID
8
0
10
1251.9573061357542
20
1188.4636628012854
11
1266.629520146761
21
1191.5823381635519
12
1251.1120970315346
22
1192.2449109704714
13
1265.715780574632
23
1195.6701740221313
0
SOLID
8
0
10
1251.1120970315346
20
1192.2449109704712
11
1265.715780574632
21
1195.670174022131
12
1250.1878848087968
22
1196.0076291254982
13
1264.7166322257262
23
1199.737977432971
0
SOLID
8
0
10
1250.1878848087968
20
1196.0076291254982
11
1264.7166322257262
21
1199.7379774329709
12
1249.1850748575666
22
1199.7501668138243
13
1263.6325133595317
23
1203.783964123053
0
SOLID
8
0
10
1249.1850748575669
20
1199.750166813824
11
1263.6325133595317
21
1203.783964123053
12
1248.1041070434326
22
1203.4708824347274
13
1262.4638995064133
23
1207.8063593888944
0
SOLID
8
0
10
1248.1041070434326
20
1203.4708824347272
11
1262.4638995064136
21
1207.8063593888942
12
1246.9454555146033
22
1207.1681439593654
13
1261.2113032590307
23
1211.8033988749894
0
SOLID
8
0
10
1246.9454555146035
20
1207.1681439593654
11
1261.2113032590307
21
1211.8033988749894
12
1245.709628493934
22
1210.840329646638
13
1259.8752740474963
23
1215.7733293477168
0
SOLID
8
0
10
1245.709628493934
20
1210.8403296466379
11
1259.8752740474963
21
1215.7733293477168
12
1244.3971680559998
22
1214.485828754536
13
1258.4563978983783
23
1219.7144094643631
0
SOLID
8
0
10
1244.3971680559998
20
1214.4858287545358
11
1258.4563978983783
21
1219.714409464363
12
1243.0086498893265
22
1218.1030422466654
13
1256.9552971776504
23
1223.6249105369357
0
SOLID
8
0
10
1243.0086498893265
20
1218.1030422466654
11
1256.9552971776502
21
1223.6249105369357
12
1241.5446830438725
22
1221.690383493639
13
1255.3726303177
23
1227.5031172904207
0
SOLID
8
0
10
1241.5446830438725
20
1221.690383493639
11
1255.3726303177
21
1227.5031172904205
12
1240.005909663881
22
1225.2462789690233
13
1253.70909152852
23
1231.3473286151602
0
SOLID
8
0
10
1240.005909663881
20
1225.246278969023
11
1253.7090915285203
21
1231.34732861516
12
1238.3930047062136
22
1228.7691689395385
13
1251.965410493204
23
1235.1558583130145
0
SOLID
8
0
10
1238.3930047062136
20
1228.7691689395383
11
1251.965410493204
21
1235.1558583130145
12
1236.7066756442914
22
1232.2575081492116
13
1250.1423520478825
23
1238.9270358369856
0
SOLID
8
0
10
1236.7066756442914
20
1232.2575081492116
11
1250.1423520478827
21
1238.9270358369854
12
1234.9476621577746
22
1235.7097664971743
13
1248.2407158462431
23
1242.6592070239724
0
SOLID
8
0
10
1234.9476621577746
20
1235.7097664971743
11
1248.240715846243
21
1242.6592070239724
12
1233.1167358081148
22
1239.1244297088174
13
1246.2613360087728
23
1246.350734820343
0
SOLID
8
0
10
1233.1167358081148
20
1239.1244297088174
11
1246.2613360087728
21
1246.350734820343
12
1231.2146997001212
22
1242.5
13
1244.2050807568878
23
1250.0
0
SOLID
8
0
10
1231.2146997001212
20
1242.5
11
1244.2050807568878
21
1250.0
12
1229.2423881296936
22
1245.8349967340291
13
1242.0728520321015
23
1253.6054018746263
0
SOLID
8
0
10
1229.2423881296938
20
1245.834996734029
11
1242.0728520321013
21
1253.6054018746258
12
1227.2006662178728
22
1249.1279570711142
13
1239.865585100403
23
1257.1653589957994
0
SOLID
8
0
10
1227.2006662178728
20
1249.1279570711145
11
1239.865585100403
21
1257.1653589957994
12
1225.0904295313683
22
1252.3774366100185
13
1237.58424814202
23
1260.678309848669
0
SOLID
8
0
10
1225.0904295313685
20
1252.3774366100185
11
1237.58424814202
21
1260.6783098486687
12
1222.912603689735
22
1255.58201002162
13
1235.2298418267408
23
1264.1427135368865
0
SOLID
8
0
10
1222.9126036897353
20
1255.58201002162
11
1235.2298418267408
21
1264.1427135368863
12
1220.6681439593654
22
1258.7402716741076
13
1232.8033988749894
23
1267.5570504584946
0
SOLID
8
0
10
1220.6681439593654
20
1258.7402716741076
11
1232.8033988749894
21
1267.5570504584946
12
1218.358034834476
22
1261.8508362495395
13
1230.3059836048392
23
1270.9198229724752
0
SOLID
8
0
10
1218.3580348344763
20
1261.8508362495393
11
1230.3059836048392
21
1270.919822972475
12
1215.9832896052803
22
1264.9123393514876
13
1227.738691465168
23
1274.229556055662
0
SOLID
8
0
10
1215.9832896052803
20
1264.9123393514874
11
1227.738691465168
21
1274.229556055662
12
1213.544949913521
22
1267.9234381035078
13
1225.1026485551579
23
1277.484797949738
0
SOLID
8
0
10
1213.5449499135211
20
1267.9234381035076
11
1225.1026485551579
21
1277.4847979497379
12
1211.0440852955749
22
1270.8828117381695
13
1222.3990111303513
23
1280.6841207980212
0
SOLID
8
0
10
1211.0440852955749
20
1270.8828117381695
11
1222.3990111303513
21
1280.684120798021
12
1208.481792713318
22
1273.7891621763888
13
1219.6289650954789
23
1283.8261212717716
0
SOLID
8
0
10
1208.4817927133179
20
1273.7891621763888
11
1219.6289650954789
21
1283.8261212717716
12
1205.8591960729611
22
1276.6412145968075
13
1216.7937254842823
23
1286.9094211857378
0
SOLID
8
0
10
1205.8591960729611
20
1276.6412145968075
11
1216.7937254842823
21
1286.9094211857378
12
1203.1774457320685
22
1279.4377179949727
13
1213.8945359265608
23
1289.9326681026732
0
SOLID
8
0
10
1203.1774457320687
20
1279.4377179949727
11
1213.8945359265606
21
1289.932668102673
12
1200.4377179949727
22
1282.1774457320687
13
1210.932668102673
23
1292.8945359265608
0
SOLID
8
0
10
1200.4377179949727
20
1282.1774457320685
11
1210.9326681026732
21
1292.8945359265606
12
1197.6412145968072
22
1284.8591960729611
13
1207.9094211857378
23
1295.7937254842825
0
SOLID
8
0
10
1197.6412145968075
20
1284.8591960729611
11
1207.9094211857378
21
1295.7937254842823
12
1194.7891621763886
22
1287.481792713318
13
1204.8261212717716
23
1298.6289650954789
0
SOLID
8
0
10
1194.7891621763888
20
1287.4817927133179
11
1204.8261212717716
21
1298.6289650954789
12
1191.8828117381695
22
1290.0440852955749
13
1201.684120798021
23
1301.3990111303515
0
SOLID
8
0
10
1191.8828117381695
20
1290.0440852955749
11
1201.684120798021
21
1301.3990111303513
12
1188.9234381035076
22
1292.544949913521
13
1198.4847979497379
23
1304.1026485551579
0
SOLID
8
0
10
1188.9234381035076
20
1292.544949913521
11
1198.4847979497379
21
1304.1026485551579
12
1185.9123393514874
22
1294.9832896052803
13
1195.229556055662
23
1306.7386914651681
0
SOLID
8
0
10
1185.9123393514874
20
1294.9832896052803
11
1195.2295560556622
21
1306.738691465168
12
1182.8508362495393
22
1297.3580348344765
13
1191.9198229724748
23
1309.3059836048392
0
SOLID
8
0
10
1182.8508362495395
20
1297.3580348344763
11
1191.919822972475
21
1309.3059836048392
12
1179.7402716741074
22
1299.6681439593654
13
1188.5570504584948
23
1311.8033988749894
0
SOLID
8
0
10
1179.7402716741076
20
1299.6681439593654
11
1188.5570504584946
21
1311.8033988749894
12
1176.5820100216197
22
1301.9126036897353
13
1185.1427135368863
23
1314.229841826741
0
SOLID
8
0
10
1176.58201002162
20
1301.912603689735
11
1185.1427135368865
21
1314.2298418267408
12
1173.3774366100185
22
1304.0904295313683
13
1181.678309848669
23
1316.58424814202
0
SOLID
8
0
10
1173.3774366100188
20
1304.0904295313685
11
1181.6783098486687
21
1316.58424814202
12
1170.1279570711142
22
1306.2006662178728
13
1178.1653589957994
23
1318.865585100403
0
SOLID
8
0
10
1170.1279570711145
20
1306.2006662178728
11
1178.1653589957994
21
1318.865585100403
12
1166.8349967340291
22
1308.2423881296938
13
1174.6054018746258
23
1321.0728520321013
0
SOLID
8
0
10
1166.8349967340291
20
1308.2423881296936
11
1174.605401874626
21
1321.0728520321013
12
1163.5
22
1310.2146997001212
13
1171.0
23
1323.2050807568878
0
SOLID
8
0
10
1163.5
20
1310.2146997001212
11
1171.0
21
1323.2050807568878
12
1160.1244297088174
22
1312.1167358081148
13
1167.350734820343
23
1325.2613360087728
0
SOLID
8
0
10
1160.1244297088174
20
1312.1167358081148
11
1167.3507348203432
21
1325.2613360087728
12
1156.7097664971743
22
1313.9476621577746
13
1163.6592070239724
23
1327.240715846243
0
SOLID
8
0
10
1156.7097664971743
20
1313.9476621577746
11
1163.6592070239724
21
1327.240715846243
12
1153.2575081492114
22
1315.7066756442914
13
1159.9270358369854
23
1329.1423520478827
0
SOLID
8
0
10
1153.2575081492116
20
1315.7066756442914
11
1159.9270358369856
21
1329.1423520478825
12
1149.7691689395385
22
1317.3930047062136
13
1156.1558583130145
23
1330.9654104932038
0
SOLID
8
0
10
1149.7691689395385
20
1317.3930047062136
11
1156.1558583130145
21
1330.9654104932038
12
1146.246278969023
22
1319.005909663881
13
1152.34732861516
23
1332.7090915285203
0
SOLID
8
0
10
1146.246278969023
20
1319.005909663881
11
1152.34732861516
21
1332.7090915285203
12
1142.690383493639
22
1320.5446830438727
13
1148.5031172904205
23
1334.3726303177002
0
SOLID
8
0
10
1142.690383493639
20
1320.5446830438725
11
1148.5031172904207
21
1334.3726303177
12
1139.1030422466654
22
1322.0086498893265
13
1144.6249105369357
23
1335.9552971776504
0
SOLID
8
0
10
1139.1030422466654
20
1322.0086498893265
11
1144.6249105369357
21
1335.9552971776502
12
1135.4858287545355
22
1323.397168056
13
1140.714409464363
23
1337.4563978983783
0
SOLID
8
0
10
1135.4858287545358
20
1323.3971680559998
11
1140.7144094643631
21
1337.4563978983783
12
1131.8403296466379
22
1324.709628493934
13
1136.7733293477168
23
1338.875274047496
0
SOLID
8
0
10
1131.8403296466379
20
1324.709628493934
11
1136.7733293477168
21
1338.875274047496
12
1128.1681439593651
22
1325.9454555146035
13
1132.8033988749894
23
1340.211303259031
0
SOLID
8
0
10
1128.1681439593654
20
1325.9454555146035
11
1132.8033988749894
21
1340.2113032590307
12
1124.4708824347272
22
1327.1041070434326
13
1128.8063593888942
23
1341.4638995064136
0
SOLID
8
0
10
1124.4708824347274
20
1327.1041070434324
11
1128.8063593888944
21
1341.4638995064133
12
1120.750166813824
22
1328.1850748575669
13
1124.7839641230532
23
1342.6325133595317
0
SOLID
8
0
10
1120.750166813824
20
1328.1850748575666
11
1124.7839641230532
21
1342.6325133595317
12
1117.007629125498
22
1329.1878848087968
13
1120.7379774329709
23
1343.7166322257262
0
SOLID
8
0
10
1117.0076291254982
20
1329.1878848087968
11
1120.7379774329709
21
1343.7166322257262
12
1113.2449109704712
22
1330.1120970315346
13
1116.6701740221313
23
1344.7157805746322
0
SOLID
8
0
10
1113.2449109704714
20
1330.1120970315346
11
1116.6701740221313
21
1344.715780574632
12
1109.4636628012854
22
1330.9573061357542
13
1112.5823381635519
23
1345.629520146761
0
SOLID
8
0
10
1109.4636628012854
20
1330.9573061357542
11
1112.5823381635519
21
1345.629520146761
12
1105.6655431983588
22
1331.7231413848076
13
1108.4762629171448
23
1346.4574501457378
0
SOLID
8
0
10
1105.665543198359
20
1331.7231413848074
11
1108.4762629171448
21
1346.4574501457378
12
1101.852218142479
22
1332.4092668580433
13
1104.3537493432204
23
1347.199207414101
0
SOLID
8
0
10
1101.852218142479
20
1332.4092668580433
11
1104.3537493432204
21
1347.199207414101
12
1098.025360284046
22
1333.0153815981528
13
1100.2166057124823
23
1347.8544665925979
0
SOLID
8
0
10
1098.0253602840462
20
1333.0153815981528
11
1100.2166057124823
21
1347.8544665925976
12
1094.1866482093963
22
1333.5412197431783
13
1096.0666467128608
23
1348.4229402628955
0
SOLID
8
0
10
1094.1866482093963
20
1333.5412197431783
11
1096.0666467128608
21
1348.4229402628955
12
1090.3377657045157
22
1333.9865506431304
13
1091.9056926535307
23
1348.9043790736548
0
SOLID
8
0
10
1090.337765704516
20
1333.9865506431306
11
1091.9056926535307
21
1348.9043790736546
12
1086.4804010164785
22
1334.3511789611584
13
1087.735568666463
23
1349.298571849901
0
SOLID
8
0
10
1086.4804010164785
20
1334.3511789611582
11
1087.7355686664632
21
1349.2985718499008
12
1082.616246112923
22
1334.6349447592302
13
1083.5581039058627
23
1349.6053456856544
0
SOLID
8
0
10
1082.616246112923
20
1334.6349447592302
11
1083.5581039058627
21
1349.6053456856544
12
1078.7469959399018
22
1334.8377235682888
13
1079.3751307458397
23
1349.8245660197717
0
SOLID
8
0
10
1078.746995939902
20
1334.8377235682888
11
1079.37513074584
21
1349.8245660197717
12
1074.874347678421
22
1334.9594264428465
13
1075.1884839766715
23
1349.9561366949692
0
SOLID
8
0
10
1074.8743476784211
20
1334.9594264428465
11
1075.1884839766715
21
1349.956136694969
12
1071.0
22
1335.0
13
1071.0
23
1350.0
0
SOLID
8
0
10
1071.0
20
950.0
11
1071.0
21
935.0
12
1075.1884839766715
22
950.0438633050309
13
1075.5026202749218
23
935.0471530529082
0
SOLID
8
0
10
1075.1884839766715
20
950.0438633050309
11
1075.5026202749218
21
935.0471530529082
12
1079.3751307458401
22
950.1754339802283
13
1080.003265551778
23
935.1885915287454
0
SOLID
8
0
10
1079.37513074584
20
950.1754339802283
11
1080.003265551778
21
935.1885915287454
12
1083.5581039058627
22
950.3946543143456
13
1084.4999616988025
23
935.4242533879217
0
SOLID
8
0
10
1083.5581039058627
20
950.3946543143456
11
1084.4999616988023
21
935.4242533879217
12
1087.7355686664632
22
950.7014281500992
13
1088.990736316448
23
935.7540352613566
0
SOLID
8
0
10
1087.735568666463
20
950.7014281500991
11
1088.9907363164477
21
935.7540352613565
12
1091.9056926535309
22
951.0956209263454
13
1093.4736196025456
23
936.1777924958212
0
SOLID
8
0
10
1091.9056926535307
20
951.0956209263453
11
1093.4736196025456
21
936.1777924958212
12
1096.066646712861
22
951.5770597371045
13
1097.9466452163254
23
936.6953392173874
0
SOLID
8
0
10
1096.0666467128608
20
951.5770597371045
11
1097.9466452163254
21
936.6953392173873
12
1100.2166057124825
22
952.1455334074024
13
1102.4078511409186
23
937.3064484129575
0
SOLID
8
0
10
1100.2166057124823
20
952.1455334074024
11
1102.4078511409184
21
937.3064484129575
12
1104.3537493432204
22
952.800792585899
13
1106.855280543962
23
938.0108520298413
0
SOLID
8
0
10
1104.3537493432204
20
952.800792585899
11
1106.855280543962
21
938.0108520298414
12
1108.476262917145
22
953.5425498542623
13
1111.286982635931
23
938.8082410933318
0
SOLID
8
0
10
1108.4762629171448
20
953.5425498542622
11
1111.2869826359308
21
938.808241093332
12
1112.5823381635519
22
954.3704798532387
13
1115.7010135258183
23
939.6982658422318
0
SOLID
8
0
10
1112.5823381635519
20
954.3704798532389
11
1115.7010135258183
21
939.6982658422318
12
1116.6701740221313
22
955.284219425368
13
1120.0954370737911
23
940.6805358822705
0
SOLID
8
0
10
1116.670174022131
20
955.284219425368
11
1120.095437073791
21
940.6805358822705
12
1120.737977432971
22
956.2833677742736
13
1124.4683257404438
23
941.7546203573444
0
SOLID
8
0
10
1120.7379774329709
20
956.2833677742738
11
1124.4683257404438
21
941.7546203573443
12
1124.783964123053
22
957.3674866404683
13
1128.8177614322822
23
942.9200481385035
0
SOLID
8
0
10
1124.7839641230532
20
957.3674866404683
11
1128.8177614322822
21
942.9200481385035
12
1128.8063593888944
22
958.5361004935866
13
1133.1418363430614
23
944.1763080306055
0
SOLID
8
0
10
1128.8063593888944
20
958.5361004935866
11
1133.1418363430614
21
944.1763080306056
12
1132.8033988749896
22
959.7886967409693
13
1137.4386537906137
23
945.5228489965419
0
SOLID
8
0
10
1132.8033988749894
20
959.7886967409693
11
1137.4386537906137
21
945.522848996542
12
1136.7733293477168
22
961.1247259525038
13
1141.7063290487954
23
946.9590803989418
0
SOLID
8
0
10
1136.7733293477168
20
961.1247259525038
11
1141.7063290487954
21
946.9590803989415
12
1140.7144094643631
22
962.5436021016218
13
1145.9429901741903
23
948.4843722592434
0
SOLID
8
0
10
1140.7144094643631
20
962.5436021016217
11
1145.9429901741903
21
948.4843722592433
12
1144.6249105369357
22
964.0447028223497
13
1150.1467788272057
23
950.0980555340259
0
SOLID
8
0
10
1144.6249105369357
20
964.0447028223497
11
1150.1467788272057
21
950.0980555340259
12
1148.5031172904207
22
965.6273696822999
13
1154.3158510872022
23
951.7994224084724
0
SOLID
8
0
10
1148.5031172904205
20
965.6273696822999
11
1154.3158510872022
21
951.7994224084724
12
1152.3473286151602
22
967.29090847148
13
1158.448378261297
23
953.5877266068409
0
SOLID
8
0
10
1152.34732861516
20
967.2909084714798
11
1158.448378261297
21
953.5877266068408
12
1156.1558583130145
22
969.034589506796
13
1162.5425476864907
23
955.4621837198058
0
SOLID
8
0
10
1156.1558583130145
20
969.0345895067961
11
1162.5425476864907
21
955.4621837198058
12
1159.9270358369856
22
970.8576479521175
13
1166.5965635247594
23
957.4219715485262
0
SOLID
8
0
10
1159.9270358369854
20
970.8576479521174
11
1166.5965635247594
21
957.4219715485262
12
1163.6592070239726
22
972.759284153757
13
1170.6086475507702
23
959.466230465289
0
SOLID
8
0
10
1163.6592070239724
20
972.7592841537571
11
1170.6086475507702
21
959.4662304652888
12
1167.350734820343
22
974.7386639912272
13
1174.577039931869
23
961.5940637905694
0
SOLID
8
0
10
1167.350734820343
20
974.7386639912272
11
1174.5770399318687
21
961.5940637905693
12
1171.0
22
976.7949192431123
13
1178.5
23
963.8045381863458
0
SOLID
8
0
10
1171.0
20
976.7949192431122
11
1178.5
21
963.8045381863457
12
1174.6054018746263
22
978.9271479678986
13
1182.375807015223
23
966.0966840654911
0
SOLID
8
0
10
1174.605401874626
20
978.9271479678987
11
1182.375807015223
21
966.096684065491
12
1178.1653589957996
22
981.134414899597
13
1186.2027609204843
23
968.4694960170667
0
SOLID
8
0
10
1178.1653589957994
20
981.134414899597
11
1186.2027609204843
21
968.4694960170667
12
1181.678309848669
22
983.41575185798
13
1189.979183087319
23
970.9219332473286
0
SOLID
8
0
10
1181.6783098486687
20
983.4157518579801
11
1189.979183087319
21
970.9219332473286
12
1185.1427135368865
22
985.7701581732592
13
1193.7034170521529
23
973.4529200362538
0
SOLID
8
0
10
1185.1427135368863
20
985.7701581732592
11
1193.7034170521529
21
973.4529200362537
12
1188.5570504584946
22
988.1966011250106
13
1197.3738292428818
23
976.0613462093863
0
SOLID
8
0
10
1188.5570504584946
20
988.1966011250105
11
1197.3738292428818
21
976.0613462093863
12
1191.9198229724752
22
990.6940163951608
13
1200.9888096954107
23
978.7460676247979
0
SOLID
8
0
10
1191.919822972475
20
990.6940163951607
11
1200.9888096954105
21
978.7460676247978
12
1195.229556055662
22
993.261308534832
13
1204.5467727598366
23
981.5059066749445
0
SOLID
8
0
10
1195.229556055662
20
993.2613085348321
11
1204.5467727598368
21
981.5059066749444
12
1198.484797949738
22
995.8973514448421
13
1208.0461577959682
23
984.3396528032054
0
SOLID
8
0
10
1198.4847979497379
20
995.8973514448421
11
1208.0461577959684
21
984.3396528032054
12
1201.6841207980212
22
998.6009888696487
13
1211.4854298578728
23
987.2460630348723
0
SOLID
8
0
10
1201.684120798021
20
998.6009888696487
11
1211.4854298578725
21
987.2460630348723
12
1204.8261212717719
22
1001.3710349045213
13
1214.8630803671545
23
990.2238625223603
0
SOLID
8
0
10
1204.8261212717716
20
1001.3710349045211
11
1214.8630803671545
21
990.2238625223603
12
1207.9094211857378
22
1004.2062745157177
13
1218.177627774668
23
993.2717451043967
0
SOLID
8
0
10
1207.9094211857378
20
1004.2062745157177
11
1218.177627774668
21
993.2717451043966
12
1210.9326681026732
22
1007.1054640734394
13
1221.4276182103736
23
996.3883738789473
0
SOLID
8
0
10
1210.932668102673
20
1007.1054640734393
11
1221.4276182103736
21
996.3883738789473
12
1213.8945359265608
22
1010.067331897327
13
1224.6116261210527
23
999.5723817896265
0
SOLID
8
0
10
1213.8945359265608
20
1010.067331897327
11
1224.6116261210527
21
999.5723817896264
12
1216.7937254842825
22
1013.0905788142624
13
1227.7282548956036
23
1002.822372225332
0
SOLID
8
0
10
1216.7937254842823
20
1013.0905788142622
11
1227.7282548956034
21
1002.822372225332
12
1219.6289650954789
22
1016.1738787282284
13
1230.7761374776396
23
1006.1369196328455
0
SOLID
8
0
10
1219.6289650954789
20
1016.1738787282284
11
1230.7761374776396
21
1006.1369196328455
12
1222.3990111303515
22
1019.315879201979
13
1233.7539369651277
23
1009.5145701421275
0
SOLID
8
0
10
1222.3990111303513
20
1019.3158792019789
11
1233.7539369651277
21
1009.5145701421274
12
1225.1026485551579
22
1022.5152020502621
13
1236.6603471967946
23
1012.9538422040317
0
SOLID
8
0
10
1225.1026485551579
20
1022.515202050262
11
1236.6603471967946
21
1012.9538422040316
12
1227.7386914651681
22
1025.770443944338
13
1239.4940933250555
23
1016.4532272401632
0
SOLID
8
0
10
1227.738691465168
20
1025.770443944338
11
1239.4940933250555
21
1016.4532272401633
12
1230.3059836048392
22
1029.0801770275252
13
1242.253932375202
23
1020.0111903045894
0
SOLID
8
0
10
1230.3059836048392
20
1029.080177027525
11
1242.253932375202
21
1020.0111903045894
12
1232.8033988749894
22
1032.4429495415054
13
1244.938653790614
23
1023.6261707571183
0
SOLID
8
0
10
1232.8033988749894
20
1032.4429495415054
11
1244.9386537906137
21
1023.6261707571183
12
1235.229841826741
22
1035.8572864631137
13
1247.5470799637465
23
1027.2965829478474
0
SOLID
8
0
10
1235.2298418267408
20
1035.8572864631137
11
1247.5470799637465
21
1027.2965829478471
12
1237.58424814202
22
1039.321690151331
13
1250.0780667526712
23
1031.020816912681
0
SOLID
8
0
10
1237.58424814202
20
1039.3216901513313
11
1250.0780667526715
21
1031.020816912681
12
1239.865585100403
22
1042.8346410042006
13
1252.5305039829334
23
1034.7972390795157
0
SOLID
8
0
10
1239.865585100403
20
1042.8346410042006
11
1252.5305039829332
21
1034.7972390795157
12
1242.0728520321013
22
1046.3945981253742
13
1254.9033159345088
23
1038.624192984777
0
SOLID
8
0
10
1242.0728520321013
20
1046.394598125374
11
1254.903315934509
21
1038.624192984777
12
1244.2050807568878
22
1050.0
13
1257.1954618136542
23
1042.5
0
SOLID
8
0
10
1244.2050807568878
20
1050.0
11
1257.1954618136542
21
1042.5
12
1246.261336008773
22
1053.649265179657
13
1259.4059362094306
23
1046.4229600681313
0
SOLID
8
0
10
1246.2613360087728
20
1053.649265179657
11
1259.4059362094306
21
1046.4229600681313
12
1248.2407158462431
22
1057.3407929760278
13
1261.5337695347112
23
1050.3913524492298
0
SOLID
8
0
10
1248.240715846243
20
1057.3407929760276
11
1261.5337695347112
21
1050.3913524492298
12
1250.1423520478827
22
1061.0729641630144
13
1263.5780284514738
23
1054.4034364752406
0
SOLID
8
0
10
1250.1423520478825
20
1061.0729641630146
11
1263.5780284514738
21
1054.4034364752406
12
1251.965410493204
22
1064.8441416869855
13
1265.5378162801944
23
1058.4574523135095
0
SOLID
8
0
10
1251.965410493204
20
1064.8441416869855
11
1265.5378162801942
21
1058.4574523135093
12
1253.7090915285203
22
1068.65267138484
13
1267.4122733931592
23
1062.551621738703
0
SOLID
8
0
10
1253.7090915285203
20
1068.65267138484
11
1267.4122733931592
21
1062.551621738703
12
1255.3726303177002
22
1072.4968827095795
13
1269.2005775915275
23
1066.6841489127978
0
SOLID
8
0
10
1255.3726303177
20
1072.4968827095795
11
1269.2005775915277
21
1066.6841489127978
12
1256.9552971776504
22
1076.3750894630643
13
1270.901944465974
23
1070.8532211727943
0
SOLID
8
0
10
1256.9552971776502
20
1076.3750894630643
11
1270.901944465974
21
1070.8532211727943
12
1258.4563978983783
22
1080.285590535637
13
1272.5156277407566
23
1075.05700982581
0
SOLID
8
0
10
1258.4563978983783
20
1080.2855905356369
11
1272.5156277407566
21
1075.0570098258097
12
1259.875274047496
22
1084.2266706522832
13
1274.0409196010585
23
1079.2936709512046
0
SOLID
8
0
10
1259.875274047496
20
1084.2266706522832
11
1274.0409196010585
21
1079.2936709512046
12
1261.211303259031
22
1088.1966011250106
13
1275.4771510034582
23
1083.5613462093863
0
SOLID
8
0
10
1261.2113032590307
20
1088.1966011250106
11
1275.477151003458
21
1083.5613462093863
12
1262.4638995064136
22
1092.1936406111058
13
1276.8236919693945
23
1087.8581636569388
0
SOLID
8
0
10
1262.4638995064133
20
1092.1936406111056
11
1276.8236919693945
21
1087.8581636569386
12
1263.6325133595317
22
1096.2160358769468
13
1278.0799518614963
23
1092.182238567718
0
SOLID
8
0
10
1263.6325133595317
20
1096.2160358769468
11
1278.0799518614965
21
1092.1822385677178
12
1264.7166322257262
22
1100.2620225670291
13
1279.2453796426557
23
1096.5316742595562
0
SOLID
8
0
10
1264.7166322257262
20
1100.262022567029
11
1279.2453796426557
21
1096.5316742595562
12
1265.7157805746322
22
1104.3298259778687
13
1280.3194641177295
23
1100.904562926209
0
SOLID
8
0
10
1265.715780574632
20
1104.3298259778687
11
1280.3194641177295
21
1100.9045629262089
12
1266.629520146761
22
1108.4176618364481
13
1281.3017341577681
23
1105.298986474182
0
SOLID
8
0
10
1266.629520146761
20
1108.4176618364481
11
1281.3017341577681
21
1105.2989864741817
12
1267.4574501457378
22
1112.5237370828552
13
1282.1917589066682
23
1109.7130173640692
0
SOLID
8
0
10
1267.4574501457378
20
1112.5237370828552
11
1282.1917589066682
21
1109.7130173640692
12
1268.199207414101
22
1116.6462506567796
13
1282.9891479701585
23
1114.1447194560383
0
SOLID
8
0
10
1268.199207414101
20
1116.6462506567796
11
1282.9891479701585
21
1114.144719456038
12
1268.8544665925979
22
1120.7833942875177
13
1283.6935515870425
23
1118.5921488590816
0
SOLID
8
0
10
1268.8544665925976
20
1120.7833942875177
11
1283.6935515870425
21
1118.5921488590814
12
1269.4229402628955
22
1124.9333532871392
13
1284.3046607826127
23
1123.0533547836746
0
SOLID
8
0
10
1269.4229402628955
20
1124.9333532871392
11
1284.3046607826127
21
1123.0533547836746
12
1269.9043790736548
22
1129.0943073464693
13
1284.8222075041788
23
1127.5263803974547
0
SOLID
8
0
10
1269.9043790736546
20
1129.0943073464693
11
1284.8222075041788
21
1127.5263803974544
12
1270.298571849901
22
1133.264431333537
13
1285.2459647386436
23
1132.0092636835523
0
SOLID
8
0
10
1270.2985718499008
20
1133.264431333537
11
1285.2459647386434
21
1132.0092636835523
12
1270.6053456856544
22
1137.4418960941375
13
1285.5757466120783
23
1136.5000383011975
0
SOLID
8
0
10
1270.6053456856544
20
1137.4418960941373
11
1285.5757466120783
21
1136.5000383011975
12
1270.8245660197717
22
1141.6248692541603
13
1285.8114084712545
23
1140.996734448222
0
SOLID
8
0
10
1270.8245660197717
20
1141.62486925416
11
1285.8114084712545
21
1140.996734448222
12
1270.9561366949692
22
1145.8115160233285
13
1285.9528469470918
23
1145.4973797250782
0
SOLID
8
0
10
1270.956136694969
20
1145.8115160233285
11
1285.9528469470918
21
1145.4973797250782
12
1271.0
22
1150.0
13
1286.0
23
1150.0
0
SOLID
8
0
10
1271.0
20
1150.0
11
1286.0
21
1150.0
12
1270.9561366949692
22
1154.1884839766715
13
1285.9528469470918
23
1154.5026202749218
0
SOLID
8
0
10
1270.956136694969
20
1154.1884839766715
11
1285.9528469470918
21
1154.5026202749218
12
1270.8245660197717
22
1158.3751307458401
13
1285.8114084712547
23
1159.003265551778
0
SOLID
8
0
10
1270.8245660197717
20
1158.37513074584
11
1285.8114084712545
21
1159.003265551778
12
1270.6053456856544
22
1162.5581039058627
13
1285.5757466120783
23
1163.4999616988025
0
SOLID
8
0
10
1270.6053456856544
20
1162.5581039058627
11
1285.5757466120783
21
1163.4999616988023
12
1270.2985718499008
22
1166.7355686664632
13
1285.2459647386434
23
1167.9907363164477
0
SOLID
8
0
10
1270.2985718499008
20
1166.735568666463
11
1285.2459647386434
21
1167.9907363164477
12
1269.9043790736546
22
1170.9056926535309
13
1284.8222075041788
23
1172.4736196025453
0
SOLID
8
0
10
1269.9043790736546
20
1170.9056926535307
11
1284.8222075041788
21
1172.4736196025456
12
1269.4229402628955
22
1175.066646712861
13
1284.3046607826127
23
1176.9466452163254
0
SOLID
8
0
10
1269.4229402628955
20
1175.0666467128608
11
1284.3046607826127
21
1176.9466452163254
12
1268.8544665925976
22
1179.2166057124825
13
1283.6935515870425
23
1181.4078511409186
0
SOLID
8
0
10
1268.8544665925976
20
1179.2166057124823
11
1283.6935515870425
21
1181.4078511409184
12
1268.199207414101
22
1183.3537493432204
13
1282.9891479701587
23
1185.855280543962
0
SOLID
8
0
10
1268.199207414101
20
1183.3537493432204
11
1282.9891479701587
21
1185.855280543962
12
1267.4574501457378
22
1187.476262917145
13
1282.1917589066682
23
1190.286982635931
0
SOLID
8
0
10
1267.4574501457378
20
1187.4762629171448
11
1282.1917589066682
21
1190.2869826359308
12
1266.6295201467613
22
1191.5823381635519
13
1281.3017341577681
23
1194.7010135258183
0
SOLID
8
0
10
1266.629520146761
20
1191.5823381635519
11
1281.3017341577684
21
1194.7010135258183
12
1265.715780574632
22
1195.6701740221313
13
1280.3194641177295
23
1199.095437073791
0
SOLID
8
0
10
1265.715780574632
20
1195.670174022131
11
1280.3194641177295
21
1199.095437073791
12
1264.7166322257262
22
1199.737977432971
13
1279.2453796426557
23
1203.4683257404438
0
SOLID
8
0
10
1264.7166322257262
20
1199.7379774329709
11
1279.2453796426557
21
1203.4683257404438
12
1263.6325133595317
22
1203.783964123053
13
1278.0799518614965
23
1207.8177614322822
0
SOLID
8
0
10
1263.6325133595317
20
1203.783964123053
11
1278.0799518614965
21
1207.8177614322822
12
1262.4638995064133
22
1207.8063593888944
13
1276.8236919693945
23
1212.1418363430614
0
SOLID
8
0
10
1262.4638995064136
20
1207.8063593888942
11
1276.8236919693945
21
1212.1418363430614
12
1261.2113032590307
22
1211.8033988749894
13
1275.4771510034582
23
1216.4386537906137
0
SOLID
8
0
10
1261.2113032590307
20
1211.8033988749894
11
1275.477151003458
21
1216.4386537906137
12
1259.8752740474963
22
1215.7733293477168
13
1274.0409196010582
23
1220.7063290487954
0
SOLID
8
0
10
1259.8752740474963
20
1215.7733293477168
11
1274.0409196010585
21
1220.7063290487954
12
1258.4563978983783
22
1219.7144094643631
13
1272.5156277407566
23
1224.9429901741903
0
SOLID
8
0
10
1258.4563978983783
20
1219.714409464363
11
1272.5156277407566
21
1224.9429901741903
12
1256.9552971776504
22
1223.6249105369357
13
1270.901944465974
23
1229.1467788272057
0
SOLID
8
0
10
1256.9552971776502
20
1223.6249105369357
11
1270.901944465974
21
1229.1467788272057
12
1255.3726303177
22
1227.5031172904207
13
1269.2005775915277
23
1233.3158510872022
0
SOLID
8
0
10
1255.3726303177
20
1227.5031172904205
11
1269.2005775915277
21
1233.3158510872022
12
1253.70909152852
22
1231.3473286151602
13
1267.4122733931592
23
1237.448378261297
0
SOLID
8
0
10
1253.7090915285203
20
1231.34732861516
11
1267.4122733931592
21
1237.448378261297
12
1251.965410493204
22
1235.1558583130145
13
1265.5378162801942
23
1241.5425476864907
0
SOLID
8
0
10
1251.965410493204
20
1235.1558583130145
11
1265.5378162801942
21
1241.5425476864905
12
1250.1423520478825
22
1238.9270358369856
13
1263.5780284514738
23
1245.5965635247594
0
SOLID
8
0
10
1250.1423520478827
20
1238.9270358369854
11
1263.5780284514738
21
1245.5965635247594
12
1248.2407158462431
22
1242.6592070239724
13
1261.5337695347112
23
1249.6086475507702
0
SOLID
8
0
10
1248.240715846243
20
1242.6592070239724
11
1261.5337695347112
21
1249.6086475507702
12
1246.2613360087728
22
1246.350734820343
13
1259.4059362094306
23
1253.5770399318687
0
SOLID
8
0
10
1246.2613360087728
20
1246.350734820343
11
1259.4059362094308
21
1253.5770399318687
12
1244.2050807568878
22
1250.0
13
1257.1954618136542
23
1257.5
0
SOLID
8
0
10
1244.2050807568878
20
1250.0
11
1257.1954618136542
21
1257.5
12
1242.0728520321015
22
1253.6054018746263
13
1254.903315934509
23
1261.375807015223
0
SOLID
8
0
10
1242.0728520321013
20
1253.6054018746258
11
1254.903315934509
21
1261.3758070152228
12
1239.865585100403
22
1257.1653589957994
13
1252.5305039829332
23
1265.202760920484
0
SOLID
8
0
10
1239.865585100403
20
1257.1653589957994
11
1252.5305039829332
21
1265.2027609204843
12
1237.58424814202
22
1260.678309848669
13
1250.0780667526715
23
1268.979183087319
0
SOLID
8
0
10
1237.58424814202
20
1260.6783098486687
11
1250.0780667526715
21
1268.979183087319
12
1235.2298418267408
22
1264.1427135368865
13
1247.5470799637462
23
1272.7034170521529
0
SOLID
8
0
10
1235.2298418267408
20
1264.1427135368863
11
1247.5470799637465
21
1272.7034170521529
12
1232.8033988749894
22
1267.5570504584946
13
1244.9386537906137
23
1276.3738292428818
0
SOLID
8
0
10
1232.8033988749894
20
1267.5570504584946
11
1244.9386537906137
21
1276.3738292428816
12
1230.3059836048392
22
1270.9198229724752
13
1242.253932375202
23
1279.9888096954107
0
SOLID
8
0
10
1230.3059836048392
20
1270.919822972475
11
1242.253932375202
21
1279.9888096954105
12
1227.738691465168
22
1274.229556055662
13
1239.4940933250555
23
1283.5467727598366
0
SOLID
8
0
10
1227.738691465168
20
1274.229556055662
11
1239.4940933250555
21
1283.5467727598368
12
1225.1026485551579
22
1277.484797949738
13
1236.6603471967946
23
1287.0461577959682
0
SOLID
8
0
10
1225.1026485551579
20
1277.4847979497379
11
1236.6603471967946
21
1287.0461577959682
12
1222.3990111303513
22
1280.6841207980212
13
1233.7539369651277
23
1290.4854298578725
0
SOLID
8
0
10
1222.3990111303513
20
1280.684120798021
11
1233.7539369651277
21
1290.4854298578725
12
1219.6289650954789
22
1283.8261212717716
13
1230.7761374776396
23
1293.8630803671545
0
SOLID
8
0
10
1219.6289650954789
20
1283.8261212717716
11
1230.7761374776398
21
1293.8630803671545
12
1216.7937254842823
22
1286.9094211857378
13
1227.7282548956032
23
1297.177627774668
0
SOLID
8
0
10
1216.7937254842823
20
1286.9094211857378
11
1227.7282548956036
21
1297.177627774668
12
1213.8945359265608
22
1289.9326681026732
13
1224.6116261210527
23
1300.4276182103736
0
SOLID
8
0
10
1213.8945359265606
20
1289.932668102673
11
1224.6116261210527
21
1300.4276182103736
12
1210.932668102673
22
1292.8945359265608
13
1221.4276182103736
23
1303.6116261210527
0
SOLID
8
0
10
1210.9326681026732
20
1292.8945359265606
11
1221.4276182103736
21
1303.6116261210527
12
1207.9094211857378
22
1295.7937254842825
13
1218.177627774668
23
1306.7282548956034
0
SOLID
8
0
10
1207.9094211857378
20
1295.7937254842823
11
1218.177627774668
21
1306.7282548956034
12
1204.8261212717716
22
1298.6289650954789
13
1214.8630803671545
23
1309.7761374776396
0
SOLID
8
0
10
1204.8261212717716
20
1298.6289650954789
11
1214.8630803671545
21
1309.7761374776396
12
1201.684120798021
22
1301.3990111303515
13
1211.4854298578725
23
1312.7539369651277
0
SOLID
8
0
10
1201.684120798021
20
1301.3990111303513
11
1211.4854298578728
21
1312.7539369651277
12
1198.4847979497379
22
1304.1026485551579
13
1208.0461577959682
23
1315.6603471967946
0
SOLID
8
0
10
1198.4847979497379
20
1304.1026485551579
11
1208.0461577959684
21
1315.6603471967946
12
1195.229556055662
22
1306.7386914651681
13
1204.5467727598368
23
1318.4940933250555
0
SOLID
8
0
10
1195.2295560556622
20
1306.738691465168
11
1204.5467727598368
21
1318.4940933250555
12
1191.9198229724748
22
1309.3059836048392
13
1200.9888096954107
23
1321.253932375202
0
SOLID
8
0
10
1191.919822972475
20
1309.3059836048392
11
1200.9888096954107
21
1321.253932375202
12
1188.5570504584948
22
1311.8033988749894
13
1197.3738292428818
23
1323.9386537906137
0
SOLID
8
0
10
1188.5570504584946
20
1311.8033988749894
11
1197.3738292428818
21
1323.9386537906137
12
1185.1427135368863
22
1314.229841826741
13
1193.7034170521526
23
1326.5470799637465
0
SOLID
8
0
10
1185.1427135368865
20
1314.2298418267408
11
1193.7034170521529
21
1326.5470799637462
12
1181.678309848669
22
1316.58424814202
13
1189.979183087319
23
1329.0780667526712
0
SOLID
8
0
10
1181.6783098486687
20
1316.58424814202
11
1189.979183087319
21
1329.0780667526715
12
1178.1653589957994
22
1318.865585100403
13
1186.2027609204843
23
1331.5305039829334
0
SOLID
8
0
10
1178.1653589957994
20
1318.865585100403
11
1186.2027609204843
21
1331.5305039829332
12
1174.6054018746258
22
1321.0728520321013
13
1182.375807015223
23
1333.903315934509
0
SOLID
8
0
10
1174.605401874626
20
1321.0728520321013
11
1182.375807015223
21
1333.9033159345088
12
1171.0
22
1323.2050807568878
13
1178.5
23
1336.1954618136542
0
SOLID
8
0
10
1171.0
20
1323.2050807568878
11
1178.5
21
1336.1954618136542
12
1167.350734820343
22
1325.2613360087728
13
1174.5770399318685
23
1338.4059362094308
0
SOLID
8
0
10
1167.3507348203432
20
1325.2613360087728
11
1174.577039931869
21
1338.4059362094306
12
1163.6592070239724
22
1327.240715846243
13
1170.6086475507702
23
1340.5337695347112
0
SOLID
8
0
10
1163.6592070239724
20
1327.240715846243
11
1170.6086475507702
21
1340.5337695347112
12
1159.9270358369854
22
1329.1423520478827
13
1166.5965635247592
23
1342.5780284514738
0
SOLID
8
0
10
1159.9270358369856
20
1329.1423520478825
11
1166.5965635247594
21
1342.5780284514738
12
1156.1558583130145
22
1330.9654104932038
13
1162.5425476864907
23
1344.5378162801942
0
SOLID
8
0
10
1156.1558583130145
20
1330.9654104932038
11
1162.5425476864907
21
1344.5378162801942
12
1152.34732861516
22
1332.7090915285203
13
1158.448378261297
23
1346.4122733931592
0
SOLID
8
0
10
1152.34732861516
20
1332.7090915285203
11
1158.4483782612972
21
1346.4122733931592
12
1148.5031172904205
22
1334.3726303177002
13
1154.3158510872022
23
1348.2005775915275
0
SOLID
8
0
10
1148.5031172904207
20
1334.3726303177
11
1154.3158510872022
21
1348.2005775915277
12
1144.6249105369357
22
1335.9552971776504
13
1150.1467788272057
23
1349.9019444659739
0
SOLID
8
0
10
1144.6249105369357
20
1335.9552971776502
11
1150.1467788272057
21
1349.901944465974
12
1140.714409464363
22
1337.4563978983783
13
1145.94299017419
23
1351.5156277407568
0
SOLID
8
0
10
1140.7144094643631
20
1337.4563978983783
11
1145.9429901741903
21
1351.5156277407566
12
1136.7733293477168
22
1338.875274047496
13
1141.7063290487954
23
1353.0409196010585
0
SOLID
8
0
10
1136.7733293477168
20
1338.875274047496
11
1141.7063290487954
21
1353.0409196010585
12
1132.8033988749894
22
1340.211303259031
13
1137.4386537906137
23
1354.4771510034582
0
SOLID
8
0
10
1132.8033988749894
20
1340.2113032590307
11
1137.4386537906137
21
1354.477151003458
12
1128.8063593888942
22
1341.4638995064136
13
1133.1418363430612
23
1355.8236919693945
0
SOLID
8
0
10
1128.8063593888944
20
1341.4638995064133
11
1133.1418363430614
21
1355.8236919693945
12
1124.7839641230532
22
1342.6325133595317
13
1128.8177614322822
23
1357.0799518614963
0
SOLID
8
0
10
1124.7839641230532
20
1342.6325133595317
11
1128.8177614322822
21
1357.0799518614965
12
1120.7379774329709
22
1343.7166322257262
13
1124.4683257404438
23
1358.2453796426557
0
SOLID
8
0
10
1120.7379774329709
20
1343.7166322257262
11
1124.4683257404438
21
1358.2453796426557
12
1116.6701740221313
22
1344.7157805746322
13
1120.095437073791
23
1359.3194641177295
0
SOLID
8
0
10
1116.6701740221313
20
1344.715780574632
11
1120.0954370737911
21
1359.3194641177295
12
1112.5823381635519
22
1345.629520146761
13
1115.7010135258183
23
1360.3017341577681
0
SOLID
8
0
10
1112.5823381635519
20
1345.629520146761
11
1115.7010135258183
21
1360.3017341577684
12
1108.4762629171448
22
1346.4574501457378
13
1111.2869826359308
23
1361.1917589066682
0
SOLID
8
0
10
1108.4762629171448
20
1346.4574501457378
11
1111.2869826359308
21
1361.1917589066682
12
1104.3537493432204
22
1347.199207414101
13
1106.8552805439617
23
1361.9891479701585
0
SOLID
8
0
10
1104.3537493432204
20
1347.199207414101
11
1106.855280543962
21
1361.9891479701587
12
1100.2166057124823
22
1347.8544665925979
13
1102.4078511409184
23
1362.6935515870425
0
SOLID
8
0
10
1100.2166057124823
20
1347.8544665925976
11
1102.4078511409184
21
1362.6935515870425
12
1096.0666467128608
22
1348.4229402628955
13
1097.9466452163254
23
1363.3046607826127
0
SOLID
8
0
10
1096.0666467128608
20
1348.4229402628955
11
1097.9466452163256
21
1363.3046607826127
12
1091.9056926535307
22
1348.9043790736548
13
1093.4736196025453
23
1363.8222075041788
0
SOLID
8
0
10
1091.9056926535307
20
1348.9043790736546
11
1093.4736196025456
21
1363.8222075041788
12
1087.735568666463
22
1349.298571849901
13
1088.990736316448
23
1364.2459647386436
0
SOLID
8
0
10
1087.7355686664632
20
1349.2985718499008
11
1088.990736316448
21
1364.2459647386434
12
1083.5581039058627
22
1349.6053456856544
13
1084.4999616988025
23
1364.5757466120783
0
SOLID
8
0
10
1083.5581039058627
20
1349.6053456856544
11
1084.4999616988025
21
1364.5757466120783
12
1079.3751307458397
22
1349.8245660197717
13
1080.003265551778
23
1364.8114084712545
0
SOLID
8
0
10
1079.37513074584
20
1349.8245660197717
11
1080.003265551778
21
1364.8114084712545
12
1075.1884839766715
22
1349.9561366949692
13
1075.5026202749218
23
1364.9528469470918
0
SOLID
8
0
10
1075.1884839766715
20
1349.956136694969
11
1075.5026202749218
21
1364.9528469470918
12
1071.0
22
1350.0
13
1071.0
23
1365.0
0
POLYLINE
8
0
66
1
10
0.0
20
0.0
30
0.0
0
VERTEX
8
0
10
1071.0
20
935.0
0
VERTEX
8
0
10
1082.4427675910683
20
935.3047204294962
0
VERTEX
8
0
10
1093.8530994141836
20
936.2180179548205
0
VERTEX
8
0
10
1105.1986516441004
20
937.7373037349109
0
VERTEX
8
0
10
1116.4472640803692
20
939.8582711891587
0
VERTEX
8
0
10
1127.5670513089171
20
942.5749082048791
0
VERTEX
8
0
10
1138.526493084719
20
945.879514179298
0
VERTEX
8
0
10
1149.2945236793566
20
949.7627218477472
0
VERTEX
8
0
10
1159.8406199402013
20
954.2135238361936
0
VERTEX
8
0
10
1170.134887811605
20
959.2193038628371
0
VERTEX
8
0
10
1180.1481470728506
20
964.7658725003316
0
VERTEX
8
0
10
1189.8520140526566
20
970.8375073972593
0
VERTEX
8
0
10
1199.2189820857777
20
977.4169978448429
0
VERTEX
8
0
10
1208.2224994836363
20
984.4856935625702
0
VERTEX
8
0
10
1216.8370447979673
20
992.0235575644406
0
VERTEX
8
0
10
1225.0381991641377
20
1000.0092229559783
0
VERTEX
8
0
10
1232.8027155190698
20
1008.4200535010167
0
VERTEX
8
0
10
1240.1085844975682
20
1017.2322077865688
0
VERTEX
8
0
10
1246.9350968202564
20
1026.4207068039025
0
VERTEX
8
0
10
1253.2629019962792
20
1035.9595047542555
0
VERTEX
8
0
10
1259.0740631743718
20
1045.82156287848
0
VERTEX
8
0
10
1264.3521079868121
20
1055.9789261013461
0
VERTEX
8
0
10
1269.0820752421387
20
1066.4028022732361
0
VERTEX
8
0
10
1273.2505573342721
20
1077.0636437846235
0
VERTEX
8
0
10
1276.8457382478312
20
1087.9312313219816
0
VERTEX
8
0
10
1279.8574270519127
20
1098.9747595277104
0
VERTEX
8
0
10
1282.277086787392
20
1110.1629243212703
0
VERTEX
8
0
10
1284.0978586658616
20
1121.4640116339997
0
VERTEX
8
0
10
1285.3145815116113
20
1132.8459873060872
0
VERTEX
8
0
10
1285.9238063915423
20
1144.2765878908785
0
VERTEX
8
0
10
1285.9238063915423
20
1155.7234121091215
0
VERTEX
8
0
10
1285.3145815116113
20
1167.1540126939128
0
VERTEX
8
0
10
1284.0978586658616
20
1178.5359883660003
0
VERTEX
8
0
10
1282.277086787392
20
1189.8370756787297
0
VERTEX
8
0
10
1279.8574270519127
20
1201.0252404722896
0
VERTEX
8
0
10
1276.8457382478312
20
1212.0687686780184
0
VERTEX
8
0
10
1273.2505573342721
20
1222.9363562153765
0
VERTEX
8
0
10
1269.0820752421387
20
1233.5971977267639
0
VERTEX
8
0
10
1264.3521079868121
20
1244.0210738986539
0
VERTEX
8
0
10
1259.0740631743718
20
1254.17843712152
0
VERTEX
8
0
10
1253.2629019962792
20
1264.0404952457445
0
VERTEX
8
0
10
1246.9350968202564
20
1273.5792931960975
0
VERTEX
8
0
10
1240.108584497568
20
1282.7677922134312
0
VERTEX
8
0
10
1232.8027155190698
20
1291.5799464989832
0
VERTEX
8
0
10
1225.0381991641377
20
1299.9907770440218
0
VERTEX
8
0
10
1216.8370447979673
20
1307.9764424355594
0
VERTEX
8
0
10
1208.2224994836363
20
1315.51430643743
0
VERTEX
8
0
10
1199.2189820857777
20
1322.5830021551571
0
VERTEX
8
0
10
1189.8520140526566
20
1329.1624926027407
0
VERTEX
8
0
10
1180.1481470728506
20
1335.2341274996684
0
VERTEX
8
0
10
1170.134887811605
20
1340.780696137163
0
VERTEX
8
0
10
1159.8406199402013
20
1345.7864761638064
0
VERTEX
8
0
10
1149.2945236793569
20
1350.2372781522527
0
VERTEX
8
0
10
1138.526493084719
20
1354.120485820702
0
VERTEX
8
0
10
1127.5670513089171
20
1357.4250917951208
0
VERTEX
8
0
10
1116.4472640803692
20
1360.1417288108414
0
VERTEX
8
0
10
1105.1986516441004
20
1362.262696265089
0
VERTEX
8
0
10
1093.8530994141836
20
1363.7819820451796
0
VERTEX
8
0
10
1082.4427675910683
20
1364.6952795705038
0
VERTEX
8
0
10
1071.0
20
1365.0
0
VERTEX
8
0
10
1071.0
20
1350.0
0
VERTEX
8
0
10
1081.6444349684357
20
1349.7165391353524
0
VERTEX
8
0
10
1092.2586971294731
20
1348.8669600420274
0
VERTEX
8
0
10
1102.8126992038144
20
1347.4536709442689
0
VERTEX
8
0
10
1113.276524725925
20
1345.4806779635733
0
VERTEX
8
0
10
1123.6205128455042
20
1342.9535737629033
0
VERTEX
8
0
10
1133.8153424043899
20
1339.8795216936762
0
VERTEX
8
0
10
1143.8321150505644
20
1336.2672354904678
0
VERTEX
8
0
10
1153.6424371536757
20
1332.1269545709827
0
VERTEX
8
0
10
1163.2185002898652
20
1327.4704150113143
0
VERTEX
8
0
10
1172.533160067768
20
1322.3108162787612
0
VERTEX
8
0
10
1181.5600130722387
20
1316.662783816503
0
VERTEX
8
0
10
1190.2734717077003
20
1310.5423275861926
0
VERTEX
8
0
10
1198.648836728964
20
1303.9667966859813
0
VERTEX
8
0
10
1206.662367253923
20
1296.9548301726136
0
VERTEX
8
0
10
1214.291348059663
20
1289.526304226997
0
VERTEX
8
0
10
1221.5141539712276
20
1281.7022758130079
0
VERTEX
8
0
10
1228.3103111605285
20
1273.5049229892384
0
VERTEX
8
0
10
1234.6605551816338
20
1264.9574820428813
0
VERTEX
8
0
10
1240.5468855779343
20
1256.0841816239486
0
VERTEX
8
0
10
1245.9526169063922
20
1246.91017406653
0
VERTEX
8
0
10
1250.8624260342438
20
1237.4614640917712
0
VERTEX
8
0
10
1255.2623955740826
20
1227.7648350946642
0
VERTEX
8
0
10
1259.1400533342066
20
1217.847773223606
0
VERTEX
8
0
10
1262.4844076724012
20
1207.7383894679242
0
VERTEX
8
0
10
1265.285978652942
20
1197.465339974223
0
VERTEX
8
0
10
1267.5368249185042
20
1187.0577448174229
0
VERTEX
8
0
10
1269.2305662008014
20
1176.5451054567443
0
VERTEX
8
0
10
1270.36240140615
20
1165.9572211106165
0
VERTEX
8
0
10
1270.9291222246904
20
1155.324104287555
0
VERTEX
8
0
10
1270.9291222246904
20
1144.675895712445
0
VERTEX
8
0
10
1270.36240140615
20
1134.0427788893833
0
VERTEX
8
0
10
1269.2305662008014
20
1123.4548945432557
0
VERTEX
8
0
10
1267.5368249185042
20
1112.9422551825771
0
VERTEX
8
0
10
1265.285978652942
20
1102.534660025777
0
VERTEX
8
0
10
1262.4844076724012
20
1092.2616105320758
0
VERTEX
8
0
10
1259.1400533342066
20
1082.152226776394
0
VERTEX
8
0
10
1255.2623955740826
20
1072.2351649053358
0
VERTEX
8
0
10
1250.8624260342438
20
1062.5385359082288
0
VERTEX
8
0
10
1245.9526169063922
20
1053.08982593347
0
VERTEX
8
0
10
1240.5468855779343
20
1043.9158183760514
0
VERTEX
8
0
10
1234.6605551816338
20
1035.0425179571187
0
VERTEX
8
0
10
1228.3103111605285
20
1026.4950770107616
0
VERTEX
8
0
10
1221.5141539712276
20
1018.2977241869924
0
VERTEX
8
0
10
1214.291348059663
20
1010.4736957730031
0
VERTEX
8
0
10
1206.662367253923
20
1003.0451698273865
0
VERTEX
8
0
10
1198.648836728964
20
996.0332033140187
0
VERTEX
8
0
10
1190.2734717077003
20
989.4576724138072
0
VERTEX
8
0
10
1181.5600130722387
20
983.337216183497
0
VERTEX
8
0
10
1172.533160067768
20
977.6891837212388
0
VERTEX
8
0
10
1163.2185002898652
20
972.5295849886857
0
VERTEX
8
0
10
1153.6424371536757
20
967.8730454290173
0
VERTEX
8
0
10
1143.8321150505644
20
963.7327645095323
0
VERTEX
8
0
10
1133.8153424043899
20
960.1204783063238
0
VERTEX
8
0
10
1123.6205128455042
20
957.0464262370969
0
VERTEX
8
0
10
1113.276524725925
20
954.5193220364267
0
VERTEX
8
0
10
1102.8126992038144
20
952.5463290557311
0
VERTEX
8
0
10
1092.2586971294731
20
951.1330399579726
0
VERTEX
8
0
10
1081.6444349684357
20
950.2834608646476
0
VERTEX
8
0
10
1071.0
20
950.0
0
VERTEX
8
0
10
1071.0
20
935.0
0
SEQEND
0
POLYLINE
8
0
66
1
10
0.0
20
0.0
30
0.0
0
VERTEX
8
0
10
1071.0
20
950.0
0
VERTEX
8
0
10
1081.6444349684357
20
950.2834608646476
0
VERTEX
8
0
10
1092.2586971294731
20
951.1330399579726
0
VERTEX
8
0
10
1102.8126992038144
20
952.5463290557311
0
VERTEX
8
0
10
1113.276524725925
20
954.5193220364267
0
VERTEX
8
0
10
1123.6205128455042
20
957.0464262370969
0
VERTEX
8
0
10
1133.8153424043899
20
960.1204783063238
0
VERTEX
8
0
10
1143.8321150505644
20
963.7327645095323
0
VERTEX
8
0
10
1153.6424371536757
20
967.8730454290173
0
VERTEX
8
0
10
1163.2185002898652
20
972.5295849886857
0
VERTEX
8
0
10
1172.533160067768
20
977.6891837212388
0
VERTEX
8
0
10
1181.5600130722387
20
983.337216183497
0
VERTEX
8
0
10
1190.2734717077003
20
989.4576724138072
0
VERTEX
8
0
10
1198.648836728964
20
996.0332033140187
0
VERTEX
8
0
10
1206.662367253923
20
1003.0451698273865
0
VERTEX
8
0
10
1214.291348059663
20
1010.4736957730031
0
VERTEX
8
0
10
1221.5141539712276
20
1018.2977241869922
0
VERTEX
8
0
10
1228.3103111605285
20
1026.4950770107616
0
VERTEX
8
0
10
1234.6605551816338
20
1035.0425179571187
0
VERTEX
8
0
10
1240.5468855779343
20
1043.9158183760514
0
VERTEX
8
0
10
1245.9526169063922
20
1053.08982593347
0
VERTEX
8
0
10
1250.8624260342438
20
1062.5385359082288
0
VERTEX
8
0
10
1255.2623955740826
20
1072.2351649053358
0
VERTEX
8
0
10
1259.1400533342066
20
1082.152226776394
0
VERTEX
8
0
10
1262.4844076724012
20
1092.2616105320758
0
VERTEX
8
0
10
1265.285978652942
20
1102.534660025777
0
VERTEX
8
0
10
1267.5368249185042
20
1112.9422551825771
0
VERTEX
8
0
10
1269.2305662008014
20
1123.4548945432557
0
VERTEX
8
0
10
1270.36240140615
20
1134.0427788893835
0
VERTEX
8
0
10
1270.9291222246904
20
1144.675895712445
0
VERTEX
8
0
10
1270.9291222246904
20
1155.324104287555
0
VERTEX
8
0
10
1270.36240140615
20
1165.9572211106167
0
VERTEX
8
0
10
1269.2305662008014
20
1176.5451054567443
0
VERTEX
8
0
10
1267.5368249185042
20
1187.0577448174229
0
VERTEX
8
0
10
1265.285978652942
20
1197.465339974223
0
VERTEX
8
0
10
1262.4844076724012
20
1207.7383894679242
0
VERTEX
8
0
10
1259.1400533342066
20
1217.847773223606
0
VERTEX
8
0
10
1255.2623955740826
20
1227.7648350946642
0
VERTEX
8
0
10
1250.8624260342438
20
1237.4614640917712
0
VERTEX
8
0
10
1245.9526169063922
20
1246.91017406653
0
VERTEX
8
0
10
1240.5468855779343
20
1256.0841816239486
0
VERTEX
8
0
10
1234.6605551816338
20
1264.9574820428813
0
VERTEX
8
0
10
1228.3103111605285
20
1273.5049229892384
0
VERTEX
8
0
10
1221.5141539712276
20
1281.7022758130076
0
VERTEX
8
0
10
1214.291348059663
20
1289.526304226997
0
VERTEX
8
0
10
1206.662367253923
20
1296.9548301726136
0
VERTEX
8
0
10
1198.648836728964
20
1303.9667966859813
0
VERTEX
8
0
10
1190.2734717077003
20
1310.5423275861926
0
VERTEX
8
0
10
1181.5600130722387
20
1316.662783816503
0
VERTEX
8
0
10
1172.533160067768
20
1322.3108162787612
0
VERTEX
8
0
10
1163.2185002898652
20
1327.4704150113143
0
VERTEX
8
0
10
1153.6424371536757
20
1332.1269545709827
0
VERTEX
8
0
10
1143.8321150505644
20
1336.2672354904676
0
VERTEX
8
0
10
1133.8153424043899
20
1339.8795216936762
0
VERTEX
8
0
10
1123.6205128455042
20
1342.9535737629033
0
VERTEX
8
0
10
1113.276524725925
20
1345.4806779635733
0
VERTEX
8
0
10
1102.8126992038144
20
1347.4536709442689
0
VERTEX
8
0
10
1092.2586971294731
20
1348.8669600420274
0
VERTEX
8
0
10
1081.6444349684357
20
1349.7165391353524
0
VERTEX
8
0
10
1071.0
20
1350.0
0
VERTEX
8
0
10
1071.0
20
1335.0
0
VERTEX
8
0
10
1080.846102345803
20
1334.737798700201
0
VERTEX
8
0
10
1090.6642948447627
20
1333.9519380388754
0
VERTEX
8
0
10
1100.4267467635284
20
1332.6446456234487
0
VERTEX
8
0
10
1110.1057853714806
20
1330.8196271163054
0
VERTEX
8
0
10
1119.6739743820915
20
1328.4820557306855
0
VERTEX
8
0
10
1129.1041917240605
20
1325.6385575666504
0
VERTEX
8
0
10
1138.369706421772
20
1322.2971928286827
0
VERTEX
8
0
10
1147.4442543671498
20
1318.467432978159
0
VERTEX
8
0
10
1156.3021127681252
20
1314.1601338854657
0
VERTEX
8
0
10
1164.9181730626854
20
1309.387505057854
0
VERTEX
8
0
10
1173.2680120918208
20
1304.1630750302652
0
VERTEX
8
0
10
1181.3279613296227
20
1298.5016530172284
0
VERTEX
8
0
10
1189.0751739742918
20
1292.4192869345327
0
VERTEX
8
0
10
1196.487689709879
20
1285.9332179096675
0
VERTEX
8
0
10
1203.5444969551884
20
1279.0618314099722
0
VERTEX
8
0
10
1210.2255924233857
20
1271.824605127032
0
VERTEX
8
0
10
1216.5120378234888
20
1264.2420537650455
0
VERTEX
8
0
10
1222.3860135430114
20
1256.3356708896654
0
VERTEX
8
0
10
1227.8308691595892
20
1248.1278680021524
0
VERTEX
8
0
10
1232.831170638413
20
1239.6419110115403
0
VERTEX
8
0
10
1237.3727440816756
20
1230.9018542848883
0
VERTEX
8
0
10
1241.4427159060265
20
1221.9324724625644
0
VERTEX
8
0
10
1245.0295493341412
20
1212.7591902318356
0
VERTEX
8
0
10
1248.123077096971
20
1203.4080102578298
0
VERTEX
8
0
10
1250.7145302539714
20
1193.9054394761563
0
VERTEX
8
0
10
1252.7965630496165
20
1184.278413956116
0
VERTEX
8
0
10
1254.3632737357414
20
1174.5542225474885
0
VERTEX
8
0
10
1255.4102213006888
20
1164.7604295273204
0
VERTEX
8
0
10
1255.9344380578386
20
1154.9247964659883
0
VERTEX
8
0
10
1255.9344380578386
20
1145.0752035340117
0
VERTEX
8
0
10
1255.4102213006888
20
1135.2395704726796
0
VERTEX
8
0
10
1254.3632737357414
20
1125.4457774525115
0
VERTEX
8
0
10
1252.7965630496165
20
1115.721586043884
0
VERTEX
8
0
10
1250.7145302539714
20
1106.0945605238437
0
VERTEX
8
0
10
1248.123077096971
20
1096.5919897421702
0
VERTEX
8
0
10
1245.0295493341412
20
1087.2408097681644
0
VERTEX
8
0
10
1241.4427159060265
20
1078.0675275374356
0
VERTEX
8
0
10
1237.3727440816756
20
1069.0981457151117
0
VERTEX
8
0
10
1232.831170638413
20
1060.3580889884597
0
VERTEX
8
0
10
1227.8308691595892
20
1051.8721319978476
0
VERTEX
8
0
10
1222.3860135430114
20
1043.6643291103346
0
VERTEX
8
0
10
1216.5120378234888
20
1035.7579462349545
0
VERTEX
8
0
10
1210.2255924233857
20
1028.175394872968
0
VERTEX
8
0
10
1203.5444969551884
20
1020.9381685900278
0
VERTEX
8
0
10
1196.4876897098789
20
1014.0667820903325
0
VERTEX
8
0
10
1189.0751739742916
20
1007.5807130654673
0
VERTEX
8
0
10
1181.3279613296227
20
1001.4983469827717
0
VERTEX
8
0
10
1173.2680120918208
20
995.8369249697347
0
VERTEX
8
0
10
1164.9181730626854
20
990.6124949421459
0
VERTEX
8
0
10
1156.3021127681252
20
985.8398661145343
0
VERTEX
8
0
10
1147.4442543671498
20
981.532567021841
0
VERTEX
8
0
10
1138.3697064217722
20
977.7028071713174
0
VERTEX
8
0
10
1129.1041917240605
20
974.3614424333495
0
VERTEX
8
0
10
1119.6739743820915
20
971.5179442693145
0
VERTEX
8
0
10
1110.1057853714806
20
969.1803728836946
0
VERTEX
8
0
10
1100.4267467635284
20
967.3553543765513
0
VERTEX
8
0
10
1090.6642948447627
20
966.0480619611246
0
VERTEX
8
0
10
1080.846102345803
20
965.262201299799
0
VERTEX
8
0
10
1071.0
20
965.0
0
VERTEX
8
0
10
1071.0
20
950.0
0
SEQEND
0
SOLID
8
0
10
1071.0
20
1350.0
11
1021.0
21
1350.0
12
1071.0
22
1335.0
13
1021.0
23
1314.0
0
SOLID
8
0
10
1071.0
20
1350.0
11
1021.0
21
1350.0
12
1071.0
22
1365.0
13
1021.0
23
1386.0
0
SOLID
8
0
10
1021.0
20
1386.0
11
950.0
21
1386.0
12
1021.0
22
1314.0
13
950.0
23
1314.0
0
SOLID
8
0
10
950.0
20
1350.0
11
900.0
21
1350.0
12
950.0
22
1314.0
13
900.0
23
1335.0
0
SOLID
8
0
10
950.0
20
1350.0
11
900.0
21
1350.0
12
950.0
22
1386.0
13
900.0
23
1365.0
0
SOLID
8
0
10
900.0
20
1365.0
11
500.0
21
1365.0
12
900.0
22
1335.0
13
500.0
23
1335.0
0
POLYLINE
8
0
66
1
10
0.0
20
0.0
30
0.0
0
VERTEX
8
0
10
900.0
20
1365.0
0
VERTEX
8
0
10
500.0
20
1365.0
0
VERTEX
8
0
10
500.0
20
1335.0
0
VERTEX
8
0
10
900.0
20
1335.0
0
VERTEX
8
0
10
900.0
20
1365.0
0
SEQEND
0
SOLID
8
0
10
500.0
20
1350.0
11
250.0
21
1350.0
12
500.0
22
1335.0
13
249.99999999999997
23
1200.0
0
SOLID
8
0
10
500.0
20
1350.0
11
250.0
21
1350.0
12
500.0
22
1365.0
13
250.00000000000003
23
1500.0
0
SOLID
8
0
10
250.00000000000003
20
1500.0
11
75.00000000000001
21
1500.0
12
249.99999999999997
22
1200.0
13
74.99999999999999
23
1200.0
0
POLYLINE
8
0
66
1
10
0.0
20
0.0
30
0.0
0
VERTEX
8
0
10
250.00000000000003
20
1500.0
0
VERTEX
8
0
10
75.00000000000001
20
1500.0
0
VERTEX
8
0
10
74.99999999999999
20
1200.0
0
VERTEX
8
0
10
249.99999999999997
20
1200.0
0
VERTEX
8
0
10
250.00000000000003
20
1500.0
0
SEQEND
0
SOLID
8
0
10
75.00000000000001
20
1500.0
11
1.8369701987210297e-14
21
1500.0
12
74.99999999999999
22
1200.0
13
-1.8369701987210297e-14
23
1200.0
0
POLYLINE
8
0
66
1
10
0.0
20
0.0
30
0.0
0
VERTEX
8
0
10
75.00000000000001
20
1500.0
0
VERTEX
8
0
10
1.8369701987210297e-14
20
1500.0
0
VERTEX
8
0
10
-1.8369701987210297e-14
20
1200.0
0
VERTEX
8
0
10
74.99999999999999
20
1200.0
0
VERTEX
8
0
10
75.00000000000001
20
1500.0
0
SEQEND
0
POLYLINE
8
gap
66
1
10
0.0
20
0.0
30
0.0
0
VERTEX
8
gap
10
40.0
20
1800.0
0
VERTEX
8
gap
10
80.0
20
1800.0
0
VERTEX
8
gap
10
80.0
20
1940.0
0
VERTEX
8
gap
10
120.0
20
1940.0
0
VERTEX
8
gap
10
120.0
20
1960.0
0
VERTEX
8
gap
10
0.0
20
1960.0
0
VERTEX
8
gap
10
0.0
20
1940.0
0
VERTEX
8
gap
10
40.0
20
1940.0
0
VERTEX
8
gap
10
40.0
20
1800.0
0
VERTEX
8
gap
10
40.0
20
1800.0
0
SEQEND
0
POLYLINE
8
gap
66
1
10
0.0
20
0.0
30
0.0
0
VERTEX
8
gap
10
160.0
20
1800.0
0
VERTEX
8
gap
10
160.0
20
1960.0
0
VERTEX
8
gap
10
200.0
20
1960.0
0
VERTEX
8
gap
10
200.0
20
1820.0
0
VERTEX
8
gap
10
280.0
20
1820.0
0
VERTEX
8
gap
10
280.0
20
1800.0
0
VERTEX
8
gap
10
160.0
20
1800.0
0
VERTEX
8
gap
10
160.0
20
1800.0
0
SEQEND
0
POLYLINE
8
gap
66
1
10
0.0
20
0.0
30
0.0
0
VERTEX
8
gap
10
0.0
20
0.0
0
VERTEX
8
gap
10
0.0
20
160.0
0
VERTEX
8
gap
10
120.0
20
160.0
0
VERTEX
8
gap
10
120.0
20
0.0
0
VERTEX
8
gap
10
80.0
20
0.0
0
VERTEX
8
gap
10
80.0
20
140.0
0
VERTEX
8
gap
10
40.0
20
140.0
0
VERTEX
8
gap
10
40.0
20
0.0
0
VERTEX
8
gap
10
0.0
20
0.0
0
SEQEND
0
POLYLINE
8
gap
66
1
10
0.0
20
0.0
30
0.0
0
VERTEX
8
gap
10
40.0
20
80.0
0
VERTEX
8
gap
10
40.0
20
100.0
0
VERTEX
8
gap
10
80.0
20
100.0
0
VERTEX
8
gap
10
80.0
20
80.0
0
VERTEX
8
gap
10
40.0
20
80.0
0
SEQEND
0
ENDBLK
0
BLOCK
8
pin
2
APIN
70
0
10
0
20
0
30
0
3
APIN
0
SOLID
8
0
10
75.0
20
875.0
11
250.0
21
875.0
12
75.0
22
1025.0
13
250.0
23
1025.0
0
POLYLINE
8
0
66
1
10
0.0
20
0.0
30
0.0
0
VERTEX
8
0
10
75.0
20
875.0
0
VERTEX
8
0
10
250.0
20
875.0
0
VERTEX
8
0
10
250.0
20
1025.0
0
VERTEX
8
0
10
75.0
20
1025.0
0
VERTEX
8
0
10
75.0
20
875.0
0
SEQEND
0
SOLID
8
0
10
250.0
20
950.0
11
500.0
21
950.0
12
250.0
22
1025.0
13
500.0
23
955.0
0
SOLID
8
0
10
250.0
20
950.0
11
500.0
21
950.0
12
250.0
22
875.0
13
500.0
23
945.0
0
SOLID
8
0
10
500.0
20
945.0
11
900.0
21
945.0
12
500.0
22
955.0
13
900.0
23
955.0
0
POLYLINE
8
0
66
1
10
0.0
20
0.0
30
0.0
0
VERTEX
8
0
10
500.0
20
945.0
0
VERTEX
8
0
10
900.0
20
945.0
0
VERTEX
8
0
10
900.0
20
955.0
0
VERTEX
8
0
10
500.0
20
955.0
0
VERTEX
8
0
10
500.0
20
945.0
0
SEQEND
0
SOLID
8
0
10
900.0
20
950.0
11
950.0
21
950.0
12
900.0
22
955.0
13
950.0
23
962.0
0
SOLID
8
0
10
900.0
20
950.0
11
950.0
21
950.0
12
900.0
22
945.0
13
950.0
23
938.0
0
SOLID
8
0
10
954.0
20
938.0
11
954.0
21
941.0
12
1021.0
22
938.0
13
1021.0
23
941.0
0
SOLID
8
0
10
950.0
20
945.0
11
950.0
21
948.0
12
1017.0
22
945.0
13
1017.0
23
948.0
0
SOLID
8
0
10
954.0
20
952.0
11
954.0
21
955.0
12
1021.0
22
952.0
13
1021.0
23
955.0
0
SOLID
8
0
10
950.0
20
959.0
11
950.0
21
962.0
12
1017.0
22
959.0
13
1017.0
23
962.0
0
SOLID
8
0
10
1021.0
20
950.0
11
1071.0
21
950.0
12
1021.0
22
962.0
13
1071.0
23
955.0
0
SOLID
8
0
10
1021.0
20
950.0
11
1071.0
21
950.0
12
1021.0
22
938.0
13
1071.0
23
945.0
0
SOLID
8
0
10
1071.0
20
955.0
11
1071.0
21
950.0
12
1075.0837718772545
22
955.0427667224051
13
1075.1884839766715
23
950.0438633050309
0
SOLID
8
0
10
1075.0837718772545
20
955.0427667224051
11
1075.1884839766715
21
950.0438633050309
12
1079.165752477194
22
955.1710481307226
13
1079.3751307458401
23
950.1754339802283
0
SOLID
8
0
10
1079.165752477194
20
955.1710481307226
11
1079.37513074584
21
950.1754339802283
12
1083.244151308216
22
955.3847879564871
13
1083.5581039058627
23
950.3946543143456
0
SOLID
8
0
10
1083.244151308216
20
955.3847879564871
11
1083.5581039058627
21
950.3946543143456
12
1087.3171794498016
22
955.6838924463466
13
1087.7355686664632
23
950.7014281500992
0
SOLID
8
0
10
1087.3171794498014
20
955.6838924463466
11
1087.735568666463
21
950.7014281500991
12
1091.3830503371923
22
956.0682304031867
13
1091.9056926535309
23
951.0956209263454
0
SOLID
8
0
10
1091.3830503371923
20
956.0682304031867
11
1091.9056926535307
21
951.0956209263453
12
1095.4399805450394
22
956.5376332436769
13
1096.066646712861
23
951.5770597371045
0
SOLID
8
0
10
1095.4399805450394
20
956.5376332436769
11
1096.0666467128608
21
951.5770597371045
12
1099.4861905696703
22
957.0918950722172
13
1100.2166057124825
23
952.1455334074024
0
SOLID
8
0
10
1099.4861905696703
20
957.0918950722173
11
1100.2166057124823
21
952.1455334074024
12
1103.5199056096399
22
957.7307727712514
13
1104.3537493432204
23
952.800792585899
0
SOLID
8
0
10
1103.5199056096399
20
957.7307727712515
11
1104.3537493432204
21
952.800792585899
12
1107.5393563442162
22
958.4539861079057
13
1108.476262917145
23
953.5425498542623
0
SOLID
8
0
10
1107.5393563442162
20
958.4539861079057
11
1108.4762629171448
21
953.5425498542622
12
1111.542779709463
22
959.2612178569079
13
1112.5823381635519
23
954.3704798532387
0
SOLID
8
0
10
1111.542779709463
20
959.2612178569079
11
1112.5823381635519
21
954.3704798532389
12
1115.5284196715777
22
960.1521139397337
13
1116.6701740221313
23
955.284219425368
0
SOLID
8
0
10
1115.528419671578
20
960.1521139397337
11
1116.670174022131
21
955.284219425368
12
1119.4945279971466
22
961.126283579917
13
1120.737977432971
23
956.2833677742736
0
SOLID
8
0
10
1119.4945279971466
20
961.126283579917
11
1120.7379774329709
21
956.2833677742738
12
1123.4393650199768
22
962.1832994744565
13
1124.783964123053
23
957.3674866404683
0
SOLID
8
0
10
1123.4393650199768
20
962.1832994744566
11
1124.7839641230532
21
957.3674866404683
12
1127.361200404172
22
963.3226979812468
13
1128.8063593888944
23
958.5361004935866
0
SOLID
8
0
10
1127.361200404172
20
963.3226979812468
11
1128.8063593888944
21
958.5361004935866
12
1131.2583139031146
22
964.5439793224449
13
1132.8033988749896
23
959.7886967409693
0
SOLID
8
0
10
1131.2583139031146
20
964.543979322445
11
1132.8033988749894
21
959.7886967409693
12
1135.1289961140237
22
965.8466078036911
13
1136.7733293477168
23
961.1247259525038
0
SOLID
8
0
10
1135.1289961140237
20
965.8466078036912
11
1136.7733293477168
21
961.1247259525038
12
1138.971549227754
22
967.230012049081
13
1140.7144094643631
23
962.5436021016218
0
SOLID
8
0
10
1138.971549227754
20
967.2300120490811
11
1140.7144094643631
21
962.5436021016217
12
1142.784287773512
22
968.6935852517909
13
1144.6249105369357
23
964.0447028223497
0
SOLID
8
0
10
1142.7842877735122
20
968.693585251791
11
1144.6249105369357
21
964.0447028223497
12
1146.56553935816
22
970.2366854402424
13
1148.5031172904207
23
965.6273696822999
0
SOLID
8
0
10
1146.56553935816
20
970.2366854402424
11
1148.5031172904205
21
965.6273696822999
12
1150.313645399781
22
971.8586357596928
13
1152.3473286151602
23
967.29090847148
0
SOLID
8
0
10
1150.313645399781
20
971.8586357596928
11
1152.34732861516
21
967.2909084714798
12
1154.0269618551893
22
973.5587247691262
13
1156.1558583130145
23
969.034589506796
0
SOLID
8
0
10
1154.0269618551893
20
973.5587247691262
11
1156.1558583130145
21
969.0345895067961
12
1157.703859941061
22
975.3362067533144
13
1159.9270358369856
23
970.8576479521175
0
SOLID
8
0
10
1157.703859941061
20
975.3362067533145
11
1159.9270358369854
21
970.8576479521174
12
1161.3427268483729
22
977.1903020499132
13
1163.6592070239726
23
972.759284153757
0
SOLID
8
0
10
1161.342726848373
20
977.1903020499132
11
1163.6592070239724
21
972.7592841537571
12
1164.9419664498344
22
979.1201973914465
13
1167.350734820343
23
974.7386639912272
0
SOLID
8
0
10
1164.9419664498346
20
979.1201973914466
11
1167.350734820343
21
974.7386639912272
12
1168.4999999999998
22
981.1250462620343
13
1171.0
23
976.7949192431123
0
SOLID
8
0
10
1168.5
20
981.1250462620344
11
1171.0
21
976.7949192431122
12
1172.0152668277603
22
983.2039692687011
13
1174.6054018746263
23
978.9271479678986
0
SOLID
8
0
10
1172.0152668277603
20
983.2039692687013
11
1174.605401874626
21
978.9271479678987
12
1175.4862250209044
22
985.356054527107
13
1178.1653589957996
23
981.134414899597
0
SOLID
8
0
10
1175.4862250209044
20
985.3560545271071
11
1178.1653589957994
21
981.134414899597
12
1178.9113521024522
22
987.5803580615305
13
1181.678309848669
23
983.41575185798
0
SOLID
8
0
10
1178.9113521024522
20
987.5803580615307
11
1181.6783098486687
21
983.4157518579801
12
1182.2891456984642
22
989.8759042189276
13
1185.1427135368865
23
985.7701581732592
0
SOLID
8
0
10
1182.2891456984642
20
989.8759042189276
11
1185.1427135368863
21
985.7701581732592
12
1185.6181241970323
22
992.2416860968851
13
1188.5570504584946
23
988.1966011250106
0
SOLID
8
0
10
1185.6181241970323
20
992.2416860968852
11
1188.5570504584946
21
988.1966011250105
12
1188.8968273981632
22
994.6766659852816
13
1191.9198229724752
23
990.6940163951608
0
SOLID
8
0
10
1188.8968273981632
20
994.6766659852817
11
1191.919822972475
21
990.6940163951607
12
1192.1238171542705
22
997.1797758214611
13
1195.229556055662
23
993.261308534832
0
SOLID
8
0
10
1192.1238171542705
20
997.1797758214612
11
1195.229556055662
21
993.2613085348321
12
1195.2976780009944
22
999.749917658721
13
1198.484797949738
23
995.8973514448421
0
SOLID
8
0
10
1195.2976780009944
20
999.7499176587212
11
1198.4847979497379
21
995.8973514448421
12
1198.4170177780704
22
1002.3859641479075
13
1201.6841207980212
23
998.6009888696487
0
SOLID
8
0
10
1198.4170177780707
20
1002.3859641479075
11
1201.684120798021
21
998.6009888696487
12
1201.4804682399774
22
1005.0867590319081
13
1204.8261212717719
23
1001.3710349045213
0
SOLID
8
0
10
1201.4804682399774
20
1005.0867590319081
11
1204.8261212717716
21
1001.3710349045211
12
1204.4866856560943
22
1007.8511176528245
13
1207.9094211857378
23
1004.2062745157177
0
SOLID
8
0
10
1204.4866856560943
20
1007.8511176528248
11
1207.9094211857378
21
1004.2062745157177
12
1207.4343514001064
22
1010.6778274716032
13
1210.9326681026732
23
1007.1054640734394
0
SOLID
8
0
10
1207.4343514001062
20
1010.6778274716033
11
1210.932668102673
21
1007.1054640734393
12
1210.3221725283965
22
1013.5656485998936
13
1213.8945359265608
23
1010.067331897327
0
SOLID
8
0
10
1210.3221725283968
20
1013.5656485998937
11
1213.8945359265608
21
1010.067331897327
12
1213.1488823471752
22
1016.5133143439057
13
1216.7937254842825
23
1013.0905788142624
0
SOLID
8
0
10
1213.1488823471752
20
1016.5133143439057
11
1216.7937254842823
21
1013.0905788142622
12
1215.9132409680917
22
1019.5195317600226
13
1219.6289650954789
23
1016.1738787282284
0
SOLID
8
0
10
1215.913240968092
20
1019.5195317600226
11
1219.6289650954789
21
1016.1738787282284
12
1218.6140358520925
22
1022.5829822219293
13
1222.3990111303515
23
1019.315879201979
0
SOLID
8
0
10
1218.6140358520925
20
1022.5829822219295
11
1222.3990111303513
21
1019.3158792019789
12
1221.2500823412788
22
1025.7023219990053
13
1225.1026485551579
23
1022.5152020502621
0
SOLID
8
0
10
1221.2500823412788
20
1025.7023219990056
11
1225.1026485551579
21
1022.515202050262
12
1223.8202241785389
22
1028.8761828457293
13
1227.7386914651681
23
1025.770443944338
0
SOLID
8
0
10
1223.8202241785389
20
1028.8761828457295
11
1227.738691465168
21
1025.770443944338
12
1226.3233340147183
22
1032.1031726018368
13
1230.3059836048392
23
1029.0801770275252
0
SOLID
8
0
10
1226.3233340147183
20
1032.1031726018368
11
1230.3059836048392
21
1029.080177027525
12
1228.7583139031149
22
1035.3818758029677
13
1232.8033988749894
23
1032.4429495415054
0
SOLID
8
0
10
1228.7583139031149
20
1035.3818758029677
11
1232.8033988749894
21
1032.4429495415054
12
1231.1240957810724
22
1038.7108543015356
13
1235.229841826741
23
1035.8572864631137
0
SOLID
8
0
10
1231.1240957810724
20
1038.7108543015358
11
1235.2298418267408
21
1035.8572864631137
12
1233.4196419384693
22
1042.0886478975478
13
1237.58424814202
23
1039.321690151331
0
SOLID
8
0
10
1233.4196419384693
20
1042.0886478975478
11
1237.58424814202
21
1039.3216901513313
12
1235.643945472893
22
1045.5137749790954
13
1239.865585100403
23
1042.8346410042006
0
SOLID
8
0
10
1235.643945472893
20
1045.5137749790956
11
1239.865585100403
21
1042.8346410042006
12
1237.7960307312987
22
1048.9847331722397
13
1242.0728520321013
23
1046.3945981253742
0
SOLID
8
0
10
1237.7960307312987
20
1048.9847331722397
11
1242.0728520321013
21
1046.394598125374
12
1239.8749537379654
22
1052.5
13
1244.2050807568878
23
1050.0
0
SOLID
8
0
10
1239.8749537379656
20
1052.5
11
1244.2050807568878
21
1050.0
12
1241.8798026085533
22
1056.0580335501654
13
1246.261336008773
23
1053.649265179657
0
SOLID
8
0
10
1241.8798026085533
20
1056.0580335501654
11
1246.2613360087728
21
1053.649265179657
12
1243.8096979500867
22
1059.6572731516267
13
1248.2407158462431
23
1057.3407929760278
0
SOLID
8
0
10
1243.809697950087
20
1059.657273151627
11
1248.240715846243
21
1057.3407929760276
12
1245.6637932466854
22
1063.296140058939
13
1250.1423520478827
23
1061.0729641630144
0
SOLID
8
0
10
1245.6637932466856
20
1063.296140058939
11
1250.1423520478825
21
1061.0729641630146
12
1247.441275230874
22
1066.9730381448107
13
1251.965410493204
23
1064.8441416869855
0
SOLID
8
0
10
1247.4412752308738
20
1066.9730381448107
11
1251.965410493204
21
1064.8441416869855
12
1249.1413642403072
22
1070.686354600219
13
1253.7090915285203
23
1068.65267138484
0
SOLID
8
0
10
1249.1413642403072
20
1070.686354600219
11
1253.7090915285203
21
1068.65267138484
12
1250.7633145597576
22
1074.43446064184
13
1255.3726303177002
23
1072.4968827095795
0
SOLID
8
0
10
1250.7633145597576
20
1074.43446064184
11
1255.3726303177
21
1072.4968827095795
12
1252.3064147482091
22
1078.2157122264878
13
1256.9552971776504
23
1076.3750894630643
0
SOLID
8
0
10
1252.3064147482091
20
1078.2157122264878
11
1256.9552971776502
21
1076.3750894630643
12
1253.769987950919
22
1082.0284507722458
13
1258.4563978983783
23
1080.285590535637
0
SOLID
8
0
10
1253.769987950919
20
1082.028450772246
11
1258.4563978983783
21
1080.2855905356369
12
1255.1533921963087
22
1085.871003885976
13
1259.875274047496
23
1084.2266706522832
0
SOLID
8
0
10
1255.1533921963087
20
1085.8710038859763
11
1259.875274047496
21
1084.2266706522832
12
1256.456020677555
22
1089.7416860968854
13
1261.211303259031
23
1088.1966011250106
0
SOLID
8
0
10
1256.456020677555
20
1089.7416860968851
11
1261.2113032590307
21
1088.1966011250106
12
1257.6773020187532
22
1093.638799595828
13
1262.4638995064136
23
1092.1936406111058
0
SOLID
8
0
10
1257.6773020187532
20
1093.638799595828
11
1262.4638995064133
21
1092.1936406111056
12
1258.8167005255432
22
1097.560634980023
13
1263.6325133595317
23
1096.2160358769468
0
SOLID
8
0
10
1258.8167005255434
20
1097.5606349800232
11
1263.6325133595317
21
1096.2160358769468
12
1259.8737164200832
22
1101.5054720028534
13
1264.7166322257262
23
1100.2620225670291
0
SOLID
8
0
10
1259.8737164200832
20
1101.5054720028534
11
1264.7166322257262
21
1100.262022567029
12
1260.847886060266
22
1105.471580328422
13
1265.7157805746322
23
1104.3298259778687
0
SOLID
8
0
10
1260.8478860602663
20
1105.471580328422
11
1265.715780574632
21
1104.3298259778687
12
1261.738782143092
22
1109.457220290537
13
1266.629520146761
23
1108.4176618364481
0
SOLID
8
0
10
1261.738782143092
20
1109.457220290537
11
1266.629520146761
21
1108.4176618364481
12
1262.5460138920944
22
1113.4606436557835
13
1267.4574501457378
23
1112.5237370828552
0
SOLID
8
0
10
1262.5460138920944
20
1113.4606436557838
11
1267.4574501457378
21
1112.5237370828552
12
1263.2692272287486
22
1117.4800943903601
13
1268.199207414101
23
1116.6462506567796
0
SOLID
8
0
10
1263.2692272287484
20
1117.4800943903601
11
1268.199207414101
21
1116.6462506567796
12
1263.908104927783
22
1121.5138094303297
13
1268.8544665925979
23
1120.7833942875177
0
SOLID
8
0
10
1263.9081049277827
20
1121.5138094303297
11
1268.8544665925976
21
1120.7833942875177
12
1264.4623667563233
22
1125.5600194549606
13
1269.4229402628955
23
1124.9333532871392
0
SOLID
8
0
10
1264.4623667563233
20
1125.5600194549606
11
1269.4229402628955
21
1124.9333532871392
12
1264.9317695968134
22
1129.6169496628077
13
1269.9043790736548
23
1129.0943073464693
0
SOLID
8
0
10
1264.9317695968134
20
1129.6169496628077
11
1269.9043790736546
21
1129.0943073464693
12
1265.3161075536534
22
1133.6828205501984
13
1270.298571849901
23
1133.264431333537
0
SOLID
8
0
10
1265.3161075536534
20
1133.6828205501986
11
1270.2985718499008
21
1133.264431333537
12
1265.615212043513
22
1137.7558486917837
13
1270.6053456856544
23
1137.4418960941375
0
SOLID
8
0
10
1265.6152120435129
20
1137.755848691784
11
1270.6053456856544
21
1137.4418960941373
12
1265.8289518692775
22
1141.834247522806
13
1270.8245660197717
23
1141.6248692541603
0
SOLID
8
0
10
1265.8289518692773
20
1141.834247522806
11
1270.8245660197717
21
1141.62486925416
12
1265.957233277595
22
1145.9162281227452
13
1270.9561366949692
23
1145.8115160233285
0
SOLID
8
0
10
1265.957233277595
20
1145.9162281227455
11
1270.956136694969
21
1145.8115160233285
12
1266.0
22
1150.0
13
1271.0
23
1150.0
0
SOLID
8
0
10
1266.0
20
1150.0
11
1271.0
21
1150.0
12
1265.957233277595
22
1154.0837718772545
13
1270.9561366949692
23
1154.1884839766715
0
SOLID
8
0
10
1265.957233277595
20
1154.0837718772545
11
1270.956136694969
21
1154.1884839766715
12
1265.8289518692773
22
1158.165752477194
13
1270.8245660197717
23
1158.3751307458401
0
SOLID
8
0
10
1265.8289518692773
20
1158.165752477194
11
1270.8245660197717
21
1158.37513074584
12
1265.6152120435129
22
1162.244151308216
13
1270.6053456856544
23
1162.5581039058627
0
SOLID
8
0
10
1265.6152120435129
20
1162.244151308216
11
1270.6053456856544
21
1162.5581039058627
12
1265.3161075536534
22
1166.3171794498014
13
1270.2985718499008
23
1166.7355686664632
0
SOLID
8
0
10
1265.3161075536534
20
1166.3171794498014
11
1270.2985718499008
21
1166.735568666463
12
1264.9317695968134
22
1170.3830503371923
13
1269.9043790736546
23
1170.9056926535309
0
SOLID
8
0
10
1264.9317695968134
20
1170.3830503371923
11
1269.9043790736546
21
1170.9056926535307
12
1264.4623667563233
22
1174.4399805450394
13
1269.4229402628955
23
1175.066646712861
0
SOLID
8
0
10
1264.4623667563233
20
1174.4399805450394
11
1269.4229402628955
21
1175.0666467128608
12
1263.908104927783
22
1178.4861905696703
13
1268.8544665925976
23
1179.2166057124825
0
SOLID
8
0
10
1263.9081049277827
20
1178.4861905696703
11
1268.8544665925976
21
1179.2166057124823
12
1263.2692272287486
22
1182.5199056096399
13
1268.199207414101
23
1183.3537493432204
0
SOLID
8
0
10
1263.2692272287484
20
1182.5199056096399
11
1268.199207414101
21
1183.3537493432204
12
1262.5460138920944
22
1186.5393563442162
13
1267.4574501457378
23
1187.476262917145
0
SOLID
8
0
10
1262.5460138920944
20
1186.5393563442162
11
1267.4574501457378
21
1187.4762629171448
12
1261.738782143092
22
1190.542779709463
13
1266.6295201467613
23
1191.5823381635519
0
SOLID
8
0
10
1261.738782143092
20
1190.542779709463
11
1266.629520146761
21
1191.5823381635519
12
1260.8478860602663
22
1194.5284196715777
13
1265.715780574632
23
1195.6701740221313
0
SOLID
8
0
10
1260.8478860602663
20
1194.528419671578
11
1265.715780574632
21
1195.670174022131
12
1259.8737164200832
22
1198.4945279971466
13
1264.7166322257262
23
1199.737977432971
0
SOLID
8
0
10
1259.8737164200832
20
1198.4945279971466
11
1264.7166322257262
21
1199.7379774329709
12
1258.8167005255436
22
1202.4393650199768
13
1263.6325133595317
23
1203.783964123053
0
SOLID
8
0
10
1258.8167005255434
20
1202.4393650199768
11
1263.6325133595317
21
1203.783964123053
12
1257.6773020187532
22
1206.361200404172
13
1262.4638995064133
23
1207.8063593888944
0
SOLID
8
0
10
1257.6773020187532
20
1206.361200404172
11
1262.4638995064136
21
1207.8063593888942
12
1256.456020677555
22
1210.2583139031146
13
1261.2113032590307
23
1211.8033988749894
0
SOLID
8
0
10
1256.456020677555
20
1210.2583139031146
11
1261.2113032590307
21
1211.8033988749894
12
1255.153392196309
22
1214.1289961140237
13
1259.8752740474963
23
1215.7733293477168
0
SOLID
8
0
10
1255.153392196309
20
1214.1289961140237
11
1259.8752740474963
21
1215.7733293477168
12
1253.7699879509191
22
1217.971549227754
13
1258.4563978983783
23
1219.7144094643631
0
SOLID
8
0
10
1253.769987950919
20
1217.971549227754
11
1258.4563978983783
21
1219.714409464363
12
1252.3064147482091
22
1221.784287773512
13
1256.9552971776504
23
1223.6249105369357
0
SOLID
8
0
10
1252.3064147482091
20
1221.7842877735122
11
1256.9552971776502
21
1223.6249105369357
12
1250.7633145597576
22
1225.5655393581599
13
1255.3726303177
23
1227.5031172904207
0
SOLID
8
0
10
1250.7633145597576
20
1225.56553935816
11
1255.3726303177
21
1227.5031172904205
12
1249.1413642403072
22
1229.313645399781
13
1253.70909152852
23
1231.3473286151602
0
SOLID
8
0
10
1249.1413642403072
20
1229.313645399781
11
1253.7090915285203
21
1231.34732861516
12
1247.4412752308738
22
1233.0269618551893
13
1251.965410493204
23
1235.1558583130145
0
SOLID
8
0
10
1247.4412752308738
20
1233.026961855189
11
1251.965410493204
21
1235.1558583130145
12
1245.6637932466856
22
1236.7038599410607
13
1250.1423520478825
23
1238.9270358369856
0
SOLID
8
0
10
1245.6637932466856
20
1236.7038599410607
11
1250.1423520478827
21
1238.9270358369854
12
1243.809697950087
22
1240.3427268483729
13
1248.2407158462431
23
1242.6592070239724
0
SOLID
8
0
10
1243.809697950087
20
1240.3427268483729
11
1248.240715846243
21
1242.6592070239724
12
1241.8798026085535
22
1243.9419664498344
13
1246.2613360087728
23
1246.350734820343
0
SOLID
8
0
10
1241.8798026085535
20
1243.9419664498344
11
1246.2613360087728
21
1246.350734820343
12
1239.8749537379658
22
1247.4999999999998
13
1244.2050807568878
23
1250.0
0
SOLID
8
0
10
1239.8749537379656
20
1247.5
11
1244.2050807568878
21
1250.0
12
1237.796030731299
22
1251.0152668277603
13
1242.0728520321015
23
1253.6054018746263
0
SOLID
8
0
10
1237.7960307312987
20
1251.0152668277603
11
1242.0728520321013
21
1253.6054018746258
12
1235.6439454728932
22
1254.4862250209044
13
1239.865585100403
23
1257.1653589957994
0
SOLID
8
0
10
1235.643945472893
20
1254.4862250209044
11
1239.865585100403
21
1257.1653589957994
12
1233.4196419384693
22
1257.9113521024522
13
1237.58424814202
23
1260.678309848669
0
SOLID
8
0
10
1233.4196419384693
20
1257.9113521024522
11
1237.58424814202
21
1260.6783098486687
12
1231.1240957810724
22
1261.289145698464
13
1235.2298418267408
23
1264.1427135368865
0
SOLID
8
0
10
1231.1240957810724
20
1261.2891456984642
11
1235.2298418267408
21
1264.1427135368863
12
1228.7583139031149
22
1264.6181241970323
13
1232.8033988749894
23
1267.5570504584946
0
SOLID
8
0
10
1228.7583139031149
20
1264.6181241970323
11
1232.8033988749894
21
1267.5570504584946
12
1226.3233340147185
22
1267.896827398163
13
1230.3059836048392
23
1270.9198229724752
0
SOLID
8
0
10
1226.3233340147183
20
1267.8968273981632
11
1230.3059836048392
21
1270.919822972475
12
1223.8202241785389
22
1271.1238171542707
13
1227.738691465168
23
1274.229556055662
0
SOLID
8
0
10
1223.8202241785389
20
1271.1238171542705
11
1227.738691465168
21
1274.229556055662
12
1221.250082341279
22
1274.2976780009944
13
1225.1026485551579
23
1277.484797949738
0
SOLID
8
0
10
1221.250082341279
20
1274.2976780009944
11
1225.1026485551579
21
1277.4847979497379
12
1218.6140358520927
22
1277.4170177780704
13
1222.3990111303513
23
1280.6841207980212
0
SOLID
8
0
10
1218.6140358520925
20
1277.4170177780704
11
1222.3990111303513
21
1280.684120798021
12
1215.913240968092
22
1280.4804682399772
13
1219.6289650954789
23
1283.8261212717716
0
SOLID
8
0
10
1215.913240968092
20
1280.4804682399774
11
1219.6289650954789
21
1283.8261212717716
12
1213.1488823471755
22
1283.4866856560943
13
1216.7937254842823
23
1286.9094211857378
0
SOLID
8
0
10
1213.1488823471752
20
1283.4866856560943
11
1216.7937254842823
21
1286.9094211857378
12
1210.322172528397
22
1286.4343514001062
13
1213.8945359265608
23
1289.9326681026732
0
SOLID
8
0
10
1210.3221725283965
20
1286.4343514001062
11
1213.8945359265606
21
1289.932668102673
12
1207.4343514001064
22
1289.3221725283965
13
1210.932668102673
23
1292.8945359265608
0
SOLID
8
0
10
1207.4343514001064
20
1289.3221725283965
11
1210.9326681026732
21
1292.8945359265606
12
1204.4866856560943
22
1292.1488823471752
13
1207.9094211857378
23
1295.7937254842825
0
SOLID
8
0
10
1204.4866856560943
20
1292.1488823471752
11
1207.9094211857378
21
1295.7937254842823
12
1201.4804682399774
22
1294.9132409680917
13
1204.8261212717716
23
1298.6289650954789
0
SOLID
8
0
10
1201.4804682399774
20
1294.913240968092
11
1204.8261212717716
21
1298.6289650954789
12
1198.4170177780707
22
1297.6140358520925
13
1201.684120798021
23
1301.3990111303515
0
SOLID
8
0
10
1198.4170177780707
20
1297.6140358520925
11
1201.684120798021
21
1301.3990111303513
12
1195.2976780009947
22
1300.2500823412788
13
1198.4847979497379
23
1304.1026485551579
0
SOLID
8
0
10
1195.2976780009944
20
1300.2500823412788
11
1198.4847979497379
21
1304.1026485551579
12
1192.1238171542707
22
1302.8202241785389
13
1195.229556055662
23
1306.7386914651681
0
SOLID
8
0
10
1192.1238171542705
20
1302.8202241785389
11
1195.2295560556622
21
1306.738691465168
12
1188.8968273981632
22
1305.3233340147183
13
1191.9198229724748
23
1309.3059836048392
0
SOLID
8
0
10
1188.8968273981632
20
1305.3233340147183
11
1191.919822972475
21
1309.3059836048392
12
1185.6181241970323
22
1307.7583139031146
13
1188.5570504584948
23
1311.8033988749894
0
SOLID
8
0
10
1185.6181241970323
20
1307.7583139031146
11
1188.5570504584946
21
1311.8033988749894
12
1182.2891456984644
22
1310.1240957810724
13
1185.1427135368863
23
1314.229841826741
0
SOLID
8
0
10
1182.2891456984644
20
1310.1240957810721
11
1185.1427135368865
21
1314.2298418267408
12
1178.9113521024522
22
1312.4196419384693
13
1181.678309848669
23
1316.58424814202
0
SOLID
8
0
10
1178.9113521024522
20
1312.4196419384693
11
1181.6783098486687
21
1316.58424814202
12
1175.4862250209046
22
1314.643945472893
13
1178.1653589957994
23
1318.865585100403
0
SOLID
8
0
10
1175.4862250209044
20
1314.643945472893
11
1178.1653589957994
21
1318.865585100403
12
1172.0152668277603
22
1316.7960307312987
13
1174.6054018746258
23
1321.0728520321013
0
SOLID
8
0
10
1172.0152668277606
20
1316.7960307312987
11
1174.605401874626
21
1321.0728520321013
12
1168.5
22
1318.8749537379654
13
1171.0
23
1323.2050807568878
0
SOLID
8
0
10
1168.5
20
1318.8749537379656
11
1171.0
21
1323.2050807568878
12
1164.9419664498344
22
1320.8798026085535
13
1167.350734820343
23
1325.2613360087728
0
SOLID
8
0
10
1164.9419664498346
20
1320.8798026085533
11
1167.3507348203432
21
1325.2613360087728
12
1161.3427268483733
22
1322.8096979500867
13
1163.6592070239724
23
1327.240715846243
0
SOLID
8
0
10
1161.342726848373
20
1322.809697950087
11
1163.6592070239724
21
1327.240715846243
12
1157.703859941061
22
1324.6637932466854
13
1159.9270358369854
23
1329.1423520478827
0
SOLID
8
0
10
1157.703859941061
20
1324.6637932466856
11
1159.9270358369856
21
1329.1423520478825
12
1154.0269618551893
22
1326.441275230874
13
1156.1558583130145
23
1330.9654104932038
0
SOLID
8
0
10
1154.0269618551893
20
1326.4412752308738
11
1156.1558583130145
21
1330.9654104932038
12
1150.313645399781
22
1328.1413642403072
13
1152.34732861516
23
1332.7090915285203
0
SOLID
8
0
10
1150.313645399781
20
1328.1413642403072
11
1152.34732861516
21
1332.7090915285203
12
1146.56553935816
22
1329.7633145597576
13
1148.5031172904205
23
1334.3726303177002
0
SOLID
8
0
10
1146.56553935816
20
1329.7633145597576
11
1148.5031172904207
21
1334.3726303177
12
1142.7842877735122
22
1331.3064147482091
13
1144.6249105369357
23
1335.9552971776504
0
SOLID
8
0
10
1142.7842877735122
20
1331.3064147482091
11
1144.6249105369357
21
1335.9552971776502
12
1138.971549227754
22
1332.769987950919
13
1140.714409464363
23
1337.4563978983783
0
SOLID
8
0
10
1138.971549227754
20
1332.769987950919
11
1140.7144094643631
21
1337.4563978983783
12
1135.128996114024
22
1334.1533921963087
13
1136.7733293477168
23
1338.875274047496
0
SOLID
8
0
10
1135.1289961140237
20
1334.1533921963087
11
1136.7733293477168
21
1338.875274047496
12
1131.2583139031149
22
1335.456020677555
13
1132.8033988749894
23
1340.211303259031
0
SOLID
8
0
10
1131.2583139031149
20
1335.456020677555
11
1132.8033988749894
21
1340.2113032590307
12
1127.361200404172
22
1336.6773020187532
13
1128.8063593888942
23
1341.4638995064136
0
SOLID
8
0
10
1127.361200404172
20
1336.6773020187532
11
1128.8063593888944
21
1341.4638995064133
12
1123.439365019977
22
1337.8167005255432
13
1124.7839641230532
23
1342.6325133595317
0
SOLID
8
0
10
1123.4393650199768
20
1337.8167005255434
11
1124.7839641230532
21
1342.6325133595317
12
1119.4945279971466
22
1338.8737164200832
13
1120.7379774329709
23
1343.7166322257262
0
SOLID
8
0
10
1119.4945279971466
20
1338.8737164200832
11
1120.7379774329709
21
1343.7166322257262
12
1115.528419671578
22
1339.847886060266
13
1116.6701740221313
23
1344.7157805746322
0
SOLID
8
0
10
1115.528419671578
20
1339.8478860602663
11
1116.6701740221313
21
1344.715780574632
12
1111.5427797094633
22
1340.738782143092
13
1112.5823381635519
23
1345.629520146761
0
SOLID
8
0
10
1111.542779709463
20
1340.738782143092
11
1112.5823381635519
21
1345.629520146761
12
1107.5393563442165
22
1341.5460138920944
13
1108.4762629171448
23
1346.4574501457378
0
SOLID
8
0
10
1107.5393563442162
20
1341.5460138920944
11
1108.4762629171448
21
1346.4574501457378
12
1103.5199056096399
22
1342.2692272287486
13
1104.3537493432204
23
1347.199207414101
0
SOLID
8
0
10
1103.5199056096399
20
1342.2692272287484
11
1104.3537493432204
21
1347.199207414101
12
1099.4861905696703
22
1342.908104927783
13
1100.2166057124823
23
1347.8544665925979
0
SOLID
8
0
10
1099.4861905696703
20
1342.9081049277827
11
1100.2166057124823
21
1347.8544665925976
12
1095.4399805450394
22
1343.4623667563233
13
1096.0666467128608
23
1348.4229402628955
0
SOLID
8
0
10
1095.4399805450394
20
1343.4623667563233
11
1096.0666467128608
21
1348.4229402628955
12
1091.3830503371923
22
1343.9317695968134
13
1091.9056926535307
23
1348.9043790736548
0
SOLID
8
0
10
1091.3830503371926
20
1343.9317695968134
11
1091.9056926535307
21
1348.9043790736546
12
1087.3171794498016
22
1344.3161075536534
13
1087.735568666463
23
1349.298571849901
0
SOLID
8
0
10
1087.3171794498016
20
1344.3161075536534
11
1087.7355686664632
21
1349.2985718499008
12
1083.2441513082163
22
1344.615212043513
13
1083.5581039058627
23
1349.6053456856544
0
SOLID
8
0
10
1083.2441513082163
20
1344.6152120435129
11
1083.5581039058627
21
1349.6053456856544
12
1079.165752477194
22
1344.8289518692775
13
1079.3751307458397
23
1349.8245660197717
0
SOLID
8
0
10
1079.165752477194
20
1344.8289518692773
11
1079.37513074584
21
1349.8245660197717
12
1075.0837718772548
22
1344.957233277595
13
1075.1884839766715
23
1349.9561366949692
0
SOLID
8
0
10
1075.0837718772548
20
1344.957233277595
11
1075.1884839766715
21
1349.956136694969
12
1071.0
22
1345.0
13
1071.0
23
1350.0
0
SOLID
8
0
10
1071.0
20
950.0
11
1071.0
21
945.0
12
1075.1884839766715
22
950.0438633050309
13
1075.2931960760882
23
945.0449598876567
0
SOLID
8
0
10
1075.1884839766715
20
950.0438633050309
11
1075.2931960760882
21
945.0449598876567
12
1079.3751307458401
22
950.1754339802283
13
1079.5845090144858
23
945.1798198297341
0
SOLID
8
0
10
1079.37513074584
20
950.1754339802283
11
1079.584509014486
21
945.179819829734
12
1083.5581039058627
22
950.3946543143456
13
1083.8720565035094
23
945.4045206722044
0
SOLID
8
0
10
1083.5581039058627
20
950.3946543143456
11
1083.8720565035092
21
945.4045206722044
12
1087.7355686664632
22
950.7014281500992
13
1088.1539578831246
23
945.7189638538515
0
SOLID
8
0
10
1087.735568666463
20
950.7014281500991
11
1088.1539578831246
21
945.7189638538516
12
1091.9056926535309
22
951.0956209263454
13
1092.428334969869
23
946.123011449504
0
SOLID
8
0
10
1091.9056926535307
20
951.0956209263453
11
1092.428334969869
21
946.123011449504
12
1096.066646712861
22
951.5770597371045
13
1096.6933128806825
23
946.6164862305321
0
SOLID
8
0
10
1096.0666467128608
20
951.5770597371045
11
1096.6933128806825
21
946.616486230532
12
1100.2166057124825
22
952.1455334074024
13
1100.9470208552943
23
947.1991717425874
0
SOLID
8
0
10
1100.2166057124823
20
952.1455334074024
11
1100.9470208552943
21
947.1991717425874
12
1104.3537493432204
22
952.800792585899
13
1105.187593076801
23
947.8708124005464
0
SOLID
8
0
10
1104.3537493432204
20
952.800792585899
11
1105.187593076801
21
947.8708124005465
12
1108.476262917145
22
953.5425498542623
13
1109.4131694900734
23
948.6311136006187
0
SOLID
8
0
10
1108.4762629171448
20
953.5425498542622
11
1109.4131694900736
21
948.6311136006188
12
1112.5823381635519
22
954.3704798532387
13
1113.6218966176407
23
949.4797418495698
0
SOLID
8
0
10
1112.5823381635519
20
954.3704798532389
11
1113.6218966176407
21
949.4797418495698
12
1116.6701740221313
22
955.284219425368
13
1117.8119283726844
23
950.416324911002
0
SOLID
8
0
10
1116.670174022131
20
955.284219425368
11
1117.8119283726844
21
950.4163249110021
12
1120.737977432971
22
956.2833677742736
13
1121.981426868795
23
951.4404519686307
0
SOLID
8
0
10
1120.7379774329709
20
956.2833677742738
11
1121.9814268687953
21
951.4404519686307
12
1124.783964123053
22
957.3674866404683
13
1126.1285632261295
23
952.55167380648
0
SOLID
8
0
10
1124.7839641230532
20
957.3674866404683
11
1126.1285632261295
21
952.55167380648
12
1128.8063593888944
22
958.5361004935866
13
1130.2515183736166
23
953.749503005926
0
SOLID
8
0
10
1128.8063593888944
20
958.5361004935866
11
1130.2515183736166
21
953.7495030059263
12
1132.8033988749896
22
959.7886967409693
13
1134.3484838468642
23
955.0334141594934
0
SOLID
8
0
10
1132.8033988749894
20
959.7886967409693
11
1134.3484838468642
21
955.0334141594935
12
1136.7733293477168
22
961.1247259525038
13
1138.4176625814096
23
956.4028441013164
0
SOLID
8
0
10
1136.7733293477168
20
961.1247259525038
11
1138.4176625814096
21
956.4028441013163
12
1140.7144094643631
22
962.5436021016218
13
1142.4572697009721
23
957.8571921541624
0
SOLID
8
0
10
1140.7144094643631
20
962.5436021016217
11
1142.4572697009721
21
957.8571921541622
12
1144.6249105369357
22
964.0447028223497
13
1146.465533300359
23
959.3958203929085
0
SOLID
8
0
10
1144.6249105369357
20
964.0447028223497
11
1146.4655333003589
21
959.3958203929085
12
1148.5031172904207
22
965.6273696822999
13
1150.440695222681
23
961.0180539243572
0
SOLID
8
0
10
1148.5031172904205
20
965.6273696822999
11
1150.4406952226811
21
961.0180539243574
12
1152.3473286151602
22
967.29090847148
13
1154.3810118305391
23
962.7231811832669
0
SOLID
8
0
10
1152.34732861516
20
967.2909084714798
11
1154.3810118305391
21
962.7231811832669
12
1156.1558583130145
22
969.034589506796
13
1158.28475477084
23
964.510454244466
0
SOLID
8
0
10
1156.1558583130145
20
969.0345895067961
11
1158.28475477084
21
964.510454244466
12
1159.9270358369856
22
970.8576479521175
13
1162.15021173291
23
966.3790891509203
0
SOLID
8
0
10
1159.9270358369854
20
970.8576479521174
11
1162.15021173291
21
966.3790891509203
12
1163.6592070239726
22
972.759284153757
13
1165.9756871995717
23
968.3282662576011
0
SOLID
8
0
10
1163.6592070239724
20
972.7592841537571
11
1165.9756871995717
21
968.328266257601
12
1167.350734820343
22
974.7386639912272
13
1169.7595031908518
23
970.357130591008
0
SOLID
8
0
10
1167.350734820343
20
974.7386639912272
11
1169.7595031908515
21
970.357130591008
12
1171.0
22
976.7949192431123
13
1173.5
23
972.46479222419
0
SOLID
8
0
10
1171.0
20
976.7949192431122
11
1173.5
21
972.4647922241901
12
1174.6054018746263
22
978.9271479678986
13
1177.1955369214918
23
974.650326667096
0
SOLID
8
0
10
1174.605401874626
20
978.9271479678987
11
1177.1955369214916
21
974.6503266670961
12
1178.1653589957996
22
981.134414899597
13
1180.8444929706943
23
976.9127752720868
0
SOLID
8
0
10
1178.1653589957994
20
981.134414899597
11
1180.8444929706943
21
976.912775272087
12
1181.678309848669
22
983.41575185798
13
1184.4452675948855
23
979.2511456544295
0
SOLID
8
0
10
1181.6783098486687
20
983.4157518579801
11
1184.4452675948855
21
979.2511456544296
12
1185.1427135368865
22
985.7701581732592
13
1187.9962813753086
23
981.6644121275907
0
SOLID
8
0
10
1185.1427135368863
20
985.7701581732592
11
1187.9962813753084
21
981.6644121275907
12
1188.5570504584946
22
988.1966011250106
13
1191.495976719957
23
984.1515161531358
0
SOLID
8
0
10
1188.5570504584946
20
988.1966011250105
11
1191.495976719957
21
984.1515161531357
12
1191.9198229724752
22
990.6940163951608
13
1194.9428185467868
23
986.7113668050397
0
SOLID
8
0
10
1191.919822972475
20
990.6940163951607
11
1194.9428185467868
21
986.7113668050397
12
1195.229556055662
22
993.261308534832
13
1198.3352949570535
23
989.3428412482028
0
SOLID
8
0
10
1195.229556055662
20
993.2613085348321
11
1198.3352949570535
21
989.3428412482028
12
1198.484797949738
22
995.8973514448421
13
1201.6719178984813
23
992.0447852309632
0
SOLID
8
0
10
1198.4847979497379
20
995.8973514448421
11
1201.6719178984813
21
992.0447852309633
12
1201.6841207980212
22
998.6009888696487
13
1204.9512238179716
23
994.8160135913898
0
SOLID
8
0
10
1201.684120798021
20
998.6009888696487
11
1204.9512238179716
21
994.81601359139
12
1204.8261212717719
22
1001.3710349045213
13
1208.171774303566
23
997.6553107771342
0
SOLID
8
0
10
1204.8261212717716
20
1001.3710349045211
11
1208.171774303566
21
997.6553107771342
12
1207.9094211857378
22
1004.2062745157177
13
1211.3321567153812
23
1000.5614313786106
0
SOLID
8
0
10
1207.9094211857378
20
1004.2062745157177
11
1211.3321567153812
21
1000.5614313786107
12
1210.9326681026732
22
1007.1054640734394
13
1214.4309848052399
23
1003.5331006752754
0
SOLID
8
0
10
1210.932668102673
20
1007.1054640734393
11
1214.4309848052399
21
1003.5331006752754
12
1213.8945359265608
22
1010.067331897327
13
1217.4668993247246
23
1006.5690151947599
0
SOLID
8
0
10
1213.8945359265608
20
1010.067331897327
11
1217.4668993247246
21
1006.5690151947601
12
1216.7937254842825
22
1013.0905788142624
13
1220.4385686213893
23
1009.6678432846188
0
SOLID
8
0
10
1216.7937254842823
20
1013.0905788142622
11
1220.4385686213893
21
1009.6678432846188
12
1219.6289650954789
22
1016.1738787282284
13
1223.3446892228658
23
1012.828225696434
0
SOLID
8
0
10
1219.6289650954789
20
1016.1738787282284
11
1223.3446892228658
21
1012.8282256964341
12
1222.3990111303515
22
1019.315879201979
13
1226.18398640861
23
1016.0487761820283
0
SOLID
8
0
10
1222.3990111303513
20
1019.3158792019789
11
1226.18398640861
21
1016.0487761820284
12
1225.1026485551579
22
1022.5152020502621
13
1228.955214769037
23
1019.3280821015187
0
SOLID
8
0
10
1225.1026485551579
20
1022.515202050262
11
1228.9552147690367
21
1019.3280821015186
12
1227.7386914651681
22
1025.770443944338
13
1231.657158751797
23
1022.6647050429463
0
SOLID
8
0
10
1227.738691465168
20
1025.770443944338
11
1231.6571587517972
21
1022.6647050429464
12
1230.3059836048392
22
1029.0801770275252
13
1234.2886331949603
23
1026.0571814532132
0
SOLID
8
0
10
1230.3059836048392
20
1029.080177027525
11
1234.2886331949603
21
1026.0571814532132
12
1232.8033988749894
22
1032.4429495415054
13
1236.8484838468642
23
1029.504023280043
0
SOLID
8
0
10
1232.8033988749894
20
1032.4429495415054
11
1236.8484838468642
21
1029.504023280043
12
1235.229841826741
22
1035.8572864631137
13
1239.3355878724092
23
1033.0037186246914
0
SOLID
8
0
10
1235.2298418267408
20
1035.8572864631137
11
1239.3355878724092
21
1033.0037186246914
12
1237.58424814202
22
1039.321690151331
13
1241.7488543455704
23
1036.5547324051145
0
SOLID
8
0
10
1237.58424814202
20
1039.3216901513313
11
1241.7488543455704
21
1036.5547324051145
12
1239.865585100403
22
1042.8346410042006
13
1244.087224727913
23
1040.1555070293057
0
SOLID
8
0
10
1239.865585100403
20
1042.8346410042006
11
1244.087224727913
21
1040.1555070293057
12
1242.0728520321013
22
1046.3945981253742
13
1246.3496733329039
23
1043.8044630785084
0
SOLID
8
0
10
1242.0728520321013
20
1046.394598125374
11
1246.3496733329039
21
1043.8044630785082
12
1244.2050807568878
22
1050.0
13
1248.5352077758098
23
1047.5
0
SOLID
8
0
10
1244.2050807568878
20
1050.0
11
1248.5352077758098
21
1047.5
12
1246.261336008773
22
1053.649265179657
13
1250.642869408992
23
1051.2404968091485
0
SOLID
8
0
10
1246.2613360087728
20
1053.649265179657
11
1250.642869408992
21
1051.2404968091485
12
1248.2407158462431
22
1057.3407929760278
13
1252.671733742399
23
1055.0243128004283
0
SOLID
8
0
10
1248.240715846243
20
1057.3407929760276
11
1252.671733742399
21
1055.0243128004283
12
1250.1423520478827
22
1061.0729641630144
13
1254.6209108490796
23
1058.84978826709
0
SOLID
8
0
10
1250.1423520478825
20
1061.0729641630146
11
1254.6209108490796
21
1058.84978826709
12
1251.965410493204
22
1064.8441416869855
13
1256.489545755534
23
1062.71524522916
0
SOLID
8
0
10
1251.965410493204
20
1064.8441416869855
11
1256.489545755534
21
1062.71524522916
12
1253.7090915285203
22
1068.65267138484
13
1258.276818816733
23
1066.6189881694609
0
SOLID
8
0
10
1253.7090915285203
20
1068.65267138484
11
1258.276818816733
21
1066.6189881694609
12
1255.3726303177002
22
1072.4968827095795
13
1259.9819460756426
23
1070.5593047773189
0
SOLID
8
0
10
1255.3726303177
20
1072.4968827095795
11
1259.9819460756426
21
1070.5593047773189
12
1256.9552971776504
22
1076.3750894630643
13
1261.6041796070915
23
1074.5344666996411
0
SOLID
8
0
10
1256.9552971776502
20
1076.3750894630643
11
1261.6041796070915
21
1074.534466699641
12
1258.4563978983783
22
1080.285590535637
13
1263.1428078458378
23
1078.5427302990277
0
SOLID
8
0
10
1258.4563978983783
20
1080.2855905356369
11
1263.1428078458378
21
1078.5427302990279
12
1259.875274047496
22
1084.2266706522832
13
1264.5971558986837
23
1082.5823374185904
0
SOLID
8
0
10
1259.875274047496
20
1084.2266706522832
11
1264.5971558986837
21
1082.5823374185904
12
1261.211303259031
22
1088.1966011250106
13
1265.9665858405065
23
1086.6515161531356
0
SOLID
8
0
10
1261.2113032590307
20
1088.1966011250106
11
1265.9665858405065
21
1086.6515161531358
12
1262.4638995064136
22
1092.1936406111058
13
1267.2504969940737
23
1090.7484816263834
0
SOLID
8
0
10
1262.4638995064133
20
1092.1936406111056
11
1267.2504969940737
21
1090.7484816263834
12
1263.6325133595317
22
1096.2160358769468
13
1268.4483261935197
23
1094.8714367738705
0
SOLID
8
0
10
1263.6325133595317
20
1096.2160358769468
11
1268.44832619352
21
1094.8714367738705
12
1264.7166322257262
22
1100.2620225670291
13
1269.5595480313693
23
1099.0185731312047
0
SOLID
8
0
10
1264.7166322257262
20
1100.262022567029
11
1269.5595480313693
21
1099.0185731312047
12
1265.7157805746322
22
1104.3298259778687
13
1270.5836750889978
23
1103.1880716273156
0
SOLID
8
0
10
1265.715780574632
20
1104.3298259778687
11
1270.5836750889978
21
1103.1880716273156
12
1266.629520146761
22
1108.4176618364481
13
1271.5202581504302
23
1107.3781033823593
0
SOLID
8
0
10
1266.629520146761
20
1108.4176618364481
11
1271.5202581504302
21
1107.3781033823593
12
1267.4574501457378
22
1112.5237370828552
13
1272.3688863993812
23
1111.5868305099264
0
SOLID
8
0
10
1267.4574501457378
20
1112.5237370828552
11
1272.3688863993812
21
1111.5868305099266
12
1268.199207414101
22
1116.6462506567796
13
1273.1291875994536
23
1115.812406923199
0
SOLID
8
0
10
1268.199207414101
20
1116.6462506567796
11
1273.1291875994534
21
1115.812406923199
12
1268.8544665925979
22
1120.7833942875177
13
1273.8008282574126
23
1120.0529791447057
0
SOLID
8
0
10
1268.8544665925976
20
1120.7833942875177
11
1273.8008282574126
21
1120.0529791447057
12
1269.4229402628955
22
1124.9333532871392
13
1274.383513769468
23
1124.3066871193178
0
SOLID
8
0
10
1269.4229402628955
20
1124.9333532871392
11
1274.383513769468
21
1124.3066871193175
12
1269.9043790736548
22
1129.0943073464693
13
1274.876988550496
23
1128.571665030131
0
SOLID
8
0
10
1269.9043790736546
20
1129.0943073464693
11
1274.876988550496
21
1128.571665030131
12
1270.298571849901
22
1133.264431333537
13
1275.2810361461484
23
1132.8460421168754
0
SOLID
8
0
10
1270.2985718499008
20
1133.264431333537
11
1275.2810361461484
21
1132.8460421168754
12
1270.6053456856544
22
1137.4418960941375
13
1275.5954793277958
23
1137.1279434964908
0
SOLID
8
0
10
1270.6053456856544
20
1137.4418960941373
11
1275.5954793277956
21
1137.1279434964906
12
1270.8245660197717
22
1141.6248692541603
13
1275.8201801702658
23
1141.415490985514
0
SOLID
8
0
10
1270.8245660197717
20
1141.62486925416
11
1275.820180170266
21
1141.415490985514
12
1270.9561366949692
22
1145.8115160233285
13
1275.9550401123433
23
1145.7068039239118
0
SOLID
8
0
10
1270.956136694969
20
1145.8115160233285
11
1275.9550401123433
21
1145.7068039239118
12
1271.0
22
1150.0
13
1276.0
23
1150.0
0
SOLID
8
0
10
1271.0
20
1150.0
11
1276.0
21
1150.0
12
1270.9561366949692
22
1154.1884839766715
13
1275.9550401123433
23
1154.2931960760882
0
SOLID
8
0
10
1270.956136694969
20
1154.1884839766715
11
1275.9550401123433
21
1154.2931960760882
12
1270.8245660197717
22
1158.3751307458401
13
1275.8201801702658
23
1158.5845090144858
0
SOLID
8
0
10
1270.8245660197717
20
1158.37513074584
11
1275.820180170266
21
1158.584509014486
12
1270.6053456856544
22
1162.5581039058627
13
1275.5954793277956
23
1162.8720565035094
0
SOLID
8
0
10
1270.6053456856544
20
1162.5581039058627
11
1275.5954793277956
21
1162.8720565035092
12
1270.2985718499008
22
1166.7355686664632
13
1275.2810361461484
23
1167.1539578831246
0
SOLID
8
0
10
1270.2985718499008
20
1166.735568666463
11
1275.2810361461484
21
1167.1539578831246
12
1269.9043790736546
22
1170.9056926535309
13
1274.876988550496
23
1171.428334969869
0
SOLID
8
0
10
1269.9043790736546
20
1170.9056926535307
11
1274.876988550496
21
1171.428334969869
12
1269.4229402628955
22
1175.066646712861
13
1274.383513769468
23
1175.6933128806825
0
SOLID
8
0
10
1269.4229402628955
20
1175.0666467128608
11
1274.383513769468
21
1175.6933128806825
12
1268.8544665925976
22
1179.2166057124825
13
1273.8008282574126
23
1179.9470208552943
0
SOLID
8
0
10
1268.8544665925976
20
1179.2166057124823
11
1273.8008282574126
21
1179.9470208552943
12
1268.199207414101
22
1183.3537493432204
13
1273.1291875994536
23
1184.187593076801
0
SOLID
8
0
10
1268.199207414101
20
1183.3537493432204
11
1273.1291875994534
21
1184.187593076801
12
1267.4574501457378
22
1187.476262917145
13
1272.3688863993814
23
1188.4131694900734
0
SOLID
8
0
10
1267.4574501457378
20
1187.4762629171448
11
1272.3688863993812
21
1188.4131694900734
12
1266.6295201467613
22
1191.5823381635519
13
1271.5202581504302
23
1192.6218966176407
0
SOLID
8
0
10
1266.629520146761
20
1191.5823381635519
11
1271.5202581504302
21
1192.6218966176407
12
1265.715780574632
22
1195.6701740221313
13
1270.583675088998
23
1196.8119283726844
0
SOLID
8
0
10
1265.715780574632
20
1195.670174022131
11
1270.5836750889978
21
1196.8119283726844
12
1264.7166322257262
22
1199.737977432971
13
1269.5595480313693
23
1200.981426868795
0
SOLID
8
0
10
1264.7166322257262
20
1199.7379774329709
11
1269.5595480313693
21
1200.981426868795
12
1263.6325133595317
22
1203.783964123053
13
1268.44832619352
23
1205.1285632261295
0
SOLID
8
0
10
1263.6325133595317
20
1203.783964123053
11
1268.44832619352
21
1205.1285632261295
12
1262.4638995064133
22
1207.8063593888944
13
1267.250496994074
23
1209.2515183736166
0
SOLID
8
0
10
1262.4638995064136
20
1207.8063593888942
11
1267.2504969940737
21
1209.2515183736166
12
1261.2113032590307
22
1211.8033988749894
13
1265.9665858405067
23
1213.3484838468642
0
SOLID
8
0
10
1261.2113032590307
20
1211.8033988749894
11
1265.9665858405065
21
1213.3484838468642
12
1259.8752740474963
22
1215.7733293477168
13
1264.5971558986837
23
1217.4176625814096
0
SOLID
8
0
10
1259.8752740474963
20
1215.7733293477168
11
1264.5971558986837
21
1217.4176625814096
12
1258.4563978983783
22
1219.7144094643631
13
1263.1428078458378
23
1221.4572697009721
0
SOLID
8
0
10
1258.4563978983783
20
1219.714409464363
11
1263.1428078458378
21
1221.4572697009721
12
1256.9552971776504
22
1223.6249105369357
13
1261.6041796070915
23
1225.465533300359
0
SOLID
8
0
10
1256.9552971776502
20
1223.6249105369357
11
1261.6041796070915
21
1225.4655333003589
12
1255.3726303177
22
1227.5031172904207
13
1259.9819460756428
23
1229.440695222681
0
SOLID
8
0
10
1255.3726303177
20
1227.5031172904205
11
1259.9819460756426
21
1229.4406952226811
12
1253.70909152852
22
1231.3473286151602
13
1258.276818816733
23
1233.3810118305391
0
SOLID
8
0
10
1253.7090915285203
20
1231.34732861516
11
1258.276818816733
21
1233.3810118305391
12
1251.965410493204
22
1235.1558583130145
13
1256.489545755534
23
1237.28475477084
0
SOLID
8
0
10
1251.965410493204
20
1235.1558583130145
11
1256.489545755534
21
1237.2847547708398
12
1250.1423520478825
22
1238.9270358369856
13
1254.6209108490798
23
1241.15021173291
0
SOLID
8
0
10
1250.1423520478827
20
1238.9270358369854
11
1254.6209108490798
21
1241.15021173291
12
1248.2407158462431
22
1242.6592070239724
13
1252.671733742399
23
1244.9756871995717
0
SOLID
8
0
10
1248.240715846243
20
1242.6592070239724
11
1252.671733742399
21
1244.9756871995717
12
1246.2613360087728
22
1246.350734820343
13
1250.642869408992
23
1248.7595031908518
0
SOLID
8
0
10
1246.2613360087728
20
1246.350734820343
11
1250.642869408992
21
1248.7595031908515
12
1244.2050807568878
22
1250.0
13
1248.53520777581
23
1252.5
0
SOLID
8
0
10
1244.2050807568878
20
1250.0
11
1248.53520777581
21
1252.5
12
1242.0728520321015
22
1253.6054018746263
13
1246.3496733329039
23
1256.1955369214918
0
SOLID
8
0
10
1242.0728520321013
20
1253.6054018746258
11
1246.3496733329039
21
1256.1955369214916
12
1239.865585100403
22
1257.1653589957994
13
1244.0872247279133
23
1259.8444929706943
0
SOLID
8
0
10
1239.865585100403
20
1257.1653589957994
11
1244.087224727913
21
1259.8444929706943
12
1237.58424814202
22
1260.678309848669
13
1241.7488543455706
23
1263.4452675948855
0
SOLID
8
0
10
1237.58424814202
20
1260.6783098486687
11
1241.7488543455704
21
1263.4452675948855
12
1235.2298418267408
22
1264.1427135368865
13
1239.3355878724092
23
1266.9962813753086
0
SOLID
8
0
10
1235.2298418267408
20
1264.1427135368863
11
1239.3355878724094
21
1266.9962813753084
12
1232.8033988749894
22
1267.5570504584946
13
1236.8484838468642
23
1270.495976719957
0
SOLID
8
0
10
1232.8033988749894
20
1267.5570504584946
11
1236.8484838468642
21
1270.495976719957
12
1230.3059836048392
22
1270.9198229724752
13
1234.2886331949603
23
1273.9428185467868
0
SOLID
8
0
10
1230.3059836048392
20
1270.919822972475
11
1234.2886331949603
21
1273.9428185467868
12
1227.738691465168
22
1274.229556055662
13
1231.6571587517972
23
1277.3352949570535
0
SOLID
8
0
10
1227.738691465168
20
1274.229556055662
11
1231.6571587517972
21
1277.3352949570535
12
1225.1026485551579
22
1277.484797949738
13
1228.955214769037
23
1280.6719178984813
0
SOLID
8
0
10
1225.1026485551579
20
1277.4847979497379
11
1228.955214769037
21
1280.6719178984813
12
1222.3990111303513
22
1280.6841207980212
13
1226.1839864086103
23
1283.9512238179714
0
SOLID
8
0
10
1222.3990111303513
20
1280.684120798021
11
1226.18398640861
21
1283.9512238179716
12
1219.6289650954789
22
1283.8261212717716
13
1223.3446892228658
23
1287.171774303566
0
SOLID
8
0
10
1219.6289650954789
20
1283.8261212717716
11
1223.3446892228658
21
1287.171774303566
12
1216.7937254842823
22
1286.9094211857378
13
1220.4385686213895
23
1290.3321567153812
0
SOLID
8
0
10
1216.7937254842823
20
1286.9094211857378
11
1220.4385686213893
21
1290.3321567153812
12
1213.8945359265608
22
1289.9326681026732
13
1217.4668993247246
23
1293.4309848052399
0
SOLID
8
0
10
1213.8945359265606
20
1289.932668102673
11
1217.4668993247246
21
1293.4309848052399
12
1210.932668102673
22
1292.8945359265608
13
1214.43098480524
23
1296.4668993247246
0
SOLID
8
0
10
1210.9326681026732
20
1292.8945359265606
11
1214.4309848052399
21
1296.4668993247246
12
1207.9094211857378
22
1295.7937254842825
13
1211.3321567153812
23
1299.438568621389
0
SOLID
8
0
10
1207.9094211857378
20
1295.7937254842823
11
1211.3321567153812
21
1299.4385686213893
12
1204.8261212717716
22
1298.6289650954789
13
1208.171774303566
23
1302.3446892228658
0
SOLID
8
0
10
1204.8261212717716
20
1298.6289650954789
11
1208.171774303566
21
1302.3446892228658
12
1201.684120798021
22
1301.3990111303515
13
1204.9512238179718
23
1305.18398640861
0
SOLID
8
0
10
1201.684120798021
20
1301.3990111303513
11
1204.9512238179716
21
1305.18398640861
12
1198.4847979497379
22
1304.1026485551579
13
1201.6719178984813
23
1307.955214769037
0
SOLID
8
0
10
1198.4847979497379
20
1304.1026485551579
11
1201.6719178984813
21
1307.9552147690367
12
1195.229556055662
22
1306.7386914651681
13
1198.3352949570537
23
1310.657158751797
0
SOLID
8
0
10
1195.2295560556622
20
1306.738691465168
11
1198.3352949570537
21
1310.6571587517972
12
1191.9198229724748
22
1309.3059836048392
13
1194.9428185467868
23
1313.2886331949603
0
SOLID
8
0
10
1191.919822972475
20
1309.3059836048392
11
1194.9428185467868
21
1313.28863319496
12
1188.5570504584948
22
1311.8033988749894
13
1191.495976719957
23
1315.8484838468642
0
SOLID
8
0
10
1188.5570504584946
20
1311.8033988749894
11
1191.495976719957
21
1315.8484838468642
12
1185.1427135368863
22
1314.229841826741
13
1187.9962813753086
23
1318.3355878724094
0
SOLID
8
0
10
1185.1427135368865
20
1314.2298418267408
11
1187.9962813753086
21
1318.3355878724092
12
1181.678309848669
22
1316.58424814202
13
1184.4452675948855
23
1320.7488543455704
0
SOLID
8
0
10
1181.6783098486687
20
1316.58424814202
11
1184.4452675948855
21
1320.7488543455704
12
1178.1653589957994
22
1318.865585100403
13
1180.8444929706943
23
1323.087224727913
0
SOLID
8
0
10
1178.1653589957994
20
1318.865585100403
11
1180.8444929706943
21
1323.087224727913
12
1174.6054018746258
22
1321.0728520321013
13
1177.1955369214916
23
1325.3496733329039
0
SOLID
8
0
10
1174.605401874626
20
1321.0728520321013
11
1177.1955369214918
21
1325.3496733329039
12
1171.0
22
1323.2050807568878
13
1173.5
23
1327.5352077758098
0
SOLID
8
0
10
1171.0
20
1323.2050807568878
11
1173.5
21
1327.53520777581
12
1167.350734820343
22
1325.2613360087728
13
1169.7595031908515
23
1329.6428694089918
0
SOLID
8
0
10
1167.3507348203432
20
1325.2613360087728
11
1169.7595031908518
21
1329.642869408992
12
1163.6592070239724
22
1327.240715846243
13
1165.9756871995717
23
1331.671733742399
0
SOLID
8
0
10
1163.6592070239724
20
1327.240715846243
11
1165.9756871995717
21
1331.671733742399
12
1159.9270358369854
22
1329.1423520478827
13
1162.15021173291
23
1333.6209108490796
0
SOLID
8
0
10
1159.9270358369856
20
1329.1423520478825
11
1162.1502117329103
21
1333.6209108490796
12
1156.1558583130145
22
1330.9654104932038
13
1158.28475477084
23
1335.489545755534
0
SOLID
8
0
10
1156.1558583130145
20
1330.9654104932038
11
1158.28475477084
21
1335.489545755534
12
1152.34732861516
22
1332.7090915285203
13
1154.3810118305391
23
1337.276818816733
0
SOLID
8
0
10
1152.34732861516
20
1332.7090915285203
11
1154.3810118305391
21
1337.276818816733
12
1148.5031172904205
22
1334.3726303177002
13
1150.4406952226811
23
1338.9819460756426
0
SOLID
8
0
10
1148.5031172904207
20
1334.3726303177
11
1150.4406952226811
21
1338.9819460756426
12
1144.6249105369357
22
1335.9552971776504
13
1146.4655333003589
23
1340.6041796070915
0
SOLID
8
0
10
1144.6249105369357
20
1335.9552971776502
11
1146.4655333003589
21
1340.6041796070915
12
1140.714409464363
22
1337.4563978983783
13
1142.4572697009721
23
1342.1428078458378
0
SOLID
8
0
10
1140.7144094643631
20
1337.4563978983783
11
1142.4572697009721
21
1342.1428078458378
12
1136.7733293477168
22
1338.875274047496
13
1138.4176625814096
23
1343.5971558986837
0
SOLID
8
0
10
1136.7733293477168
20
1338.875274047496
11
1138.4176625814096
21
1343.5971558986837
12
1132.8033988749894
22
1340.211303259031
13
1134.3484838468644
23
1344.9665858405065
0
SOLID
8
0
10
1132.8033988749894
20
1340.2113032590307
11
1134.3484838468642
21
1344.9665858405065
12
1128.8063593888942
22
1341.4638995064136
13
1130.2515183736166
23
1346.2504969940737
0
SOLID
8
0
10
1128.8063593888944
20
1341.4638995064133
11
1130.2515183736168
21
1346.2504969940737
12
1124.7839641230532
22
1342.6325133595317
13
1126.1285632261297
23
1347.4483261935197
0
SOLID
8
0
10
1124.7839641230532
20
1342.6325133595317
11
1126.1285632261295
21
1347.44832619352
12
1120.7379774329709
22
1343.7166322257262
13
1121.9814268687953
23
1348.5595480313693
0
SOLID
8
0
10
1120.7379774329709
20
1343.7166322257262
11
1121.9814268687953
21
1348.5595480313693
12
1116.6701740221313
22
1344.7157805746322
13
1117.8119283726844
23
1349.5836750889978
0
SOLID
8
0
10
1116.6701740221313
20
1344.715780574632
11
1117.8119283726844
21
1349.5836750889978
12
1112.5823381635519
22
1345.629520146761
13
1113.621896617641
23
1350.5202581504302
0
SOLID
8
0
10
1112.5823381635519
20
1345.629520146761
11
1113.6218966176407
21
1350.5202581504302
12
1108.4762629171448
22
1346.4574501457378
13
1109.4131694900736
23
1351.3688863993812
0
SOLID
8
0
10
1108.4762629171448
20
1346.4574501457378
11
1109.4131694900736
21
1351.3688863993812
12
1104.3537493432204
22
1347.199207414101
13
1105.187593076801
23
1352.1291875994536
0
SOLID
8
0
10
1104.3537493432204
20
1347.199207414101
11
1105.187593076801
21
1352.1291875994534
12
1100.2166057124823
22
1347.8544665925979
13
1100.9470208552943
23
1352.8008282574126
0
SOLID
8
0
10
1100.2166057124823
20
1347.8544665925976
11
1100.9470208552943
21
1352.8008282574126
12
1096.0666467128608
22
1348.4229402628955
13
1096.6933128806822
23
1353.383513769468
0
SOLID
8
0
10
1096.0666467128608
20
1348.4229402628955
11
1096.6933128806825
21
1353.383513769468
12
1091.9056926535307
22
1348.9043790736548
13
1092.428334969869
23
1353.876988550496
0
SOLID
8
0
10
1091.9056926535307
20
1348.9043790736546
11
1092.428334969869
21
1353.876988550496
12
1087.735568666463
22
1349.298571849901
13
1088.1539578831246
23
1354.2810361461484
0
SOLID
8
0
10
1087.7355686664632
20
1349.2985718499008
11
1088.1539578831248
21
1354.2810361461484
12
1083.5581039058627
22
1349.6053456856544
13
1083.8720565035094
23
1354.5954793277958
0
SOLID
8
0
10
1083.5581039058627
20
1349.6053456856544
11
1083.8720565035094
21
1354.5954793277956
12
1079.3751307458397
22
1349.8245660197717
13
1079.584509014486
23
1354.8201801702658
0
SOLID
8
0
10
1079.37513074584
20
1349.8245660197717
11
1079.584509014486
21
1354.820180170266
12
1075.1884839766715
22
1349.9561366949692
13
1075.2931960760882
23
1354.9550401123433
0
SOLID
8
0
10
1075.1884839766715
20
1349.956136694969
11
1075.2931960760884
21
1354.9550401123433
12
1071.0
22
1350.0
13
1071.0000000000002
23
1355.0
0
POLYLINE
8
0
66
1
10
0.0
20
0.0
30
0.0
0
VERTEX
8
0
10
1071.0
20
945.0
0
VERTEX
8
0
10
1081.9105458426466
20
945.2905473862638
0
VERTEX
8
0
10
1092.7901645577099
20
946.1613659569218
0
VERTEX
8
0
10
1103.6080166839097
20
947.6099872821244
0
VERTEX
8
0
10
1114.333437844073
20
949.6323050873373
0
VERTEX
8
0
10
1124.9360256666419
20
952.2225868930243
0
VERTEX
8
0
10
1135.3857259644994
20
955.3734902639818
0
VERTEX
8
0
10
1145.6529179268284
20
959.0760836222706
0
VERTEX
8
0
10
1155.7084980825175
20
963.3198715647428
0
VERTEX
8
0
10
1165.5239627971118
20
968.0928246134029
0
VERTEX
8
0
10
1175.0714890694621
20
973.3814133142698
0
VERTEX
8
0
10
1184.3240133990446
20
979.1706465880844
0
VERTEX
8
0
10
1193.2553085003929
20
985.4441142241525
0
VERTEX
8
0
10
1201.8400576471881
20
992.1840333968692
0
VERTEX
8
0
10
1210.0539264352713
20
999.3712990730712
0
VERTEX
8
0
10
1217.8736317611547
20
1006.9855381673282
0
VERTEX
8
0
10
1225.2770078205083
20
1015.005167291667
0
VERTEX
8
0
10
1232.2430689395417
20
1023.4074539360307
0
VERTEX
8
0
10
1238.7520690611746
20
1032.1685809060466
0
VERTEX
8
0
10
1244.7855577173825
20
1041.2637138354528
0
VERTEX
8
0
10
1250.326432329052
20
1050.6670715818068
0
VERTEX
8
0
10
1255.3589866851
20
1060.3519993059347
0
VERTEX
8
0
10
1259.8689554634348
20
1070.2910440279693
0
VERTEX
8
0
10
1263.8435546675619
20
1080.4560324458039
0
VERTEX
8
0
10
1267.271517864211
20
1090.8181507953777
0
VERTEX
8
0
10
1270.1431281192656
20
1101.3480265264216
0
VERTEX
8
0
10
1272.4502455414668
20
1112.0158115621416
0
VERTEX
8
0
10
1274.1863303558214
20
1122.791266906837
0
VERTEX
8
0
10
1275.3464614413037
20
1133.643848361618
0
VERTEX
8
0
10
1275.9273502803078
20
1144.5427931052561
0
VERTEX
8
0
10
1275.9273502803078
20
1155.4572068947439
0
VERTEX
8
0
10
1275.3464614413037
20
1166.356151638382
0
VERTEX
8
0
10
1274.1863303558214
20
1177.208733093163
0
VERTEX
8
0
10
1272.4502455414668
20
1187.9841884378584
0
VERTEX
8
0
10
1270.1431281192656
20
1198.6519734735784
0
VERTEX
8
0
10
1267.271517864211
20
1209.1818492046223
0
VERTEX
8
0
10
1263.8435546675619
20
1219.5439675541961
0
VERTEX
8
0
10
1259.8689554634348
20
1229.7089559720307
0
VERTEX
8
0
10
1255.3589866851
20
1239.6480006940653
0
VERTEX
8
0
10
1250.326432329052
20
1249.3329284181932
0
VERTEX
8
0
10
1244.7855577173825
20
1258.7362861645472
0
VERTEX
8
0
10
1238.7520690611746
20
1267.8314190939534
0
VERTEX
8
0
10
1232.2430689395417
20
1276.5925460639694
0
VERTEX
8
0
10
1225.2770078205085
20
1284.994832708333
0
VERTEX
8
0
10
1217.8736317611547
20
1293.014461832672
0
VERTEX
8
0
10
1210.0539264352713
20
1300.6287009269288
0
VERTEX
8
0
10
1201.8400576471881
20
1307.8159666031308
0
VERTEX
8
0
10
1193.2553085003929
20
1314.5558857758476
0
VERTEX
8
0
10
1184.3240133990446
20
1320.8293534119157
0
VERTEX
8
0
10
1175.0714890694621
20
1326.6185866857302
0
VERTEX
8
0
10
1165.5239627971118
20
1331.9071753865971
0
VERTEX
8
0
10
1155.7084980825175
20
1336.6801284352573
0
VERTEX
8
0
10
1145.6529179268286
20
1340.9239163777293
0
VERTEX
8
0
10
1135.3857259644994
20
1344.626509736018
0
VERTEX
8
0
10
1124.9360256666419
20
1347.7774131069757
0
VERTEX
8
0
10
1114.333437844073
20
1350.3676949126627
0
VERTEX
8
0
10
1103.6080166839097
20
1352.3900127178756
0
VERTEX
8
0
10
1092.7901645577099
20
1353.8386340430782
0
VERTEX
8
0
10
1081.9105458426466
20
1354.7094526137362
0
VERTEX
8
0
10
1071.0
20
1355.0
0
VERTEX
8
0
10
1071.0
20
1350.0
0
VERTEX
8
0
10
1081.6444349684357
20
1349.7165391353524
0
VERTEX
8
0
10
1092.2586971294731
20
1348.8669600420274
0
VERTEX
8
0
10
1102.8126992038144
20
1347.4536709442689
0
VERTEX
8
0
10
1113.276524725925
20
1345.4806779635733
0
VERTEX
8
0
10
1123.6205128455042
20
1342.9535737629033
0
VERTEX
8
0
10
1133.8153424043899
20
1339.8795216936762
0
VERTEX
8
0
10
1143.8321150505644
20
1336.2672354904678
0
VERTEX
8
0
10
1153.6424371536757
20
1332.1269545709827
0
VERTEX
8
0
10
1163.2185002898652
20
1327.4704150113143
0
VERTEX
8
0
10
1172.533160067768
20
1322.3108162787612
0
VERTEX
8
0
10
1181.5600130722387
20
1316.662783816503
0
VERTEX
8
0
10
1190.2734717077003
20
1310.5423275861926
0
VERTEX
8
0
10
1198.648836728964
20
1303.9667966859813
0
VERTEX
8
0
10
1206.662367253923
20
1296.9548301726136
0
VERTEX
8
0
10
1214.291348059663
20
1289.526304226997
0
VERTEX
8
0
10
1221.5141539712276
20
1281.7022758130079
0
VERTEX
8
0
10
1228.3103111605285
20
1273.5049229892384
0
VERTEX
8
0
10
1234.6605551816338
20
1264.9574820428813
0
VERTEX
8
0
10
1240.5468855779343
20
1256.0841816239486
0
VERTEX
8
0
10
1245.9526169063922
20
1246.91017406653
0
VERTEX
8
0
10
1250.8624260342438
20
1237.4614640917712
0
VERTEX
8
0
10
1255.2623955740826
20
1227.7648350946642
0
VERTEX
8
0
10
1259.1400533342066
20
1217.847773223606
0
VERTEX
8
0
10
1262.4844076724012
20
1207.7383894679242
0
VERTEX
8
0
10
1265.285978652942
20
1197.465339974223
0
VERTEX
8
0
10
1267.5368249185042
20
1187.0577448174229
0
VERTEX
8
0
10
1269.2305662008014
20
1176.5451054567443
0
VERTEX
8
0
10
1270.36240140615
20
1165.9572211106165
0
VERTEX
8
0
10
1270.9291222246904
20
1155.324104287555
0
VERTEX
8
0
10
1270.9291222246904
20
1144.675895712445
0
VERTEX
8
0
10
1270.36240140615
20
1134.0427788893833
0
VERTEX
8
0
10
1269.2305662008014
20
1123.4548945432557
0
VERTEX
8
0
10
1267.5368249185042
20
1112.9422551825771
0
VERTEX
8
0
10
1265.285978652942
20
1102.534660025777
0
VERTEX
8
0
10
1262.4844076724012
20
1092.2616105320758
0
VERTEX
8
0
10
1259.1400533342066
20
1082.152226776394
0
VERTEX
8
0
10
1255.2623955740826
20
1072.2351649053358
0
VERTEX
8
0
10
1250.8624260342438
20
1062.5385359082288
0
VERTEX
8
0
10
1245.9526169063922
20
1053.08982593347
0
VERTEX
8
0
10
1240.5468855779343
20
1043.9158183760514
0
VERTEX
8
0
10
1234.6605551816338
20
1035.0425179571187
0
VERTEX
8
0
10
1228.3103111605285
20
1026.4950770107616
0
VERTEX
8
0
10
1221.5141539712276
20
1018.2977241869924
0
VERTEX
8
0
10
1214.291348059663
20
1010.4736957730031
0
VERTEX
8
0
10
1206.662367253923
20
1003.0451698273865
0
VERTEX
8
0
10
1198.648836728964
20
996.0332033140187
0
VERTEX
8
0
10
1190.2734717077003
20
989.4576724138072
0
VERTEX
8
0
10
1181.5600130722387
20
983.337216183497
0
VERTEX
8
0
10
1172.533160067768
20
977.6891837212388
0
VERTEX
8
0
10
1163.2185002898652
20
972.5295849886857
0
VERTEX
8
0
10
1153.6424371536757
20
967.8730454290173
0
VERTEX
8
0
10
1143.8321150505644
20
963.7327645095323
0
VERTEX
8
0
10
1133.8153424043899
20
960.1204783063238
0
VERTEX
8
0
10
1123.6205128455042
20
957.0464262370969
0
VERTEX
8
0
10
1113.276524725925
20
954.5193220364267
0
VERTEX
8
0
10
1102.8126992038144
20
952.5463290557311
0
VERTEX
8
0
10
1092.2586971294731
20
951.1330399579726
0
VERTEX
8
0
10
1081.6444349684357
20
950.2834608646476
0
VERTEX
8
0
10
1071.0
20
950.0
0
VERTEX
8
0
10
1071.0
20
945.0
0
SEQEND
0
POLYLINE
8
0
66
1
10
0.0
20
0.0
30
0.0
0
VERTEX
8
0
10
1071.0
20
950.0
0
VERTEX
8
0
10
1081.6444349684357
20
950.2834608646476
0
VERTEX
8
0
10
1092.2586971294731
20
951.1330399579726
0
VERTEX
8
0
10
1102.8126992038144
20
952.5463290557311
0
VERTEX
8
0
10
1113.276524725925
20
954.5193220364267
0
VERTEX
8
0
10
1123.6205128455042
20
957.0464262370969
0
VERTEX
8
0
10
1133.8153424043899
20
960.1204783063238
0
VERTEX
8
0
10
1143.8321150505644
20
963.7327645095323
0
VERTEX
8
0
10
1153.6424371536757
20
967.8730454290173
0
VERTEX
8
0
10
1163.2185002898652
20
972.5295849886857
0
VERTEX
8
0
10
1172.533160067768
20
977.6891837212388
0
VERTEX
8
0
10
1181.5600130722387
20
983.337216183497
0
VERTEX
8
0
10
1190.2734717077003
20
989.4576724138072
0
VERTEX
8
0
10
1198.648836728964
20
996.0332033140187
0
VERTEX
8
0
10
1206.662367253923
20
1003.0451698273865
0
VERTEX
8
0
10
1214.291348059663
20
1010.4736957730031
0
VERTEX
8
0
10
1221.5141539712276
20
1018.2977241869922
0
VERTEX
8
0
10
1228.3103111605285
20
1026.4950770107616
0
VERTEX
8
0
10
1234.6605551816338
20
1035.0425179571187
0
VERTEX
8
0
10
1240.5468855779343
20
1043.9158183760514
0
VERTEX
8
0
10
1245.9526169063922
20
1053.08982593347
0
VERTEX
8
0
10
1250.8624260342438
20
1062.5385359082288
0
VERTEX
8
0
10
1255.2623955740826
20
1072.2351649053358
0
VERTEX
8
0
10
1259.1400533342066
20
1082.152226776394
0
VERTEX
8
0
10
1262.4844076724012
20
1092.2616105320758
0
VERTEX
8
0
10
1265.285978652942
20
1102.534660025777
0
VERTEX
8
0
10
1267.5368249185042
20
1112.9422551825771
0
VERTEX
8
0
10
1269.2305662008014
20
1123.4548945432557
0
VERTEX
8
0
10
1270.36240140615
20
1134.0427788893835
0
VERTEX
8
0
10
1270.9291222246904
20
1144.675895712445
0
VERTEX
8
0
10
1270.9291222246904
20
1155.324104287555
0
VERTEX
8
0
10
1270.36240140615
20
1165.9572211106167
0
VERTEX
8
0
10
1269.2305662008014
20
1176.5451054567443
0
VERTEX
8
0
10
1267.5368249185042
20
1187.0577448174229
0
VERTEX
8
0
10
1265.285978652942
20
1197.465339974223
0
VERTEX
8
0
10
1262.4844076724012
20
1207.7383894679242
0
VERTEX
8
0
10
1259.1400533342066
20
1217.847773223606
0
VERTEX
8
0
10
1255.2623955740826
20
1227.7648350946642
0
VERTEX
8
0
10
1250.8624260342438
20
1237.4614640917712
0
VERTEX
8
0
10
1245.9526169063922
20
1246.91017406653
0
VERTEX
8
0
10
1240.5468855779343
20
1256.0841816239486
0
VERTEX
8
0
10
1234.6605551816338
20
1264.9574820428813
0
VERTEX
8
0
10
1228.3103111605285
20
1273.5049229892384
0
VERTEX
8
0
10
1221.5141539712276
20
1281.7022758130076
0
VERTEX
8
0
10
1214.291348059663
20
1289.526304226997
0
VERTEX
8
0
10
1206.662367253923
20
1296.9548301726136
0
VERTEX
8
0
10
1198.648836728964
20
1303.9667966859813
0
VERTEX
8
0
10
1190.2734717077003
20
1310.5423275861926
0
VERTEX
8
0
10
1181.5600130722387
20
1316.662783816503
0
VERTEX
8
0
10
1172.533160067768
20
1322.3108162787612
0
VERTEX
8
0
10
1163.2185002898652
20
1327.4704150113143
0
VERTEX
8
0
10
1153.6424371536757
20
1332.1269545709827
0
VERTEX
8
0
10
1143.8321150505644
20
1336.2672354904676
0
VERTEX
8
0
10
1133.8153424043899
20
1339.8795216936762
0
VERTEX
8
0
10
1123.6205128455042
20
1342.9535737629033
0
VERTEX
8
0
10
1113.276524725925
20
1345.4806779635733
0
VERTEX
8
0
10
1102.8126992038144
20
1347.4536709442689
0
VERTEX
8
0
10
1092.2586971294731
20
1348.8669600420274
0
VERTEX
8
0
10
1081.6444349684357
20
1349.7165391353524
0
VERTEX
8
0
10
1071.0
20
1350.0
0
VERTEX
8
0
10
1071.0
20
1345.0
0
VERTEX
8
0
10
1081.3783240942248
20
1344.7236256569686
0
VERTEX
8
0
10
1091.7272297012364
20
1343.8952860409768
0
VERTEX
8
0
10
1102.0173817237192
20
1342.5173291706622
0
VERTEX
8
0
10
1112.2196116077766
20
1340.593661014484
0
VERTEX
8
0
10
1122.3050000243666
20
1338.1297344188306
0
VERTEX
8
0
10
1132.24495884428
20
1335.1325336513344
0
VERTEX
8
0
10
1142.0113121743002
20
1331.610554603206
0
VERTEX
8
0
10
1151.5763762248337
20
1327.573780706708
0
VERTEX
8
0
10
1160.9130377826186
20
1323.0336546360315
0
VERTEX
8
0
10
1169.9948310660739
20
1318.0030458717922
0
VERTEX
8
0
10
1178.7960127454328
20
1312.4962142210904
0
VERTEX
8
0
10
1187.2916349150078
20
1306.5287693965379
0
VERTEX
8
0
10
1195.45761581074
20
1300.1176267688318
0
VERTEX
8
0
10
1203.2708080725752
20
1293.2809594182982
0
VERTEX
8
0
10
1210.7090643581714
20
1286.038146621322
0
VERTEX
8
0
10
1217.751300121947
20
1278.4097189176825
0
VERTEX
8
0
10
1224.3775533815153
20
1270.4172999145073
0
VERTEX
8
0
10
1230.569041302093
20
1262.0835449918093
0
VERTEX
8
0
10
1236.3082134384858
20
1253.4320770833497
0
VERTEX
8
0
10
1241.5788014837324
20
1244.4874197148667
0
VERTEX
8
0
10
1246.3658653833877
20
1235.2749274894768
0
VERTEX
8
0
10
1250.6558356847306
20
1225.8207142172976
0
VERTEX
8
0
10
1254.4365520008514
20
1216.1515788930158
0
VERTEX
8
0
10
1257.697297480591
20
1206.2949297312261
0
VERTEX
8
0
10
1260.4288291866185
20
1196.2787064748675
0
VERTEX
8
0
10
1262.6234042955416
20
1186.1313011969874
0
VERTEX
8
0
10
1264.2748020457814
20
1175.8814778203257
0
VERTEX
8
0
10
1265.3783413709962
20
1165.5582905828512
0
VERTEX
8
0
10
1265.9308941690733
20
1155.191001680366
0
VERTEX
8
0
10
1265.9308941690733
20
1144.808998319634
0
VERTEX
8
0
10
1265.3783413709962
20
1134.4417094171488
0
VERTEX
8
0
10
1264.2748020457814
20
1124.1185221796743
0
VERTEX
8
0
10
1262.6234042955416
20
1113.8686988030126
0
VERTEX
8
0
10
1260.4288291866185
20
1103.7212935251325
0
VERTEX
8
0
10
1257.697297480591
20
1093.7050702687739
0
VERTEX
8
0
10
1254.4365520008514
20
1083.848421106984
0
VERTEX
8
0
10
1250.6558356847306
20
1074.1792857827024
0
VERTEX
8
0
10
1246.3658653833877
20
1064.7250725105232
0
VERTEX
8
0
10
1241.5788014837324
20
1055.5125802851333
0
VERTEX
8
0
10
1236.3082134384858
20
1046.5679229166503
0
VERTEX
8
0
10
1230.569041302093
20
1037.9164550081907
0
VERTEX
8
0
10
1224.3775533815153
20
1029.5827000854924
0
VERTEX
8
0
10
1217.751300121947
20
1021.5902810823175
0
VERTEX
8
0
10
1210.7090643581714
20
1013.9618533786779
0
VERTEX
8
0
10
1203.2708080725752
20
1006.7190405817018
0
VERTEX
8
0
10
1195.45761581074
20
999.8823732311682
0
VERTEX
8
0
10
1187.2916349150078
20
993.4712306034621
0
VERTEX
8
0
10
1178.7960127454328
20
987.5037857789096
0
VERTEX
8
0
10
1169.9948310660739
20
981.9969541282078
0
VERTEX
8
0
10
1160.9130377826186
20
976.9663453639686
0
VERTEX
8
0
10
1151.5763762248337
20
972.426219293292
0
VERTEX
8
0
10
1142.0113121743004
20
968.389445396794
0
VERTEX
8
0
10
1132.24495884428
20
964.8674663486656
0
VERTEX
8
0
10
1122.3050000243666
20
961.8702655811694
0
VERTEX
8
0
10
1112.2196116077769
20
959.406338985516
0
VERTEX
8
0
10
1102.0173817237192
20
957.4826708293378
0
VERTEX
8
0
10
1091.7272297012362
20
956.1047139590232
0
VERTEX
8
0
10
1081.3783240942248
20
955.2763743430314
0
VERTEX
8
0
10
1071.0
20
955.0
0
VERTEX
8
0
10
1071.0
20
950.0
0
SEQEND
0
SOLID
8
0
10
1071.0
20
1350.0
11
1021.0
21
1350.0
12
1071.0
22
1345.0
13
1021.0
23
1338.0
0
SOLID
8
0
10
1071.0
20
1350.0
11
1021.0
21
1350.0
12
1071.0
22
1355.0
13
1021.0
23
1362.0
0
SOLID
8
0
10
1017.0
20
1362.0
11
1017.0
21
1359.0
12
950.0
22
1362.0
13
950.0
23
1359.0
0
SOLID
8
0
10
1021.0
20
1355.0
11
1021.0
21
1352.0
12
954.0
22
1355.0
13
954.0
23
1352.0
0
SOLID
8
0
10
1017.0
20
1348.0
11
1017.0
21
1345.0
12
950.0
22
1348.0
13
950.0
23
1345.0
0
SOLID
8
0
10
1021.0
20
1341.0
11
1021.0
21
1338.0
12
954.0
22
1341.0
13
954.0
23
1338.0
0
SOLID
8
0
10
950.0
20
1350.0
11
900.0
21
1350.0
12
950.0
22
1338.0
13
900.0
23
1345.0
0
SOLID
8
0
10
950.0
20
1350.0
11
900.0
21
1350.0
12
950.0
22
1362.0
13
900.0
23
1355.0
0
SOLID
8
0
10
900.0
20
1355.0
11
500.0
21
1355.0
12
900.0
22
1345.0
13
500.0
23
1345.0
0
POLYLINE
8
0
66
1
10
0.0
20
0.0
30
0.0
0
VERTEX
8
0
10
900.0
20
1355.0
0
VERTEX
8
0
10
500.0
20
1355.0
0
VERTEX
8
0
10
500.0
20
1345.0
0
VERTEX
8
0
10
900.0
20
1345.0
0
VERTEX
8
0
10
900.0
20
1355.0
0
SEQEND
0
SOLID
8
0
10
500.0
20
1350.0
11
250.0
21
1350.0
12
500.0
22
1345.0
13
250.0
23
1275.0
0
SOLID
8
0
10
500.0
20
1350.0
11
250.0
21
1350.0
12
500.0
22
1355.0
13
250.0
23
1425.0
0
SOLID
8
0
10
250.0
20
1425.0
11
75.00000000000001
21
1425.0
12
250.0
22
1275.0
13
74.99999999999999
23
1275.0
0
POLYLINE
8
0
66
1
10
0.0
20
0.0
30
0.0
0
VERTEX
8
0
10
250.0
20
1425.0
0
VERTEX
8
0
10
75.00000000000001
20
1425.0
0
VERTEX
8
0
10
74.99999999999999
20
1275.0
0
VERTEX
8
0
10
250.0
20
1275.0
0
VERTEX
8
0
10
250.0
20
1425.0
0
SEQEND
0
ENDBLK
0
BLOCK
8
0
2
A
70
0
10
0
20
0
30
0
3
A
0
POLYLINE
8
0
66
1
10
0.0
20
0.0
30
0.0
0
VERTEX
8
0
10
-100.0
20
2000.0
0
VERTEX
8
0
10
7100.0
20
2000.0
0
VERTEX
8
0
10
7100.0
20
1900.0
0
VERTEX
8
0
10
-100.0
20
1900.0
0
VERTEX
8
0
10
-100.0
20
2000.0
0
SEQEND
0
POLYLINE
8
0
66
1
10
0.0
20
0.0
30
0.0
0
VERTEX
8
0
10
-100.0
20
-100.0
0
VERTEX
8
0
10
7100.0
20
-100.0
0
VERTEX
8
0
10
7100.0
20
0.0
0
VERTEX
8
0
10
-100.0
20
0.0
0
VERTEX
8
0
10
-100.0
20
-100.0
0
SEQEND
0
POLYLINE
8
0
66
1
10
0.0
20
0.0
30
0.0
0
VERTEX
8
0
10
-100.0
20
0.0
0
VERTEX
8
0
10
0.0
20
0.0
0
VERTEX
8
0
10
0.0
20
1900.0
0
VERTEX
8
0
10
-100.0
20
1900.0
0
VERTEX
8
0
10
-100.0
20
0.0
0
SEQEND
0
POLYLINE
8
0
66
1
10
0.0
20
0.0
30
0.0
0
VERTEX
8
0
10
7000.0
20
0.0
0
VERTEX
8
0
10
7100.0
20
0.0
0
VERTEX
8
0
10
7100.0
20
1900.0
0
VERTEX
8
0
10
7000.0
20
1900.0
0
VERTEX
8
0
10
7000.0
20
0.0
0
SEQEND
0
ENDBLK
0
ENDSEC
0
SECTION
2
ENTITIES
0
POLYLINE
8
0
66
1
10
0.0
20
0.0
30
0.0
0
VERTEX
8
0
10
-8053.427241887804
20
24194.881889763783
0
VERTEX
8
0
10
-8432.563142932979
20
24065.36679214444
0
VERTEX
8
0
10
-8809.61741415976
20
23929.911011454536
0
VERTEX
8
0
10
-9184.496977413786
20
23788.54798578251
0
VERTEX
8
0
10
-9557.109291380631
20
23641.31261145637
0
VERTEX
8
0
10
-9927.362374430217
20
23488.24123442935
0
VERTEX
8
0
10
-10295.164827323108
20
23329.371641307644
0
VERTEX
8
0
10
-10660.425855772872
20
23164.74305002258
0
VERTEX
8
0
10
-11023.05529285925
20
22994.39610014944
0
VERTEX
8
0
10
-11382.963621286483
20
22818.37284287529
0
VERTEX
8
0
10
-11740.061995481063
20
22636.71673061845
0
VERTEX
8
0
10
-12094.262263523906
20
22449.472606301948
0
VERTEX
8
0
10
-12445.47698891118
20
22256.686692283787
0
VERTEX
8
0
10
-12793.61947213853
20
22058.406578946673
0
VERTEX
8
0
10
-13138.603772103346
20
21854.681212950047
0
VERTEX
8
0
10
-13480.344727319925
20
21645.56088514728
0
VERTEX
8
0
10
-13818.757976942054
20
21431.097218171086
0
VERTEX
8
0
10
-14153.75998158798
20
21211.343153690163
0
VERTEX
8
0
10
-14485.268043962691
20
20986.352939340206
0
VERTEX
8
0
10
-14813.200329272195
20
20756.182115332536
0
VERTEX
8
0
10
-15137.475885424928
20
20520.887500743695
0
VERTEX
8
0
10
-15458.014663015327
20
20280.527179489276
0
VERTEX
8
0
10
-15774.737535084472
20
20035.160485985558
0
VERTEX
8
0
10
-16087.566316653089
20
19784.847990502454
0
VERTEX
8
0
10
-16396.423784021943
20
19529.651484211376
0
VERTEX
8
0
10
-16701.233693835053
20
19269.633963931665
0
VERTEX
8
0
10
-17001.92080190075
20
19004.859616579506
0
VERTEX
8
0
10
-17298.410881766253
20
18735.39380332292
0
VERTEX
8
0
10
-17590.63074304083
20
18461.30304344704
0
VERTEX
8
0
10
-17878.50824946339
20
18182.65499793332
0
VERTEX
8
0
10
-18161.972336709663
20
17899.518452757125
0
VERTEX
8
0
10
-18440.953029934957
20
17611.96330190739
0
VERTEX
8
0
10
-18715.381461047808
20
17320.060530132916
0
VERTEX
8
0
10
-18985.189885710504
20
17023.882195419337
0
VERTEX
8
0
10
-19250.31170006223
20
16723.501411201163
0
VERTEX
8
0
10
-19510.681457160586
20
16418.99232831327
0
VERTEX
8
0
10
-19766.23488313759
20
16110.430116686355
0
VERTEX
8
0
10
-20016.90889306608
20
15797.890946790716
0
VERTEX
8
0
10
-20262.641606532594
20
15481.451970833172
0
VERTEX
8
0
10
-20503.372362912953
20
15161.191303711503
0
VERTEX
8
0
10
-20739.041736346695
20
14837.18800373136
0
VERTEX
8
0
10
-20969.59155040672
20
14509.522053090206
0
VERTEX
8
0
10
-21194.96489246047
20
14178.27433813326
0
VERTEX
8
0
10
-21415.106127719206
20
13843.526629386146
0
VERTEX
8
0
10
-21629.960912971746
20
13505.361561369415
0
VERTEX
8
0
10
-21839.476209999462
20
13163.862612199639
0
VERTEX
8
0
10
-22043.60029866908
20
12819.11408298235
0
VERTEX
8
0
10
-22242.28278970007
20
12471.20107700184
0
VERTEX
8
0
10
-22435.474637103624
20
12120.209478712812
0
VERTEX
8
0
10
-22623.12815028988
20
11766.225932539359
0
VERTEX
8
0
10
-22805.19700584068
20
11409.337821486193
0
VERTEX
8
0
10
-22981.636258944793
20
11049.633245567653
0
VERTEX
8
0
10
-23152.402354492806
20
10687.201000059653
0
VERTEX
8
0
10
-23317.453137828943
20
10322.13055358007
0
VERTEX
8
0
10
-23476.747865157256
20
9954.512026002794
0
VERTEX
8
0
10
-23630.24721359942
20
9584.436166211177
0
VERTEX
8
0
10
-23777.913290901884
20
9211.994329696014
0
VERTEX
8
0
10
-23919.70964478975
20
8837.278456003984
0
VERTEX
8
0
10
-24055.601271965286
20
8460.381046041723
0
VERTEX
8
0
10
-24185.554626748682
20
8081.39513924145
0
VERTEX
8
0
10
-24309.537629359
20
7700.4142905936405
0
VERTEX
8
0
10
-24427.519673833285
20
7317.53254755233
0
VERTEX
8
0
10
-24539.471635581816
20
6932.844426819013
0
VERTEX
8
0
10
-24645.3658785777
20
6546.444891010539
0
VERTEX
8
0
10
-24745.176262178993
20
6158.429325217044
0
VERTEX
8
0
10
-24838.878147581665
20
5768.893513455594
0
VERTEX
8
0
10
-24926.448403901868
20
5377.933615025197
0
VERTEX
8
0
10
-25007.8654138859
20
4985.646140769472
0
VERTEX
8
0
10
-25083.109079246577
20
4592.127929252183
0
VERTEX
8
0
10
-25152.16082562463
20
4197.476122852141
0
VERTEX
8
0
10
-25215.003607173872
20
3801.788143782967
0
VERTEX
8
0
10
-25271.621910769074
20
3405.1616700439354
0
VERTEX
8
0
10
-25322.001759835515
20
3007.6946113073204
0
VERTEX
8
0
10
-25366.130717799115
20
2609.4850847491
0
VERTEX
8
0
10
-25403.99789115655
20
2210.631390827891
0
VERTEX
8
0
10
-25435.59393216432
20
1811.231989018987
0
VERTEX
8
0
10
-25460.911041146344
20
1411.3854735089908
0
VERTEX
8
0
10
-25479.94296841933
20
1011.1905488573269
0
VERTEX
8
0
10
-25492.685015835556
20
610.7460056302805
0
VERTEX
8
0
10
-25499.134037942636
20
210.15069601403246
0
VERTEX
8
0
10
-25499.28844276
20
-190.49649058763026
0
VERTEX
8
0
10
-25493.148192171873
20
-591.0966519647811
0
VERTEX
8
0
10
-25480.714801936687
20
-991.5508975159349
0
VERTEX
8
0
10
-25461.991341312914
20
-1391.7603726598215
0
VERTEX
8
0
10
-25436.982432301396
20
-1791.6262832382665
0
VERTEX
8
0
10
-25405.694248504373
20
-2191.049919904099
0
VERTEX
8
0
10
-25368.1345136015
20
-2589.932682488182
0
VERTEX
8
0
10
-25324.312499443196
20
-2988.1761043394217
0
VERTEX
8
0
10
-25274.239023761846
20
-3385.681876631943
0
VERTEX
8
0
10
-25217.926447501362
20
-3782.351872633131
0
VERTEX
8
0
10
-25155.388671765828
20
-4178.088171926911
0
VERTEX
8
0
10
-25086.641134387904
20
-4572.793084585907
0
VERTEX
8
0
10
-25011.70080611793
20
-4966.3691752868845
0
VERTEX
8
0
10
-24930.586186434557
20
-5358.719287363199
0
VERTEX
8
0
10
-24843.317298978072
20
-5749.746566788562
0
VERTEX
8
0
10
-24749.915686607426
20
-6139.354486085948
0
VERTEX
8
0
10
-24650.404406082238
20
-6527.446868156136
0
VERTEX
8
0
10
-24544.808022371108
20
-6913.927910019521
0
VERTEX
8
0
10
-24433.152602587594
20
-7298.702206465687
0
VERTEX
8
0
10
-24315.46570955539
20
-7681.674773604774
0
VERTEX
8
0
10
-24191.776395004268
20
-8062.751072314845
0
VERTEX
8
0
10
-24062.11519239851
20
-8441.837031579367
0
VERTEX
8
0
10
-23926.514109399486
20
-8818.839071709346
0
VERTEX
8
0
10
-23785.006619964395
20
-9193.664127443957
0
VERTEX
8
0
10
-23637.627656083027
20
-9566.219670924293
0
VERTEX
8
0
10
-23484.413599154544
20
-9936.413734534462
0
VERTEX
8
0
10
-23325.40227100658
20
-10304.154933604264
0
VERTEX
8
0
10
-23160.632924558613
20
-10669.352488968185
0
VERTEX
8
0
10
-22990.146234132186
20
-11031.916249374708
0
VERTEX
8
0
10
-22813.98428541019
20
-11391.756713740719
0
VERTEX
8
0
10
-22632.19056504777
20
-11748.785053245405
0
VERTEX
8
0
10
-22444.80994993736
20
-12102.913133258158
0
VERTEX
8
0
10
-22251.888696130547
20
-12454.053535095216
0
VERTEX
8
0
10
-22053.4744274195
20
-12802.119577599418
0
VERTEX
8
0
10
-21849.616123580723
20
-13147.025338538044
0
VERTEX
8
0
10
-21640.36410828411
20
-13488.685675813225
0
VERTEX
8
0
10
-21425.770036670252
20
-13827.016248479755
0
VERTEX
8
0
10
-21205.886882599014
20
-14161.933537565237
0
VERTEX
8
0
10
-20980.768925572662
20
-14493.354866687167
0
VERTEX
8
0
10
-20750.471737336553
20
-14821.198422462228
0
VERTEX
8
0
10
-20515.05216816104
20
-15145.383274702259
0
VERTEX
8
0
10
-20274.568332807507
20
-15465.82939639252
0
VERTEX
8
0
10
-20029.079596182448
20
-15782.457683446768
0
VERTEX
8
0
10
-19778.646558682867
20
-16095.189974234609
0
VERTEX
8
0
10
-19523.331041236706
20
-16403.949068876165
0
VERTEX
8
0
10
-19263.196070041937
20
-16708.658748299367
0
VERTEX
8
0
10
-18998.30586100823
20
-17009.243793055008
0
VERTEX
8
0
10
-18728.725803904774
20
-17305.630001885267
0
VERTEX
8
0
10
-18454.522446218474
20
-17597.74421004063
0
VERTEX
8
0
10
-18175.763476726257
20
-17885.514307341116
0
VERTEX
8
0
10
-17892.517708785774
20
-18168.869255977035
0
VERTEX
8
0
10
-17604.855063348212
20
-18447.739108045265
0
VERTEX
8
0
10
-17312.84655169812
20
-18722.055022816123
0
VERTEX
8
0
10
-17016.564257923645
20
-18991.749283727277
0
VERTEX
8
0
10
-16716.081321122212
20
-19256.75531509992
0
VERTEX
8
0
10
-16411.471917345752
20
-19517.007698573358
0
VERTEX
8
0
10
-16102.811241289717
20
-19772.442189254052
0
VERTEX
8
0
10
-15790.175487730963
20
-20022.995731574738
0
VERTEX
8
0
10
-15473.641832718602
20
-20268.606474860106
0
VERTEX
8
0
10
-15153.288414522507
20
-20509.213788595065
0
VERTEX
8
0
10
-14829.1943143445
20
-20744.75827739173
0
VERTEX
8
0
10
-14501.439536796615
20
-20975.181795651544
0
VERTEX
8
0
10
-14170.10499015156
20
-21200.427461918825
0
VERTEX
8
0
10
-13835.272466369892
20
-21420.43967292238
0
VERTEX
8
0
10
-13497.024620909255
20
-21635.164117301476
0
VERTEX
8
0
10
-13155.444952320342
20
-21844.54778901292
0
VERTEX
8
0
10
-12810.61778163477
20
-22048.53900041595
0
VERTEX
8
0
10
-12462.628231549965
20
-22247.087395031598
0
VERTEX
8
0
10
-12111.56220541602
20
-22440.14395997357
0
VERTEX
8
0
10
-11757.506366029971
20
-22627.66103804732
0
VERTEX
8
0
10
-11400.548114242567
20
-22809.592339514536
0
VERTEX
8
0
10
-11040.775567382814
20
-22985.89295352005
0
VERTEX
8
0
10
-10678.277537505657
20
-23156.519359178357
0
VERTEX
8
0
10
-10313.14350946827
20
-23321.429436316987
0
VERTEX
8
0
10
-9945.463618840044
20
-23480.58247587417
0
VERTEX
8
0
10
-9575.328629652144
20
-23633.939189948083
0
VERTEX
8
0
10
-9202.829911991828
20
-23781.461721495347
0
VERTEX
8
0
10
-8828.059419447249
20
-23923.113653676202
0
VERTEX
8
0
10
-8451.109666408034
20
-24058.8600188443
0
VERTEX
8
0
10
-8072.073705227621
20
-24188.66730717864
0
VERTEX
8
0
10
-7691.045103252692
20
-24312.503474955694
0
VERTEX
8
0
10
-7308.117919725486
20
-24430.337952459588
0
VERTEX
8
0
10
-6923.386682564779
20
-24542.14165152839
0
VERTEX
8
0
10
-6536.946365030967
20
-24647.88697273477
0
VERTEX
8
0
10
-6148.89236228141
20
-24747.547812199038
0
VERTEX
8
0
10
-5759.320467821544
20
-24841.099568033052
0
VERTEX
8
0
10
-5368.326849857643
20
-24928.51914641336
0
VERTEX
8
0
10
-4976.008027557187
20
-25009.784967282034
0
VERTEX
8
0
10
-4582.460847222399
20
-25084.876969673856
0
VERTEX
8
0
10
-4187.782458383218
20
-25153.776616668474
0
VERTEX
8
0
10
-3792.070289815326
20
-25216.466899966377
0
VERTEX
8
0
10
-3395.4220254892343
20
-25272.932344087472
0
VERTEX
8
0
10
-2997.935580456512
20
-25323.159010191303
0
VERTEX
8
0
10
-2599.7090766786077
20
-25367.13449951797
0
VERTEX
8
0
10
-2200.8408188051576
20
-25404.847956448804
0
VERTEX
8
0
10
-1801.4292699066332
20
-25436.290071186162
0
VERTEX
8
0
10
-1401.5730271682214
20
-25461.453082051594
0
VERTEX
8
0
10
-1001.3707975505953
20
-25480.33077740187
0
VERTEX
8
0
10
-600.9213734232476
20
-25492.918497162365
0
VERTEX
8
0
10
-200.32360817730697
20
-25499.213133977424
0
VERTEX
8
0
10
200.32360817727493
20
-25499.213133977424
0
VERTEX
8
0
10
600.9213734232382
20
-25492.91849716237
0
VERTEX
8
0
10
1001.3707975505408
20
-25480.330777401872
0
VERTEX
8
0
10
1401.5730271682123
20
-25461.453082051594
0
VERTEX
8
0
10
1801.4292699066013
20
-25436.290071186166
0
VERTEX
8
0
10
2200.8408188051258
20
-25404.847956448808
0
VERTEX
8
0
10
2599.709076678576
20
-25367.134499517975
0
VERTEX
8
0
10
2997.935580456458
20
-25323.15901019131
0
VERTEX
8
0
10
3395.4220254892252
20
-25272.932344087472
0
VERTEX
8
0
10
3792.070289815294
20
-25216.46689996638
0
VERTEX
8
0
10
4187.782458383186
20
-25153.77661666848
0
VERTEX
8
0
10
4582.460847222345
20
-25084.876969673864
0
VERTEX
8
0
10
4976.008027557156
20
-25009.784967282038
0
VERTEX
8
0
10
5368.326849857611
20
-24928.519146413368
0
VERTEX
8
0
10
5759.320467821492
20
-24841.099568033063
0
VERTEX
8
0
10
6148.892362281378
20
-24747.54781219904
0
VERTEX
8
0
10
6536.9463650309135
20
-24647.886972734785
0
VERTEX
8
0
10
6923.386682564749
20
-24542.1416515284
0
VERTEX
8
0
10
7308.117919725456
20
-24430.337952459595
0
VERTEX
8
0
10
7691.04510325264
20
-24312.503474955713
0
VERTEX
8
0
10
8072.073705227591
20
-24188.667307178654
0
VERTEX
8
0
10
8451.109666407983
20
-24058.860018844316
0
VERTEX
8
0
10
8828.059419447218
20
-23923.113653676213
0
VERTEX
8
0
10
9202.829911991797
20
-23781.461721495358
0
VERTEX
8
0
10
9575.328629652095
20
-23633.93918994811
0
VERTEX
8
0
10
9945.463618840013
20
-23480.58247587418
0
VERTEX
8
0
10
10313.143509468242
20
-23321.429436317
0
VERTEX
8
0
10
10678.277537505628
20
-23156.51935917837
0
VERTEX
8
0
10
11040.775567382763
20
-22985.892953520073
0
VERTEX
8
0
10
11400.548114242518
20
-22809.592339514562
0
VERTEX
8
0
10
11757.506366029944
20
-22627.661038047336
0
VERTEX
8
0
10
12111.56220541599
20
-22440.143959973586
0
VERTEX
8
0
10
12462.628231549937
20
-22247.087395031613
0
VERTEX
8
0
10
12810.61778163474
20
-22048.539000415964
0
VERTEX
8
0
10
13155.444952320297
20
-21844.547789012948
0
VERTEX
8
0
10
13497.024620909187
20
-21635.16411730152
0
VERTEX
8
0
10
13835.272466369865
20
-21420.4396729224
0
VERTEX
8
0
10
14170.104990151534
20
-21200.42746191884
0
VERTEX
8
0
10
14501.43953679659
20
-20975.181795651562
0
VERTEX
8
0
10
14829.194314344475
20
-20744.75827739175
0
VERTEX
8
0
10
15153.288414522463
20
-20509.213788595098
0
VERTEX
8
0
10
15473.641832718577
20
-20268.606474860124
0
VERTEX
8
0
10
15790.175487730938
20
-20022.99573157476
0
VERTEX
8
0
10
16102.811241289673
20
-19772.442189254085
0
VERTEX
8
0
10
16411.471917345727
20
-19517.007698573376
0
VERTEX
8
0
10
16716.08132112219
20
-19256.75531509994
0
VERTEX
8
0
10
17016.564257923623
20
-18991.749283727295
0
VERTEX
8
0
10
17312.846551698098
20
-18722.055022816145
0
VERTEX
8
0
10
17604.85506334819
20
-18447.739108045287
0
VERTEX
8
0
10
17892.517708785752
20
-18168.869255977057
0
VERTEX
8
0
10
18175.763476726235
20
-17885.51430734114
0
VERTEX
8
0
10
18454.522446218452
20
-17597.744210040655
0
VERTEX
8
0
10
18728.725803904752
20
-17305.630001885293
0
VERTEX
8
0
10
18998.305861008208
20
-17009.243793055033
0
VERTEX
8
0
10
19263.19607004193
20
-16708.65874829937
0
VERTEX
8
0
10
19523.331041236674
20
-16403.94906887621
0
VERTEX
8
0
10
19778.64655868285
20
-16095.189974234634
0
VERTEX
8
0
10
20029.079596182426
20
-15782.457683446793
0
VERTEX
8
0
10
20274.56833280749
20
-15465.829396392546
0
VERTEX
8
0
10
20515.052168161037
20
-15145.383274702268
0
VERTEX
8
0
10
20750.47173733654
20
-14821.198422462254
0
VERTEX
8
0
10
20980.768925572644
20
-14493.354866687192
0
VERTEX
8
0
10
21205.886882599007
20
-14161.933537565254
0
VERTEX
8
0
10
21425.77003667025
20
-13827.01624847976
0
VERTEX
8
0
10
21640.36410828408
20
-13488.68567581327
0
VERTEX
8
0
10
21849.616123580687
20
-13147.0253385381
0
VERTEX
8
0
10
22053.474427419475
20
-12802.119577599455
0
VERTEX
8
0
10
22251.888696130525
20
-12454.053535095254
0
VERTEX
8
0
10
22444.809949937357
20
-12102.913133258167
0
VERTEX
8
0
10
22632.190565047746
20
-11748.785053245452
0
VERTEX
8
0
10
22813.984285410184
20
-11391.756713740737
0
VERTEX
8
0
10
22990.146234132168
20
-11031.916249374746
0
VERTEX
8
0
10
23160.63292455859
20
-10669.352488968225
0
VERTEX
8
0
10
23325.40227100658
20
-10304.154933604263
0
VERTEX
8
0
10
23484.413599154526
20
-9936.4137345345
0
VERTEX
8
0
10
23637.627656083016
20
-9566.219670924313
0
VERTEX
8
0
10
23785.00661996438
20
-9193.664127443997
0
VERTEX
8
0
10
23926.514109399468
20
-8818.839071709388
0
VERTEX
8
0
10
24062.11519239851
20
-8441.837031579365
0
VERTEX
8
0
10
24191.776395004257
20
-8062.751072314886
0
VERTEX
8
0
10
24315.465709555385
20
-7681.674773604794
0
VERTEX
8
0
10
24433.152602587583
20
-7298.7022064657285
0
VERTEX
8
0
10
24544.808022371104
20
-6913.927910019541
0
VERTEX
8
0
10
24650.404406082238
20
-6527.446868156135
0
VERTEX
8
0
10
24749.915686607415
20
-6139.354486085991
0
VERTEX
8
0
10
24843.317298978072
20
-5749.746566788561
0
VERTEX
8
0
10
24930.58618643455
20
-5358.719287363242
0
VERTEX
8
0
10
25011.700806117926
20
-4966.3691752869045
0
VERTEX
8
0
10
25086.641134387904
20
-4572.793084585906
0
VERTEX
8
0
10
25155.388671765817
20
-4178.088171926953
0
VERTEX
8
0
10
25217.926447501355
20
-3782.3518726331627
0
VERTEX
8
0
10
25274.23902376184
20
-3385.681876631975
0
VERTEX
8
0
10
25324.312499443193
20
-2988.1761043394426
0
VERTEX
8
0
10
25368.134513601493
20
-2589.932682488248
0
VERTEX
8
0
10
25405.69424850437
20
-2191.049919904131
0
VERTEX
8
0
10
25436.982432301393
20
-1791.6262832382984
0
VERTEX
8
0
10
25461.99134131291
20
-1391.7603726598763
0
VERTEX
8
0
10
25480.714801936683
20
-991.5508975159444
0
VERTEX
8
0
10
25493.14819217187
20
-591.096651964847
0
VERTEX
8
0
10
25499.28844276
20
-190.4964905876623
0
VERTEX
8
0
10
25499.134037942636
20
210.1506960140005
0
VERTEX
8
0
10
25492.68501583556
20
610.7460056302258
0
VERTEX
8
0
10
25479.94296841933
20
1011.1905488573175
0
VERTEX
8
0
10
25460.911041146348
20
1411.3854735089362
0
VERTEX
8
0
10
25435.593932164324
20
1811.231989018955
0
VERTEX
8
0
10
25403.997891156556
20
2210.631390827814
0
VERTEX
8
0
10
25366.130717799122
20
2609.4850847490457
0
VERTEX
8
0
10
25322.001759835515
20
3007.694611307311
0
VERTEX
8
0
10
25271.621910769085
20
3405.161670043859
0
VERTEX
8
0
10
25215.003607173872
20
3801.788143782958
0
VERTEX
8
0
10
25152.160825624644
20
4197.476122852066
0
VERTEX
8
0
10
25083.10907924658
20
4592.127929252174
0
VERTEX
8
0
10
25007.865413885902
20
4985.646140769463
0
VERTEX
8
0
10
24926.44840390188
20
5377.933615025143
0
VERTEX
8
0
10
24838.878147581672
20
5768.893513455563
0
VERTEX
8
0
10
24745.17626217901
20
6158.429325216979
0
VERTEX
8
0
10
24645.365878577704
20
6546.444891010531
0
VERTEX
8
0
10
24539.47163558182
20
6932.844426819004
0
VERTEX
8
0
10
24427.519673833303
20
7317.532547552277
0
VERTEX
8
0
10
24309.537629359
20
7700.414290593642
0
VERTEX
8
0
10
24185.554626748704
20
8081.3951392413865
0
VERTEX
8
0
10
24055.601271965294
20
8460.381046041713
0
VERTEX
8
0
10
23919.70964478977
20
8837.27845600393
0
VERTEX
8
0
10
23777.913290901888
20
9211.994329696005
0
VERTEX
8
0
10
23630.24721359942
20
9584.436166211179
0
VERTEX
8
0
10
23476.74786515727
20
9954.512026002754
0
VERTEX
8
0
10
23317.453137828947
20
10322.13055358006
0
VERTEX
8
0
10
23152.402354492828
20
10687.201000059604
0
VERTEX
8
0
10
22981.636258944804
20
11049.633245567635
0
VERTEX
8
0
10
22805.197005840706
20
11409.337821486135
0
VERTEX
8
0
10
22623.128150289896
20
11766.22593253932
0
VERTEX
8
0
10
22435.474637103624
20
12120.209478712814
0
VERTEX
8
0
10
22242.2827897001
20
12471.201077001793
0
VERTEX
8
0
10
22043.600298669084
20
12819.114082982342
0
VERTEX
8
0
10
21839.476209999495
20
13163.862612199582
0
VERTEX
8
0
10
21629.960912971754
20
13505.361561369396
0
VERTEX
8
0
10
21415.106127719206
20
13843.526629386148
0
VERTEX
8
0
10
21194.9648924605
20
14178.274338133215
0
VERTEX
8
0
10
20969.591550406727
20
14509.522053090197
0
VERTEX
8
0
10
20739.041736346735
20
14837.188003731308
0
VERTEX
8
0
10
20503.372362912964
20
15161.191303711486
0
VERTEX
8
0
10
20262.64160653259
20
15481.451970833172
0
VERTEX
8
0
10
20016.90889306611
20
15797.890946790681
0
VERTEX
8
0
10
19766.234883137593
20
16110.43011668635
0
VERTEX
8
0
10
19510.681457160623
20
16418.992328313227
0
VERTEX
8
0
10
19250.31170006224
20
16723.50141120115
0
VERTEX
8
0
10
18985.18988571055
20
17023.882195419286
0
VERTEX
8
0
10
18715.381461047822
20
17320.0605301329
0
VERTEX
8
0
10
18440.95302993496
20
17611.963301907388
0
VERTEX
8
0
10
18161.972336709703
20
17899.51845275709
0
VERTEX
8
0
10
17878.508249463397
20
18182.65499793331
0
VERTEX
8
0
10
17590.630743040878
20
18461.303043446987
0
VERTEX
8
0
10
17298.410881766267
20
18735.393803322906
0
VERTEX
8
0
10
17001.920801900807
20
19004.859616579455
0
VERTEX
8
0
10
16701.233693835093
20
19269.633963931632
0
VERTEX
8
0
10
16396.423784021958
20
19529.65148421136
0
VERTEX
8
0
10
16087.56631665314
20
19784.847990502414
0
VERTEX
8
0
10
15774.737535084498
20
20035.16048598554
0
VERTEX
8
0
10
15458.014663015387
20
20280.527179489225
0
VERTEX
8
0
10
15137.475885424972
20
20520.88750074366
0
VERTEX
8
0
10
14813.2003292722
20
20756.18211533253
0
VERTEX
8
0
10
14485.268043962746
20
20986.35293934017
0
VERTEX
8
0
10
14153.759981587998
20
21211.34315369015
0
VERTEX
8
0
10
13818.757976942106
20
21431.09721817105
0
VERTEX
8
0
10
13480.344727319933
20
21645.560885147275
0
VERTEX
8
0
10
13138.603772103355
20
21854.681212950043
0
VERTEX
8
0
10
12793.619472138576
20
22058.406578946644
0
VERTEX
8
0
10
12445.4769889112
20
22256.686692283776
0
VERTEX
8
0
10
12094.262263523964
20
22449.472606301915
0
VERTEX
8
0
10
11740.061995481063
20
22636.71673061845
0
VERTEX
8
0
10
11382.96362128649
20
22818.372842875287
0
VERTEX
8
0
10
11023.05529285931
20
22994.39610014941
0
VERTEX
8
0
10
10660.425855772879
20
23164.74305002257
0
VERTEX
8
0
10
10295.164827323166
20
23329.371641307614
0
VERTEX
8
0
10
9927.362374430226
20
23488.241234429348
0
VERTEX
8
0
10
9557.109291380677
20
23641.312611456353
0
VERTEX
8
0
10
9184.4969774138
20
23788.5479857825
0
VERTEX
8
0
10
8809.61741415976
20
23929.911011454536
0
VERTEX
8
0
10
8432.563142933037
20
24065.366792144418
0
VERTEX
8
0
10
8053.427241887808
20
24194.88188976378
0
VERTEX
8
0
10
-8053.427241887804
20
24194.881889763783
0
VERTEX
8
0
10
-7990.2631066573285
20
24005.118110236217
0
VERTEX
8
0
10
7990.263106657316
20
24005.11811023622
0
VERTEX
8
0
10
8366.425392792342
20
23876.618817304083
0
VERTEX
8
0
10
8740.52237561733
20
23742.22543489411
0
VERTEX
8
0
10
9112.461707002713
20
23601.971138835186
0
VERTEX
8
0
10
9482.15157144826
20
23455.890551758665
0
VERTEX
8
0
10
9849.50070874842
20
23304.01973455147
0
VERTEX
8
0
10
10214.418436520591
20
23146.39617745424
0
VERTEX
8
0
10
10576.814672590348
20
22983.05879080671
0
VERTEX
8
0
10
10936.599957229
20
22814.047895442374
0
VERTEX
8
0
10
11293.685475237204
20
22639.40521273508
0
VERTEX
8
0
10
11647.983077869447
20
22459.173854299876
0
VERTEX
8
0
10
11999.405304594326
20
22273.398311350553
0
VERTEX
8
0
10
12347.865404684444
20
22082.124443716846
0
VERTEX
8
0
10
12693.277358631567
20
21885.399468523556
0
VERTEX
8
0
10
13035.555899380975
20
21683.271948534748
0
VERTEX
8
0
10
13374.61653338017
20
21475.791780165728
0
VERTEX
8
0
10
13710.375561436642
20
21263.01018116581
0
VERTEX
8
0
10
14042.750099379464
20
21044.979677974934
0
VERTEX
8
0
10
14371.658098519863
20
20821.75409275713
0
VERTEX
8
0
10
14697.01836590536
20
20593.388530114236
0
VERTEX
8
0
10
15018.750584362799
20
20359.939363482943
0
VERTEX
8
0
10
15336.775332325036
20
20121.46422121875
0
VERTEX
8
0
10
15651.014103436775
20
19878.021972369967
0
VERTEX
8
0
10
15961.389325934255
20
19629.67271214556
0
VERTEX
8
0
10
16267.824381794335
20
19376.47774708029
0
VERTEX
8
0
10
16570.243625648134
20
19118.49957990081
0
VERTEX
8
0
10
16868.572403454476
20
18855.801894096527
0
VERTEX
8
0
10
17162.737070928884
20
18588.449538198805
0
VERTEX
8
0
10
17452.66501172288
20
18316.508509772924
0
VERTEX
8
0
10
17738.28465534996
20
18040.04593912599
0
VERTEX
8
0
10
18019.52549485314
20
17759.130072735476
0
VERTEX
8
0
10
18296.318104209982
20
17473.83025640223
0
VERTEX
8
0
10
18568.594155470975
20
17184.216918131857
0
VERTEX
8
0
10
18836.28643562653
20
16890.36155074935
0
VERTEX
8
0
10
19099.328863199007
20
16592.33669425055
0
VERTEX
8
0
10
19357.656504555427
20
16290.2159178951
0
VERTEX
8
0
10
19611.205589936515
20
15984.073802045672
0
VERTEX
8
0
10
19859.913529198908
20
15673.98591975705
0
VERTEX
8
0
10
20103.71892726567
20
15360.028818120756
0
VERTEX
8
0
10
20342.561599282275
20
15042.279999368651
0
VERTEX
8
0
10
20576.382585473413
20
14720.817901741277
0
VERTEX
8
0
10
20805.124165697653
20
14395.721880124784
0
VERTEX
8
0
10
21028.729873696095
20
14067.072186461599
0
VERTEX
8
0
10
21247.144511031212
20
13734.949949939983
0
VERTEX
8
0
10
21460.31416071315
20
13399.4371569665
0
VERTEX
8
0
10
21668.18620050929
20
13060.616630927445
0
VERTEX
8
0
10
21870.709315934426
20
12718.572011743265
0
VERTEX
8
0
10
22067.83351291813
20
12373.387735221406
0
VERTEX
8
0
10
22259.51013014595
20
12025.149012213105
0
VERTEX
8
0
10
22445.691851071926
20
11673.941807578249
0
VERTEX
8
0
10
22626.33271559879
20
11319.852818964735
0
VERTEX
8
0
10
22801.388131423668
20
10962.969455406319
0
VERTEX
8
0
10
22970.814885045816
20
10603.37981574543
0
VERTEX
8
0
10
23134.571152434208
20
10241.172666885315
0
VERTEX
8
0
10
23292.61650935211
20
9876.437421877265
0
VERTEX
8
0
10
23444.911941335897
20
9509.264117848737
0
VERTEX
8
0
10
23591.419853326188
20
9139.743393776822
0
VERTEX
8
0
10
23732.104078948272
20
8767.966468113726
0
VERTEX
8
0
10
23866.929889440074
20
8394.025116268838
0
VERTEX
8
0
10
23995.86400222517
20
8018.011647953263
0
VERTEX
8
0
10
24118.874589128736
20
7640.018884392907
0
VERTEX
8
0
10
24235.931284234597
20
7260.140135414656
0
VERTEX
8
0
10
24347.005191381177
20
6878.46917641258
0
VERTEX
8
0
10
24452.06889129474
20
6495.100225198684
0
VERTEX
8
0
10
24551.09644835799
20
6110.127918744733
0
VERTEX
8
0
10
24644.063417012403
20
5723.6472898206175
0
VERTEX
8
0
10
24730.946847792835
20
5335.753743534794
0
VERTEX
8
0
10
24811.725292992676
20
4946.543033783036
0
VERTEX
8
0
10
24886.37881195837
20
4556.11123961098
0
VERTEX
8
0
10
24954.88897601189
20
4164.554741496407
0
VERTEX
8
0
10
25017.23887299996
20
3771.970197557209
0
VERTEX
8
0
10
25073.41311146893
20
3378.4545196906183
0
VERTEX
8
0
10
25123.397824464257
20
2984.1048496499984
0
VERTEX
8
0
10
25167.18067295364
20
2589.0185350647394
0
VERTEX
8
0
10
25204.750848872965
20
2193.293105409624
0
VERTEX
8
0
10
25236.099077794406
20
1797.0262479286102
0
VERTEX
8
0
10
25261.217621215783
20
1400.3157835206757
0
VERTEX
8
0
10
25280.10027847094
20
1003.2596425917699
0
VERTEX
8
0
10
25292.742388260376
20
605.9558408802072
0
VERTEX
8
0
10
25299.14082980191
20
208.50245526097197
0
VERTEX
8
0
10
25299.294023601098
20
-189.0024004654061
0
VERTEX
8
0
10
25293.20193184111
20
-586.4605997925287
0
VERTEX
8
0
10
25280.866058392083
20
-983.7740277315056
0
VERTEX
8
0
10
25262.28944843987
20
-1380.8446050311488
0
VERTEX
8
0
10
25237.476687734328
20
-1777.574312389348
0
VERTEX
8
0
10
25206.433901457276
20
-2173.8652146499808
0
VERTEX
8
0
10
25169.16875271051
20
-2569.619484978469
0
VERTEX
8
0
10
25125.690440624032
20
-2964.7394290112898
0
VERTEX
8
0
10
25076.009698085276
20
-3359.127508972116
0
VERTEX
8
0
10
25020.138789089586
20
-3752.6863677497427
0
VERTEX
8
0
10
24958.091505712757
20
-4145.318852931426
0
VERTEX
8
0
10
24889.883164706433
20
-4536.928040785232
0
VERTEX
8
0
10
24815.530603717
20
-4927.417260186615
0
VERTEX
8
0
10
24735.052177129182
20
-5316.690116481962
0
VERTEX
8
0
10
24648.467751535107
20
-5704.6505152843365
0
VERTEX
8
0
10
24555.79870083011
20
-6091.202686195099
0
VERTEX
8
0
10
24457.067900936498
20
-6476.251206445106
0
VERTEX
8
0
10
24352.29972415643
20
-6859.70102445076
0
VERTEX
8
0
10
24241.520033155535
20
-7241.45748327772
0
VERTEX
8
0
10
24124.75617457848
20
-7621.426344007893
0
VERTEX
8
0
10
24002.03697229835
20
-7999.513809002591
0
VERTEX
8
0
10
23873.392720301268
20
-8375.626545057175
0
VERTEX
8
0
10
23738.85517520811
20
-8749.671706441057
0
VERTEX
8
0
10
23598.457548435264
20
-9121.556957816943
0
VERTEX
8
0
10
23452.23449799609
20
-9491.19049703471
0
VERTEX
8
0
10
23300.22211994548
20
-9858.481077793032
0
VERTEX
8
0
10
23142.457939469274
20
-10223.338032164229
0
VERTEX
8
0
10
22978.98090162089
20
-10585.671292976296
0
VERTEX
8
0
10
22809.83136170762
20
-10945.391416046277
0
VERTEX
8
0
10
22635.051075328538
20
-11302.409602260417
0
VERTEX
8
0
10
22454.68318806701
20
-11656.637719494449
0
VERTEX
8
0
10
22268.77222483981
20
-12007.988324369868
0
VERTEX
8
0
10
22077.364078905983
20
-12356.374683839585
0
VERTEX
8
0
10
21880.506000537778
20
-12701.710796598634
0
VERTEX
8
0
10
21678.246585356548
20
-13043.911414314232
0
VERTEX
8
0
10
21470.635762336777
20
-13382.892062669598
0
VERTEX
8
0
10
21257.72478148068
20
-13718.569062217175
0
VERTEX
8
0
10
21039.566201166857
20
-14050.859549035331
0
VERTEX
8
0
10
20816.213875175996
20
-14379.681495183762
0
VERTEX
8
0
10
20587.722939396655
20
-14704.95372895273
0
VERTEX
8
0
10
20354.149798214676
20
-15026.59595490068
0
VERTEX
8
0
10
20115.55211058939
20
-15344.528773675742
0
VERTEX
8
0
10
19871.988775820224
20
-15658.673701615822
0
VERTEX
8
0
10
19623.519919006903
20
-15968.95319012299
0
VERTEX
8
0
10
19370.20687620738
20
-16275.290644806573
0
VERTEX
8
0
10
19112.112179296502
20
-16577.610444391143
0
VERTEX
8
0
10
18849.299540529726
20
-16875.837959383996
0
VERTEX
8
0
10
18581.833836815316
20
-17169.89957049794
0
VERTEX
8
0
10
18309.78109369909
20
-17459.72268682465
0
VERTEX
8
0
10
18033.208469065656
20
-17745.235763754135
0
VERTEX
8
0
10
17752.18423655998
20
-18026.368320636062
0
VERTEX
8
0
10
17466.77776873371
20
-18303.05095817825
0
VERTEX
8
0
10
17177.05951992009
20
-18575.215375578355
0
VERTEX
8
0
10
16883.10100884187
20
-18842.794387384336
0
VERTEX
8
0
10
16584.974800956545
20
-19105.721940079533
0
VERTEX
8
0
10
16282.754490543015
20
-19363.93312838849
0
VERTEX
8
0
10
15976.514682534478
20
-19617.364211299137
0
VERTEX
8
0
10
15666.330974101675
20
-19865.952627797702
0
VERTEX
8
0
10
15352.279935991372
20
-20109.637012312203
0
VERTEX
8
0
10
15034.439093624285
20
-20348.35720986099
0
VERTEX
8
0
10
14712.88690795746
20
-20582.0542909024
0
VERTEX
8
0
10
14387.702756115832
20
-20810.67056588175
0
VERTEX
8
0
10
14058.966911797404
20
-21034.14959947242
0
VERTEX
8
0
10
13726.760525457159
20
-21252.43622450732
0
VERTEX
8
0
10
13391.165604274664
20
-21465.476555597157
0
VERTEX
8
0
10
13052.26499190994
20
-21673.218002432455
0
VERTEX
8
0
10
12710.142348053292
20
-21875.609282765643
0
VERTEX
8
0
10
12364.882127773075
20
-22072.60043507058
0
VERTEX
8
0
10
12016.569560667629
20
-22264.142830875753
0
VERTEX
8
0
10
11665.290629825788
20
-22450.189186768534
0
VERTEX
8
0
10
11311.132050601402
20
-22630.693576067388
0
VERTEX
8
0
10
10954.181249207253
20
-22805.61144015911
0
VERTEX
8
0
10
10594.526341133034
20
-22974.89959949854
0
VERTEX
8
0
10
10232.25610939398
20
-23138.51626426746
0
VERTEX
8
0
10
9867.459982613816
20
-23296.421044690855
0
VERTEX
8
0
10
9500.22801294898
20
-23448.57496100732
0
VERTEX
8
0
10
9130.650853858571
20
-23594.940453091458
0
VERTEX
8
0
10
8758.819737726064
20
-23735.48138972581
0
VERTEX
8
0
10
8384.826453338137
20
-23870.16307752004
0
VERTEX
8
0
10
8008.763323225806
20
-23998.95226947529
0
VERTEX
8
0
10
7630.723180874209
20
-24121.817173191346
0
VERTEX
8
0
10
7250.799347806083
20
-24238.7274587148
0
VERTEX
8
0
10
6869.085610544634
20
-24349.654266026217
0
VERTEX
8
0
10
6485.6761974621095
20
-24454.570212164297
0
VERTEX
8
0
10
6100.665755518387
20
-24553.449397985718
0
VERTEX
8
0
10
5714.149326897424
20
-24646.26741455829
0
VERTEX
8
0
10
5326.222325545024
20
-24733.00134918659
0
VERTEX
8
0
10
4936.980513615531
20
-24813.629791068062
0
VERTEX
8
0
10
4546.519977832433
20
-24888.13283657837
0
VERTEX
8
0
10
4154.937105768417
20
-24956.492094184807
0
VERTEX
8
0
10
3762.328562052037
20
-25018.69068898625
0
VERTEX
8
0
10
3368.791264504996
20
-25074.71326687894
0
VERTEX
8
0
10
2974.4223602176057
20
-25124.545998346668
0
VERTEX
8
0
10
2579.319201567394
20
-25168.176581874694
0
VERTEX
8
0
10
2183.5793221870463
20
-25205.594246986464
0
VERTEX
8
0
10
1787.300412887726
20
-25236.78975690235
0
VERTEX
8
0
10
1390.5802975433635
20
-25261.755410819816
0
VERTEX
8
0
10
993.5169089423238
20
-25280.485045814403
0
VERTEX
8
0
10
596.2082646120755
20
-25292.974038361095
0
VERTEX
8
0
10
198.7524426229434
20
-25299.219305475643
0
VERTEX
8
0
10
-198.75244262295269
20
-25299.219305475643
0
VERTEX
8
0
10
-596.2082646120848
20
-25292.97403836109
0
VERTEX
8
0
10
-993.5169089423329
20
-25280.485045814403
0
VERTEX
8
0
10
-1390.5802975433728
20
-25261.755410819816
0
VERTEX
8
0
10
-1787.3004128877576
20
-25236.789756902348
0
VERTEX
8
0
10
-2183.5793221870554
20
-25205.594246986464
0
VERTEX
8
0
10
-2579.319201567403
20
-25168.176581874694
0
VERTEX
8
0
10
-2974.422360217615
20
-25124.545998346664
0
VERTEX
8
0
10
-3368.791264505005
20
-25074.71326687894
0
VERTEX
8
0
10
-3762.3285620520683
20
-25018.690688986248
0
VERTEX
8
0
10
-4154.937105768426
20
-24956.492094184803
0
VERTEX
8
0
10
-4546.519977832398
20
-24888.132836578377
0
VERTEX
8
0
10
-4936.980513615562
20
-24813.629791068055
0
VERTEX
8
0
10
-5326.2223255450335
20
-24733.00134918659
0
VERTEX
8
0
10
-5714.14932689741
20
-24646.26741455829
0
VERTEX
8
0
10
-6100.665755518418
20
-24553.44939798571
0
VERTEX
8
0
10
-6485.676197462097
20
-24454.5702121643
0
VERTEX
8
0
10
-6869.085610544663
20
-24349.654266026206
0
VERTEX
8
0
10
-7250.79934780607
20
-24238.727458714806
0
VERTEX
8
0
10
-7630.723180874218
20
-24121.817173191346
0
VERTEX
8
0
10
-8008.763323225835
20
-23998.952269475278
0
VERTEX
8
0
10
-8384.826453338166
20
-23870.163077520032
0
VERTEX
8
0
10
-8758.819737726093
20
-23735.4813897258
0
VERTEX
8
0
10
-9130.650853858559
20
-23594.94045309146
0
VERTEX
8
0
10
-9500.22801294897
20
-23448.574961007325
0
VERTEX
8
0
10
-9867.459982613847
20
-23296.421044690844
0
VERTEX
8
0
10
-10232.25610939401
20
-23138.516264267444
0
VERTEX
8
0
10
-10594.526341133063
20
-22974.899599498527
0
VERTEX
8
0
10
-10954.181249207242
20
-22805.61144015912
0
VERTEX
8
0
10
-11311.132050601429
20
-22630.693576067377
0
VERTEX
8
0
10
-11665.290629825815
20
-22450.18918676852
0
VERTEX
8
0
10
-12016.569560667658
20
-22264.14283087574
0
VERTEX
8
0
10
-12364.882127773102
20
-22072.600435070566
0
VERTEX
8
0
10
-12710.14234805332
20
-21875.60928276563
0
VERTEX
8
0
10
-13052.26499190997
20
-21673.218002432437
0
VERTEX
8
0
10
-13391.165604274633
20
-21465.476555597175
0
VERTEX
8
0
10
-13726.760525457188
20
-21252.436224507306
0
VERTEX
8
0
10
-14058.966911797412
20
-21034.149599472414
0
VERTEX
8
0
10
-14387.702756115857
20
-20810.670565881726
0
VERTEX
8
0
10
-14712.886907957465
20
-20582.0542909024
0
VERTEX
8
0
10
-15034.439093624254
20
-20348.357209861013
0
VERTEX
8
0
10
-15352.279935991377
20
-20109.637012312196
0
VERTEX
8
0
10
-15666.330974101684
20
-19865.952627797695
0
VERTEX
8
0
10
-15976.514682534467
20
-19617.364211299147
0
VERTEX
8
0
10
-16282.754490543024
20
-19363.933128388482
0
VERTEX
8
0
10
-16584.97480095655
20
-19105.72194007953
0
VERTEX
8
0
10
-16883.101008841873
20
-18842.79438738433
0
VERTEX
8
0
10
-17177.05951992008
20
-18575.215375578366
0
VERTEX
8
0
10
-17466.77776873371
20
-18303.05095817825
0
VERTEX
8
0
10
-17752.184236559988
20
-18026.368320636055
0
VERTEX
8
0
10
-18033.20846906566
20
-17745.235763754128
0
VERTEX
8
0
10
-18309.781093699097
20
-17459.72268682464
0
VERTEX
8
0
10
-18581.833836815316
20
-17169.89957049794
0
VERTEX
8
0
10
-18849.299540529726
20
-16875.837959383996
0
VERTEX
8
0
10
-19112.11217929651
20
-16577.610444391135
0
VERTEX
8
0
10
-19370.206876207383
20
-16275.290644806566
0
VERTEX
8
0
10
-19623.51991900691
20
-15968.95319012298
0
VERTEX
8
0
10
-19871.988775820224
20
-15658.673701615822
0
VERTEX
8
0
10
-20115.5521105894
20
-15344.528773675725
0
VERTEX
8
0
10
-20354.14979821468
20
-15026.595954900673
0
VERTEX
8
0
10
-20587.72293939666
20
-14704.953728952722
0
VERTEX
8
0
10
-20816.213875176007
20
-14379.681495183746
0
VERTEX
8
0
10
-21039.566201166865
20
-14050.859549035315
0
VERTEX
8
0
10
-21257.724781480676
20
-13718.569062217177
0
VERTEX
8
0
10
-21470.635762336773
20
-13382.892062669609
0
VERTEX
8
0
10
-21678.246585356548
20
-13043.911414314232
0
VERTEX
8
0
10
-21880.506000537767
20
-12701.710796598654
0
VERTEX
8
0
10
-22077.364078905994
20
-12356.374683839567
0
VERTEX
8
0
10
-22268.77222483981
20
-12007.98832436987
0
VERTEX
8
0
10
-22454.683188067
20
-11656.63771949447
0
VERTEX
8
0
10
-22635.051075328538
20
-11302.409602260419
0
VERTEX
8
0
10
-22809.83136170761
20
-10945.3914160463
0
VERTEX
8
0
10
-22978.980901620886
20
-10585.671292976298
0
VERTEX
8
0
10
-23142.457939469274
20
-10223.33803216423
0
VERTEX
8
0
10
-23300.22211994549
20
-9858.481077793014
0
VERTEX
8
0
10
-23452.23449799609
20
-9491.190497034711
0
VERTEX
8
0
10
-23598.457548435254
20
-9121.556957816967
0
VERTEX
8
0
10
-23738.85517520811
20
-8749.67170644105
0
VERTEX
8
0
10
-23873.392720301268
20
-8375.626545057175
0
VERTEX
8
0
10
-24002.036972298352
20
-7999.513809002572
0
VERTEX
8
0
10
-24124.75617457848
20
-7621.426344007895
0
VERTEX
8
0
10
-24241.52003315553
20
-7241.4574832777325
0
VERTEX
8
0
10
-24352.29972415643
20
-6859.70102445075
0
VERTEX
8
0
10
-24457.067900936498
20
-6476.2512064451075
0
VERTEX
8
0
10
-24555.798700830113
20
-6091.202686195078
0
VERTEX
8
0
10
-24648.467751535107
20
-5704.650515284338
0
VERTEX
8
0
10
-24735.052177129186
20
-5316.690116481931
0
VERTEX
8
0
10
-24815.530603717
20
-4927.417260186606
0
VERTEX
8
0
10
-24889.883164706433
20
-4536.928040785234
0
VERTEX
8
0
10
-24958.09150571276
20
-4145.318852931406
0
VERTEX
8
0
10
-25020.138789089586
20
-3752.686367749756
0
VERTEX
8
0
10
-25076.00969808528
20
-3359.1275089720843
0
VERTEX
8
0
10
-25125.690440624032
20
-2964.7394290112807
0
VERTEX
8
0
10
-25169.168752710506
20
-2569.6194849784933
0
VERTEX
8
0
10
-25206.43390145728
20
-2173.8652146499717
0
VERTEX
8
0
10
-25237.476687734325
20
-1777.574312389361
0
VERTEX
8
0
10
-25262.28944843987
20
-1380.844605031117
0
VERTEX
8
0
10
-25280.866058392086
20
-983.7740277314963
0
VERTEX
8
0
10
-25293.201931841115
20
-586.4605997925195
0
VERTEX
8
0
10
-25299.294023601098
20
-189.00240046539682
0
VERTEX
8
0
10
-25299.14082980191
20
208.50245526095875
0
VERTEX
8
0
10
-25292.742388260376
20
605.9558408802166
0
VERTEX
8
0
10
-25280.10027847094
20
1003.2596425917792
0
VERTEX
8
0
10
-25261.217621215783
20
1400.315783520685
0
VERTEX
8
0
10
-25236.099077794403
20
1797.0262479286198
0
VERTEX
8
0
10
-25204.75084887297
20
2193.2931054096
0
VERTEX
8
0
10
-25167.18067295364
20
2589.0185350647603
0
VERTEX
8
0
10
-25123.397824464257
20
2984.104849650008
0
VERTEX
8
0
10
-25073.41311146893
20
3378.4545196906274
0
VERTEX
8
0
10
-25017.23887299996
20
3771.970197557218
0
VERTEX
8
0
10
-24954.888976011887
20
4164.554741496416
0
VERTEX
8
0
10
-24886.378811958373
20
4556.1112396109565
0
VERTEX
8
0
10
-24811.725292992676
20
4946.543033783045
0
VERTEX
8
0
10
-24730.946847792835
20
5335.753743534803
0
VERTEX
8
0
10
-24644.0634170124
20
5723.647289820627
0
VERTEX
8
0
10
-24551.09644835798
20
6110.127918744753
0
VERTEX
8
0
10
-24452.06889129474
20
6495.100225198681
0
VERTEX
8
0
10
-24347.005191381173
20
6878.46917641259
0
VERTEX
8
0
10
-24235.931284234593
20
7260.140135414664
0
VERTEX
8
0
10
-24118.874589128736
20
7640.018884392906
0
VERTEX
8
0
10
-23995.864002225167
20
8018.011647953271
0
VERTEX
8
0
10
-23866.929889440078
20
8394.025116268826
0
VERTEX
8
0
10
-23732.104078948272
20
8767.966468113735
0
VERTEX
8
0
10
-23591.419853326184
20
9139.74339377683
0
VERTEX
8
0
10
-23444.911941335897
20
9509.264117848736
0
VERTEX
8
0
10
-23292.6165093521
20
9876.437421877283
0
VERTEX
8
0
10
-23134.571152434215
20
10241.172666885303
0
VERTEX
8
0
10
-22970.81488504581
20
10603.379815745438
0
VERTEX
8
0
10
-22801.388131423657
20
10962.969455406337
0
VERTEX
8
0
10
-22626.3327155988
20
11319.852818964713
0
VERTEX
8
0
10
-22445.691851071926
20
11673.941807578247
0
VERTEX
8
0
10
-22259.51013014595
20
12025.149012213104
0
VERTEX
8
0
10
-22067.833512918125
20
12373.387735221415
0
VERTEX
8
0
10
-21870.709315934426
20
12718.572011743265
0
VERTEX
8
0
10
-21668.18620050928
20
13060.616630927465
0
VERTEX
8
0
10
-21460.314160713155
20
13399.437156966496
0
VERTEX
8
0
10
-21247.144511031212
20
13734.949949939979
0
VERTEX
8
0
10
-21028.72987369608
20
14067.072186461617
0
VERTEX
8
0
10
-20805.124165697656
20
14395.721880124784
0
VERTEX
8
0
10
-20576.3825854734
20
14720.817901741295
0
VERTEX
8
0
10
-20342.561599282275
20
15042.279999368651
0
VERTEX
8
0
10
-20103.71892726567
20
15360.028818120756
0
VERTEX
8
0
10
-19859.913529198893
20
15673.985919757062
0
VERTEX
8
0
10
-19611.20558993652
20
15984.073802045668
0
VERTEX
8
0
10
-19357.656504555416
20
16290.215917895119
0
VERTEX
8
0
10
-19099.32886319901
20
16592.33669425055
0
VERTEX
8
0
10
-18836.286435626516
20
16890.361550749367
0
VERTEX
8
0
10
-18568.59415547096
20
17184.21691813187
0
VERTEX
8
0
10
-18296.318104209975
20
17473.830256402234
0
VERTEX
8
0
10
-18019.52549485312
20
17759.1300727355
0
VERTEX
8
0
10
-17738.28465534996
20
18040.04593912599
0
VERTEX
8
0
10
-17452.665011722882
20
18316.508509772924
0
VERTEX
8
0
10
-17162.73707092887
20
18588.44953819882
0
VERTEX
8
0
10
-16868.572403454495
20
18855.80189409651
0
VERTEX
8
0
10
-16570.243625648112
20
19118.49957990083
0
VERTEX
8
0
10
-16267.824381794338
20
19376.47774708029
0
VERTEX
8
0
10
-15961.389325934259
20
19629.67271214556
0
VERTEX
8
0
10
-15651.014103436779
20
19878.021972369963
0
VERTEX
8
0
10
-15336.775332325027
20
20121.464221218757
0
VERTEX
8
0
10
-15018.75058436279
20
20359.939363482947
0
VERTEX
8
0
10
-14697.018365905355
20
20593.38853011424
0
VERTEX
8
0
10
-14371.658098519863
20
20821.75409275713
0
VERTEX
8
0
10
-14042.750099379457
20
21044.97967797494
0
VERTEX
8
0
10
-13710.375561436633
20
21263.010181165813
0
VERTEX
8
0
10
-13374.61653338018
20
21475.79178016572
0
VERTEX
8
0
10
-13035.555899380966
20
21683.27194853475
0
VERTEX
8
0
10
-12693.277358631562
20
21885.399468523563
0
VERTEX
8
0
10
-12347.865404684435
20
22082.12444371685
0
VERTEX
8
0
10
-11999.405304594316
20
22273.398311350553
0
VERTEX
8
0
10
-11647.983077869458
20
22459.17385429987
0
VERTEX
8
0
10
-11293.685475237176
20
22639.40521273509
0
VERTEX
8
0
10
-10936.599957228993
20
22814.047895442378
0
VERTEX
8
0
10
-10576.814672590339
20
22983.058790806714
0
VERTEX
8
0
10
-10214.418436520582
20
23146.396177454244
0
VERTEX
8
0
10
-9849.500708748432
20
23304.019734551464
0
VERTEX
8
0
10
-9482.15157144825
20
23455.890551758665
0
VERTEX
8
0
10
-9112.461707002698
20
23601.971138835193
0
VERTEX
8
0
10
-8740.522375617336
20
23742.225434894106
0
VERTEX
8
0
10
-8366.42539279233
20
23876.61881730409
0
VERTEX
8
0
10
-7990.2631066573285
20
24005.118110236217
0
VERTEX
8
0
10
-8053.427241887804
20
24194.881889763783
0
SEQEND
0
INSERT
2
A
8
0
10
-7100.0
20
-20800.0
0
INSERT
2
Agap
8
gap
10
-7100.0
20
-20800.0
0
INSERT
2
Apin
8
pin
10
-7100.0
20
-20800.0
0
INSERT
2
A
8
0
10
100.0
20
-20800.0
0
INSERT
2
Agap
8
gap
10
100.0
20
-20800.0
0
INSERT
2
Apin
8
pin
10
100.0
20
-20800.0
0
INSERT
2
A
8
0
10
-7100.0
20
-18600.0
0
INSERT
2
Agap
8
gap
10
-7100.0
20
-18600.0
0
INSERT
2
Apin
8
pin
10
-7100.0
20
-18600.0
0
INSERT
2
A
8
0
10
100.0
20
-18600.0
0
INSERT
2
Agap
8
gap
10
100.0
20
-18600.0
0
INSERT
2
Apin
8
pin
10
100.0
20
-18600.0
0
INSERT
2
A
8
0
10
-14300.0
20
-16400.0
0
INSERT
2
Agap
8
gap
10
-14300.0
20
-16400.0
0
INSERT
2
Apin
8
pin
10
-14300.0
20
-16400.0
0
ENDSEC
0
EOF
